<svg xmlns="http://www.w3.org/2000/svg" width="80" height="80" viewBox="0 0 80 80" fill="none">
                                    <path d="M40.0003 62.5283H33.417C26.6098 62.5283 21.0732 56.9917 21.0732 50.1846C21.0732 43.3774 26.6098 37.8408 33.417 37.8408H46.5837C50.6686 37.8408 53.9899 34.5195 53.9899 30.4346C53.9899 26.3496 50.6686 23.0283 46.5837 23.0283H40.0003C38.6376 23.0283 37.5316 21.9223 37.5316 20.5596C37.5316 19.1968 38.6376 18.0908 40.0003 18.0908H46.5837C53.3908 18.0908 58.9274 23.6274 58.9274 30.4346C58.9274 37.2417 53.3908 42.7783 46.5837 42.7783H33.417C29.332 42.7783 26.0107 46.0996 26.0107 50.1846C26.0107 54.2695 29.332 57.5908 33.417 57.5908H40.0003C41.3631 57.5908 42.4691 58.6968 42.4691 60.0596C42.4691 61.4223 41.3631 62.5283 40.0003 62.5283Z" fill="white"></path>
                                    <path opacity="0.4" d="M20.2503 9.03857C13.8974 9.03857 8.72949 14.2065 8.72949 20.5594C8.72949 27.2645 14.7204 31.2208 18.6869 33.841L19.3386 34.2725C19.6151 34.4569 19.9343 34.549 20.2503 34.549C20.5663 34.549 20.8855 34.4569 21.162 34.2725L21.8138 33.841C25.7802 31.2208 31.7712 27.2645 31.7712 20.5594C31.7712 14.2065 26.6032 9.03857 20.2503 9.03857Z" fill="white"></path>
                                    <path d="M20.316 23.8514C18.499 23.8514 17.0078 22.3767 17.0078 20.5597C17.0078 18.7427 18.4627 17.2681 20.283 17.2681H20.316C22.133 17.2681 23.6076 18.7427 23.6076 20.5597C23.6076 22.3767 22.133 23.8514 20.316 23.8514Z" fill="white"></path>
                                    <path opacity="0.4" d="M59.7503 46.0698C53.3974 46.0698 48.2295 51.2377 48.2295 57.5907C48.2295 64.2958 54.2204 68.2521 58.1869 70.8722L58.8386 71.3038C59.1151 71.4881 59.4343 71.5802 59.7503 71.5802C60.0663 71.5802 60.3855 71.4881 60.662 71.3038L61.3138 70.8722C65.2802 68.2521 71.2712 64.2958 71.2712 57.5907C71.2712 51.2377 66.1032 46.0698 59.7503 46.0698Z" fill="white"></path>
                                    <path d="M59.816 60.8826C57.999 60.8826 56.5078 59.408 56.5078 57.591C56.5078 55.774 57.9627 54.2993 59.783 54.2993H59.816C61.633 54.2993 63.1076 55.774 63.1076 57.591C63.1076 59.408 61.633 60.8826 59.816 60.8826Z" fill="white"></path>
                                    </svg>
