<svg xmlns="http://www.w3.org/2000/svg" width="80" height="80" viewBox="0 0 80 80" fill="none">
                                    <path opacity="0.4" d="M60.6661 23.2432H19.3326C17.9636 23.2432 16.8525 24.3542 16.8525 25.7232V37.6041C16.8525 41.1125 18.245 44.475 20.7284 46.955L31.9344 58.1619C32.8636 59.0911 33.3859 60.3544 33.3859 61.6704V69.5367H46.6127V61.6704C46.6127 60.3544 47.135 59.0944 48.0642 58.1619L59.2703 46.955C61.7503 44.475 63.1461 41.1092 63.1461 37.6041V25.7232C63.1461 24.3542 62.035 23.2432 60.6661 23.2432Z" fill="white"></path>
                                    <path d="M54.0528 10.0171V23.2438H49.0928V10.0171C49.0928 8.66138 50.217 7.53711 51.5728 7.53711C52.9285 7.53711 54.0528 8.66138 54.0528 10.0171Z" fill="white"></path>
                                    <path d="M30.9063 10.0171V23.2438H25.9463V10.0171C25.9463 8.66138 27.0706 7.53711 28.4263 7.53711C29.782 7.53711 30.9063 8.66138 30.9063 10.0171Z" fill="white"></path>
                                    <path d="M46.613 38.9503H33.3863C32.0173 38.9503 30.9062 37.8392 30.9062 36.4702C30.9062 35.1013 32.0173 33.9902 33.3863 33.9902H46.613C47.982 33.9902 49.093 35.1013 49.093 36.4702C49.093 37.8392 47.982 38.9503 46.613 38.9503Z" fill="white"></path>
                                    </svg>
