<svg xmlns="http://www.w3.org/2000/svg" width="80" height="80" viewBox="0 0 80 80" fill="none">
                                            <path opacity="0.4" d="M39.5397 73.2601C57.7191 73.2601 72.4564 58.5228 72.4564 40.3434C72.4564 22.1641 57.7191 7.42676 39.5397 7.42676C21.3603 7.42676 6.62305 22.1641 6.62305 40.3434C6.62305 58.5228 21.3603 73.2601 39.5397 73.2601Z" fill="white"></path>
                                            <path d="M54.7503 37.8287C54.5495 37.3844 54.1086 37.0947 53.6214 37.0947H44.7963V22.2394C44.7963 21.7292 44.4804 21.2717 44.0032 21.0873C43.5259 20.903 42.9827 21.0347 42.6436 21.4132L24.5394 41.5286C24.2136 41.8907 24.1314 42.4108 24.3289 42.8551C24.5297 43.2995 24.9706 43.5892 25.4578 43.5892H34.2829V58.4478C34.2829 58.958 34.5987 59.4155 35.076 59.5999C35.2176 59.6558 35.3691 59.6821 35.5172 59.6821C35.8596 59.6821 36.1953 59.5406 36.4356 59.274L54.5397 39.1586C54.8656 38.7965 54.9478 38.2764 54.7503 37.8287Z" fill="white"></path>
                                        </svg>
