<svg xmlns="http://www.w3.org/2000/svg" width="80" height="80" viewBox="0 0 80 80" fill="none">
                                    <path opacity="0.4" d="M66.3337 12.8472V43.2951C66.3337 50.833 62.3507 54.8159 54.8128 54.8159H25.1878C17.6499 54.8159 13.667 50.833 13.667 43.2951V12.8472H66.3337Z" fill="white"></path>
                                    <path d="M69.625 12.8472H10.375C9.01225 12.8472 7.90625 11.7412 7.90625 10.3784C7.90625 9.01567 9.01225 7.90967 10.375 7.90967H69.625C70.9878 7.90967 72.0938 9.01567 72.0938 10.3784C72.0938 11.7412 70.9878 12.8472 69.625 12.8472Z" fill="white"></path>
                                    <path d="M51.9162 71.0111C51.4553 71.7023 50.6654 72.0972 49.8754 72.0972C49.4145 72.0972 48.9208 71.9655 48.4929 71.6692L40.0004 66.0077L31.5078 71.6692C30.3558 72.4263 28.8416 72.1302 28.0845 71.0111C27.3275 69.859 27.6237 68.3447 28.7429 67.5876L37.5316 61.7283V54.8159H42.4691V61.7283L51.2578 67.5876C52.377 68.3447 52.6733 69.859 51.9162 71.0111Z" fill="white"></path>
                                    <path d="M55.4443 24.7631C55.1942 24.1608 54.7136 23.6802 54.1112 23.4267C53.8084 23.3016 53.4891 23.2358 53.1665 23.2358H44.9373C43.5746 23.2358 42.4686 24.3418 42.4686 25.7046C42.4686 27.0673 43.5746 28.1733 44.9373 28.1733H47.3304L42.3501 33.3017L38.4692 29.421C36.6193 27.5711 33.6074 27.5711 31.7608 29.421L25.0886 36.0931C24.1241 37.0576 24.1241 38.6212 25.0886 39.5857C25.5692 40.0663 26.2012 40.3098 26.8332 40.3098C27.4652 40.3098 28.0972 40.0696 28.5777 39.5857L34.9767 32.9131L38.8576 36.7943C40.7075 38.6442 43.7194 38.6442 45.566 36.7943L50.6944 31.6659V33.9338C50.6944 35.2965 51.8004 36.4025 53.1632 36.4025C54.5259 36.4025 55.6319 35.2965 55.6319 33.9338V25.7046C55.6352 25.3853 55.5694 25.066 55.4443 24.7631Z" fill="white"></path>
                                    </svg>
