<svg xmlns="http://www.w3.org/2000/svg" width="80" height="80" viewBox="0 0 80 80" fill="none">
                                    <path opacity="0.4" d="M19.8717 55.0261C15.5497 46.4019 15.2962 31.6552 29.322 24.1173C35.2272 20.9573 41.2017 20.3318 48.4269 17.8631C53.6409 16.0527 56.7086 12.432 57.9627 10.6216C58.259 10.1607 58.9206 10.2594 59.0852 10.7532C61.396 16.9744 70.6686 45.7764 51.3959 59.6014C41.6624 66.5797 29.8157 62.4653 24.8321 60.1611C24.8321 60.1611 22.1067 58.9103 19.8717 55.0261Z" fill="white"></path>
                                    <path d="M21.52 72.044C21.3522 72.044 21.1809 72.0275 21.0097 71.9913C19.6766 71.7115 18.8241 70.4047 19.1039 69.0715C19.2916 68.1795 23.9329 47.0272 45.9311 30.5162C47.0206 29.6999 48.571 29.9205 49.3873 31.01C50.2069 32.0996 49.9864 33.6466 48.8969 34.4662C28.4556 49.812 23.979 69.8911 23.9362 70.0919C23.6893 71.2473 22.6623 72.044 21.52 72.044Z" fill="white"></path>
                                    </svg>
