<svg xmlns="http://www.w3.org/2000/svg" width="80" height="80" viewBox="0 0 80 80" fill="none">
                                    <path opacity="0.4" d="M16.6559 72.5129C14.8389 72.5129 13.3643 71.0382 13.3643 69.2212V52.7629C13.3643 50.9459 14.8389 49.4712 16.6559 49.4712C18.4729 49.4712 19.9476 50.9459 19.9476 52.7629V69.2212C19.9476 71.0382 18.4729 72.5129 16.6559 72.5129Z" fill="white"></path>
                                    <path d="M23.2386 56.0545H10.0719C8.25494 56.0545 6.78027 54.5799 6.78027 52.7629C6.78027 50.9459 8.25494 49.4712 10.0719 49.4712H23.2386C25.0556 49.4712 26.5303 50.9459 26.5303 52.7629C26.5303 54.5799 25.0556 56.0545 23.2386 56.0545Z" fill="white"></path>
                                    <path opacity="0.4" d="M16.6559 42.888C14.8389 42.888 13.3643 41.4134 13.3643 39.5964V9.97135C13.3643 8.15435 14.8389 6.67969 16.6559 6.67969C18.4729 6.67969 19.9476 8.15435 19.9476 9.97135V39.5964C19.9476 41.4134 18.4729 42.888 16.6559 42.888Z" fill="white"></path>
                                    <path opacity="0.4" d="M39.6969 72.513C37.8799 72.513 36.4053 71.0384 36.4053 69.2214V39.5964C36.4053 37.7794 37.8799 36.3047 39.6969 36.3047C41.5139 36.3047 42.9886 37.7794 42.9886 39.5964V69.2214C42.9886 71.0384 41.5139 72.513 39.6969 72.513Z" fill="white"></path>
                                    <path d="M46.2806 29.721H33.1139C31.2969 29.721 29.8223 28.2464 29.8223 26.4294C29.8223 24.6124 31.2969 23.1377 33.1139 23.1377H46.2806C48.0976 23.1377 49.5723 24.6124 49.5723 26.4294C49.5723 28.2464 48.0976 29.721 46.2806 29.721Z" fill="white"></path>
                                    <path opacity="0.4" d="M39.6969 29.7214C37.8799 29.7214 36.4053 28.2467 36.4053 26.4297V9.97135C36.4053 8.15435 37.8799 6.67969 39.6969 6.67969C41.5139 6.67969 42.9886 8.15435 42.9886 9.97135V26.4297C42.9886 28.2467 41.5139 29.7214 39.6969 29.7214Z" fill="white"></path>
                                    <path opacity="0.4" d="M62.7389 72.5129C60.9219 72.5129 59.4473 71.0382 59.4473 69.2212V52.7629C59.4473 50.9459 60.9219 49.4712 62.7389 49.4712C64.5559 49.4712 66.0306 50.9459 66.0306 52.7629V69.2212C66.0306 71.0382 64.5559 72.5129 62.7389 72.5129Z" fill="white"></path>
                                    <path d="M69.3226 56.0545H56.1559C54.3389 56.0545 52.8643 54.5799 52.8643 52.7629C52.8643 50.9459 54.3389 49.4712 56.1559 49.4712H69.3226C71.1396 49.4712 72.6143 50.9459 72.6143 52.7629C72.6143 54.5799 71.1396 56.0545 69.3226 56.0545Z" fill="white"></path>
                                    <path opacity="0.4" d="M62.7389 42.888C60.9219 42.888 59.4473 41.4134 59.4473 39.5964V9.97135C59.4473 8.15435 60.9219 6.67969 62.7389 6.67969C64.5559 6.67969 66.0306 8.15435 66.0306 9.97135V39.5964C66.0306 41.4134 64.5559 42.888 62.7389 42.888Z" fill="white"></path>
                                    </svg>
