<svg xmlns="http://www.w3.org/2000/svg" width="80" height="80" viewBox="0 0 80 80" fill="none">
                                    <path opacity="0.4" d="M39.9997 72.9202C21.8494 72.9202 7.08301 58.1538 7.08301 40.0036C7.08301 21.8533 21.8494 7.08691 39.9997 7.08691C58.1499 7.08691 72.9163 21.8533 72.9163 40.0036C72.9163 58.1538 58.1499 72.9202 39.9997 72.9202Z" fill="white"></path>
                                    <path d="M72.8078 42.6731C71.5274 42.2715 69.3615 42.9101 68.0152 44.4275C66.4154 46.2346 64.2232 45.3394 60.6616 38.7758C57.2514 32.492 60.3753 29.7269 61.6195 25.8856C62.6794 22.7387 59.8189 14.8355 58.0645 12.4951L58.0679 12.4819C58.1008 12.5149 58.1008 12.5148 58.1008 12.5148C67.0212 18.4069 72.9133 28.5123 72.9133 40.0002C72.9133 40.889 72.8803 41.8106 72.8145 42.6665L72.8078 42.6731Z" fill="white"></path>
                                    <path d="M47.6365 72.0315C45.2007 72.624 42.6331 72.9202 39.9998 72.9202C38.8477 72.9202 37.7285 72.8545 36.6093 72.7557C37.531 69.9249 37.1032 66.2052 36.1157 64.7569C33.6798 61.136 27.3599 61.0703 27.1295 56.4949C26.8991 51.9194 27.5245 51.1294 26.899 48.4632C26.2736 45.8299 10.1773 44.6317 11.0002 24.4867V24.4669C16.5302 14.1311 27.4586 7.08691 39.9998 7.08691C42.4027 7.08691 44.7068 7.35025 46.9452 7.81108L46.9486 7.81761C47.1329 10.4872 44.9176 12.9033 42.518 13.69C33.2091 16.7414 40.6351 28.8712 34.4369 30.1484C32.3796 30.573 28.8674 27.1167 26.8924 27.5907C25.6482 27.8837 23.1465 30.0496 25.477 32.4656C28.2749 35.3656 26.9582 36.4848 27.9819 38.8252C29.0418 41.1655 32.2644 41.4388 36.1058 41.001C39.911 40.527 41.6785 40.3657 44.3842 43.1833C47.09 46.001 46.5437 49.9872 50.3455 50.4249C54.1869 50.8989 58.4627 52.5646 57.9163 55.82C57.1494 60.3724 48.7294 62.772 47.6266 72.0347" fill="white"></path>
                                    </svg>
