<svg xmlns="http://www.w3.org/2000/svg" width="81" height="81" viewBox="0 0 81 81" fill="none">
                                            <path opacity="0.4" d="M61.0235 24.1162H19.69C18.321 24.1162 17.21 25.2273 17.21 26.5962V38.4772C17.21 41.9856 18.6025 45.3481 21.0858 47.8281L32.2919 59.035C33.221 59.9641 33.7434 61.2274 33.7434 62.5435V70.4097H46.9701V62.5435C46.9701 61.2274 47.4924 59.9674 48.4216 59.035L59.6277 47.8281C62.1077 45.3481 63.5035 41.9823 63.5035 38.4772V26.5962C63.5035 25.2273 62.3925 24.1162 61.0235 24.1162Z" fill="#002332"></path>
                                            <path d="M54.4102 10.8902V24.1169H49.4502V10.8902C49.4502 9.53443 50.5745 8.41016 51.9302 8.41016C53.2859 8.41016 54.4102 9.53443 54.4102 10.8902Z" fill="#002332"></path>
                                            <path d="M31.2637 10.8902V24.1169H26.3037V10.8902C26.3037 9.53443 27.428 8.41016 28.7837 8.41016C30.1395 8.41016 31.2637 9.53443 31.2637 10.8902Z" fill="#002332"></path>
                                            <path d="M46.9704 39.8233H33.7437C32.3747 39.8233 31.2637 38.7123 31.2637 37.3433C31.2637 35.9743 32.3747 34.8633 33.7437 34.8633H46.9704C48.3394 34.8633 49.4504 35.9743 49.4504 37.3433C49.4504 38.7123 48.3394 39.8233 46.9704 39.8233Z" fill="#002332"></path>
                                        </svg>
