<svg xmlns="http://www.w3.org/2000/svg" width="80" height="80" viewBox="0 0 80 80" fill="none">
                                    <path opacity="0.4" d="M64.5199 18.4886C63.4336 17.2378 62.2816 16.0528 61.0307 14.9995C55.3032 10.0291 47.7982 7.03369 39.569 7.03369C31.3728 7.03369 23.9006 10.0291 18.1402 14.9995C16.8894 16.0528 15.7044 17.2378 14.6511 18.4886C9.64774 24.249 6.65234 31.7541 6.65234 39.9504C6.65234 48.1466 9.64774 55.6517 14.6511 61.4121C15.7044 62.6629 16.8894 63.8479 18.1402 64.9012C23.9006 69.8717 31.3728 72.867 39.569 72.867C47.7982 72.867 55.3032 69.8717 61.0307 64.9012C62.2816 63.8479 63.4336 62.6629 64.5199 61.4121C69.4903 55.6517 72.4857 48.1466 72.4857 39.9504C72.4857 31.7541 69.4903 24.249 64.5199 18.4886ZM39.569 54.5654C36.409 54.5654 33.4794 53.5449 31.1094 51.8332C29.7598 50.9116 28.6078 49.7595 27.6532 48.41C25.9744 46.04 24.954 43.0774 24.954 39.9504C24.954 36.8233 25.9744 33.8608 27.6532 31.4907C28.6078 30.1412 29.7598 28.9892 31.1094 28.0675C33.4794 26.3558 36.409 25.3354 39.569 25.3354C42.729 25.3354 45.6586 26.3558 48.0616 28.0345C49.4111 28.9891 50.5632 30.1412 51.5178 31.4907C53.1965 33.8608 54.217 36.8233 54.217 39.9504C54.217 43.0774 53.1965 46.04 51.5178 48.41C50.5632 49.7595 49.4111 50.9116 48.0616 51.8662C45.6586 53.5449 42.729 54.5654 39.569 54.5654Z" fill="white"></path>
                                    <path d="M64.5199 18.4887L51.6823 31.3592C51.6164 31.3921 51.5836 31.4579 51.5177 31.4908C50.5631 30.1412 49.4111 28.9892 48.0615 28.0346C48.0944 27.9688 48.1273 27.9359 48.1931 27.87L61.0307 14.9995C62.2815 16.0528 63.4336 17.2378 64.5199 18.4887Z" fill="white"></path>
                                    <path d="M31.1097 51.8329C31.0768 51.8988 31.0439 51.9646 30.9781 52.0304L18.1405 64.901C16.8897 63.8476 15.7047 62.6626 14.6514 61.4118L27.4889 48.5413C27.5219 48.4754 27.5877 48.4426 27.6535 48.4097C28.6081 49.7593 29.7601 50.9113 31.1097 51.8329Z" fill="white"></path>
                                    <path d="M31.1097 28.0675C29.7601 28.9892 28.6081 30.1412 27.6535 31.4908C27.5877 31.4579 27.5548 31.3921 27.4889 31.3592L14.6514 18.4887C15.7047 17.2378 16.8897 16.0528 18.1405 14.9995L30.9781 27.87C31.0439 27.9359 31.0768 28.0017 31.1097 28.0675Z" fill="white"></path>
                                    <path d="M64.5199 61.4118C63.4336 62.6626 62.2815 63.8476 61.0307 64.901L48.1931 52.0304C48.1273 51.9646 48.0944 51.9317 48.0615 51.8659C49.4111 50.9113 50.5631 49.7593 51.5177 48.4097C51.5836 48.4426 51.6164 48.4754 51.6823 48.5413L64.5199 61.4118Z" fill="white"></path>
                                    </svg>
