<svg xmlns="http://www.w3.org/2000/svg" width="79" height="79" viewBox="0 0 79 79" fill="none">
                                    <path opacity="0.4" d="M69.125 19.75V36.8667C69.125 37.525 68.7958 37.8542 68.1375 37.8542H42.1333C41.475 37.8542 41.1458 37.525 41.1458 36.8667V10.8625C41.1458 10.2042 41.475 9.875 42.1333 9.875H59.25C65.8333 9.875 69.125 13.1667 69.125 19.75ZM19.75 9.875C13.1667 9.875 9.875 13.1667 9.875 19.75V36.8667C9.875 37.525 10.2042 37.8542 10.8625 37.8542H36.8667C37.525 37.8542 37.8542 37.525 37.8542 36.8667V10.8625C37.8542 10.2042 37.525 9.875 36.8667 9.875H19.75ZM9.875 42.1333V59.25C9.875 65.8333 13.1667 69.125 19.75 69.125H36.8667C37.525 69.125 37.8542 68.7958 37.8542 68.1375V42.1333C37.8542 41.475 37.525 41.1458 36.8667 41.1458H10.8625C10.2042 41.1458 9.875 41.475 9.875 42.1333Z" fill="white"></path>
                                    <path d="M41.1455 42.1335V68.1377C41.1455 68.796 41.4747 69.1252 42.133 69.1252H59.2497C65.833 69.1252 69.1247 65.8335 69.1247 59.2502V42.1335C69.1247 41.4752 68.7955 41.146 68.1372 41.146H42.133C41.4747 41.146 41.1455 41.4752 41.1455 42.1335ZM59.2497 60.896H49.3747C48.058 60.896 46.7413 59.9085 46.7413 58.2627C46.7413 56.6168 48.058 55.9585 49.3747 55.9585H59.2497C60.5663 55.9585 61.883 56.946 61.883 58.5918C61.883 60.2377 60.5663 60.896 59.2497 60.896ZM59.2497 52.6668H49.3747C48.058 52.6668 46.7413 51.6793 46.7413 50.0335C46.7413 48.3877 47.7288 47.4002 49.3747 47.4002H59.2497C60.5663 47.4002 61.883 48.3877 61.883 50.0335C61.883 51.6793 60.5663 52.6668 59.2497 52.6668Z" fill="white"></path>
                                    <path d="M29.6245 26.9917H19.7495C18.4329 26.9917 17.1162 26.0042 17.1162 24.3584C17.1162 22.7125 18.4329 22.3834 19.7495 22.3834H29.6245C30.9412 22.3834 32.2579 23.3709 32.2579 25.0167C32.2579 26.6625 30.9412 26.9917 29.6245 26.9917ZM59.2495 22.3834H56.6162V19.75C56.6162 18.4334 55.6287 17.1167 53.9829 17.1167C52.337 17.1167 52.0079 18.4334 52.0079 19.75V22.3834H49.3745C48.0579 22.3834 46.7412 23.3709 46.7412 25.0167C46.7412 26.6625 47.7287 27.65 49.3745 27.65H52.0079V29.625C52.0079 30.9417 52.9954 32.2584 54.6412 32.2584C56.287 32.2584 57.2745 31.2709 57.2745 29.625V26.9917H59.2495C60.5662 26.9917 61.8829 26.0042 61.8829 24.3584C61.8829 22.7125 60.5662 22.3834 59.2495 22.3834ZM28.3079 54.3125L30.612 52.0084C31.5995 51.0209 31.5995 49.375 30.612 48.3875C29.6245 47.4 27.9787 47.4 26.9912 48.3875L24.687 50.6917L22.3829 48.3875C21.3954 47.4 19.7495 47.4 18.762 48.3875C17.7745 49.375 17.7745 51.0209 18.762 52.0084L21.0662 54.3125L18.762 56.6167C17.7745 57.6042 17.7745 59.25 18.762 60.2375C19.0912 60.5667 19.7495 60.8959 20.4079 60.8959C21.0662 60.8959 21.7245 60.5667 22.0537 60.2375L24.3579 57.9334L26.662 60.2375C26.9912 60.5667 27.6495 60.8959 28.3079 60.8959C28.9662 60.8959 29.6245 60.5667 29.9537 60.2375C30.9412 59.25 30.9412 57.6042 29.9537 56.6167L28.3079 54.3125Z" fill="white"></path>
                                    <path opacity="0.4" d="M59.2495 52.6666H49.3745C48.0579 52.6666 46.7412 51.6791 46.7412 50.0332C46.7412 48.3874 47.7287 47.3999 49.3745 47.3999H59.2495C60.5662 47.3999 61.8829 48.3874 61.8829 50.0332C61.8829 51.6791 60.5662 52.6666 59.2495 52.6666ZM61.8829 58.5916C61.8829 57.2749 60.8954 55.9582 59.2495 55.9582H49.3745C48.0579 55.9582 46.7412 56.9457 46.7412 58.5916C46.7412 60.2374 47.7287 61.2249 49.3745 61.2249H59.2495C60.5662 60.8957 61.8829 59.9082 61.8829 58.5916Z" fill="white"></path>
                                    </svg>
