<?xml version="1.0" standalone="no"?>
<!DOCTYPE svg PUBLIC "-//W3C//DTD SVG 1.1//EN" "http://www.w3.org/Graphics/SVG/1.1/DTD/svg11.dtd" >
<svg xmlns="http://www.w3.org/2000/svg" xmlns:xlink="http://www.w3.org/1999/xlink" version="1.1">
<metadata>
Created by FontForge 20170731 at Tue Apr 11 09:01:09 2023
 By Aleksey,,,
Copyright 2017-2021 Indian Type Foundry. All rights reserved.
</metadata>
<defs>
<font id="GeneralSans-Bold" horiz-adv-x="1024" >
  <font-face 
    font-family="General Sans"
    font-weight="700"
    font-stretch="normal"
    units-per-em="2048"
    panose-1="0 0 0 0 0 0 0 0 0 0"
    ascent="1638"
    descent="-410"
    x-height="1102"
    cap-height="1470"
    bbox="-285 -489.281 3265 2068"
    underline-thickness="102"
    underline-position="-266"
    unicode-range="U+000D-FB02"
  />
<missing-glyph horiz-adv-x="1515" 
 />
    <glyph glyph-name="fi" unicode="fi" horiz-adv-x="1441" 
d="M1374 1358q0 -87 -63 -143t-162 -56t-162 56t-63 143q0 88 63 144.5t162 56.5t162 -56.5t63 -144.5zM571 0h-350v797h-205v305h205v39q0 172 93 263t276 91q116 0 198 -37v-276q-48 20 -110 20q-107 0 -107 -69v-31h271v-305h-271v-797zM1327 0h-350v1102h350v-1102z" />
    <glyph glyph-name="fl" unicode="fl" horiz-adv-x="1445" 
d="M571 0h-350v797h-205v305h205v39q0 172 93 263t276 91q116 0 198 -37v-276q-48 20 -110 20q-107 0 -107 -69v-31h271v-305h-271v-797zM1331 0h-354v1470h354v-1470z" />
    <glyph glyph-name=".notdef" horiz-adv-x="1515" 
 />
    <glyph glyph-name=".null" horiz-adv-x="0" 
 />
    <glyph glyph-name=".null" horiz-adv-x="0" 
 />
    <glyph glyph-name="nonmarkingreturn" horiz-adv-x="682" 
 />
    <glyph glyph-name="CR" unicode="&#xd;" horiz-adv-x="573" 
 />
    <glyph glyph-name="space" unicode=" " horiz-adv-x="428" 
 />
    <glyph glyph-name="exclam" unicode="!" horiz-adv-x="620" 
d="M440 479h-264l-92 991h451zM539 205q0 -93 -65.5 -154t-164.5 -61q-98 0 -162.5 60.5t-64.5 154.5t64 155.5t163 61.5q101 0 165.5 -61.5t64.5 -155.5z" />
    <glyph glyph-name="quotedbl" unicode="&#x22;" horiz-adv-x="970" 
d="M399 850h-274l-21 620h316zM846 850h-275l-20 620h315z" />
    <glyph glyph-name="numbersign" unicode="#" horiz-adv-x="1351" 
d="M492 0h-267l62 344h-144v262h191l33 187h-142v266h189l57 325h266l-57 -325h125l57 325h264l-57 -325h139v-266h-186l-33 -187h137v-262h-184l-61 -344h-265l62 344h-125zM633 793l-33 -187h125l33 187h-125z" />
    <glyph glyph-name="dollar" unicode="$" horiz-adv-x="1261" 
d="M729 -182h-225v172q-203 31 -325.5 154.5t-137.5 314.5h350q0 -91 61.5 -143t168.5 -52q93 0 150.5 35.5t57.5 99.5q0 42 -39.5 75t-93.5 44l-229 49q-83 18 -147 46.5t-116 74.5t-80 115.5t-28 159.5q0 167 112.5 285t295.5 149v174h225v-174q197 -30 320.5 -152
t136.5 -309h-350q-6 85 -62 135.5t-145 50.5q-79 0 -127.5 -33.5t-48.5 -99.5q0 -42 36.5 -71.5t92.5 -40.5l225 -48q194 -40 296.5 -138t102.5 -247q0 -194 -127.5 -316t-349.5 -144v-166z" />
    <glyph glyph-name="percent" unicode="%" horiz-adv-x="2322" 
d="M502 537q-195 0 -330 126t-135 304q0 179 134.5 304.5t330.5 125.5t330.5 -125.5t134.5 -304.5q0 -178 -135 -304t-330 -126zM883 0h-277l791 1384h276zM502 784q77 0 128.5 47t51.5 136t-51.5 135.5t-128.5 46.5t-130 -47t-53 -135q0 -89 53.5 -136t129.5 -47zM1821 -18
q-195 0 -330 126t-135 304q0 179 134.5 304.5t330.5 125.5t330.5 -125.5t134.5 -304.5q0 -178 -135 -304t-330 -126zM1821 229q77 0 128.5 47t51.5 136t-51.5 135.5t-128.5 46.5t-130 -47t-53 -135q0 -89 53.5 -136t129.5 -47z" />
    <glyph glyph-name="ampersand" unicode="&#x26;" horiz-adv-x="1499" 
d="M731 815l197 -205q10 75 10 133h322q0 -169 -103 -370l359 -373h-435l-123 125q-169 -143 -368 -143q-237 0 -377.5 125t-140.5 337q0 107 60.5 203.5t170.5 165.5q-57 97 -57 205q0 169 131 278t332 109q200 0 319 -107.5t119 -287.5h-328q-12 114 -110 114
q-45 0 -73 -29.5t-28 -78.5q0 -43 27.5 -86.5t95.5 -114.5zM408 465q0 -92 55 -143.5t155 -51.5q84 0 154 45l-285 291q-79 -51 -79 -141z" />
    <glyph glyph-name="quotesingle" unicode="'" horiz-adv-x="524" 
d="M399 850h-274l-21 620h316z" />
    <glyph glyph-name="parenleft" unicode="(" horiz-adv-x="665" 
d="M686 -395h-354q-125 191 -192.5 434.5t-67.5 499.5q0 255 67.5 497.5t192.5 433.5h354q-123 -188 -186.5 -430t-63.5 -501q0 -261 63.5 -503.5t186.5 -430.5z" />
    <glyph glyph-name="parenright" unicode=")" horiz-adv-x="665" 
d="M334 -395h-354q123 188 186 430.5t63 503.5q0 260 -63 501.5t-186 429.5h354q125 -191 192.5 -433.5t67.5 -497.5q0 -256 -67.5 -499.5t-192.5 -434.5z" />
    <glyph glyph-name="asterisk" unicode="*" 
d="M512 850l-170 -227l-207 149l174 213l-258 86l74 234l266 -99l-14 264h270l-14 -264l266 99l74 -234l-258 -86l174 -213l-207 -149z" />
    <glyph glyph-name="plus" unicode="+" horiz-adv-x="1351" 
d="M842 205h-332v346h-346v307h346v346h332v-346h346v-307h-346v-346z" />
    <glyph glyph-name="comma" unicode="," horiz-adv-x="542" 
d="M494 131q0 -141 -73 -248t-192 -161t-264 -54v182q126 0 206 49.5t93 137.5q-18 -4 -41 -4q-77 0 -130.5 57t-53.5 137q0 93 60.5 151t152.5 58q114 0 178 -77t64 -228z" />
    <glyph glyph-name="hyphen" unicode="-" horiz-adv-x="737" 
d="M676 403h-615v316h615v-316z" />
    <glyph glyph-name="period" unicode="." horiz-adv-x="542" 
d="M494 213q0 -98 -62 -160.5t-160 -62.5t-160.5 62.5t-62.5 160.5q0 100 62.5 162.5t160.5 62.5t160 -62.5t62 -162.5z" />
    <glyph glyph-name="slash" unicode="/" horiz-adv-x="1056" 
d="M252 -395h-348l901 1865h348z" />
    <glyph glyph-name="zero" unicode="0" horiz-adv-x="1290" 
d="M88 690q0 343 145.5 529t411.5 186t411.5 -186t145.5 -529t-144 -526.5t-413 -183.5t-413 183.5t-144 526.5zM451 690q0 -193 49 -294t145 -101q94 0 144.5 102t50.5 293q0 193 -50.5 296.5t-144.5 103.5t-144 -104t-50 -296z" />
    <glyph glyph-name="one" unicode="1" horiz-adv-x="786" 
d="M651 0h-354v1079h-256v305h610v-1384z" />
    <glyph glyph-name="two" unicode="2" horiz-adv-x="1189" 
d="M1120 315v-315h-1030v201l412 397q129 125 177 193.5t48 148.5q0 71 -41.5 110.5t-116.5 39.5q-87 0 -134.5 -48.5t-47.5 -136.5h-342q0 220 152 360t391 140q218 0 363 -120t145 -300q0 -130 -64 -235t-256 -291l-147 -144h491z" />
    <glyph glyph-name="three" unicode="3" horiz-adv-x="1187" 
d="M580 -18q-234 0 -384.5 123t-150.5 315h344q6 -77 57.5 -119.5t137.5 -42.5q92 0 142 41.5t50 116.5q0 74 -60.5 113.5t-172.5 39.5h-156v277h135q94 0 143.5 36t49.5 105q0 67 -40 104t-114 37q-70 0 -110.5 -43t-40.5 -118h-342q0 187 147.5 312.5t364.5 125.5
q230 0 363.5 -108t133.5 -281t-192 -287q124 -43 189 -120.5t65 -184.5q0 -198 -154.5 -320t-404.5 -122z" />
    <glyph glyph-name="four" unicode="4" horiz-adv-x="1253" 
d="M1217 246h-199v-246h-350v246h-652v264l715 874h287v-831h199v-307zM397 553h271v340z" />
    <glyph glyph-name="five" unicode="5" horiz-adv-x="1198" 
d="M606 -20q-155 0 -281.5 58.5t-200.5 163.5t-79 236h354q13 -70 67 -106.5t138 -36.5q52 0 90 15.5t57.5 41.5t28 53t8.5 58t-9.5 59.5t-31 54.5t-62 42t-95.5 16q-158 0 -203 -127l-293 98l123 778h852v-315h-596l-29 -178q91 45 207 45q127 0 226 -41t157.5 -109.5
t88.5 -151.5t30 -173q0 -69 -20.5 -136.5t-64.5 -130t-107 -110t-154.5 -76t-200.5 -28.5z" />
    <glyph glyph-name="six" unicode="6" horiz-adv-x="1212" 
d="M604 -16q-161 0 -290.5 64.5t-199 169.5t-69.5 228q0 130 38.5 228t141.5 219l418 491h397l-389 -464h23q219 0 356 -127t137 -322q0 -205 -158 -346t-405 -141zM608 279q81 0 137 45.5t56 134.5q0 93 -55.5 138.5t-137.5 45.5t-138 -45.5t-56 -138.5q0 -89 56.5 -134.5
t137.5 -45.5z" />
    <glyph glyph-name="seven" unicode="7" horiz-adv-x="1079" 
d="M1042 1178l-493 -1178h-377l479 1069h-614v315h1005v-206z" />
    <glyph glyph-name="eight" unicode="8" horiz-adv-x="1210" 
d="M1161 412q0 -188 -152.5 -309t-400.5 -121q-252 0 -405.5 121t-153.5 309q0 100 57 177.5t156 129.5q-170 107 -170 276q0 177 142 293.5t374 116.5q228 0 370 -117t142 -293q0 -169 -170 -276q98 -52 154.5 -129.5t56.5 -177.5zM455 983q0 -61 40 -96t113 -35
q70 0 110 35.5t40 95.5q0 68 -40 106.5t-110 38.5q-73 0 -113 -38.5t-40 -106.5zM414 420q0 -76 50 -119t144 -43q90 0 141.5 43.5t51.5 118.5q0 69 -52 112t-141 43q-93 0 -143.5 -42.5t-50.5 -112.5z" />
    <glyph glyph-name="nine" unicode="9" horiz-adv-x="1212" 
d="M608 1401q121 0 226.5 -38t178 -101.5t113.5 -147.5t41 -176q0 -130 -38.5 -227.5t-141.5 -218.5l-418 -492h-397l389 465h-22q-219 0 -356.5 126.5t-137.5 321.5q0 205 158 346.5t405 141.5zM604 1106q-81 0 -136.5 -45.5t-55.5 -134.5q0 -93 55.5 -139t136.5 -46
q82 0 138.5 46t56.5 139q0 89 -57 134.5t-138 45.5z" />
    <glyph glyph-name="colon" unicode=":" horiz-adv-x="542" 
d="M494 881q0 -98 -62 -161t-160 -63t-160.5 63t-62.5 161q0 100 62.5 162.5t160.5 62.5t160 -62.5t62 -162.5zM494 213q0 -98 -62 -160.5t-160 -62.5t-160.5 62.5t-62.5 160.5q0 100 62.5 162.5t160.5 62.5t160 -62.5t62 -162.5z" />
    <glyph glyph-name="semicolon" unicode=";" horiz-adv-x="542" 
d="M494 881q0 -98 -62 -161t-160 -63t-160.5 63t-62.5 161q0 100 62.5 162.5t160.5 62.5t160 -62.5t62 -162.5zM494 131q0 -141 -73 -248t-192 -161t-264 -54v182q126 0 206 49.5t93 137.5q-18 -4 -41 -4q-77 0 -130.5 57t-53.5 137q0 93 60.5 151t152.5 58q114 0 178 -77
t64 -228z" />
    <glyph glyph-name="less" unicode="&#x3c;" horiz-adv-x="1351" 
d="M164 831l1024 402v-305l-672 -236l672 -235v-305l-1024 401v278z" />
    <glyph glyph-name="equal" unicode="=" horiz-adv-x="1351" 
d="M1188 805h-1024v307h1024v-307zM1188 297h-1024v307h1024v-307z" />
    <glyph glyph-name="greater" unicode="&#x3e;" horiz-adv-x="1351" 
d="M1188 553l-1024 -401v305l672 235l-672 236v305l1024 -402v-278z" />
    <glyph glyph-name="question" unicode="?" horiz-adv-x="1136" 
d="M365 1030h-328q9 204 163 332.5t384 128.5q228 0 372 -113t144 -293q0 -156 -185 -301l-159 -125q-66 -53 -83 -95.5t1 -84.5h-223q-39 66 -52.5 116.5t4.5 105t76 102.5l150 125q42 36 61 64t19 67q0 57 -43.5 89t-120.5 32q-75 0 -123 -40.5t-57 -109.5zM770 205
q0 -94 -65.5 -154.5t-165.5 -60.5t-167 61t-67 154q0 94 66 155.5t168 61.5q101 0 166 -61.5t65 -155.5z" />
    <glyph glyph-name="at" unicode="@" horiz-adv-x="2019" 
d="M1569 10v-289q-245 -137 -545 -137q-202 0 -382 72t-308 194t-202.5 290t-74.5 354q0 187 76 355.5t206.5 290.5t314.5 193.5t390 71.5q192 0 364.5 -62t292.5 -165t190.5 -239.5t70.5 -281.5q0 -126 -39 -234t-105.5 -182t-157.5 -115.5t-194 -41.5q-198 0 -297 123
q-108 -123 -280 -123q-158 0 -253 107t-95 284q0 198 105.5 334.5t273.5 136.5q126 0 206 -74l9 46h313l-62 -392q-8 -50 -8 -77q0 -47 28.5 -73t76.5 -26q83 0 124.5 73.5t41.5 201.5q0 94 -41.5 184.5t-116 164.5t-191.5 119.5t-256 45.5q-145 0 -271.5 -50.5
t-214.5 -137.5t-138.5 -205.5t-50.5 -251.5q0 -176 83 -323t234 -234t338 -87q167 0 309 45t236 115zM872 494q0 -63 25.5 -103.5t67.5 -40.5q45 0 72.5 50.5t27.5 125.5q0 154 -80 154q-59 0 -86 -54.5t-27 -131.5z" />
    <glyph glyph-name="A" unicode="A" horiz-adv-x="1531" 
d="M1102 0l-90 272h-516l-93 -272h-391l545 1470h424l539 -1470h-418zM758 1044l-158 -466h311z" />
    <glyph glyph-name="B" unicode="B" horiz-adv-x="1347" 
d="M1298 442q0 -207 -145 -324.5t-401 -117.5h-609v1470h590q244 0 383 -103.5t139 -293.5q0 -189 -190 -303q233 -98 233 -328zM702 1165h-208v-254h208q95 0 142 33.5t47 95.5q0 59 -47.5 92t-141.5 33zM721 606h-227v-301h227q106 0 159.5 40t53.5 112q0 70 -53.5 109.5
t-159.5 39.5z" />
    <glyph glyph-name="C" unicode="C" horiz-adv-x="1624" 
d="M805 -31q-154 0 -292.5 59.5t-238.5 162t-158.5 245t-58.5 301.5q0 158 58.5 300t158.5 243.5t238.5 161t292.5 59.5q199 0 364.5 -82.5t270 -232.5t127.5 -342h-410q-23 139 -118.5 225t-229.5 86q-162 0 -258 -114.5t-96 -303.5q0 -190 96 -306t258 -116q133 0 228 87
t120 227h410q-37 -294 -248 -477t-514 -183z" />
    <glyph glyph-name="D" unicode="D" horiz-adv-x="1531" 
d="M717 0h-574v1470h574q345 0 551.5 -201.5t206.5 -525.5q0 -159 -55 -296.5t-153 -236t-240 -154.5t-310 -56zM530 1137v-803h164q192 0 287.5 101t95.5 308q0 195 -97 294.5t-286 99.5h-164z" />
    <glyph glyph-name="E" unicode="E" horiz-adv-x="1261" 
d="M1184 336v-336h-1041v1470h1026v-335h-639v-211h580v-336h-580v-252h654z" />
    <glyph glyph-name="F" unicode="F" horiz-adv-x="1206" 
d="M530 0h-387v1470h1002v-335h-615v-273h514v-336h-514v-526z" />
    <glyph glyph-name="G" unicode="G" horiz-adv-x="1630" 
d="M821 -31q-159 0 -299.5 57t-243 157.5t-162 245.5t-59.5 314q0 160 57 301t156.5 241t239 158t299.5 58q273 0 469 -146t274 -397h-458q-29 88 -107.5 142.5t-187.5 54.5q-151 0 -247.5 -107.5t-96.5 -314.5q0 -195 98 -315.5t289 -120.5q120 0 200.5 59.5t114.5 157.5
h-354v305h768q15 -242 -71 -434.5t-263 -304t-416 -111.5z" />
    <glyph glyph-name="H" unicode="H" horiz-adv-x="1603" 
d="M530 0h-387v1470h387v-546h543v546h387v-1470h-387v588h-543v-588z" />
    <glyph glyph-name="I" unicode="I" horiz-adv-x="673" 
d="M530 0h-387v1470h387v-1470z" />
    <glyph glyph-name="J" unicode="J" horiz-adv-x="1327" 
d="M1194 1470v-921q0 -124 -37.5 -229t-109.5 -183.5t-186 -123t-259 -44.5q-144 0 -258 44.5t-186 123t-110 183.5t-38 229h389q0 -54 7.5 -92.5t28 -72.5t62.5 -51.5t105 -17.5q50 0 87 12t59 32t35 50.5t17.5 61.5t4.5 72v927h389z" />
    <glyph glyph-name="K" unicode="K" horiz-adv-x="1456" 
d="M530 0h-387v1470h387v-618l459 618h441l-519 -690l533 -780h-471l-443 664v-664z" />
    <glyph glyph-name="L" unicode="L" horiz-adv-x="1210" 
d="M1149 0h-1006v1470h387v-1120h619v-350z" />
    <glyph glyph-name="M" unicode="M" horiz-adv-x="1939" 
d="M809 0l-315 848v-848h-351v1470h457l371 -997l368 997h457v-1470h-350v858l-318 -858h-319z" />
    <glyph glyph-name="N" unicode="N" horiz-adv-x="1599" 
d="M1083 0l-585 918v-918h-355v1470h416l543 -849v849h354v-1470h-373z" />
    <glyph glyph-name="O" unicode="O" horiz-adv-x="1632" 
d="M815 -31q-157 0 -297 58t-241.5 158.5t-160.5 244t-59 307.5t59 307t160.5 243t241.5 157t297 57q211 0 384.5 -97t274.5 -272.5t101 -394.5t-101 -395.5t-274.5 -274.5t-384.5 -98zM815 315q112 0 195.5 58t124.5 152.5t41 211.5q0 180 -96.5 299t-264.5 119t-264 -119
t-96 -299q0 -181 96.5 -301.5t263.5 -120.5z" />
    <glyph glyph-name="P" unicode="P" horiz-adv-x="1386" 
d="M717 449h-187v-449h-387v1470h574q293 0 454.5 -128.5t161.5 -372.5q0 -248 -163 -384t-453 -136zM715 1145h-185v-371h185q113 0 173 52t60 139t-59 133.5t-174 46.5z" />
    <glyph glyph-name="Q" unicode="Q" horiz-adv-x="1632" 
d="M815 -31q-157 0 -297 58t-241.5 158.5t-160.5 244t-59 307.5t59 307t160.5 243t241.5 157t297 57q211 0 384.5 -97t274.5 -272.5t101 -394.5q0 -209 -91 -378t-249 -269l246 -463h-387l-189 346q-62 -4 -90 -4zM815 315q112 0 195.5 58t124.5 152.5t41 211.5
q0 180 -96.5 299t-264.5 119t-264 -119t-96 -299q0 -181 96.5 -301.5t263.5 -120.5z" />
    <glyph glyph-name="R" unicode="R" horiz-adv-x="1449" 
d="M530 0h-387v1470h602q298 0 461.5 -128t163.5 -363q0 -141 -81 -253t-230 -175l360 -551h-461l-301 489h-127v-489zM530 1151v-342h199q129 0 190.5 41t61.5 129t-61.5 130t-190.5 42h-199z" />
    <glyph glyph-name="S" unicode="S" horiz-adv-x="1376" 
d="M1321 481q0 -228 -169.5 -364.5t-455.5 -136.5t-460.5 141.5t-194.5 386.5h391q3 -105 70 -166t186 -61q101 0 161 37.5t60 105.5q0 46 -41.5 80.5t-107.5 46.5l-268 51q-184 35 -288 141t-104 279q0 205 162 336t410 131q264 0 435.5 -141t188.5 -377h-391
q-7 100 -69.5 159.5t-159.5 59.5q-84 0 -134 -40t-50 -101q0 -47 40 -77.5t103 -41.5l285 -56q401 -78 401 -393z" />
    <glyph glyph-name="T" unicode="T" horiz-adv-x="1349" 
d="M868 0h-387v1120h-450v350h1288v-350h-451v-1120z" />
    <glyph glyph-name="U" unicode="U" horiz-adv-x="1554" 
d="M1415 1470v-884q0 -134 -42 -246.5t-121 -195.5t-200.5 -129t-273.5 -46q-204 0 -350 80.5t-217.5 218.5t-71.5 318v884h387v-890q0 -126 56.5 -195.5t195.5 -69.5q137 0 193.5 69.5t56.5 195.5v890h387z" />
    <glyph glyph-name="V" unicode="V" horiz-adv-x="1470" 
d="M1468 1470l-524 -1470h-422l-520 1470h420l323 -1017l334 1017h389z" />
    <glyph glyph-name="W" unicode="W" horiz-adv-x="2031" 
d="M1255 0l-239 915l-240 -915h-391l-373 1470h379l199 -876l233 876h391l226 -880l200 880h379l-374 -1470h-390z" />
    <glyph glyph-name="X" unicode="X" horiz-adv-x="1540" 
d="M489 0h-456l450 750l-397 720h451l243 -485l267 485h432l-414 -735l442 -735h-458l-279 506z" />
    <glyph glyph-name="Y" unicode="Y" horiz-adv-x="1435" 
d="M909 553v-553h-387v553l-514 917h418l303 -563l309 563h389z" />
    <glyph glyph-name="Z" unicode="Z" horiz-adv-x="1361" 
d="M1284 0h-1198v309l702 828h-710v333h1186v-315l-707 -821h727v-334z" />
    <glyph glyph-name="bracketleft" unicode="[" horiz-adv-x="681" 
d="M670 -395h-564v1865h564v-305h-197v-1255h197v-305z" />
    <glyph glyph-name="backslash" unicode="\" horiz-adv-x="1056" 
d="M1153 -395h-348l-901 1865h348z" />
    <glyph glyph-name="bracketright" unicode="]" horiz-adv-x="681" 
d="M575 -395h-563v305h197v1255h-197v305h563v-1865z" />
    <glyph glyph-name="asciicircum" unicode="^" horiz-adv-x="1353" 
d="M920 561l-242 479l-244 -479h-358l430 823h344l428 -823h-358z" />
    <glyph glyph-name="underscore" unicode="_" 
d="M1024 -395h-1024v305h1024v-305z" />
    <glyph glyph-name="grave" unicode="`" 
d="M815 1169h-360l-248 332h405z" />
    <glyph glyph-name="a" unicode="a" horiz-adv-x="1146" 
d="M760 0v106q-58 -66 -134 -96t-182 -30q-172 0 -277.5 95t-105.5 251q0 161 126.5 246t363.5 85q91 0 162 -12v53q0 72 -40 111t-114 39q-72 0 -114.5 -39t-51.5 -111h-315q15 192 147 308t336 116q227 0 354 -116.5t127 -325.5v-680h-282zM391 336q0 -54 35.5 -84.5
t99.5 -30.5q87 0 137 39t50 107v69q-80 15 -140 15q-182 0 -182 -115z" />
    <glyph glyph-name="b" unicode="b" horiz-adv-x="1300" 
d="M1255 551q0 -158 -60 -287.5t-173 -206.5t-258 -77q-189 0 -328 145v-125h-321v1470h350v-471q129 123 299 123q145 0 258 -76.5t173 -206t60 -288.5zM891 551q0 124 -62 190t-149 66t-149 -65t-62 -189t61.5 -191t149.5 -67q86 0 148.5 67t62.5 189z" />
    <glyph glyph-name="c" unicode="c" horiz-adv-x="1204" 
d="M600 -20q-246 0 -400.5 159.5t-154.5 411.5q0 162 72 292.5t199.5 204.5t283.5 74q227 0 381.5 -141t177.5 -371h-373q-4 91 -54 144t-130 53q-92 0 -143 -67t-51 -189q0 -125 50 -191.5t144 -66.5q81 0 129.5 52.5t54.5 146.5h373q-23 -236 -173.5 -374t-385.5 -138z
" />
    <glyph glyph-name="d" unicode="d" horiz-adv-x="1300" 
d="M45 551q0 159 60.5 289t173.5 206t258 76q170 0 299 -123v471h350v-1470h-322v125q-139 -145 -327 -145q-145 0 -258.5 77t-173.5 207t-60 287zM410 551q0 -122 62.5 -189t148.5 -67q88 0 149 67t61 191t-61.5 189t-148.5 65t-149 -66t-62 -190z" />
    <glyph glyph-name="e" unicode="e" horiz-adv-x="1210" 
d="M612 -18q-255 0 -411 157t-156 414q0 163 72.5 293t201.5 203t291 73q134 0 247.5 -52.5t186 -141t103.5 -210.5t8 -255h-747q27 -209 196 -209q148 0 195 121h350q-51 -189 -191 -291t-346 -102zM602 864q-153 0 -190 -182h368q-3 83 -51.5 132.5t-126.5 49.5z" />
    <glyph glyph-name="f" unicode="f" horiz-adv-x="862" 
d="M571 0h-350v797h-205v305h205v39q0 172 93 263t276 91q116 0 198 -37v-276q-48 20 -110 20q-107 0 -107 -69v-31h271v-305h-271v-797z" />
    <glyph glyph-name="g" unicode="g" horiz-adv-x="1267" 
d="M606 -416q-229 0 -373 116t-153 308h340q9 -74 56 -112.5t128 -38.5q199 0 199 202v129q-43 -62 -117.5 -96.5t-163.5 -34.5q-201 0 -339 154t-138 379q0 233 130 382.5t333 149.5q202 0 323 -133v113h322v-1039q0 -223 -146.5 -351t-400.5 -128zM399 588
q0 -103 53 -164.5t142 -61.5q92 0 148.5 63t56.5 165q0 103 -56.5 165t-148.5 62q-89 0 -142 -62.5t-53 -166.5z" />
    <glyph glyph-name="h" unicode="h" horiz-adv-x="1239" 
d="M465 580v-580h-350v1470h350v-487q65 70 133 104.5t166 34.5q167 0 269 -108.5t102 -304.5v-709h-351v592q0 215 -155 215q-71 0 -117.5 -55t-46.5 -172z" />
    <glyph glyph-name="i" unicode="i" horiz-adv-x="579" 
d="M512 1358q0 -87 -63 -143t-162 -56t-162.5 56t-63.5 143q0 88 63.5 144.5t162.5 56.5t162 -56.5t63 -144.5zM465 0h-350v1102h350v-1102z" />
    <glyph glyph-name="j" unicode="j" horiz-adv-x="577" 
d="M510 1358q0 -87 -63 -143t-162 -56t-162.5 56t-63.5 143q0 88 63.5 144.5t162.5 56.5t162 -56.5t63 -144.5zM463 1102v-1047q0 -241 -112.5 -356t-301.5 -115q-96 0 -164 23v330q43 -27 119 -27q109 0 109 156v1036h350z" />
    <glyph glyph-name="k" unicode="k" horiz-adv-x="1271" 
d="M465 0h-350v1470h350v-815l342 447h403l-407 -522l465 -580h-447l-356 502v-502z" />
    <glyph glyph-name="l" unicode="l" horiz-adv-x="583" 
d="M469 0h-354v1470h354v-1470z" />
    <glyph glyph-name="m" unicode="m" horiz-adv-x="1896" 
d="M465 0h-350v1102h321v-135q67 78 141 116.5t177 38.5q105 0 185 -43.5t126 -126.5q76 86 157.5 128t196.5 42q169 0 271 -108.5t102 -304.5v-709h-350v600q0 97 -39 152t-113 55q-71 0 -116.5 -52t-45.5 -157v-598h-350v600q0 97 -38.5 152t-112.5 55q-72 0 -117 -52
t-45 -157v-598z" />
    <glyph glyph-name="n" unicode="n" horiz-adv-x="1239" 
d="M465 580v-580h-350v1102h321v-133q137 153 328 153q167 0 269 -108.5t102 -304.5v-709h-351v592q0 215 -155 215q-71 0 -117.5 -55t-46.5 -172z" />
    <glyph glyph-name="o" unicode="o" horiz-adv-x="1241" 
d="M621 -20q-160 0 -292.5 76.5t-208 207.5t-75.5 287t75.5 287t208 207.5t292.5 76.5q120 0 227 -45t183 -122t120.5 -182.5t44.5 -221.5t-44.5 -221.5t-120.5 -182.5t-183 -122t-227 -45zM621 293q88 0 149 67.5t61 190.5q0 122 -61 189t-149 67t-149.5 -67t-61.5 -189
t61.5 -190t149.5 -68z" />
    <glyph glyph-name="p" unicode="p" horiz-adv-x="1300" 
d="M1255 551q0 -159 -60 -288.5t-173 -206t-258 -76.5q-171 0 -299 122v-497h-350v1497h321v-125q139 145 328 145q145 0 258 -77t173 -206.5t60 -287.5zM891 551q0 122 -62.5 189t-148.5 67q-88 0 -149.5 -67t-61.5 -191t62 -189t149 -65t149 66t62 190z" />
    <glyph glyph-name="q" unicode="q" horiz-adv-x="1300" 
d="M45 551q0 157 60 287t173.5 207t258.5 77q188 0 327 -145v125h322v-1497h-350v497q-128 -122 -299 -122q-145 0 -258 76t-173.5 206t-60.5 289zM410 551q0 -124 62 -190t149 -66t148.5 65t61.5 189t-61 191t-149 67q-86 0 -148.5 -67t-62.5 -189z" />
    <glyph glyph-name="r" unicode="r" horiz-adv-x="890" 
d="M465 508v-508h-350v1102h321v-195q62 95 180.5 149t253.5 54v-365q-93 12 -168 8t-127.5 -25.5t-81 -76t-28.5 -143.5z" />
    <glyph glyph-name="s" unicode="s" horiz-adv-x="1146" 
d="M1092 375q0 -185 -133 -290t-379 -105q-245 0 -381 107.5t-154 301.5h336q0 -68 57 -109.5t148 -41.5q151 0 151 75q0 36 -26.5 54.5t-85.5 29.5l-217 39q-148 27 -232 110t-84 214q0 162 127.5 262t341.5 100q218 0 356.5 -107.5t153.5 -291.5h-336q-6 65 -52.5 103
t-119.5 38q-135 0 -135 -71q0 -34 24 -49t80 -25l234 -43q160 -29 243 -106t83 -195z" />
    <glyph glyph-name="t" unicode="t" horiz-adv-x="903" 
d="M854 344v-305q-107 -59 -250 -59q-186 0 -289.5 105t-103.5 294v418h-205v305h205v323h350v-323h301v-305h-301v-336q0 -80 34.5 -118t106.5 -38q91 0 152 39z" />
    <glyph glyph-name="u" unicode="u" horiz-adv-x="1232" 
d="M768 473v629h350v-1102h-321v119q-47 -63 -130 -101t-178 -38q-172 0 -278.5 109t-106.5 319v694h351v-629q0 -89 41 -134.5t116 -45.5q60 0 108 46.5t48 133.5z" />
    <glyph glyph-name="v" unicode="v" horiz-adv-x="1163" 
d="M1174 1102l-396 -1102h-389l-399 1102h381l221 -705l225 705h357z" />
    <glyph glyph-name="w" unicode="w" horiz-adv-x="1679" 
d="M1010 0l-170 625l-170 -625h-351l-309 1102h342l154 -604l162 604h350l153 -604l154 604h344l-311 -1102h-348z" />
    <glyph glyph-name="x" unicode="x" horiz-adv-x="1247" 
d="M418 0h-393l356 559l-332 543h408l184 -350l184 350h371l-326 -557l353 -545h-400l-207 360z" />
    <glyph glyph-name="y" unicode="y" horiz-adv-x="1163" 
d="M1174 1102l-525 -1497h-383l154 407l-430 1090h381l237 -682l213 682h353z" />
    <glyph glyph-name="z" unicode="z" horiz-adv-x="1132" 
d="M1055 0h-965v289l514 506h-526v307h964v-295l-520 -500h533v-307z" />
    <glyph glyph-name="braceleft" unicode="{" horiz-adv-x="722" 
d="M12 387v305q85 0 124.5 36t39.5 114v262q0 180 111.5 276.5t320.5 96.5q38 0 103 -7v-305q-34 6 -60 6q-108 0 -108 -100v-276q0 -215 -203 -252q203 -46 203 -258v-279q0 -102 110 -102q28 0 58 6v-305q-55 -6 -105 -6q-209 0 -319.5 95.5t-110.5 276.5v265
q0 78 -39.5 114.5t-124.5 36.5z" />
    <glyph glyph-name="bar" unicode="|" horiz-adv-x="735" 
d="M545 -395h-355v1865h355v-1865z" />
    <glyph glyph-name="braceright" unicode="}" horiz-adv-x="722" 
d="M711 688v-305q-85 0 -124.5 -36t-39.5 -114v-262q0 -180 -111.5 -276t-320.5 -96q-47 0 -103 6v305q34 -6 60 -6q108 0 108 100v277q0 214 203 251q-203 46 -203 259v278q0 102 -110 102q-28 0 -58 -6v305q65 7 105 7q209 0 319.5 -95.5t110.5 -277.5v-264
q0 -78 39.5 -115t124.5 -37z" />
    <glyph glyph-name="asciitilde" unicode="~" horiz-adv-x="1351" 
d="M924 469q-68 0 -143.5 23t-129 50.5t-106.5 50.5t-82 23q-43 0 -60.5 -34.5t-13.5 -120.5h-285q-25 134 11 242.5t119 168.5t196 60q67 0 142.5 -23t129 -51t107 -51t82.5 -23q44 0 61 34t13 122h284q25 -134 -10.5 -242.5t-118.5 -168.5t-196 -60z" />
    <glyph glyph-name="nbspace" unicode="&#xa0;" horiz-adv-x="428" 
 />
    <glyph glyph-name="exclamdown" unicode="&#xa1;" horiz-adv-x="620" 
d="M539 891q0 -94 -64.5 -154.5t-165.5 -60.5q-100 0 -163.5 60.5t-63.5 154.5t64.5 154.5t162.5 60.5q99 0 164.5 -61t65.5 -154zM537 -395h-451l92 1011h264z" />
    <glyph glyph-name="cent" unicode="&#xa2;" horiz-adv-x="1245" 
d="M725 -154h-225v146q-201 39 -328 193t-127 366q0 213 127 366.5t328 192.5v176h225v-172q196 -31 324.5 -166t150.5 -338h-373q-5 85 -61 141t-143 56q-97 0 -156 -69t-59 -187q0 -115 59.5 -186.5t155.5 -71.5q85 0 142 58.5t62 140.5h373q-22 -202 -151 -337.5
t-324 -166.5v-142z" />
    <glyph glyph-name="sterling" unicode="&#xa3;" horiz-adv-x="1263" 
d="M418 156q-41 0 -57.5 -34.5t-12.5 -121.5h-285q-27 140 16.5 249t141.5 163v200h-145v226h145v114q0 207 136 330t356 123q207 0 347 -112.5t152 -323.5h-378q-9 66 -42 93.5t-90 27.5q-59 0 -93 -33t-34 -96v-123h306v-226h-306v-209q87 -51 148 -77.5t117 -26.5
q55 0 75.5 37t8.5 119h284q38 -203 -56 -337t-265 -134q-70 0 -147 27t-131 59t-108 59t-83 27z" />
    <glyph glyph-name="currency" unicode="&#xa4;" horiz-adv-x="1351" 
d="M676 262q-105 0 -189 37l-174 -174l-207 205l158 159q-53 89 -53 203q0 113 53 205l-162 162l211 203l174 -175q87 35 189 35q101 0 188 -35l174 175l211 -203l-162 -162q54 -94 54 -205q0 -112 -54 -203l158 -159l-207 -205l-174 174q-84 -37 -188 -37zM676 510
q77 0 128.5 46.5t51.5 135.5t-51.5 135.5t-128.5 46.5t-128.5 -46.5t-51.5 -135.5t51.5 -135.5t128.5 -46.5z" />
    <glyph glyph-name="yen" unicode="&#xa5;" horiz-adv-x="1290" 
d="M1217 244h-396v-244h-354v244h-393v225h393v51l-27 51h-366v226h254l-295 585h383l241 -518l246 518h354l-296 -585h256v-226h-369l-27 -51v-51h396v-225z" />
    <glyph glyph-name="brokenbar" unicode="&#xa6;" horiz-adv-x="729" 
d="M190 1470h349v-815h-349v815zM190 420h349v-815h-349v815z" />
    <glyph glyph-name="section" unicode="&#xa7;" horiz-adv-x="1208" 
d="M47 465q0 188 236 280q-156 93 -156 279q0 170 130.5 272.5t330.5 102.5q217 0 354 -114.5t152 -301.5h-346q-7 70 -51.5 112t-108.5 42q-57 0 -92 -29.5t-35 -73.5q0 -82 137 -119l211 -57q182 -50 267 -130t85 -204q0 -207 -213 -319q158 -78 158 -256
q0 -161 -136 -266t-341 -105q-241 0 -389.5 116.5t-163.5 311.5h346q5 -75 55 -120.5t129 -45.5q71 0 113.5 30.5t42.5 84.5q0 41 -36 68t-120 49l-211 53q-178 44 -263 132t-85 208zM377 506q0 -64 72.5 -100.5t201.5 -36.5q180 0 180 112q0 63 -74 100t-200 37
q-180 0 -180 -112z" />
    <glyph glyph-name="dieresis" unicode="&#xa8;" 
d="M963 1350q0 -84 -57 -137.5t-144 -53.5q-91 0 -148 53t-57 138q0 87 57 140.5t148 53.5q87 0 144 -53.5t57 -140.5zM467 1350q0 -85 -56.5 -138t-148.5 -53q-87 0 -144 53.5t-57 137.5q0 87 57 140.5t144 53.5q92 0 148.5 -53t56.5 -141z" />
    <glyph glyph-name="copyright" unicode="&#xa9;" horiz-adv-x="1611" 
d="M805 -18q-152 0 -287.5 56t-231 151.5t-151 226.5t-55.5 276q0 146 55.5 277.5t151 227.5t231 152t287.5 56q153 0 288.5 -56t231.5 -152t151.5 -227.5t55.5 -277.5q0 -145 -55.5 -276t-151.5 -226.5t-231.5 -151.5t-288.5 -56zM805 158q154 0 275 70.5t186 192t65 271.5
q0 230 -146.5 382.5t-379.5 152.5q-153 0 -273 -70.5t-185.5 -192t-65.5 -272.5q0 -150 65.5 -271.5t186 -192t272.5 -70.5zM967 645h217q-17 -147 -121.5 -237.5t-255.5 -90.5q-154 0 -261.5 108.5t-107.5 266.5t107.5 266.5t261.5 108.5q151 0 255.5 -91t121.5 -237h-217
q-11 65 -54 104.5t-104 39.5q-73 0 -116.5 -52t-43.5 -139t43.5 -139.5t116.5 -52.5q60 0 103.5 40t54.5 105z" />
    <glyph glyph-name="ordfeminine" unicode="&#xaa;" horiz-adv-x="876" 
d="M588 522v78q-45 -50 -104.5 -72t-145.5 -22q-138 0 -222.5 74.5t-84.5 197.5q0 126 101 193t290 67q69 0 127 -10v39q0 52 -31.5 79.5t-87.5 27.5q-55 0 -91 -27.5t-36 -79.5h-260q11 140 123 236t266 96q184 0 286.5 -92t102.5 -256v-529h-233zM303 786q0 -38 27 -59.5
t76 -21.5q67 0 105 27t38 73v51q-65 12 -109 12q-137 0 -137 -82z" />
    <glyph glyph-name="guillemotleft" unicode="&#xab;" horiz-adv-x="1286" 
d="M713 127h-389l-304 420l304 420h389l-283 -420zM1266 127h-389l-304 420l304 420h389l-283 -420z" />
    <glyph glyph-name="logicalnot" unicode="&#xac;" horiz-adv-x="1351" 
d="M1167 319h-329v465h-674v306h1003v-771z" />
    <glyph glyph-name="softhyphen" unicode="&#xad;" horiz-adv-x="737" 
d="M676 403h-615v316h615v-316z" />
    <glyph glyph-name="registered" unicode="&#xae;" horiz-adv-x="1611" 
d="M805 -18q-152 0 -287.5 56t-231 151.5t-151 226.5t-55.5 276q0 146 55.5 277.5t151 227.5t231 152t287.5 56q153 0 288.5 -56t231.5 -152t151.5 -227.5t55.5 -277.5q0 -145 -55.5 -276t-151.5 -226.5t-231.5 -151.5t-288.5 -56zM805 158q154 0 275 70.5t186 192t65 271.5
q0 230 -146.5 382.5t-379.5 152.5q-153 0 -273 -70.5t-185.5 -192t-65.5 -272.5q0 -150 65.5 -271.5t186 -192t272.5 -70.5zM905 332l-141 233h-49v-233h-205v721h301q150 0 231.5 -63t81.5 -181q0 -72 -40.5 -126t-108.5 -83l180 -268h-250zM803 883h-88v-148h88
q117 0 117 74t-117 74z" />
    <glyph glyph-name="macron" unicode="&#xaf;" 
d="M870 1194h-714v225h714v-225z" />
    <glyph glyph-name="degree" unicode="&#xb0;" horiz-adv-x="978" 
d="M489 621q-194 0 -325 125.5t-131 304.5q0 180 130.5 305t325.5 125t326 -125t131 -305q0 -117 -59 -215.5t-164.5 -156.5t-233.5 -58zM489 868q72 0 122.5 49.5t50.5 133.5t-50 133t-123 49q-72 0 -123 -49t-51 -133t51.5 -133.5t122.5 -49.5z" />
    <glyph glyph-name="plusminus" unicode="&#xb1;" horiz-adv-x="1351" 
d="M842 403h-332v347h-346v307h346v346h332v-346h346v-307h-346v-347zM1188 0h-1024v307h1024v-307z" />
    <glyph glyph-name="twosuperior" unicode="&#xb2;" horiz-adv-x="788" 
d="M743 1260v-205h-684l2 129l277 233q84 70 117.5 109.5t33.5 83.5q0 36 -30.5 60t-85.5 24q-121 0 -121 -103h-221q0 135 100.5 221t257.5 86q155 0 246.5 -78t91.5 -178q0 -82 -46 -145.5t-171 -167.5l-84 -69h317z" />
    <glyph glyph-name="threesuperior" unicode="&#xb3;" horiz-adv-x="833" 
d="M780 1315q0 -121 -102 -194.5t-268 -73.5q-157 0 -257 74.5t-100 191.5h223q3 -42 39 -65t97 -23q63 0 98 22t35 62t-41.5 61t-118.5 21h-104v180h90q133 0 133 74q0 75 -107 75q-51 0 -78.5 -23t-27.5 -65h-221q0 114 97.5 191.5t240.5 77.5q153 0 242 -65.5t89 -170.5
q0 -100 -121 -170q162 -56 162 -180z" />
    <glyph glyph-name="acute" unicode="&#xb4;" 
d="M567 1169h-360l205 332h403z" />
    <glyph glyph-name="micro" unicode="&#xb5;" horiz-adv-x="1267" 
d="M461 -395h-346v1497h350v-602q0 -207 178 -207q77 0 118.5 55.5t41.5 136.5v617h350v-1102h-344v88q-30 -50 -82.5 -79t-110.5 -29q-118 0 -184 57z" />
    <glyph glyph-name="paragraph" unicode="&#xb6;" horiz-adv-x="1595" 
d="M901 -395h-352v770q-238 25 -367 153.5t-129 348.5q0 243 162 376t447 133h892v-315h-135v-1466h-354v1466h-164v-1466z" />
    <glyph glyph-name="periodcentered" unicode="&#xb7;" horiz-adv-x="542" 
d="M494 541q0 -98 -62 -161t-160 -63t-160.5 63t-62.5 161q0 100 62.5 162.5t160.5 62.5t160 -62.5t62 -162.5z" />
    <glyph glyph-name="cedilla" unicode="&#xb8;" 
d="M788 -225q0 -80 -75 -130.5t-195 -50.5q-123 0 -195.5 53.5t-84.5 153.5h211q8 -49 55 -49q23 0 37 12.5t14 32.5q0 37 -34.5 50t-110.5 6l45 186h166l-27 -100q89 -12 141.5 -56.5t52.5 -107.5z" />
    <glyph glyph-name="onesuperior" unicode="&#xb9;" horiz-adv-x="514" 
d="M428 1055h-229v633h-172v198h401v-831z" />
    <glyph glyph-name="ordmasculine" unicode="&#xba;" horiz-adv-x="999" 
d="M500 506q-195 0 -329 130t-134 316t134 316.5t329 130.5t329 -130.5t134 -316.5t-134 -316t-329 -130zM500 766q67 0 114.5 48t47.5 138t-47.5 138.5t-114.5 48.5t-114.5 -48.5t-47.5 -138.5t47.5 -138t114.5 -48z" />
    <glyph glyph-name="guillemotright" unicode="&#xbb;" horiz-adv-x="1286" 
d="M20 967h390l303 -420l-303 -420h-390l283 420zM573 967h390l303 -420l-303 -420h-390l283 420z" />
    <glyph glyph-name="onequarter" unicode="&#xbc;" horiz-adv-x="1683" 
d="M428 553h-229v633h-172v198h401v-831zM506 0h-277l791 1384h276zM1628 141h-133v-141h-227v141h-437v172l480 518h184v-491h133v-199zM1094 340h174v186z" />
    <glyph glyph-name="onehalf" unicode="&#xbd;" horiz-adv-x="1779" 
d="M428 553h-229v633h-172v198h401v-831zM506 0h-277l791 1384h276zM1735 205v-205h-684l2 129l276 233q85 71 118.5 110.5t33.5 82.5q0 36 -31 60t-86 24q-121 0 -121 -102h-221q0 135 100.5 221t257.5 86q155 0 246.5 -78t91.5 -178q0 -82 -46 -146t-171 -168l-84 -69h318
z" />
    <glyph glyph-name="threequarters" unicode="&#xbe;" horiz-adv-x="2002" 
d="M780 813q0 -121 -102 -194.5t-268 -73.5q-157 0 -257 74.5t-100 191.5h223q3 -42 39 -65t97 -23q63 0 98 22t35 62t-41.5 61t-118.5 21h-104v180h90q133 0 133 74q0 37 -28 56.5t-79 19.5t-78.5 -23.5t-27.5 -65.5h-221q0 114 97.5 191.5t240.5 77.5q153 0 242 -65.5
t89 -170.5q0 -100 -121 -170q162 -56 162 -180zM825 0h-276l790 1384h277zM1948 141h-133v-141h-228v141h-436v172l479 518h185v-491h133v-199zM1413 340h174v186z" />
    <glyph glyph-name="questiondown" unicode="&#xbf;" horiz-adv-x="1136" 
d="M367 891q0 94 65.5 154.5t165.5 60.5t166.5 -61t66.5 -154q0 -94 -65.5 -155.5t-167.5 -61.5q-101 0 -166 61.5t-65 155.5zM772 45h328q-9 -204 -163 -332.5t-384 -128.5q-228 0 -372 113t-144 293q0 75 47 147.5t137 153.5l160 145q62 57 80.5 96t1.5 84h223
q38 -64 50 -114t-6 -103t-73 -106l-149 -146q-45 -43 -62.5 -70.5t-17.5 -60.5q0 -57 43.5 -88.5t120.5 -31.5q76 0 123.5 40.5t56.5 108.5z" />
    <glyph glyph-name="Agrave" unicode="&#xc0;" horiz-adv-x="1531" 
d="M942 1538h-360l-248 332h405zM1102 0l-90 272h-516l-93 -272h-391l545 1470h424l539 -1470h-418zM758 1044l-158 -466h311z" />
    <glyph glyph-name="Aacute" unicode="&#xc1;" horiz-adv-x="1531" 
d="M954 1538h-360l205 332h403zM1102 0l-90 272h-516l-93 -272h-391l545 1470h424l539 -1470h-418zM758 1044l-158 -466h311z" />
    <glyph glyph-name="Acircumflex" unicode="&#xc2;" horiz-adv-x="1531" 
d="M643 1538h-385l289 332h444l287 -332h-383l-127 152zM1102 0l-90 272h-516l-93 -272h-391l545 1470h424l539 -1470h-418zM758 1044l-158 -466h311z" />
    <glyph glyph-name="Atilde" unicode="&#xc3;" horiz-adv-x="1531" 
d="M580 1528h-211q-29 150 37.5 247t189.5 97q59 0 124 -19.5t113.5 -39t69.5 -19.5q28 0 42 20t11 74h211q28 -147 -39.5 -245.5t-191.5 -98.5q-58 0 -122 19.5t-112.5 39t-70.5 19.5q-27 0 -40.5 -20t-10.5 -74zM1102 0l-90 272h-516l-93 -272h-391l545 1470h424
l539 -1470h-418zM758 1044l-158 -466h311z" />
    <glyph glyph-name="Adieresis" unicode="&#xc4;" horiz-adv-x="1531" 
d="M1219 1718q0 -84 -57 -137t-144 -53q-91 0 -148 52.5t-57 137.5q0 87 57 141t148 54q87 0 144 -54t57 -141zM723 1718q0 -85 -56.5 -137.5t-148.5 -52.5q-87 0 -144 53t-57 137q0 87 57 141t144 54q92 0 148.5 -53.5t56.5 -141.5zM1102 0l-90 272h-516l-93 -272h-391
l545 1470h424l539 -1470h-418zM758 1044l-158 -466h311z" />
    <glyph glyph-name="Aring" unicode="&#xc5;" horiz-adv-x="1531" 
d="M768 1528q-131 0 -214 78t-83 190q0 115 83 193.5t214 78.5q130 0 214.5 -79t84.5 -193q0 -111 -84.5 -189.5t-214.5 -78.5zM768 1700q43 0 70.5 24t27.5 72q0 50 -28 76t-70 26q-40 0 -70 -26.5t-30 -75.5q0 -48 29.5 -72t70.5 -24zM1102 0l-90 272h-516l-93 -272h-391
l545 1470h424l539 -1470h-418zM758 1044l-158 -466h311z" />
    <glyph glyph-name="AE" unicode="&#xc6;" horiz-adv-x="1941" 
d="M903 272h-379l-116 -272h-437l688 1470h1190v-333h-561v-213h500v-336h-500v-254h576v-334h-961v272zM903 578v571l-246 -571h246z" />
    <glyph glyph-name="Ccedilla" unicode="&#xc7;" horiz-adv-x="1624" 
d="M1059 -225q0 -80 -75.5 -130.5t-195.5 -50.5q-123 0 -195.5 53.5t-84.5 153.5h211q8 -49 55 -49q23 0 37 12.5t14 32.5q0 37 -34.5 50t-110.5 6l29 122q-184 23 -332.5 128t-234 271.5t-85.5 362.5q0 158 58.5 300t158.5 243.5t238.5 161t292.5 59.5q199 0 364.5 -82.5
t270 -232.5t127.5 -342h-410q-23 139 -118.5 225t-229.5 86q-162 0 -258 -114.5t-96 -303.5q0 -190 96 -306t258 -116q133 0 228 87t120 227h410q-35 -277 -225.5 -456.5t-469.5 -201.5l-8 -32q89 -12 142 -56.5t53 -107.5z" />
    <glyph glyph-name="Egrave" unicode="&#xc8;" horiz-adv-x="1261" 
d="M836 1538h-361l-248 332h406zM1184 336v-336h-1041v1470h1026v-335h-639v-211h580v-336h-580v-252h654z" />
    <glyph glyph-name="Eacute" unicode="&#xc9;" horiz-adv-x="1261" 
d="M848 1538h-361l205 332h404zM1184 336v-336h-1041v1470h1026v-335h-639v-211h580v-336h-580v-252h654z" />
    <glyph glyph-name="Ecircumflex" unicode="&#xca;" horiz-adv-x="1261" 
d="M537 1538h-385l288 332h445l286 -332h-383l-126 152zM1184 336v-336h-1041v1470h1026v-335h-639v-211h580v-336h-580v-252h654z" />
    <glyph glyph-name="Edieresis" unicode="&#xcb;" horiz-adv-x="1261" 
d="M1112 1718q0 -84 -57 -137t-144 -53q-91 0 -147.5 52.5t-56.5 137.5q0 88 56.5 141.5t147.5 53.5q87 0 144 -54t57 -141zM616 1718q0 -85 -56 -137.5t-148 -52.5q-87 0 -144 53t-57 137q0 87 57 141t144 54q92 0 148 -53.5t56 -141.5zM1184 336v-336h-1041v1470h1026
v-335h-639v-211h580v-336h-580v-252h654z" />
    <glyph glyph-name="Igrave" unicode="&#xcc;" horiz-adv-x="673" 
d="M514 1538h-362l-224 332h404zM530 0h-387v1470h387v-1470z" />
    <glyph glyph-name="Iacute" unicode="&#xcd;" horiz-adv-x="673" 
d="M526 1538h-360l184 332h402zM530 0h-387v1470h387v-1470z" />
    <glyph glyph-name="Icircumflex" unicode="&#xce;" horiz-adv-x="673" 
d="M238 1538h-385l260 332h454l258 -332h-383l-102 152zM530 0h-387v1470h387v-1470z" />
    <glyph glyph-name="Idieresis" unicode="&#xcf;" horiz-adv-x="673" 
d="M770 1718q0 -84 -55 -137t-140 -53q-89 0 -144.5 52.5t-55.5 137.5q0 88 55.5 141.5t144.5 53.5q85 0 140 -54t55 -141zM305 1718q0 -85 -55.5 -137.5t-145.5 -52.5q-85 0 -139.5 53t-54.5 137q0 87 54.5 141t139.5 54q91 0 146 -53.5t55 -141.5zM530 0h-387v1470h387
v-1470z" />
    <glyph glyph-name="Eth" unicode="&#xd0;" horiz-adv-x="1581" 
d="M766 0h-573v598h-181v315h181v557h573q345 0 551.5 -201.5t206.5 -525.5q0 -159 -55 -296.5t-153 -236t-240 -154.5t-310 -56zM860 598h-280v-264h163q192 0 287.5 101t95.5 308q0 195 -97 294.5t-286 99.5h-163v-224h280v-315z" />
    <glyph glyph-name="Ntilde" unicode="&#xd1;" horiz-adv-x="1599" 
d="M610 1528h-211q-29 150 37.5 247t190.5 97q59 0 124 -19.5t113.5 -39t69.5 -19.5q28 0 42 20t11 74h211q28 -147 -39.5 -245.5t-191.5 -98.5q-58 0 -122 19.5t-112.5 39t-70.5 19.5q-27 0 -41 -20t-11 -74zM1083 0l-585 918v-918h-355v1470h416l543 -849v849h354v-1470
h-373z" />
    <glyph glyph-name="Ograve" unicode="&#xd2;" horiz-adv-x="1632" 
d="M989 1538h-360l-248 332h405zM815 -31q-157 0 -297 58t-241.5 158.5t-160.5 244t-59 307.5t59 307t160.5 243t241.5 157t297 57q211 0 384.5 -97t274.5 -272.5t101 -394.5t-101 -395.5t-274.5 -274.5t-384.5 -98zM815 315q112 0 195.5 58t124.5 152.5t41 211.5
q0 180 -96.5 299t-264.5 119t-264 -119t-96 -299q0 -181 96.5 -301.5t263.5 -120.5z" />
    <glyph glyph-name="Oacute" unicode="&#xd3;" horiz-adv-x="1632" 
d="M1001 1538h-360l205 332h403zM815 -31q-157 0 -297 58t-241.5 158.5t-160.5 244t-59 307.5t59 307t160.5 243t241.5 157t297 57q211 0 384.5 -97t274.5 -272.5t101 -394.5t-101 -395.5t-274.5 -274.5t-384.5 -98zM815 315q112 0 195.5 58t124.5 152.5t41 211.5
q0 180 -96.5 299t-264.5 119t-264 -119t-96 -299q0 -181 96.5 -301.5t263.5 -120.5z" />
    <glyph glyph-name="Ocircumflex" unicode="&#xd4;" horiz-adv-x="1632" 
d="M690 1538h-385l289 332h444l287 -332h-383l-127 152zM815 -31q-157 0 -297 58t-241.5 158.5t-160.5 244t-59 307.5t59 307t160.5 243t241.5 157t297 57q211 0 384.5 -97t274.5 -272.5t101 -394.5t-101 -395.5t-274.5 -274.5t-384.5 -98zM815 315q112 0 195.5 58
t124.5 152.5t41 211.5q0 180 -96.5 299t-264.5 119t-264 -119t-96 -299q0 -181 96.5 -301.5t263.5 -120.5z" />
    <glyph glyph-name="Otilde" unicode="&#xd5;" horiz-adv-x="1632" 
d="M627 1528h-211q-29 150 37.5 247t189.5 97q59 0 124 -19.5t113.5 -39t69.5 -19.5q28 0 42.5 20t11.5 74h210q28 -147 -39.5 -245.5t-191.5 -98.5q-58 0 -122 19.5t-112.5 39t-70.5 19.5q-27 0 -40.5 -20t-10.5 -74zM815 -31q-157 0 -297 58t-241.5 158.5t-160.5 244
t-59 307.5t59 307t160.5 243t241.5 157t297 57q211 0 384.5 -97t274.5 -272.5t101 -394.5t-101 -395.5t-274.5 -274.5t-384.5 -98zM815 315q112 0 195.5 58t124.5 152.5t41 211.5q0 180 -96.5 299t-264.5 119t-264 -119t-96 -299q0 -181 96.5 -301.5t263.5 -120.5z" />
    <glyph glyph-name="Odieresis" unicode="&#xd6;" horiz-adv-x="1632" 
d="M1266 1718q0 -84 -57 -137t-144 -53q-91 0 -148 52.5t-57 137.5q0 87 57 141t148 54q87 0 144 -54t57 -141zM770 1718q0 -85 -56.5 -137.5t-148.5 -52.5q-87 0 -143.5 53t-56.5 137q0 87 56.5 141t143.5 54q92 0 148.5 -53.5t56.5 -141.5zM815 -31q-157 0 -297 58
t-241.5 158.5t-160.5 244t-59 307.5t59 307t160.5 243t241.5 157t297 57q211 0 384.5 -97t274.5 -272.5t101 -394.5t-101 -395.5t-274.5 -274.5t-384.5 -98zM815 315q112 0 195.5 58t124.5 152.5t41 211.5q0 180 -96.5 299t-264.5 119t-264 -119t-96 -299
q0 -181 96.5 -301.5t263.5 -120.5z" />
    <glyph glyph-name="multiply" unicode="&#xd7;" horiz-adv-x="1351" 
d="M369 182l-203 207l303 303l-303 305l203 207l305 -307l301 305l211 -203l-307 -307l303 -303l-207 -205l-301 303z" />
    <glyph glyph-name="Oslash" unicode="&#xd8;" horiz-adv-x="1632" 
d="M438 0h-342l158 211q-94 102 -145.5 236.5t-51.5 289.5q0 164 59 307t160.5 243t241.5 157t297 57q188 0 344 -78l35 47h340l-156 -208q197 -213 197 -525q0 -219 -101 -395.5t-274.5 -274.5t-384.5 -98q-186 0 -342 78zM455 737q0 -117 39 -205l448 601q-58 22 -127 22
q-168 0 -264 -119t-96 -299zM815 315q112 0 195.5 58t124.5 152.5t41 211.5q0 114 -37 201l-449 -602q65 -21 125 -21z" />
    <glyph glyph-name="Ugrave" unicode="&#xd9;" horiz-adv-x="1554" 
d="M952 1538h-360l-248 332h406zM1415 1470v-884q0 -134 -42 -246.5t-121 -195.5t-200.5 -129t-273.5 -46q-204 0 -350 80.5t-217.5 218.5t-71.5 318v884h387v-890q0 -126 56.5 -195.5t195.5 -69.5q137 0 193.5 69.5t56.5 195.5v890h387z" />
    <glyph glyph-name="Uacute" unicode="&#xda;" horiz-adv-x="1554" 
d="M965 1538h-361l205 332h403zM1415 1470v-884q0 -134 -42 -246.5t-121 -195.5t-200.5 -129t-273.5 -46q-204 0 -350 80.5t-217.5 218.5t-71.5 318v884h387v-890q0 -126 56.5 -195.5t195.5 -69.5q137 0 193.5 69.5t56.5 195.5v890h387z" />
    <glyph glyph-name="Ucircumflex" unicode="&#xdb;" horiz-adv-x="1554" 
d="M653 1538h-385l289 332h444l287 -332h-383l-127 152zM1415 1470v-884q0 -134 -42 -246.5t-121 -195.5t-200.5 -129t-273.5 -46q-204 0 -350 80.5t-217.5 218.5t-71.5 318v884h387v-890q0 -126 56.5 -195.5t195.5 -69.5q137 0 193.5 69.5t56.5 195.5v890h387z" />
    <glyph glyph-name="Udieresis" unicode="&#xdc;" horiz-adv-x="1554" 
d="M1229 1718q0 -84 -57 -137t-144 -53q-91 0 -148 52.5t-57 137.5q0 87 57 141t148 54q87 0 144 -54t57 -141zM733 1718q0 -85 -56.5 -137.5t-148.5 -52.5q-87 0 -143.5 53t-56.5 137q0 87 56.5 141t143.5 54q92 0 148.5 -53.5t56.5 -141.5zM1415 1470v-884
q0 -134 -42 -246.5t-121 -195.5t-200.5 -129t-273.5 -46q-204 0 -350 80.5t-217.5 218.5t-71.5 318v884h387v-890q0 -126 56.5 -195.5t195.5 -69.5q137 0 193.5 69.5t56.5 195.5v890h387z" />
    <glyph glyph-name="Yacute" unicode="&#xdd;" horiz-adv-x="1435" 
d="M915 1538h-360l205 332h403zM909 553v-553h-387v553l-514 917h418l303 -563l309 563h389z" />
    <glyph glyph-name="Thorn" unicode="&#xde;" horiz-adv-x="1376" 
d="M707 229h-177v-229h-387v1470h387v-219h177q293 0 454.5 -128.5t161.5 -372.5q0 -248 -163 -384.5t-453 -136.5zM705 926h-175v-371h175q113 0 173 51.5t60 138.5t-59.5 134t-173.5 47z" />
    <glyph glyph-name="germandbls" unicode="&#xdf;" horiz-adv-x="1337" 
d="M1300 436q0 -220 -133 -338t-379 -118q-83 0 -126 14v276q69 -10 102 -10q83 0 129.5 46t46.5 128q0 86 -54.5 134t-154.5 48h-72v283h43q75 0 121.5 46.5t46.5 121.5q0 67 -38.5 106t-104.5 39q-73 0 -114.5 -46t-41.5 -128v-1038h-350v797h-205v305h209
q14 79 53.5 148.5t101.5 123.5t152.5 85.5t198.5 31.5q117 0 213 -32t157.5 -87.5t94.5 -126.5t33 -151q0 -95 -49.5 -170.5t-137.5 -124.5q121 -40 189.5 -136t68.5 -227z" />
    <glyph glyph-name="agrave" unicode="&#xe0;" horiz-adv-x="1146" 
d="M743 1169h-360l-248 332h406zM760 0v106q-58 -66 -134 -96t-182 -30q-172 0 -277.5 95t-105.5 251q0 161 126.5 246t363.5 85q91 0 162 -12v53q0 72 -40 111t-114 39q-72 0 -114.5 -39t-51.5 -111h-315q15 192 147 308t336 116q227 0 354 -116.5t127 -325.5v-680h-282z
M391 336q0 -54 35.5 -84.5t99.5 -30.5q87 0 137 39t50 107v69q-80 15 -140 15q-182 0 -182 -115z" />
    <glyph glyph-name="aacute" unicode="&#xe1;" horiz-adv-x="1146" 
d="M756 1169h-361l205 332h404zM760 0v106q-58 -66 -134 -96t-182 -30q-172 0 -277.5 95t-105.5 251q0 161 126.5 246t363.5 85q91 0 162 -12v53q0 72 -40 111t-114 39q-72 0 -114.5 -39t-51.5 -111h-315q15 192 147 308t336 116q227 0 354 -116.5t127 -325.5v-680h-282z
M391 336q0 -54 35.5 -84.5t99.5 -30.5q87 0 137 39t50 107v69q-80 15 -140 15q-182 0 -182 -115z" />
    <glyph glyph-name="acircumflex" unicode="&#xe2;" horiz-adv-x="1146" 
d="M444 1169h-385l289 332h445l286 -332h-383l-127 152zM760 0v106q-58 -66 -134 -96t-182 -30q-172 0 -277.5 95t-105.5 251q0 161 126.5 246t363.5 85q91 0 162 -12v53q0 72 -40 111t-114 39q-72 0 -114.5 -39t-51.5 -111h-315q15 192 147 308t336 116q227 0 354 -116.5
t127 -325.5v-680h-282zM391 336q0 -54 35.5 -84.5t99.5 -30.5q87 0 137 39t50 107v69q-80 15 -140 15q-182 0 -182 -115z" />
    <glyph glyph-name="atilde" unicode="&#xe3;" horiz-adv-x="1146" 
d="M381 1159h-211q-29 150 37.5 247t189.5 97q59 0 124 -19.5t114 -39t70 -19.5q28 0 42 20.5t11 74.5h211q28 -147 -40 -245.5t-192 -98.5q-58 0 -122 19t-112.5 38.5t-70.5 19.5q-27 0 -40.5 -20t-10.5 -74zM760 0v106q-58 -66 -134 -96t-182 -30q-172 0 -277.5 95
t-105.5 251q0 161 126.5 246t363.5 85q91 0 162 -12v53q0 72 -40 111t-114 39q-72 0 -114.5 -39t-51.5 -111h-315q15 192 147 308t336 116q227 0 354 -116.5t127 -325.5v-680h-282zM391 336q0 -54 35.5 -84.5t99.5 -30.5q87 0 137 39t50 107v69q-80 15 -140 15
q-182 0 -182 -115z" />
    <glyph glyph-name="adieresis" unicode="&#xe4;" horiz-adv-x="1146" 
d="M1020 1350q0 -84 -57 -137.5t-144 -53.5q-91 0 -148 53t-57 138q0 87 57 140.5t148 53.5q87 0 144 -53.5t57 -140.5zM524 1350q0 -85 -56.5 -138t-148.5 -53q-87 0 -143.5 53.5t-56.5 137.5q0 87 56.5 140.5t143.5 53.5q92 0 148.5 -53t56.5 -141zM760 0v106
q-58 -66 -134 -96t-182 -30q-172 0 -277.5 95t-105.5 251q0 161 126.5 246t363.5 85q91 0 162 -12v53q0 72 -40 111t-114 39q-72 0 -114.5 -39t-51.5 -111h-315q15 192 147 308t336 116q227 0 354 -116.5t127 -325.5v-680h-282zM391 336q0 -54 35.5 -84.5t99.5 -30.5
q87 0 137 39t50 107v69q-80 15 -140 15q-182 0 -182 -115z" />
    <glyph glyph-name="aring" unicode="&#xe5;" horiz-adv-x="1146" 
d="M569 1159q-131 0 -214 78t-83 190q0 115 83 194t214 79q130 0 214.5 -79.5t84.5 -193.5q0 -111 -84.5 -189.5t-214.5 -78.5zM569 1331q43 0 71 24t28 72q0 50 -28.5 76.5t-70.5 26.5q-40 0 -70 -27t-30 -76q0 -48 29.5 -72t70.5 -24zM760 0v106q-58 -66 -134 -96
t-182 -30q-172 0 -277.5 95t-105.5 251q0 161 126.5 246t363.5 85q91 0 162 -12v53q0 72 -40 111t-114 39q-72 0 -114.5 -39t-51.5 -111h-315q15 192 147 308t336 116q227 0 354 -116.5t127 -325.5v-680h-282zM391 336q0 -54 35.5 -84.5t99.5 -30.5q87 0 137 39t50 107v69
q-80 15 -140 15q-182 0 -182 -115z" />
    <glyph glyph-name="ae" unicode="&#xe6;" horiz-adv-x="1792" 
d="M61 326q0 161 126.5 246t363.5 85q91 0 162 -12v55q0 70 -41 109t-113 39q-73 0 -119 -38.5t-47 -111.5h-315q14 182 148.5 303t330.5 121q232 0 344 -127q137 127 336 127q260 0 400 -181t102 -478h-707q6 -209 187 -209q141 0 157 121h359q-44 -187 -175 -290
t-323 -103q-260 0 -397 180q-135 -182 -375 -182q-181 0 -292.5 95t-111.5 251zM1212 864q-72 0 -117.5 -43.5t-54.5 -138.5h338q-3 88 -45.5 135t-120.5 47zM391 336q0 -54 35.5 -84.5t99.5 -30.5q87 0 137 44.5t50 121.5v49q-80 15 -140 15q-182 0 -182 -115z" />
    <glyph glyph-name="ccedilla" unicode="&#xe7;" horiz-adv-x="1204" 
d="M850 -225q0 -80 -75 -130.5t-195 -50.5q-123 0 -196 53.5t-85 153.5h211q8 -49 55 -49q23 0 37 12.5t14 32.5q0 37 -34.5 50t-110.5 6l33 133q-207 32 -333 186t-126 379q0 162 72 292.5t199.5 204.5t283.5 74q227 0 381.5 -141t177.5 -371h-373q-4 91 -54 144t-130 53
q-92 0 -143 -67t-51 -189q0 -125 50 -191.5t144 -66.5q81 0 129.5 52.5t54.5 146.5h373q-22 -219 -153 -354t-338 -154l-13 -45q89 -12 142 -56.5t53 -107.5z" />
    <glyph glyph-name="egrave" unicode="&#xe8;" horiz-adv-x="1210" 
d="M766 1169h-360l-248 332h405zM612 -18q-255 0 -411 157t-156 414q0 163 72.5 293t201.5 203t291 73q134 0 247.5 -52.5t186 -141t103.5 -210.5t8 -255h-747q27 -209 196 -209q148 0 195 121h350q-51 -189 -191 -291t-346 -102zM602 864q-153 0 -190 -182h368
q-3 83 -51.5 132.5t-126.5 49.5z" />
    <glyph glyph-name="eacute" unicode="&#xe9;" horiz-adv-x="1210" 
d="M778 1169h-360l205 332h403zM612 -18q-255 0 -411 157t-156 414q0 163 72.5 293t201.5 203t291 73q134 0 247.5 -52.5t186 -141t103.5 -210.5t8 -255h-747q27 -209 196 -209q148 0 195 121h350q-51 -189 -191 -291t-346 -102zM602 864q-153 0 -190 -182h368
q-3 83 -51.5 132.5t-126.5 49.5z" />
    <glyph glyph-name="ecircumflex" unicode="&#xea;" horiz-adv-x="1210" 
d="M467 1169h-385l289 332h444l287 -332h-383l-127 152zM612 -18q-255 0 -411 157t-156 414q0 163 72.5 293t201.5 203t291 73q134 0 247.5 -52.5t186 -141t103.5 -210.5t8 -255h-747q27 -209 196 -209q148 0 195 121h350q-51 -189 -191 -291t-346 -102zM602 864
q-153 0 -190 -182h368q-3 83 -51.5 132.5t-126.5 49.5z" />
    <glyph glyph-name="edieresis" unicode="&#xeb;" horiz-adv-x="1210" 
d="M1042 1350q0 -84 -56.5 -137.5t-143.5 -53.5q-91 0 -148 53t-57 138q0 87 57 140.5t148 53.5q87 0 143.5 -53.5t56.5 -140.5zM547 1350q0 -85 -56.5 -138t-148.5 -53q-87 0 -144 53.5t-57 137.5q0 87 57 140.5t144 53.5q92 0 148.5 -53t56.5 -141zM612 -18
q-255 0 -411 157t-156 414q0 163 72.5 293t201.5 203t291 73q134 0 247.5 -52.5t186 -141t103.5 -210.5t8 -255h-747q27 -209 196 -209q148 0 195 121h350q-51 -189 -191 -291t-346 -102zM602 864q-153 0 -190 -182h368q-3 83 -51.5 132.5t-126.5 49.5z" />
    <glyph glyph-name="igrave" unicode="&#xec;" horiz-adv-x="579" 
d="M463 1169h-363l-223 332h404zM465 0h-350v1102h350v-1102z" />
    <glyph glyph-name="iacute" unicode="&#xed;" horiz-adv-x="579" 
d="M475 1169h-360l184 332h401zM465 0h-350v1102h350v-1102z" />
    <glyph glyph-name="icircumflex" unicode="&#xee;" horiz-adv-x="579" 
d="M186 1169h-385l260 332h455l258 -332h-383l-102 152zM465 0h-350v1102h350v-1102z" />
    <glyph glyph-name="idieresis" unicode="&#xef;" horiz-adv-x="579" 
d="M719 1350q0 -84 -55 -137.5t-140 -53.5q-89 0 -144.5 53t-55.5 138q0 87 55 140.5t145 53.5q86 0 140.5 -53.5t54.5 -140.5zM254 1350q0 -85 -55.5 -138t-145.5 -53q-85 0 -139.5 53.5t-54.5 137.5q0 87 54.5 140.5t139.5 53.5q91 0 146 -53t55 -141zM465 0h-350v1102
h350v-1102z" />
    <glyph glyph-name="eth" unicode="&#xf0;" horiz-adv-x="1222" 
d="M45 543q0 232 139 380t379 148h29l-72 94l-276 -65v225l131 31l-86 114h397l27 -34l301 69v-225l-156 -37l131 -174q105 -138 147 -251t42 -275q0 -107 -42 -208.5t-114.5 -180t-180 -126.5t-229.5 -48q-165 0 -295.5 76.5t-201 204.5t-70.5 282zM408 547
q0 -121 59 -186.5t143 -65.5q82 0 141.5 66t59.5 186q0 122 -59 188t-142 66q-84 0 -143 -66t-59 -188z" />
    <glyph glyph-name="ntilde" unicode="&#xf1;" horiz-adv-x="1239" 
d="M430 1159h-211q-29 150 37.5 247t189.5 97q59 0 124 -19.5t114 -39t70 -19.5q28 0 42 20.5t11 74.5h211q28 -147 -40 -245.5t-192 -98.5q-58 0 -122 19t-112.5 38.5t-70.5 19.5q-27 0 -40.5 -20t-10.5 -74zM465 580v-580h-350v1102h321v-133q137 153 328 153
q167 0 269 -108.5t102 -304.5v-709h-351v592q0 215 -155 215q-71 0 -117.5 -55t-46.5 -172z" />
    <glyph glyph-name="ograve" unicode="&#xf2;" horiz-adv-x="1241" 
d="M795 1169h-361l-248 332h406zM621 -20q-160 0 -292.5 76.5t-208 207.5t-75.5 287t75.5 287t208 207.5t292.5 76.5q120 0 227 -45t183 -122t120.5 -182.5t44.5 -221.5t-44.5 -221.5t-120.5 -182.5t-183 -122t-227 -45zM621 293q88 0 149 67.5t61 190.5q0 122 -61 189
t-149 67t-149.5 -67t-61.5 -189t61.5 -190t149.5 -68z" />
    <glyph glyph-name="oacute" unicode="&#xf3;" horiz-adv-x="1241" 
d="M807 1169h-361l205 332h404zM621 -20q-160 0 -292.5 76.5t-208 207.5t-75.5 287t75.5 287t208 207.5t292.5 76.5q120 0 227 -45t183 -122t120.5 -182.5t44.5 -221.5t-44.5 -221.5t-120.5 -182.5t-183 -122t-227 -45zM621 293q88 0 149 67.5t61 190.5q0 122 -61 189
t-149 67t-149.5 -67t-61.5 -189t61.5 -190t149.5 -68z" />
    <glyph glyph-name="ocircumflex" unicode="&#xf4;" horiz-adv-x="1241" 
d="M496 1169h-385l288 332h445l286 -332h-382l-127 152zM621 -20q-160 0 -292.5 76.5t-208 207.5t-75.5 287t75.5 287t208 207.5t292.5 76.5q120 0 227 -45t183 -122t120.5 -182.5t44.5 -221.5t-44.5 -221.5t-120.5 -182.5t-183 -122t-227 -45zM621 293q88 0 149 67.5
t61 190.5q0 122 -61 189t-149 67t-149.5 -67t-61.5 -189t61.5 -190t149.5 -68z" />
    <glyph glyph-name="otilde" unicode="&#xf5;" horiz-adv-x="1241" 
d="M432 1159h-211q-29 150 37.5 247t190.5 97q59 0 124 -19.5t113.5 -39t69.5 -19.5q28 0 42 20.5t11 74.5h211q28 -147 -40 -245.5t-192 -98.5q-58 0 -122 19t-112.5 38.5t-70.5 19.5q-27 0 -40.5 -20t-10.5 -74zM621 -20q-160 0 -292.5 76.5t-208 207.5t-75.5 287
t75.5 287t208 207.5t292.5 76.5q120 0 227 -45t183 -122t120.5 -182.5t44.5 -221.5t-44.5 -221.5t-120.5 -182.5t-183 -122t-227 -45zM621 293q88 0 149 67.5t61 190.5q0 122 -61 189t-149 67t-149.5 -67t-61.5 -189t61.5 -190t149.5 -68z" />
    <glyph glyph-name="odieresis" unicode="&#xf6;" horiz-adv-x="1241" 
d="M1071 1350q0 -84 -57 -137.5t-144 -53.5q-91 0 -147.5 53t-56.5 138q0 87 56.5 140.5t147.5 53.5q87 0 144 -53.5t57 -140.5zM575 1350q0 -85 -56 -138t-148 -53q-87 0 -144 53.5t-57 137.5q0 87 57 140.5t144 53.5q92 0 148 -53t56 -141zM621 -20q-160 0 -292.5 76.5
t-208 207.5t-75.5 287t75.5 287t208 207.5t292.5 76.5q120 0 227 -45t183 -122t120.5 -182.5t44.5 -221.5t-44.5 -221.5t-120.5 -182.5t-183 -122t-227 -45zM621 293q88 0 149 67.5t61 190.5q0 122 -61 189t-149 67t-149.5 -67t-61.5 -189t61.5 -190t149.5 -68z" />
    <glyph glyph-name="divide" unicode="&#xf7;" horiz-adv-x="1351" 
d="M897 1104q0 -98 -61.5 -160.5t-159.5 -62.5t-160.5 62.5t-62.5 160.5q0 100 62.5 162.5t160.5 62.5t159.5 -62.5t61.5 -162.5zM1188 551h-1024v307h1024v-307zM897 311q0 -98 -61.5 -160.5t-159.5 -62.5t-160.5 62.5t-62.5 160.5q0 100 62.5 163t160.5 63t159.5 -63
t61.5 -163z" />
    <glyph glyph-name="oslash" unicode="&#xf8;" horiz-adv-x="1241" 
d="M358 0h-260l109 152q-77 78 -119.5 181t-42.5 218q0 156 75.5 287t208 207.5t292.5 76.5q129 0 243 -51l23 31h260l-111 -154q76 -78 118 -180.5t42 -216.5q0 -116 -44.5 -221.5t-120.5 -182.5t-183 -122t-227 -45q-129 0 -240 51zM410 551q0 -55 12 -98l250 348
q-24 6 -51 6q-88 0 -149.5 -67t-61.5 -189zM621 293q88 0 149 67.5t61 190.5q0 51 -12 94l-248 -346q24 -6 50 -6z" />
    <glyph glyph-name="ugrave" unicode="&#xf9;" horiz-adv-x="1232" 
d="M788 1169h-360l-248 332h406zM768 473v629h350v-1102h-321v119q-47 -63 -130 -101t-178 -38q-172 0 -278.5 109t-106.5 319v694h351v-629q0 -89 41 -134.5t116 -45.5q60 0 108 46.5t48 133.5z" />
    <glyph glyph-name="uacute" unicode="&#xfa;" horiz-adv-x="1232" 
d="M801 1169h-361l205 332h404zM768 473v629h350v-1102h-321v119q-47 -63 -130 -101t-178 -38q-172 0 -278.5 109t-106.5 319v694h351v-629q0 -89 41 -134.5t116 -45.5q60 0 108 46.5t48 133.5z" />
    <glyph glyph-name="ucircumflex" unicode="&#xfb;" horiz-adv-x="1232" 
d="M489 1169h-385l289 332h445l286 -332h-383l-127 152zM768 473v629h350v-1102h-321v119q-47 -63 -130 -101t-178 -38q-172 0 -278.5 109t-106.5 319v694h351v-629q0 -89 41 -134.5t116 -45.5q60 0 108 46.5t48 133.5z" />
    <glyph glyph-name="udieresis" unicode="&#xfc;" horiz-adv-x="1232" 
d="M1065 1350q0 -84 -57 -137.5t-144 -53.5q-91 0 -148 53t-57 138q0 87 57 140.5t148 53.5q87 0 144 -53.5t57 -140.5zM569 1350q0 -85 -56 -138t-148 -53q-87 0 -144 53.5t-57 137.5q0 87 57 140.5t144 53.5q92 0 148 -53t56 -141zM768 473v629h350v-1102h-321v119
q-47 -63 -130 -101t-178 -38q-172 0 -278.5 109t-106.5 319v694h351v-629q0 -89 41 -134.5t116 -45.5q60 0 108 46.5t48 133.5z" />
    <glyph glyph-name="yacute" unicode="&#xfd;" horiz-adv-x="1163" 
d="M770 1169h-360l204 332h404zM1174 1102l-525 -1497h-383l154 407l-430 1090h381l237 -682l213 682h353z" />
    <glyph glyph-name="thorn" unicode="&#xfe;" horiz-adv-x="1300" 
d="M1255 551q0 -159 -60 -288.5t-173 -206t-258 -76.5q-171 0 -299 122v-497h-350v1865h350v-466q127 118 299 118q145 0 258 -77t173 -206.5t60 -287.5zM891 551q0 122 -62.5 189t-148.5 67q-88 0 -149.5 -67t-61.5 -191t62 -189t149 -65t149 66t62 190z" />
    <glyph glyph-name="ydieresis" unicode="&#xff;" horiz-adv-x="1163" 
d="M1034 1350q0 -84 -56.5 -137.5t-143.5 -53.5q-91 0 -148 53t-57 138q0 87 57 140.5t148 53.5q87 0 143.5 -53.5t56.5 -140.5zM539 1350q0 -85 -56.5 -138t-148.5 -53q-87 0 -144 53.5t-57 137.5q0 87 57 140.5t144 53.5q92 0 148.5 -53t56.5 -141zM1174 1102l-525 -1497
h-383l154 407l-430 1090h381l237 -682l213 682h353z" />
    <glyph glyph-name="Amacron" unicode="&#x100;" horiz-adv-x="1531" 
d="M1126 1563h-714v225h714v-225zM1102 0l-90 272h-516l-93 -272h-391l545 1470h424l539 -1470h-418zM758 1044l-158 -466h311z" />
    <glyph glyph-name="amacron" unicode="&#x101;" horiz-adv-x="1146" 
d="M928 1194h-715v225h715v-225zM760 0v106q-58 -66 -134 -96t-182 -30q-172 0 -277.5 95t-105.5 251q0 161 126.5 246t363.5 85q91 0 162 -12v53q0 72 -40 111t-114 39q-72 0 -114.5 -39t-51.5 -111h-315q15 192 147 308t336 116q227 0 354 -116.5t127 -325.5v-680h-282z
M391 336q0 -54 35.5 -84.5t99.5 -30.5q87 0 137 39t50 107v69q-80 15 -140 15q-182 0 -182 -115z" />
    <glyph glyph-name="Abreve" unicode="&#x102;" horiz-adv-x="1531" 
d="M907 1870h244q0 -159 -102.5 -250.5t-280.5 -91.5q-180 0 -282.5 91.5t-102.5 250.5h246q0 -59 37.5 -91t101.5 -32q65 0 102 32t37 91zM1102 0l-90 272h-516l-93 -272h-391l545 1470h424l539 -1470h-418zM758 1044l-158 -466h311z" />
    <glyph glyph-name="abreve" unicode="&#x103;" horiz-adv-x="1146" 
d="M709 1501h243q0 -159 -102.5 -250.5t-280.5 -91.5q-180 0 -282.5 91.5t-102.5 250.5h246q0 -59 37.5 -91t101.5 -32q65 0 102.5 32t37.5 91zM760 0v106q-58 -66 -134 -96t-182 -30q-172 0 -277.5 95t-105.5 251q0 161 126.5 246t363.5 85q91 0 162 -12v53q0 72 -40 111
t-114 39q-72 0 -114.5 -39t-51.5 -111h-315q15 192 147 308t336 116q227 0 354 -116.5t127 -325.5v-680h-282zM391 336q0 -54 35.5 -84.5t99.5 -30.5q87 0 137 39t50 107v69q-80 15 -140 15q-182 0 -182 -115z" />
    <glyph glyph-name="Aogonek" unicode="&#x104;" horiz-adv-x="1531" 
d="M1378 -154v-227q-77 -22 -145 -22q-115 0 -189.5 56.5t-74.5 164.5q0 113 116 229l-73 225h-516l-93 -272h-391l545 1470h424l539 -1470h-256q-27 -42 -27 -78q0 -42 21.5 -65t58.5 -23q27 0 61 12zM758 1044l-158 -466h311z" />
    <glyph glyph-name="aogonek" unicode="&#x105;" horiz-adv-x="1146" 
d="M1036 -154v-227q-77 -22 -145 -22q-115 0 -189.5 56.5t-74.5 164.5q0 65 32.5 121.5t100.5 121.5v45q-58 -66 -134 -96t-182 -30q-172 0 -277.5 95t-105.5 251q0 161 126.5 246t363.5 85q91 0 162 -12v53q0 72 -40 111t-114 39q-72 0 -114.5 -39t-51.5 -111h-315
q15 192 147 308t336 116q227 0 354 -116.5t127 -325.5v-680h-120q-27 -42 -27 -78q0 -42 21.5 -65t58.5 -23q27 0 61 12zM391 336q0 -54 35.5 -84.5t99.5 -30.5q87 0 137 39t50 107v69q-80 15 -140 15q-182 0 -182 -115z" />
    <glyph glyph-name="Cacute" unicode="&#x106;" horiz-adv-x="1624" 
d="M989 1538h-360l205 332h403zM805 -31q-154 0 -292.5 59.5t-238.5 162t-158.5 245t-58.5 301.5q0 158 58.5 300t158.5 243.5t238.5 161t292.5 59.5q199 0 364.5 -82.5t270 -232.5t127.5 -342h-410q-23 139 -118.5 225t-229.5 86q-162 0 -258 -114.5t-96 -303.5
q0 -190 96 -306t258 -116q133 0 228 87t120 227h410q-37 -294 -248 -477t-514 -183z" />
    <glyph glyph-name="cacute" unicode="&#x107;" horiz-adv-x="1204" 
d="M780 1169h-360l205 332h403zM600 -20q-246 0 -400.5 159.5t-154.5 411.5q0 162 72 292.5t199.5 204.5t283.5 74q227 0 381.5 -141t177.5 -371h-373q-4 91 -54 144t-130 53q-92 0 -143 -67t-51 -189q0 -125 50 -191.5t144 -66.5q81 0 129.5 52.5t54.5 146.5h373
q-23 -236 -173.5 -374t-385.5 -138z" />
    <glyph glyph-name="Ccaron" unicode="&#x10c;" horiz-adv-x="1624" 
d="M1026 1538h-444l-289 332h385l125 -152l127 152h383zM805 -31q-154 0 -292.5 59.5t-238.5 162t-158.5 245t-58.5 301.5q0 158 58.5 300t158.5 243.5t238.5 161t292.5 59.5q199 0 364.5 -82.5t270 -232.5t127.5 -342h-410q-23 139 -118.5 225t-229.5 86
q-162 0 -258 -114.5t-96 -303.5q0 -190 96 -306t258 -116q133 0 228 87t120 227h410q-37 -294 -248 -477t-514 -183z" />
    <glyph glyph-name="ccaron" unicode="&#x10d;" horiz-adv-x="1204" 
d="M817 1169h-444l-289 332h385l125 -151l127 151h383zM600 -20q-246 0 -400.5 159.5t-154.5 411.5q0 162 72 292.5t199.5 204.5t283.5 74q227 0 381.5 -141t177.5 -371h-373q-4 91 -54 144t-130 53q-92 0 -143 -67t-51 -189q0 -125 50 -191.5t144 -66.5q81 0 129.5 52.5
t54.5 146.5h373q-23 -236 -173.5 -374t-385.5 -138z" />
    <glyph glyph-name="Dcaron" unicode="&#x10e;" horiz-adv-x="1531" 
d="M1004 1538h-445l-289 332h385l125 -152l127 152h383zM717 0h-574v1470h574q345 0 551.5 -201.5t206.5 -525.5q0 -159 -55 -296.5t-153 -236t-240 -154.5t-310 -56zM530 1137v-803h164q192 0 287.5 101t95.5 308q0 195 -97 294.5t-286 99.5h-164z" />
    <glyph glyph-name="dcaron" unicode="&#x10f;" horiz-adv-x="1300" 
d="M45 551q0 159 60.5 289t173.5 206t258 76q170 0 299 -123v471h350v-1470h-322v125q-139 -145 -327 -145q-145 0 -258.5 77t-173.5 207t-60 287zM1464 1147h-231v323h287zM410 551q0 -122 62.5 -189t148.5 -67q88 0 149 67t61 191t-61.5 189t-148.5 65t-149 -66t-62 -190z
" />
    <glyph glyph-name="Dcroat" unicode="&#x110;" horiz-adv-x="1581" 
d="M766 0h-573v598h-181v315h181v557h573q345 0 551.5 -201.5t206.5 -525.5q0 -159 -55 -296.5t-153 -236t-240 -154.5t-310 -56zM860 598h-280v-264h163q192 0 287.5 101t95.5 308q0 195 -97 294.5t-286 99.5h-163v-224h280v-315z" />
    <glyph glyph-name="dcroat" unicode="&#x111;" horiz-adv-x="1300" 
d="M45 551q0 159 60.5 289t173.5 206t258 76q170 0 299 -123v191h-310v225h310v55h350v-55h141v-225h-141v-1190h-322v125q-139 -145 -327 -145q-145 0 -258.5 77t-173.5 207t-60 287zM410 551q0 -122 62.5 -189t148.5 -67q88 0 149 67t61 191t-61.5 189t-148.5 65t-149 -66
t-62 -190z" />
    <glyph glyph-name="Emacron" unicode="&#x112;" horiz-adv-x="1261" 
d="M1020 1563h-715v225h715v-225zM1184 336v-336h-1041v1470h1026v-335h-639v-211h580v-336h-580v-252h654z" />
    <glyph glyph-name="emacron" unicode="&#x113;" horiz-adv-x="1210" 
d="M950 1194h-714v225h714v-225zM612 -18q-255 0 -411 157t-156 414q0 163 72.5 293t201.5 203t291 73q134 0 247.5 -52.5t186 -141t103.5 -210.5t8 -255h-747q27 -209 196 -209q148 0 195 121h350q-51 -189 -191 -291t-346 -102zM602 864q-153 0 -190 -182h368
q-3 83 -51.5 132.5t-126.5 49.5z" />
    <glyph glyph-name="Edotaccent" unicode="&#x116;" horiz-adv-x="1261" 
d="M885 1726q0 -87 -63.5 -142.5t-162.5 -55.5t-162 55.5t-63 142.5q0 88 63 144.5t162 56.5t162.5 -56.5t63.5 -144.5zM1184 336v-336h-1041v1470h1026v-335h-639v-211h580v-336h-580v-252h654z" />
    <glyph glyph-name="edotaccent" unicode="&#x117;" horiz-adv-x="1210" 
d="M815 1358q0 -87 -63 -143t-162 -56t-162 56t-63 143q0 88 63 144.5t162 56.5t162 -56.5t63 -144.5zM612 -18q-255 0 -411 157t-156 414q0 163 72.5 293t201.5 203t291 73q134 0 247.5 -52.5t186 -141t103.5 -210.5t8 -255h-747q27 -209 196 -209q148 0 195 121h350
q-51 -189 -191 -291t-346 -102zM602 864q-153 0 -190 -182h368q-3 83 -51.5 132.5t-126.5 49.5z" />
    <glyph glyph-name="Eogonek" unicode="&#x118;" horiz-adv-x="1261" 
d="M1110 -154v-227q-77 -22 -145 -22q-115 0 -190 57t-75 164q0 90 76 182h-633v1470h1026v-335h-639v-211h580v-336h-580v-252h654v-336h-189q-26 -41 -26 -78q0 -42 21.5 -65t58.5 -23q27 0 61 12z" />
    <glyph glyph-name="eogonek" unicode="&#x119;" horiz-adv-x="1210" 
d="M612 -18q-255 0 -411 157t-156 414q0 163 72.5 293t201.5 203t291 73q134 0 247.5 -52.5t186 -141t103.5 -210.5t8 -255h-747q27 -209 196 -209q148 0 195 121h350q-52 -193 -201 -299q-98 -78 -98 -154q0 -42 21.5 -65t58.5 -23q27 0 61 12v-227q-77 -22 -145 -22
q-115 0 -189.5 56.5t-74.5 164.5q0 88 61 164h-31zM602 864q-153 0 -190 -182h368q-3 83 -51.5 132.5t-126.5 49.5z" />
    <glyph glyph-name="Ecaron" unicode="&#x11a;" horiz-adv-x="1261" 
d="M885 1538h-445l-288 332h385l125 -152l126 152h383zM1184 336v-336h-1041v1470h1026v-335h-639v-211h580v-336h-580v-252h654z" />
    <glyph glyph-name="ecaron" unicode="&#x11b;" horiz-adv-x="1210" 
d="M815 1169h-444l-289 332h385l125 -151l127 151h383zM612 -18q-255 0 -411 157t-156 414q0 163 72.5 293t201.5 203t291 73q134 0 247.5 -52.5t186 -141t103.5 -210.5t8 -255h-747q27 -209 196 -209q148 0 195 121h350q-51 -189 -191 -291t-346 -102zM602 864
q-153 0 -190 -182h368q-3 83 -51.5 132.5t-126.5 49.5z" />
    <glyph glyph-name="Gbreve" unicode="&#x11e;" horiz-adv-x="1630" 
d="M948 1870h244q0 -159 -102.5 -250.5t-280.5 -91.5q-180 0 -282.5 91.5t-102.5 250.5h246q0 -59 37.5 -91t101.5 -32q65 0 102 32t37 91zM821 -31q-159 0 -299.5 57t-243 157.5t-162 245.5t-59.5 314q0 160 57 301t156.5 241t239 158t299.5 58q273 0 469 -146t274 -397
h-458q-29 88 -107.5 142.5t-187.5 54.5q-151 0 -247.5 -107.5t-96.5 -314.5q0 -195 98 -315.5t289 -120.5q120 0 200.5 59.5t114.5 157.5h-354v305h768q15 -242 -71 -434.5t-263 -304t-416 -111.5z" />
    <glyph glyph-name="gbreve" unicode="&#x11f;" horiz-adv-x="1267" 
d="M750 1501h243q0 -159 -102.5 -250.5t-280.5 -91.5q-180 0 -282.5 91.5t-102.5 250.5h246q0 -59 37.5 -91t101.5 -32q65 0 102.5 32t37.5 91zM606 -416q-229 0 -373 116t-153 308h340q9 -74 56 -112.5t128 -38.5q199 0 199 202v129q-43 -62 -117.5 -96.5t-163.5 -34.5
q-201 0 -339 154t-138 379q0 233 130 382.5t333 149.5q202 0 323 -133v113h322v-1039q0 -223 -146.5 -351t-400.5 -128zM399 588q0 -103 53 -164.5t142 -61.5q92 0 148.5 63t56.5 165q0 103 -56.5 165t-148.5 62q-89 0 -142 -62.5t-53 -166.5z" />
    <glyph glyph-name="Gcommaaccent" unicode="&#x122;" horiz-adv-x="1630" 
d="M821 -31q-159 0 -299.5 57t-243 157.5t-162 245.5t-59.5 314q0 160 57 301t156.5 241t239 158t299.5 58q273 0 469 -146t274 -397h-458q-29 88 -107.5 142.5t-187.5 54.5q-151 0 -247.5 -107.5t-96.5 -314.5q0 -195 98 -315.5t289 -120.5q120 0 200.5 59.5t114.5 157.5
h-354v305h768q15 -242 -71 -434.5t-263 -304t-416 -111.5zM995 -231q0 -128 -115.5 -202.5t-273.5 -49.5v123q78 -12 132 2.5t71 56.5q-75 -17 -130.5 18t-55.5 95t47.5 96.5t128.5 36.5q86 0 141 -48t55 -128z" />
    <glyph glyph-name="gcommaaccent" unicode="&#x123;" horiz-adv-x="1267" 
d="M424 1333q0 128 115.5 202.5t273.5 49.5v-123q-78 12 -132 -2.5t-71 -56.5q14 4 45 4q60 0 101 -34t41 -83q0 -60 -47.5 -96.5t-128.5 -36.5q-86 0 -141.5 48t-55.5 128zM606 -416q-229 0 -373 116t-153 308h340q9 -74 56 -112.5t128 -38.5q199 0 199 202v129
q-43 -62 -117.5 -96.5t-163.5 -34.5q-201 0 -339 154t-138 379q0 233 130 382.5t333 149.5q202 0 323 -133v113h322v-1039q0 -223 -146.5 -351t-400.5 -128zM399 588q0 -103 53 -164.5t142 -61.5q92 0 148.5 63t56.5 165q0 103 -56.5 165t-148.5 62q-89 0 -142 -62.5
t-53 -166.5z" />
    <glyph glyph-name="Imacron" unicode="&#x12a;" horiz-adv-x="673" 
d="M698 1563h-714v225h714v-225zM530 0h-387v1470h387v-1470z" />
    <glyph glyph-name="imacron" unicode="&#x12b;" horiz-adv-x="579" 
d="M647 1194h-715v225h715v-225zM465 0h-350v1102h350v-1102z" />
    <glyph glyph-name="Iogonek" unicode="&#x12e;" horiz-adv-x="673" 
d="M420 -154v-227q-77 -22 -146 -22q-115 0 -189.5 56.5t-74.5 164.5q0 65 32.5 121.5t100.5 121.5v1409h387v-1470h-225q-26 -41 -26 -78q0 -42 21 -65t58 -23q28 0 62 12z" />
    <glyph glyph-name="iogonek" unicode="&#x12f;" horiz-adv-x="579" 
d="M512 1358q0 -87 -63 -143t-162 -56t-162.5 56t-63.5 143q0 88 63.5 144.5t162.5 56.5t162 -56.5t63 -144.5zM391 -154v-227q-77 -22 -145 -22q-115 0 -189.5 56.5t-74.5 164.5q0 65 32.5 121.5t100.5 121.5v1041h350v-1102h-189q-26 -41 -26 -78q0 -42 21.5 -65t58.5 -23
q26 0 61 12z" />
    <glyph glyph-name="Idotaccent" unicode="&#x130;" horiz-adv-x="673" 
d="M563 1726q0 -87 -63 -142.5t-162 -55.5t-162 55.5t-63 142.5q0 88 63 144.5t162 56.5t162 -56.5t63 -144.5zM530 0h-387v1470h387v-1470z" />
    <glyph glyph-name="dotlessi" unicode="&#x131;" horiz-adv-x="579" 
d="M465 0h-350v1102h350v-1102z" />
    <glyph glyph-name="Kcommaaccent" unicode="&#x136;" horiz-adv-x="1456" 
d="M530 0h-387v1470h387v-618l459 618h441l-519 -690l533 -780h-471l-443 664v-664zM920 -231q0 -128 -116 -202.5t-274 -49.5v123q78 -12 132 2.5t71 56.5q-75 -17 -130.5 18t-55.5 95t47.5 96.5t128.5 36.5q86 0 141.5 -48t55.5 -128z" />
    <glyph glyph-name="kcommaaccent" unicode="&#x137;" horiz-adv-x="1271" 
d="M465 0h-350v1470h350v-815l342 447h403l-407 -522l465 -580h-447l-356 502v-502zM817 -231q0 -128 -115.5 -202.5t-273.5 -49.5v123q78 -12 132 2.5t71 56.5q-75 -17 -131 18t-56 95t48 96.5t129 36.5q86 0 141 -48t55 -128z" />
    <glyph glyph-name="Lacute" unicode="&#x139;" horiz-adv-x="1210" 
d="M539 1538h-361l205 332h403zM1149 0h-1006v1470h387v-1120h619v-350z" />
    <glyph glyph-name="lacute" unicode="&#x13a;" horiz-adv-x="583" 
d="M477 1538h-360l205 332h403zM469 0h-354v1470h354v-1470z" />
    <glyph glyph-name="Lcommaaccent" unicode="&#x13b;" horiz-adv-x="1210" 
d="M1149 0h-1006v1470h387v-1120h619v-350zM815 -231q0 -128 -115.5 -202.5t-273.5 -49.5v123q78 -12 132 2.5t71 56.5q-75 -17 -131 18t-56 95t47.5 96.5t128.5 36.5q86 0 141.5 -48t55.5 -128z" />
    <glyph glyph-name="lcommaaccent" unicode="&#x13c;" horiz-adv-x="583" 
d="M469 0h-354v1470h354v-1470zM477 -231q0 -128 -115.5 -202.5t-273.5 -49.5v123q78 -12 132 2.5t71 56.5q-75 -17 -131 18t-56 95t48 96.5t129 36.5q86 0 141 -48t55 -128z" />
    <glyph glyph-name="Lcaron" unicode="&#x13d;" horiz-adv-x="1210" 
d="M1149 0h-1006v1470h387v-1120h619v-350zM879 1147h-232v323h287z" />
    <glyph glyph-name="lcaron" unicode="&#x13e;" horiz-adv-x="583" 
d="M469 0h-354v1470h354v-1470zM748 1147h-232v323h287z" />
    <glyph glyph-name="Lslash" unicode="&#x141;" horiz-adv-x="1210" 
d="M1149 0h-1006v526l-176 -41v308l176 41v636h387v-546l410 94v-305l-410 -97v-266h619v-350z" />
    <glyph glyph-name="lslash" unicode="&#x142;" horiz-adv-x="583" 
d="M469 0h-354v563l-172 -37v291l172 37v616h354v-538l164 35v-293l-164 -35v-639z" />
    <glyph glyph-name="Nacute" unicode="&#x143;" horiz-adv-x="1599" 
d="M985 1538h-360l204 332h404zM1083 0l-585 918v-918h-355v1470h416l543 -849v849h354v-1470h-373z" />
    <glyph glyph-name="nacute" unicode="&#x144;" horiz-adv-x="1239" 
d="M805 1169h-361l205 332h404zM465 580v-580h-350v1102h321v-133q137 153 328 153q167 0 269 -108.5t102 -304.5v-709h-351v592q0 215 -155 215q-71 0 -117.5 -55t-46.5 -172z" />
    <glyph glyph-name="Ncommaaccent" unicode="&#x145;" horiz-adv-x="1599" 
d="M1083 0l-585 918v-918h-355v1470h416l543 -849v849h354v-1470h-373zM985 -231q0 -128 -115.5 -202.5t-273.5 -49.5v123q78 -12 132 2.5t71 56.5q-75 -17 -131 18t-56 95t47.5 96.5t128.5 36.5q86 0 141.5 -48t55.5 -128z" />
    <glyph glyph-name="ncommaaccent" unicode="&#x146;" horiz-adv-x="1239" 
d="M465 580v-580h-350v1102h321v-133q137 153 328 153q167 0 269 -108.5t102 -304.5v-709h-351v592q0 215 -155 215q-71 0 -117.5 -55t-46.5 -172zM805 -231q0 -128 -115.5 -202.5t-273.5 -49.5v123q78 -12 131.5 2.5t70.5 56.5q-75 -17 -130.5 18t-55.5 95t47.5 96.5
t128.5 36.5q86 0 141.5 -48t55.5 -128z" />
    <glyph glyph-name="Ncaron" unicode="&#x147;" horiz-adv-x="1599" 
d="M1022 1538h-444l-289 332h385l125 -152l127 152h383zM1083 0l-585 918v-918h-355v1470h416l543 -849v849h354v-1470h-373z" />
    <glyph glyph-name="ncaron" unicode="&#x148;" horiz-adv-x="1239" 
d="M842 1169h-445l-288 332h385l124 -151l127 151h383zM465 580v-580h-350v1102h321v-133q137 153 328 153q167 0 269 -108.5t102 -304.5v-709h-351v592q0 215 -155 215q-71 0 -117.5 -55t-46.5 -172z" />
    <glyph glyph-name="Omacron" unicode="&#x14c;" horiz-adv-x="1632" 
d="M1174 1563h-715v225h715v-225zM815 -31q-157 0 -297 58t-241.5 158.5t-160.5 244t-59 307.5t59 307t160.5 243t241.5 157t297 57q211 0 384.5 -97t274.5 -272.5t101 -394.5t-101 -395.5t-274.5 -274.5t-384.5 -98zM815 315q112 0 195.5 58t124.5 152.5t41 211.5
q0 180 -96.5 299t-264.5 119t-264 -119t-96 -299q0 -181 96.5 -301.5t263.5 -120.5z" />
    <glyph glyph-name="omacron" unicode="&#x14d;" horiz-adv-x="1241" 
d="M979 1194h-715v225h715v-225zM621 -20q-160 0 -292.5 76.5t-208 207.5t-75.5 287t75.5 287t208 207.5t292.5 76.5q120 0 227 -45t183 -122t120.5 -182.5t44.5 -221.5t-44.5 -221.5t-120.5 -182.5t-183 -122t-227 -45zM621 293q88 0 149 67.5t61 190.5q0 122 -61 189
t-149 67t-149.5 -67t-61.5 -189t61.5 -190t149.5 -68z" />
    <glyph glyph-name="Ohungarumlaut" unicode="&#x150;" horiz-adv-x="1632" 
d="M1188 1538h-338l225 332h361zM725 1538h-338l205 332h358zM815 -31q-157 0 -297 58t-241.5 158.5t-160.5 244t-59 307.5t59 307t160.5 243t241.5 157t297 57q211 0 384.5 -97t274.5 -272.5t101 -394.5t-101 -395.5t-274.5 -274.5t-384.5 -98zM815 315q112 0 195.5 58
t124.5 152.5t41 211.5q0 180 -96.5 299t-264.5 119t-264 -119t-96 -299q0 -181 96.5 -301.5t263.5 -120.5z" />
    <glyph glyph-name="ohungarumlaut" unicode="&#x151;" horiz-adv-x="1241" 
d="M993 1169h-338l226 332h360zM530 1169h-337l204 332h359zM621 -20q-160 0 -292.5 76.5t-208 207.5t-75.5 287t75.5 287t208 207.5t292.5 76.5q120 0 227 -45t183 -122t120.5 -182.5t44.5 -221.5t-44.5 -221.5t-120.5 -182.5t-183 -122t-227 -45zM621 293q88 0 149 67.5
t61 190.5q0 122 -61 189t-149 67t-149.5 -67t-61.5 -189t61.5 -190t149.5 -68z" />
    <glyph glyph-name="OE" unicode="&#x152;" horiz-adv-x="2177" 
d="M57 737q0 171 53.5 315.5t146.5 242t219.5 152t271.5 54.5q103 0 206 -27t166 -73v69h965v-333h-623v-213h566v-336h-566v-254h637v-334h-979v80q-163 -111 -372 -111q-144 0 -271 55t-220 153.5t-146.5 243.5t-53.5 316zM455 737q0 -192 81.5 -307t227.5 -115
q147 0 229 115t82 307t-82 305t-229 113q-146 0 -227.5 -113t-81.5 -305z" />
    <glyph glyph-name="oe" unicode="&#x153;" horiz-adv-x="1949" 
d="M45 551q0 165 73.5 296t200.5 203t283 72q114 0 214 -43.5t173 -122.5q144 166 369 166q184 0 316.5 -85.5t190.5 -235.5t31 -338h-733q10 -209 201 -209q76 0 119 34t51 87h358q-56 -187 -191 -290t-335 -103q-243 0 -379 161q-73 -79 -171.5 -121t-213.5 -42
q-156 0 -283 72t-200.5 203t-73.5 296zM1358 864q-77 0 -127.5 -45.5t-59.5 -136.5h365q-3 86 -48 134t-130 48zM410 551q0 -127 58.5 -192.5t143.5 -65.5t144 65.5t59 192.5t-59 191.5t-144 64.5t-143.5 -64.5t-58.5 -191.5z" />
    <glyph glyph-name="Racute" unicode="&#x154;" horiz-adv-x="1449" 
d="M915 1538h-360l205 332h403zM530 0h-387v1470h602q298 0 461.5 -128t163.5 -363q0 -141 -81 -253t-230 -175l360 -551h-461l-301 489h-127v-489zM530 1151v-342h199q129 0 190.5 41t61.5 129t-61.5 130t-190.5 42h-199z" />
    <glyph glyph-name="racute" unicode="&#x155;" horiz-adv-x="890" 
d="M709 1169h-361l205 332h403zM465 508v-508h-350v1102h321v-195q62 95 180.5 149t253.5 54v-365q-93 12 -168 8t-127.5 -25.5t-81 -76t-28.5 -143.5z" />
    <glyph glyph-name="Rcommaaccent" unicode="&#x156;" horiz-adv-x="1449" 
d="M530 0h-387v1470h602q298 0 461.5 -128t163.5 -363q0 -141 -81 -253t-230 -175l360 -551h-461l-301 489h-127v-489zM530 1151v-342h199q129 0 190.5 41t61.5 129t-61.5 130t-190.5 42h-199zM915 -231q0 -128 -115.5 -202.5t-273.5 -49.5v123q78 -12 132 2.5t71 56.5
q-75 -17 -130.5 18t-55.5 95t47.5 96.5t128.5 36.5q86 0 141 -48t55 -128z" />
    <glyph glyph-name="rcommaaccent" unicode="&#x157;" horiz-adv-x="890" 
d="M465 508v-508h-350v1102h321v-195q62 95 180.5 149t253.5 54v-365q-93 12 -168 8t-127.5 -25.5t-81 -76t-28.5 -143.5zM487 -231q0 -128 -115.5 -202.5t-273.5 -49.5v123q78 -12 132 2.5t71 56.5q-75 -17 -130.5 18t-55.5 95t47.5 96.5t128.5 36.5q86 0 141 -48t55 -128z
" />
    <glyph glyph-name="Rcaron" unicode="&#x158;" horiz-adv-x="1449" 
d="M952 1538h-444l-289 332h385l125 -152l127 152h383zM530 0h-387v1470h602q298 0 461.5 -128t163.5 -363q0 -141 -81 -253t-230 -175l360 -551h-461l-301 489h-127v-489zM530 1151v-342h199q129 0 190.5 41t61.5 129t-61.5 130t-190.5 42h-199z" />
    <glyph glyph-name="rcaron" unicode="&#x159;" horiz-adv-x="890" 
d="M745 1169h-444l-289 332h385l125 -151l127 151h383zM465 508v-508h-350v1102h321v-195q62 95 180.5 149t253.5 54v-365q-93 12 -168 8t-127.5 -25.5t-81 -76t-28.5 -143.5z" />
    <glyph glyph-name="Sacute" unicode="&#x15a;" horiz-adv-x="1376" 
d="M864 1538h-360l205 332h403zM1321 481q0 -228 -169.5 -364.5t-455.5 -136.5t-460.5 141.5t-194.5 386.5h391q3 -105 70 -166t186 -61q101 0 161 37.5t60 105.5q0 46 -41.5 80.5t-107.5 46.5l-268 51q-184 35 -288 141t-104 279q0 205 162 336t410 131q264 0 435.5 -141
t188.5 -377h-391q-7 100 -69.5 159.5t-159.5 59.5q-84 0 -134 -40t-50 -101q0 -47 40 -77.5t103 -41.5l285 -56q401 -78 401 -393z" />
    <glyph glyph-name="sacute" unicode="&#x15b;" horiz-adv-x="1146" 
d="M760 1171h-361l205 332h404zM1092 375q0 -185 -133 -290t-379 -105q-245 0 -381 107.5t-154 301.5h336q0 -68 57 -109.5t148 -41.5q151 0 151 75q0 36 -26.5 54.5t-85.5 29.5l-217 39q-148 27 -232 110t-84 214q0 162 127.5 262t341.5 100q218 0 356.5 -107.5
t153.5 -291.5h-336q-6 65 -52.5 103t-119.5 38q-135 0 -135 -71q0 -34 24 -49t80 -25l234 -43q160 -29 243 -106t83 -195z" />
    <glyph glyph-name="Scedilla" unicode="&#x15e;" horiz-adv-x="1376" 
d="M948 -225q0 -80 -75 -130.5t-195 -50.5q-123 0 -196 53.5t-85 153.5h211q8 -49 56 -49q23 0 37 12.5t14 32.5q0 37 -35 50t-111 6l33 131q-247 23 -394.5 162t-166.5 362h391q3 -105 70 -166t186 -61q101 0 161 37.5t60 105.5q0 46 -41.5 80.5t-107.5 46.5l-268 51
q-184 35 -288 141t-104 279q0 205 162 336t410 131q264 0 435.5 -141t188.5 -377h-391q-7 100 -69.5 159.5t-159.5 59.5q-84 0 -134 -40t-50 -101q0 -47 40 -77.5t103 -41.5l285 -56q401 -78 401 -393q0 -214 -149 -348t-406 -151l-12 -43q89 -12 141.5 -56.5t52.5 -107.5z
" />
    <glyph glyph-name="scedilla" unicode="&#x15f;" horiz-adv-x="1146" 
d="M838 -225q0 -80 -75.5 -130.5t-195.5 -50.5q-123 0 -195.5 53.5t-84.5 153.5h211q8 -49 55 -49q23 0 37 12.5t14 32.5q0 37 -34.5 50t-110.5 6l30 131q-203 20 -316 125.5t-128 279.5h336q0 -68 57 -109.5t148 -41.5q151 0 151 75q0 36 -26.5 54.5t-85.5 29.5l-217 39
q-148 27 -232 110t-84 214q0 162 127.5 262t341.5 100q218 0 356.5 -107.5t153.5 -291.5h-336q-6 65 -52.5 103t-119.5 38q-135 0 -135 -71q0 -34 24 -49t80 -25l234 -43q160 -29 243 -106t83 -195q0 -170 -113 -273t-324 -120l-12 -43q89 -12 142 -56.5t53 -107.5z" />
    <glyph glyph-name="Scaron" unicode="&#x160;" horiz-adv-x="1376" 
d="M901 1538h-444l-289 332h385l125 -152l127 152h383zM1321 481q0 -228 -169.5 -364.5t-455.5 -136.5t-460.5 141.5t-194.5 386.5h391q3 -105 70 -166t186 -61q101 0 161 37.5t60 105.5q0 46 -41.5 80.5t-107.5 46.5l-268 51q-184 35 -288 141t-104 279q0 205 162 336
t410 131q264 0 435.5 -141t188.5 -377h-391q-7 100 -69.5 159.5t-159.5 59.5q-84 0 -134 -40t-50 -101q0 -47 40 -77.5t103 -41.5l285 -56q401 -78 401 -393z" />
    <glyph glyph-name="scaron" unicode="&#x161;" horiz-adv-x="1146" 
d="M797 1171h-445l-289 332h386l124 -151l127 151h383zM1092 375q0 -185 -133 -290t-379 -105q-245 0 -381 107.5t-154 301.5h336q0 -68 57 -109.5t148 -41.5q151 0 151 75q0 36 -26.5 54.5t-85.5 29.5l-217 39q-148 27 -232 110t-84 214q0 162 127.5 262t341.5 100
q218 0 356.5 -107.5t153.5 -291.5h-336q-6 65 -52.5 103t-119.5 38q-135 0 -135 -71q0 -34 24 -49t80 -25l234 -43q160 -29 243 -106t83 -195z" />
    <glyph glyph-name="Tcedilla" unicode="&#x162;" horiz-adv-x="1349" 
d="M868 0h-116l-17 -61q89 -12 142 -56.5t53 -107.5q0 -80 -75.5 -130.5t-195.5 -50.5q-123 0 -195.5 53.5t-84.5 153.5h211q8 -49 55 -49q23 0 37 12.5t14 32.5q0 37 -34.5 50t-110.5 6l35 147h-105v1120h-450v350h1288v-350h-451v-1120z" />
    <glyph glyph-name="tcedilla" unicode="&#x163;" horiz-adv-x="903" 
d="M801 -225q0 -80 -75.5 -130.5t-195.5 -50.5q-123 0 -195.5 53.5t-84.5 153.5h211q8 -49 55 -49q23 0 37 12.5t14 32.5q0 37 -34.5 50t-110.5 6l35 147q-119 37 -182.5 134.5t-63.5 244.5v418h-205v305h205v323h350v-323h301v-305h-301v-336q0 -80 34.5 -118t106.5 -38
q91 0 152 39v-305q-101 -56 -238 -59l-10 -41q89 -12 142 -56.5t53 -107.5z" />
    <glyph glyph-name="Tcaron" unicode="&#x164;" horiz-adv-x="1349" 
d="M897 1538h-444l-289 332h385l125 -152l127 152h383zM868 0h-387v1120h-450v350h1288v-350h-451v-1120z" />
    <glyph glyph-name="tcaron" unicode="&#x165;" horiz-adv-x="903" 
d="M840 1147h-232v323h287zM854 344v-305q-107 -59 -250 -59q-186 0 -289.5 105t-103.5 294v418h-205v305h205v323h350v-323h301v-305h-301v-336q0 -80 34.5 -118t106.5 -38q91 0 152 39z" />
    <glyph glyph-name="Umacron" unicode="&#x16a;" horiz-adv-x="1554" 
d="M1137 1563h-715v225h715v-225zM1415 1470v-884q0 -134 -42 -246.5t-121 -195.5t-200.5 -129t-273.5 -46q-204 0 -350 80.5t-217.5 218.5t-71.5 318v884h387v-890q0 -126 56.5 -195.5t195.5 -69.5q137 0 193.5 69.5t56.5 195.5v890h387z" />
    <glyph glyph-name="umacron" unicode="&#x16b;" horiz-adv-x="1232" 
d="M973 1194h-715v225h715v-225zM768 473v629h350v-1102h-321v119q-47 -63 -130 -101t-178 -38q-172 0 -278.5 109t-106.5 319v694h351v-629q0 -89 41 -134.5t116 -45.5q60 0 108 46.5t48 133.5z" />
    <glyph glyph-name="Uring" unicode="&#x16e;" horiz-adv-x="1554" 
d="M778 1528q-131 0 -214 78t-83 190q0 115 83 193.5t214 78.5q130 0 214.5 -79t84.5 -193q0 -111 -84.5 -189.5t-214.5 -78.5zM778 1700q43 0 71 24t28 72q0 50 -28 76t-71 26q-40 0 -70 -26.5t-30 -75.5q0 -48 29.5 -72t70.5 -24zM1415 1470v-884q0 -134 -42 -246.5
t-121 -195.5t-200.5 -129t-273.5 -46q-204 0 -350 80.5t-217.5 218.5t-71.5 318v884h387v-890q0 -126 56.5 -195.5t195.5 -69.5q137 0 193.5 69.5t56.5 195.5v890h387z" />
    <glyph glyph-name="uring" unicode="&#x16f;" horiz-adv-x="1232" 
d="M614 1159q-131 0 -214 78t-83 190q0 115 83 194t214 79q130 0 214.5 -79.5t84.5 -193.5q0 -111 -84.5 -189.5t-214.5 -78.5zM614 1331q43 0 71 24t28 72q0 50 -28.5 76.5t-70.5 26.5q-40 0 -70 -27t-30 -76q0 -48 29.5 -72t70.5 -24zM768 473v629h350v-1102h-321v119
q-47 -63 -130 -101t-178 -38q-172 0 -278.5 109t-106.5 319v694h351v-629q0 -89 41 -134.5t116 -45.5q60 0 108 46.5t48 133.5z" />
    <glyph glyph-name="Uhungarumlaut" unicode="&#x170;" horiz-adv-x="1554" 
d="M1151 1538h-338l225 332h361zM688 1538h-338l205 332h358zM1415 1470v-884q0 -134 -42 -246.5t-121 -195.5t-200.5 -129t-273.5 -46q-204 0 -350 80.5t-217.5 218.5t-71.5 318v884h387v-890q0 -126 56.5 -195.5t195.5 -69.5q137 0 193.5 69.5t56.5 195.5v890h387z" />
    <glyph glyph-name="uhungarumlaut" unicode="&#x171;" horiz-adv-x="1232" 
d="M987 1169h-338l225 332h361zM524 1169h-338l205 332h359zM768 473v629h350v-1102h-321v119q-47 -63 -130 -101t-178 -38q-172 0 -278.5 109t-106.5 319v694h351v-629q0 -89 41 -134.5t116 -45.5q60 0 108 46.5t48 133.5z" />
    <glyph glyph-name="Uogonek" unicode="&#x172;" horiz-adv-x="1554" 
d="M1214 -154v-227q-77 -22 -145 -22q-115 0 -189.5 56.5t-74.5 164.5q0 81 53 155q-50 -4 -80 -4q-204 0 -350 80.5t-217.5 218.5t-71.5 318v884h387v-890q0 -126 56.5 -195.5t195.5 -69.5q137 0 193.5 69.5t56.5 195.5v890h387v-884q0 -164 -61.5 -295.5t-179.5 -212.5
q-101 -81 -101 -156q0 -42 21.5 -65t58.5 -23q27 0 61 12z" />
    <glyph glyph-name="uogonek" unicode="&#x173;" horiz-adv-x="1232" 
d="M768 473v629h350v-1102h-160q-26 -41 -26 -78q0 -42 21.5 -65t58.5 -23q26 0 61 12v-227q-77 -22 -145 -22q-115 0 -189.5 56.5t-74.5 164.5q0 65 32.5 121.5t100.5 121.5v58q-47 -63 -130 -101t-178 -38q-172 0 -278.5 109t-106.5 319v694h351v-629q0 -89 41 -134.5
t116 -45.5q60 0 108 46.5t48 133.5z" />
    <glyph glyph-name="Wcircumflex" unicode="&#x174;" horiz-adv-x="2031" 
d="M891 1538h-385l289 332h444l287 -332h-383l-127 152zM1255 0l-239 915l-240 -915h-391l-373 1470h379l199 -876l233 876h391l226 -880l200 880h379l-374 -1470h-390z" />
    <glyph glyph-name="wcircumflex" unicode="&#x175;" horiz-adv-x="1679" 
d="M715 1169h-385l288 332h445l287 -332h-383l-127 152zM1010 0l-170 625l-170 -625h-351l-309 1102h342l154 -604l162 604h350l153 -604l154 604h344l-311 -1102h-348z" />
    <glyph glyph-name="Ycircumflex" unicode="&#x176;" horiz-adv-x="1435" 
d="M604 1538h-385l289 332h444l287 -332h-383l-127 152zM909 553v-553h-387v553l-514 917h418l303 -563l309 563h389z" />
    <glyph glyph-name="ycircumflex" unicode="&#x177;" horiz-adv-x="1163" 
d="M459 1169h-385l288 332h445l287 -332h-383l-127 152zM1174 1102l-525 -1497h-383l154 407l-430 1090h381l237 -682l213 682h353z" />
    <glyph glyph-name="Ydieresis" unicode="&#x178;" horiz-adv-x="1435" 
d="M1180 1718q0 -84 -57 -137t-144 -53q-91 0 -148 52.5t-57 137.5q0 87 57 141t148 54q87 0 144 -54t57 -141zM684 1718q0 -85 -56.5 -137.5t-148.5 -52.5q-87 0 -143.5 53t-56.5 137q0 87 56.5 141t143.5 54q92 0 148.5 -53.5t56.5 -141.5zM909 553v-553h-387v553
l-514 917h418l303 -563l309 563h389z" />
    <glyph glyph-name="Zacute" unicode="&#x179;" horiz-adv-x="1361" 
d="M872 1538h-360l205 332h403zM1284 0h-1198v309l702 828h-710v333h1186v-315l-707 -821h727v-334z" />
    <glyph glyph-name="zacute" unicode="&#x17a;" horiz-adv-x="1132" 
d="M756 1169h-361l205 332h404zM1055 0h-965v289l514 506h-526v307h964v-295l-520 -500h533v-307z" />
    <glyph glyph-name="Zdotaccent" unicode="&#x17b;" horiz-adv-x="1361" 
d="M909 1726q0 -87 -63 -142.5t-162 -55.5t-162 55.5t-63 142.5q0 88 63 144.5t162 56.5t162 -56.5t63 -144.5zM1284 0h-1198v309l702 828h-710v333h1186v-315l-707 -821h727v-334z" />
    <glyph glyph-name="zdotaccent" unicode="&#x17c;" horiz-adv-x="1132" 
d="M793 1358q0 -87 -63.5 -143t-162.5 -56t-162 56t-63 143q0 88 63 144.5t162 56.5t162.5 -56.5t63.5 -144.5zM1055 0h-965v289l514 506h-526v307h964v-295l-520 -500h533v-307z" />
    <glyph glyph-name="Zcaron" unicode="&#x17d;" horiz-adv-x="1361" 
d="M909 1538h-444l-289 332h385l125 -152l127 152h383zM1284 0h-1198v309l702 828h-710v333h1186v-315l-707 -821h727v-334z" />
    <glyph glyph-name="zcaron" unicode="&#x17e;" horiz-adv-x="1132" 
d="M793 1169h-445l-289 332h385l125 -151l127 151h383zM1055 0h-965v289l514 506h-526v307h964v-295l-520 -500h533v-307z" />
    <glyph glyph-name="florin" unicode="&#x192;" horiz-adv-x="1118" 
d="M705 551l-58 -252q-48 -211 -160 -315.5t-331 -104.5q-54 0 -115 6v324q50 -10 59 -10q173 0 207 153l43 199h-268v307h336l39 178q20 90 56.5 158t78.5 107.5t95 63.5t98.5 32t95.5 8q107 0 184 -31v-274q-45 26 -100 26q-28 0 -49.5 -5t-45 -19t-41 -44.5t-28.5 -76.5
l-29 -123h252v-307h-319z" />
    <glyph glyph-name="Scommaaccent" unicode="&#x218;" horiz-adv-x="1376" 
d="M1321 481q0 -228 -169.5 -364.5t-455.5 -136.5t-460.5 141.5t-194.5 386.5h391q3 -105 70 -166t186 -61q101 0 161 37.5t60 105.5q0 46 -41.5 80.5t-107.5 46.5l-268 51q-184 35 -288 141t-104 279q0 205 162 336t410 131q264 0 435.5 -141t188.5 -377h-391
q-7 100 -69.5 159.5t-159.5 59.5q-84 0 -134 -40t-50 -101q0 -47 40 -77.5t103 -41.5l285 -56q401 -78 401 -393zM879 -231q0 -128 -116 -202.5t-274 -49.5v123q78 -12 132 2.5t71 56.5q-75 -17 -130.5 18t-55.5 95t47.5 96.5t128.5 36.5q86 0 141.5 -48t55.5 -128z" />
    <glyph glyph-name="scommaaccent" unicode="&#x219;" horiz-adv-x="1146" 
d="M1092 375q0 -185 -133 -290t-379 -105q-245 0 -381 107.5t-154 301.5h336q0 -68 57 -109.5t148 -41.5q151 0 151 75q0 36 -26.5 54.5t-85.5 29.5l-217 39q-148 27 -232 110t-84 214q0 162 127.5 262t341.5 100q218 0 356.5 -107.5t153.5 -291.5h-336q-6 65 -52.5 103
t-119.5 38q-135 0 -135 -71q0 -34 24 -49t80 -25l234 -43q160 -29 243 -106t83 -195zM768 -231q0 -128 -115.5 -202.5t-273.5 -49.5v123q78 -12 132 2.5t71 56.5q-75 -17 -131 18t-56 95t47.5 96.5t128.5 36.5q86 0 141.5 -48t55.5 -128z" />
    <glyph glyph-name="Tcommaaccent" unicode="&#x21a;" horiz-adv-x="1349" 
d="M868 0h-387v1120h-450v350h1288v-350h-451v-1120zM860 -231q0 -128 -115.5 -202.5t-273.5 -49.5v123q78 -12 132 2.5t71 56.5q-75 -17 -131 18t-56 95t48 96.5t129 36.5q86 0 141 -48t55 -128z" />
    <glyph glyph-name="tcommaaccent" unicode="&#x21b;" horiz-adv-x="903" 
d="M854 344v-305q-107 -59 -250 -59q-186 0 -289.5 105t-103.5 294v418h-205v305h205v323h350v-323h301v-305h-301v-336q0 -80 34.5 -118t106.5 -38q91 0 152 39zM731 -231q0 -128 -115.5 -202.5t-273.5 -49.5v123q78 -12 132 2.5t71 56.5q-75 -17 -131 18t-56 95t48 96.5
t129 36.5q86 0 141 -48t55 -128z" />
    <glyph glyph-name="dotlessj" unicode="&#x237;" horiz-adv-x="577" 
d="M463 1102v-1047q0 -241 -112.5 -356t-301.5 -115q-96 0 -164 23v330q43 -27 119 -27q109 0 109 156v1036h350z" />
    <glyph glyph-name="circumflex" unicode="&#x2c6;" 
d="M387 1169h-385l289 332h444l287 -332h-383l-127 152z" />
    <glyph glyph-name="caron" unicode="&#x2c7;" 
d="M735 1169h-444l-289 332h385l125 -151l127 151h383z" />
    <glyph glyph-name="macronmod" unicode="&#x2c9;" 
d="M870 1163h-714v226h714v-226z" />
    <glyph glyph-name="breve" unicode="&#x2d8;" 
d="M651 1501h244q0 -159 -102.5 -250.5t-280.5 -91.5q-180 0 -282.5 91.5t-102.5 250.5h246q0 -59 37.5 -91t101.5 -32q65 0 102 32t37 91z" />
    <glyph glyph-name="dotaccent" unicode="&#x2d9;" 
d="M737 1358q0 -87 -63 -143t-162 -56t-162 56t-63 143q0 88 63 144.5t162 56.5t162 -56.5t63 -144.5z" />
    <glyph glyph-name="ring" unicode="&#x2da;" 
d="M510 1159q-131 0 -214 78t-83 190q0 115 83 194t214 79q130 0 214.5 -79.5t84.5 -193.5q0 -111 -84.5 -189.5t-214.5 -78.5zM510 1331q43 0 70.5 24t27.5 72q0 50 -28 76.5t-70 26.5q-40 0 -70 -27t-30 -76q0 -48 29.5 -72t70.5 -24z" />
    <glyph glyph-name="ogonek" unicode="&#x2db;" 
d="M717 -154v-227q-77 -22 -146 -22q-115 0 -189.5 56.5t-74.5 164.5q0 40 14 78t35 70t63 74.5t78.5 74.5t102.5 86l96 -107q-121 -89 -121 -172q0 -42 21.5 -65t58.5 -23q27 0 62 12z" />
    <glyph glyph-name="tilde" unicode="&#x2dc;" 
d="M324 1163h-211q-29 150 37.5 247t189.5 97q59 0 124 -19.5t113.5 -38.5t69.5 -19q28 0 42 20t11 74h211q28 -147 -39.5 -245.5t-191.5 -98.5q-58 0 -122 19t-112.5 38.5t-70.5 19.5q-27 0 -40.5 -20t-10.5 -74z" />
    <glyph glyph-name="hungarumlaut" unicode="&#x2dd;" 
d="M788 1169h-337l225 332h360zM326 1169h-338l205 332h358z" />
    <glyph glyph-name="gravecomb" unicode="&#x300;" 
d="M815 1169h-360l-248 332h405z" />
    <glyph glyph-name="acutecomb" unicode="&#x301;" 
d="M567 1169h-360l205 332h403z" />
    <glyph glyph-name="circumflexcomb" unicode="&#x302;" 
d="M387 1169h-385l289 332h444l287 -332h-383l-127 152z" />
    <glyph glyph-name="tildecomb" unicode="&#x303;" 
d="M324 1163h-211q-29 150 37.5 247t189.5 97q59 0 124 -19.5t113.5 -38.5t69.5 -19q28 0 42 20t11 74h211q28 -147 -39.5 -245.5t-191.5 -98.5q-58 0 -122 19t-112.5 38.5t-70.5 19.5q-27 0 -40.5 -20t-10.5 -74z" />
    <glyph glyph-name="macroncomb" unicode="&#x304;" 
d="M870 1194h-714v225h714v-225z" />
    <glyph glyph-name="brevecomb" unicode="&#x306;" 
d="M651 1501h244q0 -159 -102.5 -250.5t-280.5 -91.5q-180 0 -282.5 91.5t-102.5 250.5h246q0 -59 37.5 -91t101.5 -32q65 0 102 32t37 91z" />
    <glyph glyph-name="dotaccentcomb" unicode="&#x307;" 
d="M737 1358q0 -87 -63 -143t-162 -56t-162 56t-63 143q0 88 63 144.5t162 56.5t162 -56.5t63 -144.5z" />
    <glyph glyph-name="dieresiscomb" unicode="&#x308;" 
d="M963 1350q0 -84 -57 -137.5t-144 -53.5q-91 0 -148 53t-57 138q0 87 57 140.5t148 53.5q87 0 144 -53.5t57 -140.5zM467 1350q0 -85 -56.5 -138t-148.5 -53q-87 0 -144 53.5t-57 137.5q0 87 57 140.5t144 53.5q92 0 148.5 -53t56.5 -141z" />
    <glyph glyph-name="ringcomb" unicode="&#x30a;" 
d="M510 1159q-131 0 -214 78t-83 190q0 115 83 194t214 79q130 0 214.5 -79.5t84.5 -193.5q0 -111 -84.5 -189.5t-214.5 -78.5zM510 1331q43 0 70.5 24t27.5 72q0 50 -28 76.5t-70 26.5q-40 0 -70 -27t-30 -76q0 -48 29.5 -72t70.5 -24z" />
    <glyph glyph-name="hungarumlautcomb" unicode="&#x30b;" 
d="M788 1169h-337l225 332h360zM326 1169h-338l205 332h358z" />
    <glyph glyph-name="caroncomb" unicode="&#x30c;" 
d="M735 1169h-444l-289 332h385l125 -151l127 151h383z" />
    <glyph glyph-name="commaturnedabovecomb" unicode="&#x312;" 
d="M317 1333q0 128 116 202.5t274 49.5v-123q-78 12 -132 -2.5t-71 -56.5q14 4 45 4q60 0 100.5 -33.5t40.5 -83.5q0 -60 -47.5 -96.5t-128.5 -36.5q-86 0 -141.5 48t-55.5 128z" />
    <glyph glyph-name="commaaccentcomb" unicode="&#x326;" 
d="M707 -231q0 -128 -116 -202.5t-274 -49.5v123q78 -12 132 2.5t71 56.5q-75 -17 -130.5 18t-55.5 95t47.5 96.5t128.5 36.5q86 0 141.5 -48t55.5 -128z" />
    <glyph glyph-name="cedillacomb" unicode="&#x327;" 
d="M788 -225q0 -80 -75 -130.5t-195 -50.5q-123 0 -195.5 53.5t-84.5 153.5h211q8 -49 55 -49q23 0 37 12.5t14 32.5q0 37 -34.5 50t-110.5 6l45 186h166l-27 -100q89 -12 141.5 -56.5t52.5 -107.5z" />
    <glyph glyph-name="ogonekcomb" unicode="&#x328;" 
d="M717 -154v-227q-77 -22 -146 -22q-115 0 -189.5 56.5t-74.5 164.5q0 40 14 78t35 70t63 74.5t78.5 74.5t102.5 86l96 -107q-121 -89 -121 -172q0 -42 21.5 -65t58.5 -23q27 0 62 12z" />
    <glyph glyph-name="strokeshortcomb" unicode="&#x335;" 
d="M913 1163h-800v226h800v-226z" />
    <glyph glyph-name="slashshortcomb" unicode="&#x337;" 
d="M858 659l-690 -147v291l690 149v-293z" />
    <glyph glyph-name="slashlongcomb" unicode="&#x338;" 
d="M248 0h-260l788 1102h260z" />
    <glyph glyph-name="Delta" unicode="&#x394;" horiz-adv-x="1513" 
d="M1501 0h-1489l547 1470h399zM748 1075l-263 -772h521z" />
    <glyph glyph-name="Omega" unicode="&#x3a9;" horiz-adv-x="1523" 
d="M676 0h-621v330l332 -27v51q-163 78 -252.5 212t-89.5 323q0 124 51.5 234t143.5 191.5t227.5 129t294.5 47.5t294.5 -47.5t227.5 -129t143.5 -191.5t51.5 -234q0 -370 -344 -535v-51l333 27v-330h-620v516q123 34 189.5 121t66.5 199q0 144 -91 237.5t-251 93.5
t-251 -93.5t-91 -237.5q0 -112 66.5 -199t189.5 -121v-516z" />
    <glyph glyph-name="mu" unicode="&#x3bc;" horiz-adv-x="1267" 
d="M616 -20q-118 0 -184 57l29 -432h-346v1497h350v-602q0 -207 178 -207q77 0 118.5 55.5t41.5 136.5v617h350v-1102h-344v88q-30 -50 -82.5 -79t-110.5 -29z" />
    <glyph glyph-name="pi" unicode="&#x3c0;" horiz-adv-x="1318" 
d="M1079 -20q-179 0 -261.5 87t-82.5 302v428h-188l-37 -797h-350l67 797h-221v305h1272v-305h-193v-348q0 -72 24.5 -103t82.5 -31q52 0 78 13v-318q-88 -30 -191 -30z" />
    <glyph glyph-name="Wgrave" unicode="&#x1e80;" horiz-adv-x="2031" 
d="M1190 1538h-361l-247 332h405zM1255 0l-239 915l-240 -915h-391l-373 1470h379l199 -876l233 876h391l226 -880l200 880h379l-374 -1470h-390z" />
    <glyph glyph-name="wgrave" unicode="&#x1e81;" horiz-adv-x="1679" 
d="M1014 1169h-361l-247 332h405zM1010 0l-170 625l-170 -625h-351l-309 1102h342l154 -604l162 604h350l153 -604l154 604h344l-311 -1102h-348z" />
    <glyph glyph-name="Wacute" unicode="&#x1e82;" horiz-adv-x="2031" 
d="M1202 1538h-360l205 332h403zM1255 0l-239 915l-240 -915h-391l-373 1470h379l199 -876l233 876h391l226 -880l200 880h379l-374 -1470h-390z" />
    <glyph glyph-name="wacute" unicode="&#x1e83;" horiz-adv-x="1679" 
d="M1026 1169h-360l204 332h404zM1010 0l-170 625l-170 -625h-351l-309 1102h342l154 -604l162 604h350l153 -604l154 604h344l-311 -1102h-348z" />
    <glyph glyph-name="Wdieresis" unicode="&#x1e84;" horiz-adv-x="2031" 
d="M1466 1718q0 -84 -56.5 -137t-143.5 -53q-91 0 -148 52.5t-57 137.5q0 87 57 141t148 54q87 0 143.5 -54t56.5 -141zM971 1718q0 -85 -56.5 -137.5t-148.5 -52.5q-87 0 -144 53t-57 137q0 87 57 141t144 54q92 0 148.5 -53.5t56.5 -141.5zM1255 0l-239 915l-240 -915
h-391l-373 1470h379l199 -876l233 876h391l226 -880l200 880h379l-374 -1470h-390z" />
    <glyph glyph-name="wdieresis" unicode="&#x1e85;" horiz-adv-x="1679" 
d="M1290 1350q0 -84 -56.5 -137.5t-143.5 -53.5q-91 0 -148 53t-57 138q0 87 57 140.5t148 53.5q87 0 143.5 -53.5t56.5 -140.5zM795 1350q0 -85 -56.5 -138t-148.5 -53q-87 0 -144 53.5t-57 137.5q0 87 57 140.5t144 53.5q92 0 148.5 -53t56.5 -141zM1010 0l-170 625
l-170 -625h-351l-309 1102h342l154 -604l162 604h350l153 -604l154 604h344l-311 -1102h-348z" />
    <glyph glyph-name="Ygrave" unicode="&#x1ef2;" horiz-adv-x="1435" 
d="M903 1538h-360l-248 332h405zM909 553v-553h-387v553l-514 917h418l303 -563l309 563h389z" />
    <glyph glyph-name="ygrave" unicode="&#x1ef3;" horiz-adv-x="1163" 
d="M758 1169h-361l-247 332h405zM1174 1102l-525 -1497h-383l154 407l-430 1090h381l237 -682l213 682h353z" />
    <glyph glyph-name="endash" unicode="&#x2013;" 
d="M983 408h-942v307h942v-307z" />
    <glyph glyph-name="emdash" unicode="&#x2014;" horiz-adv-x="1536" 
d="M1495 408h-1454v307h1454v-307z" />
    <glyph glyph-name="quoteleft" unicode="&#x2018;" horiz-adv-x="561" 
d="M37 1098q0 123 70 218t182 137.5t235 21.5v-170q-98 17 -167 -11.5t-93 -101.5q24 6 47 6q76 0 127 -50.5t51 -123.5q0 -84 -58.5 -136t-156.5 -52q-107 0 -172 69.5t-65 192.5z" />
    <glyph glyph-name="quoteright" unicode="&#x2019;" horiz-adv-x="561" 
d="M524 1223q0 -123 -70 -218t-182 -137.5t-235 -21.5v170q98 -18 167 11t93 101q-24 -6 -47 -6q-76 0 -127 50.5t-51 123.5q0 84 59 136.5t156 52.5q107 0 172 -69.5t65 -192.5z" />
    <glyph glyph-name="quotesinglbase" unicode="&#x201a;" horiz-adv-x="561" 
d="M524 174q0 -123 -70 -218t-182 -137.5t-235 -21.5v170q98 -17 167 11.5t93 101.5q-21 -6 -45 -6q-76 0 -128 51t-52 123q0 84 58.5 136t156.5 52q107 0 172 -69.5t65 -192.5z" />
    <glyph glyph-name="quotedblleft" unicode="&#x201c;" horiz-adv-x="1110" 
d="M37 1098q0 123 70 218t182 137.5t235 21.5v-170q-98 17 -167 -11.5t-93 -101.5q24 6 47 6q76 0 127 -50.5t51 -123.5q0 -84 -58.5 -136t-156.5 -52q-107 0 -172 69.5t-65 192.5zM586 1098q0 123 70 218t182 137.5t235 21.5v-170q-98 17 -167 -11.5t-93 -101.5q24 6 47 6
q76 0 127 -50.5t51 -123.5q0 -84 -58.5 -136t-156.5 -52q-107 0 -172 69.5t-65 192.5z" />
    <glyph glyph-name="quotedblright" unicode="&#x201d;" horiz-adv-x="1110" 
d="M524 1223q0 -123 -70 -218t-182 -137.5t-235 -21.5v170q98 -18 167 11t93 101q-24 -6 -47 -6q-76 0 -127 50.5t-51 123.5q0 84 59 136.5t156 52.5q107 0 172 -69.5t65 -192.5zM1073 1223q0 -123 -70 -218t-182 -137.5t-235 -21.5v170q98 -18 167 11t93 101q-24 -6 -47 -6
q-76 0 -127 50.5t-51 123.5q0 84 59 136.5t156 52.5q107 0 172 -69.5t65 -192.5z" />
    <glyph glyph-name="quotedblbase" unicode="&#x201e;" horiz-adv-x="1110" 
d="M524 174q0 -123 -70 -218t-182 -137.5t-235 -21.5v170q98 -17 167 11.5t93 101.5q-21 -6 -45 -6q-76 0 -128 51t-52 123q0 84 58.5 136t156.5 52q107 0 172 -69.5t65 -192.5zM1073 174q0 -123 -70 -218t-182 -137.5t-235 -21.5v170q98 -17 167 11.5t93 101.5
q-21 -6 -45 -6q-76 0 -128 51t-52 123q0 84 58.5 136t156.5 52q107 0 172 -69.5t65 -192.5z" />
    <glyph glyph-name="dagger" unicode="&#x2020;" horiz-adv-x="1351" 
d="M842 -395h-332v1212h-346v307h346v346h332v-346h346v-307h-346v-1212z" />
    <glyph glyph-name="daggerdbl" unicode="&#x2021;" horiz-adv-x="1351" 
d="M842 -395h-332v346h-346v307h346v559h-346v307h346v346h332v-346h346v-307h-346v-559h346v-307h-346v-346z" />
    <glyph glyph-name="bullet" unicode="&#x2022;" 
d="M897 539q0 -166 -110 -274.5t-277 -108.5q-166 0 -274.5 108.5t-108.5 274.5q0 170 108.5 280.5t274.5 110.5q168 0 277.5 -110.5t109.5 -280.5z" />
    <glyph glyph-name="ellipsis" unicode="&#x2026;" horiz-adv-x="1853" 
d="M494 213q0 -98 -62 -160.5t-160 -62.5t-160.5 62.5t-62.5 160.5q0 100 62.5 162.5t160.5 62.5t160 -62.5t62 -162.5zM1149 213q0 -98 -61.5 -160.5t-159.5 -62.5t-160.5 62.5t-62.5 160.5q0 100 62.5 162.5t160.5 62.5t159.5 -62.5t61.5 -162.5zM1804 213
q0 -98 -61.5 -160.5t-159.5 -62.5t-160.5 62.5t-62.5 160.5q0 100 62.5 162.5t160.5 62.5t159.5 -62.5t61.5 -162.5z" />
    <glyph glyph-name="perthousand" unicode="&#x2030;" horiz-adv-x="3301" 
d="M502 537q-195 0 -330 126t-135 304q0 179 134.5 304.5t330.5 125.5t330.5 -125.5t134.5 -304.5q0 -178 -135 -304t-330 -126zM883 0h-277l791 1384h276zM502 784q77 0 128.5 47t51.5 136t-51.5 135.5t-128.5 46.5t-130 -47t-53 -135q0 -89 53.5 -136t129.5 -47zM1821 -18
q-195 0 -330 126t-135 304q0 179 134.5 304.5t330.5 125.5t330.5 -125.5t134.5 -304.5q0 -178 -135 -304t-330 -126zM2800 -18q-195 0 -330 126t-135 304q0 179 134.5 304.5t330.5 125.5t330.5 -125.5t134.5 -304.5q0 -178 -135 -304t-330 -126zM1821 229q77 0 128.5 47
t51.5 136t-51.5 135.5t-128.5 46.5t-130 -47t-53 -135q0 -89 53.5 -136t129.5 -47zM2800 229q77 0 128.5 47t51.5 136t-51.5 135.5t-128.5 46.5t-130 -47t-53 -135q0 -89 53.5 -136t129.5 -47z" />
    <glyph glyph-name="guilsinglleft" unicode="&#x2039;" horiz-adv-x="733" 
d="M713 127h-389l-304 420l304 420h389l-283 -420z" />
    <glyph glyph-name="guilsinglright" unicode="&#x203a;" horiz-adv-x="733" 
d="M20 967h390l303 -420l-303 -420h-390l283 420z" />
    <glyph glyph-name="fraction" unicode="&#x2044;" horiz-adv-x="477" 
d="M-8 0h-277l791 1384h276z" />
    <glyph glyph-name="zero.superior" unicode="&#x2070;" horiz-adv-x="856" 
d="M799 1468q0 -204 -96.5 -315t-274.5 -111q-179 0 -275 110.5t-96 315.5q0 207 97 318.5t274 111.5t274 -111.5t97 -318.5zM291 1468q0 -108 35 -164.5t102 -56.5q66 0 101.5 57t35.5 164q0 109 -35.5 167.5t-101.5 58.5t-101.5 -59t-35.5 -167z" />
    <glyph glyph-name="four.superior" unicode="&#x2074;" horiz-adv-x="845" 
d="M821 1196h-133v-141h-227v141h-436v172l479 518h184v-491h133v-199zM287 1395h174v186z" />
    <glyph glyph-name="five.superior" unicode="&#x2075;" horiz-adv-x="813" 
d="M780 1333q0 -52 -22.5 -102t-65 -93t-114.5 -69.5t-162 -26.5q-156 0 -261.5 79t-109.5 202h229q17 -76 142 -76q67 0 98 27.5t31 60.5q0 34 -33.5 63t-103.5 29q-109 0 -142 -73l-188 63l82 469h565v-205h-401l-19 -86q73 27 141 27q84 0 150 -25.5t105 -67.5t59 -92
t20 -104z" />
    <glyph glyph-name="six.superior" unicode="&#x2076;" horiz-adv-x="835" 
d="M791 1341q0 -130 -110 -212t-265 -82q-160 0 -265.5 83t-105.5 195q0 83 28 142.5t93 127.5l278 293h258l-260 -278h17q91 0 164.5 -29t120.5 -91t47 -149zM553 1333q0 52 -37.5 75.5t-95.5 23.5q-59 0 -98 -23.5t-39 -75.5q0 -49 39 -71.5t98 -22.5q58 0 95.5 22.5
t37.5 71.5z" />
    <glyph glyph-name="seven.superior" unicode="&#x2077;" horiz-adv-x="702" 
d="M686 1751l-334 -696h-243l319 626h-412v205h670v-135z" />
    <glyph glyph-name="eight.superior" unicode="&#x2078;" horiz-adv-x="845" 
d="M793 1305q0 -114 -102 -187.5t-267 -73.5q-167 0 -269 73.5t-102 187.5q0 112 140 182q-111 62 -111 162q0 106 95 177.5t247 71.5q151 0 245.5 -71.5t94.5 -177.5q0 -95 -109 -162q138 -71 138 -182zM317 1640q0 -31 28 -49t79 -18q50 0 78 18t28 49q0 37 -27.5 57.5
t-78.5 20.5t-79 -20.5t-28 -57.5zM289 1311q0 -41 35.5 -64.5t99.5 -23.5q63 0 99 23.5t36 64.5q0 35 -37 58.5t-98 23.5q-62 0 -98.5 -23.5t-36.5 -58.5z" />
    <glyph glyph-name="nine.superior" unicode="&#x2079;" horiz-adv-x="835" 
d="M45 1604q0 130 110 212t265 82q160 0 265.5 -83t105.5 -195q0 -84 -28 -143t-93 -127l-279 -293h-258l260 278h-16q-91 0 -164.5 29t-120.5 91t-47 149zM283 1612q0 -52 37.5 -75.5t95.5 -23.5q59 0 98 23.5t39 75.5q0 49 -39 71.5t-98 22.5q-58 0 -95.5 -22.5
t-37.5 -71.5z" />
    <glyph glyph-name="zero.inferior" unicode="&#x2080;" horiz-adv-x="856" 
d="M799 -2q0 -204 -96.5 -315t-274.5 -111q-179 0 -275 110.5t-96 315.5q0 207 97 318.5t274 111.5t274 -111.5t97 -318.5zM291 -2q0 -108 35 -164.5t102 -56.5q66 0 101.5 57t35.5 164q0 109 -35.5 167t-101.5 58t-101.5 -58.5t-35.5 -166.5z" />
    <glyph glyph-name="one.inferior" unicode="&#x2081;" horiz-adv-x="514" 
d="M428 -416h-229v633h-172v199h401v-832z" />
    <glyph glyph-name="two.inferior" unicode="&#x2082;" horiz-adv-x="788" 
d="M743 -211v-205h-684l2 129l277 234q85 71 118 110t33 82q0 36 -30.5 60t-85.5 24q-121 0 -121 -102h-221q0 135 100.5 221t257.5 86q155 0 246.5 -78t91.5 -178q0 -82 -46 -145.5t-171 -167.5l-84 -70h317z" />
    <glyph glyph-name="three.inferior" unicode="&#x2083;" horiz-adv-x="833" 
d="M780 -158q0 -121 -102 -194.5t-268 -73.5q-157 0 -257 74.5t-100 191.5h223q3 -42 39 -65t97 -23q63 0 98 22t35 62t-41.5 61t-118.5 21h-104v180h90q133 0 133 74q0 37 -28 56.5t-79 19.5t-78.5 -23t-27.5 -65h-221q0 114 97.5 191t240.5 77q153 0 242 -65t89 -170
q0 -100 -121 -170q162 -56 162 -181z" />
    <glyph glyph-name="four.inferior" unicode="&#x2084;" horiz-adv-x="845" 
d="M821 -274h-133v-142h-227v142h-436v172l479 518h184v-492h133v-198zM287 -76h174v187z" />
    <glyph glyph-name="five.inferior" unicode="&#x2085;" horiz-adv-x="813" 
d="M780 -137q0 -52 -22.5 -102t-65 -93t-114.5 -69.5t-162 -26.5q-156 0 -261.5 79t-109.5 202h229q17 -76 142 -76q67 0 98 27.5t31 60.5q0 34 -33.5 63t-103.5 29q-109 0 -142 -74l-188 64l82 469h565v-205h-401l-19 -86q73 27 141 27q84 0 150 -25.5t105 -67.5t59 -92
t20 -104z" />
    <glyph glyph-name="six.inferior" unicode="&#x2086;" horiz-adv-x="835" 
d="M791 -129q0 -130 -110 -212.5t-265 -82.5q-160 0 -265.5 83.5t-105.5 195.5q0 83 28 142.5t93 127.5l278 293h258l-260 -279h17q91 0 164.5 -28.5t120.5 -90.5t47 -149zM553 -137q0 52 -37 75t-96 23t-98 -23.5t-39 -74.5q0 -49 39 -71.5t98 -22.5q58 0 95.5 22.5
t37.5 71.5z" />
    <glyph glyph-name="seven.inferior" unicode="&#x2087;" horiz-adv-x="702" 
d="M686 281l-334 -697h-243l319 627h-412v205h670v-135z" />
    <glyph glyph-name="eight.inferior" unicode="&#x2088;" horiz-adv-x="845" 
d="M793 -166q0 -114 -102 -187t-267 -73q-167 0 -269 73t-102 187q0 112 140 182q-111 62 -111 162q0 106 95 178t247 72q151 0 245.5 -72t94.5 -178q0 -95 -109 -162q138 -71 138 -182zM317 170q0 -31 28.5 -49.5t78.5 -18.5t78 18.5t28 49.5q0 37 -27.5 57.5t-78.5 20.5
t-79 -20.5t-28 -57.5zM289 -160q0 -41 35.5 -64.5t99.5 -23.5q63 0 99 23.5t36 64.5q0 35 -37 58.5t-98 23.5q-62 0 -98.5 -23.5t-36.5 -58.5z" />
    <glyph glyph-name="nine.inferior" unicode="&#x2089;" horiz-adv-x="835" 
d="M45 133q0 130 110 212.5t265 82.5q160 0 265.5 -83t105.5 -195q0 -84 -28 -143.5t-93 -127.5l-279 -293h-258l260 279h-16q-91 0 -164.5 28.5t-120.5 90.5t-47 149zM283 141q0 -52 37 -75t96 -23t98 23.5t39 74.5q0 49 -39 72t-98 23q-58 0 -95.5 -23t-37.5 -72z" />
    <glyph glyph-name="Euro" unicode="&#x20ac;" horiz-adv-x="1269" 
d="M1217 358v-321q-120 -57 -297 -57q-237 0 -408.5 122t-237.5 340h-221v205h189q-2 48 0 103h-189v204h223q67 212 238 331.5t406 119.5q183 0 297 -47v-330q-115 62 -263 62q-200 0 -297 -136h381v-204h-454q-3 -54 0 -103h454v-205h-387q49 -70 127.5 -107.5
t175.5 -37.5q72 0 145 16.5t118 44.5z" />
    <glyph glyph-name="indianrupee" unicode="&#x20b9;" horiz-adv-x="1310" 
d="M1257 813h-210q-23 -111 -97 -190.5t-184 -120.5l342 -502h-389l-289 463h-356v246h379q170 0 225 104h-604v225h602q-59 101 -223 101h-379v245h1183v-225h-311q60 -57 84 -121h227v-225z" />
    <glyph glyph-name="turkishlira" unicode="&#x20ba;" horiz-adv-x="1308" 
d="M952 575h326q-12 -177 -109.5 -312.5t-255.5 -208t-352 -72.5q-172 0 -270 34v488l-238 -58v222l238 57v102l-238 -57v221l238 58v335h354v-251l422 102v-221l-422 -103v-102l422 102v-221l-422 -102v-305q132 8 213.5 84.5t93.5 207.5z" />
    <glyph glyph-name="ruble" unicode="&#x20bd;" horiz-adv-x="1351" 
d="M1257 244h-583v-244h-355v244h-266v225h266v102h-266v226h266v587h486q234 0 363.5 -100.5t129.5 -294.5q0 -196 -141.5 -307t-392.5 -111h-90v-102h583v-225zM762 1135h-88v-338h98q191 0 191 170q0 84 -47 126t-154 42z" />
    <glyph glyph-name="trademark" unicode="&#x2122;" horiz-adv-x="1816" 
d="M471 750h-225v514h-215v206h655v-206h-215v-514zM1112 750l-156 475v-475h-213v720h338l136 -442l137 442h319v-720h-213v469l-153 -469h-195z" />
    <glyph glyph-name="estimated" unicode="&#x212e;" horiz-adv-x="1705" 
d="M1444 279h86q-112 -150 -279 -224.5t-374 -74.5q-178 0 -332.5 59t-262.5 160t-169.5 239.5t-61.5 294.5q0 144 62 281t168 241.5t256.5 168t316.5 63.5q170 0 315.5 -57.5t248.5 -160t165 -246t72 -312.5h-1256q-43 0 -43 -45v-347q0 -79 76.5 -145.5t196 -102.5
t248.5 -36q194 0 341.5 63t225.5 181zM356 1165v-358q0 -45 43 -45h910q23 0 32 10.5t9 34.5v346q0 71 -70 136.5t-185.5 105t-240.5 39.5q-124 0 -240 -38.5t-187 -101t-71 -129.5z" />
    <glyph glyph-name="partialdiff" unicode="&#x2202;" horiz-adv-x="1263" 
d="M45 532q0 220 156 368.5t397 148.5h29l-322 421h397l320 -421q109 -144 153 -255t44 -262q0 -104 -43.5 -203.5t-118.5 -177t-186 -124.5t-238 -47q-128 0 -239 44t-187 118.5t-119 175.5t-43 214zM408 537q0 -117 64.5 -179.5t158.5 -62.5q93 0 157 62.5t64 179.5
q0 116 -64 178.5t-157 62.5q-94 0 -158.5 -62t-64.5 -179z" />
    <glyph glyph-name="increment" unicode="&#x2206;" horiz-adv-x="1513" 
d="M1501 0h-1489l547 1470h399zM748 1075l-263 -772h521z" />
    <glyph glyph-name="product" unicode="&#x220f;" horiz-adv-x="1585" 
d="M508 -395h-365v1865h1299v-1865h-365v1550h-569v-1550z" />
    <glyph glyph-name="summation" unicode="&#x2211;" horiz-adv-x="1363" 
d="M1286 -395h-1208v291l557 653l-539 625v296h1190v-315h-739l518 -608l-543 -627h764v-315z" />
    <glyph glyph-name="minus" unicode="&#x2212;" horiz-adv-x="1351" 
d="M1188 551h-1024v307h1024v-307z" />
    <glyph glyph-name="divisionslash" unicode="&#x2215;" horiz-adv-x="1351" 
d="M580 0h-328l520 1384h328z" />
    <glyph glyph-name="bulletoperator" unicode="&#x2219;" horiz-adv-x="1351" 
d="M899 696q0 -98 -62.5 -160.5t-160.5 -62.5t-160.5 62.5t-62.5 160.5q0 100 62.5 163t160.5 63t160.5 -63t62.5 -163z" />
    <glyph glyph-name="radical" unicode="&#x221a;" horiz-adv-x="1765" 
d="M1763 1470l-667 -1865h-400l-290 798h-242v316h520l221 -692l492 1443h366z" />
    <glyph glyph-name="infinity" unicode="&#x221e;" horiz-adv-x="2254" 
d="M2210 551q0 -251 -154 -411t-403 -160q-303 0 -527 282q-103 -130 -230 -206t-296 -76q-247 0 -401 160t-154 411t154 411t401 160q169 0 296 -75t232 -205q219 280 525 280q249 0 403 -160t154 -411zM412 551q0 -117 63 -187.5t174 -70.5q170 0 314 258
q-144 258 -314 258q-111 0 -174 -70.5t-63 -187.5zM1292 551q28 -50 59.5 -93t71 -81.5t87 -61t96.5 -22.5q111 0 174 70.5t63 187.5t-63 187.5t-174 70.5q-94 0 -174 -74t-140 -184z" />
    <glyph glyph-name="integral" unicode="&#x222b;" 
d="M686 1094v-1063q0 -117 -36 -205t-100 -140t-145 -77t-178 -25q-77 0 -164 23v330q43 -27 119 -27q150 0 150 149v1045q0 80 23 145.5t62.5 110t94 74.5t115.5 43.5t129 13.5q105 0 205 -39v-264q-50 31 -130 31q-57 0 -101 -31.5t-44 -93.5z" />
    <glyph glyph-name="approxequal" unicode="&#x2248;" horiz-adv-x="1351" 
d="M924 723q-68 0 -143.5 23t-129 50.5t-106.5 50.5t-82 23q-43 0 -60.5 -34.5t-13.5 -120.5h-285q-25 134 11 242.5t119 168.5t196 60q67 0 142.5 -23t129 -51t107 -51t82.5 -23q44 0 61 34t13 122h284q25 -134 -10.5 -242.5t-118.5 -168.5t-196 -60zM924 215
q-68 0 -143.5 23t-129 50.5t-106.5 50.5t-82 23q-43 0 -60.5 -34.5t-13.5 -120.5h-285q-25 134 11 242.5t119 168.5t196 60q67 0 142.5 -23t129 -51t107 -51t82.5 -23q44 0 61 34t13 122h284q25 -134 -10.5 -242.5t-118.5 -168.5t-196 -60z" />
    <glyph glyph-name="notequal" unicode="&#x2260;" horiz-adv-x="1351" 
d="M362 297h-198v307h315l76 201h-391v307h506l102 272h328l-103 -272h191v-307h-305l-76 -201h381v-307h-498l-110 -297h-328z" />
    <glyph glyph-name="lessequal" unicode="&#x2264;" horiz-adv-x="1351" 
d="M164 1030l1024 402v-306l-672 -235l672 -236v-305l-1024 402v278zM1188 0h-1024v307h1024v-307z" />
    <glyph glyph-name="greaterequal" unicode="&#x2265;" horiz-adv-x="1351" 
d="M1188 752l-1024 -402v305l672 236l-672 235v306l1024 -402v-278zM1188 0h-1024v307h1024v-307z" />
    <glyph glyph-name="lozenge" unicode="&#x25ca;" horiz-adv-x="1515" 
d="M958 -395h-399l-346 934l346 931h399l345 -931zM565 539l183 -539l180 539l-180 536z" />
    <glyph glyph-name="ITF" unicode="&#xf8ff;" horiz-adv-x="3561" 
d="M123 0v1434h442v-1434h-442zM657 1016v418h443v-418h-443zM1190 0v1434h444v-1434h-444zM1724 1016v418h443v-418h-443zM2257 0v1434h444v-1434h-444zM2791 1016v418h443v-418h-443zM2791 506v420h443v-420h-443z" />
    <glyph glyph-name="Q.ss02" horiz-adv-x="1632" 
d="M655 -283v269q-264 53 -431 258.5t-167 492.5q0 164 59 307t160.5 243t241.5 157t297 57q211 0 384.5 -97t274.5 -272.5t101 -394.5q0 -191 -78 -351t-214 -263.5t-310 -138.5v-267h-318zM973 694v-344q97 49 150 152.5t53 234.5q0 180 -96.5 299t-264.5 119t-264 -119
t-96 -299q0 -132 52 -234t148 -151v342h318z" />
    <glyph glyph-name="zero.case" horiz-adv-x="1402" 
d="M702 1489q287 0 444 -197t157 -561q0 -363 -155.5 -558.5t-445.5 -195.5q-291 0 -446.5 195.5t-155.5 558.5q0 364 157 561t445 197zM702 1176q-117 0 -179 -115.5t-62 -329.5q0 -215 61 -326.5t180 -111.5q116 0 178 112.5t62 325.5q0 215 -62 330t-178 115z" />
    <glyph glyph-name="one.case" horiz-adv-x="845" 
d="M682 0h-352v1165h-285v305h637v-1470z" />
    <glyph glyph-name="two.case" horiz-adv-x="1265" 
d="M1192 315v-315h-1100v201l457 432q72 68 105 101t73.5 83t56 92.5t15.5 89.5q0 76 -53.5 126.5t-149.5 50.5q-100 0 -154.5 -52t-54.5 -155h-342q0 229 162.5 374.5t415.5 145.5q127 0 231.5 -38t171.5 -100.5t103 -140.5t36 -161q0 -63 -15.5 -120.5t-40 -104.5
t-72.5 -105t-93 -104.5t-123 -120.5l-186 -179h557z" />
    <glyph glyph-name="three.case" horiz-adv-x="1302" 
d="M629 -20q-165 0 -296.5 58.5t-205.5 164t-74 237.5h342q8 -86 71 -135t167 -49q112 0 173.5 47.5t61.5 132.5q0 84 -73 130t-205 46h-168v277h149q109 0 168.5 42t59.5 120q0 76 -50 118.5t-139 42.5q-88 0 -138 -48.5t-50 -133.5h-342q1 129 73.5 234.5t198 165
t277.5 59.5q245 0 388.5 -113.5t143.5 -296.5q0 -187 -213 -307q135 -46 208 -130t73 -198q0 -207 -166 -335.5t-434 -128.5z" />
    <glyph glyph-name="four.case" horiz-adv-x="1380" 
d="M1323 270h-217v-270h-348v270h-721v262l786 938h283v-895h217v-305zM422 575h336v406z" />
    <glyph glyph-name="five.case" horiz-adv-x="1294" 
d="M651 -23q-165 0 -300 62t-214 172t-84 248h353q15 -81 79 -123.5t164 -42.5q62 0 108.5 17.5t72 46.5t37.5 61.5t12 68.5q0 78 -60.5 137.5t-181.5 59.5q-183 0 -240 -137l-291 96l136 827h907v-315h-653l-37 -223q106 53 239 53q135 0 242 -43t171 -114.5t97 -159
t33 -183.5q0 -93 -37 -181.5t-107.5 -162.5t-186 -119t-259.5 -45z" />
    <glyph glyph-name="six.case" horiz-adv-x="1329" 
d="M664 -18q-130 0 -244 40t-192 107t-122.5 156t-44.5 186q0 101 25 184t64.5 144.5t109.5 142.5l459 528h397l-428 -499h29q243 0 397 -133.5t154 -341.5q0 -141 -75.5 -258t-214.5 -186.5t-314 -69.5zM668 276q99 0 167 53.5t68 153.5q0 106 -67.5 159.5t-167.5 53.5
q-103 0 -171.5 -53t-68.5 -160q0 -100 69.5 -153.5t170.5 -53.5z" />
    <glyph glyph-name="seven.case" horiz-adv-x="1128" 
d="M1108 1264l-553 -1264h-375l537 1155h-697v315h1088v-206z" />
    <glyph glyph-name="eight.case" horiz-adv-x="1345" 
d="M1272 432q0 -197 -165 -324.5t-431 -127.5q-270 0 -436 127t-166 325q0 212 239 332q-190 111 -190 295q0 186 153 308t400 122q243 0 396 -122.5t153 -307.5q0 -181 -191 -295q238 -120 238 -332zM485 1047q0 -69 51 -110.5t140 -41.5q87 0 136.5 41t49.5 111
q0 77 -49.5 121t-136.5 44q-89 0 -140 -44t-51 -121zM436 440q0 -87 63 -135.5t177 -48.5q109 0 173 49t64 135q0 79 -64.5 128.5t-172.5 49.5q-112 0 -176 -49t-64 -129z" />
    <glyph glyph-name="nine.case" horiz-adv-x="1329" 
d="M668 1489q129 0 242.5 -40t191 -107t122 -156t44.5 -187q0 -136 -43.5 -239.5t-155.5 -231.5l-459 -528h-395l426 502h-35q-240 0 -392.5 133.5t-152.5 339.5q0 142 76 259t215.5 186t315.5 69zM664 1194q-101 0 -169.5 -53.5t-68.5 -153.5q0 -104 68 -157.5t170 -53.5
q101 0 169 52.5t68 158.5q0 100 -68.5 153.5t-168.5 53.5z" />
    <glyph glyph-name="zero.dnom" horiz-adv-x="872" 
d="M807 414q0 -204 -96.5 -315t-274.5 -111q-179 0 -274.5 110.5t-95.5 315.5q0 207 96.5 318.5t273.5 111.5t274 -111.5t97 -318.5zM299 414q0 -108 35 -164.5t102 -56.5q66 0 101.5 57t35.5 164q0 109 -35.5 167t-101.5 58t-101.5 -58.5t-35.5 -166.5z" />
    <glyph glyph-name="one.dnom" horiz-adv-x="514" 
d="M428 0h-229v633h-172v198h401v-831z" />
    <glyph glyph-name="two.dnom" horiz-adv-x="788" 
d="M743 205v-205h-684l2 129l277 233q84 70 117.5 109.5t33.5 83.5q0 36 -30.5 60t-85.5 24q-121 0 -121 -102h-221q0 135 100.5 221t257.5 86q155 0 246.5 -78t91.5 -178q0 -82 -46 -146t-171 -168l-84 -69h317z" />
    <glyph glyph-name="three.dnom" horiz-adv-x="833" 
d="M780 258q0 -121 -102 -194.5t-268 -73.5q-157 0 -257 74.5t-100 191.5h223q3 -42 39 -65t97 -23q63 0 98 22t35 62t-41.5 61t-118.5 21h-104v180h90q133 0 133 74q0 37 -28 56.5t-79 19.5t-78.5 -23.5t-27.5 -65.5h-221q0 114 97.5 191.5t240.5 77.5q153 0 242 -65.5
t89 -170.5q0 -100 -121 -170q162 -56 162 -180z" />
    <glyph glyph-name="four.dnom" horiz-adv-x="845" 
d="M821 141h-133v-141h-227v141h-436v172l479 518h184v-491h133v-199zM287 340h174v186z" />
    <glyph glyph-name="five.dnom" horiz-adv-x="813" 
d="M780 279q0 -52 -22.5 -102t-65 -93t-114.5 -69.5t-162 -26.5q-156 0 -261.5 79t-109.5 201h229q17 -75 142 -75q67 0 98 27.5t31 60.5q0 34 -33.5 63t-103.5 29q-109 0 -142 -74l-188 63l82 469h565v-204h-401l-19 -86q70 26 141 26q84 0 150 -25t105 -67t59 -92t20 -104
z" />
    <glyph glyph-name="six.dnom" horiz-adv-x="835" 
d="M791 287q0 -130 -110 -212.5t-265 -82.5q-160 0 -265.5 83t-105.5 195q0 83 28 143t93 128l278 293h258l-260 -279h17q91 0 164.5 -28.5t120.5 -90.5t47 -149zM553 279q0 52 -37 75t-96 23t-98 -23.5t-39 -74.5q0 -49 39 -72t98 -23q58 0 95.5 23t37.5 72z" />
    <glyph glyph-name="seven.dnom" horiz-adv-x="702" 
d="M686 696l-334 -696h-243l319 627h-412v204h670v-135z" />
    <glyph glyph-name="eight.dnom" horiz-adv-x="845" 
d="M793 250q0 -114 -102 -187t-267 -73q-167 0 -269 73t-102 187q0 112 140 182q-111 62 -111 162q0 106 95 178t247 72q151 0 245.5 -72t94.5 -178q0 -95 -109 -162q138 -71 138 -182zM317 586q0 -31 28.5 -49.5t78.5 -18.5t78 18.5t28 49.5q0 37 -27.5 57.5t-78.5 20.5
t-79 -20.5t-28 -57.5zM289 256q0 -41 35.5 -64.5t99.5 -23.5q63 0 99 23.5t36 64.5q0 35 -37 58.5t-98 23.5q-62 0 -98.5 -23.5t-36.5 -58.5z" />
    <glyph glyph-name="nine.dnom" horiz-adv-x="835" 
d="M45 549q0 130 110 212.5t265 82.5q160 0 265.5 -83.5t105.5 -195.5q0 -84 -28 -143t-93 -127l-279 -293h-258l260 279h-16q-91 0 -164.5 28.5t-120.5 90.5t-47 149zM283 557q0 -52 37 -75t96 -23t98 23.5t39 74.5q0 49 -39 71.5t-98 22.5q-58 0 -95.5 -22.5t-37.5 -71.5z
" />
    <glyph glyph-name="zero.numr_alt" horiz-adv-x="962" 
d="M489 537q-195 0 -329.5 126t-134.5 304q0 179 134 304.5t330 125.5t330.5 -125.5t134.5 -304.5q0 -178 -135 -304t-330 -126zM489 784q77 0 129 47t52 136t-52 135.5t-129 46.5q-76 0 -129 -46.5t-53 -135.5t53 -136t129 -47z" />
    <glyph glyph-name="zero.numr" horiz-adv-x="856" 
d="M799 967q0 -204 -96.5 -315t-274.5 -111q-179 0 -275 110.5t-96 315.5q0 207 97 318.5t274 111.5t274 -111.5t97 -318.5zM291 967q0 -108 35 -165t102 -57q66 0 101.5 57.5t35.5 164.5q0 109 -35.5 167t-101.5 58t-101.5 -58.5t-35.5 -166.5z" />
    <glyph glyph-name="one.numr" horiz-adv-x="514" 
d="M428 553h-229v633h-172v198h401v-831z" />
    <glyph glyph-name="two.numr" horiz-adv-x="788" 
d="M743 758v-205h-684l2 129l277 233q84 70 117.5 109.5t33.5 83.5q0 36 -30.5 60t-85.5 24q-121 0 -121 -102h-221q0 135 100.5 221t257.5 86q155 0 246.5 -78t91.5 -178q0 -82 -46 -146t-171 -168l-84 -69h317z" />
    <glyph glyph-name="three.numr" horiz-adv-x="833" 
d="M780 813q0 -121 -102 -194.5t-268 -73.5q-157 0 -257 74.5t-100 191.5h223q3 -42 39 -65t97 -23q63 0 98 22t35 62t-41.5 61t-118.5 21h-104v180h90q133 0 133 74q0 37 -28 56.5t-79 19.5t-78.5 -23.5t-27.5 -65.5h-221q0 114 97.5 191.5t240.5 77.5q153 0 242 -65.5
t89 -170.5q0 -100 -121 -170q162 -56 162 -180z" />
    <glyph glyph-name="four.numr" horiz-adv-x="845" 
d="M821 694h-133v-141h-227v141h-436v172l479 518h184v-491h133v-199zM287 893h174v186z" />
    <glyph glyph-name="five.numr" horiz-adv-x="813" 
d="M780 831q0 -52 -22.5 -102t-65 -92.5t-114.5 -69t-162 -26.5q-156 0 -261.5 79t-109.5 201h229q17 -76 142 -76q67 0 98 28t31 61q0 34 -33.5 63t-103.5 29q-109 0 -142 -74l-188 63l82 469h565v-204h-401l-19 -86q70 26 141 26q84 0 150 -25.5t105 -67.5t59 -92t20 -104
z" />
    <glyph glyph-name="six.numr" horiz-adv-x="835" 
d="M791 840q0 -130 -110 -212.5t-265 -82.5q-160 0 -265.5 83t-105.5 195q0 83 28 143t93 128l278 292h258l-260 -278h17q91 0 164.5 -28.5t120.5 -90.5t47 -149zM553 831q0 52 -37.5 75.5t-95.5 23.5q-59 0 -98 -23.5t-39 -75.5q0 -49 39 -71.5t98 -22.5q58 0 95.5 22.5
t37.5 71.5z" />
    <glyph glyph-name="seven.numr" horiz-adv-x="702" 
d="M686 1249l-334 -696h-243l319 627h-412v204h670v-135z" />
    <glyph glyph-name="eight.numr" horiz-adv-x="845" 
d="M793 803q0 -114 -102 -187t-267 -73q-167 0 -269 73t-102 187q0 112 140 182q-111 62 -111 162q0 106 95 178t247 72q151 0 245.5 -72t94.5 -178q0 -95 -109 -162q138 -71 138 -182zM317 1139q0 -31 28.5 -49.5t78.5 -18.5t78 18.5t28 49.5q0 37 -27.5 57.5t-78.5 20.5
t-79 -20.5t-28 -57.5zM289 809q0 -41 35.5 -64.5t99.5 -23.5q63 0 99 23.5t36 64.5q0 35 -37 58.5t-98 23.5q-62 0 -98.5 -23.5t-36.5 -58.5z" />
    <glyph glyph-name="nine.numr" horiz-adv-x="835" 
d="M45 1102q0 130 110 212.5t265 82.5q160 0 265.5 -83.5t105.5 -195.5q0 -84 -28 -143t-93 -127l-279 -293h-258l260 279h-16q-91 0 -164.5 28.5t-120.5 90.5t-47 149zM283 1110q0 -52 37 -75t96 -23t98 23.5t39 74.5q0 49 -39 71.5t-98 22.5q-58 0 -95.5 -22.5
t-37.5 -71.5z" />
    <glyph glyph-name="caroncomb.alt" 
d="M641 1147h-231v323h286z" />
    <glyph glyph-name="caroncomb.alt2" 
d="M600 1069h-231v401h286z" />
    <glyph glyph-name="strokeshortcomb.case" 
d="M936 598h-848v315h848v-315z" />
    <glyph glyph-name="slashshortcomb.case" 
d="M999 713l-972 -228v308l972 225v-305z" />
    <glyph glyph-name="slashlongcomb.case" 
d="M135 0h-342l1098 1470h340z" />
    <glyph glyph-name="dieresiscomb.narrow" 
d="M942 1319q0 -84 -54.5 -137.5t-139.5 -53.5q-89 0 -145 53t-56 138q0 87 55.5 140.5t145.5 53.5q85 0 139.5 -53.5t54.5 -140.5zM477 1319q0 -85 -55.5 -138t-145.5 -53q-85 0 -139.5 53.5t-54.5 137.5q0 87 54.5 140.5t139.5 53.5q91 0 146 -53t55 -141z" />
    <glyph glyph-name="gravecomb.narrow" 
d="M805 1139h-363l-223 331h404z" />
    <glyph glyph-name="acutecomb.narrow" 
d="M580 1139h-361l184 331h402z" />
    <glyph glyph-name="circumflexcomb.narrow" 
d="M412 1139h-385l260 331h454l258 -331h-383l-102 151z" />
    <glyph glyph-name="a.ss01" horiz-adv-x="1290" 
d="M45 551q0 160 61.5 289t179 205.5t271.5 76.5q100 0 170.5 -31.5t136.5 -101.5v113h322v-1102h-322v125q-139 -145 -327 -145q-145 0 -258.5 77t-173.5 207t-60 287zM410 551q0 -122 62.5 -189t148.5 -67q88 0 149 67t61 191t-61.5 189t-148.5 65t-149 -66t-62 -190z" />
    <glyph glyph-name="aacute.ss01" horiz-adv-x="1290" 
d="M797 1169h-361l205 332h403zM45 551q0 160 61.5 289t179 205.5t271.5 76.5q100 0 170.5 -31.5t136.5 -101.5v113h322v-1102h-322v125q-139 -145 -327 -145q-145 0 -258.5 77t-173.5 207t-60 287zM410 551q0 -122 62.5 -189t148.5 -67q88 0 149 67t61 191t-61.5 189
t-148.5 65t-149 -66t-62 -190z" />
    <glyph glyph-name="abreve.ss01" horiz-adv-x="1290" 
d="M750 1501h243q0 -159 -102.5 -250.5t-280.5 -91.5q-180 0 -282.5 91.5t-102.5 250.5h246q0 -59 37.5 -91t101.5 -32q65 0 102.5 32t37.5 91zM45 551q0 160 61.5 289t179 205.5t271.5 76.5q100 0 170.5 -31.5t136.5 -101.5v113h322v-1102h-322v125q-139 -145 -327 -145
q-145 0 -258.5 77t-173.5 207t-60 287zM410 551q0 -122 62.5 -189t148.5 -67q88 0 149 67t61 191t-61.5 189t-148.5 65t-149 -66t-62 -190z" />
    <glyph glyph-name="acircumflex.ss01" horiz-adv-x="1290" 
d="M485 1169h-385l289 332h445l286 -332h-383l-127 152zM45 551q0 160 61.5 289t179 205.5t271.5 76.5q100 0 170.5 -31.5t136.5 -101.5v113h322v-1102h-322v125q-139 -145 -327 -145q-145 0 -258.5 77t-173.5 207t-60 287zM410 551q0 -122 62.5 -189t148.5 -67q88 0 149 67
t61 191t-61.5 189t-148.5 65t-149 -66t-62 -190z" />
    <glyph glyph-name="adieresis.ss01" horiz-adv-x="1290" 
d="M1061 1350q0 -84 -57 -137.5t-144 -53.5q-91 0 -148 53t-57 138q0 87 57 140.5t148 53.5q87 0 144 -53.5t57 -140.5zM565 1350q0 -85 -56.5 -138t-148.5 -53q-87 0 -143.5 53.5t-56.5 137.5q0 87 56.5 140.5t143.5 53.5q92 0 148.5 -53t56.5 -141zM45 551q0 160 61.5 289
t179 205.5t271.5 76.5q100 0 170.5 -31.5t136.5 -101.5v113h322v-1102h-322v125q-139 -145 -327 -145q-145 0 -258.5 77t-173.5 207t-60 287zM410 551q0 -122 62.5 -189t148.5 -67q88 0 149 67t61 191t-61.5 189t-148.5 65t-149 -66t-62 -190z" />
    <glyph glyph-name="agrave.ss01" horiz-adv-x="1290" 
d="M784 1169h-360l-248 332h406zM45 551q0 160 61.5 289t179 205.5t271.5 76.5q100 0 170.5 -31.5t136.5 -101.5v113h322v-1102h-322v125q-139 -145 -327 -145q-145 0 -258.5 77t-173.5 207t-60 287zM410 551q0 -122 62.5 -189t148.5 -67q88 0 149 67t61 191t-61.5 189
t-148.5 65t-149 -66t-62 -190z" />
    <glyph glyph-name="amacron.ss01" horiz-adv-x="1290" 
d="M969 1194h-715v225h715v-225zM45 551q0 160 61.5 289t179 205.5t271.5 76.5q100 0 170.5 -31.5t136.5 -101.5v113h322v-1102h-322v125q-139 -145 -327 -145q-145 0 -258.5 77t-173.5 207t-60 287zM410 551q0 -122 62.5 -189t148.5 -67q88 0 149 67t61 191t-61.5 189
t-148.5 65t-149 -66t-62 -190z" />
    <glyph glyph-name="aogonek.ss01" horiz-adv-x="1290" 
d="M45 551q0 160 61.5 289t179 205.5t271.5 76.5q100 0 170.5 -31.5t136.5 -101.5v113h322v-1102h-162q-27 -42 -27 -78q0 -42 21.5 -65t58.5 -23q27 0 62 12v-227q-77 -22 -146 -22q-115 0 -189.5 56.5t-74.5 164.5q0 65 33.5 122.5t101.5 122.5v62q-139 -145 -327 -145
q-145 0 -258.5 77t-173.5 207t-60 287zM410 551q0 -122 62.5 -189t148.5 -67q88 0 149 67t61 191t-61.5 189t-148.5 65t-149 -66t-62 -190z" />
    <glyph glyph-name="aring.ss01" horiz-adv-x="1290" 
d="M610 1159q-131 0 -214 78t-83 190q0 115 83 194t214 79q130 0 214.5 -79.5t84.5 -193.5q0 -111 -84.5 -189.5t-214.5 -78.5zM610 1331q43 0 71 24t28 72q0 50 -28.5 76.5t-70.5 26.5q-40 0 -70 -27t-30 -76q0 -48 29.5 -72t70.5 -24zM45 551q0 160 61.5 289t179 205.5
t271.5 76.5q100 0 170.5 -31.5t136.5 -101.5v113h322v-1102h-322v125q-139 -145 -327 -145q-145 0 -258.5 77t-173.5 207t-60 287zM410 551q0 -122 62.5 -189t148.5 -67q88 0 149 67t61 191t-61.5 189t-148.5 65t-149 -66t-62 -190z" />
    <glyph glyph-name="atilde.ss01" horiz-adv-x="1290" 
d="M422 1159h-211q-29 150 37.5 247t189.5 97q59 0 124 -19.5t113.5 -39t69.5 -19.5q28 0 42.5 20.5t11.5 74.5h211q28 -147 -40 -245.5t-192 -98.5q-58 0 -122 19t-112.5 38.5t-70.5 19.5q-27 0 -40.5 -20t-10.5 -74zM45 551q0 160 61.5 289t179 205.5t271.5 76.5
q100 0 170.5 -31.5t136.5 -101.5v113h322v-1102h-322v125q-139 -145 -327 -145q-145 0 -258.5 77t-173.5 207t-60 287zM410 551q0 -122 62.5 -189t148.5 -67q88 0 149 67t61 191t-61.5 189t-148.5 65t-149 -66t-62 -190z" />
    </font>
</defs>
</svg>
