<?xml version="1.0" standalone="no"?>
<!DOCTYPE svg PUBLIC "-//W3C//DTD SVG 1.1//EN" "http://www.w3.org/Graphics/SVG/1.1/DTD/svg11.dtd" >
<svg xmlns="http://www.w3.org/2000/svg" xmlns:xlink="http://www.w3.org/1999/xlink" version="1.1">
<metadata>
Created by FontForge 20170731 at Tue Apr 11 09:01:08 2023
 By Aleksey,,,
Copyright 2017-2021 Indian Type Foundry. All rights reserved.
</metadata>
<defs>
<font id="GeneralSans-SemiboldItalic" horiz-adv-x="1140" >
  <font-face 
    font-family="General Sans Semibold Italic"
    font-weight="600"
    font-style="italic"
    font-stretch="normal"
    units-per-em="2048"
    panose-1="0 0 0 0 0 0 0 0 0 0"
    ascent="1638"
    descent="-410"
    x-height="1094"
    cap-height="1470"
    bbox="-379 -498.333 3414 2050"
    underline-thickness="102"
    underline-position="-266"
    slope="-10"
    unicode-range="U+000D-FB02"
  />
<missing-glyph horiz-adv-x="1515" 
 />
    <glyph glyph-name="fi" unicode="fi" horiz-adv-x="1316" 
d="M1378 1376q0 -80 -64 -138t-153 -58q-70 0 -112.5 39t-42.5 100q0 80 63.5 138.5t151.5 58.5q70 0 113.5 -39t43.5 -101zM395 0h-270l149 856h-213l43 238h213l11 61q32 166 125 252t264 86q98 0 166 -33l-39 -219q-44 19 -105 19q-123 0 -141 -113l-8 -53h276l-41 -238
h-278zM1092 0h-273l195 1094h272z" />
    <glyph glyph-name="fl" unicode="fl" horiz-adv-x="1316" 
d="M395 0h-270l149 856h-213l43 238h213l11 61q32 166 125 252t264 86q98 0 166 -33l-39 -219q-44 19 -105 19q-123 0 -141 -113l-8 -53h276l-41 -238h-278zM1092 0h-273l260 1470h273z" />
    <glyph glyph-name=".notdef" horiz-adv-x="1515" 
 />
    <glyph glyph-name=".null" horiz-adv-x="0" 
 />
    <glyph glyph-name=".null" horiz-adv-x="0" 
 />
    <glyph glyph-name="nonmarkingreturn" horiz-adv-x="682" 
 />
    <glyph glyph-name="CR" unicode="&#xd;" horiz-adv-x="573" 
 />
    <glyph glyph-name="space" unicode=" " horiz-adv-x="407" 
 />
    <glyph glyph-name="exclam" unicode="!" horiz-adv-x="573" 
d="M369 438h-207l114 1032h347zM414 207q0 -87 -67 -152t-157 -65q-73 0 -117 41.5t-44 107.5q0 89 67 154t158 65q73 0 116.5 -42t43.5 -109z" />
    <glyph glyph-name="quotedbl" unicode="&#x22;" horiz-adv-x="897" 
d="M432 936h-213l78 534h248zM813 936h-215l78 534h248z" />
    <glyph glyph-name="numbersign" unicode="#" horiz-adv-x="1312" 
d="M340 0h-225l145 375h-162l33 203h199l96 231h-170l33 207h207l143 368h225l-141 -368h162l141 368h227l-143 -368h162l-37 -207h-197l-94 -231h166l-31 -203h-205l-145 -375h-227l145 375h-160zM649 809l-92 -231h164l92 231h-164z" />
    <glyph glyph-name="dollar" unicode="$" horiz-adv-x="1226" 
d="M641 -182h-180l31 178q-218 26 -332.5 140t-114.5 306h277q2 -107 76 -165t210 -58q104 0 165 46t61 124q0 63 -37 98.5t-133 61.5l-193 57q-152 43 -232.5 138.5t-80.5 232.5q0 179 123.5 293t336.5 129l29 172h180l-32 -180q181 -31 282 -146.5t101 -292.5h-279
q0 103 -63 162.5t-172 59.5q-104 0 -162 -45.5t-58 -127.5q0 -116 154 -159l207 -60q155 -43 236 -133t81 -219q0 -183 -120.5 -299.5t-329.5 -136.5z" />
    <glyph glyph-name="percent" unicode="%" horiz-adv-x="2177" 
d="M496 537q-166 0 -272.5 101.5t-106.5 260.5q0 207 146 352.5t355 145.5q167 0 272 -101.5t105 -261.5q0 -207 -145 -352t-354 -145zM741 0h-235l985 1384h233zM516 731q106 0 181 84t75 203q0 84 -47.5 134t-126.5 50q-106 0 -181 -84t-75 -203q0 -85 47 -134.5
t127 -49.5zM1608 -18q-166 0 -272.5 101.5t-106.5 260.5q0 207 146.5 352.5t355.5 145.5q167 0 271.5 -101.5t104.5 -261.5q0 -207 -145 -352t-354 -145zM1628 178q106 0 181 83.5t75 201.5q0 84 -47.5 134t-126.5 50q-106 0 -181 -84t-75 -203q0 -84 47 -133t127 -49z" />
    <glyph glyph-name="ampersand" unicode="&#x26;" horiz-adv-x="1370" 
d="M676 795l221 -295q39 91 55 215h269q-52 -239 -174 -416l225 -299h-324l-82 109q-172 -127 -383 -127q-199 0 -318.5 100t-119.5 268q0 142 81.5 265t231.5 200q-36 92 -36 182q0 182 122.5 295t321.5 113q170 0 278.5 -106t110.5 -273h-262q0 72 -36 114t-99 42
q-72 0 -113 -48.5t-41 -134.5q0 -103 72 -204zM313 399q0 -91 58 -141.5t161 -50.5q117 0 207 72l-268 358q-74 -37 -116 -100t-42 -138z" />
    <glyph glyph-name="quotesingle" unicode="'" horiz-adv-x="516" 
d="M432 936h-213l78 534h248z" />
    <glyph glyph-name="parenleft" unicode="(" horiz-adv-x="632" 
d="M465 -395h-275q-116 255 -116 594q0 334 113.5 679t314.5 592h291q-199 -245 -319 -600t-120 -696q0 -332 111 -569z" />
    <glyph glyph-name="parenright" unicode=")" horiz-adv-x="632" 
d="M131 -395h-293q197 244 319 599.5t122 696.5q0 327 -111 569h272q117 -259 117 -593q0 -333 -113.5 -678.5t-312.5 -593.5z" />
    <glyph glyph-name="asterisk" unicode="*" horiz-adv-x="987" 
d="M555 891l-209 -244l-160 119l238 250l-264 82l82 174l262 -94l43 292h211l-64 -292l299 100l27 -195l-305 -86l157 -231l-163 -119z" />
    <glyph glyph-name="plus" unicode="+" horiz-adv-x="1347" 
d="M737 197h-252l68 383h-365l43 237h365l66 383h253l-65 -383h364l-43 -237h-364z" />
    <glyph glyph-name="comma" unicode="," horiz-adv-x="524" 
d="M373 170q0 -111 -40.5 -201t-108.5 -147t-155 -87.5t-184 -31.5l27 156q109 2 182.5 47t85.5 129q-14 -6 -45 -6q-59 0 -98 38.5t-39 96.5q0 83 63 144t148 61q78 0 121 -51.5t43 -147.5z" />
    <glyph glyph-name="hyphen" unicode="-" horiz-adv-x="716" 
d="M641 438h-604l43 248h604z" />
    <glyph glyph-name="period" unicode="." horiz-adv-x="524" 
d="M385 219q0 -94 -64.5 -161.5t-154.5 -67.5q-70 0 -113 41.5t-43 109.5q0 94 65 162t156 68q71 0 112.5 -42t41.5 -110z" />
    <glyph glyph-name="slash" unicode="/" horiz-adv-x="991" 
d="M57 -395h-297l1172 1865h295z" />
    <glyph glyph-name="zero" unicode="0" horiz-adv-x="1236" 
d="M104 479q0 267 82 478.5t229.5 329.5t334.5 118q199 0 315.5 -136.5t116.5 -369.5q0 -268 -81.5 -477.5t-228.5 -325.5t-335 -116q-200 0 -316.5 134t-116.5 365zM389 492q0 -129 45 -197t131 -68q90 0 167 89.5t121 242t44 330.5q0 129 -44.5 198.5t-127.5 69.5
q-90 0 -167.5 -89.5t-123 -243t-45.5 -332.5z" />
    <glyph glyph-name="one" unicode="1" horiz-adv-x="714" 
d="M469 0h-274l200 1147h-250l43 237h527z" />
    <glyph glyph-name="two" unicode="2" horiz-adv-x="1107" 
d="M975 248l-43 -248h-932l27 160l481 422q148 132 219.5 225t71.5 188q0 73 -45.5 117.5t-122.5 44.5q-92 0 -155 -56t-83 -167h-268q39 219 179.5 345t359.5 126q193 0 310.5 -102t117.5 -256q0 -72 -21.5 -140.5t-54.5 -124t-90 -118.5t-109 -110.5t-131 -113.5
l-211 -192h500z" />
    <glyph glyph-name="three" unicode="3" horiz-adv-x="1157" 
d="M530 -18q-220 0 -352.5 116t-132.5 308h266q0 -92 64.5 -148.5t167.5 -56.5t166 58.5t63 156.5q0 85 -61 133.5t-168 48.5h-146l37 221h129q115 0 184.5 58.5t69.5 152.5q0 67 -48 111.5t-122 44.5q-92 0 -151 -53t-76 -150h-266q38 204 172.5 313t349.5 109
q190 0 310 -93t120 -241q0 -117 -69.5 -209.5t-192.5 -136.5q213 -84 213 -297q0 -194 -149.5 -320t-377.5 -126z" />
    <glyph glyph-name="four" unicode="4" horiz-adv-x="1179" 
d="M1079 274h-188l-49 -274h-258l51 274h-651l34 207l850 903h217l-151 -872h186zM330 512h348l82 473z" />
    <glyph glyph-name="five" unicode="5" horiz-adv-x="1136" 
d="M522 -20q-216 0 -348.5 121.5t-132.5 318.5h274q1 -87 63 -140t161 -53q104 0 171.5 70t67.5 176q0 91 -56 147t-147 56q-81 0 -139 -34t-104 -107l-213 73l254 776h772l-43 -247h-574l-94 -291q106 65 234 65q179 0 288 -109.5t109 -289.5q0 -235 -151 -383.5
t-392 -148.5z" />
    <glyph glyph-name="six" unicode="6" 
d="M479 -16q-192 0 -318 114t-126 287q0 134 59 252.5t189 251.5l479 495h325l-491 -491q28 14 61 14q183 0 300.5 -106.5t117.5 -272.5q0 -150 -79 -275t-216 -197t-301 -72zM514 215q115 0 196 84.5t81 204.5q0 86 -52.5 137t-140.5 51q-117 0 -199 -84t-82 -207
q0 -84 54.5 -135t142.5 -51z" />
    <glyph glyph-name="seven" unicode="7" horiz-adv-x="1019" 
d="M1096 1223l-695 -1223h-309l668 1137h-617l41 247h938z" />
    <glyph glyph-name="eight" unicode="8" horiz-adv-x="1179" 
d="M1081 457q0 -209 -155.5 -342t-397.5 -133q-214 0 -350.5 98.5t-136.5 253.5q0 132 78.5 236.5t212.5 150.5q-62 35 -98.5 99.5t-36.5 137.5q0 124 69 226.5t189 161.5t264 59q190 0 308 -93.5t118 -244.5q0 -111 -62.5 -202t-177.5 -146q85 -38 130.5 -105.5
t45.5 -156.5zM479 975q0 -68 44.5 -110t117.5 -42q97 0 160 60t63 153q0 66 -46.5 108t-119.5 42q-95 0 -157 -60t-62 -151zM328 371q0 -78 56.5 -124t150.5 -46q116 0 190 66.5t74 168.5q0 77 -54 122.5t-145 45.5q-119 0 -195.5 -65.5t-76.5 -167.5z" />
    <glyph glyph-name="nine" unicode="9" 
d="M713 1401q192 0 318 -114.5t126 -287.5q0 -134 -58 -252t-188 -251l-481 -496h-326l492 492q-30 -15 -61 -15q-183 0 -299.5 106.5t-116.5 272.5q0 150 78.5 275.5t215 197.5t300.5 72zM678 1169q-115 0 -196 -84t-81 -204q0 -86 52.5 -137.5t140.5 -51.5q117 0 198.5 84
t81.5 207q0 84 -54 135t-142 51z" />
    <glyph glyph-name="colon" unicode=":" horiz-adv-x="524" 
d="M516 948q0 -94 -65 -162.5t-154 -68.5q-73 0 -116.5 42t-43.5 109q0 94 67 162t161 68q68 0 109.5 -41.5t41.5 -108.5zM385 219q0 -94 -64.5 -161.5t-154.5 -67.5q-70 0 -113 41.5t-43 109.5q0 94 65 162t156 68q71 0 112.5 -42t41.5 -110z" />
    <glyph glyph-name="semicolon" unicode=";" horiz-adv-x="524" 
d="M504 948q0 -94 -64.5 -162.5t-154.5 -68.5q-71 0 -114.5 42t-43.5 109q0 94 66 162t157 68q70 0 112 -41t42 -109zM373 170q0 -111 -40.5 -201t-108.5 -147t-155 -87.5t-184 -31.5l27 156q109 2 182.5 47t85.5 129q-14 -6 -43 -6q-60 0 -99.5 38.5t-39.5 96.5
q0 83 63 144t148 61q78 0 121 -51.5t43 -147.5z" />
    <glyph glyph-name="less" unicode="&#x3c;" horiz-adv-x="1351" 
d="M227 799l1061 420l-45 -252l-760 -293l658 -287l-39 -227l-912 420z" />
    <glyph glyph-name="equal" unicode="=" horiz-adv-x="1351" 
d="M1217 813h-988l43 242h985zM1133 342h-986l43 242h986z" />
    <glyph glyph-name="greater" unicode="&#x3e;" horiz-adv-x="1351" 
d="M1176 582l-1061 -422l45 254l762 291l-660 286l41 228l911 -420z" />
    <glyph glyph-name="question" unicode="?" horiz-adv-x="1017" 
d="M395 1055h-268q44 201 181.5 318.5t348.5 117.5q191 0 306.5 -101t115.5 -253q0 -209 -231 -371l-154 -104q-76 -55 -103 -98.5t-34 -125.5h-176q-36 130 -11 212.5t124 150.5l151 102q73 52 106 95.5t33 105.5q0 59 -43 99t-116 40q-86 0 -146 -48t-84 -140zM604 207
q0 -88 -67.5 -152.5t-159.5 -64.5q-73 0 -118.5 41.5t-45.5 109.5q0 88 68 152.5t159 64.5q74 0 119 -42t45 -109z" />
    <glyph glyph-name="at" unicode="@" horiz-adv-x="1931" 
d="M1386 -51l-38 -246q-116 -63 -233 -91t-269 -28q-233 0 -414 99.5t-281 279t-100 410.5q0 217 79.5 408.5t217.5 328.5t333 216t417 79t400 -91t279 -255.5t101 -372.5q0 -269 -146.5 -438.5t-379.5 -169.5q-107 0 -175.5 40.5t-91.5 117.5q-47 -73 -128.5 -115.5
t-172.5 -42.5q-129 0 -207.5 86.5t-78.5 230.5q0 108 38 209t101 175t150 118.5t180 44.5q146 0 207 -125l30 96h246l-117 -346q-43 -134 -43 -190q0 -43 24 -66.5t68 -23.5q118 0 191.5 107.5t73.5 279.5q0 151 -74 270t-204 184.5t-292 65.5q-168 0 -316 -63.5t-252 -173
t-164 -261.5t-60 -323q0 -253 162.5 -415.5t414.5 -162.5q302 0 524 154zM762 420q0 -62 27.5 -97.5t76.5 -35.5q81 0 148 98.5t67 214.5q0 61 -27 95t-79 34q-81 0 -147 -96.5t-66 -212.5z" />
    <glyph glyph-name="A" unicode="A" horiz-adv-x="1443" 
d="M1018 0l-51 322h-549l-166 -322h-322l795 1470h330l268 -1470h-305zM840 1139l-299 -578h389z" />
    <glyph glyph-name="B" unicode="B" horiz-adv-x="1308" 
d="M1214 463q0 -213 -163 -338t-441 -125h-555l260 1470h533q189 0 304.5 -97t115.5 -255q0 -127 -72.5 -222.5t-200.5 -135.5q102 -34 160.5 -113t58.5 -184zM784 1225h-223l-61 -342h223q122 0 187 50t65 144q0 72 -48.5 110t-142.5 38zM700 637h-243l-70 -391h242
q133 0 209.5 59t76.5 162q0 80 -57 125t-158 45z" />
    <glyph glyph-name="C" unicode="C" horiz-adv-x="1540" 
d="M717 -31q-180 0 -323 82t-222.5 228t-79.5 329q0 188 64 354t174.5 284t264.5 186.5t329 68.5q179 0 316.5 -78.5t213 -222.5t76.5 -334h-297q-6 172 -96.5 270.5t-243.5 98.5q-139 0 -252 -80.5t-176.5 -222t-63.5 -316.5q0 -170 96 -275t253 -105q152 0 265 94.5
t173 271.5h295q-79 -299 -281.5 -466t-484.5 -167z" />
    <glyph glyph-name="D" unicode="D" horiz-adv-x="1452" 
d="M584 0h-529l260 1470h496q272 0 444 -171.5t172 -442.5q0 -184 -63.5 -343.5t-174.5 -272t-267.5 -176.5t-337.5 -64zM569 1206l-168 -942h211q225 0 365.5 160t140.5 418q0 170 -95 267t-261 97h-193z" />
    <glyph glyph-name="E" unicode="E" horiz-adv-x="1196" 
d="M1055 260l-47 -260h-953l260 1470h940l-45 -260h-641l-57 -323h582l-45 -260h-582l-66 -367h654z" />
    <glyph glyph-name="F" unicode="F" horiz-adv-x="1130" 
d="M356 0h-301l260 1470h916l-47 -260h-615l-69 -385h520l-45 -260h-520z" />
    <glyph glyph-name="G" unicode="G" horiz-adv-x="1583" 
d="M739 -31q-188 0 -335.5 80.5t-229.5 226.5t-82 332q0 187 66 352.5t179.5 284t272 187.5t336.5 69q264 0 433 -146.5t188 -391.5h-307q-13 127 -102 199.5t-232 72.5q-148 0 -268.5 -81t-188.5 -223t-68 -317t102.5 -284t266.5 -109q156 0 272 88t154 240h-410l41 242
h732q-54 -386 -270.5 -604t-549.5 -218z" />
    <glyph glyph-name="H" unicode="H" horiz-adv-x="1519" 
d="M356 0h-301l260 1470h301l-104 -581h614l105 581h301l-260 -1470h-301l108 625h-612z" />
    <glyph glyph-name="I" unicode="I" horiz-adv-x="604" 
d="M356 0h-301l260 1470h301z" />
    <glyph glyph-name="J" unicode="J" horiz-adv-x="1234" 
d="M1257 1470l-167 -944q-51 -286 -188 -421.5t-376 -135.5q-235 0 -372 145t-140 398h297q1 -128 62.5 -200t167.5 -72q101 0 161.5 68t85.5 210l168 952h301z" />
    <glyph glyph-name="K" unicode="K" horiz-adv-x="1339" 
d="M356 0h-301l260 1470h301l-116 -647l616 647h359l-701 -737l424 -733h-336l-387 674z" />
    <glyph glyph-name="L" unicode="L" horiz-adv-x="1130" 
d="M973 0h-918l260 1470h301l-215 -1198h619z" />
    <glyph glyph-name="M" unicode="M" horiz-adv-x="1845" 
d="M700 0l-194 991l-176 -991h-275l260 1470h351l217 -1101l606 1101h369l-261 -1470h-276l180 999l-551 -999h-250z" />
    <glyph glyph-name="N" unicode="N" horiz-adv-x="1523" 
d="M981 0l-461 1040l-184 -1040h-281l260 1470h324l438 -991l176 991h283l-260 -1470h-295z" />
    <glyph glyph-name="O" unicode="O" horiz-adv-x="1597" 
d="M717 -31q-180 0 -323 82t-222.5 228t-79.5 329q0 188 65.5 353.5t179 284t272 187t337.5 68.5q272 0 448.5 -180t176.5 -459q0 -187 -65.5 -352.5t-179 -284t-272 -187.5t-337.5 -69zM750 236q143 0 260.5 81t184.5 223t67 316q0 169 -96 274t-251 105q-144 0 -262 -81
t-185 -223t-67 -317q0 -170 96 -274t253 -104z" />
    <glyph glyph-name="P" unicode="P" horiz-adv-x="1302" 
d="M664 481h-226l-82 -481h-301l260 1470h523q219 0 352 -117t133 -309q0 -255 -180 -409t-479 -154zM788 1210h-219l-84 -469h222q144 0 228.5 73.5t84.5 197.5q0 92 -62.5 145t-169.5 53z" />
    <glyph glyph-name="Q" unicode="Q" horiz-adv-x="1597" 
d="M717 -31q-272 0 -448.5 180t-176.5 459q0 188 65.5 353.5t179 284t272 187t337.5 68.5q272 0 448.5 -180t176.5 -459q0 -260 -121.5 -470t-327.5 -322l211 -443h-305l-166 355q-76 -13 -145 -13zM750 236q143 0 260.5 81t184.5 223t67 316q0 169 -96 274t-251 105
q-145 0 -263 -81.5t-184.5 -223.5t-66.5 -316q0 -169 96 -273.5t253 -104.5z" />
    <glyph glyph-name="R" unicode="R" horiz-adv-x="1368" 
d="M356 0h-301l260 1470h553q222 0 357 -112.5t135 -298.5q0 -185 -108 -314t-310 -184l287 -561h-332l-260 522h-191zM571 1219l-79 -443h241q155 0 239.5 65t84.5 185q0 93 -63.5 143t-184.5 50h-238z" />
    <glyph glyph-name="S" unicode="S" horiz-adv-x="1304" 
d="M1204 451q0 -215 -154.5 -343t-414.5 -128q-271 0 -426.5 135.5t-157.5 373.5h297q1 -122 84 -195t219 -73q115 0 182.5 50t67.5 135q0 68 -41 106.5t-145 67.5l-209 61q-164 47 -250 147.5t-86 243.5q0 207 153 332t408 125q239 0 385.5 -136t147.5 -362h-297
q0 114 -71 187t-181 73q-115 0 -179.5 -50.5t-64.5 -139.5q0 -127 174 -174l219 -64q166 -47 253 -142t87 -230z" />
    <glyph glyph-name="T" unicode="T" horiz-adv-x="1255" 
d="M682 0h-301l211 1198h-447l48 272h1193l-47 -272h-446z" />
    <glyph glyph-name="U" unicode="U" horiz-adv-x="1462" 
d="M1479 1470l-160 -913q-105 -588 -651 -588q-132 0 -239.5 43.5t-177 120t-97 186.5t-4.5 238l161 913h301l-163 -921q-26 -142 39 -225.5t198 -83.5q141 0 221 75t109 236l162 919h301z" />
    <glyph glyph-name="V" unicode="V" horiz-adv-x="1384" 
d="M1530 1470l-772 -1470h-330l-250 1470h301l168 -1118l557 1118h326z" />
    <glyph glyph-name="W" unicode="W" horiz-adv-x="1921" 
d="M1128 0l-79 1038l-447 -1038h-311l-103 1470h297l52 -1009l438 1009h287l71 -1013l410 1013h313l-626 -1470h-302z" />
    <glyph glyph-name="X" unicode="X" horiz-adv-x="1361" 
d="M301 0h-352l555 760l-285 710h316l213 -538l372 538h355l-553 -737l301 -733h-318l-225 561z" />
    <glyph glyph-name="Y" unicode="Y" horiz-adv-x="1341" 
d="M819 553l-98 -553h-301l98 553l-340 917h301l221 -639l451 639h338z" />
    <glyph glyph-name="Z" unicode="Z" horiz-adv-x="1277" 
d="M1104 0h-1118l43 240l872 970h-696l45 260h1091l-43 -241l-870 -969h721z" />
    <glyph glyph-name="bracketleft" unicode="[" horiz-adv-x="649" 
d="M449 -395h-478l330 1865h477l-43 -239h-192l-246 -1387h195z" />
    <glyph glyph-name="backslash" unicode="\" horiz-adv-x="991" 
d="M899 -395h-262l-549 1865h262z" />
    <glyph glyph-name="bracketright" unicode="]" horiz-adv-x="649" 
d="M344 -395h-477l43 239h192l246 1387h-194l43 239h477z" />
    <glyph glyph-name="asciicircum" unicode="^" horiz-adv-x="1323" 
d="M954 561l-180 553l-368 -553h-293l563 823h266l275 -823h-263z" />
    <glyph glyph-name="underscore" unicode="_" horiz-adv-x="989" 
d="M823 -395h-989l43 239h987z" />
    <glyph glyph-name="grave" unicode="`" horiz-adv-x="1024" 
d="M872 1182h-251l-177 311h283z" />
    <glyph glyph-name="a" unicode="a" horiz-adv-x="1097" 
d="M662 0l24 139q-116 -159 -334 -159q-148 0 -236.5 79t-88.5 211q0 173 144 275t388 102q99 0 176 -12l13 63q17 91 -27 145t-135 54q-180 0 -217 -199h-248q20 195 151 305.5t342 110.5q206 0 315 -118.5t77 -307.5l-123 -688h-221zM291 303q0 -59 42.5 -95t112.5 -36
q93 0 162 58.5t86 154.5l15 80q-79 12 -162 12q-122 0 -189 -45.5t-67 -128.5z" />
    <glyph glyph-name="b" unicode="b" horiz-adv-x="1239" 
d="M1192 668q0 -191 -73 -349.5t-200 -248.5t-280 -90q-113 0 -202.5 53.5t-121.5 142.5l-32 -176h-250l260 1470h272l-98 -540q60 86 148.5 135t183.5 49q174 0 283.5 -124t109.5 -322zM907 637q0 105 -57 168t-148 63q-135 0 -222 -119t-87 -292q0 -104 57.5 -168
t149.5 -64q133 0 220 116.5t87 295.5z" />
    <glyph glyph-name="c" unicode="c" 
d="M514 -20q-199 0 -331 133t-132 336q0 188 76.5 340t212.5 238.5t305 86.5q203 0 326.5 -131t124.5 -352h-283q-1 112 -51 174.5t-137 62.5q-127 0 -208 -113.5t-81 -287.5q0 -111 56 -177.5t149 -66.5q88 0 155 61t103 181h274q-45 -221 -195 -353t-364 -132z" />
    <glyph glyph-name="d" unicode="d" horiz-adv-x="1239" 
d="M47 430q0 190 73 347.5t200 247t280 89.5q111 0 190.5 -52t112.5 -144l98 552h273l-260 -1470h-252l31 170q-61 -88 -153.5 -138t-199.5 -50q-174 0 -283.5 124.5t-109.5 323.5zM332 459q0 -105 57 -168.5t148 -63.5q134 0 220.5 119.5t86.5 292.5q0 104 -56.5 167.5
t-148.5 63.5q-133 0 -220 -116t-87 -295z" />
    <glyph glyph-name="e" unicode="e" 
d="M535 -20q-135 0 -244 55.5t-174.5 164.5t-65.5 253q0 188 77 339.5t212 236.5t301 85q99 0 180 -32t135 -89.5t88.5 -137.5t40.5 -175t-10 -203h-739v-8q0 -123 57.5 -189.5t163.5 -66.5q153 0 215 160h279q-64 -199 -197.5 -296t-318.5 -97zM639 899q-104 0 -175.5 -67
t-103.5 -179h465q6 108 -43 177t-143 69z" />
    <glyph glyph-name="f" unicode="f" horiz-adv-x="788" 
d="M395 0h-270l149 856h-213l43 238h213l11 61q32 166 125 252t264 86q98 0 166 -33l-39 -219q-44 19 -105 19q-123 0 -141 -113l-8 -53h276l-41 -238h-278z" />
    <glyph glyph-name="g" unicode="g" horiz-adv-x="1214" 
d="M457 -416q-203 0 -327.5 109.5t-131.5 300.5h266q3 -90 58.5 -141.5t148.5 -51.5q101 0 167 60.5t87 183.5l29 166q-56 -78 -142 -122t-184 -44q-170 0 -272.5 117t-102.5 311q0 171 74.5 319t201.5 235t275 87q103 0 180.5 -44.5t120.5 -129.5l25 154h252l-183 -1045
q-41 -230 -178 -347.5t-364 -117.5zM332 500q0 -103 50 -162t138 -59q127 0 215 114t88 266q0 100 -53 157.5t-145 57.5q-122 0 -207.5 -109t-85.5 -265z" />
    <glyph glyph-name="h" unicode="h" horiz-adv-x="1179" 
d="M412 598l-107 -598h-272l258 1470h250l-92 -534q132 178 329 178q169 0 254 -122.5t51 -317.5l-118 -674h-273l109 612q20 122 -18 189t-130 67q-96 0 -157.5 -71t-83.5 -199z" />
    <glyph glyph-name="i" unicode="i" horiz-adv-x="530" 
d="M590 1376q0 -80 -63 -138t-152 -58q-70 0 -114 39.5t-44 99.5q0 79 64.5 138t150.5 59q71 0 114.5 -39t43.5 -101zM305 0h-272l192 1094h273z" />
    <glyph glyph-name="j" unicode="j" horiz-adv-x="520" 
d="M580 1376q0 -80 -63 -138t-152 -58q-70 0 -113 39t-43 100q0 80 63.5 138.5t149.5 58.5q71 0 114.5 -39t43.5 -101zM487 1094l-194 -1094q-35 -197 -133 -306.5t-283 -109.5q-85 0 -162 23l45 258q42 -25 103 -25q69 0 106 41.5t51 124.5l195 1088h272z" />
    <glyph glyph-name="k" unicode="k" horiz-adv-x="1124" 
d="M305 0h-272l260 1470h272l-149 -843l461 467h323l-536 -541l362 -553h-315l-318 508z" />
    <glyph glyph-name="l" unicode="l" horiz-adv-x="530" 
d="M305 0h-272l260 1470h272z" />
    <glyph glyph-name="m" unicode="m" horiz-adv-x="1818" 
d="M305 0h-272l192 1094h250l-26 -158q132 178 321 178q117 0 191.5 -57t99.5 -160q67 106 159 161.5t199 55.5q169 0 253.5 -122.5t49.5 -317.5l-116 -674h-275l109 612q22 120 -14.5 188t-122.5 68q-93 0 -156 -69t-86 -199l-105 -600h-274l109 612q22 120 -15.5 188
t-124.5 68q-96 0 -156.5 -71t-82.5 -199z" />
    <glyph glyph-name="n" unicode="n" horiz-adv-x="1179" 
d="M412 598l-107 -598h-272l192 1094h250l-26 -158q132 178 329 178q169 0 254 -122.5t51 -317.5l-118 -674h-273l109 612q20 122 -18 189t-130 67q-96 0 -157.5 -71t-83.5 -199z" />
    <glyph glyph-name="o" unicode="o" horiz-adv-x="1183" 
d="M516 -20q-207 0 -338 128t-131 330q0 184 83 339.5t226.5 246t313.5 90.5q206 0 336.5 -127.5t130.5 -329.5q0 -184 -83.5 -340t-226.5 -246.5t-311 -90.5zM545 225q129 0 218 118.5t89 287.5q0 108 -58 172.5t-155 64.5q-129 0 -218 -119t-89 -288q0 -108 58 -172
t155 -64z" />
    <glyph glyph-name="p" unicode="p" horiz-adv-x="1239" 
d="M1192 668q0 -191 -73 -349.5t-200 -248.5t-280 -90q-109 0 -189 52t-112 144l-102 -571h-273l262 1489h250l-29 -168q61 87 154.5 137.5t198.5 50.5q174 0 283.5 -124t109.5 -322zM907 637q0 105 -57 168t-148 63q-135 0 -222 -119t-87 -292q0 -104 57.5 -168t149.5 -64
q133 0 220 116.5t87 295.5z" />
    <glyph glyph-name="q" unicode="q" horiz-adv-x="1239" 
d="M47 430q0 190 73 347.5t200 247t280 89.5q114 0 198 -50t126 -146l32 176h250l-262 -1489h-272l100 565q-131 -188 -332 -188q-174 0 -283.5 124.5t-109.5 323.5zM332 459q0 -105 57 -168.5t148 -63.5q134 0 220.5 119.5t86.5 292.5q0 104 -56.5 167.5t-148.5 63.5
q-133 0 -220 -116t-87 -295z" />
    <glyph glyph-name="r" unicode="r" horiz-adv-x="811" 
d="M399 535l-94 -535h-272l192 1094h250l-37 -213q160 223 453 223l-51 -285q-186 22 -299 -47.5t-142 -236.5z" />
    <glyph glyph-name="s" unicode="s" horiz-adv-x="1077" 
d="M969 342q0 -160 -125.5 -261t-347.5 -101q-208 0 -338 107t-131 288h262q3 -86 62.5 -139.5t160.5 -53.5q82 0 135 33t53 94q0 51 -29.5 76t-95.5 39l-184 43q-122 27 -189 96.5t-67 198.5q0 108 62 188.5t166 122t235 41.5q198 0 314 -103t118 -278h-260
q-3 83 -53 130.5t-133 47.5q-82 0 -133.5 -33.5t-51.5 -93.5q0 -49 32 -76t91 -40l160 -37q137 -32 212 -98.5t75 -190.5z" />
    <glyph glyph-name="t" unicode="t" horiz-adv-x="833" 
d="M727 270l-41 -250q-87 -40 -205 -40q-172 0 -252 113.5t-45 305.5l80 457h-213l43 238h213l55 323h273l-55 -323h303l-43 -238h-303l-80 -457q-27 -163 121 -163q91 0 149 34z" />
    <glyph glyph-name="u" unicode="u" horiz-adv-x="1161" 
d="M745 479l111 615h272l-192 -1094h-250l29 160q-137 -180 -318 -180q-168 0 -252 122t-49 318l117 674h272l-106 -613q-21 -120 18 -187t125 -67q89 0 144.5 66t78.5 186z" />
    <glyph glyph-name="v" unicode="v" horiz-adv-x="1064" 
d="M1163 1094l-579 -1094h-293l-197 1094h275l118 -779l383 779h293z" />
    <glyph glyph-name="w" unicode="w" horiz-adv-x="1581" 
d="M903 0l-72 737l-327 -737h-283l-106 1094h264l55 -717l316 717h274l61 -717l306 717h268l-494 -1094h-262z" />
    <glyph glyph-name="x" unicode="x" horiz-adv-x="1118" 
d="M236 0h-308l475 590l-227 504h287l145 -371l277 371h299l-434 -562l247 -532h-290l-168 401z" />
    <glyph glyph-name="y" unicode="y" horiz-adv-x="1064" 
d="M1163 1094l-786 -1489h-297l229 407l-215 1082h275l131 -758l370 758h293z" />
    <glyph glyph-name="z" unicode="z" horiz-adv-x="1050" 
d="M883 0h-899l39 219l645 637h-533l41 238h887l-41 -228l-637 -628h539z" />
    <glyph glyph-name="braceleft" unicode="{" horiz-adv-x="671" 
d="M0 420l43 239q92 0 137.5 38t59.5 118l59 330q61 332 414 332q57 0 96 -7l-39 -239q-16 4 -45 4q-129 0 -150 -123l-57 -328q-19 -100 -80 -165t-159 -82q84 -26 122 -92.5t23 -157.5l-51 -324q-11 -57 16.5 -90t93.5 -33q11 0 39 4l-39 -239q-43 -6 -82 -6
q-169 0 -255 89.5t-60 241.5l57 332q14 83 -20 120.5t-123 37.5z" />
    <glyph glyph-name="bar" unicode="|" horiz-adv-x="667" 
d="M305 -395h-274l329 1865h275z" />
    <glyph glyph-name="braceright" unicode="}" horiz-adv-x="671" 
d="M668 657l-43 -239q-91 0 -137 -39t-60 -119l-57 -330q-59 -331 -414 -331q-63 0 -98 6l41 239q16 -6 43 -6q66 0 102.5 33.5t46.5 89.5l60 332q19 100 79 165t158 83q-84 26 -122.5 91t-24.5 156l55 324q9 57 -18 90t-93 33q-27 0 -41 -2l41 237q47 7 78 7
q170 0 258 -90.5t62 -241.5l-58 -332q-15 -81 18 -118.5t124 -37.5z" />
    <glyph glyph-name="asciitilde" unicode="~" horiz-adv-x="1351" 
d="M930 494q-63 0 -130.5 26t-115.5 56.5t-105 56.5t-102 26q-54 0 -81 -38t-34 -132h-231q4 186 100.5 302t245.5 116q64 0 131.5 -26t115 -57t105 -57t103.5 -26q54 0 79.5 36.5t32.5 133.5h232q-5 -184 -100 -300.5t-246 -116.5z" />
    <glyph glyph-name="nbspace" unicode="&#xa0;" horiz-adv-x="407" 
 />
    <glyph glyph-name="exclamdown" unicode="&#xa1;" horiz-adv-x="571" 
d="M543 952q0 -89 -66.5 -154t-157.5 -65q-73 0 -117 42.5t-44 107.5q0 89 67 154t158 65q70 0 115 -42t45 -108zM297 -395h-346l250 1046h207z" />
    <glyph glyph-name="cent" unicode="&#xa2;" 
d="M569 -162h-178l27 150q-164 33 -265.5 158.5t-101.5 302.5q0 268 150.5 454t382.5 209l30 166h181l-33 -176q153 -36 243 -160.5t91 -310.5h-283q-1 112 -51 174.5t-137 62.5q-127 0 -208 -113.5t-81 -287.5q0 -111 56 -177.5t149 -66.5q88 0 155 61t103 181h274
q-43 -201 -169 -327.5t-308 -151.5z" />
    <glyph glyph-name="sterling" unicode="&#xa3;" horiz-adv-x="1181" 
d="M319 170q-112 0 -124 -170h-230q10 318 228 373l47 252h-150l31 178h147l29 162q36 209 164 324.5t330 115.5q183 0 293 -112.5t110 -303.5h-289q0 168 -147 168q-72 0 -119 -50t-64 -144l-30 -160h321l-30 -178h-322l-45 -263q24 -13 87 -52.5t106.5 -58t85.5 -18.5
q60 0 87.5 42t32.5 133h226q-5 -199 -81.5 -311.5t-230.5 -112.5q-71 0 -143 29t-121 64t-104 64t-95 29z" />
    <glyph glyph-name="currency" unicode="&#xa4;" horiz-adv-x="1267" 
d="M594 260q-108 0 -186 43l-170 -147l-146 161l152 134q-39 65 -39 153q0 187 125 334l-105 131l170 162l123 -158q90 47 207 47q98 0 178 -39l172 148l154 -158l-156 -137q37 -70 37 -158q0 -188 -119 -330l103 -129l-172 -161l-121 151q-92 -47 -207 -47zM616 457
q115 0 193 85.5t78 207.5q0 78 -52 126t-135 48q-114 0 -191 -85t-77 -208q0 -81 50 -127.5t134 -46.5z" />
    <glyph glyph-name="yen" unicode="&#xa5;" horiz-adv-x="1198" 
d="M1075 285h-385l-49 -285h-276l49 285h-383l30 180h385l11 57l-23 72h-348l31 180h258l-189 608h283l166 -589l377 589h295l-406 -608h258l-31 -180h-348l-47 -72l-10 -57h383z" />
    <glyph glyph-name="brokenbar" unicode="&#xa6;" horiz-adv-x="667" 
d="M360 1470h275l-148 -827h-274zM178 432h275l-146 -825h-274z" />
    <glyph glyph-name="section" unicode="&#xa7;" horiz-adv-x="1114" 
d="M51 451q0 102 60.5 182.5t181.5 118.5q-131 92 -131 262q0 174 127.5 280.5t333.5 106.5q196 0 314 -113t120 -289h-262q-2 82 -56.5 136.5t-138.5 54.5q-80 0 -130 -40.5t-50 -107.5q0 -65 44 -103.5t138 -59.5l107 -25q167 -38 250 -114t83 -203q0 -104 -61 -186.5
t-186 -121.5q120 -89 120 -258q0 -174 -127 -280.5t-333 -106.5q-195 0 -312.5 113t-119.5 289h262q2 -84 55.5 -137.5t136.5 -53.5q82 0 132 40.5t50 107.5q0 130 -167 163l-105 25q-168 38 -252 114.5t-84 205.5zM305 487q0 -52 36.5 -87.5t90.5 -50.5t121 -15
q101 0 168 47.5t67 118.5q0 52 -38 87t-91.5 49.5t-117.5 14.5q-102 0 -169 -47t-67 -117z" />
    <glyph glyph-name="dieresis" unicode="&#xa8;" horiz-adv-x="1024" 
d="M1055 1376q0 -78 -60 -137t-139 -59q-64 0 -103.5 37.5t-39.5 95.5q0 80 59.5 137t142.5 57q62 0 101 -36.5t39 -94.5zM616 1376q0 -82 -58 -139t-140 -57q-64 0 -104 37.5t-40 95.5q0 78 59.5 136t139.5 58q65 0 104 -36t39 -95z" />
    <glyph glyph-name="copyright" unicode="&#xa9;" horiz-adv-x="1566" 
d="M694 -18q-263 0 -430.5 168.5t-167.5 433.5q0 163 67 315t178.5 262.5t264 177t316.5 66.5q263 0 431.5 -168t168.5 -434q0 -163 -67 -315t-179 -262.5t-265 -177t-317 -66.5zM709 125q132 0 252.5 53.5t208.5 144t140 216t52 264.5q0 210 -123.5 333.5t-333.5 123.5
q-175 0 -324.5 -90t-237 -246t-87.5 -340q0 -210 123.5 -334.5t329.5 -124.5zM979 633h172q-41 -145 -148 -230.5t-245 -85.5q-140 0 -224.5 84.5t-84.5 223.5q0 186 118.5 314t290.5 128q140 0 225 -84.5t91 -230.5h-175q0 77 -40.5 121.5t-110.5 44.5q-95 0 -161 -81.5
t-66 -201.5q0 -80 41 -124t114 -44q68 0 122.5 44t80.5 122z" />
    <glyph glyph-name="ordfeminine" unicode="&#xaa;" horiz-adv-x="835" 
d="M575 522l19 111q-87 -127 -252 -127q-116 0 -189 63.5t-73 165.5q0 134 111.5 215.5t295.5 81.5q60 0 146 -12l8 43q12 68 -20.5 111t-98.5 43q-141 0 -168 -146h-192q13 148 115.5 238t254.5 90q168 0 258 -94.5t64 -243.5l-94 -539h-185zM293 760q0 -40 34 -66t89 -26
q75 0 122.5 43t61.5 118l12 56q-47 10 -127 10q-93 0 -142.5 -35t-49.5 -100z" />
    <glyph glyph-name="guillemotleft" unicode="&#xab;" horiz-adv-x="1118" 
d="M551 127h-281l-235 420l356 420h307l-374 -441zM1006 117h-281l-233 420l354 419h309l-377 -438z" />
    <glyph glyph-name="logicalnot" unicode="&#xac;" horiz-adv-x="1351" 
d="M1116 360h-258l78 439h-709l43 237h965z" />
    <glyph glyph-name="softhyphen" unicode="&#xad;" horiz-adv-x="716" 
d="M641 438h-604l43 248h604z" />
    <glyph glyph-name="registered" unicode="&#xae;" horiz-adv-x="1566" 
d="M694 -18q-263 0 -430.5 168.5t-167.5 433.5q0 163 67 315t178.5 262.5t264 177t316.5 66.5q263 0 431.5 -168t168.5 -434q0 -163 -67 -315t-179 -262.5t-265 -177t-317 -66.5zM709 125q132 0 252.5 53.5t208.5 144t140 216t52 264.5q0 210 -123.5 333.5t-333.5 123.5
q-175 0 -324.5 -90t-237 -246t-87.5 -340q0 -210 123.5 -334.5t329.5 -124.5zM881 332l-123 248h-76l-43 -248h-166l127 721h279q116 0 182.5 -57t66.5 -150q0 -96 -59 -157.5t-147 -82.5l143 -274h-184zM848 913h-109l-32 -194h106q69 0 108.5 29t39.5 83q0 38 -29.5 60
t-83.5 22z" />
    <glyph glyph-name="macron" unicode="&#xaf;" horiz-adv-x="1024" 
d="M963 1208h-650l31 183h649z" />
    <glyph glyph-name="degree" unicode="&#xb0;" horiz-adv-x="940" 
d="M500 621q-168 0 -274.5 102t-106.5 264q0 211 143.5 352.5t355.5 141.5q167 0 274 -102.5t107 -264.5q0 -210 -144 -351.5t-355 -141.5zM520 815q107 0 180.5 83t73.5 204q0 83 -49 133.5t-127 50.5q-109 0 -182.5 -82.5t-73.5 -204.5q0 -83 49 -133.5t129 -50.5z" />
    <glyph glyph-name="plusminus" unicode="&#xb1;" horiz-adv-x="1351" 
d="M770 358h-254l68 383h-367l43 240h365l67 381h254l-65 -381h364l-43 -240h-364zM1071 0h-985l43 242h985z" />
    <glyph glyph-name="twosuperior" unicode="&#xb2;" horiz-adv-x="735" 
d="M803 1219l-29 -164h-622l18 102l319 248q95 74 139 124.5t44 102.5q0 45 -32 74t-83 29q-64 0 -104.5 -33t-51.5 -92h-176q23 132 113 210t240 78q124 0 203 -65.5t79 -163.5q0 -42 -12.5 -80.5t-31 -69t-51.5 -65.5t-63 -60.5t-77 -62.5l-138 -112h316z" />
    <glyph glyph-name="threesuperior" unicode="&#xb3;" horiz-adv-x="790" 
d="M860 1315q0 -120 -95.5 -194t-252.5 -74q-142 0 -229.5 72.5t-87.5 187.5h170q0 -51 43 -83t112 -32q68 0 108 31t40 82q0 52 -42 78t-114 26h-96l26 145h86q72 0 118 33t46 84q0 38 -28.5 60t-77.5 22q-56 0 -95 -28.5t-49 -79.5h-176q23 119 115 187.5t223 68.5
q125 0 203 -57t78 -152q0 -129 -158 -205q133 -52 133 -172z" />
    <glyph glyph-name="acute" unicode="&#xb4;" horiz-adv-x="1024" 
d="M672 1182h-293l252 311h327z" />
    <glyph glyph-name="micro" unicode="&#xb5;" horiz-adv-x="1171" 
d="M236 -395h-273l262 1491h273l-109 -615q-20 -115 19 -184.5t127 -69.5t145 66t78 186l110 617h273l-193 -1096h-250l27 160q-69 -93 -138 -136.5t-153 -43.5q-102 0 -158 75z" />
    <glyph glyph-name="paragraph" unicode="&#xb6;" horiz-adv-x="1464" 
d="M659 -395h-276l143 798q-193 12 -303 119.5t-110 282.5q0 178 83 310t229.5 200.5t338.5 68.5h809l-45 -245h-154l-272 -1534h-275l271 1534h-166z" />
    <glyph glyph-name="periodcentered" unicode="&#xb7;" horiz-adv-x="524" 
d="M451 584q0 -95 -66 -163.5t-156 -68.5q-71 0 -114 43t-43 111q0 93 65.5 161t157.5 68q70 0 113 -42t43 -109z" />
    <glyph glyph-name="cedilla" unicode="&#xb8;" horiz-adv-x="1024" 
d="M629 -223q0 -82 -69 -132.5t-183 -50.5t-178 51.5t-64 143.5h170q0 -31 18 -48t50 -17q34 0 52.5 17.5t18.5 49.5q0 37 -41 56.5t-96 11.5l74 174h135l-45 -101q158 -34 158 -155z" />
    <glyph glyph-name="onesuperior" unicode="&#xb9;" horiz-adv-x="481" 
d="M465 1055h-182l120 671h-167l26 160h350z" />
    <glyph glyph-name="ordmasculine" unicode="&#xba;" horiz-adv-x="952" 
d="M489 506q-164 0 -268 101.5t-104 262.5q0 144 66 266t179 192.5t246 70.5q164 0 267.5 -101.5t103.5 -261.5q0 -145 -65.5 -267t-178 -192.5t-246.5 -70.5zM514 711q99 0 167.5 87.5t68.5 215.5q0 83 -44.5 131.5t-121.5 48.5q-98 0 -166 -88t-68 -217q0 -84 44 -131
t120 -47z" />
    <glyph glyph-name="guillemotright" unicode="&#xbb;" horiz-adv-x="1114" 
d="M111 967h280l234 -420l-355 -420h-309l375 440zM565 967h281l235 -420l-356 -420h-307l373 440z" />
    <glyph glyph-name="onequarter" unicode="&#xbc;" horiz-adv-x="1513" 
d="M377 553h-182l120 672h-168l27 159h350zM322 0h-218l1002 1384h219zM1409 160h-125l-31 -160h-180l29 160h-420l23 135l542 536h154l-88 -520h125zM918 311h212l50 264z" />
    <glyph glyph-name="onehalf" unicode="&#xbd;" horiz-adv-x="1613" 
d="M377 553h-182l120 672h-168l27 159h350zM322 0h-218l1002 1384h219zM1495 164l-29 -164h-620l18 102l318 248q95 73 139.5 124.5t44.5 103.5q0 44 -32 73t-83 29q-64 0 -105 -33t-50 -92h-178q23 133 112.5 211t239.5 78q126 0 205 -66t79 -164q0 -42 -12.5 -80.5
t-31 -69t-51.5 -65.5t-63 -60.5t-77 -62.5l-139 -112h315z" />
    <glyph glyph-name="threequarters" unicode="&#xbe;" horiz-adv-x="1882" 
d="M772 813q0 -120 -95.5 -194t-252.5 -74q-142 0 -230 72.5t-88 187.5h170q0 -51 43.5 -83t112.5 -32q68 0 108 31t40 82q0 52 -42 78t-114 26h-96l26 146h86q72 0 118 32.5t46 83.5q0 38 -28.5 60t-77.5 22q-56 0 -95 -28.5t-49 -79.5h-176q23 119 115.5 187.5t222.5 68.5
q125 0 203 -57t78 -152q0 -129 -158 -205q133 -52 133 -172zM629 0h-217l1001 1384h219zM1780 160h-127l-29 -160h-180l29 160h-420l22 135l543 536h154l-89 -520h123zM1286 311h215l49 264z" />
    <glyph glyph-name="questiondown" unicode="&#xbf;" horiz-adv-x="1017" 
d="M412 885q0 88 67.5 152.5t159.5 64.5q72 0 118 -42.5t46 -107.5q0 -89 -69 -155t-161 -66q-72 0 -116.5 43.5t-44.5 110.5zM621 20h268q-44 -201 -181 -318.5t-350 -117.5q-190 0 -305.5 101.5t-115.5 253.5q0 208 231 370l151 105q76 53 104 102t36 135h176
q19 -80 20 -146t-32 -125t-103 -106l-149 -102q-74 -52 -108 -96t-34 -105q0 -59 44 -99t116 -40q87 0 147.5 47.5t84.5 140.5z" />
    <glyph glyph-name="Agrave" unicode="&#xc0;" horiz-adv-x="1443" 
d="M1024 1559h-252l-176 311h283zM1018 0l-51 322h-549l-166 -322h-322l795 1470h330l268 -1470h-305zM840 1139l-299 -578h389z" />
    <glyph glyph-name="Aacute" unicode="&#xc1;" horiz-adv-x="1443" 
d="M1051 1559h-293l252 311h327zM1018 0l-51 322h-549l-166 -322h-322l795 1470h330l268 -1470h-305zM840 1139l-299 -578h389z" />
    <glyph glyph-name="Acircumflex" unicode="&#xc2;" horiz-adv-x="1443" 
d="M770 1554h-321l329 318h336l219 -318h-284l-111 170zM1018 0l-51 322h-549l-166 -322h-322l795 1470h330l268 -1470h-305zM840 1139l-299 -578h389z" />
    <glyph glyph-name="Atilde" unicode="&#xc3;" horiz-adv-x="1443" 
d="M707 1554h-168q3 141 70 228.5t173 87.5q55 0 107 -27t97.5 -53.5t84.5 -26.5q76 0 82 123h170q-3 -140 -72 -228.5t-174 -88.5q-43 0 -85.5 17t-70.5 37t-64.5 37t-68.5 17q-75 0 -81 -123zM1018 0l-51 322h-549l-166 -322h-322l795 1470h330l268 -1470h-305zM840 1139
l-299 -578h389z" />
    <glyph glyph-name="Adieresis" unicode="&#xc4;" horiz-adv-x="1443" 
d="M1325 1753q0 -80 -59 -138.5t-140 -58.5q-64 0 -103.5 37t-39.5 95q0 81 59.5 137.5t143.5 56.5q62 0 100.5 -35.5t38.5 -93.5zM889 1753q0 -82 -59 -139.5t-142 -57.5q-63 0 -103 37.5t-40 94.5q0 79 59 136.5t141 57.5q65 0 104.5 -35.5t39.5 -93.5zM1018 0l-51 322
h-549l-166 -322h-322l795 1470h330l268 -1470h-305zM840 1139l-299 -578h389z" />
    <glyph glyph-name="Aring" unicode="&#xc5;" horiz-adv-x="1443" 
d="M913 1548q-103 0 -169 58t-66 151q0 123 88.5 208t214.5 85q104 0 171 -58.5t67 -150.5q0 -121 -90 -207t-216 -86zM928 1688q52 0 90.5 40.5t38.5 94.5q0 39 -25.5 64.5t-64.5 25.5q-53 0 -91 -41t-38 -98q0 -37 25.5 -61.5t64.5 -24.5zM1018 0l-51 322h-549l-166 -322
h-322l795 1470h330l268 -1470h-305zM840 1139l-299 -578h389z" />
    <glyph glyph-name="AE" unicode="&#xc6;" horiz-adv-x="1832" 
d="M831 322h-399l-201 -322h-342l965 1470h1040l-47 -260h-559l-57 -323h498l-46 -260h-499l-66 -367h572l-43 -260h-873zM872 561l113 643l-403 -643h290z" />
    <glyph glyph-name="Ccedilla" unicode="&#xc7;" horiz-adv-x="1540" 
d="M897 -223q0 -82 -69.5 -132.5t-184.5 -50.5q-114 0 -177 51.5t-63 143.5h170q0 -31 17.5 -48t48.5 -17q35 0 54.5 17.5t19.5 49.5q0 37 -41.5 56.5t-98.5 11.5l50 116q-236 31 -383.5 206t-147.5 427q0 188 64 354t174.5 284t264.5 186.5t329 68.5q179 0 316.5 -78.5
t213 -222.5t76.5 -334h-297q-6 172 -96.5 270.5t-243.5 98.5q-139 0 -252 -80.5t-176.5 -222t-63.5 -316.5q0 -170 96 -275t253 -105q152 0 265 94.5t173 271.5h295q-76 -288 -268.5 -454.5t-460.5 -178.5l-17 -37q160 -34 160 -155z" />
    <glyph glyph-name="Egrave" unicode="&#xc8;" horiz-adv-x="1196" 
d="M926 1559h-252l-176 311h282zM1055 260l-47 -260h-953l260 1470h940l-45 -260h-641l-57 -323h582l-45 -260h-582l-66 -367h654z" />
    <glyph glyph-name="Eacute" unicode="&#xc9;" horiz-adv-x="1196" 
d="M954 1559h-295l252 311h328zM1055 260l-47 -260h-953l260 1470h940l-45 -260h-641l-57 -323h582l-45 -260h-582l-66 -367h654z" />
    <glyph glyph-name="Ecircumflex" unicode="&#xca;" horiz-adv-x="1196" 
d="M672 1554h-320l328 318h338l217 -318h-283l-112 170zM1055 260l-47 -260h-953l260 1470h940l-45 -260h-641l-57 -323h582l-45 -260h-582l-66 -367h654z" />
    <glyph glyph-name="Edieresis" unicode="&#xcb;" horiz-adv-x="1196" 
d="M1229 1753q0 -80 -59.5 -138.5t-141.5 -58.5q-63 0 -103 37.5t-40 94.5q0 81 59 137.5t143 56.5q62 0 102 -35.5t40 -93.5zM791 1753q0 -82 -59 -139.5t-142 -57.5q-63 0 -102 37.5t-39 94.5q0 80 58 137t140 57q66 0 105 -35t39 -94zM1055 260l-47 -260h-953l260 1470
h940l-45 -260h-641l-57 -323h582l-45 -260h-582l-66 -367h654z" />
    <glyph glyph-name="Igrave" unicode="&#xcc;" horiz-adv-x="604" 
d="M594 1559h-252l-152 311h281zM356 0h-301l260 1470h301z" />
    <glyph glyph-name="Iacute" unicode="&#xcd;" horiz-adv-x="604" 
d="M637 1559h-297l233 311h328zM356 0h-301l260 1470h301z" />
    <glyph glyph-name="Icircumflex" unicode="&#xce;" horiz-adv-x="604" 
d="M371 1559h-310l301 311h328l191 -311h-277l-88 163zM356 0h-301l260 1470h301z" />
    <glyph glyph-name="Idieresis" unicode="&#xcf;" horiz-adv-x="604" 
d="M883 1753q0 -79 -57 -138t-136 -59q-61 0 -100 37.5t-39 94.5q0 81 57.5 137.5t139.5 56.5q61 0 98 -35t37 -94zM475 1753q0 -80 -58 -138.5t-141 -58.5q-60 0 -97.5 37.5t-37.5 94.5q0 79 57.5 136.5t137.5 57.5q62 0 100.5 -35.5t38.5 -93.5zM356 0h-301l260 1470h301z
" />
    <glyph glyph-name="Eth" unicode="&#xd0;" horiz-adv-x="1503" 
d="M635 0h-529l113 633h-190l43 248h190l105 589h495q272 0 444.5 -171.5t172.5 -442.5q0 -246 -108.5 -441.5t-301 -305t-434.5 -109.5zM803 633h-285l-65 -369h211q225 0 365 160t140 418q0 170 -95 267t-261 97h-192l-58 -325h283z" />
    <glyph glyph-name="Ntilde" unicode="&#xd1;" horiz-adv-x="1523" 
d="M741 1554h-168q1 140 69.5 228t174.5 88q55 0 107 -27t97.5 -53.5t84.5 -26.5q76 0 82 123h170q-3 -141 -72.5 -229t-175.5 -88q-43 0 -84.5 17t-70 37t-64.5 37t-68 17q-76 0 -82 -123zM981 0l-461 1040l-184 -1040h-281l260 1470h324l438 -991l176 991h283l-260 -1470
h-295z" />
    <glyph glyph-name="Ograve" unicode="&#xd2;" horiz-adv-x="1597" 
d="M1077 1559h-254l-174 311h283zM717 -31q-180 0 -323 82t-222.5 228t-79.5 329q0 188 65.5 353.5t179 284t272 187t337.5 68.5q272 0 448.5 -180t176.5 -459q0 -187 -65.5 -352.5t-179 -284t-272 -187.5t-337.5 -69zM750 236q143 0 260.5 81t184.5 223t67 316
q0 169 -96 274t-251 105q-144 0 -262 -81t-185 -223t-67 -317q0 -170 96 -274t253 -104z" />
    <glyph glyph-name="Oacute" unicode="&#xd3;" horiz-adv-x="1597" 
d="M1104 1559h-293l252 311h328zM717 -31q-180 0 -323 82t-222.5 228t-79.5 329q0 188 65.5 353.5t179 284t272 187t337.5 68.5q272 0 448.5 -180t176.5 -459q0 -187 -65.5 -352.5t-179 -284t-272 -187.5t-337.5 -69zM750 236q143 0 260.5 81t184.5 223t67 316
q0 169 -96 274t-251 105q-144 0 -262 -81t-185 -223t-67 -317q0 -170 96 -274t253 -104z" />
    <glyph glyph-name="Ocircumflex" unicode="&#xd4;" horiz-adv-x="1597" 
d="M823 1554h-321l329 318h336l219 -318h-284l-113 170zM717 -31q-180 0 -323 82t-222.5 228t-79.5 329q0 188 65.5 353.5t179 284t272 187t337.5 68.5q272 0 448.5 -180t176.5 -459q0 -187 -65.5 -352.5t-179 -284t-272 -187.5t-337.5 -69zM750 236q143 0 260.5 81
t184.5 223t67 316q0 169 -96 274t-251 105q-144 0 -262 -81t-185 -223t-67 -317q0 -170 96 -274t253 -104z" />
    <glyph glyph-name="Otilde" unicode="&#xd5;" horiz-adv-x="1597" 
d="M760 1554h-168q1 140 69.5 228t174.5 88q43 0 85.5 -16.5t71 -37t64 -37t67.5 -16.5q76 0 82 123h170q-3 -141 -72.5 -229t-175.5 -88q-54 0 -104.5 27t-96 54t-85.5 27q-76 0 -82 -123zM717 -31q-180 0 -323 82t-222.5 228t-79.5 329q0 188 65.5 353.5t179 284t272 187
t337.5 68.5q272 0 448.5 -180t176.5 -459q0 -187 -65.5 -352.5t-179 -284t-272 -187.5t-337.5 -69zM750 236q143 0 260.5 81t184.5 223t67 316q0 169 -96 274t-251 105q-144 0 -262 -81t-185 -223t-67 -317q0 -170 96 -274t253 -104z" />
    <glyph glyph-name="Odieresis" unicode="&#xd6;" horiz-adv-x="1597" 
d="M1378 1753q0 -79 -59 -138t-139 -59q-64 0 -104 37t-40 95q0 81 59.5 137.5t143.5 56.5q62 0 100.5 -35.5t38.5 -93.5zM942 1753q0 -82 -59 -139.5t-142 -57.5q-64 0 -103.5 37t-39.5 95q0 79 59.5 136.5t141.5 57.5q65 0 104 -35.5t39 -93.5zM717 -31q-180 0 -323 82
t-222.5 228t-79.5 329q0 188 65.5 353.5t179 284t272 187t337.5 68.5q272 0 448.5 -180t176.5 -459q0 -187 -65.5 -352.5t-179 -284t-272 -187.5t-337.5 -69zM750 236q143 0 260.5 81t184.5 223t67 316q0 169 -96 274t-251 105q-144 0 -262 -81t-185 -223t-67 -317
q0 -170 96 -274t253 -104z" />
    <glyph glyph-name="multiply" unicode="&#xd7;" horiz-adv-x="1351" 
d="M322 205l-152 164l373 336l-256 313l164 164l266 -326l356 324l160 -160l-373 -340l254 -313l-168 -162l-264 323z" />
    <glyph glyph-name="Oslash" unicode="&#xd8;" horiz-adv-x="1597" 
d="M305 0h-287l195 213q-121 169 -121 395q0 188 65.5 353.5t179 284t272 187t337.5 68.5q196 0 352 -100l66 69h285l-197 -217q119 -163 119 -391q0 -187 -65.5 -352.5t-179 -284t-272 -187.5t-337.5 -69q-196 0 -350 99zM401 614q0 -87 29 -163l672 733q-82 51 -187 51
q-144 0 -262 -81t-185 -223t-67 -317zM750 236q143 0 260.5 81t184.5 223t67 316q0 81 -27 160l-670 -731q76 -49 185 -49z" />
    <glyph glyph-name="Ugrave" unicode="&#xd9;" horiz-adv-x="1462" 
d="M1028 1559h-252l-176 311h283zM1479 1470l-160 -913q-105 -588 -651 -588q-132 0 -239.5 43.5t-177 120t-97 186.5t-4.5 238l161 913h301l-163 -921q-26 -142 39 -225.5t198 -83.5q141 0 221 75t109 236l162 919h301z" />
    <glyph glyph-name="Uacute" unicode="&#xda;" horiz-adv-x="1462" 
d="M1057 1559h-295l252 311h327zM1479 1470l-160 -913q-105 -588 -651 -588q-132 0 -239.5 43.5t-177 120t-97 186.5t-4.5 238l161 913h301l-163 -921q-26 -142 39 -225.5t198 -83.5q141 0 221 75t109 236l162 919h301z" />
    <glyph glyph-name="Ucircumflex" unicode="&#xdb;" horiz-adv-x="1462" 
d="M774 1554h-319l327 318h338l217 -318h-282l-113 170zM1479 1470l-160 -913q-105 -588 -651 -588q-132 0 -239.5 43.5t-177 120t-97 186.5t-4.5 238l161 913h301l-163 -921q-26 -142 39 -225.5t198 -83.5q141 0 221 75t109 236l162 919h301z" />
    <glyph glyph-name="Udieresis" unicode="&#xdc;" horiz-adv-x="1462" 
d="M1331 1753q0 -80 -59.5 -138.5t-141.5 -58.5q-63 0 -103 37.5t-40 94.5q0 81 59.5 137.5t143.5 56.5q62 0 101.5 -35.5t39.5 -93.5zM893 1753q0 -82 -59 -139.5t-142 -57.5q-63 0 -102 37.5t-39 94.5q0 80 58.5 137t140.5 57q65 0 104 -35.5t39 -93.5zM1479 1470
l-160 -913q-105 -588 -651 -588q-132 0 -239.5 43.5t-177 120t-97 186.5t-4.5 238l161 913h301l-163 -921q-26 -142 39 -225.5t198 -83.5q141 0 221 75t109 236l162 919h301z" />
    <glyph glyph-name="Yacute" unicode="&#xdd;" horiz-adv-x="1341" 
d="M977 1559h-295l252 311h328zM819 553l-98 -553h-301l98 553l-340 917h301l221 -639l451 639h338z" />
    <glyph glyph-name="Thorn" unicode="&#xde;" horiz-adv-x="1298" 
d="M612 246h-213l-43 -246h-301l260 1470h301l-43 -235h211q224 0 359 -114t135 -302q0 -266 -178.5 -419.5t-487.5 -153.5zM741 975h-217l-84 -469h219q144 0 229 73.5t85 196.5q0 92 -62.5 145.5t-169.5 53.5z" />
    <glyph glyph-name="germandbls" unicode="&#xdf;" horiz-adv-x="1265" 
d="M1192 459q0 -212 -146.5 -345.5t-383.5 -133.5q-83 0 -152 14l39 217q61 -10 104 -10q108 0 181 70.5t73 177.5q0 95 -58.5 145.5t-154.5 50.5h-69l39 225h49q103 0 174 66.5t71 171.5q0 73 -45 118.5t-116 45.5q-88 0 -142.5 -59t-72.5 -164l-187 -1049h-270l149 856
h-213l43 238h215q18 83 57.5 153t101 125.5t152 87t201.5 31.5q189 0 299.5 -100t110.5 -252q0 -132 -75.5 -231.5t-184.5 -135.5q211 -94 211 -313z" />
    <glyph glyph-name="agrave" unicode="&#xe0;" horiz-adv-x="1097" 
d="M762 1182h-252l-176 311h284zM662 0l24 139q-116 -159 -334 -159q-148 0 -236.5 79t-88.5 211q0 173 144 275t388 102q99 0 176 -12l13 63q17 91 -27 145t-135 54q-180 0 -217 -199h-248q20 195 151 305.5t342 110.5q206 0 315 -118.5t77 -307.5l-123 -688h-221zM291 303
q0 -59 42.5 -95t112.5 -36q93 0 162 58.5t86 154.5l15 80q-79 12 -162 12q-122 0 -189 -45.5t-67 -128.5z" />
    <glyph glyph-name="aacute" unicode="&#xe1;" horiz-adv-x="1097" 
d="M791 1182h-295l252 311h327zM662 0l24 139q-116 -159 -334 -159q-148 0 -236.5 79t-88.5 211q0 173 144 275t388 102q99 0 176 -12l13 63q17 91 -27 145t-135 54q-180 0 -217 -199h-248q20 195 151 305.5t342 110.5q206 0 315 -118.5t77 -307.5l-123 -688h-221zM291 303
q0 -59 42.5 -95t112.5 -36q93 0 162 58.5t86 154.5l15 80q-79 12 -162 12q-122 0 -189 -45.5t-67 -128.5z" />
    <glyph glyph-name="acircumflex" unicode="&#xe2;" horiz-adv-x="1097" 
d="M508 1180h-320l328 315h338l219 -315h-285l-112 168zM662 0l24 139q-116 -159 -334 -159q-148 0 -236.5 79t-88.5 211q0 173 144 275t388 102q99 0 176 -12l13 63q17 91 -27 145t-135 54q-180 0 -217 -199h-248q20 195 151 305.5t342 110.5q206 0 315 -118.5t77 -307.5
l-123 -688h-221zM291 303q0 -59 42.5 -95t112.5 -36q93 0 162 58.5t86 154.5l15 80q-79 12 -162 12q-122 0 -189 -45.5t-67 -128.5z" />
    <glyph glyph-name="atilde" unicode="&#xe3;" horiz-adv-x="1097" 
d="M446 1178h-170q3 141 71 229t173 88q44 0 87 -17t71 -37.5t64.5 -37.5t68.5 -17q76 0 82 123h168q-1 -139 -70.5 -228t-175.5 -89q-43 0 -85 17t-70 37t-64 37t-68 17q-76 0 -82 -122zM662 0l24 139q-116 -159 -334 -159q-148 0 -236.5 79t-88.5 211q0 173 144 275
t388 102q99 0 176 -12l13 63q17 91 -27 145t-135 54q-180 0 -217 -199h-248q20 195 151 305.5t342 110.5q206 0 315 -118.5t77 -307.5l-123 -688h-221zM291 303q0 -59 42.5 -95t112.5 -36q93 0 162 58.5t86 154.5l15 80q-79 12 -162 12q-122 0 -189 -45.5t-67 -128.5z" />
    <glyph glyph-name="adieresis" unicode="&#xe4;" horiz-adv-x="1097" 
d="M1065 1376q0 -78 -60 -137t-139 -59q-64 0 -104.5 37.5t-40.5 95.5q0 79 60.5 136.5t142.5 57.5q63 0 102 -36t39 -95zM627 1376q0 -82 -59 -139t-142 -57q-62 0 -101.5 37.5t-39.5 95.5q0 78 59 136t139 58q66 0 105 -36t39 -95zM662 0l24 139q-116 -159 -334 -159
q-148 0 -236.5 79t-88.5 211q0 173 144 275t388 102q99 0 176 -12l13 63q17 91 -27 145t-135 54q-180 0 -217 -199h-248q20 195 151 305.5t342 110.5q206 0 315 -118.5t77 -307.5l-123 -688h-221zM291 303q0 -59 42.5 -95t112.5 -36q93 0 162 58.5t86 154.5l15 80
q-79 12 -162 12q-122 0 -189 -45.5t-67 -128.5z" />
    <glyph glyph-name="aring" unicode="&#xe5;" horiz-adv-x="1097" 
d="M651 1174q-104 0 -169.5 57.5t-65.5 150.5q0 122 89 206.5t216 84.5q103 0 169 -58.5t66 -150.5q0 -121 -88.5 -205.5t-216.5 -84.5zM668 1311q51 0 90 41t39 96q0 37 -26.5 62.5t-65.5 25.5q-51 0 -89 -41t-38 -96q0 -38 25 -63t65 -25zM662 0l24 139
q-116 -159 -334 -159q-148 0 -236.5 79t-88.5 211q0 173 144 275t388 102q99 0 176 -12l13 63q17 91 -27 145t-135 54q-180 0 -217 -199h-248q20 195 151 305.5t342 110.5q206 0 315 -118.5t77 -307.5l-123 -688h-221zM291 303q0 -59 42.5 -95t112.5 -36q93 0 162 58.5
t86 154.5l15 80q-79 12 -162 12q-122 0 -189 -45.5t-67 -128.5z" />
    <glyph glyph-name="ae" unicode="&#xe6;" horiz-adv-x="1792" 
d="M27 270q0 172 142.5 273.5t389.5 101.5q85 0 176 -12l13 65q15 88 -32 143.5t-130 55.5q-180 0 -217 -199h-248q19 184 151 300t332 116q117 0 192 -36.5t126 -112.5q152 149 370 149q162 0 271.5 -83t150.5 -227.5t12 -326.5h-737q-6 -125 51.5 -194.5t167.5 -69.5
q150 0 215 160h281q-68 -202 -202.5 -297.5t-315.5 -95.5q-129 0 -231.5 55t-157.5 155q-55 -93 -164.5 -151.5t-261.5 -58.5q-158 0 -251 76.5t-93 213.5zM1288 899q-104 0 -176 -67t-102 -179h465q6 109 -42.5 177.5t-144.5 68.5zM291 303q0 -62 42.5 -96.5t112.5 -34.5
q94 0 161.5 60t86.5 155l15 74q-89 12 -162 12q-121 0 -188.5 -43.5t-67.5 -126.5z" />
    <glyph glyph-name="ccedilla" unicode="&#xe7;" 
d="M711 -223q0 -82 -69.5 -132.5t-184.5 -50.5q-113 0 -176.5 51.5t-63.5 143.5h170q0 -31 18 -48t50 -17q34 0 52.5 17.5t18.5 49.5q0 37 -41 56.5t-98 11.5l53 127q-172 25 -280.5 152.5t-108.5 310.5q0 188 76.5 340t212.5 238.5t305 86.5q203 0 326.5 -131t124.5 -352
h-283q-1 112 -51 174.5t-137 62.5q-127 0 -208 -113.5t-81 -287.5q0 -111 56 -177.5t149 -66.5q88 0 155 61t103 181h274q-41 -204 -174.5 -333.5t-325.5 -149.5l-22 -50q160 -34 160 -155z" />
    <glyph glyph-name="egrave" unicode="&#xe8;" 
d="M778 1182h-254l-174 311h283zM535 -20q-135 0 -244 55.5t-174.5 164.5t-65.5 253q0 188 77 339.5t212 236.5t301 85q99 0 180 -32t135 -89.5t88.5 -137.5t40.5 -175t-10 -203h-739v-8q0 -123 57.5 -189.5t163.5 -66.5q153 0 215 160h279q-64 -199 -197.5 -296t-318.5 -97
zM639 899q-104 0 -175.5 -67t-103.5 -179h465q6 108 -43 177t-143 69z" />
    <glyph glyph-name="eacute" unicode="&#xe9;" 
d="M805 1182h-293l252 311h328zM535 -20q-135 0 -244 55.5t-174.5 164.5t-65.5 253q0 188 77 339.5t212 236.5t301 85q99 0 180 -32t135 -89.5t88.5 -137.5t40.5 -175t-10 -203h-739v-8q0 -123 57.5 -189.5t163.5 -66.5q153 0 215 160h279q-64 -199 -197.5 -296t-318.5 -97z
M639 899q-104 0 -175.5 -67t-103.5 -179h465q6 108 -43 177t-143 69z" />
    <glyph glyph-name="ecircumflex" unicode="&#xea;" 
d="M524 1180h-321l329 315h336l219 -315h-284l-113 168zM535 -20q-135 0 -244 55.5t-174.5 164.5t-65.5 253q0 188 77 339.5t212 236.5t301 85q99 0 180 -32t135 -89.5t88.5 -137.5t40.5 -175t-10 -203h-739v-8q0 -123 57.5 -189.5t163.5 -66.5q153 0 215 160h279
q-64 -199 -197.5 -296t-318.5 -97zM639 899q-104 0 -175.5 -67t-103.5 -179h465q6 108 -43 177t-143 69z" />
    <glyph glyph-name="edieresis" unicode="&#xeb;" 
d="M1079 1376q0 -79 -58.5 -137.5t-139.5 -58.5q-64 0 -104 37.5t-40 95.5q0 80 60 137t143 57q62 0 100.5 -36.5t38.5 -94.5zM643 1376q0 -82 -59 -139t-142 -57q-63 0 -103 38t-40 95q0 78 59.5 136t141.5 58q64 0 103.5 -36t39.5 -95zM535 -20q-135 0 -244 55.5
t-174.5 164.5t-65.5 253q0 188 77 339.5t212 236.5t301 85q99 0 180 -32t135 -89.5t88.5 -137.5t40.5 -175t-10 -203h-739v-8q0 -123 57.5 -189.5t163.5 -66.5q153 0 215 160h279q-64 -199 -197.5 -296t-318.5 -97zM639 899q-104 0 -175.5 -67t-103.5 -179h465
q6 108 -43 177t-143 69z" />
    <glyph glyph-name="igrave" unicode="&#xec;" horiz-adv-x="530" 
d="M485 1182h-252l-151 311h280zM305 0h-272l192 1094h273z" />
    <glyph glyph-name="iacute" unicode="&#xed;" horiz-adv-x="530" 
d="M530 1182h-297l234 311h326zM305 0h-272l192 1094h273z" />
    <glyph glyph-name="icircumflex" unicode="&#xee;" horiz-adv-x="530" 
d="M262 1182h-307l301 311h328l190 -311h-276l-90 164zM305 0h-272l192 1094h273z" />
    <glyph glyph-name="idieresis" unicode="&#xef;" horiz-adv-x="530" 
d="M776 1378q0 -79 -57.5 -138.5t-134.5 -59.5q-61 0 -100.5 38t-39.5 95q0 80 57.5 137t139.5 57q61 0 98 -36t37 -93zM367 1378q0 -82 -57.5 -140t-139.5 -58q-61 0 -98 37.5t-37 95.5q0 78 57 136t135 58q62 0 101 -35.5t39 -93.5zM305 0h-272l192 1094h273z" />
    <glyph glyph-name="eth" unicode="&#xf0;" horiz-adv-x="1185" 
d="M47 438q0 179 80 325.5t216.5 229t299.5 82.5q68 0 107 -20l-82 145l-289 -86l33 184l155 52l-65 120h289l30 -55l297 82l-37 -188l-170 -47l82 -154q144 -278 144 -467q0 -132 -49.5 -254t-132.5 -211t-198 -142.5t-241 -53.5q-207 0 -338 128t-131 330zM332 461
q0 -108 58 -172t155 -64q128 0 217.5 113.5t89.5 271.5q0 109 -58 173.5t-155 64.5q-128 0 -217.5 -114.5t-89.5 -272.5z" />
    <glyph glyph-name="ntilde" unicode="&#xf1;" horiz-adv-x="1179" 
d="M506 1178h-170q3 141 71 229t173 88q44 0 86.5 -17t71 -37.5t64.5 -37.5t68 -17q37 0 58 32t24 91h168q-1 -139 -71 -228t-175 -89q-43 0 -85.5 17t-70 37t-63 37t-67.5 17q-76 0 -82 -122zM412 598l-107 -598h-272l192 1094h250l-26 -158q132 178 329 178
q169 0 254 -122.5t51 -317.5l-118 -674h-273l109 612q20 122 -18 189t-130 67q-96 0 -157.5 -71t-83.5 -199z" />
    <glyph glyph-name="ograve" unicode="&#xf2;" horiz-adv-x="1183" 
d="M805 1182h-252l-176 311h282zM516 -20q-207 0 -338 128t-131 330q0 184 83 339.5t226.5 246t313.5 90.5q206 0 336.5 -127.5t130.5 -329.5q0 -184 -83.5 -340t-226.5 -246.5t-311 -90.5zM545 225q129 0 218 118.5t89 287.5q0 108 -58 172.5t-155 64.5q-129 0 -218 -119
t-89 -288q0 -108 58 -172t155 -64z" />
    <glyph glyph-name="oacute" unicode="&#xf3;" horiz-adv-x="1183" 
d="M834 1182h-295l252 311h327zM516 -20q-207 0 -338 128t-131 330q0 184 83 339.5t226.5 246t313.5 90.5q206 0 336.5 -127.5t130.5 -329.5q0 -184 -83.5 -340t-226.5 -246.5t-311 -90.5zM545 225q129 0 218 118.5t89 287.5q0 108 -58 172.5t-155 64.5q-129 0 -218 -119
t-89 -288q0 -108 58 -172t155 -64z" />
    <glyph glyph-name="ocircumflex" unicode="&#xf4;" horiz-adv-x="1183" 
d="M551 1180h-320l328 315h338l217 -315h-283l-112 168zM516 -20q-207 0 -338 128t-131 330q0 184 83 339.5t226.5 246t313.5 90.5q206 0 336.5 -127.5t130.5 -329.5q0 -184 -83.5 -340t-226.5 -246.5t-311 -90.5zM545 225q129 0 218 118.5t89 287.5q0 108 -58 172.5
t-155 64.5q-129 0 -218 -119t-89 -288q0 -108 58 -172t155 -64z" />
    <glyph glyph-name="otilde" unicode="&#xf5;" horiz-adv-x="1183" 
d="M489 1178h-170q3 141 70.5 229t173.5 88q43 0 86 -17t71.5 -37.5t65 -37.5t68.5 -17q74 0 80 123h170q-3 -139 -72.5 -228t-173.5 -89q-43 0 -85.5 17t-70.5 37t-63.5 37t-67.5 17q-76 0 -82 -122zM516 -20q-207 0 -338 128t-131 330q0 184 83 339.5t226.5 246
t313.5 90.5q206 0 336.5 -127.5t130.5 -329.5q0 -184 -83.5 -340t-226.5 -246.5t-311 -90.5zM545 225q129 0 218 118.5t89 287.5q0 108 -58 172.5t-155 64.5q-129 0 -218 -119t-89 -288q0 -108 58 -172t155 -64z" />
    <glyph glyph-name="odieresis" unicode="&#xf6;" horiz-adv-x="1183" 
d="M1108 1376q0 -78 -60 -137t-141 -59q-63 0 -103 38t-40 95q0 80 60 137t143 57q62 0 101.5 -36.5t39.5 -94.5zM670 1376q0 -82 -59 -139t-142 -57q-62 0 -101.5 37.5t-39.5 95.5q0 78 58.5 136t139.5 58q66 0 105 -36t39 -95zM516 -20q-207 0 -338 128t-131 330
q0 184 83 339.5t226.5 246t313.5 90.5q206 0 336.5 -127.5t130.5 -329.5q0 -184 -83.5 -340t-226.5 -246.5t-311 -90.5zM545 225q129 0 218 118.5t89 287.5q0 108 -58 172.5t-155 64.5q-129 0 -218 -119t-89 -288q0 -108 58 -172t155 -64z" />
    <glyph glyph-name="divide" unicode="&#xf7;" horiz-adv-x="1351" 
d="M956 1126q0 -95 -64.5 -162t-154.5 -67q-72 0 -115.5 42t-43.5 110q0 93 67 160t158 67q69 0 111 -41t42 -109zM1174 580h-986l43 237h986zM821 356q0 -94 -65 -161.5t-154 -67.5q-72 0 -115 41.5t-43 107.5q0 95 66.5 163.5t157.5 68.5q70 0 111.5 -42t41.5 -110z" />
    <glyph glyph-name="oslash" unicode="&#xf8;" horiz-adv-x="1183" 
d="M229 -2h-225l135 154q-92 122 -92 286q0 184 83 339.5t226.5 246t313.5 90.5q141 0 250 -61l36 41h228l-135 -156q88 -118 88 -281q0 -184 -83.5 -340t-226.5 -246.5t-311 -90.5q-137 0 -250 61zM332 461q0 -45 8 -76l401 461q-49 22 -102 22q-129 0 -218 -119t-89 -288z
M545 225q129 0 218 118.5t89 287.5q0 43 -8 74l-398 -459q51 -21 99 -21z" />
    <glyph glyph-name="ugrave" unicode="&#xf9;" horiz-adv-x="1161" 
d="M805 1182h-252l-176 311h282zM745 479l111 615h272l-192 -1094h-250l29 160q-137 -180 -318 -180q-168 0 -252 122t-49 318l117 674h272l-106 -613q-21 -120 18 -187t125 -67q89 0 144.5 66t78.5 186z" />
    <glyph glyph-name="uacute" unicode="&#xfa;" horiz-adv-x="1161" 
d="M834 1182h-295l252 311h327zM745 479l111 615h272l-192 -1094h-250l29 160q-137 -180 -318 -180q-168 0 -252 122t-49 318l117 674h272l-106 -613q-21 -120 18 -187t125 -67q89 0 144.5 66t78.5 186z" />
    <glyph glyph-name="ucircumflex" unicode="&#xfb;" horiz-adv-x="1161" 
d="M551 1180h-320l328 315h338l217 -315h-283l-112 168zM745 479l111 615h272l-192 -1094h-250l29 160q-137 -180 -318 -180q-168 0 -252 122t-49 318l117 674h272l-106 -613q-21 -120 18 -187t125 -67q89 0 144.5 66t78.5 186z" />
    <glyph glyph-name="udieresis" unicode="&#xfc;" horiz-adv-x="1161" 
d="M1108 1376q0 -78 -60 -137t-141 -59q-63 0 -103 38t-40 95q0 80 60 137t143 57q62 0 101.5 -36.5t39.5 -94.5zM670 1376q0 -82 -59 -139t-142 -57q-62 0 -101.5 37.5t-39.5 95.5q0 78 58.5 136t139.5 58q66 0 105 -36t39 -95zM745 479l111 615h272l-192 -1094h-250
l29 160q-137 -180 -318 -180q-168 0 -252 122t-49 318l117 674h272l-106 -613q-21 -120 18 -187t125 -67q89 0 144.5 66t78.5 186z" />
    <glyph glyph-name="yacute" unicode="&#xfd;" horiz-adv-x="1064" 
d="M791 1182h-295l252 311h327zM1163 1094l-786 -1489h-297l229 407l-215 1082h275l131 -758l370 758h293z" />
    <glyph glyph-name="thorn" unicode="&#xfe;" horiz-adv-x="1239" 
d="M1192 668q0 -191 -73 -349.5t-200 -248.5t-280 -90q-109 0 -189 52t-112 144l-102 -571h-273l328 1865h272l-96 -538q55 80 141.5 131t190.5 51q174 0 283.5 -124t109.5 -322zM907 637q0 105 -57 168t-148 63q-135 0 -222 -119t-87 -292q0 -103 57 -167.5t150 -64.5
q133 0 220 116.5t87 295.5z" />
    <glyph glyph-name="ydieresis" unicode="&#xff;" horiz-adv-x="1064" 
d="M1065 1376q0 -78 -60 -137t-141 -59q-63 0 -103 38t-40 95q0 80 60 137t143 57q62 0 101.5 -36.5t39.5 -94.5zM627 1376q0 -82 -59 -139t-142 -57q-62 0 -101.5 37.5t-39.5 95.5q0 78 58.5 136t139.5 58q66 0 105 -36t39 -95zM1163 1094l-786 -1489h-297l229 407
l-215 1082h275l131 -758l370 758h293z" />
    <glyph glyph-name="Amacron" unicode="&#x100;" horiz-adv-x="1443" 
d="M1235 1585h-649l30 180h648zM1018 0l-51 322h-549l-166 -322h-322l795 1470h330l268 -1470h-305zM840 1139l-299 -578h389z" />
    <glyph glyph-name="amacron" unicode="&#x101;" horiz-adv-x="1097" 
d="M973 1208h-649l30 183h650zM662 0l24 139q-116 -159 -334 -159q-148 0 -236.5 79t-88.5 211q0 173 144 275t388 102q99 0 176 -12l13 63q17 91 -27 145t-135 54q-180 0 -217 -199h-248q20 195 151 305.5t342 110.5q206 0 315 -118.5t77 -307.5l-123 -688h-221zM291 303
q0 -59 42.5 -95t112.5 -36q93 0 162 58.5t86 154.5l15 80q-79 12 -162 12q-122 0 -189 -45.5t-67 -128.5z" />
    <glyph glyph-name="Abreve" unicode="&#x102;" horiz-adv-x="1443" 
d="M1094 1872h194q-29 -158 -124 -241t-246 -83q-139 0 -227.5 88.5t-88.5 235.5h195q0 -72 34 -109t97 -37q65 0 109.5 38.5t56.5 107.5zM1018 0l-51 322h-549l-166 -322h-322l795 1470h330l268 -1470h-305zM840 1139l-299 -578h389z" />
    <glyph glyph-name="abreve" unicode="&#x103;" horiz-adv-x="1097" 
d="M834 1495h192q-28 -157 -123.5 -239t-245.5 -82q-140 0 -228.5 87t-88.5 234h195q0 -70 35 -107.5t98 -37.5q65 0 109.5 38.5t56.5 106.5zM662 0l24 139q-116 -159 -334 -159q-148 0 -236.5 79t-88.5 211q0 173 144 275t388 102q99 0 176 -12l13 63q17 91 -27 145
t-135 54q-180 0 -217 -199h-248q20 195 151 305.5t342 110.5q206 0 315 -118.5t77 -307.5l-123 -688h-221zM291 303q0 -59 42.5 -95t112.5 -36q93 0 162 58.5t86 154.5l15 80q-79 12 -162 12q-122 0 -189 -45.5t-67 -128.5z" />
    <glyph glyph-name="Aogonek" unicode="&#x104;" horiz-adv-x="1443" 
d="M1206 -201l-35 -182q-59 -20 -141 -20q-90 0 -141 46t-51 126q0 141 174 264l-45 289h-549l-166 -322h-322l795 1470h330l268 -1470h-184q-78 -75 -78 -145q0 -33 20 -51.5t56 -18.5q31 0 69 14zM840 1139l-299 -578h389z" />
    <glyph glyph-name="aogonek" unicode="&#x105;" horiz-adv-x="1097" 
d="M848 -201l-33 -182q-61 -20 -143 -20q-89 0 -141 46t-52 126q0 149 191 274l16 96q-116 -159 -334 -159q-148 0 -236.5 79t-88.5 211q0 173 144 275t388 102q99 0 176 -12l13 63q17 91 -27 145t-135 54q-180 0 -217 -199h-248q20 195 151 305.5t342 110.5
q206 0 315 -118.5t77 -307.5l-123 -688h-103q-78 -75 -78 -145q0 -33 20 -51.5t56 -18.5q35 0 70 14zM291 303q0 -59 42.5 -95t112.5 -36q93 0 162 58.5t86 154.5l15 80q-79 12 -162 12q-122 0 -189 -45.5t-67 -128.5z" />
    <glyph glyph-name="Cacute" unicode="&#x106;" horiz-adv-x="1540" 
d="M1081 1559h-293l252 311h328zM717 -31q-180 0 -323 82t-222.5 228t-79.5 329q0 188 64 354t174.5 284t264.5 186.5t329 68.5q179 0 316.5 -78.5t213 -222.5t76.5 -334h-297q-6 172 -96.5 270.5t-243.5 98.5q-139 0 -252 -80.5t-176.5 -222t-63.5 -316.5q0 -170 96 -275
t253 -105q152 0 265 94.5t173 271.5h295q-79 -299 -281.5 -466t-484.5 -167z" />
    <glyph glyph-name="cacute" unicode="&#x107;" 
d="M807 1182h-295l252 311h328zM514 -20q-199 0 -331 133t-132 336q0 188 76.5 340t212.5 238.5t305 86.5q203 0 326.5 -131t124.5 -352h-283q-1 112 -51 174.5t-137 62.5q-127 0 -208 -113.5t-81 -287.5q0 -111 56 -177.5t149 -66.5q88 0 155 61t103 181h274
q-45 -221 -195 -353t-364 -132z" />
    <glyph glyph-name="Ccaron" unicode="&#x10c;" horiz-adv-x="1540" 
d="M1106 1554h-338l-219 318h285l112 -170l168 170h320zM717 -31q-180 0 -323 82t-222.5 228t-79.5 329q0 188 64 354t174.5 284t264.5 186.5t329 68.5q179 0 316.5 -78.5t213 -222.5t76.5 -334h-297q-6 172 -96.5 270.5t-243.5 98.5q-139 0 -252 -80.5t-176.5 -222
t-63.5 -316.5q0 -170 96 -275t253 -105q152 0 265 94.5t173 271.5h295q-79 -299 -281.5 -466t-484.5 -167z" />
    <glyph glyph-name="ccaron" unicode="&#x10d;" 
d="M829 1180h-337l-218 315h283l113 -168l168 168h319zM514 -20q-199 0 -331 133t-132 336q0 188 76.5 340t212.5 238.5t305 86.5q203 0 326.5 -131t124.5 -352h-283q-1 112 -51 174.5t-137 62.5q-127 0 -208 -113.5t-81 -287.5q0 -111 56 -177.5t149 -66.5q88 0 155 61
t103 181h274q-45 -221 -195 -353t-364 -132z" />
    <glyph glyph-name="Dcaron" unicode="&#x10e;" horiz-adv-x="1452" 
d="M1006 1554h-338l-217 318h282l113 -170l168 170h319zM584 0h-529l260 1470h496q272 0 444 -171.5t172 -442.5q0 -184 -63.5 -343.5t-174.5 -272t-267.5 -176.5t-337.5 -64zM569 1206l-168 -942h211q225 0 365.5 160t140.5 418q0 170 -95 267t-261 97h-193z" />
    <glyph glyph-name="dcaron" unicode="&#x10f;" horiz-adv-x="1239" 
d="M47 430q0 190 73 347.5t200 247t280 89.5q111 0 190.5 -52t112.5 -144l98 552h273l-260 -1470h-252l31 170q-61 -88 -153.5 -138t-199.5 -50q-174 0 -283.5 124.5t-109.5 323.5zM1464 1155h-182l55 315h230zM332 459q0 -105 57 -168.5t148 -63.5q134 0 220.5 119.5
t86.5 292.5q0 104 -56.5 167.5t-148.5 63.5q-133 0 -220 -116t-87 -295z" />
    <glyph glyph-name="Dcroat" unicode="&#x110;" horiz-adv-x="1503" 
d="M635 0h-529l113 633h-190l43 248h190l105 589h495q272 0 444.5 -171.5t172.5 -442.5q0 -246 -108.5 -441.5t-301 -305t-434.5 -109.5zM803 633h-285l-65 -369h211q225 0 365 160t140 418q0 170 -95 267t-261 97h-192l-58 -325h283z" />
    <glyph glyph-name="dcroat" unicode="&#x111;" horiz-adv-x="1239" 
d="M47 430q0 190 73 347.5t200 247t280 89.5q111 0 190.5 -52t112.5 -144l51 286h-280l31 182h282l14 84h273l-14 -84h153l-31 -182h-155l-213 -1204h-252l31 170q-61 -88 -153.5 -138t-199.5 -50q-174 0 -283.5 124.5t-109.5 323.5zM332 459q0 -105 57 -168.5t148 -63.5
q134 0 220.5 119.5t86.5 292.5q0 104 -56.5 167.5t-148.5 63.5q-133 0 -220 -116t-87 -295z" />
    <glyph glyph-name="Emacron" unicode="&#x112;" horiz-adv-x="1196" 
d="M1137 1585h-650l31 180h649zM1055 260l-47 -260h-953l260 1470h940l-45 -260h-641l-57 -323h582l-45 -260h-582l-66 -367h654z" />
    <glyph glyph-name="emacron" unicode="&#x113;" 
d="M987 1208h-647l31 183h647zM535 -20q-135 0 -244 55.5t-174.5 164.5t-65.5 253q0 188 77 339.5t212 236.5t301 85q99 0 180 -32t135 -89.5t88.5 -137.5t40.5 -175t-10 -203h-739v-8q0 -123 57.5 -189.5t163.5 -66.5q153 0 215 160h279q-64 -199 -197.5 -296t-318.5 -97z
M639 899q-104 0 -175.5 -67t-103.5 -179h465q6 108 -43 177t-143 69z" />
    <glyph glyph-name="Edotaccent" unicode="&#x116;" horiz-adv-x="1196" 
d="M1022 1753q0 -80 -64 -138.5t-153 -58.5q-70 0 -113 38.5t-43 99.5q0 80 64 139t151 59q72 0 115 -38.5t43 -100.5zM1055 260l-47 -260h-953l260 1470h940l-45 -260h-641l-57 -323h582l-45 -260h-582l-66 -367h654z" />
    <glyph glyph-name="edotaccent" unicode="&#x117;" 
d="M874 1376q0 -80 -64 -138t-153 -58q-70 0 -112.5 39t-42.5 100q0 80 63.5 138.5t149.5 58.5q71 0 115 -39t44 -101zM535 -20q-135 0 -244 55.5t-174.5 164.5t-65.5 253q0 188 77 339.5t212 236.5t301 85q99 0 180 -32t135 -89.5t88.5 -137.5t40.5 -175t-10 -203h-739v-8
q0 -123 57.5 -189.5t163.5 -66.5q153 0 215 160h279q-64 -199 -197.5 -296t-318.5 -97zM639 899q-104 0 -175.5 -67t-103.5 -179h465q6 108 -43 177t-143 69z" />
    <glyph glyph-name="Eogonek" unicode="&#x118;" horiz-adv-x="1196" 
d="M903 -201l-33 -182q-61 -20 -143 -20q-89 0 -140.5 46t-51.5 126q0 124 131 231h-611l260 1470h940l-45 -260h-641l-57 -323h582l-45 -260h-582l-66 -367h654l-47 -260h-172q-78 -75 -78 -145q0 -33 20 -51.5t56 -18.5q34 0 69 14z" />
    <glyph glyph-name="eogonek" unicode="&#x119;" 
d="M535 -20q-135 0 -244 55.5t-174.5 164.5t-65.5 253q0 188 77 339.5t212 236.5t301 85q99 0 180 -32t135 -89.5t88.5 -137.5t40.5 -175t-10 -203h-739v-8q0 -123 57.5 -189.5t163.5 -66.5q153 0 215 160h279q-80 -248 -269 -340q-114 -88 -114 -178q0 -34 20 -52t55 -18
q32 0 70 14l-35 -182q-59 -20 -141 -20q-90 0 -141.5 46t-51.5 126q0 116 109 211h-18zM639 899q-104 0 -175.5 -67t-103.5 -179h465q6 108 -43 177t-143 69z" />
    <glyph glyph-name="Ecaron" unicode="&#x11a;" horiz-adv-x="1196" 
d="M977 1554h-338l-217 318h283l112 -170l168 170h320zM1055 260l-47 -260h-953l260 1470h940l-45 -260h-641l-57 -323h582l-45 -260h-582l-66 -367h654z" />
    <glyph glyph-name="ecaron" unicode="&#x11b;" 
d="M829 1180h-337l-220 315h285l113 -168l168 168h319zM535 -20q-135 0 -244 55.5t-174.5 164.5t-65.5 253q0 188 77 339.5t212 236.5t301 85q99 0 180 -32t135 -89.5t88.5 -137.5t40.5 -175t-10 -203h-739v-8q0 -123 57.5 -189.5t163.5 -66.5q153 0 215 160h279
q-64 -199 -197.5 -296t-318.5 -97zM639 899q-104 0 -175.5 -67t-103.5 -179h465q6 108 -43 177t-143 69z" />
    <glyph glyph-name="Gbreve" unicode="&#x11e;" horiz-adv-x="1583" 
d="M1145 1872h194q-29 -158 -124 -241t-246 -83q-139 0 -228.5 88.5t-89.5 235.5h197q0 -72 34 -109t97 -37q65 0 109.5 38.5t56.5 107.5zM739 -31q-188 0 -335.5 80.5t-229.5 226.5t-82 332q0 187 66 352.5t179.5 284t272 187.5t336.5 69q264 0 433 -146.5t188 -391.5h-307
q-13 127 -102 199.5t-232 72.5q-148 0 -268.5 -81t-188.5 -223t-68 -317t102.5 -284t266.5 -109q156 0 272 88t154 240h-410l41 242h732q-54 -386 -270.5 -604t-549.5 -218z" />
    <glyph glyph-name="gbreve" unicode="&#x11f;" horiz-adv-x="1214" 
d="M836 1495h194q-29 -158 -124.5 -239.5t-246.5 -81.5q-139 0 -228 87t-89 234h197q0 -70 34 -107.5t97 -37.5q65 0 109.5 38.5t56.5 106.5zM457 -416q-203 0 -327.5 109.5t-131.5 300.5h266q3 -90 58.5 -141.5t148.5 -51.5q101 0 167 60.5t87 183.5l29 166
q-56 -78 -142 -122t-184 -44q-170 0 -272.5 117t-102.5 311q0 171 74.5 319t201.5 235t275 87q103 0 180.5 -44.5t120.5 -129.5l25 154h252l-183 -1045q-41 -230 -178 -347.5t-364 -117.5zM332 500q0 -103 50 -162t138 -59q127 0 215 114t88 266q0 100 -53 157.5t-145 57.5
q-122 0 -207.5 -109t-85.5 -265z" />
    <glyph glyph-name="Gcommaaccent" unicode="&#x122;" horiz-adv-x="1583" 
d="M739 -31q-188 0 -335.5 80.5t-229.5 226.5t-82 332q0 187 66 352.5t179.5 284t272 187.5t336.5 69q264 0 433 -146.5t188 -391.5h-307q-13 127 -102 199.5t-232 72.5q-148 0 -268.5 -81t-188.5 -223t-68 -317t102.5 -284t266.5 -109q156 0 272 88t154 240h-410l41 242
h732q-54 -386 -270.5 -604t-549.5 -218zM872 -209q0 -88 -55.5 -152.5t-141 -90.5t-179.5 -13l18 105q155 -13 195 71q-63 -15 -105.5 9.5t-42.5 70.5q0 56 46 94.5t116 38.5q67 0 108 -37t41 -96z" />
    <glyph glyph-name="gcommaaccent" unicode="&#x123;" horiz-adv-x="1214" 
d="M510 1305q0 86 55 149t141.5 89.5t180.5 12.5l-17 -100q-156 10 -194 -74q19 7 43 7q45 0 74.5 -24.5t29.5 -61.5q0 -56 -46.5 -94t-117.5 -38q-65 0 -107 37t-42 97zM457 -416q-203 0 -327.5 109.5t-131.5 300.5h266q3 -90 58.5 -141.5t148.5 -51.5q101 0 167 60.5
t87 183.5l29 166q-56 -78 -142 -122t-184 -44q-170 0 -272.5 117t-102.5 311q0 171 74.5 319t201.5 235t275 87q103 0 180.5 -44.5t120.5 -129.5l25 154h252l-183 -1045q-41 -230 -178 -347.5t-364 -117.5zM332 500q0 -103 50 -162t138 -59q127 0 215 114t88 266
q0 100 -53 157.5t-145 57.5q-122 0 -207.5 -109t-85.5 -265z" />
    <glyph glyph-name="Imacron" unicode="&#x12a;" horiz-adv-x="604" 
d="M813 1585h-649l31 180h647zM356 0h-301l260 1470h301z" />
    <glyph glyph-name="imacron" unicode="&#x12b;" horiz-adv-x="530" 
d="M705 1208h-650l31 183h649zM305 0h-272l192 1094h273z" />
    <glyph glyph-name="Iogonek" unicode="&#x12e;" horiz-adv-x="604" 
d="M242 -201l-33 -182q-61 -20 -143 -20q-89 0 -141 46t-52 126q0 149 190 274l252 1427h301l-260 -1470h-182q-78 -78 -78 -145q0 -33 20 -51.5t56 -18.5q35 0 70 14z" />
    <glyph glyph-name="iogonek" unicode="&#x12f;" horiz-adv-x="530" 
d="M590 1376q0 -80 -63 -138t-152 -58q-70 0 -114 39.5t-44 99.5q0 79 64.5 138t150.5 59q71 0 114.5 -39t43.5 -101zM219 -201l-33 -182q-61 -20 -143 -20q-89 0 -141 46t-52 126q0 149 191 274l184 1051h273l-193 -1094h-153q-78 -75 -78 -145q0 -33 20 -51.5t56 -18.5
q34 0 69 14z" />
    <glyph glyph-name="Idotaccent" unicode="&#x130;" horiz-adv-x="604" 
d="M698 1753q0 -80 -64 -138.5t-153 -58.5q-70 0 -112.5 38.5t-42.5 99.5q0 80 63.5 139t149.5 59q72 0 115.5 -38.5t43.5 -100.5zM356 0h-301l260 1470h301z" />
    <glyph glyph-name="dotlessi" unicode="&#x131;" horiz-adv-x="530" 
d="M305 0h-272l192 1094h273z" />
    <glyph glyph-name="Kcommaaccent" unicode="&#x136;" horiz-adv-x="1339" 
d="M356 0h-301l260 1470h301l-116 -647l616 647h359l-701 -737l424 -733h-336l-387 674zM715 -209q0 -88 -56 -152.5t-142 -90.5t-179 -13l18 105q155 -13 195 71q-63 -15 -105.5 9.5t-42.5 70.5q0 56 45.5 94.5t116.5 38.5q67 0 108.5 -37t41.5 -96z" />
    <glyph glyph-name="kcommaaccent" unicode="&#x137;" horiz-adv-x="1124" 
d="M305 0h-272l260 1470h272l-149 -843l461 467h323l-536 -541l362 -553h-315l-318 508zM616 -209q0 -88 -55.5 -152.5t-141 -90.5t-179.5 -13l18 105q155 -13 195 71q-63 -15 -105.5 9.5t-42.5 70.5q0 56 46 94.5t116 38.5q67 0 108 -37t41 -96z" />
    <glyph glyph-name="Lacute" unicode="&#x139;" horiz-adv-x="1130" 
d="M623 1559h-295l254 311h325zM973 0h-918l260 1470h301l-215 -1198h619z" />
    <glyph glyph-name="lacute" unicode="&#x13a;" horiz-adv-x="530" 
d="M592 1559h-295l252 311h328zM305 0h-272l260 1470h272z" />
    <glyph glyph-name="Lcommaaccent" unicode="&#x13b;" horiz-adv-x="1130" 
d="M973 0h-918l260 1470h301l-215 -1198h619zM666 -238q0 -88 -56 -152.5t-142 -90.5t-179 -13l16 105q154 -13 197 72q-63 -15 -106.5 9.5t-43.5 69.5q0 57 46.5 95.5t117.5 38.5q66 0 108 -37.5t42 -96.5z" />
    <glyph glyph-name="lcommaaccent" unicode="&#x13c;" horiz-adv-x="530" 
d="M305 0h-272l260 1470h272zM289 -238q0 -88 -56 -152.5t-142 -90.5t-179 -13l16 105q155 -13 195 72q-63 -15 -105.5 9.5t-42.5 69.5q0 57 46 95.5t116 38.5q67 0 109.5 -37.5t42.5 -96.5z" />
    <glyph glyph-name="Lcaron" unicode="&#x13d;" horiz-adv-x="1130" 
d="M973 0h-918l260 1470h301l-215 -1198h619zM885 1155h-183l56 315h229z" />
    <glyph glyph-name="lcaron" unicode="&#x13e;" horiz-adv-x="530" 
d="M305 0h-272l260 1470h272zM756 1155h-183l56 315h227z" />
    <glyph glyph-name="Lslash" unicode="&#x141;" horiz-adv-x="1130" 
d="M973 0h-918l107 598l-201 -47l43 250l201 47l110 622h301l-98 -550l406 94l-43 -248l-408 -96l-72 -398h619z" />
    <glyph glyph-name="lslash" unicode="&#x142;" horiz-adv-x="530" 
d="M305 0h-272l110 621l-194 -41l37 237l198 43l109 610h272l-96 -546l190 41l-38 -242l-195 -41z" />
    <glyph glyph-name="Nacute" unicode="&#x143;" horiz-adv-x="1523" 
d="M1085 1559h-292l251 311h328zM981 0l-461 1040l-184 -1040h-281l260 1470h324l438 -991l176 991h283l-260 -1470h-295z" />
    <glyph glyph-name="nacute" unicode="&#x144;" horiz-adv-x="1179" 
d="M850 1182h-295l252 311h328zM412 598l-107 -598h-272l192 1094h250l-26 -158q132 178 329 178q169 0 254 -122.5t51 -317.5l-118 -674h-273l109 612q20 122 -18 189t-130 67q-96 0 -157.5 -71t-83.5 -199z" />
    <glyph glyph-name="Ncommaaccent" unicode="&#x145;" horiz-adv-x="1523" 
d="M981 0l-461 1040l-184 -1040h-281l260 1470h324l438 -991l176 991h283l-260 -1470h-295zM784 -209q0 -88 -56 -152.5t-141.5 -90.5t-178.5 -13l18 105q155 -13 195 71q-63 -15 -105.5 9.5t-42.5 70.5q0 56 45.5 94.5t116.5 38.5q67 0 108 -37t41 -96z" />
    <glyph glyph-name="ncommaaccent" unicode="&#x146;" horiz-adv-x="1179" 
d="M412 598l-107 -598h-272l192 1094h250l-26 -158q132 178 329 178q169 0 254 -122.5t51 -317.5l-118 -674h-273l109 612q20 122 -18 189t-130 67q-96 0 -157.5 -71t-83.5 -199zM629 -209q0 -88 -56 -152.5t-142 -90.5t-179 -13l18 105q155 -13 195 71q-63 -15 -105.5 9.5
t-42.5 70.5q0 56 45.5 94.5t116.5 38.5q67 0 108.5 -37t41.5 -96z" />
    <glyph glyph-name="Ncaron" unicode="&#x147;" horiz-adv-x="1523" 
d="M1110 1554h-338l-219 318h285l112 -170l168 170h320zM981 0l-461 1040l-184 -1040h-281l260 1470h324l438 -991l176 991h283l-260 -1470h-295z" />
    <glyph glyph-name="ncaron" unicode="&#x148;" horiz-adv-x="1179" 
d="M872 1180h-337l-218 315h283l113 -168l168 168h319zM412 598l-107 -598h-272l192 1094h250l-26 -158q132 178 329 178q169 0 254 -122.5t51 -317.5l-118 -674h-273l109 612q20 122 -18 189t-130 67q-96 0 -157.5 -71t-83.5 -199z" />
    <glyph glyph-name="Omacron" unicode="&#x14c;" horiz-adv-x="1597" 
d="M1286 1585h-647l31 180h647zM717 -31q-180 0 -323 82t-222.5 228t-79.5 329q0 188 65.5 353.5t179 284t272 187t337.5 68.5q272 0 448.5 -180t176.5 -459q0 -187 -65.5 -352.5t-179 -284t-272 -187.5t-337.5 -69zM750 236q143 0 260.5 81t184.5 223t67 316q0 169 -96 274
t-251 105q-144 0 -262 -81t-185 -223t-67 -317q0 -170 96 -274t253 -104z" />
    <glyph glyph-name="omacron" unicode="&#x14d;" horiz-adv-x="1183" 
d="M1016 1208h-649l30 183h650zM516 -20q-207 0 -338 128t-131 330q0 184 83 339.5t226.5 246t313.5 90.5q206 0 336.5 -127.5t130.5 -329.5q0 -184 -83.5 -340t-226.5 -246.5t-311 -90.5zM545 225q129 0 218 118.5t89 287.5q0 108 -58 172.5t-155 64.5q-129 0 -218 -119
t-89 -288q0 -108 58 -172t155 -64z" />
    <glyph glyph-name="Ohungarumlaut" unicode="&#x150;" horiz-adv-x="1597" 
d="M1272 1559h-268l268 311h284zM858 1559h-266l252 311h282zM717 -31q-180 0 -323 82t-222.5 228t-79.5 329q0 188 65.5 353.5t179 284t272 187t337.5 68.5q272 0 448.5 -180t176.5 -459q0 -187 -65.5 -352.5t-179 -284t-272 -187.5t-337.5 -69zM750 236q143 0 260.5 81
t184.5 223t67 316q0 169 -96 274t-251 105q-144 0 -262 -81t-185 -223t-67 -317q0 -170 96 -274t253 -104z" />
    <glyph glyph-name="ohungarumlaut" unicode="&#x151;" horiz-adv-x="1183" 
d="M1001 1182h-268l266 311h285zM588 1182h-269l252 311h283zM516 -20q-207 0 -338 128t-131 330q0 184 83 339.5t226.5 246t313.5 90.5q206 0 336.5 -127.5t130.5 -329.5q0 -184 -83.5 -340t-226.5 -246.5t-311 -90.5zM545 225q129 0 218 118.5t89 287.5q0 108 -58 172.5
t-155 64.5q-129 0 -218 -119t-89 -288q0 -108 58 -172t155 -64z" />
    <glyph glyph-name="OE" unicode="&#x152;" horiz-adv-x="2119" 
d="M92 604q0 188 61 354.5t166 285.5t251.5 188t312.5 69q125 0 220 -51t148 -145l31 165h893l-43 -260h-627l-57 -323h569l-45 -260h-571l-66 -367h641l-43 -260h-911l29 152q-189 -183 -428 -183q-237 0 -384 175.5t-147 459.5zM401 606q0 -171 75 -270.5t206 -99.5
q124 0 227 84t162 228.5t59 317.5q0 171 -74.5 270t-207.5 99q-120 0 -223 -84t-163.5 -229t-60.5 -316z" />
    <glyph glyph-name="oe" unicode="&#x153;" horiz-adv-x="1931" 
d="M47 438q0 184 83 339.5t226.5 246t313.5 90.5q122 0 213 -49t143 -139q74 91 178.5 139.5t227.5 48.5q162 0 271.5 -84t150 -228t10.5 -325h-738q-3 -126 54 -195t166 -69q153 0 215 160h280q-67 -200 -201 -296.5t-315 -96.5q-124 0 -224.5 57t-158.5 156
q-77 -100 -187 -156.5t-239 -56.5q-207 0 -338 128t-131 330zM1427 899q-103 0 -175.5 -67.5t-102.5 -178.5h463q8 108 -41 177t-144 69zM332 461q0 -108 58 -172t155 -64q129 0 218 118.5t89 287.5q0 108 -58 172.5t-155 64.5q-129 0 -218 -119t-89 -288z" />
    <glyph glyph-name="Racute" unicode="&#x154;" horiz-adv-x="1368" 
d="M967 1559h-293l252 311h327zM356 0h-301l260 1470h553q222 0 357 -112.5t135 -298.5q0 -185 -108 -314t-310 -184l287 -561h-332l-260 522h-191zM571 1219l-79 -443h241q155 0 239.5 65t84.5 185q0 93 -63.5 143t-184.5 50h-238z" />
    <glyph glyph-name="racute" unicode="&#x155;" horiz-adv-x="811" 
d="M745 1182h-294l251 311h328zM399 535l-94 -535h-272l192 1094h250l-37 -213q160 223 453 223l-51 -285q-186 22 -299 -47.5t-142 -236.5z" />
    <glyph glyph-name="Rcommaaccent" unicode="&#x156;" horiz-adv-x="1368" 
d="M356 0h-301l260 1470h553q222 0 357 -112.5t135 -298.5q0 -185 -108 -314t-310 -184l287 -561h-332l-260 522h-191zM571 1219l-79 -443h241q155 0 239.5 65t84.5 185q0 93 -63.5 143t-184.5 50h-238zM745 -209q0 -88 -56 -152.5t-141.5 -90.5t-178.5 -13l18 105
q155 -13 195 71q-63 -15 -105.5 9.5t-42.5 70.5q0 56 45.5 94.5t116.5 38.5q67 0 108 -37t41 -96z" />
    <glyph glyph-name="rcommaaccent" unicode="&#x157;" horiz-adv-x="811" 
d="M399 535l-94 -535h-272l192 1094h250l-37 -213q160 223 453 223l-51 -285q-186 22 -299 -47.5t-142 -236.5zM299 -209q0 -88 -56 -152.5t-142 -90.5t-179 -13l17 105q153 -13 196 71q-63 -15 -106 9.5t-43 70.5q0 56 46.5 94.5t117.5 38.5q66 0 107.5 -37t41.5 -96z" />
    <glyph glyph-name="Rcaron" unicode="&#x158;" horiz-adv-x="1368" 
d="M991 1554h-338l-219 318h285l112 -170l168 170h320zM356 0h-301l260 1470h553q222 0 357 -112.5t135 -298.5q0 -185 -108 -314t-310 -184l287 -561h-332l-260 522h-191zM571 1219l-79 -443h241q155 0 239.5 65t84.5 185q0 93 -63.5 143t-184.5 50h-238z" />
    <glyph glyph-name="rcaron" unicode="&#x159;" horiz-adv-x="811" 
d="M768 1180h-338l-219 315h285l112 -168l168 168h320zM399 535l-94 -535h-272l192 1094h250l-37 -213q160 223 453 223l-51 -285q-186 22 -299 -47.5t-142 -236.5z" />
    <glyph glyph-name="Sacute" unicode="&#x15a;" horiz-adv-x="1304" 
d="M901 1559h-293l252 311h328zM1204 451q0 -215 -154.5 -343t-414.5 -128q-271 0 -426.5 135.5t-157.5 373.5h297q1 -122 84 -195t219 -73q115 0 182.5 50t67.5 135q0 68 -41 106.5t-145 67.5l-209 61q-164 47 -250 147.5t-86 243.5q0 207 153 332t408 125
q239 0 385.5 -136t147.5 -362h-297q0 114 -71 187t-181 73q-115 0 -179.5 -50.5t-64.5 -139.5q0 -127 174 -174l219 -64q166 -47 253 -142t87 -230z" />
    <glyph glyph-name="sacute" unicode="&#x15b;" horiz-adv-x="1077" 
d="M764 1182h-295l254 311h328zM969 342q0 -160 -125.5 -261t-347.5 -101q-208 0 -338 107t-131 288h262q3 -86 62.5 -139.5t160.5 -53.5q82 0 135 33t53 94q0 51 -29.5 76t-95.5 39l-184 43q-122 27 -189 96.5t-67 198.5q0 108 62 188.5t166 122t235 41.5q198 0 314 -103
t118 -278h-260q-3 83 -53 130.5t-133 47.5q-82 0 -133.5 -33.5t-51.5 -93.5q0 -49 32 -76t91 -40l160 -37q137 -32 212 -98.5t75 -190.5z" />
    <glyph glyph-name="Scedilla" unicode="&#x15e;" horiz-adv-x="1304" 
d="M813 -223q0 -82 -69.5 -132.5t-184.5 -50.5q-114 0 -177 51.5t-63 143.5h170q0 -31 18 -48t50 -17q34 0 53 17.5t19 49.5q0 37 -41.5 56.5t-98.5 11.5l54 125q-231 23 -361 156t-131 349h297q1 -122 84 -195t219 -73q115 0 182.5 50t67.5 135q0 68 -41 106.5t-145 67.5
l-209 61q-164 47 -250 147.5t-86 243.5q0 207 153 332t408 125q239 0 385.5 -136t147.5 -362h-297q0 114 -71 187t-181 73q-115 0 -179.5 -50.5t-64.5 -139.5q0 -127 174 -174l219 -64q166 -47 253 -142t87 -230q0 -206 -142.5 -333.5t-385.5 -137.5l-23 -48
q160 -34 160 -155z" />
    <glyph glyph-name="scedilla" unicode="&#x15f;" horiz-adv-x="1077" 
d="M680 -223q0 -82 -69.5 -132.5t-184.5 -50.5q-114 0 -177 51.5t-63 143.5h170q0 -31 17.5 -48t48.5 -17q35 0 54.5 17.5t19.5 49.5q0 37 -41.5 56.5t-98.5 11.5l54 127q-173 21 -277.5 124.5t-105.5 264.5h262q3 -86 62.5 -139.5t160.5 -53.5q82 0 135 33t53 94
q0 51 -29.5 76t-95.5 39l-184 43q-122 27 -189 96.5t-67 198.5q0 108 62 188.5t166 122t235 41.5q198 0 314 -103t118 -278h-260q-3 83 -53 130.5t-133 47.5q-82 0 -133.5 -33.5t-51.5 -93.5q0 -49 32 -76t91 -40l160 -37q137 -32 212 -98.5t75 -190.5q0 -152 -112.5 -251
t-313.5 -109l-23 -50q160 -34 160 -155z" />
    <glyph glyph-name="Scaron" unicode="&#x160;" horiz-adv-x="1304" 
d="M926 1554h-338l-219 318h284l113 -170l168 170h319zM1204 451q0 -215 -154.5 -343t-414.5 -128q-271 0 -426.5 135.5t-157.5 373.5h297q1 -122 84 -195t219 -73q115 0 182.5 50t67.5 135q0 68 -41 106.5t-145 67.5l-209 61q-164 47 -250 147.5t-86 243.5q0 207 153 332
t408 125q239 0 385.5 -136t147.5 -362h-297q0 114 -71 187t-181 73q-115 0 -179.5 -50.5t-64.5 -139.5q0 -127 174 -174l219 -64q166 -47 253 -142t87 -230z" />
    <glyph glyph-name="scaron" unicode="&#x161;" horiz-adv-x="1077" 
d="M788 1180h-337l-220 315h285l113 -168l168 168h319zM969 342q0 -160 -125.5 -261t-347.5 -101q-208 0 -338 107t-131 288h262q3 -86 62.5 -139.5t160.5 -53.5q82 0 135 33t53 94q0 51 -29.5 76t-95.5 39l-184 43q-122 27 -189 96.5t-67 198.5q0 108 62 188.5t166 122
t235 41.5q198 0 314 -103t118 -278h-260q-3 83 -53 130.5t-133 47.5q-82 0 -133.5 -33.5t-51.5 -93.5q0 -49 32 -76t91 -40l160 -37q137 -32 212 -98.5t75 -190.5z" />
    <glyph glyph-name="Tcedilla" unicode="&#x162;" horiz-adv-x="1255" 
d="M682 0h-90l-31 -68q160 -34 160 -155q0 -82 -69.5 -132.5t-184.5 -50.5q-114 0 -177 51.5t-63 143.5h170q0 -65 66 -65q72 0 72 67q0 37 -41 56.5t-97 11.5l60 141h-76l211 1198h-447l48 272h1193l-47 -272h-446z" />
    <glyph glyph-name="tcedilla" unicode="&#x163;" horiz-adv-x="833" 
d="M639 -223q0 -82 -69 -132.5t-183 -50.5t-178 51.5t-64 143.5h170q0 -31 18 -48t50 -17q34 0 53 17.5t19 49.5q0 37 -41 56.5t-97 11.5l58 135q-119 32 -169.5 139t-21.5 266l80 457h-213l43 238h213l55 323h273l-55 -323h303l-43 -238h-303l-80 -457q-27 -163 121 -163
q91 0 149 34l-41 -250q-77 -37 -184 -40l-21 -48q158 -34 158 -155z" />
    <glyph glyph-name="Tcaron" unicode="&#x164;" horiz-adv-x="1255" 
d="M975 1554h-338l-219 318h284l113 -170l168 170h320zM682 0h-301l211 1198h-447l48 272h1193l-47 -272h-446z" />
    <glyph glyph-name="tcaron" unicode="&#x165;" horiz-adv-x="833" 
d="M834 1155h-183l58 315h227zM727 270l-41 -250q-87 -40 -205 -40q-172 0 -252 113.5t-45 305.5l80 457h-213l43 238h213l55 323h273l-55 -323h303l-43 -238h-303l-80 -457q-27 -163 121 -163q91 0 149 34z" />
    <glyph glyph-name="Umacron" unicode="&#x16a;" horiz-adv-x="1462" 
d="M1239 1585h-649l31 180h649zM1479 1470l-160 -913q-105 -588 -651 -588q-132 0 -239.5 43.5t-177 120t-97 186.5t-4.5 238l161 913h301l-163 -921q-26 -142 39 -225.5t198 -83.5q141 0 221 75t109 236l162 919h301z" />
    <glyph glyph-name="umacron" unicode="&#x16b;" horiz-adv-x="1161" 
d="M1016 1208h-649l30 183h650zM745 479l111 615h272l-192 -1094h-250l29 160q-137 -180 -318 -180q-168 0 -252 122t-49 318l117 674h272l-106 -613q-21 -120 18 -187t125 -67q89 0 144.5 66t78.5 186z" />
    <glyph glyph-name="Uring" unicode="&#x16e;" horiz-adv-x="1462" 
d="M918 1548q-103 0 -169.5 58t-66.5 151q0 123 88.5 208t216.5 85q103 0 169.5 -58.5t66.5 -150.5q0 -121 -89.5 -207t-215.5 -86zM932 1688q52 0 90.5 40.5t38.5 94.5q0 39 -25.5 64.5t-64.5 25.5q-53 0 -91 -41t-38 -98q0 -37 25.5 -61.5t64.5 -24.5zM1479 1470
l-160 -913q-105 -588 -651 -588q-132 0 -239.5 43.5t-177 120t-97 186.5t-4.5 238l161 913h301l-163 -921q-26 -142 39 -225.5t198 -83.5q141 0 221 75t109 236l162 919h301z" />
    <glyph glyph-name="uring" unicode="&#x16f;" horiz-adv-x="1161" 
d="M694 1174q-104 0 -169.5 57.5t-65.5 150.5q0 122 89 206.5t216 84.5q103 0 169 -58.5t66 -150.5q0 -121 -89.5 -205.5t-215.5 -84.5zM709 1311q52 0 90.5 40.5t38.5 96.5q0 37 -25.5 62.5t-64.5 25.5q-53 0 -91.5 -41t-38.5 -96q0 -37 26 -62.5t65 -25.5zM745 479
l111 615h272l-192 -1094h-250l29 160q-137 -180 -318 -180q-168 0 -252 122t-49 318l117 674h272l-106 -613q-21 -120 18 -187t125 -67q89 0 144.5 66t78.5 186z" />
    <glyph glyph-name="Uhungarumlaut" unicode="&#x170;" horiz-adv-x="1462" 
d="M1225 1559h-271l269 311h284zM809 1559h-266l252 311h282zM1479 1470l-160 -913q-105 -588 -651 -588q-132 0 -239.5 43.5t-177 120t-97 186.5t-4.5 238l161 913h301l-163 -921q-26 -142 39 -225.5t198 -83.5q141 0 221 75t109 236l162 919h301z" />
    <glyph glyph-name="uhungarumlaut" unicode="&#x171;" horiz-adv-x="1161" 
d="M1001 1182h-268l266 311h285zM586 1182h-267l252 311h283zM745 479l111 615h272l-192 -1094h-250l29 160q-137 -180 -318 -180q-168 0 -252 122t-49 318l117 674h272l-106 -613q-21 -120 18 -187t125 -67q89 0 144.5 66t78.5 186z" />
    <glyph glyph-name="Uogonek" unicode="&#x172;" horiz-adv-x="1462" 
d="M1016 -201l-33 -182q-61 -20 -143 -20q-89 0 -141 46t-52 126q0 108 101 204q-54 -4 -80 -4q-132 0 -239.5 43.5t-177 120t-97 186.5t-4.5 238l161 913h301l-163 -921q-26 -142 39 -225.5t198 -83.5q141 0 221 75t109 236l162 919h301l-160 -913q-67 -383 -324 -516
q-60 -44 -92.5 -93t-32.5 -93q0 -33 20 -51.5t56 -18.5q32 0 70 14z" />
    <glyph glyph-name="uogonek" unicode="&#x173;" horiz-adv-x="1161" 
d="M745 479l111 615h272l-192 -1094h-129q-78 -75 -78 -145q0 -33 20 -51.5t56 -18.5q34 0 69 14l-32 -182q-61 -20 -144 -20q-89 0 -140.5 46t-51.5 126q0 147 188 272l21 119q-137 -180 -318 -180q-168 0 -252 122t-49 318l117 674h272l-106 -613q-21 -120 18 -187
t125 -67q89 0 144.5 66t78.5 186z" />
    <glyph glyph-name="Wcircumflex" unicode="&#x174;" horiz-adv-x="1921" 
d="M1001 1554h-321l328 318h338l219 -318h-285l-113 170zM1128 0l-79 1038l-447 -1038h-311l-103 1470h297l52 -1009l438 1009h287l71 -1013l410 1013h313l-626 -1470h-302z" />
    <glyph glyph-name="wcircumflex" unicode="&#x175;" horiz-adv-x="1581" 
d="M766 1180h-320l328 315h338l219 -315h-284l-113 168zM903 0l-72 737l-327 -737h-283l-106 1094h264l55 -717l316 717h274l61 -717l306 717h268l-494 -1094h-262z" />
    <glyph glyph-name="Ycircumflex" unicode="&#x176;" horiz-adv-x="1341" 
d="M694 1554h-319l327 318h338l217 -318h-282l-113 170zM819 553l-98 -553h-301l98 553l-340 917h301l221 -639l451 639h338z" />
    <glyph glyph-name="ycircumflex" unicode="&#x177;" horiz-adv-x="1064" 
d="M508 1180h-320l328 315h338l217 -315h-283l-112 168zM1163 1094l-786 -1489h-297l229 407l-215 1082h275l131 -758l370 758h293z" />
    <glyph glyph-name="Ydieresis" unicode="&#x178;" horiz-adv-x="1341" 
d="M1251 1753q0 -79 -59 -138t-139 -59q-64 0 -105 37.5t-41 94.5q0 81 59.5 137.5t143.5 56.5q63 0 102 -35.5t39 -93.5zM813 1753q0 -82 -59 -139.5t-142 -57.5q-63 0 -102 37.5t-39 94.5q0 79 59.5 136.5t139.5 57.5q66 0 104.5 -35t38.5 -94zM819 553l-98 -553h-301
l98 553l-340 917h301l221 -639l451 639h338z" />
    <glyph glyph-name="Zacute" unicode="&#x179;" horiz-adv-x="1277" 
d="M969 1559h-295l252 311h327zM1104 0h-1118l43 240l872 970h-696l45 260h1091l-43 -241l-870 -969h721z" />
    <glyph glyph-name="zacute" unicode="&#x17a;" horiz-adv-x="1050" 
d="M786 1182h-294l251 311h328zM883 0h-899l39 219l645 637h-533l41 238h887l-41 -228l-637 -628h539z" />
    <glyph glyph-name="Zdotaccent" unicode="&#x17b;" horiz-adv-x="1277" 
d="M1036 1753q0 -80 -64 -138.5t-153 -58.5q-70 0 -112.5 38.5t-42.5 99.5q0 80 64 139t151 59q70 0 113.5 -38.5t43.5 -100.5zM1104 0h-1118l43 240l872 970h-696l45 260h1091l-43 -241l-870 -969h721z" />
    <glyph glyph-name="zdotaccent" unicode="&#x17c;" horiz-adv-x="1050" 
d="M854 1376q0 -80 -63 -138t-152 -58q-70 0 -114 39.5t-44 99.5q0 80 63.5 138.5t151.5 58.5q71 0 114.5 -39t43.5 -101zM883 0h-899l39 219l645 637h-533l41 238h887l-41 -228l-637 -628h539z" />
    <glyph glyph-name="Zcaron" unicode="&#x17d;" horiz-adv-x="1277" 
d="M991 1554h-338l-219 318h285l112 -170l168 170h320zM1104 0h-1118l43 240l872 970h-696l45 260h1091l-43 -241l-870 -969h721z" />
    <glyph glyph-name="zcaron" unicode="&#x17e;" horiz-adv-x="1050" 
d="M809 1180h-338l-217 315h283l112 -168l168 168h320zM883 0h-899l39 219l645 637h-533l41 238h887l-41 -228l-637 -628h539z" />
    <glyph glyph-name="florin" unicode="&#x192;" horiz-adv-x="1089" 
d="M674 580l-133 -326q-84 -208 -197 -293.5t-307 -85.5q-68 0 -109 10l43 254q35 -14 82 -14q76 0 127 40t86 128l113 287h-279l41 237h334l96 240q71 182 178.5 265t276.5 83q88 0 152 -25l-37 -219q-41 23 -94 23q-73 0 -120 -42t-79 -126l-78 -199h260l-43 -237h-313z
" />
    <glyph glyph-name="Scommaaccent" unicode="&#x218;" horiz-adv-x="1304" 
d="M1204 451q0 -215 -154.5 -343t-414.5 -128q-271 0 -426.5 135.5t-157.5 373.5h297q1 -122 84 -195t219 -73q115 0 182.5 50t67.5 135q0 68 -41 106.5t-145 67.5l-209 61q-164 47 -250 147.5t-86 243.5q0 207 153 332t408 125q239 0 385.5 -136t147.5 -362h-297
q0 114 -71 187t-181 73q-115 0 -179.5 -50.5t-64.5 -139.5q0 -127 174 -174l219 -64q166 -47 253 -142t87 -230zM743 -209q0 -88 -56 -152.5t-141.5 -90.5t-178.5 -13l18 105q155 -13 195 71q-63 -15 -105.5 9.5t-42.5 70.5q0 56 45.5 94.5t116.5 38.5q67 0 108 -37t41 -96z
" />
    <glyph glyph-name="scommaaccent" unicode="&#x219;" horiz-adv-x="1077" 
d="M969 342q0 -160 -125.5 -261t-347.5 -101q-208 0 -338 107t-131 288h262q3 -86 62.5 -139.5t160.5 -53.5q82 0 135 33t53 94q0 51 -29.5 76t-95.5 39l-184 43q-122 27 -189 96.5t-67 198.5q0 108 62 188.5t166 122t235 41.5q198 0 314 -103t118 -278h-260
q-3 83 -53 130.5t-133 47.5q-82 0 -133.5 -33.5t-51.5 -93.5q0 -49 32 -76t91 -40l160 -37q137 -32 212 -98.5t75 -190.5zM610 -209q0 -88 -56 -152.5t-142 -90.5t-179 -13l19 105q154 -13 194 71q-63 -15 -105 9.5t-42 70.5q0 56 45.5 94.5t116.5 38.5q67 0 108 -37t41 -96
z" />
    <glyph glyph-name="Tcommaaccent" unicode="&#x21a;" horiz-adv-x="1255" 
d="M682 0h-301l211 1198h-447l48 272h1193l-47 -272h-446zM651 -209q0 -88 -56 -152.5t-142 -90.5t-179 -13l19 105q151 -13 194 71q-63 -15 -105 9.5t-42 70.5q0 56 45.5 94.5t116.5 38.5q67 0 108 -37t41 -96z" />
    <glyph glyph-name="tcommaaccent" unicode="&#x21b;" horiz-adv-x="833" 
d="M727 270l-41 -250q-87 -40 -205 -40q-172 0 -252 113.5t-45 305.5l80 457h-213l43 238h213l55 323h273l-55 -323h303l-43 -238h-303l-80 -457q-27 -163 121 -163q91 0 149 34zM571 -209q0 -88 -56 -152.5t-141.5 -90.5t-178.5 -13l16 105q154 -13 197 71
q-63 -15 -106.5 10t-43.5 70q0 56 46.5 94.5t117.5 38.5q66 0 107.5 -37t41.5 -96z" />
    <glyph glyph-name="dotlessj" unicode="&#x237;" horiz-adv-x="520" 
d="M487 1094l-194 -1094q-35 -197 -133 -306.5t-283 -109.5q-85 0 -162 23l45 258q42 -25 103 -25q69 0 106 41.5t51 124.5l195 1088h272z" />
    <glyph glyph-name="circumflex" unicode="&#x2c6;" horiz-adv-x="1024" 
d="M512 1180h-319l327 315h338l219 -315h-284l-113 168z" />
    <glyph glyph-name="caron" unicode="&#x2c7;" horiz-adv-x="1024" 
d="M805 1180h-338l-217 315h282l113 -168l168 168h320z" />
    <glyph glyph-name="macronmod" unicode="&#x2c9;" horiz-adv-x="1038" 
d="M956 1186h-647l29 180h649z" />
    <glyph glyph-name="breve" unicode="&#x2d8;" horiz-adv-x="1024" 
d="M838 1495h192q-28 -157 -123 -239t-245 -82q-140 0 -229 87t-89 234h195q0 -70 35 -107.5t98 -37.5q64 0 109 38.5t57 106.5z" />
    <glyph glyph-name="dotaccent" unicode="&#x2d9;" horiz-adv-x="1024" 
d="M846 1376q0 -80 -64 -138t-153 -58q-70 0 -113 39t-43 100q0 80 63.5 138.5t149.5 58.5q72 0 116 -39t44 -101z" />
    <glyph glyph-name="ring" unicode="&#x2da;" horiz-adv-x="1024" 
d="M635 1174q-102 0 -169 57.5t-67 150.5q0 121 90 206t216 85q104 0 169.5 -58.5t65.5 -150.5q0 -121 -88.5 -205.5t-216.5 -84.5zM651 1311q51 0 90 41t39 96q0 37 -25.5 62.5t-64.5 25.5q-52 0 -90.5 -40.5t-38.5 -96.5q0 -38 25 -63t65 -25z" />
    <glyph glyph-name="ogonek" unicode="&#x2db;" horiz-adv-x="1024" 
d="M569 -201l-32 -182q-61 -20 -144 -20q-89 0 -140.5 46t-51.5 126q0 189 315 346l78 -43q-80 -50 -125 -107.5t-45 -109.5q0 -33 20 -51.5t56 -18.5q34 0 69 14z" />
    <glyph glyph-name="tilde" unicode="&#x2dc;" horiz-adv-x="1024" 
d="M438 1178h-170q3 141 70.5 229t173.5 88q43 0 86 -17t71.5 -37.5t65 -37.5t68.5 -17q74 0 80 123h170q-3 -139 -72.5 -228t-173.5 -89q-43 0 -85.5 17t-70.5 37t-64.5 37t-68.5 17q-77 0 -80 -122z" />
    <glyph glyph-name="hungarumlaut" unicode="&#x2dd;" horiz-adv-x="1024" 
d="M862 1182h-270l268 311h285zM446 1182h-266l252 311h283z" />
    <glyph glyph-name="gravecomb" unicode="&#x300;" horiz-adv-x="1040" 
d="M872 1182h-251l-177 311h283z" />
    <glyph glyph-name="acutecomb" unicode="&#x301;" horiz-adv-x="1038" 
d="M672 1182h-293l252 311h327z" />
    <glyph glyph-name="circumflexcomb" unicode="&#x302;" horiz-adv-x="1046" 
d="M512 1180h-319l327 315h338l219 -315h-284l-113 168z" />
    <glyph glyph-name="tildecomb" unicode="&#x303;" horiz-adv-x="1040" 
d="M438 1178h-170q3 141 70.5 229t173.5 88q43 0 86 -17t71.5 -37.5t65 -37.5t68.5 -17q74 0 80 123h170q-3 -139 -72.5 -228t-173.5 -89q-43 0 -85.5 17t-70.5 37t-64.5 37t-68.5 17q-77 0 -80 -122z" />
    <glyph glyph-name="macroncomb" unicode="&#x304;" horiz-adv-x="1040" 
d="M963 1208h-650l31 183h649z" />
    <glyph glyph-name="brevecomb" unicode="&#x306;" horiz-adv-x="1040" 
d="M838 1495h192q-28 -157 -123 -239t-245 -82q-140 0 -229 87t-89 234h195q0 -70 35 -107.5t98 -37.5q64 0 109 38.5t57 106.5z" />
    <glyph glyph-name="dotaccentcomb" unicode="&#x307;" horiz-adv-x="1036" 
d="M846 1376q0 -80 -64 -138t-153 -58q-70 0 -113 39t-43 100q0 80 63.5 138.5t149.5 58.5q72 0 116 -39t44 -101z" />
    <glyph glyph-name="dieresiscomb" unicode="&#x308;" horiz-adv-x="1044" 
d="M1055 1376q0 -78 -60 -137t-139 -59q-64 0 -103.5 37.5t-39.5 95.5q0 80 59.5 137t142.5 57q62 0 101 -36.5t39 -94.5zM616 1376q0 -82 -58 -139t-140 -57q-64 0 -104 37.5t-40 95.5q0 78 59.5 136t139.5 58q65 0 104 -36t39 -95z" />
    <glyph glyph-name="ringcomb" unicode="&#x30a;" horiz-adv-x="1036" 
d="M635 1174q-102 0 -169 57.5t-67 150.5q0 121 90 206t216 85q104 0 169.5 -58.5t65.5 -150.5q0 -121 -88.5 -205.5t-216.5 -84.5zM651 1311q51 0 90 41t39 96q0 37 -25.5 62.5t-64.5 25.5q-52 0 -90.5 -40.5t-38.5 -96.5q0 -38 25 -63t65 -25z" />
    <glyph glyph-name="hungarumlautcomb" unicode="&#x30b;" horiz-adv-x="1046" 
d="M862 1182h-270l268 311h285zM446 1182h-266l252 311h283z" />
    <glyph glyph-name="caroncomb" unicode="&#x30c;" horiz-adv-x="1046" 
d="M805 1180h-338l-217 315h282l113 -168l168 168h320z" />
    <glyph glyph-name="commaturnedabovecomb" unicode="&#x312;" horiz-adv-x="1034" 
d="M483 1305q0 86 55 149t141 89.5t181 12.5l-18 -100q-157 10 -193 -74q16 7 41 7q47 0 76 -24.5t29 -61.5q0 -56 -45.5 -94t-116.5 -38q-65 0 -107.5 37.5t-42.5 96.5z" />
    <glyph glyph-name="commaaccentcomb" unicode="&#x326;" horiz-adv-x="1034" 
d="M547 -209q0 -88 -56 -152.5t-142 -90.5t-179 -13l18 105q155 -13 195 71q-63 -15 -105 9.5t-42 70.5q0 56 45 94.5t116 38.5q67 0 108.5 -37t41.5 -96z" />
    <glyph glyph-name="cedillacomb" unicode="&#x327;" horiz-adv-x="1034" 
d="M629 -223q0 -82 -69 -132.5t-183 -50.5t-178 51.5t-64 143.5h170q0 -31 18 -48t50 -17q34 0 52.5 17.5t18.5 49.5q0 37 -41 56.5t-96 11.5l74 174h135l-45 -101q158 -34 158 -155z" />
    <glyph glyph-name="ogonekcomb" unicode="&#x328;" horiz-adv-x="1034" 
d="M569 -201l-32 -182q-61 -20 -144 -20q-89 0 -140.5 46t-51.5 126q0 189 315 346l78 -43q-80 -50 -125 -107.5t-45 -109.5q0 -33 20 -51.5t56 -18.5q34 0 69 14z" />
    <glyph glyph-name="strokeshortcomb" unicode="&#x335;" horiz-adv-x="1040" 
d="M989 1186h-710l30 180h711z" />
    <glyph glyph-name="slashshortcomb" unicode="&#x337;" horiz-adv-x="1036" 
d="M868 684l-673 -143l38 237l674 148z" />
    <glyph glyph-name="slashlongcomb" unicode="&#x338;" horiz-adv-x="1040" 
d="M156 0h-226l953 1094h227z" />
    <glyph glyph-name="Delta" unicode="&#x394;" horiz-adv-x="1425" 
d="M1307 0h-1379l795 1470h313zM834 1161l-478 -921h625z" />
    <glyph glyph-name="Omega" unicode="&#x3a9;" horiz-adv-x="1439" 
d="M547 0h-584l45 260l357 -20l14 77q-126 60 -202.5 183t-76.5 278q0 201 98 364.5t272 256t390 92.5q257 0 425.5 -149t168.5 -377q0 -215 -122 -385.5t-345 -260.5l-16 -79l360 20l-45 -260h-584l78 451q174 44 279.5 173.5t105.5 297.5q0 141 -92.5 228t-243.5 87
q-124 0 -225 -60t-158 -165.5t-57 -233.5q0 -122 63 -209t175 -118z" />
    <glyph glyph-name="mu" unicode="&#x3bc;" horiz-adv-x="1173" 
d="M453 -20q-109 0 -164 77l-56 -452h-270l262 1489h273l-109 -613q-21 -116 17.5 -185t128.5 -69q89 0 144.5 66t78.5 186l110 615h273l-193 -1094h-250l27 160q-117 -180 -272 -180z" />
    <glyph glyph-name="pi" unicode="&#x3c0;" horiz-adv-x="1228" 
d="M924 -20q-153 0 -223.5 96t-41.5 264l91 516h-218l-202 -856h-273l228 856h-234l43 238h1182l-43 -238h-211l-80 -459q-15 -80 7.5 -117.5t86.5 -37.5q49 0 86 16l-43 -250q-89 -28 -155 -28z" />
    <glyph glyph-name="Wgrave" unicode="&#x1e80;" horiz-adv-x="1921" 
d="M1255 1559h-254l-174 311h283zM1128 0l-79 1038l-447 -1038h-311l-103 1470h297l52 -1009l438 1009h287l71 -1013l410 1013h313l-626 -1470h-302z" />
    <glyph glyph-name="wgrave" unicode="&#x1e81;" horiz-adv-x="1581" 
d="M1020 1182h-252l-176 311h285zM903 0l-72 737l-327 -737h-283l-106 1094h264l55 -717l316 717h274l61 -717l306 717h268l-494 -1094h-262z" />
    <glyph glyph-name="Wacute" unicode="&#x1e82;" horiz-adv-x="1921" 
d="M1282 1559h-295l254 311h328zM1128 0l-79 1038l-447 -1038h-311l-103 1470h297l52 -1009l438 1009h287l71 -1013l410 1013h313l-626 -1470h-302z" />
    <glyph glyph-name="wacute" unicode="&#x1e83;" horiz-adv-x="1581" 
d="M1049 1182h-295l254 311h325zM903 0l-72 737l-327 -737h-283l-106 1094h264l55 -717l316 717h274l61 -717l306 717h268l-494 -1094h-262z" />
    <glyph glyph-name="Wdieresis" unicode="&#x1e84;" horiz-adv-x="1921" 
d="M1556 1753q0 -79 -59 -138t-139 -59q-64 0 -104 37t-40 95q0 81 59.5 137.5t143.5 56.5q62 0 100.5 -35.5t38.5 -93.5zM1120 1753q0 -82 -58.5 -139.5t-141.5 -57.5q-64 0 -104 37t-40 95q0 79 59.5 136.5t141.5 57.5q65 0 104 -35.5t39 -93.5zM1128 0l-79 1038
l-447 -1038h-311l-103 1470h297l52 -1009l438 1009h287l71 -1013l410 1013h313l-626 -1470h-302z" />
    <glyph glyph-name="wdieresis" unicode="&#x1e85;" horiz-adv-x="1581" 
d="M1323 1376q0 -78 -60 -137t-139 -59q-64 0 -103.5 37.5t-39.5 95.5q0 80 60 137t143 57q62 0 100.5 -36.5t38.5 -94.5zM885 1376q0 -82 -59 -139t-142 -57q-62 0 -101.5 37.5t-39.5 95.5q0 78 59 136t139 58q66 0 105 -36t39 -95zM903 0l-72 737l-327 -737h-283
l-106 1094h264l55 -717l316 717h274l61 -717l306 717h268l-494 -1094h-262z" />
    <glyph glyph-name="Ygrave" unicode="&#x1ef2;" horiz-adv-x="1341" 
d="M948 1559h-252l-176 311h285zM819 553l-98 -553h-301l98 553l-340 917h301l221 -639l451 639h338z" />
    <glyph glyph-name="ygrave" unicode="&#x1ef3;" horiz-adv-x="1064" 
d="M762 1182h-252l-176 311h282zM1163 1094l-786 -1489h-297l229 407l-215 1082h275l131 -758l370 758h293z" />
    <glyph glyph-name="endash" unicode="&#x2013;" horiz-adv-x="991" 
d="M932 442h-909l43 242h907z" />
    <glyph glyph-name="emdash" unicode="&#x2014;" horiz-adv-x="1486" 
d="M1427 442h-1404l43 242h1402z" />
    <glyph glyph-name="quoteleft" unicode="&#x2018;" horiz-adv-x="528" 
d="M168 1087q0 96 38 173t100.5 122t142 65t163.5 11l-26 -131q-107 8 -169.5 -25.5t-68.5 -103.5q34 12 70 12q58 0 96.5 -34t38.5 -84q0 -86 -58.5 -139.5t-142.5 -53.5q-77 0 -130.5 50.5t-53.5 137.5z" />
    <glyph glyph-name="quoteright" unicode="&#x2019;" horiz-adv-x="528" 
d="M588 1296q0 -98 -38.5 -175t-102 -121.5t-142.5 -64.5t-162 -11l27 131q106 -8 169 26.5t69 104.5q-43 -15 -70 -15q-58 0 -96.5 34.5t-38.5 84.5q0 87 58 141t142 54q77 0 131 -51t54 -138z" />
    <glyph glyph-name="quotesinglbase" unicode="&#x201a;" horiz-adv-x="528" 
d="M391 182q0 -98 -38.5 -175t-101.5 -121.5t-142 -64.5t-162 -11l26 131q107 -8 169.5 26t68.5 105q-47 -15 -70 -15q-58 0 -96.5 34t-38.5 85q0 87 58.5 140t142.5 53q77 0 130.5 -50t53.5 -137z" />
    <glyph glyph-name="quotedblleft" unicode="&#x201c;" horiz-adv-x="1005" 
d="M645 1087q0 128 66 218.5t166.5 128t214.5 24.5l-29 -131q-106 8 -168.5 -25.5t-69.5 -103.5q37 12 72 12q57 0 96 -34t39 -84q0 -86 -58.5 -139.5t-142.5 -53.5q-78 0 -132 50.5t-54 137.5zM168 1087q0 96 38 173t100.5 122t142 65t163.5 11l-26 -131
q-107 8 -169.5 -25.5t-68.5 -103.5q34 12 70 12q58 0 96.5 -34t38.5 -84q0 -86 -58.5 -139.5t-142.5 -53.5q-77 0 -130.5 50.5t-53.5 137.5z" />
    <glyph glyph-name="quotedblright" unicode="&#x201d;" horiz-adv-x="1005" 
d="M588 1296q0 -98 -38.5 -175t-102 -121.5t-142.5 -64.5t-162 -11l27 131q106 -8 169 26.5t69 104.5q-43 -15 -70 -15q-58 0 -96.5 34.5t-38.5 84.5q0 87 58 141t142 54q77 0 131 -51t54 -138zM1067 1296q0 -98 -38.5 -175t-101.5 -121.5t-142 -64.5t-162 -11l26 131
q106 -8 168.5 26.5t69.5 104.5q-47 -15 -70 -15q-58 0 -97.5 34.5t-39.5 84.5q0 87 58.5 141t142.5 54q77 0 131.5 -51t54.5 -138z" />
    <glyph glyph-name="quotedblbase" unicode="&#x201e;" horiz-adv-x="1005" 
d="M391 182q0 -98 -38.5 -175t-101.5 -121.5t-142 -64.5t-162 -11l26 131q107 -8 169.5 26t68.5 105q-47 -15 -70 -15q-58 0 -96.5 34t-38.5 85q0 87 58.5 140t142.5 53q77 0 130.5 -50t53.5 -137zM870 182q0 -98 -38.5 -175t-102 -121.5t-142.5 -64.5t-163 -11l29 131
q107 -8 168.5 25.5t68.5 105.5q-47 -15 -69 -15q-59 0 -98.5 34t-39.5 85q0 87 58.5 140t142.5 53q78 0 132 -50t54 -137z" />
    <glyph glyph-name="dagger" unicode="&#x2020;" horiz-adv-x="1353" 
d="M637 -395h-254l217 1241h-364l43 244h364l68 380h256l-68 -380h367l-43 -244h-365z" />
    <glyph glyph-name="daggerdbl" unicode="&#x2021;" horiz-adv-x="1353" 
d="M637 -395h-254l66 381h-365l43 243h365l108 617h-364l43 244h364l68 380h256l-68 -380h367l-43 -244h-365l-108 -617h364l-41 -243h-366z" />
    <glyph glyph-name="bullet" unicode="&#x2022;" horiz-adv-x="1001" 
d="M846 610q0 -111 -55.5 -208t-150.5 -154.5t-204 -57.5q-127 0 -205.5 78t-78.5 203q0 170 122.5 297t286.5 127q127 0 206 -78.5t79 -206.5z" />
    <glyph glyph-name="ellipsis" unicode="&#x2026;" horiz-adv-x="1703" 
d="M385 219q0 -94 -64.5 -161.5t-154.5 -67.5q-70 0 -113 41.5t-43 109.5q0 94 65 162t156 68q71 0 112.5 -42t41.5 -110zM975 219q0 -94 -64.5 -161.5t-154.5 -67.5q-70 0 -113 41.5t-43 109.5q0 94 65 162t156 68q71 0 112.5 -42t41.5 -110zM1565 219q0 -94 -64.5 -161.5
t-154.5 -67.5q-70 0 -113 41.5t-43 109.5q0 94 65 162t156 68q71 0 112.5 -42t41.5 -110z" />
    <glyph glyph-name="perthousand" unicode="&#x2030;" horiz-adv-x="3121" 
d="M496 537q-166 0 -272.5 101.5t-106.5 260.5q0 207 146 352.5t355 145.5q167 0 272 -101.5t105 -261.5q0 -207 -145 -352t-354 -145zM741 0h-235l985 1384h233zM516 731q106 0 181 84t75 203q0 84 -47.5 134t-126.5 50q-106 0 -181 -84t-75 -203q0 -85 47 -134.5
t127 -49.5zM1608 -18q-166 0 -272.5 101.5t-106.5 260.5q0 207 146.5 352.5t355.5 145.5q167 0 271.5 -101.5t104.5 -261.5q0 -207 -145 -352t-354 -145zM2552 -18q-166 0 -271.5 101t-105.5 261q0 137 67 251.5t182 180.5t251 66q167 0 273 -101.5t106 -261.5
q0 -136 -67.5 -250.5t-183 -180.5t-251.5 -66zM1628 178q106 0 181 83.5t75 201.5q0 84 -47.5 134t-126.5 50q-106 0 -181 -84t-75 -203q0 -84 47 -133t127 -49zM2572 178q106 0 181 83.5t75 201.5q0 85 -47 134.5t-127 49.5q-106 0 -181 -84t-75 -203q0 -84 47.5 -133
t126.5 -49z" />
    <glyph glyph-name="guilsinglleft" unicode="&#x2039;" horiz-adv-x="659" 
d="M551 127h-281l-235 420l356 420h307l-374 -441z" />
    <glyph glyph-name="guilsinglright" unicode="&#x203a;" horiz-adv-x="659" 
d="M111 967h280l234 -420l-355 -420h-309l375 440z" />
    <glyph glyph-name="fraction" unicode="&#x2044;" horiz-adv-x="397" 
d="M-162 0h-217l1004 1384h219z" />
    <glyph glyph-name="zero.superior" unicode="&#x2070;" horiz-adv-x="817" 
d="M928 1589q0 -244 -116 -395.5t-304 -151.5q-137 0 -215 82t-78 226q0 243 116 395.5t302 152.5q137 0 216 -82.5t79 -226.5zM403 1366q0 -78 31.5 -119t91.5 -41q88 0 149.5 106.5t61.5 258.5q0 80 -30.5 122t-88.5 42q-89 0 -152 -109t-63 -260z" />
    <glyph glyph-name="four.superior" unicode="&#x2074;" horiz-adv-x="794" 
d="M874 1214h-124l-29 -159h-182l30 159h-422l23 136l545 536h153l-90 -520h125zM383 1366h213l49 264z" />
    <glyph glyph-name="five.superior" unicode="&#x2075;" horiz-adv-x="759" 
d="M860 1356q0 -130 -102.5 -221t-251.5 -91q-146 0 -234 73t-88 194h176q0 -50 42.5 -79.5t109.5 -29.5q66 0 111 38.5t45 96.5q0 54 -35.5 84.5t-97.5 30.5q-112 0 -168 -82l-142 49l164 467h512l-29 -164h-380l-56 -153q66 39 156 39q122 0 195 -68.5t73 -183.5z" />
    <glyph glyph-name="six.superior" unicode="&#x2076;" horiz-adv-x="794" 
d="M883 1360q0 -134 -109 -225t-270 -91q-141 0 -229.5 70.5t-88.5 183.5q0 145 166 301l303 287h224l-312 -295q36 8 49 8q111 0 189 -67.5t78 -171.5zM690 1346q0 50 -37 81t-98 31q-76 0 -126 -41.5t-50 -105.5q0 -50 39 -80.5t102 -30.5q75 0 122.5 41t47.5 105z" />
    <glyph glyph-name="seven.superior" unicode="&#x2077;" horiz-adv-x="661" 
d="M860 1778l-450 -723h-203l430 667h-412l31 164h623z" />
    <glyph glyph-name="eight.superior" unicode="&#x2078;" horiz-adv-x="808" 
d="M881 1317q0 -118 -108.5 -195.5t-270.5 -77.5q-139 0 -225.5 61t-86.5 157q0 76 55.5 136t135.5 83q-41 24 -68.5 67.5t-27.5 89.5q0 112 96.5 186t251.5 74q129 0 204.5 -62.5t75.5 -154.5q0 -66 -41 -118t-104 -76q51 -21 82 -65.5t31 -104.5zM471 1642
q0 -37 30.5 -61.5t80.5 -24.5q64 0 104.5 31t40.5 82q0 37 -30 59.5t-81 22.5q-63 0 -104 -30t-41 -79zM379 1286q0 -45 39 -70.5t104 -25.5q77 0 124.5 34t47.5 89q0 43 -38.5 70.5t-102.5 27.5q-76 0 -125 -34.5t-49 -90.5z" />
    <glyph glyph-name="nine.superior" unicode="&#x2079;" horiz-adv-x="794" 
d="M238 1581q0 135 109.5 226t270.5 91q140 0 228 -70t88 -183q0 -145 -168 -304l-301 -286h-223l309 297q-24 -9 -49 -9q-109 0 -186.5 67.5t-77.5 170.5zM430 1597q0 -49 38.5 -80.5t98.5 -31.5q76 0 126 41.5t50 105.5q0 48 -40 79.5t-101 31.5q-75 0 -123.5 -41.5
t-48.5 -104.5z" />
    <glyph glyph-name="zero.inferior" unicode="&#x2080;" horiz-adv-x="815" 
d="M668 119q0 -244 -116 -395.5t-304 -151.5q-137 0 -215 81.5t-78 225.5q0 243 116 396t302 153q137 0 216 -82.5t79 -226.5zM143 -104q0 -78 31.5 -119t91.5 -41q88 0 149.5 106t61.5 258q0 80 -30.5 122t-88.5 42q-89 0 -152 -108.5t-63 -259.5z" />
    <glyph glyph-name="one.inferior" unicode="&#x2081;" horiz-adv-x="481" 
d="M205 -416h-182l120 672h-168l27 160h350z" />
    <glyph glyph-name="two.inferior" unicode="&#x2082;" horiz-adv-x="733" 
d="M543 -252l-29 -164h-623l19 103l319 247q95 74 139 125t44 103q0 44 -32 73t-83 29q-64 0 -104.5 -33t-51.5 -92h-176q23 133 112.5 211t239.5 78q125 0 204 -65.5t79 -163.5q0 -42 -12.5 -80.5t-31 -69t-51.5 -65.5t-63 -60.5t-77 -62.5l-138 -113h316z" />
    <glyph glyph-name="three.inferior" unicode="&#x2083;" horiz-adv-x="790" 
d="M600 -158q0 -120 -95.5 -194t-252.5 -74q-142 0 -230 72.5t-88 187.5h170q0 -51 43.5 -83t112.5 -32q68 0 108 31t40 82q0 52 -42 78.5t-114 26.5h-96l26 145h86q72 0 118 33t46 84q0 38 -28.5 60t-77.5 22q-56 0 -95 -29t-49 -80h-176q23 119 115.5 187.5t222.5 68.5
q125 0 203 -57t78 -152q0 -129 -158 -205q133 -52 133 -172z" />
    <glyph glyph-name="four.inferior" unicode="&#x2084;" horiz-adv-x="792" 
d="M614 -256h-125l-28 -160h-182l30 160h-422l23 135l545 537h153l-90 -520h125zM123 -104h213l49 264z" />
    <glyph glyph-name="five.inferior" unicode="&#x2085;" horiz-adv-x="761" 
d="M600 -115q0 -130 -101.5 -220.5t-250.5 -90.5q-148 0 -235 72t-87 194h174q0 -50 42.5 -79t111.5 -29q66 0 110 38.5t44 96.5q0 54 -36 84.5t-98 30.5q-109 0 -165 -82l-142 49l162 467h512l-29 -164h-381l-55 -154q69 39 156 39q123 0 195.5 -68t72.5 -184z" />
    <glyph glyph-name="six.inferior" unicode="&#x2086;" horiz-adv-x="794" 
d="M623 -111q0 -134 -109 -224.5t-270 -90.5q-141 0 -229.5 70.5t-88.5 183.5q0 145 166 301l303 287h223l-311 -295q36 8 49 8q111 0 189 -68t78 -172zM430 -125q0 50 -37 81.5t-98 31.5q-75 0 -125.5 -42t-50.5 -106q0 -49 39 -79.5t102 -30.5q75 0 122.5 40.5t47.5 104.5
z" />
    <glyph glyph-name="seven.inferior" unicode="&#x2087;" horiz-adv-x="659" 
d="M600 307l-450 -723h-203l430 668h-412l31 164h622z" />
    <glyph glyph-name="eight.inferior" unicode="&#x2088;" horiz-adv-x="808" 
d="M621 -154q0 -118 -108 -195t-269 -77q-140 0 -227 60.5t-87 156.5q0 77 55.5 136.5t137.5 82.5q-42 24 -70 68t-28 90q0 112 96.5 186t251.5 74q129 0 204.5 -62.5t75.5 -154.5q0 -66 -41 -118.5t-104 -76.5q51 -21 82 -65.5t31 -104.5zM211 172q0 -37 31 -61.5t80 -24.5
q64 0 104.5 31t40.5 82q0 37 -30 59.5t-81 22.5q-63 0 -104 -30t-41 -79zM121 -184q0 -46 38.5 -71.5t104.5 -25.5q75 0 122.5 34t47.5 89q0 43 -38.5 71t-102.5 28q-76 0 -124 -34.5t-48 -90.5z" />
    <glyph glyph-name="nine.inferior" unicode="&#x2089;" horiz-adv-x="794" 
d="M-23 111q0 135 110 226t271 91q140 0 228 -70t88 -184q0 -144 -168 -303l-301 -287h-223l309 297q-21 -8 -49 -8q-109 0 -187 68t-78 170zM170 127q0 -49 38.5 -81t98.5 -32q75 0 125.5 42t50.5 106q0 47 -40 78.5t-101 31.5q-75 0 -123.5 -41t-48.5 -104z" />
    <glyph glyph-name="Euro" unicode="&#x20ac;" horiz-adv-x="1206" 
d="M1100 295l-43 -256q-121 -59 -275 -59q-229 0 -372 132t-158 363h-211l29 166h188q2 47 23 127h-189l29 166h209q62 202 250 336.5t421 134.5q178 0 287 -53l-45 -256q-104 59 -256 59q-131 0 -230.5 -55t-140.5 -166h414l-29 -166h-444q-16 -53 -22 -127h444l-29 -166
h-420q5 -68 31.5 -117.5t70 -76.5t94 -39.5t112.5 -12.5q150 0 262 66z" />
    <glyph glyph-name="indianrupee" unicode="&#x20b9;" horiz-adv-x="1239" 
d="M1227 852h-193q-39 -121 -132.5 -206.5t-217.5 -121.5l250 -524h-301l-217 494h-334l33 196h342q109 0 190 43.5t101 118.5h-605l31 178h602q-4 76 -66 118t-163 42h-342l31 194h1085l-33 -180h-325q81 -60 90 -174h204z" />
    <glyph glyph-name="turkishlira" unicode="&#x20ba;" horiz-adv-x="1222" 
d="M932 580h256q-63 -271 -269.5 -433.5t-484.5 -162.5q-168 0 -239 26l96 541l-244 -59l31 178l244 59l24 129l-248 -59l31 178l248 59l61 348h275l-47 -276l438 104l-31 -178l-440 -104l-25 -133l445 108l-31 -180l-442 -107l-72 -397q158 9 272.5 106t151.5 253z" />
    <glyph glyph-name="ruble" unicode="&#x20bd;" horiz-adv-x="1259" 
d="M1102 258h-565l-43 -258h-277l43 258h-258l31 180h260l24 131h-260l33 179h258l113 636h393q199 0 313.5 -93t114.5 -257q0 -211 -156.5 -338t-418.5 -127h-115l-25 -131h566zM805 1188h-103l-79 -440h108q129 0 205 72t76 194q0 174 -207 174z" />
    <glyph glyph-name="trademark" unicode="&#x2122;" horiz-adv-x="1740" 
d="M473 750h-184l98 550h-225l31 170h628l-30 -170h-224zM1116 750l-94 510l-90 -510h-172l127 720h256l86 -489l254 489h268l-127 -720h-168l86 503l-270 -503h-156z" />
    <glyph glyph-name="estimated" unicode="&#x212e;" horiz-adv-x="1730" 
d="M1503 279h88q-114 -150 -283 -224.5t-380 -74.5q-239 0 -432 100.5t-300.5 273t-107.5 381.5q0 144 63.5 280.5t170.5 240.5t260 167.5t321 63.5q172 0 319 -58t252 -160t168.5 -245.5t73.5 -312.5h-1274q-43 0 -43 -45v-347q0 -79 78 -145.5t199 -102.5t252 -36
q198 0 347.5 63t227.5 181zM397 1165v-358q0 -45 45 -45h922q23 0 32 10t9 35v346q0 71 -71 136.5t-188 105t-243 39.5t-244 -38.5t-190 -101t-72 -129.5z" />
    <glyph glyph-name="partialdiff" unicode="&#x2202;" horiz-adv-x="1204" 
d="M47 438q0 134 48.5 253t130.5 203t194 132.5t235 48.5q47 0 86 -16l-245 411h307l201 -362q151 -266 151 -467q0 -184 -82 -335.5t-226.5 -238.5t-320.5 -87q-207 0 -343 128t-136 330zM342 461q0 -108 58 -172t155 -64q129 0 218 105.5t89 261.5q0 108 -57.5 171.5
t-155.5 63.5q-130 0 -218.5 -104.5t-88.5 -261.5z" />
    <glyph glyph-name="increment" unicode="&#x2206;" horiz-adv-x="1425" 
d="M1307 0h-1379l795 1470h313zM834 1161l-478 -921h623z" />
    <glyph glyph-name="product" unicode="&#x220f;" horiz-adv-x="1505" 
d="M268 -395h-282l329 1865h1203l-330 -1865h-283l285 1618h-633z" />
    <glyph glyph-name="summation" unicode="&#x2211;" horiz-adv-x="1280" 
d="M1036 -395h-1124l39 225l663 743l-393 668l41 229h1096l-45 -247h-758l393 -676l-624 -694h755z" />
    <glyph glyph-name="minus" unicode="&#x2212;" horiz-adv-x="1351" 
d="M1174 580h-986l43 237h986z" />
    <glyph glyph-name="divisionslash" unicode="&#x2215;" horiz-adv-x="1351" 
d="M408 0h-256l845 1384h254z" />
    <glyph glyph-name="bulletoperator" unicode="&#x2219;" horiz-adv-x="1351" 
d="M891 737q0 -94 -63.5 -161.5t-155.5 -67.5q-72 0 -115 41.5t-43 109.5q0 94 64.5 162t156.5 68q71 0 113.5 -42t42.5 -110z" />
    <glyph glyph-name="radical" unicode="&#x221a;" horiz-adv-x="1748" 
d="M1896 1470l-983 -1865h-311l-147 833h-291l43 248h489l109 -752l788 1536h303z" />
    <glyph glyph-name="infinity" unicode="&#x221e;" horiz-adv-x="2160" 
d="M2111 655q0 -189 -75.5 -343t-210.5 -243t-303 -89q-154 0 -274.5 91t-188.5 263q-234 -354 -555 -354q-203 0 -330 127t-127 329q0 188 80 343.5t219.5 245t306.5 89.5q150 0 265 -91.5t180 -258.5q116 173 258 261.5t297 88.5q203 0 330.5 -127.5t127.5 -331.5z
M336 465q0 -112 57 -176t156 -64q188 0 403 322q-62 172 -130 246.5t-165 74.5q-133 0 -227 -118t-94 -285zM1208 547q56 -167 126.5 -244.5t168.5 -77.5q133 0 225.5 118t92.5 288q0 109 -56.5 173t-154.5 64q-102 0 -198 -76.5t-204 -244.5z" />
    <glyph glyph-name="integral" unicode="&#x222b;" horiz-adv-x="997" 
d="M735 1120l-203 -1138q-36 -207 -151.5 -302.5t-312.5 -95.5q-72 0 -146 23l45 258q45 -25 111 -25q154 0 182 162l199 1124q67 363 438 363q92 0 170 -33l-37 -213q-44 31 -112 31q-64 0 -116.5 -40t-66.5 -114z" />
    <glyph glyph-name="approxequal" unicode="&#x2248;" horiz-adv-x="1351" 
d="M981 727q-63 0 -130.5 26.5t-115 57.5t-105 57.5t-102.5 26.5q-54 0 -80.5 -38t-33.5 -132h-232q5 185 101 300.5t245 115.5q64 0 131.5 -26t115 -57t105 -57t103.5 -26q54 0 80 37.5t33 134.5h231q-5 -185 -100 -302.5t-246 -117.5zM909 260q-64 0 -131.5 26t-115.5 58
t-105 58t-102 26q-54 0 -80.5 -38.5t-32.5 -131.5h-233q4 184 101 300t245 116q65 0 132.5 -26t115 -57t104 -57t102.5 -26q54 0 80.5 37.5t32.5 132.5h233q-5 -184 -100.5 -301t-245.5 -117z" />
    <glyph glyph-name="notequal" unicode="&#x2260;" horiz-adv-x="1351" 
d="M375 342h-228l43 242h312l137 229h-410l43 242h498l197 329h266l-199 -329h223l-40 -242h-314l-137 -229h410l-43 -242h-494l-205 -342h-264z" />
    <glyph glyph-name="lessequal" unicode="&#x2264;" horiz-adv-x="1351" 
d="M256 961l1059 419l-45 -252l-760 -290l659 -287l-41 -229l-909 421zM1071 0h-985l43 242h985z" />
    <glyph glyph-name="greaterequal" unicode="&#x2265;" horiz-adv-x="1351" 
d="M1202 743l-1057 -421l43 253l760 293l-657 287l41 225l907 -417zM1071 0h-983l43 242h981z" />
    <glyph glyph-name="lozenge" unicode="&#x25ca;" horiz-adv-x="1443" 
d="M713 -395h-310l-176 934l504 931h309l174 -931zM502 537l98 -623l340 627l-100 620z" />
    <glyph glyph-name="ITF" unicode="&#xf8ff;" horiz-adv-x="3725" 
d="M303 0v1434h442v-1434h-442zM838 1016v418h442v-418h-442zM1370 0v1434h445v-1434h-445zM1905 1016v418h442v-418h-442zM2437 0v1434h445v-1434h-445zM2972 1016v418h442v-418h-442zM2972 506v420h442v-420h-442z" />
    <glyph glyph-name="Q.ss02" horiz-adv-x="1597" 
d="M524 -305l51 289q-217 45 -350 214.5t-133 409.5q0 188 65.5 353.5t179 284t272 187t337.5 68.5q272 0 448.5 -180t176.5 -459q0 -172 -56.5 -327.5t-155 -271.5t-237 -192t-297.5 -96l-51 -280h-250zM936 594l-62 -342q172 50 280 216t108 388q0 169 -96 274t-251 105
q-145 0 -263 -81.5t-184.5 -223.5t-66.5 -316q0 -131 60 -226t164 -132l61 338h250z" />
    <glyph glyph-name="zero.case" horiz-adv-x="1339" 
d="M836 1489q215 0 331.5 -133.5t116.5 -384.5q0 -282 -92 -509.5t-255.5 -356t-367.5 -128.5q-216 0 -332 132t-116 380q0 284 92 512.5t256 358t367 129.5zM795 1243q-105 0 -196 -97.5t-144.5 -264t-53.5 -359.5q0 -145 55.5 -221t157.5 -76q104 0 193.5 97.5t141.5 262
t52 355.5q0 147 -53.5 225t-152.5 78z" />
    <glyph glyph-name="one.case" horiz-adv-x="770" 
d="M500 0h-275l217 1233h-278l43 237h553z" />
    <glyph glyph-name="two.case" horiz-adv-x="1181" 
d="M1042 248l-43 -248h-995l27 160l530 461q177 154 246.5 249t69.5 191q0 80 -54.5 131t-142.5 51q-109 0 -179.5 -64t-92.5 -184h-269q38 229 193.5 361.5t384.5 132.5q206 0 330 -107t124 -284q0 -138 -90.5 -268.5t-318.5 -327.5l-277 -254h557z" />
    <glyph glyph-name="three.case" horiz-adv-x="1222" 
d="M553 -18q-230 0 -364 119t-134 323h267q0 -105 66.5 -162t178.5 -57q110 0 176 63.5t66 175.5q0 91 -65 145t-175 54h-157l39 217h139q120 0 196 65.5t76 166.5q0 82 -51.5 129t-130.5 47q-97 0 -160.5 -55t-81.5 -162h-266q37 206 174 322t359 116q195 0 323.5 -99
t128.5 -255q0 -123 -71.5 -219.5t-200.5 -145.5q219 -89 219 -315q0 -207 -154 -340t-397 -133z" />
    <glyph glyph-name="four.case" horiz-adv-x="1267" 
d="M1171 299h-206l-54 -299h-268l51 299h-702l37 205l911 966h229l-161 -933h204zM354 537h383l90 518z" />
    <glyph glyph-name="five.case" horiz-adv-x="1222" 
d="M553 -20q-228 0 -365 126t-137 334h275q4 -97 70 -153t173 -56q126 0 200.5 74t74.5 197q0 103 -65 163t-175 60q-160 0 -260 -156l-211 76l273 825h821l-41 -249h-627l-108 -332q115 72 251 72q192 0 317.5 -117.5t125.5 -298.5q0 -252 -164 -408.5t-428 -156.5z" />
    <glyph glyph-name="six.case" horiz-adv-x="1271" 
d="M545 -16q-212 0 -347 119t-135 307q0 141 60.5 264t200.5 268l510 528h346l-514 -528q45 19 106 19q189 0 302.5 -109t113.5 -291q0 -159 -85 -292t-233 -209t-325 -76zM584 229q125 0 215 90t90 216q0 91 -59 145.5t-158 54.5q-127 0 -217 -90.5t-90 -218.5
q0 -91 59 -144t160 -53z" />
    <glyph glyph-name="seven.case" horiz-adv-x="1069" 
d="M1178 1309l-772 -1309h-304l740 1223h-697l43 247h1016z" />
    <glyph glyph-name="eight.case" horiz-adv-x="1300" 
d="M1188 483q0 -140 -79 -254.5t-219 -180.5t-310 -66q-228 0 -369 103t-141 269q0 135 79.5 242t227.5 170q-66 37 -105 105.5t-39 146.5q0 201 161.5 337t402.5 136q200 0 329 -101t129 -257q0 -116 -66.5 -213t-187.5 -158q187 -91 187 -279zM532 1034q0 -72 49 -116
t130 -44q109 0 177 63.5t68 162.5q0 72 -49.5 116t-132.5 44q-108 0 -175 -64t-67 -162zM373 391q0 -83 61 -130.5t166 -47.5q128 0 207.5 72.5t79.5 183.5q0 78 -58.5 126t-156.5 48q-132 0 -215.5 -71t-83.5 -181z" />
    <glyph glyph-name="nine.case" horiz-adv-x="1271" 
d="M793 1487q211 0 346 -120t135 -306q0 -141 -61 -265.5t-199 -267.5l-510 -528h-346l514 528q-53 -20 -107 -20q-189 0 -302 109.5t-113 291.5q0 159 85 291.5t233 209.5t325 77zM754 1241q-124 0 -214.5 -90.5t-90.5 -214.5q0 -92 59 -146.5t158 -54.5q127 0 217 90.5
t90 218.5q0 91 -59 144t-160 53z" />
    <glyph glyph-name="zero.dnom" horiz-adv-x="831" 
d="M748 535q0 -245 -115.5 -396t-302.5 -151q-137 0 -215 81.5t-78 225.5q0 243 116 396t302 153q137 0 215 -82t78 -227zM223 311q0 -78 31.5 -118.5t91.5 -40.5q89 0 151 106t62 258q0 164 -121 164q-88 0 -151.5 -109t-63.5 -260z" />
    <glyph glyph-name="one.dnom" horiz-adv-x="481" 
d="M279 0h-183l121 672h-168l27 159h350z" />
    <glyph glyph-name="two.dnom" horiz-adv-x="733" 
d="M616 164l-28 -164h-623l19 102l319 248q94 73 138 124.5t44 103.5q0 45 -31.5 73.5t-82.5 28.5q-64 0 -104.5 -33t-51.5 -92h-176q23 133 112.5 211t239.5 78q124 0 203.5 -66t79.5 -164q0 -52 -16.5 -97t-52.5 -87.5t-71.5 -74.5t-95.5 -79l-137 -112h315z" />
    <glyph glyph-name="three.dnom" horiz-adv-x="790" 
d="M674 258q0 -120 -95.5 -194t-252.5 -74q-142 0 -230 72.5t-88 187.5h170q0 -51 43.5 -83t112.5 -32q68 0 107.5 31t39.5 82q0 52 -41.5 78t-113.5 26h-97l27 146h86q72 0 118 32.5t46 83.5q0 38 -28.5 60t-78.5 22q-56 0 -94.5 -28.5t-48.5 -79.5h-176
q23 119 115.5 187.5t222.5 68.5q125 0 202.5 -57t77.5 -152q0 -129 -157 -205q133 -52 133 -172z" />
    <glyph glyph-name="four.dnom" horiz-adv-x="792" 
d="M688 160h-125l-28 -160h-183l31 160h-422l23 135l544 536h154l-90 -520h125zM197 311h213l49 264z" />
    <glyph glyph-name="five.dnom" horiz-adv-x="759" 
d="M674 301q0 -129 -103 -220t-252 -91q-146 0 -233.5 72.5t-87.5 193.5h176q0 -50 42.5 -79.5t109.5 -29.5q66 0 110.5 39t44.5 97q0 54 -35.5 84t-97.5 30q-112 0 -168 -82l-141 50l164 466h512l-29 -163h-381l-55 -154q66 39 156 39q122 0 195 -68.5t73 -183.5z" />
    <glyph glyph-name="six.dnom" horiz-adv-x="794" 
d="M696 305q0 -134 -109 -224.5t-270 -90.5q-141 0 -229 70.5t-88 183.5q0 145 166 301l303 286h223l-311 -294q36 8 49 8q111 0 188.5 -68t77.5 -172zM504 291q0 50 -37 81t-98 31q-76 0 -126 -41.5t-50 -105.5q0 -50 39 -80.5t102 -30.5q75 0 122.5 41t47.5 105z" />
    <glyph glyph-name="seven.dnom" horiz-adv-x="661" 
d="M674 723l-451 -723h-203l431 668h-412l31 163h622z" />
    <glyph glyph-name="eight.dnom" horiz-adv-x="808" 
d="M694 262q0 -118 -108.5 -195t-270.5 -77q-139 0 -225 60.5t-86 156.5q0 76 55.5 136t135.5 83q-41 24 -69 68t-28 90q0 112 96.5 186t251.5 74q129 0 205 -63t76 -154q0 -66 -41 -118.5t-104 -76.5q51 -21 81.5 -65.5t30.5 -104.5zM285 588q0 -38 30 -62t80 -24
q64 0 105 31t41 81q0 37 -30 59.5t-81 22.5q-63 0 -104 -29.5t-41 -78.5zM193 231q0 -45 39 -70.5t104 -25.5q77 0 124.5 34t47.5 89q0 43 -38.5 70.5t-102.5 27.5q-76 0 -125 -34.5t-49 -90.5z" />
    <glyph glyph-name="nine.dnom" horiz-adv-x="794" 
d="M51 526q0 135 110 226.5t271 91.5q140 0 228 -70t88 -184q0 -144 -168 -303l-301 -287h-224l310 297q-21 -8 -50 -8q-109 0 -186.5 67.5t-77.5 169.5zM244 543q0 -49 38.5 -81t98.5 -32q75 0 125.5 42t50.5 106q0 47 -40 78.5t-101 31.5q-75 0 -123.5 -41t-48.5 -104z
" />
    <glyph glyph-name="zero.numr_alt" horiz-adv-x="956" 
d="M496 537q-172 0 -277.5 102t-105.5 268q0 206 143.5 348t353.5 142q169 0 274 -102.5t105 -266.5q0 -207 -142 -349t-351 -142zM512 731q104 0 178 86t74 207q0 82 -46 130t-124 48q-106 0 -181 -85.5t-75 -205.5q0 -80 48 -130t126 -50z" />
    <glyph glyph-name="zero.numr" horiz-adv-x="817" 
d="M840 1087q0 -244 -116 -395t-304 -151q-137 0 -215 81.5t-78 225.5q0 243 116 396t302 153q137 0 216 -83t79 -227zM315 864q0 -78 31.5 -118.5t91.5 -40.5q88 0 149.5 106t61.5 258q0 80 -30.5 122t-88.5 42q-89 0 -152 -109t-63 -260z" />
    <glyph glyph-name="one.numr" horiz-adv-x="481" 
d="M377 553h-182l120 672h-168l27 159h350z" />
    <glyph glyph-name="two.numr" horiz-adv-x="735" 
d="M715 717l-29 -164h-623l19 102l319 248q95 74 139 124.5t44 102.5q0 45 -32 74t-83 29q-64 0 -104.5 -33t-51.5 -92h-176q23 133 112.5 211t239.5 78q124 0 203.5 -66t79.5 -164q0 -42 -12.5 -80.5t-31 -69t-51.5 -65.5t-63 -60.5t-77 -62.5l-138 -112h316z" />
    <glyph glyph-name="three.numr" horiz-adv-x="790" 
d="M772 813q0 -120 -95.5 -194t-252.5 -74q-142 0 -230 72.5t-88 187.5h170q0 -51 43.5 -83t112.5 -32q68 0 108 31t40 82q0 52 -42 78t-114 26h-96l26 146h86q72 0 118 32.5t46 83.5q0 38 -28.5 60t-77.5 22q-56 0 -95 -28.5t-49 -79.5h-176q23 119 115.5 187.5t222.5 68.5
q125 0 203 -57t78 -152q0 -129 -158 -205q133 -52 133 -172z" />
    <glyph glyph-name="four.numr" horiz-adv-x="794" 
d="M786 713h-124l-29 -160h-182l30 160h-422l23 135l545 536h153l-90 -520h125zM295 864h213l49 264z" />
    <glyph glyph-name="five.numr" horiz-adv-x="759" 
d="M772 854q0 -129 -102.5 -220t-251.5 -91q-146 0 -234 72.5t-88 193.5h176q0 -50 42.5 -79.5t109.5 -29.5q66 0 111 39t45 97q0 54 -36 84t-98 30q-111 0 -167 -82l-142 50l164 466h512l-29 -163h-381l-55 -154q66 39 156 39q122 0 195 -68.5t73 -183.5z" />
    <glyph glyph-name="six.numr" horiz-adv-x="794" 
d="M795 858q0 -134 -109 -224.5t-270 -90.5q-141 0 -229.5 70.5t-88.5 183.5q0 145 166 301l303 286h224l-312 -294q36 8 49 8q111 0 189 -68t78 -172zM602 844q0 50 -37 81t-98 31q-76 0 -126 -41.5t-50 -105.5q0 -50 39 -80.5t102 -30.5q75 0 122.5 41t47.5 105z" />
    <glyph glyph-name="seven.numr" horiz-adv-x="661" 
d="M772 1276l-450 -723h-203l430 668h-412l31 163h623z" />
    <glyph glyph-name="eight.numr" horiz-adv-x="811" 
d="M793 815q0 -118 -108.5 -195t-270.5 -77q-139 0 -225.5 60.5t-86.5 156.5q0 76 55.5 136t135.5 83q-41 24 -68.5 68t-27.5 90q0 112 96.5 186t251.5 74q129 0 204.5 -62.5t75.5 -154.5q0 -66 -41 -118.5t-104 -76.5q51 -21 82 -65.5t31 -104.5zM383 1141
q0 -37 30.5 -61.5t80.5 -24.5q64 0 104.5 31t40.5 81q0 37 -30 59.5t-81 22.5q-63 0 -104 -29.5t-41 -78.5zM291 784q0 -45 39 -70.5t104 -25.5q77 0 124.5 34t47.5 89q0 43 -38.5 70.5t-102.5 27.5q-76 0 -125 -34.5t-49 -90.5z" />
    <glyph glyph-name="nine.numr" horiz-adv-x="796" 
d="M150 1079q0 135 109.5 226.5t270.5 91.5q140 0 228 -70t88 -184q0 -144 -168 -303l-301 -287h-223l309 297q-21 -8 -49 -8q-109 0 -186.5 67.5t-77.5 169.5zM342 1096q0 -49 38.5 -81t98.5 -32q76 0 126 41.5t50 105.5q0 48 -40 79.5t-101 31.5q-75 0 -123.5 -41
t-48.5 -104z" />
    <glyph glyph-name="caroncomb.alt" horiz-adv-x="1034" 
d="M686 1155h-180l55 315h227z" />
    <glyph glyph-name="caroncomb.alt2" horiz-adv-x="1034" 
d="M743 1075h-182l70 395h227z" />
    <glyph glyph-name="strokeshortcomb.case" horiz-adv-x="1040" 
d="M924 633h-774l43 248h774z" />
    <glyph glyph-name="slashshortcomb.case" horiz-adv-x="1044" 
d="M997 737l-919 -215l43 252l919 213z" />
    <glyph glyph-name="slashlongcomb.case" horiz-adv-x="1046" 
d="M27 0h-287l1345 1470h285z" />
    <glyph glyph-name="dieresiscomb.narrow" horiz-adv-x="1044" 
d="M1030 1354q0 -79 -56.5 -138t-135.5 -59q-61 0 -100.5 37t-39.5 94q0 82 57.5 138.5t139.5 56.5q61 0 98 -35t37 -94zM623 1354q0 -80 -58 -138.5t-141 -58.5q-60 0 -97.5 37t-37.5 94q0 80 57.5 137.5t136.5 57.5q62 0 101 -35.5t39 -93.5z" />
    <glyph glyph-name="gravecomb.narrow" horiz-adv-x="1038" 
d="M848 1159h-252l-152 311h281z" />
    <glyph glyph-name="acutecomb.narrow" horiz-adv-x="1040" 
d="M676 1159h-297l235 311h326z" />
    <glyph glyph-name="circumflexcomb.narrow" horiz-adv-x="1046" 
d="M528 1159h-307l301 311h328l190 -311h-276l-90 164z" />
    <glyph glyph-name="a.ss01" horiz-adv-x="1230" 
d="M47 430q0 190 73 347.5t200 247t280 89.5q220 0 328 -184l30 164h250l-194 -1094h-252l31 170q-61 -88 -153.5 -138t-199.5 -50q-174 0 -283.5 124.5t-109.5 323.5zM332 459q0 -105 57 -168.5t148 -63.5q134 0 220.5 119.5t86.5 292.5q0 104 -56.5 167.5t-148.5 63.5
q-133 0 -220 -116t-87 -295z" />
    <glyph glyph-name="aacute.ss01" horiz-adv-x="1230" 
d="M827 1182h-295l254 311h328zM47 430q0 190 73 347.5t200 247t280 89.5q220 0 328 -184l30 164h250l-194 -1094h-252l31 170q-61 -88 -153.5 -138t-199.5 -50q-174 0 -283.5 124.5t-109.5 323.5zM332 459q0 -105 57 -168.5t148 -63.5q134 0 220.5 119.5t86.5 292.5
q0 104 -56.5 167.5t-148.5 63.5q-133 0 -220 -116t-87 -295z" />
    <glyph glyph-name="abreve.ss01" horiz-adv-x="1230" 
d="M870 1495h195q-29 -158 -124.5 -239.5t-246.5 -81.5q-139 0 -228 87t-89 234h196q0 -70 34.5 -107.5t97.5 -37.5q65 0 109 38.5t56 106.5zM47 430q0 190 73 347.5t200 247t280 89.5q220 0 328 -184l30 164h250l-194 -1094h-252l31 170q-61 -88 -153.5 -138t-199.5 -50
q-174 0 -283.5 124.5t-109.5 323.5zM332 459q0 -105 57 -168.5t148 -63.5q134 0 220.5 119.5t86.5 292.5q0 104 -56.5 167.5t-148.5 63.5q-133 0 -220 -116t-87 -295z" />
    <glyph glyph-name="acircumflex.ss01" horiz-adv-x="1230" 
d="M545 1180h-320l328 315h338l219 -315h-285l-112 168zM47 430q0 190 73 347.5t200 247t280 89.5q220 0 328 -184l30 164h250l-194 -1094h-252l31 170q-61 -88 -153.5 -138t-199.5 -50q-174 0 -283.5 124.5t-109.5 323.5zM332 459q0 -105 57 -168.5t148 -63.5
q134 0 220.5 119.5t86.5 292.5q0 104 -56.5 167.5t-148.5 63.5q-133 0 -220 -116t-87 -295z" />
    <glyph glyph-name="adieresis.ss01" horiz-adv-x="1230" 
d="M1102 1376q0 -78 -60 -137t-139 -59q-64 0 -103.5 37.5t-39.5 95.5q0 80 60 137t143 57q62 0 100.5 -36.5t38.5 -94.5zM666 1376q0 -82 -59 -139t-142 -57q-64 0 -103.5 37.5t-39.5 95.5q0 78 59.5 136t140.5 58q64 0 104 -36t40 -95zM47 430q0 190 73 347.5t200 247
t280 89.5q220 0 328 -184l30 164h250l-194 -1094h-252l31 170q-61 -88 -153.5 -138t-199.5 -50q-174 0 -283.5 124.5t-109.5 323.5zM332 459q0 -105 57 -168.5t148 -63.5q134 0 220.5 119.5t86.5 292.5q0 104 -56.5 167.5t-148.5 63.5q-133 0 -220 -116t-87 -295z" />
    <glyph glyph-name="agrave.ss01" horiz-adv-x="1230" 
d="M799 1182h-252l-174 311h282zM47 430q0 190 73 347.5t200 247t280 89.5q220 0 328 -184l30 164h250l-194 -1094h-252l31 170q-61 -88 -153.5 -138t-199.5 -50q-174 0 -283.5 124.5t-109.5 323.5zM332 459q0 -105 57 -168.5t148 -63.5q134 0 220.5 119.5t86.5 292.5
q0 104 -56.5 167.5t-148.5 63.5q-133 0 -220 -116t-87 -295z" />
    <glyph glyph-name="amacron.ss01" horiz-adv-x="1230" 
d="M1010 1208h-648l31 183h647zM47 430q0 190 73 347.5t200 247t280 89.5q220 0 328 -184l30 164h250l-194 -1094h-252l31 170q-61 -88 -153.5 -138t-199.5 -50q-174 0 -283.5 124.5t-109.5 323.5zM332 459q0 -105 57 -168.5t148 -63.5q134 0 220.5 119.5t86.5 292.5
q0 104 -56.5 167.5t-148.5 63.5q-133 0 -220 -116t-87 -295z" />
    <glyph glyph-name="aogonek.ss01" horiz-adv-x="1230" 
d="M47 430q0 190 73 347.5t200 247t280 89.5q220 0 328 -184l30 164h250l-194 -1094h-129q-78 -75 -78 -145q0 -33 20 -51.5t56 -18.5q31 0 69 14l-34 -182q-59 -20 -142 -20q-90 0 -141 46t-51 126q0 148 186 272l23 129q-61 -88 -153.5 -138t-199.5 -50
q-174 0 -283.5 124.5t-109.5 323.5zM332 459q0 -105 57 -168.5t148 -63.5q134 0 220.5 119.5t86.5 292.5q0 104 -56.5 167.5t-148.5 63.5q-133 0 -220 -116t-87 -295z" />
    <glyph glyph-name="aring.ss01" horiz-adv-x="1230" 
d="M688 1174q-102 0 -167.5 57.5t-65.5 150.5q0 121 88.5 206t214.5 85q104 0 169.5 -58.5t65.5 -150.5q0 -121 -88.5 -205.5t-216.5 -84.5zM705 1311q52 0 90.5 40.5t38.5 96.5q0 37 -26 62.5t-65 25.5q-52 0 -90.5 -40.5t-38.5 -96.5q0 -37 26 -62.5t65 -25.5zM47 430
q0 190 73 347.5t200 247t280 89.5q220 0 328 -184l30 164h250l-194 -1094h-252l31 170q-61 -88 -153.5 -138t-199.5 -50q-174 0 -283.5 124.5t-109.5 323.5zM332 459q0 -105 57 -168.5t148 -63.5q134 0 220.5 119.5t86.5 292.5q0 104 -56.5 167.5t-148.5 63.5
q-133 0 -220 -116t-87 -295z" />
    <glyph glyph-name="atilde.ss01" horiz-adv-x="1230" 
d="M483 1178h-168q1 141 69.5 229t174.5 88q55 0 107 -27.5t97.5 -54.5t84.5 -27q76 0 82 123h170q-3 -139 -72.5 -228t-175.5 -89q-43 0 -84.5 17t-70 37t-64.5 37t-68 17q-76 0 -82 -122zM47 430q0 190 73 347.5t200 247t280 89.5q220 0 328 -184l30 164h250l-194 -1094
h-252l31 170q-61 -88 -153.5 -138t-199.5 -50q-174 0 -283.5 124.5t-109.5 323.5zM332 459q0 -105 57 -168.5t148 -63.5q134 0 220.5 119.5t86.5 292.5q0 104 -56.5 167.5t-148.5 63.5q-133 0 -220 -116t-87 -295z" />
    </font>
</defs>
</svg>
