<?xml version="1.0" standalone="no"?>
<!DOCTYPE svg PUBLIC "-//W3C//DTD SVG 1.1//EN" "http://www.w3.org/Graphics/SVG/1.1/DTD/svg11.dtd" >
<svg xmlns="http://www.w3.org/2000/svg" xmlns:xlink="http://www.w3.org/1999/xlink" version="1.1">
<metadata>
Created by FontForge 20170731 at Tue Apr 11 09:01:09 2023
 By Aleksey,,,
Copyright 2017-2021 Indian Type Foundry. All rights reserved.
</metadata>
<defs>
<font id="GeneralSans-Semibold" horiz-adv-x="1024" >
  <font-face 
    font-family="General Sans Semibold"
    font-weight="600"
    font-stretch="normal"
    units-per-em="2048"
    panose-1="0 0 0 0 0 0 0 0 0 0"
    ascent="1638"
    descent="-410"
    x-height="1094"
    cap-height="1470"
    bbox="-283 -471.056 3258 2054"
    underline-thickness="102"
    underline-position="-266"
    unicode-range="U+000D-FB02"
  />
<missing-glyph horiz-adv-x="1515" 
 />
    <glyph glyph-name="fi" unicode="fi" horiz-adv-x="1355" 
d="M1274 1348q0 -73 -53.5 -120.5t-137.5 -47.5t-137 47.5t-53 120.5q0 75 53 123.5t137 48.5t137.5 -48.5t53.5 -123.5zM514 0h-283v850h-221v244h221v59q0 164 87.5 252t256.5 88q99 0 177 -33v-225q-47 18 -109 18q-129 0 -129 -106v-53h285v-244h-285v-850zM1227 0h-283
v1094h283v-1094z" />
    <glyph glyph-name="fl" unicode="fl" horiz-adv-x="1357" 
d="M514 0h-283v850h-221v244h221v59q0 164 87.5 252t256.5 88q99 0 177 -33v-225q-47 18 -109 18q-129 0 -129 -106v-53h285v-244h-285v-850zM1231 0h-287v1470h287v-1470z" />
    <glyph glyph-name=".notdef" horiz-adv-x="1515" 
 />
    <glyph glyph-name=".null" horiz-adv-x="0" 
 />
    <glyph glyph-name=".null" horiz-adv-x="0" 
 />
    <glyph glyph-name="nonmarkingreturn" horiz-adv-x="682" 
 />
    <glyph glyph-name="CR" unicode="&#xd;" horiz-adv-x="573" 
 />
    <glyph glyph-name="space" unicode=" " horiz-adv-x="428" 
 />
    <glyph glyph-name="exclam" unicode="!" horiz-adv-x="587" 
d="M399 442h-215l-71 1028h360zM489 176q0 -81 -55.5 -133.5t-140.5 -52.5t-141 52.5t-56 133.5q0 82 55.5 135.5t141.5 53.5t141 -53.5t55 -135.5z" />
    <glyph glyph-name="quotedbl" unicode="&#x22;" horiz-adv-x="917" 
d="M373 928h-221l-19 542h258zM764 928h-219l-19 542h256z" />
    <glyph glyph-name="numbersign" unicode="#" horiz-adv-x="1351" 
d="M449 0h-218l80 373h-168v211h209l47 219h-174v217h215l80 364h217l-80 -364h168l80 364h215l-80 -364h168v-217h-207l-49 -219h174v-211h-213l-82 -373h-215l80 373h-168zM616 803l-47 -219h168l47 219h-168z" />
    <glyph glyph-name="dollar" unicode="$" horiz-adv-x="1247" 
d="M705 -182h-187v170q-202 26 -322.5 147.5t-134.5 310.5h285q3 -110 73.5 -172.5t196.5 -62.5q109 0 179.5 47t70.5 129q0 123 -176 162l-209 43q-81 18 -142.5 45t-115 71t-82 112t-28.5 157q0 165 112 280.5t293 141.5v172h187v-172q191 -25 312 -145t134 -306h-285
q-6 102 -73 164t-172 62q-99 0 -159.5 -48t-60.5 -127q0 -120 177 -155l204 -43q387 -82 387 -377q0 -185 -124 -304t-340 -136v-166z" />
    <glyph glyph-name="percent" unicode="%" horiz-adv-x="2269" 
d="M498 537q-126 0 -229.5 58t-161.5 156.5t-58 215.5q0 180 128.5 305t320.5 125q191 0 319.5 -125t128.5 -305q0 -179 -129 -304.5t-319 -125.5zM838 0h-228l787 1384h227zM498 737q92 0 153.5 60.5t61.5 169.5t-61 169t-154 60q-92 0 -154.5 -60t-62.5 -169t62.5 -169.5
t154.5 -60.5zM1772 -18q-126 0 -229.5 58t-161.5 156.5t-58 215.5q0 180 128.5 305t320.5 125t320 -125t128 -305q0 -179 -128.5 -304.5t-319.5 -125.5zM1772 184q93 0 155 59.5t62 168.5q0 110 -62 169.5t-155 59.5q-92 0 -155 -59.5t-63 -169.5q0 -109 63 -168.5
t155 -59.5z" />
    <glyph glyph-name="ampersand" unicode="&#x26;" horiz-adv-x="1419" 
d="M672 803l262 -283q17 82 20 191h260q-3 -189 -104 -379l307 -332h-350l-121 129q-170 -147 -371 -147q-230 0 -366.5 122t-136.5 328q0 115 65.5 211.5t184.5 163.5q-76 107 -76 229q0 160 123 264.5t309 104.5q187 0 301.5 -103t116.5 -272h-265q-7 71 -48 109.5
t-105 38.5q-60 0 -99.5 -40.5t-39.5 -103.5q0 -54 29 -102t104 -129zM344 449q0 -103 66 -169.5t186 -66.5q118 0 205 72l-334 354q-58 -30 -90.5 -79t-32.5 -111z" />
    <glyph glyph-name="quotesingle" unicode="'" horiz-adv-x="524" 
d="M373 928h-221l-19 542h258z" />
    <glyph glyph-name="parenleft" unicode="(" horiz-adv-x="651" 
d="M649 -395h-284q-126 191 -193.5 434.5t-67.5 499.5q0 254 67.5 497t193.5 434h284q-125 -188 -188.5 -429.5t-63.5 -501.5q0 -261 63.5 -503.5t188.5 -430.5z" />
    <glyph glyph-name="parenright" unicode=")" horiz-adv-x="651" 
d="M287 -395h-283q123 188 186.5 430.5t63.5 503.5q0 259 -63.5 501t-186.5 430h283q125 -191 192.5 -433.5t67.5 -497.5q0 -256 -67.5 -499.5t-192.5 -434.5z" />
    <glyph glyph-name="asterisk" unicode="*" 
d="M512 889l-188 -244l-166 123l188 231l-283 91l60 190l291 -98l-13 288h222l-13 -288l291 98l60 -190l-283 -91l188 -231l-166 -123z" />
    <glyph glyph-name="plus" unicode="+" horiz-adv-x="1351" 
d="M809 197h-266v378h-379v246h379v379h266v-379h379v-246h-379v-378z" />
    <glyph glyph-name="comma" unicode="," horiz-adv-x="538" 
d="M461 111q0 -181 -131 -294.5t-328 -115.5v152q114 1 186 50t84 132q-18 -6 -43 -6q-68 0 -114.5 49t-46.5 119q0 79 52.5 128.5t131.5 49.5q100 0 154.5 -67.5t54.5 -196.5z" />
    <glyph glyph-name="hyphen" unicode="-" horiz-adv-x="737" 
d="M682 436h-625v254h625v-254z" />
    <glyph glyph-name="period" unicode="." horiz-adv-x="538" 
d="M461 182q0 -85 -53 -138.5t-138 -53.5t-138.5 53.5t-53.5 138.5q0 86 53.5 140.5t138.5 54.5t138 -54.5t53 -140.5z" />
    <glyph glyph-name="slash" unicode="/" horiz-adv-x="1034" 
d="M207 -395h-281l903 1865h281z" />
    <glyph glyph-name="zero" unicode="0" horiz-adv-x="1257" 
d="M94 690q0 344 139 529.5t396 185.5t396.5 -185.5t139.5 -529.5q0 -343 -138.5 -526.5t-397.5 -183.5t-397 183.5t-138 526.5zM387 690q0 -224 61.5 -340.5t180.5 -116.5q118 0 180.5 117t62.5 340q0 224 -62.5 342.5t-180.5 118.5q-117 0 -179.5 -118.5t-62.5 -342.5z
" />
    <glyph glyph-name="one" unicode="1" horiz-adv-x="735" 
d="M586 0h-285v1139h-262v245h547v-1384z" />
    <glyph glyph-name="two" unicode="2" horiz-adv-x="1142" 
d="M1065 254v-254h-967v162l420 430q129 132 178 208.5t49 162.5q0 85 -53 136.5t-143 51.5q-100 0 -157.5 -59t-57.5 -160h-277q0 207 142 340t364 133q207 0 343 -116.5t136 -291.5q0 -126 -61 -231t-242 -287l-209 -225h535z" />
    <glyph glyph-name="three" unicode="3" horiz-adv-x="1181" 
d="M580 -18q-224 0 -367 119t-145 307h276q6 -94 70 -147.5t170 -53.5q110 0 171.5 52t61.5 144q0 91 -71.5 142t-198.5 51h-150v225h133q104 0 164 49t60 134q0 82 -51 129t-140 47q-88 0 -139.5 -52t-52.5 -143h-277q1 118 65 214.5t174.5 151t244.5 54.5
q215 0 342 -105.5t127 -275.5q0 -188 -207 -297q130 -42 200 -122.5t70 -192.5q0 -192 -146.5 -311t-383.5 -119z" />
    <glyph glyph-name="four" unicode="4" horiz-adv-x="1218" 
d="M1165 272h-194v-272h-283v272h-657v211l714 901h226v-864h194v-248zM342 520h346v457z" />
    <glyph glyph-name="five" unicode="5" horiz-adv-x="1169" 
d="M588 -20q-222 0 -371.5 124.5t-155.5 317.5h285q12 -89 77 -139t163 -50q118 0 174.5 63t56.5 157q0 90 -60.5 154.5t-178.5 64.5q-172 0 -236 -140l-233 76l120 776h801v-254h-594l-43 -282q101 65 232 65q119 0 214.5 -39t153.5 -104t88.5 -146.5t30.5 -170.5
q0 -91 -33.5 -174.5t-97 -151t-165.5 -107.5t-228 -40z" />
    <glyph glyph-name="six" unicode="6" horiz-adv-x="1181" 
d="M590 -16q-115 0 -216 37t-170 99t-109 146t-40 176q0 128 41 224t140 215l417 503h322l-397 -485q29 10 67 10q212 0 346.5 -125.5t134.5 -322.5q0 -202 -151.5 -339.5t-384.5 -137.5zM592 221q101 0 170 62t69 168q0 113 -68 174t-171 61q-104 0 -172 -59t-68 -174
q0 -108 69 -170t171 -62z" />
    <glyph glyph-name="seven" unicode="7" horiz-adv-x="1052" 
d="M1010 1219l-512 -1219h-305l501 1130h-657v254h973v-165z" />
    <glyph glyph-name="eight" unicode="8" horiz-adv-x="1212" 
d="M1139 401q0 -185 -147 -302t-384 -117q-241 0 -387.5 116.5t-146.5 302.5q0 109 63 190t170 128q-86 47 -136 120t-50 169q0 173 135.5 285t351.5 112q214 0 349 -112t135 -285q0 -96 -50.5 -169t-136.5 -120q106 -47 170 -128t64 -190zM414 997q0 -78 52 -124t142 -46
q88 0 140.5 46t52.5 124q0 84 -52.5 133.5t-140.5 49.5q-91 0 -142.5 -49t-51.5 -134zM367 408q0 -94 64.5 -147.5t176.5 -53.5q110 0 175 54t65 147q0 89 -65.5 141.5t-174.5 52.5q-112 0 -176.5 -52t-64.5 -142z" />
    <glyph glyph-name="nine" unicode="9" horiz-adv-x="1181" 
d="M592 1401q153 0 276 -63t190.5 -167.5t67.5 -228.5q0 -126 -40.5 -222t-141.5 -216l-416 -504h-321l397 485q-31 -10 -69 -10q-212 0 -346 126t-134 323q0 202 151 339.5t386 137.5zM590 1163q-102 0 -171 -61.5t-69 -167.5q0 -113 68 -174.5t172 -61.5q103 0 171 59.5
t68 174.5q0 108 -69.5 169.5t-169.5 61.5z" />
    <glyph glyph-name="colon" unicode=":" horiz-adv-x="538" 
d="M461 903q0 -85 -53 -138.5t-138 -53.5t-138.5 53.5t-53.5 138.5q0 86 53.5 140.5t138.5 54.5t138 -54.5t53 -140.5zM461 182q0 -85 -53 -138.5t-138 -53.5t-138.5 53.5t-53.5 138.5q0 86 53.5 140.5t138.5 54.5t138 -54.5t53 -140.5z" />
    <glyph glyph-name="semicolon" unicode=";" horiz-adv-x="538" 
d="M459 903q0 -85 -53 -138.5t-138 -53.5q-86 0 -140 53.5t-54 138.5q0 86 54 140.5t140 54.5q85 0 138 -54.5t53 -140.5zM461 111q0 -181 -131 -294.5t-328 -115.5v152q114 1 186 50t84 132q-18 -6 -43 -6q-68 0 -114.5 49t-46.5 119q0 79 52.5 128.5t131.5 49.5
q100 0 154.5 -67.5t54.5 -196.5z" />
    <glyph glyph-name="less" unicode="&#x3c;" horiz-adv-x="1351" 
d="M164 803l1024 418v-248l-737 -283l737 -284v-246l-1024 418v225z" />
    <glyph glyph-name="equal" unicode="=" horiz-adv-x="1351" 
d="M1188 813h-1024v248h1024v-248zM1188 338h-1024v246h1024v-246z" />
    <glyph glyph-name="greater" unicode="&#x3e;" horiz-adv-x="1351" 
d="M1188 578l-1024 -418v246l737 284l-737 283v248l1024 -418v-225z" />
    <glyph glyph-name="question" unicode="?" horiz-adv-x="1060" 
d="M303 1059h-266q7 191 149 311.5t355 120.5q214 0 348.5 -109t134.5 -280q0 -157 -184 -307l-142 -113q-70 -59 -88 -107.5t-6 -132.5h-182q-32 84 -40.5 139t12 109.5t79.5 104.5l137 116q53 48 76 83.5t23 84.5q0 72 -53 116t-144 44q-90 0 -146.5 -49t-62.5 -131z
M698 176q0 -81 -56.5 -133.5t-141.5 -52.5q-87 0 -144 52.5t-57 133.5q0 82 56 135.5t145 53.5q86 0 142 -53.5t56 -135.5z" />
    <glyph glyph-name="at" unicode="@" horiz-adv-x="1996" 
d="M1542 -45v-234q-239 -137 -534 -137q-197 0 -372.5 71.5t-300 193.5t-197 290t-72.5 355q0 188 74 356.5t201.5 290t306.5 193t380 71.5q190 0 359 -62.5t287.5 -167t187.5 -245t69 -293.5q0 -249 -133 -404t-334 -155q-210 0 -284 141q-110 -141 -295 -141
q-157 0 -252.5 108t-95.5 285q0 199 108.5 334t278.5 135q155 0 237 -117l17 88h254l-70 -411q-8 -58 -8 -86q0 -58 32 -89.5t91 -31.5q96 0 148 85.5t52 231.5q0 110 -46 214t-127.5 185t-205.5 130t-270 49q-152 0 -285 -54t-225.5 -147t-145.5 -221t-53 -272
q0 -143 52 -270.5t142.5 -220.5t219 -147.5t275.5 -54.5q162 0 300.5 42.5t233.5 111.5zM805 485q0 -85 37.5 -138.5t101.5 -53.5q70 0 116 67t46 166q0 197 -133 197q-80 0 -124 -69.5t-44 -168.5z" />
    <glyph glyph-name="A" unicode="A" horiz-adv-x="1495" 
d="M1135 0l-111 315h-571l-113 -315h-313l553 1470h340l548 -1470h-333zM741 1130l-200 -567h397z" />
    <glyph glyph-name="B" unicode="B" horiz-adv-x="1325" 
d="M1251 432q0 -203 -140 -317.5t-384 -114.5h-575v1470h553q234 0 366.5 -102t132.5 -289q0 -100 -54 -179.5t-153 -131.5q123 -43 188.5 -129t65.5 -207zM680 1225h-246v-342h246q112 0 170.5 45.5t58.5 126.5q0 80 -58.5 125t-170.5 45zM702 635h-268v-389h268
q125 0 190.5 51.5t65.5 146.5q0 89 -66 140t-190 51z" />
    <glyph glyph-name="C" unicode="C" horiz-adv-x="1609" 
d="M803 -31q-153 0 -289.5 59.5t-234.5 162t-155.5 245t-57.5 301.5t57.5 300.5t155.5 243t234.5 161t289.5 59.5q291 0 497 -176.5t244 -458.5h-330q-26 159 -138.5 258t-268.5 99q-189 0 -305.5 -135t-116.5 -351q0 -217 116.5 -353t305.5 -136q156 0 267.5 99.5
t139.5 258.5h330q-25 -188 -127.5 -333t-262 -224.5t-351.5 -79.5z" />
    <glyph glyph-name="D" unicode="D" horiz-adv-x="1488" 
d="M674 0h-522v1470h522q172 0 313.5 -53.5t236.5 -149.5t147 -230t52 -294q0 -213 -91 -381.5t-262.5 -265t-395.5 -96.5zM463 1202v-934h194q219 0 333 122.5t114 352.5q0 221 -114.5 340t-332.5 119h-194z" />
    <glyph glyph-name="E" unicode="E" horiz-adv-x="1230" 
d="M1141 270v-270h-989v1470h974v-270h-663v-309h602v-268h-602v-353h678z" />
    <glyph glyph-name="F" unicode="F" horiz-adv-x="1163" 
d="M463 0h-311v1470h950v-270h-639v-371h538v-268h-538v-561z" />
    <glyph glyph-name="G" unicode="G" horiz-adv-x="1630" 
d="M823 -31q-158 0 -297.5 57t-241 157.5t-160 245.5t-58.5 312q0 214 96 388t266.5 273t382.5 99q274 0 467.5 -147.5t267.5 -392.5h-366q-35 117 -134.5 189.5t-242.5 72.5q-184 0 -301 -130t-117 -360q0 -143 51 -255t155 -178.5t247 -66.5q158 0 260.5 85.5t134.5 226.5
h-426v248h758q9 -238 -78.5 -425t-260 -293t-403.5 -106z" />
    <glyph glyph-name="H" unicode="H" horiz-adv-x="1562" 
d="M463 0h-311v1470h311v-579h637v579h311v-1470h-311v623h-637v-623z" />
    <glyph glyph-name="I" unicode="I" horiz-adv-x="612" 
d="M463 0h-311v1470h311v-1470z" />
    <glyph glyph-name="J" unicode="J" horiz-adv-x="1277" 
d="M1139 1470v-942q0 -254 -146.5 -406.5t-414.5 -152.5q-261 0 -408 150.5t-150 392.5h312q7 -264 246 -264q131 0 189 70.5t58 201.5v950h314z" />
    <glyph glyph-name="K" unicode="K" horiz-adv-x="1392" 
d="M463 0h-311v1470h311v-647l534 647h357l-584 -704l600 -766h-383l-524 672v-672z" />
    <glyph glyph-name="L" unicode="L" horiz-adv-x="1163" 
d="M1102 0h-950v1470h311v-1189h639v-281z" />
    <glyph glyph-name="M" unicode="M" horiz-adv-x="1900" 
d="M819 0l-385 977v-977h-282v1470h372l426 -1089l428 1089h373v-1470h-283v985l-389 -985h-260z" />
    <glyph glyph-name="N" unicode="N" horiz-adv-x="1566" 
d="M1110 0l-674 1026v-1026h-284v1470h335l641 -974v974h287v-1470h-305z" />
    <glyph glyph-name="O" unicode="O" horiz-adv-x="1636" 
d="M817 -31q-209 0 -381 99.5t-271 276t-99 392.5t99 391.5t270.5 274t381.5 98.5q158 0 297.5 -58t240.5 -158.5t159.5 -243t58.5 -304.5t-58.5 -305t-159.5 -244.5t-240.5 -160t-297.5 -58.5zM817 248q131 0 231 66t151.5 176.5t51.5 246.5q0 208 -118.5 347t-315.5 139
q-196 0 -314 -139t-118 -347q0 -136 51.5 -246.5t151 -176.5t229.5 -66z" />
    <glyph glyph-name="P" unicode="P" horiz-adv-x="1335" 
d="M694 479h-231v-479h-311v1470h542q273 0 427.5 -126.5t154.5 -362.5q0 -237 -155.5 -369.5t-426.5 -132.5zM692 1208h-229v-467h229q130 0 202.5 64t72.5 174q0 109 -71.5 169t-203.5 60z" />
    <glyph glyph-name="Q" unicode="Q" horiz-adv-x="1636" 
d="M817 -31q-209 0 -381 99.5t-271 276t-99 392.5t99 391.5t270.5 274t381.5 98.5q158 0 297.5 -58t240.5 -158.5t159.5 -243t58.5 -304.5q0 -213 -96.5 -386t-262.5 -273l246 -451h-315l-197 353q-79 -11 -131 -11zM817 248q131 0 231 66t151.5 176.5t51.5 246.5
q0 208 -118.5 347t-315.5 139q-196 0 -314 -139t-118 -347q0 -136 51.5 -246.5t151 -176.5t229.5 -66z" />
    <glyph glyph-name="R" unicode="R" horiz-adv-x="1402" 
d="M463 0h-311v1470h575q279 0 432.5 -124.5t153.5 -352.5q0 -149 -87.5 -261t-244.5 -165l379 -567h-371l-332 520h-194v-520zM463 1212v-436h250q141 0 214.5 55t73.5 162q0 108 -73 163.5t-215 55.5h-250z" />
    <glyph glyph-name="S" unicode="S" horiz-adv-x="1357" 
d="M1280 457q0 -214 -160.5 -345.5t-433.5 -131.5q-276 0 -442 137t-183 372h316q6 -124 84.5 -195t218.5 -71q121 0 195.5 50.5t74.5 138.5q0 133 -196 172l-242 47q-87 17 -156.5 48t-124 79.5t-84.5 119.5t-30 160q0 196 155.5 323.5t393.5 127.5q250 0 413 -136
t178 -364h-315q-8 116 -82 187t-190 71q-110 0 -174 -54t-64 -134q0 -126 199 -164l252 -51q198 -39 297.5 -133t99.5 -254z" />
    <glyph glyph-name="T" unicode="T" horiz-adv-x="1308" 
d="M809 0h-311v1190h-463v280h1239v-280h-465v-1190z" />
    <glyph glyph-name="U" unicode="U" horiz-adv-x="1503" 
d="M1358 1470v-911q0 -174 -70.5 -307t-208 -208t-325.5 -75q-286 0 -446.5 161.5t-160.5 428.5v911h312v-917q0 -143 72.5 -224t222.5 -81q148 0 220.5 81t72.5 224v917h311z" />
    <glyph glyph-name="V" unicode="V" horiz-adv-x="1433" 
d="M1417 1470l-532 -1470h-340l-529 1470h336l373 -1108l381 1108h311z" />
    <glyph glyph-name="W" unicode="W" horiz-adv-x="1986" 
d="M1268 0l-275 1028l-274 -1028h-316l-376 1470h303l237 -997l271 997h317l262 -1001l240 1001h305l-379 -1470h-315z" />
    <glyph glyph-name="X" unicode="X" horiz-adv-x="1466" 
d="M410 0h-365l461 752l-414 718h363l286 -526l306 526h348l-428 -731l454 -739h-366l-322 553z" />
    <glyph glyph-name="Y" unicode="Y" horiz-adv-x="1380" 
d="M844 553v-553h-312v553l-520 917h336l350 -632l357 632h313z" />
    <glyph glyph-name="Z" unicode="Z" horiz-adv-x="1318" 
d="M1243 0h-1159v246l752 956h-750v268h1133v-249l-756 -953h780v-268z" />
    <glyph glyph-name="bracketleft" unicode="[" horiz-adv-x="663" 
d="M631 -395h-494v1865h494v-245h-201v-1375h201v-245z" />
    <glyph glyph-name="backslash" unicode="\" horiz-adv-x="1034" 
d="M1110 -395h-281l-903 1865h281z" />
    <glyph glyph-name="bracketright" unicode="]" horiz-adv-x="663" 
d="M526 -395h-493v245h200v1375h-200v245h493v-1865z" />
    <glyph glyph-name="asciicircum" unicode="^" horiz-adv-x="1353" 
d="M956 561l-278 547l-281 -547h-286l430 823h274l428 -823h-287z" />
    <glyph glyph-name="underscore" unicode="_" 
d="M1024 -395h-1024v245h1024v-245z" />
    <glyph glyph-name="grave" unicode="`" 
d="M778 1182h-295l-239 311h329z" />
    <glyph glyph-name="a" unicode="a" horiz-adv-x="1128" 
d="M778 0v135q-109 -155 -329 -155q-171 0 -275 92t-104 245q0 160 126 244t365 84q80 0 182 -12v65q0 92 -49.5 143.5t-138.5 51.5q-92 0 -145.5 -51t-61.5 -144h-256q12 189 138.5 302.5t324.5 113.5q215 0 335 -112.5t120 -313.5v-688h-232zM338 326q0 -69 46.5 -109.5
t125.5 -40.5q108 0 170.5 55.5t62.5 151.5v78q-95 14 -163 14q-242 0 -242 -149z" />
    <glyph glyph-name="b" unicode="b" horiz-adv-x="1273" 
d="M1219 547q0 -119 -35 -223t-97 -180t-154 -120t-200 -44q-214 0 -344 178v-158h-262v1470h285v-518q122 162 321 162q145 0 256 -74t170.5 -202.5t59.5 -290.5zM926 547q0 150 -73 232.5t-183 82.5q-109 0 -182.5 -81.5t-73.5 -229.5q0 -150 72.5 -234t183.5 -84
q109 0 182.5 83t73.5 231z" />
    <glyph glyph-name="c" unicode="c" horiz-adv-x="1173" 
d="M588 -20q-236 0 -384.5 158t-148.5 409q0 246 151.5 406.5t381.5 160.5q214 0 359 -133t171 -354h-299q-11 109 -72.5 172t-158.5 63q-111 0 -176.5 -84.5t-65.5 -230.5q0 -148 64.5 -232t177.5 -84q98 0 158.5 61.5t72.5 174.5h299q-25 -225 -167.5 -356t-362.5 -131z
" />
    <glyph glyph-name="d" unicode="d" horiz-adv-x="1273" 
d="M55 547q0 162 59.5 290.5t170.5 202.5t256 74q195 0 323 -162v518h283v-1470h-260v158q-133 -178 -346 -178q-108 0 -200 44t-154 120t-97 180t-35 223zM348 547q0 -148 73.5 -231t182.5 -83q111 0 184.5 84t73.5 234q0 149 -74 230t-184 81t-183 -82.5t-73 -232.5z" />
    <glyph glyph-name="e" unicode="e" horiz-adv-x="1185" 
d="M602 -18q-246 0 -396.5 156.5t-150.5 412.5q0 245 153.5 404t389.5 159q170 0 299.5 -84.5t189.5 -231t35 -321.5h-776q14 -134 78 -205t172 -71q93 0 155 44t87 126h282q-46 -185 -182 -287t-336 -102zM592 905q-100 0 -161.5 -63.5t-80.5 -184.5h471q-6 115 -67 181.5
t-162 66.5z" />
    <glyph glyph-name="f" unicode="f" horiz-adv-x="817" 
d="M514 0h-283v850h-221v244h221v59q0 164 87.5 252t256.5 88q99 0 177 -33v-225q-47 18 -109 18q-129 0 -129 -106v-53h285v-244h-285v-850z" />
    <glyph glyph-name="g" unicode="g" horiz-adv-x="1241" 
d="M592 -416q-221 0 -358 111.5t-146 300.5h274q9 -93 67.5 -142t160.5 -49q118 0 178.5 61.5t60.5 180.5v160q-44 -78 -124.5 -122t-180.5 -44q-201 0 -335 153t-134 384q0 237 128 386.5t331 149.5q218 0 338 -170v150h260v-1043q0 -218 -138.5 -342.5t-381.5 -124.5z
M340 578q0 -134 65 -212.5t175 -78.5q112 0 179.5 79t67.5 209q0 133 -67 213t-180 80q-109 0 -174.5 -78.5t-65.5 -211.5z" />
    <glyph glyph-name="h" unicode="h" horiz-adv-x="1214" 
d="M412 596v-596h-285v1470h285v-520q61 80 136 122t177 42q168 0 269.5 -106.5t101.5 -300.5v-707h-283v610q0 123 -48 187.5t-144 64.5q-89 0 -149 -70t-60 -196z" />
    <glyph glyph-name="i" unicode="i" horiz-adv-x="538" 
d="M457 1348q0 -73 -53.5 -120.5t-137.5 -47.5q-83 0 -135.5 47.5t-52.5 120.5q0 75 52.5 123.5t135.5 48.5q84 0 137.5 -48.5t53.5 -123.5zM412 0h-285v1094h285v-1094z" />
    <glyph glyph-name="j" unicode="j" horiz-adv-x="536" 
d="M457 1348q0 -73 -53.5 -120.5t-137.5 -47.5t-137 47.5t-53 120.5q0 75 53 123.5t137 48.5t137.5 -48.5t53.5 -123.5zM410 1094v-1090q0 -212 -102.5 -316t-274.5 -104q-91 0 -154 23v264q48 -25 119 -25q129 0 129 166v1082h283z" />
    <glyph glyph-name="k" unicode="k" horiz-adv-x="1196" 
d="M412 0h-285v1470h285v-839l399 463h328l-453 -525l506 -569h-363l-417 508v-508z" />
    <glyph glyph-name="l" unicode="l" horiz-adv-x="542" 
d="M414 0h-287v1470h287v-1470z" />
    <glyph glyph-name="m" unicode="m" horiz-adv-x="1884" 
d="M412 0h-285v1094h262v-156q127 176 328 176q113 0 195.5 -50t123.5 -144q138 194 361 194q169 0 269.5 -107t100.5 -300v-707h-282v616q0 117 -49 181.5t-142 64.5q-88 0 -146 -66.5t-58 -185.5v-610h-283v616q0 117 -49 181.5t-142 64.5q-90 0 -147 -66.5t-57 -185.5
v-610z" />
    <glyph glyph-name="n" unicode="n" horiz-adv-x="1214" 
d="M412 596v-596h-285v1094h262v-156q129 176 336 176q168 0 269.5 -106.5t101.5 -300.5v-707h-283v610q0 123 -48 187.5t-144 64.5q-89 0 -149 -70t-60 -196z" />
    <glyph glyph-name="o" unicode="o" horiz-adv-x="1220" 
d="M610 -20q-117 0 -220 44.5t-176.5 120t-116 180.5t-42.5 222q0 158 72 287.5t199.5 204.5t283.5 75t283.5 -75t199.5 -204.5t72 -287.5q0 -117 -42.5 -222t-116 -180.5t-176.5 -120t-220 -44.5zM610 231q111 0 186.5 84.5t75.5 231.5q0 146 -75.5 229.5t-186.5 83.5
t-186.5 -83.5t-75.5 -229.5q0 -147 75.5 -231.5t186.5 -84.5z" />
    <glyph glyph-name="p" unicode="p" horiz-adv-x="1273" 
d="M1219 547q0 -162 -59.5 -290.5t-170.5 -202.5t-256 -74q-196 0 -321 161v-536h-285v1489h262v-160q63 88 151.5 134t192.5 46q144 0 255.5 -74.5t171 -203t59.5 -289.5zM926 547q0 148 -73.5 231.5t-182.5 83.5q-110 0 -183 -83t-73 -232t73 -231.5t183 -82.5t183 82
t73 232z" />
    <glyph glyph-name="q" unicode="q" horiz-adv-x="1273" 
d="M55 547q0 161 59.5 289.5t171 203t255.5 74.5q211 0 346 -180v160h260v-1489h-283v536q-125 -161 -323 -161q-145 0 -256 74t-170.5 202.5t-59.5 290.5zM348 547q0 -150 73 -232t183 -82t184 82.5t74 231.5t-74 232t-184 83q-109 0 -182.5 -83.5t-73.5 -231.5z" />
    <glyph glyph-name="r" unicode="r" horiz-adv-x="835" 
d="M412 530v-530h-285v1094h262v-211q59 103 175.5 163t250.5 60v-295q-73 4 -135 0.5t-111.5 -22t-84.5 -50.5t-53.5 -85t-18.5 -124z" />
    <glyph glyph-name="s" unicode="s" horiz-adv-x="1118" 
d="M1051 350q0 -173 -127.5 -271.5t-358.5 -98.5q-230 0 -360 103.5t-148 289.5h273q1 -84 67 -134.5t172 -50.5q88 0 141.5 28.5t53.5 84.5q0 51 -34.5 77.5t-115.5 41.5l-196 37q-150 27 -233 107t-83 206q0 153 122 248.5t325 95.5q206 0 337 -102.5t146 -278.5h-272
q-8 80 -64 126t-147 46q-80 0 -127 -28t-47 -80q0 -48 33.5 -72.5t109.5 -38.5l211 -39q322 -62 322 -297z" />
    <glyph glyph-name="t" unicode="t" horiz-adv-x="864" 
d="M807 276v-247q-98 -49 -219 -49q-172 0 -269.5 96.5t-97.5 277.5v496h-221v244h221v323h283v-323h313v-244h-313v-430q0 -178 160 -178q82 0 143 34z" />
    <glyph glyph-name="u" unicode="u" horiz-adv-x="1204" 
d="M793 461v633h282v-1094h-260v143q-45 -73 -131 -118t-188 -45q-172 0 -275.5 105.5t-103.5 311.5v697h284v-641q0 -112 50.5 -167t140.5 -55q81 0 141 62.5t60 167.5z" />
    <glyph glyph-name="v" unicode="v" horiz-adv-x="1110" 
d="M1112 1094l-401 -1094h-312l-403 1094h307l260 -770l262 770h287z" />
    <glyph glyph-name="w" unicode="w" horiz-adv-x="1636" 
d="M1024 0l-207 711l-205 -711h-284l-312 1094h277l186 -693l201 693h281l194 -693l184 693h281l-313 -1094h-283z" />
    <glyph glyph-name="x" unicode="x" horiz-adv-x="1173" 
d="M342 0h-317l368 557l-344 537h328l223 -377l225 377h299l-340 -547l367 -547h-324l-245 393z" />
    <glyph glyph-name="y" unicode="y" horiz-adv-x="1110" 
d="M1112 1094l-532 -1489h-310l156 407l-430 1082h307l275 -750l249 750h285z" />
    <glyph glyph-name="z" unicode="z" horiz-adv-x="1083" 
d="M1012 0h-932v229l563 619h-565v246h917v-234l-565 -612h582v-248z" />
    <glyph glyph-name="braceleft" unicode="{" horiz-adv-x="694" 
d="M23 416v246q95 0 135.5 36.5t40.5 118.5v324q0 160 100.5 248t282.5 88q32 0 90 -7v-245q-30 6 -56 6q-60 0 -91 -31t-31 -88v-328q0 -203 -187 -243q187 -43 187 -248v-328q0 -59 32 -90t92 -31q27 0 54 6v-245q-50 -6 -90 -6q-183 0 -283 87.5t-100 247.5v324
q0 83 -41 120.5t-135 37.5z" />
    <glyph glyph-name="bar" unicode="|" horiz-adv-x="675" 
d="M481 -395h-284v1865h284v-1865z" />
    <glyph glyph-name="braceright" unicode="}" horiz-adv-x="694" 
d="M672 659v-245q-93 0 -134.5 -37t-41.5 -119v-324q0 -160 -100.5 -247.5t-282.5 -87.5q-41 0 -90 6v245q30 -6 55 -6q60 0 91.5 31t31.5 88v328q0 204 186 244q-186 42 -186 247v328q0 58 -32.5 89.5t-92.5 31.5q-26 0 -53 -6v245q58 7 92 7q181 0 281 -88t100 -248v-324
q0 -82 41.5 -120t134.5 -38z" />
    <glyph glyph-name="asciitilde" unicode="~" horiz-adv-x="1351" 
d="M928 492q-66 0 -142 25.5t-131.5 56t-113 56t-90.5 25.5q-54 0 -78 -37.5t-23 -130.5h-231q-27 186 60.5 304t246.5 118q66 0 142 -25.5t131 -56.5t112.5 -56.5t91.5 -25.5q54 0 77.5 37.5t20.5 130.5h232q29 -186 -58 -303.5t-247 -117.5z" />
    <glyph glyph-name="nbspace" unicode="&#xa0;" horiz-adv-x="428" 
 />
    <glyph glyph-name="exclamdown" unicode="&#xa1;" horiz-adv-x="585" 
d="M489 915q0 -83 -55 -135.5t-141 -52.5t-141.5 52.5t-55.5 135.5q0 80 56 133.5t141 53.5q84 0 140 -53.5t56 -133.5zM473 -395h-358l71 1042h213z" />
    <glyph glyph-name="cent" unicode="&#xa2;" horiz-adv-x="1214" 
d="M696 -162h-186v150q-202 32 -328.5 187t-126.5 372q0 219 126.5 373t328.5 186v172h186v-170q191 -26 315.5 -155.5t147.5 -325.5h-299q-11 102 -78 167.5t-174 65.5q-118 0 -190 -85.5t-72 -227.5q0 -139 73 -227.5t189 -88.5q105 0 173 67.5t79 168.5h299
q-23 -195 -148.5 -325t-314.5 -156v-148z" />
    <glyph glyph-name="sterling" unicode="&#xa3;" horiz-adv-x="1216" 
d="M381 168q-49 0 -70 -37.5t-20 -130.5h-232q-20 136 26.5 236.5t143.5 140.5v246h-153v184h153v156q0 202 126.5 322t332.5 120q195 0 325 -108.5t142 -309.5h-305q-14 164 -170 164q-77 0 -120.5 -48t-43.5 -140v-156h334v-184h-334v-252q34 -16 101 -54.5t114 -57.5
t90 -19q120 0 103 168h231q29 -187 -56.5 -305.5t-242.5 -118.5q-67 0 -142.5 29t-129.5 63t-111.5 63t-91.5 29z" />
    <glyph glyph-name="currency" unicode="&#xa4;" horiz-adv-x="1351" 
d="M676 262q-120 0 -211 55l-164 -163l-166 165l152 152q-64 98 -64 221q0 120 64 223l-154 154l168 164l164 -164q98 53 211 53t211 -53l164 164l168 -164l-154 -154q63 -101 63 -223q0 -124 -63 -221l152 -152l-166 -165l-164 163q-91 -55 -211 -55zM676 465
q96 0 158.5 59t62.5 168t-62.5 168.5t-158.5 59.5t-158.5 -59.5t-62.5 -168.5t62.5 -168t158.5 -59z" />
    <glyph glyph-name="yen" unicode="&#xa5;" horiz-adv-x="1239" 
d="M1161 281h-399v-281h-287v281h-397v184h397v55l-37 72h-360v184h268l-307 606h311l279 -583l284 583h287l-309 -606h270v-184h-362l-37 -72v-55h399v-184z" />
    <glyph glyph-name="brokenbar" unicode="&#xa6;" horiz-adv-x="671" 
d="M197 1470h278v-827h-278v827zM197 432h278v-827h-278v827z" />
    <glyph glyph-name="section" unicode="&#xa7;" horiz-adv-x="1187" 
d="M63 473q0 202 246 289q-170 89 -170 278q0 163 124.5 262t316.5 99q206 0 335.5 -110.5t143.5 -286.5h-279q-9 83 -63.5 133.5t-136.5 50.5q-76 0 -123 -39t-47 -98q0 -60 43.5 -96.5t130.5 -57.5l194 -51q180 -46 263 -124.5t83 -203.5q0 -215 -227 -317
q92 -41 134 -104.5t42 -157.5q0 -155 -131 -257t-328 -102q-228 0 -368.5 111t-157.5 297h279q8 -89 69 -142t160 -53q90 0 144.5 40.5t54.5 107.5q0 58 -44 92t-145 59l-194 47q-349 83 -349 334zM330 506q0 -82 85 -126t226 -44q108 0 162.5 39t54.5 108q0 82 -86.5 126
t-226.5 44q-105 0 -160 -39.5t-55 -107.5z" />
    <glyph glyph-name="dieresis" unicode="&#xa8;" 
d="M913 1343q0 -71 -49 -117t-123 -46q-78 0 -127 45.5t-49 117.5q0 75 49 121.5t127 46.5q74 0 123 -47t49 -121zM459 1343q0 -72 -48 -117.5t-126 -45.5q-75 0 -124.5 45.5t-49.5 117.5q0 74 49 121t125 47q78 0 126 -46.5t48 -121.5z" />
    <glyph glyph-name="copyright" unicode="&#xa9;" horiz-adv-x="1611" 
d="M805 -18q-152 0 -287.5 56t-231 151.5t-151 226.5t-55.5 276q0 146 55.5 277.5t151 227.5t231 152t287.5 56q153 0 288.5 -56t231.5 -152t151.5 -227.5t55.5 -277.5q0 -145 -55.5 -276t-151.5 -226.5t-231.5 -151.5t-288.5 -56zM805 129q162 0 291 75.5t198.5 203.5
t69.5 284q0 157 -69.5 285t-198 203t-291.5 75q-161 0 -289 -75t-198 -203.5t-70 -284.5t70 -284t198 -203.5t289 -75.5zM991 635h183q-19 -142 -121 -230t-248 -88q-153 0 -259 108.5t-106 266.5t106 266.5t259 108.5q146 0 248 -88t121 -229h-183q-12 74 -62 118.5
t-122 44.5q-86 0 -137.5 -61t-51.5 -160t51.5 -161t137.5 -62q71 0 122.5 46.5t61.5 119.5z" />
    <glyph glyph-name="ordfeminine" unicode="&#xaa;" horiz-adv-x="876" 
d="M610 522v101q-86 -117 -262 -117q-138 0 -221.5 73t-83.5 193q0 126 100.5 193t292.5 67q66 0 144 -10v49q0 67 -39.5 104t-108.5 37q-71 0 -115 -37t-45 -104h-213q8 140 115.5 234t259.5 94q174 0 272.5 -90t98.5 -248v-539h-195zM266 780q0 -51 35.5 -80.5t97.5 -29.5
q84 0 132.5 40.5t48.5 108.5v60q-59 10 -127 10q-187 0 -187 -109z" />
    <glyph glyph-name="guillemotleft" unicode="&#xab;" horiz-adv-x="1175" 
d="M645 127h-311l-299 420l299 420h311l-283 -420zM1139 127h-312l-299 420l299 420h312l-281 -420z" />
    <glyph glyph-name="logicalnot" unicode="&#xac;" horiz-adv-x="1351" 
d="M1167 354h-266v443h-737v245h1003v-688z" />
    <glyph glyph-name="softhyphen" unicode="&#xad;" horiz-adv-x="737" 
d="M682 436h-625v254h625v-254z" />
    <glyph glyph-name="registered" unicode="&#xae;" horiz-adv-x="1611" 
d="M805 -18q-152 0 -287.5 56t-231 151.5t-151 226.5t-55.5 276q0 146 55.5 277.5t151 227.5t231 152t287.5 56q153 0 288.5 -56t231.5 -152t151.5 -227.5t55.5 -277.5q0 -145 -55.5 -276t-151.5 -226.5t-231.5 -151.5t-288.5 -56zM805 129q162 0 291 75.5t198.5 203.5
t69.5 284q0 157 -69.5 285t-198 203t-291.5 75q-161 0 -289 -75t-198 -203.5t-70 -284.5t70 -284t198 -203.5t289 -75.5zM930 332l-154 246h-80v-246h-170v721h289q141 0 219 -61.5t78 -176.5q0 -74 -43 -128.5t-115 -80.5l185 -274h-209zM807 911h-111v-190h111
q135 0 135 94q0 44 -34 70t-101 26z" />
    <glyph glyph-name="macron" unicode="&#xaf;" 
d="M848 1206h-670v187h670v-187z" />
    <glyph glyph-name="degree" unicode="&#xb0;" horiz-adv-x="974" 
d="M487 621q-192 0 -321 125t-129 305q0 181 129 305.5t321 124.5t321.5 -124.5t129.5 -305.5q0 -180 -129.5 -305t-321.5 -125zM487 821q94 0 157 64t63 166q0 103 -62.5 166t-157.5 63t-158 -63t-63 -166q0 -102 63.5 -166t157.5 -64z" />
    <glyph glyph-name="plusminus" unicode="&#xb1;" horiz-adv-x="1351" 
d="M809 362h-266v379h-379v248h379v377h266v-377h379v-248h-379v-379zM1188 0h-1024v248h1024v-248z" />
    <glyph glyph-name="twosuperior" unicode="&#xb2;" horiz-adv-x="755" 
d="M707 1223v-168h-644l3 106l278 252q84 75 118 118.5t34 92.5q0 45 -37 76t-99 31q-67 0 -104 -32t-37 -91h-182q0 128 94.5 209t241.5 81q145 0 232 -74.5t87 -174.5q0 -79 -45.5 -143.5t-161.5 -166.5l-123 -116h345z" />
    <glyph glyph-name="threesuperior" unicode="&#xb3;" horiz-adv-x="815" 
d="M754 1307q0 -117 -98 -188.5t-255 -71.5q-149 0 -244.5 72t-95.5 186h183q4 -52 46.5 -80.5t112.5 -28.5q73 0 114.5 28t41.5 79q0 49 -47.5 76.5t-132.5 27.5h-100v149h90q69 0 109 26.5t40 72.5q0 44 -34 70t-93 26t-93 -29t-36 -77h-182q2 108 93.5 182t225.5 74
q143 0 228.5 -64.5t85.5 -167.5q0 -108 -129 -176q81 -25 125.5 -73t44.5 -113z" />
    <glyph glyph-name="acute" unicode="&#xb4;" 
d="M541 1182h-297l205 311h329z" />
    <glyph glyph-name="micro" unicode="&#xb5;" horiz-adv-x="1232" 
d="M408 -395h-281v1489h285v-621q0 -242 206 -242q96 0 149.5 67t53.5 169v627h283v-1094h-277v117q-32 -63 -93.5 -100t-133.5 -37q-143 0 -215 81z" />
    <glyph glyph-name="paragraph" unicode="&#xb6;" horiz-adv-x="1511" 
d="M850 -395h-283v796q-239 15 -373.5 142.5t-134.5 347.5q0 235 154.5 365t421.5 130h835v-253h-161v-1528h-285v1528h-174v-1528z" />
    <glyph glyph-name="periodcentered" unicode="&#xb7;" horiz-adv-x="538" 
d="M461 543q0 -85 -53 -139t-138 -54t-138.5 54t-53.5 139q0 86 53.5 140t138.5 54t138 -54t53 -140z" />
    <glyph glyph-name="cedilla" unicode="&#xb8;" 
d="M770 -231q0 -77 -71 -126t-181 -49q-113 0 -181.5 51t-80.5 146h174q11 -63 78 -63q30 0 48.5 16t18.5 41q0 90 -155 74l45 174h139l-29 -99q88 -11 141.5 -55.5t53.5 -109.5z" />
    <glyph glyph-name="onesuperior" unicode="&#xb9;" horiz-adv-x="493" 
d="M389 1055h-190v667h-172v164h362v-831z" />
    <glyph glyph-name="ordmasculine" unicode="&#xba;" horiz-adv-x="999" 
d="M500 506q-193 0 -322 129t-129 317t129.5 317.5t321.5 129.5q191 0 319.5 -129.5t128.5 -317.5t-128.5 -317t-319.5 -129zM500 719q86 0 144 61.5t58 171.5t-58 172t-144 62t-145.5 -62.5t-59.5 -171.5q0 -110 59 -171.5t146 -61.5z" />
    <glyph glyph-name="guillemotright" unicode="&#xbb;" horiz-adv-x="1175" 
d="M35 967h313l297 -420l-297 -420h-313l282 420zM528 967h314l297 -420l-297 -420h-314l283 420z" />
    <glyph glyph-name="onequarter" unicode="&#xbc;" horiz-adv-x="1583" 
d="M389 553h-190v668h-172v163h362v-831zM438 0h-227l786 1384h228zM1526 158h-129v-158h-189v158h-436v139l475 534h150v-509h129v-164zM989 322h219v251z" />
    <glyph glyph-name="onehalf" unicode="&#xbd;" horiz-adv-x="1683" 
d="M389 553h-190v668h-172v163h362v-831zM438 0h-227l786 1384h228zM1632 168v-168h-643l2 106l281 252q83 75 117 118t34 93q0 45 -37.5 76t-99.5 31q-65 0 -102 -32t-37 -91h-182q0 129 94 210t241 81q145 0 232.5 -75t87.5 -175q0 -79 -45.5 -142.5t-161.5 -166.5
l-123 -117h342z" />
    <glyph glyph-name="threequarters" unicode="&#xbe;" horiz-adv-x="1910" 
d="M754 805q0 -117 -98 -188.5t-255 -71.5q-149 0 -244.5 72t-95.5 186h183q4 -52 46.5 -80.5t112.5 -28.5q73 0 114.5 28t41.5 79q0 49 -47.5 76.5t-132.5 27.5h-100v150h90q69 0 109 26t40 72q0 44 -34 70t-93 26t-93 -29t-36 -77h-182q2 108 93.5 182t225.5 74
q143 0 228.5 -64.5t85.5 -167.5q0 -108 -129 -176q81 -25 125.5 -73t44.5 -113zM760 0h-228l787 1384h227zM1851 158h-129v-158h-186v158h-438v139l475 534h149v-509h129v-164zM1315 322h221v251z" />
    <glyph glyph-name="questiondown" unicode="&#xbf;" horiz-adv-x="1060" 
d="M362 915q0 80 56.5 133.5t142.5 53.5t143.5 -53.5t57.5 -133.5q0 -83 -56.5 -136.5t-144.5 -53.5q-86 0 -142.5 53.5t-56.5 136.5zM758 16h266q-9 -191 -150 -311.5t-354 -120.5q-214 0 -348.5 109t-134.5 280q0 80 46 153.5t138 154.5l139 129q68 61 89 109.5t6 127.5
h184q31 -79 39 -132t-12.5 -109t-77.5 -111l-137 -131q-55 -54 -78 -89.5t-23 -78.5q0 -71 54 -115.5t145 -44.5q90 0 145.5 48.5t63.5 131.5z" />
    <glyph glyph-name="Agrave" unicode="&#xc0;" horiz-adv-x="1495" 
d="M891 1556h-295l-238 314h330zM1135 0l-111 315h-571l-113 -315h-313l553 1470h340l548 -1470h-333zM741 1130l-200 -567h397z" />
    <glyph glyph-name="Aacute" unicode="&#xc1;" horiz-adv-x="1495" 
d="M901 1556h-295l205 314h330zM1135 0l-111 315h-571l-113 -315h-313l553 1470h340l548 -1470h-333zM741 1130l-200 -567h397z" />
    <glyph glyph-name="Acircumflex" unicode="&#xc2;" horiz-adv-x="1495" 
d="M604 1556h-313l282 314h353l280 -314h-311l-145 162zM1135 0l-111 315h-571l-113 -315h-313l553 1470h340l548 -1470h-333zM741 1130l-200 -567h397z" />
    <glyph glyph-name="Atilde" unicode="&#xc3;" horiz-adv-x="1495" 
d="M545 1548h-174q-23 143 38 232.5t175 89.5q58 0 118.5 -26t108.5 -51.5t74 -25.5q68 0 65 117h174q23 -138 -39 -228.5t-176 -90.5q-58 0 -118 25t-108 50t-75 25q-68 0 -63 -117zM1135 0l-111 315h-571l-113 -315h-313l553 1470h340l548 -1470h-333zM741 1130l-200 -567
h397z" />
    <glyph glyph-name="Adieresis" unicode="&#xc4;" horiz-adv-x="1495" 
d="M1151 1720q0 -72 -49.5 -119t-124.5 -47q-76 0 -126 47t-50 119q0 75 49.5 121.5t126.5 46.5q76 0 125 -47t49 -121zM696 1720q0 -73 -48.5 -119.5t-127.5 -46.5q-74 0 -123 47t-49 119q0 74 49 121t123 47q79 0 127.5 -46.5t48.5 -121.5zM1135 0l-111 315h-571
l-113 -315h-313l553 1470h340l548 -1470h-333zM741 1130l-200 -567h397z" />
    <glyph glyph-name="Aring" unicode="&#xc5;" horiz-adv-x="1495" 
d="M750 1546q-120 0 -198.5 74t-78.5 178q0 106 78 181t199 75q120 0 199 -75t79 -181q0 -103 -79.5 -177.5t-198.5 -74.5zM750 1690q47 0 78.5 27.5t31.5 80.5q0 54 -31.5 83.5t-78.5 29.5q-46 0 -79.5 -29.5t-33.5 -83.5q0 -52 33 -80t80 -28zM1135 0l-111 315h-571
l-113 -315h-313l553 1470h340l548 -1470h-333zM741 1130l-200 -567h397z" />
    <glyph glyph-name="AE" unicode="&#xc6;" horiz-adv-x="1894" 
d="M899 315h-416l-149 -315h-348l727 1470h1075v-268h-578v-311h516v-268h-516v-355h592v-268h-903v315zM899 563v635l-299 -635h299z" />
    <glyph glyph-name="Ccedilla" unicode="&#xc7;" horiz-adv-x="1609" 
d="M1040 -231q0 -76 -70 -125.5t-179 -49.5q-114 0 -183.5 51.5t-79.5 145.5h174q11 -63 78 -63q30 0 49 16t19 41q0 90 -158 74l31 114q-185 20 -334.5 125t-235 273t-85.5 366q0 159 57.5 300.5t155.5 243t234.5 161t289.5 59.5q291 0 497 -176.5t244 -458.5h-330
q-26 159 -138.5 258t-268.5 99q-189 0 -305.5 -135t-116.5 -351q0 -217 116.5 -353t305.5 -136q156 0 267.5 99.5t139.5 258.5h330q-37 -270 -226 -444t-460 -191l-10 -37q88 -11 140 -55t52 -110z" />
    <glyph glyph-name="Egrave" unicode="&#xc8;" horiz-adv-x="1230" 
d="M786 1556h-294l-238 314h330zM1141 270v-270h-989v1470h974v-270h-663v-309h602v-268h-602v-353h678z" />
    <glyph glyph-name="Eacute" unicode="&#xc9;" horiz-adv-x="1230" 
d="M799 1556h-297l205 314h329zM1141 270v-270h-989v1470h974v-270h-663v-309h602v-268h-602v-353h678z" />
    <glyph glyph-name="Ecircumflex" unicode="&#xca;" horiz-adv-x="1230" 
d="M500 1556h-314l283 314h352l283 -314h-313l-146 162zM1141 270v-270h-989v1470h974v-270h-663v-309h602v-268h-602v-353h678z" />
    <glyph glyph-name="Edieresis" unicode="&#xcb;" horiz-adv-x="1230" 
d="M1047 1720q0 -72 -49.5 -119t-123.5 -47q-78 0 -128 47t-50 119q0 75 50 121.5t128 46.5q74 0 123.5 -47t49.5 -121zM592 1720q0 -73 -48.5 -119.5t-127.5 -46.5q-74 0 -123 47t-49 119q0 74 49 121t123 47q79 0 127.5 -46.5t48.5 -121.5zM1141 270v-270h-989v1470h974
v-270h-663v-309h602v-268h-602v-353h678z" />
    <glyph glyph-name="Igrave" unicode="&#xcc;" horiz-adv-x="612" 
d="M451 1556h-297l-215 314h329zM463 0h-311v1470h311v-1470z" />
    <glyph glyph-name="Iacute" unicode="&#xcd;" horiz-adv-x="612" 
d="M461 1556h-295l184 314h328zM463 0h-311v1470h311v-1470z" />
    <glyph glyph-name="Icircumflex" unicode="&#xce;" horiz-adv-x="612" 
d="M186 1556h-313l256 314h360l252 -314h-311l-121 162zM463 0h-311v1470h311v-1470z" />
    <glyph glyph-name="Idieresis" unicode="&#xcf;" horiz-adv-x="612" 
d="M690 1720q0 -72 -47 -119t-119 -47q-76 0 -124 47t-48 119q0 75 47.5 121.5t124.5 46.5q72 0 119 -47t47 -121zM266 1720q0 -72 -48 -119t-124 -47q-72 0 -120 47t-48 119q0 74 47.5 121t120.5 47q77 0 124.5 -46.5t47.5 -121.5zM463 0h-311v1470h311v-1470z" />
    <glyph glyph-name="Eth" unicode="&#xd0;" horiz-adv-x="1548" 
d="M735 0h-524v631h-199v252h199v587h524q172 0 313.5 -53.5t237 -149.5t147.5 -230t52 -294q0 -159 -53.5 -296.5t-149.5 -236t-237.5 -154.5t-309.5 -56zM817 631h-295v-363h197q219 0 332.5 122.5t113.5 352.5q0 221 -114.5 340t-331.5 119h-197v-319h295v-252z" />
    <glyph glyph-name="Ntilde" unicode="&#xd1;" horiz-adv-x="1566" 
d="M578 1548h-175q-23 143 38 232.5t175 89.5q58 0 119.5 -26t109 -51.5t73.5 -25.5q70 0 65 117h176q22 -139 -40 -229t-177 -90q-58 0 -118 25t-107.5 50t-73.5 25q-68 0 -65 -117zM1110 0l-674 1026v-1026h-284v1470h335l641 -974v974h287v-1470h-305z" />
    <glyph glyph-name="Ograve" unicode="&#xd2;" horiz-adv-x="1636" 
d="M961 1556h-295l-240 314h330zM817 -31q-209 0 -381 99.5t-271 276t-99 392.5t99 391.5t270.5 274t381.5 98.5q158 0 297.5 -58t240.5 -158.5t159.5 -243t58.5 -304.5t-58.5 -305t-159.5 -244.5t-240.5 -160t-297.5 -58.5zM817 248q131 0 231 66t151.5 176.5t51.5 246.5
q0 208 -118.5 347t-315.5 139q-196 0 -314 -139t-118 -347q0 -136 51.5 -246.5t151 -176.5t229.5 -66z" />
    <glyph glyph-name="Oacute" unicode="&#xd3;" horiz-adv-x="1636" 
d="M971 1556h-295l205 314h327zM817 -31q-209 0 -381 99.5t-271 276t-99 392.5t99 391.5t270.5 274t381.5 98.5q158 0 297.5 -58t240.5 -158.5t159.5 -243t58.5 -304.5t-58.5 -305t-159.5 -244.5t-240.5 -160t-297.5 -58.5zM817 248q131 0 231 66t151.5 176.5t51.5 246.5
q0 208 -118.5 347t-315.5 139q-196 0 -314 -139t-118 -347q0 -136 51.5 -246.5t151 -176.5t229.5 -66z" />
    <glyph glyph-name="Ocircumflex" unicode="&#xd4;" horiz-adv-x="1636" 
d="M674 1556h-314l283 314h352l281 -314h-311l-148 162zM817 -31q-209 0 -381 99.5t-271 276t-99 392.5t99 391.5t270.5 274t381.5 98.5q158 0 297.5 -58t240.5 -158.5t159.5 -243t58.5 -304.5t-58.5 -305t-159.5 -244.5t-240.5 -160t-297.5 -58.5zM817 248q131 0 231 66
t151.5 176.5t51.5 246.5q0 208 -118.5 347t-315.5 139q-196 0 -314 -139t-118 -347q0 -136 51.5 -246.5t151 -176.5t229.5 -66z" />
    <glyph glyph-name="Otilde" unicode="&#xd5;" horiz-adv-x="1636" 
d="M614 1548h-174q-24 142 37.5 232t173.5 90q59 0 120 -26t108 -51.5t73 -25.5q71 0 68 117h174q22 -139 -40 -229t-175 -90q-58 0 -118 25t-108 50t-75 25q-69 0 -64 -117zM817 -31q-209 0 -381 99.5t-271 276t-99 392.5t99 391.5t270.5 274t381.5 98.5q158 0 297.5 -58
t240.5 -158.5t159.5 -243t58.5 -304.5t-58.5 -305t-159.5 -244.5t-240.5 -160t-297.5 -58.5zM817 248q131 0 231 66t151.5 176.5t51.5 246.5q0 208 -118.5 347t-315.5 139q-196 0 -314 -139t-118 -347q0 -136 51.5 -246.5t151 -176.5t229.5 -66z" />
    <glyph glyph-name="Odieresis" unicode="&#xd6;" horiz-adv-x="1636" 
d="M1219 1720q0 -72 -49 -119t-123 -47q-77 0 -127 47t-50 119q0 74 50 121t127 47q74 0 123 -47t49 -121zM766 1720q0 -72 -49 -119t-127 -47q-75 0 -124.5 47t-49.5 119q0 74 49 121t125 47q78 0 127 -46.5t49 -121.5zM817 -31q-209 0 -381 99.5t-271 276t-99 392.5
t99 391.5t270.5 274t381.5 98.5q158 0 297.5 -58t240.5 -158.5t159.5 -243t58.5 -304.5t-58.5 -305t-159.5 -244.5t-240.5 -160t-297.5 -58.5zM817 248q131 0 231 66t151.5 176.5t51.5 246.5q0 208 -118.5 347t-315.5 139q-196 0 -314 -139t-118 -347q0 -136 51.5 -246.5
t151 -176.5t229.5 -66z" />
    <glyph glyph-name="multiply" unicode="&#xd7;" horiz-adv-x="1351" 
d="M350 203l-164 168l322 321l-322 324l164 168l324 -326l321 324l170 -164l-325 -326l323 -321l-168 -166l-321 321z" />
    <glyph glyph-name="Oslash" unicode="&#xd8;" horiz-adv-x="1636" 
d="M387 0h-278l157 205q-95 103 -147.5 239.5t-52.5 292.5q0 216 99 391.5t270.5 274t381.5 98.5q208 0 381 -98l53 67h277l-158 -202q97 -103 150 -239t53 -292q0 -162 -58.5 -305t-159.5 -244.5t-240.5 -160t-297.5 -58.5q-206 0 -377 99zM385 737q0 -160 74 -286l561 723
q-90 49 -203 49q-196 0 -314 -139t-118 -347zM817 248q131 0 231 66t151.5 176.5t51.5 246.5q0 165 -71 283l-564 -723q85 -49 201 -49z" />
    <glyph glyph-name="Ugrave" unicode="&#xd9;" horiz-adv-x="1503" 
d="M895 1556h-295l-240 314h330zM1358 1470v-911q0 -174 -70.5 -307t-208 -208t-325.5 -75q-286 0 -446.5 161.5t-160.5 428.5v911h312v-917q0 -143 72.5 -224t222.5 -81q148 0 220.5 81t72.5 224v917h311z" />
    <glyph glyph-name="Uacute" unicode="&#xda;" horiz-adv-x="1503" 
d="M905 1556h-295l205 314h328zM1358 1470v-911q0 -174 -70.5 -307t-208 -208t-325.5 -75q-286 0 -446.5 161.5t-160.5 428.5v911h312v-917q0 -143 72.5 -224t222.5 -81q148 0 220.5 81t72.5 224v917h311z" />
    <glyph glyph-name="Ucircumflex" unicode="&#xdb;" horiz-adv-x="1503" 
d="M608 1556h-313l283 314h352l280 -314h-311l-145 162zM1358 1470v-911q0 -174 -70.5 -307t-208 -208t-325.5 -75q-286 0 -446.5 161.5t-160.5 428.5v911h312v-917q0 -143 72.5 -224t222.5 -81q148 0 220.5 81t72.5 224v917h311z" />
    <glyph glyph-name="Udieresis" unicode="&#xdc;" horiz-adv-x="1503" 
d="M1155 1720q0 -72 -49.5 -119t-124.5 -47q-76 0 -126 47t-50 119q0 75 49.5 121.5t126.5 46.5q76 0 125 -47t49 -121zM700 1720q0 -72 -49 -119t-127 -47q-74 0 -123 47t-49 119q0 74 49 121t123 47q78 0 127 -46.5t49 -121.5zM1358 1470v-911q0 -174 -70.5 -307
t-208 -208t-325.5 -75q-286 0 -446.5 161.5t-160.5 428.5v911h312v-917q0 -143 72.5 -224t222.5 -81q148 0 220.5 81t72.5 224v917h311z" />
    <glyph glyph-name="Yacute" unicode="&#xdd;" horiz-adv-x="1380" 
d="M852 1556h-295l205 314h328zM844 553v-553h-312v553l-520 917h336l350 -632l357 632h313z" />
    <glyph glyph-name="Thorn" unicode="&#xde;" horiz-adv-x="1325" 
d="M684 244h-221v-244h-311v1470h311v-233h221q273 0 427.5 -126.5t154.5 -362.5q0 -239 -155.5 -371.5t-426.5 -132.5zM682 975h-219v-469h219q130 0 202 63.5t72 173.5q0 111 -71 171.5t-203 60.5z" />
    <glyph glyph-name="germandbls" unicode="&#xdf;" horiz-adv-x="1302" 
d="M1251 428q0 -212 -128.5 -330t-360.5 -118q-86 0 -129 14v223q59 -10 108 -10q103 0 162.5 58.5t59.5 158.5q0 103 -69 161t-189 58h-72v229h49q95 0 153 57.5t58 151.5q0 85 -49.5 135t-134.5 50q-90 0 -142.5 -58.5t-52.5 -158.5v-1049h-283v850h-221v244h223
q23 171 150 284t330 113q217 0 343 -111.5t126 -277.5q0 -102 -55.5 -184t-149.5 -127q129 -38 201.5 -134t72.5 -229z" />
    <glyph glyph-name="agrave" unicode="&#xe0;" horiz-adv-x="1128" 
d="M705 1182h-297l-238 311h330zM778 0v135q-109 -155 -329 -155q-171 0 -275 92t-104 245q0 160 126 244t365 84q80 0 182 -12v65q0 92 -49.5 143.5t-138.5 51.5q-92 0 -145.5 -51t-61.5 -144h-256q12 189 138.5 302.5t324.5 113.5q215 0 335 -112.5t120 -313.5v-688h-232z
M338 326q0 -69 46.5 -109.5t125.5 -40.5q108 0 170.5 55.5t62.5 151.5v78q-95 14 -163 14q-242 0 -242 -149z" />
    <glyph glyph-name="aacute" unicode="&#xe1;" horiz-adv-x="1128" 
d="M715 1182h-297l207 311h327zM778 0v135q-109 -155 -329 -155q-171 0 -275 92t-104 245q0 160 126 244t365 84q80 0 182 -12v65q0 92 -49.5 143.5t-138.5 51.5q-92 0 -145.5 -51t-61.5 -144h-256q12 189 138.5 302.5t324.5 113.5q215 0 335 -112.5t120 -313.5v-688h-232z
M338 326q0 -69 46.5 -109.5t125.5 -40.5q108 0 170.5 55.5t62.5 151.5v78q-95 14 -163 14q-242 0 -242 -149z" />
    <glyph glyph-name="acircumflex" unicode="&#xe2;" horiz-adv-x="1128" 
d="M416 1182h-314l283 311h352l283 -311h-311l-148 161zM778 0v135q-109 -155 -329 -155q-171 0 -275 92t-104 245q0 160 126 244t365 84q80 0 182 -12v65q0 92 -49.5 143.5t-138.5 51.5q-92 0 -145.5 -51t-61.5 -144h-256q12 189 138.5 302.5t324.5 113.5q215 0 335 -112.5
t120 -313.5v-688h-232zM338 326q0 -69 46.5 -109.5t125.5 -40.5q108 0 170.5 55.5t62.5 151.5v78q-95 14 -163 14q-242 0 -242 -149z" />
    <glyph glyph-name="atilde" unicode="&#xe3;" horiz-adv-x="1128" 
d="M356 1174h-174q-23 141 38 230t175 89q58 0 118.5 -25t108.5 -50t74 -25q71 0 66 114h174q23 -138 -39 -228.5t-176 -90.5q-58 0 -118 25t-107.5 50t-73.5 25q-71 0 -66 -114zM778 0v135q-109 -155 -329 -155q-171 0 -275 92t-104 245q0 160 126 244t365 84q80 0 182 -12
v65q0 92 -49.5 143.5t-138.5 51.5q-92 0 -145.5 -51t-61.5 -144h-256q12 189 138.5 302.5t324.5 113.5q215 0 335 -112.5t120 -313.5v-688h-232zM338 326q0 -69 46.5 -109.5t125.5 -40.5q108 0 170.5 55.5t62.5 151.5v78q-95 14 -163 14q-242 0 -242 -149z" />
    <glyph glyph-name="adieresis" unicode="&#xe4;" horiz-adv-x="1128" 
d="M963 1343q0 -71 -49 -117t-123 -46q-78 0 -127.5 45.5t-49.5 117.5q0 75 49.5 121.5t127.5 46.5q74 0 123 -47t49 -121zM508 1343q0 -72 -48.5 -117.5t-127.5 -45.5q-74 0 -123 46t-49 117q0 74 49 121t123 47q79 0 127.5 -46.5t48.5 -121.5zM778 0v135
q-109 -155 -329 -155q-171 0 -275 92t-104 245q0 160 126 244t365 84q80 0 182 -12v65q0 92 -49.5 143.5t-138.5 51.5q-92 0 -145.5 -51t-61.5 -144h-256q12 189 138.5 302.5t324.5 113.5q215 0 335 -112.5t120 -313.5v-688h-232zM338 326q0 -69 46.5 -109.5t125.5 -40.5
q108 0 170.5 55.5t62.5 151.5v78q-95 14 -163 14q-242 0 -242 -149z" />
    <glyph glyph-name="aring" unicode="&#xe5;" horiz-adv-x="1128" 
d="M561 1171q-121 0 -198.5 73.5t-77.5 178.5q0 106 77.5 180t198.5 74q120 0 199.5 -74t79.5 -180q0 -104 -79.5 -178t-199.5 -74zM561 1315q49 0 80 27t31 81q0 53 -31.5 82t-79.5 29q-46 0 -79 -29t-33 -82t32.5 -80.5t79.5 -27.5zM778 0v135q-109 -155 -329 -155
q-171 0 -275 92t-104 245q0 160 126 244t365 84q80 0 182 -12v65q0 92 -49.5 143.5t-138.5 51.5q-92 0 -145.5 -51t-61.5 -144h-256q12 189 138.5 302.5t324.5 113.5q215 0 335 -112.5t120 -313.5v-688h-232zM338 326q0 -69 46.5 -109.5t125.5 -40.5q108 0 170.5 55.5
t62.5 151.5v78q-95 14 -163 14q-242 0 -242 -149z" />
    <glyph glyph-name="ae" unicode="&#xe6;" horiz-adv-x="1800" 
d="M70 315q0 158 126 243t361 85q111 0 186 -10v63q0 93 -50 145t-140 52t-146 -51t-57 -144h-256q11 180 138.5 298t318.5 118q247 0 348 -162q63 77 153 119.5t197 42.5q163 0 280.5 -78t172.5 -222t35 -333h-736q3 -134 63 -206t175 -72q90 0 142.5 44t66.5 124h287
q-40 -184 -168 -286.5t-316 -102.5q-132 0 -235.5 55.5t-167.5 163.5q-57 -105 -155.5 -163t-229.5 -58q-175 0 -284 92.5t-109 242.5zM1231 905q-93 0 -153.5 -62.5t-69.5 -180.5h438q-5 117 -60 180t-155 63zM338 324q0 -68 46.5 -108t125.5 -40q107 0 170 60.5t63 162.5
v62q-66 10 -170 10q-235 0 -235 -147z" />
    <glyph glyph-name="ccedilla" unicode="&#xe7;" horiz-adv-x="1173" 
d="M821 -231q0 -76 -70.5 -125.5t-179.5 -49.5q-113 0 -182.5 51t-81.5 146h176q11 -63 78 -63q30 0 49 16t19 41q0 90 -158 74l33 127q-203 28 -326 181t-123 380q0 246 151.5 406.5t381.5 160.5q214 0 359 -133t171 -354h-299q-11 109 -72.5 172t-158.5 63
q-111 0 -176.5 -84.5t-65.5 -230.5q0 -148 64.5 -232t177.5 -84q98 0 158.5 61.5t72.5 174.5h299q-23 -211 -150 -339.5t-325 -145.5l-14 -48q87 -11 139.5 -55.5t52.5 -109.5z" />
    <glyph glyph-name="egrave" unicode="&#xe8;" horiz-adv-x="1185" 
d="M727 1182h-295l-237 311h329zM602 -18q-246 0 -396.5 156.5t-150.5 412.5q0 245 153.5 404t389.5 159q170 0 299.5 -84.5t189.5 -231t35 -321.5h-776q14 -134 78 -205t172 -71q93 0 155 44t87 126h282q-46 -185 -182 -287t-336 -102zM592 905q-100 0 -161.5 -63.5
t-80.5 -184.5h471q-6 115 -67 181.5t-162 66.5z" />
    <glyph glyph-name="eacute" unicode="&#xe9;" horiz-adv-x="1185" 
d="M737 1182h-295l205 311h330zM602 -18q-246 0 -396.5 156.5t-150.5 412.5q0 245 153.5 404t389.5 159q170 0 299.5 -84.5t189.5 -231t35 -321.5h-776q14 -134 78 -205t172 -71q93 0 155 44t87 126h282q-46 -185 -182 -287t-336 -102zM592 905q-100 0 -161.5 -63.5
t-80.5 -184.5h471q-6 115 -67 181.5t-162 66.5z" />
    <glyph glyph-name="ecircumflex" unicode="&#xea;" horiz-adv-x="1185" 
d="M440 1182h-313l283 311h352l280 -311h-311l-145 161zM602 -18q-246 0 -396.5 156.5t-150.5 412.5q0 245 153.5 404t389.5 159q170 0 299.5 -84.5t189.5 -231t35 -321.5h-776q14 -134 78 -205t172 -71q93 0 155 44t87 126h282q-46 -185 -182 -287t-336 -102zM592 905
q-100 0 -161.5 -63.5t-80.5 -184.5h471q-6 115 -67 181.5t-162 66.5z" />
    <glyph glyph-name="edieresis" unicode="&#xeb;" horiz-adv-x="1185" 
d="M987 1343q0 -72 -49.5 -117.5t-124.5 -45.5q-77 0 -126.5 45.5t-49.5 117.5q0 75 49.5 121.5t126.5 46.5q76 0 125 -47t49 -121zM532 1343q0 -72 -48.5 -117.5t-127.5 -45.5q-74 0 -123 46t-49 117q0 74 49 121t123 47q79 0 127.5 -46.5t48.5 -121.5zM602 -18
q-246 0 -396.5 156.5t-150.5 412.5q0 245 153.5 404t389.5 159q170 0 299.5 -84.5t189.5 -231t35 -321.5h-776q14 -134 78 -205t172 -71q93 0 155 44t87 126h282q-46 -185 -182 -287t-336 -102zM592 905q-100 0 -161.5 -63.5t-80.5 -184.5h471q-6 115 -67 181.5t-162 66.5z
" />
    <glyph glyph-name="igrave" unicode="&#xec;" horiz-adv-x="538" 
d="M412 1182h-299l-213 311h327zM412 0h-285v1094h285v-1094z" />
    <glyph glyph-name="iacute" unicode="&#xed;" horiz-adv-x="538" 
d="M422 1182h-297l186 311h326zM412 0h-285v1094h285v-1094z" />
    <glyph glyph-name="icircumflex" unicode="&#xee;" horiz-adv-x="538" 
d="M145 1182h-313l256 311h361l253 -311h-311l-123 161zM412 0h-285v1094h285v-1094z" />
    <glyph glyph-name="idieresis" unicode="&#xef;" horiz-adv-x="538" 
d="M649 1343q0 -72 -47 -117.5t-119 -45.5q-76 0 -124 45.5t-48 117.5q0 75 47.5 121.5t124.5 46.5q73 0 119.5 -46.5t46.5 -121.5zM225 1343q0 -72 -47 -117.5t-125 -45.5q-72 0 -119 45.5t-47 117.5q0 75 46.5 121.5t119.5 46.5q78 0 125 -46.5t47 -121.5zM412 0h-285
v1094h285v-1094z" />
    <glyph glyph-name="eth" unicode="&#xf0;" horiz-adv-x="1206" 
d="M55 541q0 235 137 384.5t369 149.5q49 0 84 -18l-106 137l-271 -78v184l152 50l-92 120h319l43 -53l289 80v-184l-170 -53l158 -207q102 -133 143 -245.5t41 -272.5q0 -109 -40.5 -209.5t-111 -177t-174 -122.5t-221.5 -46q-159 0 -285.5 75.5t-195 203t-68.5 282.5z
M346 543q0 -145 73.5 -227.5t182.5 -82.5q108 0 181 81.5t73 224.5q0 149 -72.5 233t-181.5 84q-111 0 -183.5 -82.5t-72.5 -230.5z" />
    <glyph glyph-name="ntilde" unicode="&#xf1;" horiz-adv-x="1214" 
d="M403 1174h-174q-23 141 38 230t175 89q58 0 118.5 -25t108.5 -50t74 -25q69 0 66 114h174q23 -138 -39 -228.5t-176 -90.5q-58 0 -118 25t-107.5 50t-73.5 25q-71 0 -66 -114zM412 596v-596h-285v1094h262v-156q129 176 336 176q168 0 269.5 -106.5t101.5 -300.5v-707
h-283v610q0 123 -48 187.5t-144 64.5q-89 0 -149 -70t-60 -196z" />
    <glyph glyph-name="ograve" unicode="&#xf2;" horiz-adv-x="1220" 
d="M754 1182h-297l-238 311h330zM610 -20q-117 0 -220 44.5t-176.5 120t-116 180.5t-42.5 222q0 158 72 287.5t199.5 204.5t283.5 75t283.5 -75t199.5 -204.5t72 -287.5q0 -117 -42.5 -222t-116 -180.5t-176.5 -120t-220 -44.5zM610 231q111 0 186.5 84.5t75.5 231.5
q0 146 -75.5 229.5t-186.5 83.5t-186.5 -83.5t-75.5 -229.5q0 -147 75.5 -231.5t186.5 -84.5z" />
    <glyph glyph-name="oacute" unicode="&#xf3;" horiz-adv-x="1220" 
d="M764 1182h-297l207 311h327zM610 -20q-117 0 -220 44.5t-176.5 120t-116 180.5t-42.5 222q0 158 72 287.5t199.5 204.5t283.5 75t283.5 -75t199.5 -204.5t72 -287.5q0 -117 -42.5 -222t-116 -180.5t-176.5 -120t-220 -44.5zM610 231q111 0 186.5 84.5t75.5 231.5
q0 146 -75.5 229.5t-186.5 83.5t-186.5 -83.5t-75.5 -229.5q0 -147 75.5 -231.5t186.5 -84.5z" />
    <glyph glyph-name="ocircumflex" unicode="&#xf4;" horiz-adv-x="1220" 
d="M465 1182h-313l284 311h350l283 -311h-311l-148 161zM610 -20q-117 0 -220 44.5t-176.5 120t-116 180.5t-42.5 222q0 158 72 287.5t199.5 204.5t283.5 75t283.5 -75t199.5 -204.5t72 -287.5q0 -117 -42.5 -222t-116 -180.5t-176.5 -120t-220 -44.5zM610 231
q111 0 186.5 84.5t75.5 231.5q0 146 -75.5 229.5t-186.5 83.5t-186.5 -83.5t-75.5 -229.5q0 -147 75.5 -231.5t186.5 -84.5z" />
    <glyph glyph-name="otilde" unicode="&#xf5;" horiz-adv-x="1220" 
d="M406 1174h-175q-23 141 38 230t175 89q58 0 118.5 -25t108.5 -50t74 -25q71 0 66 114h174q23 -138 -39 -228.5t-176 -90.5q-58 0 -118 25t-107.5 50t-73.5 25q-68 0 -65 -114zM610 -20q-117 0 -220 44.5t-176.5 120t-116 180.5t-42.5 222q0 158 72 287.5t199.5 204.5
t283.5 75t283.5 -75t199.5 -204.5t72 -287.5q0 -117 -42.5 -222t-116 -180.5t-176.5 -120t-220 -44.5zM610 231q111 0 186.5 84.5t75.5 231.5q0 146 -75.5 229.5t-186.5 83.5t-186.5 -83.5t-75.5 -229.5q0 -147 75.5 -231.5t186.5 -84.5z" />
    <glyph glyph-name="odieresis" unicode="&#xf6;" horiz-adv-x="1220" 
d="M1012 1343q0 -71 -49 -117t-123 -46q-78 0 -127 45.5t-49 117.5q0 75 49 121.5t127 46.5q74 0 123 -47t49 -121zM557 1343q0 -72 -48 -117.5t-126 -45.5q-75 0 -124.5 45.5t-49.5 117.5q0 74 49 121t125 47q78 0 126 -46.5t48 -121.5zM610 -20q-117 0 -220 44.5
t-176.5 120t-116 180.5t-42.5 222q0 158 72 287.5t199.5 204.5t283.5 75t283.5 -75t199.5 -204.5t72 -287.5q0 -117 -42.5 -222t-116 -180.5t-176.5 -120t-220 -44.5zM610 231q111 0 186.5 84.5t75.5 231.5q0 146 -75.5 229.5t-186.5 83.5t-186.5 -83.5t-75.5 -229.5
q0 -147 75.5 -231.5t186.5 -84.5z" />
    <glyph glyph-name="divide" unicode="&#xf7;" horiz-adv-x="1351" 
d="M866 1087q0 -85 -52.5 -138.5t-137.5 -53.5t-139 53.5t-54 138.5q0 86 54 140.5t139 54.5t137.5 -54.5t52.5 -140.5zM1188 575h-1024v246h1024v-246zM866 315q0 -85 -52.5 -138.5t-137.5 -53.5t-139 53.5t-54 138.5q0 86 54 140.5t139 54.5t137.5 -54.5t52.5 -140.5z" />
    <glyph glyph-name="oslash" unicode="&#xf8;" horiz-adv-x="1220" 
d="M313 0h-215l111 150q-154 164 -154 397q0 158 72 287.5t199.5 204.5t283.5 75q149 0 267 -65l32 45h217l-112 -152q151 -161 151 -395q0 -117 -42.5 -222t-116 -180.5t-176.5 -120t-220 -44.5q-146 0 -264 65zM348 547q0 -88 33 -166l338 455q-50 24 -109 24
q-111 0 -186.5 -83.5t-75.5 -229.5zM610 231q111 0 186.5 84.5t75.5 231.5q0 90 -32 162l-336 -453q52 -25 106 -25z" />
    <glyph glyph-name="ugrave" unicode="&#xf9;" horiz-adv-x="1204" 
d="M743 1182h-294l-240 311h330zM793 461v633h282v-1094h-260v143q-45 -73 -131 -118t-188 -45q-172 0 -275.5 105.5t-103.5 311.5v697h284v-641q0 -112 50.5 -167t140.5 -55q81 0 141 62.5t60 167.5z" />
    <glyph glyph-name="uacute" unicode="&#xfa;" horiz-adv-x="1204" 
d="M754 1182h-295l205 311h327zM793 461v633h282v-1094h-260v143q-45 -73 -131 -118t-188 -45q-172 0 -275.5 105.5t-103.5 311.5v697h284v-641q0 -112 50.5 -167t140.5 -55q81 0 141 62.5t60 167.5z" />
    <glyph glyph-name="ucircumflex" unicode="&#xfb;" horiz-adv-x="1204" 
d="M457 1182h-314l283 311h350l283 -311h-311l-148 161zM793 461v633h282v-1094h-260v143q-45 -73 -131 -118t-188 -45q-172 0 -275.5 105.5t-103.5 311.5v697h284v-641q0 -112 50.5 -167t140.5 -55q81 0 141 62.5t60 167.5z" />
    <glyph glyph-name="udieresis" unicode="&#xfc;" horiz-adv-x="1204" 
d="M1001 1343q0 -71 -49 -117t-123 -46q-78 0 -127 45.5t-49 117.5q0 75 49 121.5t127 46.5q74 0 123 -47t49 -121zM549 1343q0 -72 -49 -117.5t-127 -45.5q-75 0 -124.5 45.5t-49.5 117.5q0 74 49 121t125 47q78 0 127 -46.5t49 -121.5zM793 461v633h282v-1094h-260v143
q-45 -73 -131 -118t-188 -45q-172 0 -275.5 105.5t-103.5 311.5v697h284v-641q0 -112 50.5 -167t140.5 -55q81 0 141 62.5t60 167.5z" />
    <glyph glyph-name="yacute" unicode="&#xfd;" horiz-adv-x="1110" 
d="M709 1182h-295l204 311h328zM1112 1094l-532 -1489h-310l156 407l-430 1082h307l275 -750l249 750h285z" />
    <glyph glyph-name="thorn" unicode="&#xfe;" horiz-adv-x="1273" 
d="M1219 547q0 -162 -59.5 -290.5t-170.5 -202.5t-256 -74q-196 0 -321 161v-536h-285v1865h285v-516q125 160 321 160q144 0 255.5 -74.5t171 -203t59.5 -289.5zM926 547q0 148 -73.5 231.5t-182.5 83.5q-110 0 -183 -83t-73 -232t73 -231.5t183 -82.5t183 82t73 232z" />
    <glyph glyph-name="ydieresis" unicode="&#xff;" horiz-adv-x="1110" 
d="M958 1343q0 -72 -49.5 -117.5t-124.5 -45.5q-77 0 -126.5 45.5t-49.5 117.5q0 75 49.5 121.5t126.5 46.5q76 0 125 -47t49 -121zM504 1343q0 -72 -49 -117.5t-127 -45.5q-74 0 -123 46t-49 117q0 74 49 121t123 47q78 0 127 -46.5t49 -121.5zM1112 1094l-532 -1489h-310
l156 407l-430 1082h307l275 -750l249 750h285z" />
    <glyph glyph-name="Amacron" unicode="&#x100;" horiz-adv-x="1495" 
d="M1085 1583h-671v184h671v-184zM1135 0l-111 315h-571l-113 -315h-313l553 1470h340l548 -1470h-333zM741 1130l-200 -567h397z" />
    <glyph glyph-name="amacron" unicode="&#x101;" horiz-adv-x="1128" 
d="M897 1206h-672v187h672v-187zM778 0v135q-109 -155 -329 -155q-171 0 -275 92t-104 245q0 160 126 244t365 84q80 0 182 -12v65q0 92 -49.5 143.5t-138.5 51.5q-92 0 -145.5 -51t-61.5 -144h-256q12 189 138.5 302.5t324.5 113.5q215 0 335 -112.5t120 -313.5v-688h-232z
M338 326q0 -69 46.5 -109.5t125.5 -40.5q108 0 170.5 55.5t62.5 151.5v78q-95 14 -163 14q-242 0 -242 -149z" />
    <glyph glyph-name="Abreve" unicode="&#x102;" horiz-adv-x="1495" 
d="M903 1870h201q0 -147 -95.5 -234.5t-258.5 -87.5q-165 0 -261 87.5t-96 234.5h201q0 -65 42.5 -103t113.5 -38t112 37.5t41 103.5zM1135 0l-111 315h-571l-113 -315h-313l553 1470h340l548 -1470h-333zM741 1130l-200 -567h397z" />
    <glyph glyph-name="abreve" unicode="&#x103;" horiz-adv-x="1128" 
d="M715 1493h200q0 -147 -95.5 -234.5t-258.5 -87.5q-165 0 -260.5 87.5t-95.5 234.5h203q0 -66 41 -103.5t112 -37.5q72 0 113 37.5t41 103.5zM778 0v135q-109 -155 -329 -155q-171 0 -275 92t-104 245q0 160 126 244t365 84q80 0 182 -12v65q0 92 -49.5 143.5t-138.5 51.5
q-92 0 -145.5 -51t-61.5 -144h-256q12 189 138.5 302.5t324.5 113.5q215 0 335 -112.5t120 -313.5v-688h-232zM338 326q0 -69 46.5 -109.5t125.5 -40.5q108 0 170.5 55.5t62.5 151.5v78q-95 14 -163 14q-242 0 -242 -149z" />
    <glyph glyph-name="Aogonek" unicode="&#x104;" horiz-adv-x="1495" 
d="M1364 -195v-188q-64 -20 -135 -20q-106 0 -174 54t-68 154q0 63 33 119.5t100 118.5l-96 272h-571l-113 -315h-313l553 1470h340l548 -1470h-213q-49 -55 -49 -115q0 -44 24 -69t66 -25q33 0 68 14zM741 1130l-200 -567h397z" />
    <glyph glyph-name="aogonek" unicode="&#x105;" horiz-adv-x="1128" 
d="M1010 -195v-188q-67 -20 -136 -20q-106 0 -174.5 54t-68.5 154q0 67 36.5 125.5t110.5 126.5v78q-109 -155 -329 -155q-171 0 -275 92t-104 245q0 160 126 244t365 84q80 0 182 -12v65q0 92 -49.5 143.5t-138.5 51.5q-92 0 -145.5 -51t-61.5 -144h-256
q12 189 138.5 302.5t324.5 113.5q215 0 335 -112.5t120 -313.5v-688h-109q-49 -55 -49 -115q0 -44 24 -69t64 -25q35 0 70 14zM338 326q0 -69 46.5 -109.5t125.5 -40.5q108 0 170.5 55.5t62.5 151.5v78q-95 14 -163 14q-242 0 -242 -149z" />
    <glyph glyph-name="Cacute" unicode="&#x106;" horiz-adv-x="1609" 
d="M956 1556h-294l204 314h328zM803 -31q-153 0 -289.5 59.5t-234.5 162t-155.5 245t-57.5 301.5t57.5 300.5t155.5 243t234.5 161t289.5 59.5q291 0 497 -176.5t244 -458.5h-330q-26 159 -138.5 258t-268.5 99q-189 0 -305.5 -135t-116.5 -351q0 -217 116.5 -353
t305.5 -136q156 0 267.5 99.5t139.5 258.5h330q-25 -188 -127.5 -333t-262 -224.5t-351.5 -79.5z" />
    <glyph glyph-name="cacute" unicode="&#x107;" horiz-adv-x="1173" 
d="M737 1182h-295l205 311h328zM588 -20q-236 0 -384.5 158t-148.5 409q0 246 151.5 406.5t381.5 160.5q214 0 359 -133t171 -354h-299q-11 109 -72.5 172t-158.5 63q-111 0 -176.5 -84.5t-65.5 -230.5q0 -148 64.5 -232t177.5 -84q98 0 158.5 61.5t72.5 174.5h299
q-25 -225 -167.5 -356t-362.5 -131z" />
    <glyph glyph-name="Ccaron" unicode="&#x10c;" horiz-adv-x="1609" 
d="M981 1556h-352l-283 314h313l144 -162l147 162h312zM803 -31q-153 0 -289.5 59.5t-234.5 162t-155.5 245t-57.5 301.5t57.5 300.5t155.5 243t234.5 161t289.5 59.5q291 0 497 -176.5t244 -458.5h-330q-26 159 -138.5 258t-268.5 99q-189 0 -305.5 -135t-116.5 -351
q0 -217 116.5 -353t305.5 -136q156 0 267.5 99.5t139.5 258.5h330q-25 -188 -127.5 -333t-262 -224.5t-351.5 -79.5z" />
    <glyph glyph-name="ccaron" unicode="&#x10d;" horiz-adv-x="1173" 
d="M760 1182h-350l-283 311h313l144 -162l147 162h311zM588 -20q-236 0 -384.5 158t-148.5 409q0 246 151.5 406.5t381.5 160.5q214 0 359 -133t171 -354h-299q-11 109 -72.5 172t-158.5 63q-111 0 -176.5 -84.5t-65.5 -230.5q0 -148 64.5 -232t177.5 -84q98 0 158.5 61.5
t72.5 174.5h299q-25 -225 -167.5 -356t-362.5 -131z" />
    <glyph glyph-name="Dcaron" unicode="&#x10e;" horiz-adv-x="1488" 
d="M918 1556h-353l-282 314h313l145 -162l146 162h313zM674 0h-522v1470h522q172 0 313.5 -53.5t236.5 -149.5t147 -230t52 -294q0 -213 -91 -381.5t-262.5 -265t-395.5 -96.5zM463 1202v-934h194q219 0 333 122.5t114 352.5q0 221 -114.5 340t-332.5 119h-194z" />
    <glyph glyph-name="dcaron" unicode="&#x10f;" horiz-adv-x="1273" 
d="M55 547q0 162 59.5 290.5t170.5 202.5t256 74q195 0 323 -162v518h283v-1470h-260v158q-133 -178 -346 -178q-108 0 -200 44t-154 120t-97 180t-35 223zM1401 1155h-187v315h236zM348 547q0 -148 73.5 -231t182.5 -83q111 0 184.5 84t73.5 234q0 149 -74 230t-184 81
t-183 -82.5t-73 -232.5z" />
    <glyph glyph-name="Dcroat" unicode="&#x110;" horiz-adv-x="1548" 
d="M735 0h-524v631h-199v252h199v587h524q172 0 313.5 -53.5t237 -149.5t147.5 -230t52 -294q0 -159 -53.5 -296.5t-149.5 -236t-237.5 -154.5t-309.5 -56zM817 631h-295v-363h197q219 0 332.5 122.5t113.5 352.5q0 221 -114.5 340t-331.5 119h-197v-319h295v-252z" />
    <glyph glyph-name="dcroat" unicode="&#x111;" horiz-adv-x="1273" 
d="M55 547q0 162 59.5 290.5t170.5 202.5t256 74q195 0 323 -162v252h-295v185h295v81h283v-81h158v-185h-158v-1204h-260v158q-133 -178 -346 -178q-108 0 -200 44t-154 120t-97 180t-35 223zM348 547q0 -148 73.5 -231t182.5 -83q111 0 184.5 84t73.5 234q0 149 -74 230
t-184 81t-183 -82.5t-73 -232.5z" />
    <glyph glyph-name="Emacron" unicode="&#x112;" horiz-adv-x="1230" 
d="M981 1583h-672v184h672v-184zM1141 270v-270h-989v1470h974v-270h-663v-309h602v-268h-602v-353h678z" />
    <glyph glyph-name="emacron" unicode="&#x113;" horiz-adv-x="1185" 
d="M922 1206h-672v187h672v-187zM602 -18q-246 0 -396.5 156.5t-150.5 412.5q0 245 153.5 404t389.5 159q170 0 299.5 -84.5t189.5 -231t35 -321.5h-776q14 -134 78 -205t172 -71q93 0 155 44t87 126h282q-46 -185 -182 -287t-336 -102zM592 905q-100 0 -161.5 -63.5
t-80.5 -184.5h471q-6 115 -67 181.5t-162 66.5z" />
    <glyph glyph-name="Edotaccent" unicode="&#x116;" horiz-adv-x="1230" 
d="M834 1724q0 -74 -53.5 -122t-137.5 -48q-83 0 -135.5 48t-52.5 122t52.5 122t135.5 48q84 0 137.5 -48t53.5 -122zM1141 270v-270h-989v1470h974v-270h-663v-309h602v-268h-602v-353h678z" />
    <glyph glyph-name="edotaccent" unicode="&#x117;" horiz-adv-x="1185" 
d="M774 1348q0 -73 -53 -120.5t-137 -47.5t-137.5 47.5t-53.5 120.5q0 75 53.5 123.5t137.5 48.5t137 -48.5t53 -123.5zM602 -18q-246 0 -396.5 156.5t-150.5 412.5q0 245 153.5 404t389.5 159q170 0 299.5 -84.5t189.5 -231t35 -321.5h-776q14 -134 78 -205t172 -71
q93 0 155 44t87 126h282q-46 -185 -182 -287t-336 -102zM592 905q-100 0 -161.5 -63.5t-80.5 -184.5h471q-6 115 -67 181.5t-162 66.5z" />
    <glyph glyph-name="Eogonek" unicode="&#x118;" horiz-adv-x="1230" 
d="M1065 -195v-188q-64 -20 -135 -20q-106 0 -174 54t-68 154q0 99 90 195h-626v1470h974v-270h-663v-309h602v-268h-602v-353h678v-270h-185q-49 -55 -49 -115q0 -44 24 -69t66 -25q33 0 68 14z" />
    <glyph glyph-name="eogonek" unicode="&#x119;" horiz-adv-x="1185" 
d="M602 -18q-246 0 -396.5 156.5t-150.5 412.5q0 245 153.5 404t389.5 159q170 0 299.5 -84.5t189.5 -231t35 -321.5h-776q14 -134 78 -205t172 -71q93 0 155 44t87 126h282q-56 -229 -246 -328q-94 -77 -94 -158q0 -44 24 -69t66 -25q33 0 68 14v-188q-64 -20 -135 -20
q-106 0 -174 54t-68 154q0 90 74 177h-33zM592 905q-100 0 -161.5 -63.5t-80.5 -184.5h471q-6 115 -67 181.5t-162 66.5z" />
    <glyph glyph-name="Ecaron" unicode="&#x11a;" horiz-adv-x="1230" 
d="M821 1556h-352l-283 314h314l145 -162l146 162h313zM1141 270v-270h-989v1470h974v-270h-663v-309h602v-268h-602v-353h678z" />
    <glyph glyph-name="ecaron" unicode="&#x11b;" horiz-adv-x="1185" 
d="M762 1182h-352l-283 311h313l146 -162l145 162h311zM602 -18q-246 0 -396.5 156.5t-150.5 412.5q0 245 153.5 404t389.5 159q170 0 299.5 -84.5t189.5 -231t35 -321.5h-776q14 -134 78 -205t172 -71q93 0 155 44t87 126h282q-46 -185 -182 -287t-336 -102zM592 905
q-100 0 -161.5 -63.5t-80.5 -184.5h471q-6 115 -67 181.5t-162 66.5z" />
    <glyph glyph-name="Gbreve" unicode="&#x11e;" horiz-adv-x="1630" 
d="M965 1870h200q0 -147 -95.5 -234.5t-258.5 -87.5q-165 0 -260.5 87.5t-95.5 234.5h202q0 -66 41.5 -103.5t112.5 -37.5q72 0 113 37.5t41 103.5zM823 -31q-158 0 -297.5 57t-241 157.5t-160 245.5t-58.5 312q0 214 96 388t266.5 273t382.5 99q274 0 467.5 -147.5
t267.5 -392.5h-366q-35 117 -134.5 189.5t-242.5 72.5q-184 0 -301 -130t-117 -360q0 -143 51 -255t155 -178.5t247 -66.5q158 0 260.5 85.5t134.5 226.5h-426v248h758q9 -238 -78.5 -425t-260 -293t-403.5 -106z" />
    <glyph glyph-name="gbreve" unicode="&#x11f;" horiz-adv-x="1241" 
d="M750 1493h200q0 -147 -95.5 -234.5t-258.5 -87.5q-165 0 -261.5 87.5t-96.5 234.5h202q0 -65 42.5 -103t113.5 -38t112.5 37.5t41.5 103.5zM592 -416q-221 0 -358 111.5t-146 300.5h274q9 -93 67.5 -142t160.5 -49q118 0 178.5 61.5t60.5 180.5v160q-44 -78 -124.5 -122
t-180.5 -44q-201 0 -335 153t-134 384q0 237 128 386.5t331 149.5q218 0 338 -170v150h260v-1043q0 -218 -138.5 -342.5t-381.5 -124.5zM340 578q0 -134 65 -212.5t175 -78.5q112 0 179.5 79t67.5 209q0 133 -67 213t-180 80q-109 0 -174.5 -78.5t-65.5 -211.5z" />
    <glyph glyph-name="Gcommaaccent" unicode="&#x122;" horiz-adv-x="1630" 
d="M823 -31q-158 0 -297.5 57t-241 157.5t-160 245.5t-58.5 312q0 214 96 388t266.5 273t382.5 99q274 0 467.5 -147.5t267.5 -392.5h-366q-35 117 -134.5 189.5t-242.5 72.5q-184 0 -301 -130t-117 -360q0 -143 51 -255t155 -178.5t247 -66.5q158 0 260.5 85.5t134.5 226.5
h-426v248h758q9 -238 -78.5 -425t-260 -293t-403.5 -106zM973 -233q0 -113 -101 -183t-241 -51v107q75 -9 124.5 9t61.5 60q-67 -17 -117.5 13t-50.5 85q0 54 41.5 86.5t110.5 32.5q76 0 124 -44t48 -115z" />
    <glyph glyph-name="gcommaaccent" unicode="&#x123;" horiz-adv-x="1241" 
d="M432 1327q0 114 101 183.5t243 50.5v-105q-76 8 -126 -11t-62 -61q24 7 45 7q52 0 87.5 -30.5t35.5 -74.5q0 -54 -41.5 -85.5t-110.5 -31.5q-75 0 -123.5 44t-48.5 114zM592 -416q-221 0 -358 111.5t-146 300.5h274q9 -93 67.5 -142t160.5 -49q118 0 178.5 61.5
t60.5 180.5v160q-44 -78 -124.5 -122t-180.5 -44q-201 0 -335 153t-134 384q0 237 128 386.5t331 149.5q218 0 338 -170v150h260v-1043q0 -218 -138.5 -342.5t-381.5 -124.5zM340 578q0 -134 65 -212.5t175 -78.5q112 0 179.5 79t67.5 209q0 133 -67 213t-180 80
q-109 0 -174.5 -78.5t-65.5 -211.5z" />
    <glyph glyph-name="Imacron" unicode="&#x12a;" horiz-adv-x="612" 
d="M645 1583h-672v184h672v-184zM463 0h-311v1470h311v-1470z" />
    <glyph glyph-name="imacron" unicode="&#x12b;" horiz-adv-x="538" 
d="M604 1206h-672v187h672v-187zM412 0h-285v1094h285v-1094z" />
    <glyph glyph-name="Iogonek" unicode="&#x12e;" horiz-adv-x="612" 
d="M381 -195v-188q-67 -20 -135 -20q-107 0 -175.5 54t-68.5 154q0 67 37.5 127t112.5 127v1411h311v-1470h-191q-49 -55 -49 -115q0 -44 24 -69t66 -25q33 0 68 14z" />
    <glyph glyph-name="iogonek" unicode="&#x12f;" horiz-adv-x="538" 
d="M457 1348q0 -73 -53.5 -120.5t-137.5 -47.5q-83 0 -135.5 47.5t-52.5 120.5q0 75 52.5 123.5t135.5 48.5q84 0 137.5 -48.5t53.5 -123.5zM358 -195v-188q-67 -20 -135 -20q-106 0 -174.5 54t-68.5 154q0 67 36.5 125.5t110.5 126.5v1037h285v-1094h-162q-49 -55 -49 -115
q0 -44 24 -69t66 -25q32 0 67 14z" />
    <glyph glyph-name="Idotaccent" unicode="&#x130;" horiz-adv-x="612" 
d="M498 1724q0 -74 -53.5 -122t-137.5 -48t-137 48t-53 122t53 122t137 48t137.5 -48t53.5 -122zM463 0h-311v1470h311v-1470z" />
    <glyph glyph-name="dotlessi" unicode="&#x131;" horiz-adv-x="538" 
d="M412 0h-285v1094h285v-1094z" />
    <glyph glyph-name="Kcommaaccent" unicode="&#x136;" horiz-adv-x="1392" 
d="M463 0h-311v1470h311v-647l534 647h357l-584 -704l600 -766h-383l-524 672v-672zM874 -233q0 -113 -101 -183t-243 -51v107q75 -9 125.5 9t63.5 60q-68 -17 -119 13t-51 85q0 54 42 86.5t111 32.5q75 0 123.5 -44t48.5 -115z" />
    <glyph glyph-name="kcommaaccent" unicode="&#x137;" horiz-adv-x="1196" 
d="M412 0h-285v1470h285v-839l399 463h328l-453 -525l506 -569h-363l-417 508v-508zM772 -233q0 -113 -101 -183t-241 -51v107q75 -9 124.5 9t61.5 60q-67 -17 -117 13t-50 85q0 54 41 86.5t110 32.5q76 0 124 -44t48 -115z" />
    <glyph glyph-name="Lacute" unicode="&#x139;" horiz-adv-x="1163" 
d="M469 1556h-295l205 314h328zM1102 0h-950v1470h311v-1189h639v-281z" />
    <glyph glyph-name="lacute" unicode="&#x13a;" horiz-adv-x="542" 
d="M424 1556h-295l205 314h328zM414 0h-287v1470h287v-1470z" />
    <glyph glyph-name="Lcommaaccent" unicode="&#x13b;" horiz-adv-x="1163" 
d="M1102 0h-950v1470h311v-1189h639v-281zM784 -233q0 -113 -101 -183t-243 -51v107q76 -9 126 9t63 60q-68 -17 -118 13t-50 85q0 54 41 86.5t110 32.5q76 0 124 -44t48 -115z" />
    <glyph glyph-name="lcommaaccent" unicode="&#x13c;" horiz-adv-x="542" 
d="M414 0h-287v1470h287v-1470zM434 -233q0 -113 -101 -183t-243 -51v107q76 -9 126 9t63 60q-68 -17 -118 13t-50 85q0 54 41 86.5t110 32.5q76 0 124 -44t48 -115z" />
    <glyph glyph-name="Lcaron" unicode="&#x13d;" horiz-adv-x="1163" 
d="M1102 0h-950v1470h311v-1189h639v-281zM799 1155h-189v315h236z" />
    <glyph glyph-name="lcaron" unicode="&#x13e;" horiz-adv-x="542" 
d="M414 0h-287v1470h287v-1470zM668 1155h-187v315h236z" />
    <glyph glyph-name="Lslash" unicode="&#x141;" horiz-adv-x="1163" 
d="M1102 0h-950v565l-189 -47v250l189 45v657h311v-581l411 100v-246l-411 -102v-360h639v-281z" />
    <glyph glyph-name="lslash" unicode="&#x142;" horiz-adv-x="542" 
d="M414 0h-287v594l-193 -45v235l193 45v641h287v-575l190 45v-238l-190 -43v-659z" />
    <glyph glyph-name="Nacute" unicode="&#x143;" horiz-adv-x="1566" 
d="M936 1556h-297l207 314h328zM1110 0l-674 1026v-1026h-284v1470h335l641 -974v974h287v-1470h-305z" />
    <glyph glyph-name="nacute" unicode="&#x144;" horiz-adv-x="1214" 
d="M760 1182h-295l205 311h329zM412 596v-596h-285v1094h262v-156q129 176 336 176q168 0 269.5 -106.5t101.5 -300.5v-707h-283v610q0 123 -48 187.5t-144 64.5q-89 0 -149 -70t-60 -196z" />
    <glyph glyph-name="Ncommaaccent" unicode="&#x145;" horiz-adv-x="1566" 
d="M1110 0l-674 1026v-1026h-284v1470h335l641 -974v974h287v-1470h-305zM946 -233q0 -113 -101 -183t-243 -51v107q75 -9 125.5 9t63.5 60q-68 -17 -118 13t-50 85q0 54 41 86.5t110 32.5q76 0 124 -44t48 -115z" />
    <glyph glyph-name="ncommaaccent" unicode="&#x146;" horiz-adv-x="1214" 
d="M412 596v-596h-285v1094h262v-156q129 176 336 176q168 0 269.5 -106.5t101.5 -300.5v-707h-283v610q0 123 -48 187.5t-144 64.5q-89 0 -149 -70t-60 -196zM770 -233q0 -113 -101 -183t-241 -51v107q75 -9 124.5 9t61.5 60q-67 -17 -117.5 13t-50.5 85q0 54 41.5 86.5
t110.5 32.5q76 0 124 -44t48 -115z" />
    <glyph glyph-name="Ncaron" unicode="&#x147;" horiz-adv-x="1566" 
d="M958 1556h-350l-282 314h311l145 -162l148 162h311zM1110 0l-674 1026v-1026h-284v1470h335l641 -974v974h287v-1470h-305z" />
    <glyph glyph-name="ncaron" unicode="&#x148;" horiz-adv-x="1214" 
d="M784 1182h-352l-282 311h313l145 -162l146 162h313zM412 596v-596h-285v1094h262v-156q129 176 336 176q168 0 269.5 -106.5t101.5 -300.5v-707h-283v610q0 123 -48 187.5t-144 64.5q-89 0 -149 -70t-60 -196z" />
    <glyph glyph-name="Omacron" unicode="&#x14c;" horiz-adv-x="1636" 
d="M1153 1583h-670v184h670v-184zM817 -31q-209 0 -381 99.5t-271 276t-99 392.5t99 391.5t270.5 274t381.5 98.5q158 0 297.5 -58t240.5 -158.5t159.5 -243t58.5 -304.5t-58.5 -305t-159.5 -244.5t-240.5 -160t-297.5 -58.5zM817 248q131 0 231 66t151.5 176.5t51.5 246.5
q0 208 -118.5 347t-315.5 139q-196 0 -314 -139t-118 -347q0 -136 51.5 -246.5t151 -176.5t229.5 -66z" />
    <glyph glyph-name="omacron" unicode="&#x14d;" horiz-adv-x="1220" 
d="M946 1206h-670v187h670v-187zM610 -20q-117 0 -220 44.5t-176.5 120t-116 180.5t-42.5 222q0 158 72 287.5t199.5 204.5t283.5 75t283.5 -75t199.5 -204.5t72 -287.5q0 -117 -42.5 -222t-116 -180.5t-176.5 -120t-220 -44.5zM610 231q111 0 186.5 84.5t75.5 231.5
q0 146 -75.5 229.5t-186.5 83.5t-186.5 -83.5t-75.5 -229.5q0 -147 75.5 -231.5t186.5 -84.5z" />
    <glyph glyph-name="Ohungarumlaut" unicode="&#x150;" horiz-adv-x="1636" 
d="M1145 1556h-279l221 314h295zM717 1556h-279l205 314h293zM817 -31q-209 0 -381 99.5t-271 276t-99 392.5t99 391.5t270.5 274t381.5 98.5q158 0 297.5 -58t240.5 -158.5t159.5 -243t58.5 -304.5t-58.5 -305t-159.5 -244.5t-240.5 -160t-297.5 -58.5zM817 248
q131 0 231 66t151.5 176.5t51.5 246.5q0 208 -118.5 347t-315.5 139q-196 0 -314 -139t-118 -347q0 -136 51.5 -246.5t151 -176.5t229.5 -66z" />
    <glyph glyph-name="ohungarumlaut" unicode="&#x151;" horiz-adv-x="1220" 
d="M936 1182h-279l222 311h297zM508 1182h-279l205 311h295zM610 -20q-117 0 -220 44.5t-176.5 120t-116 180.5t-42.5 222q0 158 72 287.5t199.5 204.5t283.5 75t283.5 -75t199.5 -204.5t72 -287.5q0 -117 -42.5 -222t-116 -180.5t-176.5 -120t-220 -44.5zM610 231
q111 0 186.5 84.5t75.5 231.5q0 146 -75.5 229.5t-186.5 83.5t-186.5 -83.5t-75.5 -229.5q0 -147 75.5 -231.5t186.5 -84.5z" />
    <glyph glyph-name="OE" unicode="&#x152;" horiz-adv-x="2195" 
d="M66 737q0 170 51.5 313.5t141.5 242t215 153.5t269 55q126 0 240.5 -48t179.5 -130v147h928v-268h-651v-311h592v-268h-592v-355h665v-268h-942v156q-78 -89 -185.5 -138t-234.5 -49q-144 0 -269 55.5t-215 155t-141.5 243.5t-51.5 314zM385 737q0 -221 100 -355
t271 -134q174 0 273 133.5t99 355.5q0 221 -98.5 353.5t-273.5 132.5q-172 0 -271.5 -133t-99.5 -353z" />
    <glyph glyph-name="oe" unicode="&#x153;" horiz-adv-x="1949" 
d="M55 547q0 165 70.5 295t193 201t273.5 71q122 0 226 -54.5t171 -150.5q64 98 162.5 151.5t218.5 53.5q173 0 298.5 -81t182.5 -226t35 -330h-756q5 -134 67 -205t181 -71q94 0 150 47t67 123h289q-50 -184 -181.5 -286.5t-324.5 -102.5q-125 0 -226.5 51t-164.5 151
q-66 -97 -169 -150.5t-226 -53.5q-231 0 -384 159.5t-153 407.5zM1370 905q-97 0 -160.5 -64t-72.5 -184h458q-5 119 -63 183.5t-162 64.5zM348 547q0 -150 72 -233t180 -83q107 0 178.5 83t71.5 233t-71.5 231.5t-178.5 81.5q-109 0 -180.5 -81.5t-71.5 -231.5z" />
    <glyph glyph-name="Racute" unicode="&#x154;" horiz-adv-x="1402" 
d="M854 1556h-295l205 314h328zM463 0h-311v1470h575q279 0 432.5 -124.5t153.5 -352.5q0 -149 -87.5 -261t-244.5 -165l379 -567h-371l-332 520h-194v-520zM463 1212v-436h250q141 0 214.5 55t73.5 162q0 108 -73 163.5t-215 55.5h-250z" />
    <glyph glyph-name="racute" unicode="&#x155;" horiz-adv-x="835" 
d="M651 1182h-297l207 311h328zM412 530v-530h-285v1094h262v-211q59 103 175.5 163t250.5 60v-295q-73 4 -135 0.5t-111.5 -22t-84.5 -50.5t-53.5 -85t-18.5 -124z" />
    <glyph glyph-name="Rcommaaccent" unicode="&#x156;" horiz-adv-x="1402" 
d="M463 0h-311v1470h575q279 0 432.5 -124.5t153.5 -352.5q0 -149 -87.5 -261t-244.5 -165l379 -567h-371l-332 520h-194v-520zM463 1212v-436h250q141 0 214.5 55t73.5 162q0 108 -73 163.5t-215 55.5h-250zM864 -233q0 -113 -101 -183t-241 -51v107q75 -9 125 9t62 60
q-68 -17 -118 13t-50 85q0 54 41 86.5t110 32.5q76 0 124 -44t48 -115z" />
    <glyph glyph-name="rcommaaccent" unicode="&#x157;" horiz-adv-x="835" 
d="M412 530v-530h-285v1094h262v-211q59 103 175.5 163t250.5 60v-295q-73 4 -135 0.5t-111.5 -22t-84.5 -50.5t-53.5 -85t-18.5 -124zM440 -233q0 -113 -101 -183t-241 -51v107q75 -9 125 9t62 60q-67 -17 -117.5 13t-50.5 85q0 54 41 86.5t110 32.5q76 0 124 -44t48 -115z
" />
    <glyph glyph-name="Rcaron" unicode="&#x158;" horiz-adv-x="1402" 
d="M879 1556h-353l-282 314h313l145 -162l146 162h311zM463 0h-311v1470h575q279 0 432.5 -124.5t153.5 -352.5q0 -149 -87.5 -261t-244.5 -165l379 -567h-371l-332 520h-194v-520zM463 1212v-436h250q141 0 214.5 55t73.5 162q0 108 -73 163.5t-215 55.5h-250z" />
    <glyph glyph-name="rcaron" unicode="&#x159;" horiz-adv-x="835" 
d="M674 1182h-350l-285 311h313l146 -162l147 162h311zM412 530v-530h-285v1094h262v-211q59 103 175.5 163t250.5 60v-295q-73 4 -135 0.5t-111.5 -22t-84.5 -50.5t-53.5 -85t-18.5 -124z" />
    <glyph glyph-name="Sacute" unicode="&#x15a;" horiz-adv-x="1357" 
d="M819 1556h-295l205 314h328zM1280 457q0 -214 -160.5 -345.5t-433.5 -131.5q-276 0 -442 137t-183 372h316q6 -124 84.5 -195t218.5 -71q121 0 195.5 50.5t74.5 138.5q0 133 -196 172l-242 47q-87 17 -156.5 48t-124 79.5t-84.5 119.5t-30 160q0 196 155.5 323.5
t393.5 127.5q250 0 413 -136t178 -364h-315q-8 116 -82 187t-190 71q-110 0 -174 -54t-64 -134q0 -126 199 -164l252 -51q198 -39 297.5 -133t99.5 -254z" />
    <glyph glyph-name="sacute" unicode="&#x15b;" horiz-adv-x="1118" 
d="M709 1182h-297l206 313h328zM1051 350q0 -173 -127.5 -271.5t-358.5 -98.5q-230 0 -360 103.5t-148 289.5h273q1 -84 67 -134.5t172 -50.5q88 0 141.5 28.5t53.5 84.5q0 51 -34.5 77.5t-115.5 41.5l-196 37q-150 27 -233 107t-83 206q0 153 122 248.5t325 95.5
q206 0 337 -102.5t146 -278.5h-272q-8 80 -64 126t-147 46q-80 0 -127 -28t-47 -80q0 -48 33.5 -72.5t109.5 -38.5l211 -39q322 -62 322 -297z" />
    <glyph glyph-name="Scedilla" unicode="&#x15e;" horiz-adv-x="1357" 
d="M920 -231q0 -76 -70.5 -125.5t-179.5 -49.5q-113 0 -182.5 51t-79.5 146h174q11 -63 77 -63q30 0 49 16t19 41q0 90 -158 74l33 125q-241 22 -383.5 155.5t-157.5 349.5h316q6 -124 84.5 -195t218.5 -71q121 0 195.5 50.5t74.5 138.5q0 133 -196 172l-242 47
q-87 17 -156.5 48t-124 79.5t-84.5 119.5t-30 160q0 196 155.5 323.5t393.5 127.5q250 0 413 -136t178 -364h-315q-8 116 -82 187t-190 71q-110 0 -174 -54t-64 -134q0 -126 199 -164l252 -51q198 -39 297.5 -133t99.5 -254q0 -202 -145 -332t-394 -143l-14 -48
q88 -11 140.5 -55t52.5 -110z" />
    <glyph glyph-name="scedilla" unicode="&#x15f;" horiz-adv-x="1118" 
d="M809 -231q0 -76 -70.5 -125.5t-179.5 -49.5q-113 0 -182.5 51t-81.5 146h176q11 -63 78 -63q30 0 48.5 16t18.5 41q0 90 -157 74l33 123q-197 17 -308.5 119.5t-126.5 271.5h273q1 -84 67 -134.5t172 -50.5q88 0 141.5 28.5t53.5 84.5q0 51 -34.5 77.5t-115.5 41.5
l-196 37q-150 27 -233 107t-83 206q0 153 122 248.5t325 95.5q206 0 337 -102.5t146 -278.5h-272q-8 80 -64 126t-147 46q-80 0 -127 -28t-47 -80q0 -48 33.5 -72.5t109.5 -38.5l211 -39q322 -62 322 -297q0 -161 -109.5 -258t-310.5 -110l-15 -48q87 -11 140 -55.5
t53 -109.5z" />
    <glyph glyph-name="Scaron" unicode="&#x160;" horiz-adv-x="1357" 
d="M842 1556h-350l-283 314h313l144 -162l147 162h311zM1280 457q0 -214 -160.5 -345.5t-433.5 -131.5q-276 0 -442 137t-183 372h316q6 -124 84.5 -195t218.5 -71q121 0 195.5 50.5t74.5 138.5q0 133 -196 172l-242 47q-87 17 -156.5 48t-124 79.5t-84.5 119.5t-30 160
q0 196 155.5 323.5t393.5 127.5q250 0 413 -136t178 -364h-315q-8 116 -82 187t-190 71q-110 0 -174 -54t-64 -134q0 -126 199 -164l252 -51q198 -39 297.5 -133t99.5 -254z" />
    <glyph glyph-name="scaron" unicode="&#x161;" horiz-adv-x="1118" 
d="M731 1182h-350l-283 313h314l143 -162l147 162h312zM1051 350q0 -173 -127.5 -271.5t-358.5 -98.5q-230 0 -360 103.5t-148 289.5h273q1 -84 67 -134.5t172 -50.5q88 0 141.5 28.5t53.5 84.5q0 51 -34.5 77.5t-115.5 41.5l-196 37q-150 27 -233 107t-83 206
q0 153 122 248.5t325 95.5q206 0 337 -102.5t146 -278.5h-272q-8 80 -64 126t-147 46q-80 0 -127 -28t-47 -80q0 -48 33.5 -72.5t109.5 -38.5l211 -39q322 -62 322 -297z" />
    <glyph glyph-name="Tcedilla" unicode="&#x162;" horiz-adv-x="1308" 
d="M809 0h-92l-19 -66q87 -11 140 -55.5t53 -109.5q0 -76 -70.5 -125.5t-179.5 -49.5q-114 0 -183 51t-81 146h176q8 -63 76 -63q30 0 48.5 16t18.5 41q0 90 -155 74l37 141h-80v1190h-463v280h1239v-280h-465v-1190z" />
    <glyph glyph-name="tcedilla" unicode="&#x163;" horiz-adv-x="864" 
d="M760 -231q0 -77 -71 -126t-181 -49q-113 0 -181.5 51t-80.5 146h174q11 -63 78 -63q30 0 48.5 16t18.5 41q0 90 -155 74l36 141q-107 34 -166 124.5t-59 229.5v496h-221v244h221v323h283v-323h313v-244h-313v-430q0 -178 160 -178q82 0 143 34v-247q-98 -49 -219 -49h-10
l-13 -46q88 -11 141.5 -55.5t53.5 -109.5z" />
    <glyph glyph-name="Tcaron" unicode="&#x164;" horiz-adv-x="1308" 
d="M829 1556h-352l-282 314h313l145 -162l148 162h311zM809 0h-311v1190h-463v280h1239v-280h-465v-1190z" />
    <glyph glyph-name="tcaron" unicode="&#x165;" horiz-adv-x="864" 
d="M758 1155h-187v315h236zM807 276v-247q-98 -49 -219 -49q-172 0 -269.5 96.5t-97.5 277.5v496h-221v244h221v323h283v-323h313v-244h-313v-430q0 -178 160 -178q82 0 143 34z" />
    <glyph glyph-name="Umacron" unicode="&#x16a;" horiz-adv-x="1503" 
d="M1087 1583h-669v184h669v-184zM1358 1470v-911q0 -174 -70.5 -307t-208 -208t-325.5 -75q-286 0 -446.5 161.5t-160.5 428.5v911h312v-917q0 -143 72.5 -224t222.5 -81q148 0 220.5 81t72.5 224v917h311z" />
    <glyph glyph-name="umacron" unicode="&#x16b;" horiz-adv-x="1204" 
d="M936 1206h-670v187h670v-187zM793 461v633h282v-1094h-260v143q-45 -73 -131 -118t-188 -45q-172 0 -275.5 105.5t-103.5 311.5v697h284v-641q0 -112 50.5 -167t140.5 -55q81 0 141 62.5t60 167.5z" />
    <glyph glyph-name="Uring" unicode="&#x16e;" horiz-adv-x="1503" 
d="M754 1546q-121 0 -199 74t-78 178q0 107 77.5 181.5t199.5 74.5q119 0 197.5 -75t78.5 -181q0 -104 -78.5 -178t-197.5 -74zM754 1690q47 0 78.5 27.5t31.5 80.5q0 54 -31.5 83.5t-78.5 29.5q-46 0 -79.5 -29.5t-33.5 -83.5q0 -52 33 -80t80 -28zM1358 1470v-911
q0 -174 -70.5 -307t-208 -208t-325.5 -75q-286 0 -446.5 161.5t-160.5 428.5v911h312v-917q0 -143 72.5 -224t222.5 -81q148 0 220.5 81t72.5 224v917h311z" />
    <glyph glyph-name="uring" unicode="&#x16f;" horiz-adv-x="1204" 
d="M600 1171q-121 0 -198.5 73.5t-77.5 178.5q0 106 77.5 180t198.5 74t200 -74t79 -180q0 -105 -79 -178.5t-200 -73.5zM600 1315q49 0 80 27t31 81q0 53 -31.5 82t-79.5 29q-46 0 -78.5 -29t-32.5 -82q0 -54 32 -81t79 -27zM793 461v633h282v-1094h-260v143
q-45 -73 -131 -118t-188 -45q-172 0 -275.5 105.5t-103.5 311.5v697h284v-641q0 -112 50.5 -167t140.5 -55q81 0 141 62.5t60 167.5z" />
    <glyph glyph-name="Uhungarumlaut" unicode="&#x170;" horiz-adv-x="1503" 
d="M1079 1556h-278l221 314h295zM651 1556h-278l205 314h292zM1358 1470v-911q0 -174 -70.5 -307t-208 -208t-325.5 -75q-286 0 -446.5 161.5t-160.5 428.5v911h312v-917q0 -143 72.5 -224t222.5 -81q148 0 220.5 81t72.5 224v917h311z" />
    <glyph glyph-name="uhungarumlaut" unicode="&#x171;" horiz-adv-x="1204" 
d="M928 1182h-279l219 311h297zM500 1182h-279l205 311h293zM793 461v633h282v-1094h-260v143q-45 -73 -131 -118t-188 -45q-172 0 -275.5 105.5t-103.5 311.5v697h284v-641q0 -112 50.5 -167t140.5 -55q81 0 141 62.5t60 167.5z" />
    <glyph glyph-name="Uogonek" unicode="&#x172;" horiz-adv-x="1503" 
d="M1143 -195v-188q-67 -20 -135 -20q-107 0 -175.5 54t-68.5 154q0 84 65 168q-50 -4 -75 -4q-286 0 -446.5 161.5t-160.5 428.5v911h312v-917q0 -143 72.5 -224t222.5 -81q148 0 220.5 81t72.5 224v917h311v-911q0 -173 -72 -307t-205 -207q-96 -79 -96 -160q0 -44 24 -69
t66 -25q33 0 68 14z" />
    <glyph glyph-name="uogonek" unicode="&#x173;" horiz-adv-x="1204" 
d="M793 461v633h282v-1094h-139q-49 -55 -49 -115q0 -44 24 -69t66 -25q32 0 70 14v-188q-67 -20 -136 -20q-106 0 -174.5 54t-68.5 154q0 67 36.5 125.5t110.5 126.5v86q-45 -73 -131 -118t-188 -45q-172 0 -275.5 105.5t-103.5 311.5v697h284v-641q0 -112 50.5 -167
t140.5 -55q81 0 141 62.5t60 167.5z" />
    <glyph glyph-name="Wcircumflex" unicode="&#x174;" horiz-adv-x="1986" 
d="M850 1556h-313l282 314h350l283 -314h-311l-148 162zM1268 0l-275 1028l-274 -1028h-316l-376 1470h303l237 -997l271 997h317l262 -1001l240 1001h305l-379 -1470h-315z" />
    <glyph glyph-name="wcircumflex" unicode="&#x175;" horiz-adv-x="1636" 
d="M674 1182h-314l283 311h352l281 -311h-311l-148 161zM1024 0l-207 711l-205 -711h-284l-312 1094h277l186 -693l201 693h281l194 -693l184 693h281l-313 -1094h-283z" />
    <glyph glyph-name="Ycircumflex" unicode="&#x176;" horiz-adv-x="1380" 
d="M555 1556h-313l282 314h353l280 -314h-311l-148 162zM844 553v-553h-312v553l-520 917h336l350 -632l357 632h313z" />
    <glyph glyph-name="ycircumflex" unicode="&#x177;" horiz-adv-x="1110" 
d="M412 1182h-314l283 311h352l281 -311h-312l-145 161zM1112 1094l-532 -1489h-310l156 407l-430 1082h307l275 -750l249 750h285z" />
    <glyph glyph-name="Ydieresis" unicode="&#x178;" horiz-adv-x="1380" 
d="M1100 1720q0 -72 -49 -119t-123 -47q-78 0 -127 47t-49 119q0 75 49 121.5t127 46.5q74 0 123 -47t49 -121zM647 1720q0 -72 -49 -119t-127 -47q-75 0 -124.5 47t-49.5 119q0 74 49 121t125 47q78 0 127 -46.5t49 -121.5zM844 553v-553h-312v553l-520 917h336l350 -632
l357 632h313z" />
    <glyph glyph-name="Zacute" unicode="&#x179;" horiz-adv-x="1318" 
d="M817 1556h-297l207 314h328zM1243 0h-1159v246l752 956h-750v268h1133v-249l-756 -953h780v-268z" />
    <glyph glyph-name="zacute" unicode="&#x17a;" horiz-adv-x="1083" 
d="M696 1182h-295l205 311h330zM1012 0h-932v229l563 619h-565v246h917v-234l-565 -612h582v-248z" />
    <glyph glyph-name="Zdotaccent" unicode="&#x17b;" horiz-adv-x="1318" 
d="M852 1724q0 -74 -53 -122t-137 -48q-83 0 -136 48t-53 122t53 122t136 48q84 0 137 -48t53 -122zM1243 0h-1159v246l752 956h-750v268h1133v-249l-756 -953h780v-268z" />
    <glyph glyph-name="zdotaccent" unicode="&#x17c;" horiz-adv-x="1083" 
d="M733 1348q0 -73 -53 -120.5t-137 -47.5q-83 0 -136 48t-53 120q0 75 53 123.5t136 48.5q84 0 137 -48.5t53 -123.5zM1012 0h-932v229l563 619h-565v246h917v-234l-565 -612h582v-248z" />
    <glyph glyph-name="Zcaron" unicode="&#x17d;" horiz-adv-x="1318" 
d="M840 1556h-351l-284 314h313l146 -162l147 162h311zM1243 0h-1159v246l752 956h-750v268h1133v-249l-756 -953h780v-268z" />
    <glyph glyph-name="zcaron" unicode="&#x17e;" horiz-adv-x="1083" 
d="M721 1182h-352l-283 311h313l146 -162l145 162h314zM1012 0h-932v229l563 619h-565v246h917v-234l-565 -612h582v-248z" />
    <glyph glyph-name="florin" unicode="&#x192;" horiz-adv-x="1126" 
d="M682 575l-78 -317q-43 -191 -146.5 -287t-297.5 -96q-49 0 -117 10v260q54 -12 74 -12q175 0 213 166l65 276h-301v246h357l55 232q18 81 50 144t70.5 101.5t86.5 63t93.5 34t96.5 9.5q91 0 164 -27v-223q-45 23 -100 23q-70 0 -116 -36t-69 -130l-47 -191h283v-246h-336
z" />
    <glyph glyph-name="Scommaaccent" unicode="&#x218;" horiz-adv-x="1357" 
d="M1280 457q0 -214 -160.5 -345.5t-433.5 -131.5q-276 0 -442 137t-183 372h316q6 -124 84.5 -195t218.5 -71q121 0 195.5 50.5t74.5 138.5q0 133 -196 172l-242 47q-87 17 -156.5 48t-124 79.5t-84.5 119.5t-30 160q0 196 155.5 323.5t393.5 127.5q250 0 413 -136
t178 -364h-315q-8 116 -82 187t-190 71q-110 0 -174 -54t-64 -134q0 -126 199 -164l252 -51q198 -39 297.5 -133t99.5 -254zM846 -233q0 -113 -101 -183t-243 -51v107q76 -9 126 9t62 60q-68 -17 -118 13t-50 85q0 54 41.5 86.5t110.5 32.5q76 0 124 -44t48 -115z" />
    <glyph glyph-name="scommaaccent" unicode="&#x219;" horiz-adv-x="1118" 
d="M1051 350q0 -173 -127.5 -271.5t-358.5 -98.5q-230 0 -360 103.5t-148 289.5h273q1 -84 67 -134.5t172 -50.5q88 0 141.5 28.5t53.5 84.5q0 51 -34.5 77.5t-115.5 41.5l-196 37q-150 27 -233 107t-83 206q0 153 122 248.5t325 95.5q206 0 337 -102.5t146 -278.5h-272
q-8 80 -64 126t-147 46q-80 0 -127 -28t-47 -80q0 -48 33.5 -72.5t109.5 -38.5l211 -39q322 -62 322 -297zM735 -233q0 -113 -101 -183t-243 -51v107q76 -9 126 9t63 60q-68 -17 -118 13t-50 85q0 54 41 86.5t110 32.5q76 0 124 -44t48 -115z" />
    <glyph glyph-name="Tcommaaccent" unicode="&#x21a;" horiz-adv-x="1308" 
d="M809 0h-311v1190h-463v280h1239v-280h-465v-1190zM817 -233q0 -113 -101 -183t-243 -51v107q75 -9 125.5 9t63.5 60q-68 -17 -119 13t-51 85q0 54 42 86.5t111 32.5q75 0 123.5 -44t48.5 -115z" />
    <glyph glyph-name="tcommaaccent" unicode="&#x21b;" horiz-adv-x="864" 
d="M807 276v-247q-98 -49 -219 -49q-172 0 -269.5 96.5t-97.5 277.5v496h-221v244h221v323h283v-323h313v-244h-313v-430q0 -178 160 -178q82 0 143 34zM684 -233q0 -113 -101 -183t-241 -51v107q75 -9 124.5 9t61.5 60q-67 -17 -117.5 13t-50.5 85q0 54 41.5 86.5
t110.5 32.5q76 0 124 -44t48 -115z" />
    <glyph glyph-name="dotlessj" unicode="&#x237;" horiz-adv-x="536" 
d="M410 1094v-1090q0 -212 -102.5 -316t-274.5 -104q-91 0 -154 23v264q48 -25 119 -25q129 0 129 166v1082h283z" />
    <glyph glyph-name="circumflex" unicode="&#x2c6;" 
d="M367 1182h-314l285 311h350l283 -311h-312l-147 161z" />
    <glyph glyph-name="caron" unicode="&#x2c7;" 
d="M688 1182h-352l-283 311h314l145 -162l145 162h314z" />
    <glyph glyph-name="macronmod" unicode="&#x2c9;" 
d="M848 1184h-670v184h670v-184z" />
    <glyph glyph-name="breve" unicode="&#x2d8;" 
d="M666 1493h202q0 -147 -96 -234.5t-260 -87.5q-165 0 -260.5 87.5t-95.5 234.5h202q0 -66 41.5 -103.5t112.5 -37.5q72 0 113 37.5t41 103.5z" />
    <glyph glyph-name="dotaccent" unicode="&#x2d9;" 
d="M702 1348q0 -73 -53 -120.5t-137 -47.5t-137 47.5t-53 120.5q0 75 53 123.5t137 48.5t137 -48.5t53 -123.5z" />
    <glyph glyph-name="ring" unicode="&#x2da;" 
d="M510 1171q-121 0 -199 73.5t-78 178.5q0 106 78 180t199 74t199.5 -74t78.5 -180q0 -105 -78.5 -178.5t-199.5 -73.5zM510 1315q49 0 80 27t31 81q0 53 -31.5 82t-79.5 29q-46 0 -78.5 -29t-32.5 -82q0 -54 32 -81t79 -27z" />
    <glyph glyph-name="ogonek" unicode="&#x2db;" 
d="M702 -195v-188q-67 -20 -135 -20q-106 0 -174.5 54t-68.5 154q0 48 18 91t58.5 89t83 83t114.5 94l82 -88q-137 -90 -137 -189q0 -44 24 -69t66 -25q31 0 69 14z" />
    <glyph glyph-name="tilde" unicode="&#x2dc;" 
d="M309 1176h-174q-23 141 38 230t175 89q58 0 118.5 -25t108.5 -50t74 -25q69 0 66 116h174q23 -138 -39 -228.5t-176 -90.5q-58 0 -118 25t-107.5 50t-73.5 25q-71 0 -66 -116z" />
    <glyph glyph-name="hungarumlaut" unicode="&#x2dd;" 
d="M748 1182h-279l219 311h297zM317 1182h-278l205 311h295z" />
    <glyph glyph-name="gravecomb" unicode="&#x300;" 
d="M778 1182h-295l-239 311h329z" />
    <glyph glyph-name="acutecomb" unicode="&#x301;" 
d="M541 1182h-297l205 311h329z" />
    <glyph glyph-name="circumflexcomb" unicode="&#x302;" 
d="M367 1182h-314l285 311h350l283 -311h-312l-147 161z" />
    <glyph glyph-name="tildecomb" unicode="&#x303;" 
d="M309 1176h-174q-23 141 38 230t175 89q58 0 118.5 -25t108.5 -50t74 -25q69 0 66 116h174q23 -138 -39 -228.5t-176 -90.5q-58 0 -118 25t-107.5 50t-73.5 25q-71 0 -66 -116z" />
    <glyph glyph-name="macroncomb" unicode="&#x304;" 
d="M848 1206h-670v187h670v-187z" />
    <glyph glyph-name="brevecomb" unicode="&#x306;" 
d="M666 1493h202q0 -147 -96 -234.5t-260 -87.5q-165 0 -260.5 87.5t-95.5 234.5h202q0 -66 41.5 -103.5t112.5 -37.5q72 0 113 37.5t41 103.5z" />
    <glyph glyph-name="dotaccentcomb" unicode="&#x307;" 
d="M702 1348q0 -73 -53 -120.5t-137 -47.5t-137 47.5t-53 120.5q0 75 53 123.5t137 48.5t137 -48.5t53 -123.5z" />
    <glyph glyph-name="dieresiscomb" unicode="&#x308;" 
d="M913 1343q0 -71 -49 -117t-123 -46q-78 0 -127 45.5t-49 117.5q0 75 49 121.5t127 46.5q74 0 123 -47t49 -121zM459 1343q0 -72 -48 -117.5t-126 -45.5q-75 0 -124.5 45.5t-49.5 117.5q0 74 49 121t125 47q78 0 126 -46.5t48 -121.5z" />
    <glyph glyph-name="ringcomb" unicode="&#x30a;" 
d="M510 1171q-121 0 -199 73.5t-78 178.5q0 106 78 180t199 74t199.5 -74t78.5 -180q0 -105 -78.5 -178.5t-199.5 -73.5zM510 1315q49 0 80 27t31 81q0 53 -31.5 82t-79.5 29q-46 0 -78.5 -29t-32.5 -82q0 -54 32 -81t79 -27z" />
    <glyph glyph-name="hungarumlautcomb" unicode="&#x30b;" 
d="M748 1182h-279l219 311h297zM317 1182h-278l205 311h295z" />
    <glyph glyph-name="caroncomb" unicode="&#x30c;" 
d="M688 1182h-352l-283 311h314l145 -162l145 162h314z" />
    <glyph glyph-name="commaturnedabovecomb" unicode="&#x312;" 
d="M340 1327q0 114 101 183.5t243 50.5v-105q-74 8 -124.5 -11t-63.5 -61q25 7 45 7q53 0 89 -30.5t36 -74.5q0 -54 -42 -85.5t-112 -31.5q-74 0 -123 44t-49 114z" />
    <glyph glyph-name="commaaccentcomb" unicode="&#x326;" 
d="M684 -233q0 -113 -101 -183t-243 -51v107q74 -9 124.5 9t63.5 60q-68 -17 -119 13t-51 85q0 54 42.5 86.5t111.5 32.5q75 0 123.5 -44t48.5 -115z" />
    <glyph glyph-name="cedillacomb" unicode="&#x327;" 
d="M770 -231q0 -77 -71 -126t-181 -49q-113 0 -181.5 51t-80.5 146h174q11 -63 78 -63q30 0 48.5 16t18.5 41q0 90 -155 74l45 174h139l-29 -99q88 -11 141.5 -55.5t53.5 -109.5z" />
    <glyph glyph-name="ogonekcomb" unicode="&#x328;" 
d="M702 -195v-188q-67 -20 -135 -20q-106 0 -174.5 54t-68.5 154q0 48 18 91t58.5 89t83 83t114.5 94l82 -88q-137 -90 -137 -189q0 -44 24 -69t66 -25q31 0 69 14z" />
    <glyph glyph-name="strokeshortcomb" unicode="&#x335;" 
d="M881 1184h-736v184h736v-184z" />
    <glyph glyph-name="slashshortcomb" unicode="&#x337;" 
d="M848 692l-670 -153v233l670 156v-236z" />
    <glyph glyph-name="slashlongcomb" unicode="&#x338;" 
d="M213 0h-215l813 1094h215z" />
    <glyph glyph-name="Delta" unicode="&#x394;" horiz-adv-x="1476" 
d="M1452 0h-1427l555 1470h321zM731 1153l-325 -907h647z" />
    <glyph glyph-name="Omega" unicode="&#x3a9;" horiz-adv-x="1492" 
d="M666 0h-607v266l371 -20v78q-178 74 -279.5 214.5t-101.5 342.5q0 126 50.5 238t140.5 194t222 130t286 48q153 0 284 -48t220.5 -130t139.5 -194t50 -238q0 -202 -101 -342t-280 -215v-78l371 20v-266h-605v457q149 38 231.5 140t82.5 243q0 167 -105.5 279t-287.5 112
q-183 0 -289.5 -112t-106.5 -279q0 -141 82.5 -243t231.5 -140v-457z" />
    <glyph glyph-name="mu" unicode="&#x3bc;" horiz-adv-x="1232" 
d="M600 -20q-143 0 -215 81l23 -456h-281v1489h285v-621q0 -242 206 -242q96 0 149.5 67t53.5 169v627h283v-1094h-277v117q-32 -63 -93.5 -100t-133.5 -37z" />
    <glyph glyph-name="pi" unicode="&#x3c0;" horiz-adv-x="1271" 
d="M1047 -20q-164 0 -244 82t-80 280v508h-223l-56 -850h-280l78 850h-242v244h1225v-244h-217v-447q0 -83 30 -118t95 -35q52 0 84 14v-256q-77 -28 -170 -28z" />
    <glyph glyph-name="Wgrave" unicode="&#x1e80;" horiz-adv-x="1986" 
d="M1137 1556h-295l-240 314h330zM1268 0l-275 1028l-274 -1028h-316l-376 1470h303l237 -997l271 997h317l262 -1001l240 1001h305l-379 -1470h-315z" />
    <glyph glyph-name="wgrave" unicode="&#x1e81;" horiz-adv-x="1636" 
d="M961 1182h-295l-240 311h330zM1024 0l-207 711l-205 -711h-284l-312 1094h277l186 -693l201 693h281l194 -693l184 693h281l-313 -1094h-283z" />
    <glyph glyph-name="Wacute" unicode="&#x1e82;" horiz-adv-x="1986" 
d="M1147 1556h-295l205 314h327zM1268 0l-275 1028l-274 -1028h-316l-376 1470h303l237 -997l271 997h317l262 -1001l240 1001h305l-379 -1470h-315z" />
    <glyph glyph-name="wacute" unicode="&#x1e83;" horiz-adv-x="1636" 
d="M971 1182h-295l205 311h327zM1024 0l-207 711l-205 -711h-284l-312 1094h277l186 -693l201 693h281l194 -693l184 693h281l-313 -1094h-283z" />
    <glyph glyph-name="Wdieresis" unicode="&#x1e84;" horiz-adv-x="1986" 
d="M1395 1720q0 -72 -49 -119t-123 -47q-78 0 -127 47t-49 119q0 75 49 121.5t127 46.5q74 0 123 -47t49 -121zM942 1720q0 -72 -49 -119t-127 -47q-75 0 -124.5 47t-49.5 119q0 74 49 121t125 47q78 0 127 -46.5t49 -121.5zM1268 0l-275 1028l-274 -1028h-316l-376 1470
h303l237 -997l271 997h317l262 -1001l240 1001h305l-379 -1470h-315z" />
    <glyph glyph-name="wdieresis" unicode="&#x1e85;" horiz-adv-x="1636" 
d="M1219 1343q0 -71 -49 -117t-123 -46q-77 0 -127 45.5t-50 117.5q0 74 50 121t127 47q74 0 123 -47t49 -121zM766 1343q0 -72 -49 -117.5t-127 -45.5q-75 0 -124.5 45.5t-49.5 117.5q0 74 49 121t125 47q78 0 127 -46.5t49 -121.5zM1024 0l-207 711l-205 -711h-284
l-312 1094h277l186 -693l201 693h281l194 -693l184 693h281l-313 -1094h-283z" />
    <glyph glyph-name="Ygrave" unicode="&#x1ef2;" horiz-adv-x="1380" 
d="M842 1556h-295l-240 314h330zM844 553v-553h-312v553l-520 917h336l350 -632l357 632h313z" />
    <glyph glyph-name="ygrave" unicode="&#x1ef3;" horiz-adv-x="1110" 
d="M698 1182h-295l-239 311h330zM1112 1094l-532 -1489h-310l156 407l-430 1082h307l275 -750l249 750h285z" />
    <glyph glyph-name="endash" unicode="&#x2013;" 
d="M983 438h-942v248h942v-248z" />
    <glyph glyph-name="emdash" unicode="&#x2014;" horiz-adv-x="1536" 
d="M1495 438h-1454v248h1454v-248z" />
    <glyph glyph-name="quoteleft" unicode="&#x2018;" horiz-adv-x="552" 
d="M66 1133q0 105 58.5 190.5t157.5 127t210 26.5v-144q-91 12 -155 -21.5t-83 -103.5q24 6 47 6q67 0 111.5 -43.5t44.5 -107.5q0 -72 -51 -118t-134 -46q-94 0 -150 63t-56 171z" />
    <glyph glyph-name="quoteright" unicode="&#x2019;" horiz-adv-x="552" 
d="M487 1251q0 -80 -35 -149.5t-93.5 -116t-137 -68t-162.5 -10.5v142q93 -11 156.5 22.5t83.5 104.5q-24 -9 -47 -9q-67 0 -112.5 44.5t-45.5 109.5q0 73 51.5 118.5t135.5 45.5q94 0 150 -63t56 -171z" />
    <glyph glyph-name="quotesinglbase" unicode="&#x201a;" horiz-adv-x="552" 
d="M487 143q0 -80 -35 -149.5t-93.5 -116t-137 -68t-162.5 -10.5v142q93 -11 156.5 22.5t83.5 104.5q-24 -9 -47 -9q-67 0 -112.5 44.5t-45.5 107.5q0 74 51 119t136 45q94 0 150 -62t56 -170z" />
    <glyph glyph-name="quotedblleft" unicode="&#x201c;" horiz-adv-x="1048" 
d="M66 1133q0 105 58.5 190.5t157.5 127t210 26.5v-144q-91 12 -155 -21.5t-83 -103.5q24 6 47 6q67 0 111.5 -43.5t44.5 -107.5q0 -72 -51 -118t-134 -46q-94 0 -150 63t-56 171zM561 1133q0 105 58.5 190.5t157.5 127t210 26.5v-144q-91 12 -154.5 -21.5t-82.5 -103.5
q24 6 47 6q67 0 111 -43.5t44 -107.5q0 -73 -50 -118.5t-134 -45.5q-94 0 -150.5 63t-56.5 171z" />
    <glyph glyph-name="quotedblright" unicode="&#x201d;" horiz-adv-x="1048" 
d="M487 1251q0 -80 -35 -149.5t-93.5 -116t-137 -68t-162.5 -10.5v142q93 -11 156.5 22.5t83.5 104.5q-24 -9 -47 -9q-67 0 -112.5 44.5t-45.5 109.5q0 73 51.5 118.5t135.5 45.5q94 0 150 -63t56 -171zM983 1251q0 -162 -128 -264.5t-300 -79.5v142q93 -11 156.5 22.5
t83.5 104.5q-24 -9 -47 -9q-67 0 -112.5 44.5t-45.5 109.5q0 73 51 118.5t135 45.5q94 0 150.5 -63t56.5 -171z" />
    <glyph glyph-name="quotedblbase" unicode="&#x201e;" horiz-adv-x="1048" 
d="M487 143q0 -80 -35 -149.5t-93.5 -116t-137 -68t-162.5 -10.5v142q93 -11 156.5 22.5t83.5 104.5q-24 -9 -47 -9q-67 0 -112.5 44.5t-45.5 107.5q0 74 51 119t136 45q94 0 150 -62t56 -170zM983 143q0 -162 -128 -264.5t-300 -79.5v142q93 -11 156.5 22.5t83.5 104.5
q-21 -9 -47 -9q-66 0 -112 44.5t-46 107.5q0 74 51 119t135 45q95 0 151 -62t56 -170z" />
    <glyph glyph-name="dagger" unicode="&#x2020;" horiz-adv-x="1351" 
d="M809 -395h-266v1239h-379v248h379v378h266v-378h379v-248h-379v-1239z" />
    <glyph glyph-name="daggerdbl" unicode="&#x2021;" horiz-adv-x="1351" 
d="M809 -395h-266v379h-379v247h379v613h-379v248h379v378h266v-378h379v-248h-379v-613h379v-247h-379v-379z" />
    <glyph glyph-name="bullet" unicode="&#x2022;" 
d="M864 539q0 -152 -100 -251.5t-254 -99.5q-152 0 -251 99.5t-99 251.5q0 157 99 257.5t251 100.5q154 0 254 -101t100 -257z" />
    <glyph glyph-name="ellipsis" unicode="&#x2026;" horiz-adv-x="1800" 
d="M461 182q0 -85 -53 -138.5t-138 -53.5t-138.5 53.5t-53.5 138.5q0 86 53.5 140.5t138.5 54.5t138 -54.5t53 -140.5zM1092 182q0 -85 -53 -138.5t-138 -53.5t-138.5 53.5t-53.5 138.5q0 86 53.5 140.5t138.5 54.5t138 -54.5t53 -140.5zM1722 182q0 -85 -52.5 -138.5
t-137.5 -53.5t-139 53.5t-54 138.5q0 86 54 140.5t139 54.5t137.5 -54.5t52.5 -140.5z" />
    <glyph glyph-name="perthousand" unicode="&#x2030;" horiz-adv-x="3244" 
d="M498 537q-126 0 -229.5 58t-161.5 156.5t-58 215.5q0 180 128.5 305t320.5 125q191 0 319.5 -125t128.5 -305q0 -179 -129 -304.5t-319 -125.5zM838 0h-228l787 1384h227zM498 737q92 0 153.5 60.5t61.5 169.5t-61 169t-154 60q-92 0 -154.5 -60t-62.5 -169t62.5 -169.5
t154.5 -60.5zM1772 -18q-126 0 -229.5 58t-161.5 156.5t-58 215.5q0 180 128.5 305t320.5 125t320 -125t128 -305q0 -179 -128.5 -304.5t-319.5 -125.5zM2746 -18q-191 0 -319.5 125.5t-128.5 304.5q0 180 128 305t320 125q191 0 320 -125t129 -305q0 -179 -129.5 -304.5
t-319.5 -125.5zM1772 184q93 0 155 59.5t62 168.5q0 110 -62 169.5t-155 59.5q-92 0 -155 -59.5t-63 -169.5q0 -109 63 -168.5t155 -59.5zM2746 184q93 0 154 59.5t61 168.5q0 110 -61 169.5t-154 59.5q-92 0 -154.5 -59.5t-62.5 -169.5q0 -109 62.5 -168.5t154.5 -59.5z
" />
    <glyph glyph-name="guilsinglleft" unicode="&#x2039;" horiz-adv-x="679" 
d="M645 127h-311l-299 420l299 420h311l-283 -420z" />
    <glyph glyph-name="guilsinglright" unicode="&#x203a;" horiz-adv-x="679" 
d="M35 967h313l297 -420l-297 -420h-313l282 420z" />
    <glyph glyph-name="fraction" unicode="&#x2044;" horiz-adv-x="432" 
d="M-57 0h-226l787 1384h227z" />
    <glyph glyph-name="zero.superior" unicode="&#x2070;" horiz-adv-x="831" 
d="M772 1468q0 -204 -92.5 -315t-263.5 -111q-172 0 -264.5 111t-92.5 315q0 206 93.5 318t263.5 112q171 0 263.5 -111.5t92.5 -318.5zM254 1468q0 -126 41.5 -192t120.5 -66q80 0 122 66t42 192q0 127 -42 195t-122 68q-78 0 -120 -68.5t-42 -194.5z" />
    <glyph glyph-name="four.superior" unicode="&#x2074;" horiz-adv-x="817" 
d="M784 1212h-131v-157h-186v157h-438v140l475 534h149v-510h131v-164zM248 1376h219v252z" />
    <glyph glyph-name="five.superior" unicode="&#x2075;" horiz-adv-x="788" 
d="M748 1327q0 -114 -92.5 -199.5t-256.5 -85.5q-147 0 -245.5 76.5t-102.5 194.5h189q7 -50 49.5 -76.5t109.5 -26.5q77 0 116.5 35.5t39.5 83.5q0 47 -41.5 83t-120.5 36q-115 0 -157 -80l-154 51l82 467h530v-168h-395l-29 -147q68 39 154 39q79 0 142.5 -24t102 -64.5
t59 -90.5t20.5 -104z" />
    <glyph glyph-name="six.superior" unicode="&#x2076;" horiz-adv-x="813" 
d="M762 1335q0 -126 -104 -207t-252 -81q-153 0 -254 81.5t-101 194.5q0 80 29 139t92 125l277 301h213l-263 -289q25 7 41 7q136 0 229 -72t93 -199zM565 1329q0 62 -44.5 94.5t-112.5 32.5q-70 0 -116 -31.5t-46 -95.5q0 -59 47 -92t115 -33t112.5 33t44.5 92z" />
    <glyph glyph-name="seven.superior" unicode="&#x2077;" horiz-adv-x="681" 
d="M664 1776l-342 -721h-201l332 663h-435v168h646v-110z" />
    <glyph glyph-name="eight.superior" unicode="&#x2078;" horiz-adv-x="833" 
d="M770 1298q0 -111 -97.5 -182.5t-254.5 -71.5q-160 0 -258.5 71.5t-98.5 182.5q0 63 41 111.5t111 77.5q-119 59 -119 170q0 104 90.5 172.5t233.5 68.5q141 0 231 -68.5t90 -172.5q0 -106 -118 -170q68 -29 108.5 -77.5t40.5 -111.5zM289 1649q0 -41 34.5 -65.5
t94.5 -24.5q59 0 94 24.5t35 65.5q0 47 -35 73.5t-94 26.5q-60 0 -94.5 -26.5t-34.5 -73.5zM256 1303q0 -51 43.5 -80t118.5 -29q73 0 116.5 29t43.5 80q0 47 -44 76.5t-116 29.5q-74 0 -118 -29t-44 -77z" />
    <glyph glyph-name="nine.superior" unicode="&#x2079;" horiz-adv-x="813" 
d="M51 1610q0 126 104.5 207t252.5 81q153 0 253.5 -81.5t100.5 -194.5q0 -82 -28 -140t-91 -126l-276 -299h-213l262 286q-32 -4 -43 -4q-136 0 -229 71.5t-93 199.5zM248 1616q0 -63 44.5 -95t113.5 -32q70 0 115.5 31.5t45.5 95.5q0 59 -46.5 91t-114.5 32t-113 -32
t-45 -91z" />
    <glyph glyph-name="zero.inferior" unicode="&#x2080;" horiz-adv-x="831" 
d="M772 -2q0 -204 -92.5 -315t-263.5 -111q-172 0 -264.5 111t-92.5 315q0 206 93.5 318t263.5 112q171 0 263.5 -111.5t92.5 -318.5zM254 -2q0 -126 41.5 -192t120.5 -66q80 0 122 66t42 192q0 127 -42 194.5t-122 67.5q-78 0 -120 -68t-42 -194z" />
    <glyph glyph-name="one.inferior" unicode="&#x2081;" horiz-adv-x="493" 
d="M389 -416h-190v668h-172v164h362v-832z" />
    <glyph glyph-name="two.inferior" unicode="&#x2082;" horiz-adv-x="755" 
d="M707 -248v-168h-644l3 107l278 252q84 75 118 118.5t34 92.5q0 45 -37 75.5t-99 30.5q-67 0 -104 -32t-37 -91h-182q0 128 94.5 209.5t241.5 81.5q145 0 232 -75t87 -175q0 -79 -45.5 -143t-161.5 -166l-123 -117h345z" />
    <glyph glyph-name="three.inferior" unicode="&#x2083;" horiz-adv-x="815" 
d="M754 -166q0 -117 -98 -188.5t-255 -71.5q-149 0 -244.5 72t-95.5 186h183q4 -52 46.5 -80t112.5 -28q73 0 114.5 28t41.5 78q0 49 -47.5 76.5t-132.5 27.5h-100v150h90q69 0 109 26t40 72q0 44 -34.5 70.5t-92.5 26.5q-59 0 -93 -29.5t-36 -77.5h-182q2 108 93.5 182
t225.5 74q143 0 228.5 -64t85.5 -167q0 -109 -129 -177q81 -25 125.5 -73t44.5 -113z" />
    <glyph glyph-name="four.inferior" unicode="&#x2084;" horiz-adv-x="817" 
d="M784 -258h-131v-158h-186v158h-438v139l475 535h149v-510h131v-164zM248 -94h219v252z" />
    <glyph glyph-name="five.inferior" unicode="&#x2085;" horiz-adv-x="788" 
d="M748 -143q0 -114 -92.5 -199.5t-256.5 -85.5q-147 0 -245.5 76t-102.5 194h189q7 -50 49.5 -76t109.5 -26q77 0 116.5 35.5t39.5 83.5q0 46 -41.5 82t-120.5 36q-115 0 -157 -79l-154 51l82 467h530v-168h-395l-29 -148q68 39 154 39q155 0 239.5 -83.5t84.5 -198.5z" />
    <glyph glyph-name="six.inferior" unicode="&#x2086;" horiz-adv-x="813" 
d="M762 -135q0 -126 -104 -207.5t-252 -81.5q-153 0 -254 82t-101 195q0 80 29 139t92 125l277 301h213l-263 -289q21 6 41 6q136 0 229 -71.5t93 -198.5zM565 -141q0 62 -44.5 94.5t-112.5 32.5q-70 0 -116 -31.5t-46 -95.5q0 -59 47 -92t115 -33t112.5 33t44.5 92z" />
    <glyph glyph-name="seven.inferior" unicode="&#x2087;" horiz-adv-x="681" 
d="M664 305l-342 -721h-201l332 664h-435v168h646v-111z" />
    <glyph glyph-name="eight.inferior" unicode="&#x2088;" horiz-adv-x="833" 
d="M770 -172q0 -111 -97.5 -182.5t-254.5 -71.5q-160 0 -258.5 71.5t-98.5 182.5q0 63 41 111t111 77q-119 60 -119 170q0 104 90.5 173t233.5 69q141 0 231 -69t90 -173q0 -106 -118 -170q68 -29 108.5 -77t40.5 -111zM289 178q0 -41 34.5 -65.5t94.5 -24.5q59 0 94 24.5
t35 65.5q0 47 -35 74t-94 27q-60 0 -94.5 -27t-34.5 -74zM256 -168q0 -51 43.5 -79.5t118.5 -28.5q73 0 116.5 29t43.5 79q0 47 -44 77t-116 30q-74 0 -118 -29.5t-44 -77.5z" />
    <glyph glyph-name="nine.inferior" unicode="&#x2089;" horiz-adv-x="813" 
d="M51 139q0 126 104.5 207.5t252.5 81.5q153 0 253.5 -81.5t100.5 -194.5q0 -82 -28 -140.5t-91 -126.5l-276 -299h-213l262 287q-32 -4 -43 -4q-88 0 -160 29.5t-117 92t-45 148.5zM248 145q0 -63 44.5 -95t113.5 -32q70 0 115.5 31.5t45.5 95.5q0 59 -46.5 91t-114.5 32
t-113 -32t-45 -91z" />
    <glyph glyph-name="Euro" unicode="&#x20ac;" horiz-adv-x="1243" 
d="M1184 301v-262q-115 -59 -289 -59q-236 0 -401 129.5t-222 361.5h-219v170h193q-3 59 0 127h-193v168h221q61 222 225 345.5t396 123.5q177 0 289 -53v-269q-112 68 -258 68q-123 0 -211.5 -55.5t-132.5 -159.5h411v-168h-469q-5 -56 -2 -127h471v-170h-418
q43 -114 134 -174.5t217 -60.5q158 0 258 65z" />
    <glyph glyph-name="indianrupee" unicode="&#x20b9;" horiz-adv-x="1277" 
d="M1212 848h-200q-20 -121 -100.5 -205.5t-204.5 -120.5l358 -522h-317l-314 492h-346v200h356q109 0 178 40.5t93 115.5h-627v182h625q-23 74 -92 114t-177 40h-356v200h1124v-184h-338q103 -62 125 -170h213v-182z" />
    <glyph glyph-name="turkishlira" unicode="&#x20ba;" horiz-adv-x="1261" 
d="M956 580h265q-10 -175 -105 -311.5t-253 -210.5t-351 -74q-135 0 -217 26v537l-242 -60v181l242 59v129l-242 -59v182l242 59v346h287v-278l438 108v-182l-438 -108v-127l438 106v-180l-438 -109v-387q161 6 263 101.5t111 251.5z" />
    <glyph glyph-name="ruble" unicode="&#x20bd;" horiz-adv-x="1296" 
d="M1192 256h-588v-256h-285v256h-266v184h266v129h-266v185h266v630h426q231 0 361.5 -103t130.5 -298q0 -194 -139.5 -304t-382.5 -110h-111v-129h588v-184zM713 1182h-109v-428h113q124 0 186 56t62 157q0 215 -252 215z" />
    <glyph glyph-name="trademark" unicode="&#x2122;" horiz-adv-x="1759" 
d="M440 750h-184v550h-221v170h627v-170h-222v-550zM1087 750l-186 516v-516h-176v720h279l170 -491l172 491h264v-720h-176v510l-185 -510h-162z" />
    <glyph glyph-name="estimated" unicode="&#x212e;" horiz-adv-x="1705" 
d="M1444 279h86q-112 -150 -279 -224.5t-374 -74.5q-178 0 -332.5 59t-262.5 160t-169.5 239.5t-61.5 294.5q0 144 62 281t168 241.5t256.5 168t316.5 63.5q170 0 315.5 -57.5t248.5 -160t165 -246t72 -312.5h-1256q-43 0 -43 -45v-347q0 -79 76.5 -145.5t196 -102.5
t248.5 -36q194 0 341.5 63t225.5 181zM356 1165v-358q0 -45 43 -45h910q23 0 32 10.5t9 34.5v346q0 71 -70 136.5t-185.5 105t-240.5 39.5q-124 0 -240 -38.5t-187 -101t-71 -129.5z" />
    <glyph glyph-name="partialdiff" unicode="&#x2202;" horiz-adv-x="1236" 
d="M55 532q0 230 152.5 378.5t382.5 148.5q38 0 76 -12l-326 423h319l332 -432q104 -137 147.5 -247t43.5 -263q0 -107 -41.5 -206.5t-114 -175t-179 -121t-229.5 -45.5q-164 0 -293.5 74.5t-199.5 200t-70 277.5zM346 537q0 -144 76.5 -224t195.5 -80q117 0 193 78t76 219
q0 146 -77 228t-192 82q-119 0 -195.5 -79.5t-76.5 -223.5z" />
    <glyph glyph-name="increment" unicode="&#x2206;" horiz-adv-x="1476" 
d="M1452 0h-1427l555 1470h321zM731 1153l-325 -907h647z" />
    <glyph glyph-name="product" unicode="&#x220f;" horiz-adv-x="1548" 
d="M444 -395h-292v1865h1245v-1865h-295v1612h-658v-1612z" />
    <glyph glyph-name="summation" unicode="&#x2211;" horiz-adv-x="1320" 
d="M1243 -395h-1165v231l569 717l-549 682v235h1137v-253h-772l528 -666l-555 -692h807v-254z" />
    <glyph glyph-name="minus" unicode="&#x2212;" horiz-adv-x="1351" 
d="M1188 575h-1024v246h1024v-246z" />
    <glyph glyph-name="divisionslash" unicode="&#x2215;" horiz-adv-x="1351" 
d="M516 0h-264l584 1384h264z" />
    <glyph glyph-name="bulletoperator" unicode="&#x2219;" horiz-adv-x="1351" 
d="M868 696q0 -85 -53.5 -138.5t-138.5 -53.5t-139 53.5t-54 138.5q0 87 54 142t139 55t138.5 -54.5t53.5 -142.5z" />
    <glyph glyph-name="radical" unicode="&#x221a;" horiz-adv-x="1787" 
d="M1772 1470l-678 -1865h-322l-307 831h-301v254h524l252 -747l537 1527h295z" />
    <glyph glyph-name="infinity" unicode="&#x221e;" horiz-adv-x="2224" 
d="M2169 547q0 -249 -148 -408t-383 -159q-171 0 -297.5 88.5t-228.5 242.5q-50 -74 -101 -129.5t-115 -103.5t-143 -73t-169 -25q-234 0 -381.5 159.5t-147.5 407.5q0 250 147.5 408.5t381.5 158.5q90 0 169 -25t143 -72.5t115 -103t101 -129.5q102 154 228.5 242t297.5 88
q236 0 383.5 -158.5t147.5 -408.5zM350 547q0 -141 74.5 -228.5t198.5 -87.5q58 0 110.5 25t96.5 72t78.5 98.5t70.5 120.5q-35 69 -70 121t-78.5 98.5t-96.5 71t-111 24.5q-124 0 -198.5 -87.5t-74.5 -227.5zM1245 547q158 -316 357 -316q123 0 197.5 87.5t74.5 228.5
q0 142 -74 228.5t-198 86.5q-201 0 -357 -315z" />
    <glyph glyph-name="integral" unicode="&#x222b;" 
d="M653 1118v-1132q0 -103 -31.5 -181.5t-88.5 -126t-130 -71t-161 -23.5q-81 0 -154 23v264q52 -25 119 -25q74 0 118 38.5t44 123.5v1116q0 93 30.5 164.5t85 114.5t123 64.5t148.5 21.5q97 0 180 -33v-217q-54 29 -123 29q-67 0 -113.5 -38.5t-46.5 -111.5z" />
    <glyph glyph-name="approxequal" unicode="&#x2248;" horiz-adv-x="1351" 
d="M928 727q-66 0 -142 26t-131.5 57t-113 57t-90.5 26q-54 0 -78 -37.5t-23 -130.5h-231q-27 186 60.5 304t246.5 118q66 0 142 -25.5t131 -56.5t112.5 -56.5t91.5 -25.5q54 0 77.5 37.5t20.5 130.5h232q29 -187 -58 -305.5t-247 -118.5zM928 252q-66 0 -142 26t-131.5 57
t-113 57t-90.5 26q-54 0 -78 -37.5t-23 -130.5h-231q-27 186 60.5 304t246.5 118q66 0 142 -25.5t131 -56.5t112.5 -56.5t91.5 -25.5q54 0 77.5 37.5t20.5 130.5h232q29 -187 -58 -305.5t-247 -118.5z" />
    <glyph glyph-name="notequal" unicode="&#x2260;" horiz-adv-x="1351" 
d="M399 338h-235v246h332l100 229h-432v248h528l144 323h264l-146 -323h234v-248h-328l-100 -229h428v-246h-524l-148 -338h-264z" />
    <glyph glyph-name="lessequal" unicode="&#x2264;" horiz-adv-x="1351" 
d="M164 969l1024 417v-247l-737 -283l737 -285v-245l-1024 417v226zM1188 0h-1024v248h1024v-248z" />
    <glyph glyph-name="greaterequal" unicode="&#x2265;" horiz-adv-x="1351" 
d="M1188 743l-1024 -417v245l737 285l-737 283v247l1024 -417v-226zM1188 0h-1024v248h1024v-248z" />
    <glyph glyph-name="lozenge" unicode="&#x25ca;" horiz-adv-x="1480" 
d="M903 -395h-323l-353 934l353 931h323l348 -931zM512 539l221 -617l217 617l-217 614z" />
    <glyph glyph-name="ITF" unicode="&#xf8ff;" horiz-adv-x="3561" 
d="M147 0v1434h443v-1434h-443zM682 1016v418h442v-418h-442zM1214 0v1434h445v-1434h-445zM1749 1016v418h442v-418h-442zM2281 0v1434h445v-1434h-445zM2816 1016v418h442v-418h-442zM2816 506v420h442v-420h-442z" />
    <glyph glyph-name="Q.ss02" horiz-adv-x="1636" 
d="M688 -305v285q-273 45 -447.5 254.5t-174.5 502.5q0 216 99 391.5t270.5 274t381.5 98.5q158 0 297.5 -58t240.5 -158.5t159.5 -243t58.5 -304.5q0 -293 -176.5 -502.5t-450.5 -254.5v-285h-258zM946 604v-338q142 42 223.5 171t81.5 300q0 208 -118.5 347t-315.5 139
q-196 0 -314 -139t-118 -347q0 -170 81 -298.5t222 -172.5v338h258z" />
    <glyph glyph-name="zero.case" horiz-adv-x="1370" 
d="M686 1489q277 0 428.5 -197t151.5 -561q0 -363 -149.5 -558.5t-430.5 -195.5q-282 0 -431 195t-149 559q0 365 150.5 561.5t429.5 196.5zM686 1237q-140 0 -214.5 -130t-74.5 -376q0 -245 73.5 -372.5t215.5 -127.5q140 0 214.5 128t74.5 372q0 246 -74.5 376t-214.5 130
z" />
    <glyph glyph-name="one.case" horiz-adv-x="788" 
d="M616 0h-282v1225h-291v245h573v-1470z" />
    <glyph glyph-name="two.case" horiz-adv-x="1224" 
d="M1139 254v-254h-1037v162l467 465q70 70 105 107.5t75 90.5t56 99.5t16 97.5q0 93 -64 154t-175 61q-115 0 -180.5 -63.5t-65.5 -178.5h-277q1 144 71 257t193.5 175t278.5 62q118 0 216.5 -35.5t162.5 -95.5t99.5 -137t35.5 -160q0 -77 -20.5 -143.5t-70 -136.5
t-99 -124.5t-140.5 -144.5l-247 -258h600z" />
    <glyph glyph-name="three.case" horiz-adv-x="1296" 
d="M631 -20q-241 0 -396 125.5t-157 322.5h274q8 -103 83.5 -163t199.5 -60q129 0 202.5 58.5t73.5 160.5q0 101 -83.5 158t-231.5 57h-162v225h148q120 0 190 54.5t70 148.5q0 91 -62 144t-166 53q-103 0 -165.5 -58t-63.5 -157h-276q3 190 151.5 315t368.5 125
q231 0 367.5 -111.5t136.5 -290.5q0 -202 -228 -317q141 -45 219 -132t78 -206q0 -202 -158 -327t-413 -125z" />
    <glyph glyph-name="four.case" horiz-adv-x="1341" 
d="M1270 297h-213v-297h-281v297h-727v209l787 964h221v-927h213v-246zM362 543h414v520z" />
    <glyph glyph-name="five.case" horiz-adv-x="1267" 
d="M633 -23q-236 0 -395.5 132t-167.5 333h284q12 -99 87 -155t190 -56q139 0 208.5 70t69.5 176q0 100 -74.5 172t-209.5 72q-193 0 -273 -150l-231 74l135 825h854v-253h-649l-53 -328q116 74 266 74q127 0 229 -40.5t166 -109t97.5 -155t33.5 -181.5q0 -96 -36.5 -184.5
t-105.5 -159.5t-179 -113.5t-246 -42.5z" />
    <glyph glyph-name="six.case" horiz-adv-x="1310" 
d="M655 -18q-125 0 -233.5 39t-183 105t-117.5 155t-43 186q0 142 46.5 241t151.5 222l459 540h322l-439 -520q40 11 80 11q234 0 384.5 -133t150.5 -343q0 -213 -163 -358t-415 -145zM657 219q120 0 201.5 69t81.5 187q0 125 -80.5 194.5t-202.5 69.5q-124 0 -204 -66.5
t-80 -195.5q0 -119 81.5 -188.5t202.5 -69.5z" />
    <glyph glyph-name="seven.case" horiz-adv-x="1105" 
d="M1081 1305l-573 -1305h-303l561 1217h-739v253h1054v-165z" />
    <glyph glyph-name="eight.case" horiz-adv-x="1343" 
d="M1247 422q0 -195 -159 -318.5t-414 -123.5q-259 0 -418.5 123.5t-159.5 318.5q0 119 71 205.5t191 136.5q-95 48 -151.5 126.5t-56.5 180.5q0 182 146.5 300t377.5 118q228 0 374 -118t146 -300q0 -101 -56.5 -180t-150.5 -127q119 -50 189.5 -136.5t70.5 -205.5z
M442 1061q0 -88 63 -139.5t169 -51.5q104 0 166.5 51.5t62.5 139.5q0 93 -62 148t-167 55q-106 0 -169 -55t-63 -148zM387 428q0 -104 78 -163.5t209 -59.5q129 0 206.5 60t77.5 163q0 99 -78 158t-206 59q-131 0 -209 -59t-78 -158z" />
    <glyph glyph-name="nine.case" horiz-adv-x="1310" 
d="M657 1489q249 0 412.5 -142.5t163.5 -345.5q0 -132 -45.5 -233t-155.5 -229l-457 -539h-319l436 522q-44 -12 -86 -12q-231 0 -379.5 133t-148.5 342q0 140 72.5 254.5t206 182t300.5 67.5zM655 1251q-121 0 -202.5 -69.5t-81.5 -188.5q0 -123 81 -192.5t203 -69.5
t202.5 67.5t80.5 194.5q0 119 -82 188.5t-201 69.5z" />
    <glyph glyph-name="zero.dnom" horiz-adv-x="845" 
d="M778 414q0 -204 -92.5 -315t-263.5 -111t-263.5 111t-92.5 315q0 206 93.5 318t262.5 112q171 0 263.5 -111.5t92.5 -318.5zM260 414q0 -126 41.5 -192t120.5 -66q80 0 122 66t42 192q0 127 -42 194.5t-122 67.5q-78 0 -120 -68t-42 -194z" />
    <glyph glyph-name="one.dnom" horiz-adv-x="493" 
d="M389 0h-190v668h-172v163h362v-831z" />
    <glyph glyph-name="two.dnom" horiz-adv-x="755" 
d="M707 168v-168h-644l3 106l278 252q84 75 118 118.5t34 92.5q0 45 -37 76t-99 31q-67 0 -104 -32t-37 -91h-182q0 128 94.5 209.5t241.5 81.5q145 0 232 -75t87 -175q0 -79 -45.5 -143t-161.5 -166l-123 -117h345z" />
    <glyph glyph-name="three.dnom" horiz-adv-x="815" 
d="M754 250q0 -117 -98 -188.5t-255 -71.5q-149 0 -244.5 72t-95.5 186h183q4 -52 46.5 -80.5t112.5 -28.5q73 0 114.5 28t41.5 79q0 49 -47.5 76.5t-132.5 27.5h-100v150h90q69 0 109 26t40 72q0 44 -34 70t-93 26t-93 -29t-36 -77h-182q2 108 93.5 182t225.5 74
q143 0 228.5 -64.5t85.5 -167.5q0 -108 -129 -176q81 -25 125.5 -73t44.5 -113z" />
    <glyph glyph-name="four.dnom" horiz-adv-x="817" 
d="M784 158h-131v-158h-186v158h-438v139l475 534h149v-509h131v-164zM248 322h219v251z" />
    <glyph glyph-name="five.dnom" horiz-adv-x="788" 
d="M748 272q0 -114 -92.5 -199t-256.5 -85q-147 0 -245.5 76t-102.5 194h189q7 -50 49.5 -76t109.5 -26q77 0 116.5 35t39.5 83q0 47 -41.5 83t-120.5 36q-115 0 -157 -80l-154 52l82 466h530v-167h-395l-29 -148q68 39 154 39q79 0 142.5 -24t102 -64.5t59 -90.5t20.5 -104
z" />
    <glyph glyph-name="six.dnom" horiz-adv-x="813" 
d="M762 281q0 -126 -104 -207.5t-252 -81.5q-153 0 -254 81.5t-101 194.5q0 80 29 139t92 125l277 302h213l-263 -289q21 6 41 6q136 0 229 -71.5t93 -198.5zM565 274q0 62 -44.5 94.5t-112.5 32.5q-70 0 -116 -31.5t-46 -95.5q0 -59 47 -91.5t115 -32.5t112.5 32.5
t44.5 91.5z" />
    <glyph glyph-name="seven.dnom" horiz-adv-x="681" 
d="M664 721l-342 -721h-201l332 664h-435v167h646v-110z" />
    <glyph glyph-name="eight.dnom" horiz-adv-x="833" 
d="M770 244q0 -111 -97.5 -182.5t-254.5 -71.5q-160 0 -258.5 71.5t-98.5 182.5q0 63 41 111t111 77q-119 60 -119 170q0 104 90.5 173t233.5 69q141 0 231 -69t90 -173q0 -106 -118 -170q68 -29 108.5 -77t40.5 -111zM289 594q0 -41 34.5 -65.5t94.5 -24.5q59 0 94 24.5
t35 65.5q0 47 -35 73.5t-94 26.5q-60 0 -94.5 -26.5t-34.5 -73.5zM256 248q0 -51 43.5 -80t118.5 -29q73 0 116.5 29t43.5 80q0 47 -44 76.5t-116 29.5q-74 0 -118 -29t-44 -77z" />
    <glyph glyph-name="nine.dnom" horiz-adv-x="813" 
d="M51 555q0 126 104.5 207.5t252.5 81.5q153 0 253.5 -82t100.5 -195q0 -82 -28 -140t-91 -126l-276 -299h-213l262 287q-32 -4 -43 -4q-88 0 -160 29.5t-117 92t-45 148.5zM248 561q0 -63 44.5 -95t113.5 -32q70 0 115.5 31.5t45.5 95.5q0 59 -46.5 91t-114.5 32t-113 -32
t-45 -91z" />
    <glyph glyph-name="zero.numr_alt" horiz-adv-x="962" 
d="M487 537q-190 0 -319 125.5t-129 304.5q0 180 128.5 305t319.5 125q192 0 320.5 -125t128.5 -305q0 -117 -58 -215.5t-161.5 -156.5t-229.5 -58zM487 737q93 0 155.5 60.5t62.5 169.5t-62.5 169t-155.5 60q-92 0 -154.5 -60t-62.5 -169t62.5 -169.5t154.5 -60.5z" />
    <glyph glyph-name="zero.numr" horiz-adv-x="831" 
d="M772 967q0 -204 -92.5 -315t-263.5 -111q-172 0 -264.5 111t-92.5 315q0 206 93.5 318t263.5 112q171 0 263.5 -111.5t92.5 -318.5zM254 967q0 -126 41.5 -192t120.5 -66q80 0 122 66t42 192q0 127 -42 194.5t-122 67.5q-78 0 -120 -68t-42 -194z" />
    <glyph glyph-name="one.numr" horiz-adv-x="493" 
d="M389 553h-190v668h-172v163h362v-831z" />
    <glyph glyph-name="two.numr" horiz-adv-x="755" 
d="M707 721v-168h-644l3 106l278 252q84 75 118 118.5t34 92.5q0 45 -37 76t-99 31q-67 0 -104 -32t-37 -91h-182q0 128 94.5 209.5t241.5 81.5q145 0 232 -75t87 -175q0 -79 -45.5 -143t-161.5 -166l-123 -117h345z" />
    <glyph glyph-name="three.numr" horiz-adv-x="815" 
d="M754 805q0 -117 -98 -188.5t-255 -71.5q-149 0 -244.5 72t-95.5 186h183q4 -52 46.5 -80.5t112.5 -28.5q73 0 114.5 28t41.5 79q0 49 -47.5 76.5t-132.5 27.5h-100v150h90q69 0 109 26t40 72q0 44 -34 70t-93 26t-93 -29t-36 -77h-182q2 108 93.5 182t225.5 74
q143 0 228.5 -64.5t85.5 -167.5q0 -108 -129 -176q81 -25 125.5 -73t44.5 -113z" />
    <glyph glyph-name="four.numr" horiz-adv-x="817" 
d="M784 711h-131v-158h-186v158h-438v139l475 534h149v-510h131v-163zM248 874h219v252z" />
    <glyph glyph-name="five.numr" horiz-adv-x="788" 
d="M748 825q0 -114 -92.5 -199t-256.5 -85q-147 0 -245.5 76t-102.5 194h189q7 -50 49.5 -76t109.5 -26q77 0 116.5 35t39.5 83q0 47 -41.5 83t-120.5 36q-115 0 -157 -80l-154 52l82 466h530v-167h-395l-29 -148q68 39 154 39q79 0 142.5 -24t102 -64.5t59 -90.5t20.5 -104
z" />
    <glyph glyph-name="six.numr" horiz-adv-x="813" 
d="M762 834q0 -126 -104 -207.5t-252 -81.5q-153 0 -254 81.5t-101 194.5q0 80 29 139t92 125l277 301h213l-263 -288q21 6 41 6q136 0 229 -71.5t93 -198.5zM565 827q0 62 -44.5 94.5t-112.5 32.5q-70 0 -116 -31.5t-46 -95.5q0 -59 47 -92t115 -33t112.5 33t44.5 92z" />
    <glyph glyph-name="seven.numr" horiz-adv-x="681" 
d="M664 1274l-342 -721h-201l332 664h-435v167h646v-110z" />
    <glyph glyph-name="eight.numr" horiz-adv-x="833" 
d="M770 797q0 -111 -97.5 -182.5t-254.5 -71.5q-160 0 -258.5 71.5t-98.5 182.5q0 63 41 111t111 77q-119 59 -119 170q0 104 90.5 173t233.5 69q141 0 231 -69t90 -173q0 -106 -118 -170q68 -29 108.5 -77t40.5 -111zM289 1147q0 -41 34.5 -65.5t94.5 -24.5q59 0 94 24.5
t35 65.5q0 47 -35 73.5t-94 26.5q-60 0 -94.5 -26.5t-34.5 -73.5zM256 801q0 -51 43.5 -80t118.5 -29q73 0 116.5 29t43.5 80q0 47 -44 76.5t-116 29.5q-74 0 -118 -29t-44 -77z" />
    <glyph glyph-name="nine.numr" horiz-adv-x="813" 
d="M51 1108q0 126 104.5 207.5t252.5 81.5q153 0 253.5 -82t100.5 -195q0 -82 -28 -140t-91 -126l-276 -299h-213l262 287q-32 -4 -43 -4q-88 0 -160 29.5t-117 92t-45 148.5zM248 1114q0 -63 44.5 -95t113.5 -32q70 0 115.5 31.5t45.5 95.5q0 59 -46.5 91t-114.5 32
t-113 -32t-45 -91z" />
    <glyph glyph-name="caroncomb.alt" 
d="M629 1155h-189v315h236z" />
    <glyph glyph-name="caroncomb.alt2" 
d="M582 1075h-189v395h238z" />
    <glyph glyph-name="strokeshortcomb.case" 
d="M913 631h-802v252h802v-252z" />
    <glyph glyph-name="slashshortcomb.case" 
d="M969 743l-914 -225v250l914 221v-246z" />
    <glyph glyph-name="slashlongcomb.case" 
d="M80 0h-279l1143 1470h279z" />
    <glyph glyph-name="dieresiscomb.narrow" 
d="M893 1321q0 -72 -47 -119t-119 -47q-76 0 -124 47t-48 119q0 75 47.5 121.5t124.5 46.5q73 0 119.5 -46.5t46.5 -121.5zM469 1321q0 -72 -48 -119t-124 -47q-72 0 -119 47t-47 119q0 75 46.5 121.5t119.5 46.5q77 0 124.5 -46.5t47.5 -121.5z" />
    <glyph glyph-name="gravecomb.narrow" 
d="M768 1157h-297l-215 313h328z" />
    <glyph glyph-name="acutecomb.narrow" 
d="M553 1157h-297l184 313h328z" />
    <glyph glyph-name="circumflexcomb.narrow" 
d="M391 1157h-313l256 313h360l254 -313h-313l-121 162z" />
    <glyph glyph-name="a.ss01" horiz-adv-x="1263" 
d="M55 547q0 162 60.5 290t175.5 202.5t266 74.5q107 0 186 -42t142 -128v150h262v-1094h-260v158q-133 -178 -346 -178q-108 0 -200 44t-154 120t-97 180t-35 223zM348 547q0 -148 73.5 -231t182.5 -83q111 0 184.5 84t73.5 234q0 149 -74 230t-184 81t-183 -82.5
t-73 -232.5z" />
    <glyph glyph-name="aacute.ss01" horiz-adv-x="1263" 
d="M752 1182h-297l207 311h327zM55 547q0 162 60.5 290t175.5 202.5t266 74.5q107 0 186 -42t142 -128v150h262v-1094h-260v158q-133 -178 -346 -178q-108 0 -200 44t-154 120t-97 180t-35 223zM348 547q0 -148 73.5 -231t182.5 -83q111 0 184.5 84t73.5 234q0 149 -74 230
t-184 81t-183 -82.5t-73 -232.5z" />
    <glyph glyph-name="abreve.ss01" horiz-adv-x="1263" 
d="M752 1493h202q0 -147 -96 -234.5t-260 -87.5q-165 0 -260.5 87.5t-95.5 234.5h202q0 -66 41.5 -103.5t112.5 -37.5q72 0 113 37.5t41 103.5zM55 547q0 162 60.5 290t175.5 202.5t266 74.5q107 0 186 -42t142 -128v150h262v-1094h-260v158q-133 -178 -346 -178
q-108 0 -200 44t-154 120t-97 180t-35 223zM348 547q0 -148 73.5 -231t182.5 -83q111 0 184.5 84t73.5 234q0 149 -74 230t-184 81t-183 -82.5t-73 -232.5z" />
    <glyph glyph-name="acircumflex.ss01" horiz-adv-x="1263" 
d="M453 1182h-314l285 311h350l283 -311h-312l-147 161zM55 547q0 162 60.5 290t175.5 202.5t266 74.5q107 0 186 -42t142 -128v150h262v-1094h-260v158q-133 -178 -346 -178q-108 0 -200 44t-154 120t-97 180t-35 223zM348 547q0 -148 73.5 -231t182.5 -83q111 0 184.5 84
t73.5 234q0 149 -74 230t-184 81t-183 -82.5t-73 -232.5z" />
    <glyph glyph-name="adieresis.ss01" horiz-adv-x="1263" 
d="M999 1343q0 -71 -49 -117t-123 -46q-78 0 -127 45.5t-49 117.5q0 75 49 121.5t127 46.5q74 0 123 -47t49 -121zM545 1343q0 -72 -48 -117.5t-126 -45.5q-75 0 -124.5 45.5t-49.5 117.5q0 74 49 121t125 47q78 0 126 -46.5t48 -121.5zM55 547q0 162 60.5 290t175.5 202.5
t266 74.5q107 0 186 -42t142 -128v150h262v-1094h-260v158q-133 -178 -346 -178q-108 0 -200 44t-154 120t-97 180t-35 223zM348 547q0 -148 73.5 -231t182.5 -83q111 0 184.5 84t73.5 234q0 149 -74 230t-184 81t-183 -82.5t-73 -232.5z" />
    <glyph glyph-name="agrave.ss01" horiz-adv-x="1263" 
d="M741 1182h-297l-237 311h330zM55 547q0 162 60.5 290t175.5 202.5t266 74.5q107 0 186 -42t142 -128v150h262v-1094h-260v158q-133 -178 -346 -178q-108 0 -200 44t-154 120t-97 180t-35 223zM348 547q0 -148 73.5 -231t182.5 -83q111 0 184.5 84t73.5 234q0 149 -74 230
t-184 81t-183 -82.5t-73 -232.5z" />
    <glyph glyph-name="amacron.ss01" horiz-adv-x="1263" 
d="M934 1206h-670v187h670v-187zM55 547q0 162 60.5 290t175.5 202.5t266 74.5q107 0 186 -42t142 -128v150h262v-1094h-260v158q-133 -178 -346 -178q-108 0 -200 44t-154 120t-97 180t-35 223zM348 547q0 -148 73.5 -231t182.5 -83q111 0 184.5 84t73.5 234q0 149 -74 230
t-184 81t-183 -82.5t-73 -232.5z" />
    <glyph glyph-name="aogonek.ss01" horiz-adv-x="1263" 
d="M55 547q0 162 60.5 290t175.5 202.5t266 74.5q107 0 186 -42t142 -128v150h262v-1094h-141q-50 -56 -50 -115q0 -44 24.5 -69t66.5 -25q32 0 67 14v-188q-64 -20 -135 -20q-106 0 -174 54t-68 154q0 66 37.5 126t112.5 128v99q-133 -178 -346 -178q-108 0 -200 44
t-154 120t-97 180t-35 223zM348 547q0 -148 73.5 -231t182.5 -83q111 0 184.5 84t73.5 234q0 149 -74 230t-184 81t-183 -82.5t-73 -232.5z" />
    <glyph glyph-name="aring.ss01" horiz-adv-x="1263" 
d="M598 1171q-121 0 -198.5 73.5t-77.5 178.5q0 106 77.5 180t198.5 74q120 0 199.5 -74t79.5 -180q0 -104 -79.5 -178t-199.5 -74zM598 1315q49 0 80 27t31 81q0 53 -31.5 82t-79.5 29q-46 0 -79.5 -29.5t-33.5 -81.5q0 -53 33 -80.5t80 -27.5zM55 547q0 162 60.5 290
t175.5 202.5t266 74.5q107 0 186 -42t142 -128v150h262v-1094h-260v158q-133 -178 -346 -178q-108 0 -200 44t-154 120t-97 180t-35 223zM348 547q0 -148 73.5 -231t182.5 -83q111 0 184.5 84t73.5 234q0 149 -74 230t-184 81t-183 -82.5t-73 -232.5z" />
    <glyph glyph-name="atilde.ss01" horiz-adv-x="1263" 
d="M393 1174h-174q-23 141 38 230t175 89q58 0 118.5 -25t108.5 -50t74 -25q71 0 66 114h174q23 -138 -39 -228.5t-176 -90.5q-58 0 -118 25t-107.5 50t-73.5 25q-69 0 -66 -114zM55 547q0 162 60.5 290t175.5 202.5t266 74.5q107 0 186 -42t142 -128v150h262v-1094h-260
v158q-133 -178 -346 -178q-108 0 -200 44t-154 120t-97 180t-35 223zM348 547q0 -148 73.5 -231t182.5 -83q111 0 184.5 84t73.5 234q0 149 -74 230t-184 81t-183 -82.5t-73 -232.5z" />
    </font>
</defs>
</svg>
