<?xml version="1.0" standalone="no"?>
<!DOCTYPE svg PUBLIC "-//W3C//DTD SVG 1.1//EN" "http://www.w3.org/Graphics/SVG/1.1/DTD/svg11.dtd" >
<svg xmlns="http://www.w3.org/2000/svg" xmlns:xlink="http://www.w3.org/1999/xlink" version="1.1">
<metadata>
Created by FontForge 20170731 at Tue Apr 11 09:01:08 2023
 By Aleksey,,,
Copyright 2017-2021 Indian Type Foundry. All rights reserved.
</metadata>
<defs>
<font id="GeneralSans-Extralight" horiz-adv-x="1024" >
  <font-face 
    font-family="General Sans Extralight"
    font-weight="200"
    font-stretch="normal"
    units-per-em="2048"
    panose-1="0 0 0 0 0 0 0 0 0 0"
    ascent="1638"
    descent="-410"
    x-height="1071"
    cap-height="1470"
    bbox="-274 -428 3336 2005"
    underline-thickness="102"
    underline-position="-266"
    unicode-range="U+000D-FB02"
  />
<missing-glyph horiz-adv-x="1515" 
 />
    <glyph glyph-name="fi" unicode="fi" horiz-adv-x="1081" 
d="M330 0h-70v1016h-270v55h270v119q0 141 71.5 217t198.5 76q52 0 105 -17v-63q-40 16 -100 16q-205 0 -205 -225v-123h336v-55h-336v-1016zM954 1319q0 -34 -21.5 -56t-55.5 -22t-56 22t-22 56q0 32 22 53t56 21t55.5 -21t21.5 -53zM911 0h-69v1071h69v-1071z" />
    <glyph glyph-name="fl" unicode="fl" horiz-adv-x="1081" 
d="M330 0h-70v1016h-270v55h270v119q0 141 71.5 217t198.5 76q52 0 105 -17v-63q-40 16 -100 16q-205 0 -205 -225v-123h336v-55h-336v-1016zM911 0h-69v1470h69v-1470z" />
    <glyph glyph-name=".notdef" horiz-adv-x="1515" 
 />
    <glyph glyph-name=".null" horiz-adv-x="0" 
 />
    <glyph glyph-name=".null" horiz-adv-x="0" 
 />
    <glyph glyph-name="nonmarkingreturn" horiz-adv-x="682" 
 />
    <glyph glyph-name="CR" unicode="&#xd;" horiz-adv-x="573" 
 />
    <glyph glyph-name="space" unicode=" " horiz-adv-x="428" 
 />
    <glyph glyph-name="exclam" unicode="!" horiz-adv-x="481" 
d="M266 330h-53l-8 1140h69zM338 86q0 -41 -28.5 -68.5t-69.5 -27.5q-40 0 -68.5 27.5t-28.5 68.5q0 42 28.5 70t68.5 28q42 0 70 -28t28 -70z" />
    <glyph glyph-name="quotedbl" unicode="&#x22;" horiz-adv-x="745" 
d="M287 1171h-51l-9 299h70zM508 1171h-51l-8 299h69z" />
    <glyph glyph-name="numbersign" unicode="#" horiz-adv-x="1351" 
d="M311 0h-61l141 461h-248v55h265l98 322h-281v55h299l150 491h61l-149 -491h305l149 491h62l-150 -491h256v-55h-274l-98 -322h290v-55h-307l-141 -461h-62l142 461h-305zM567 838l-98 -322h305l98 322h-305z" />
    <glyph glyph-name="dollar" unicode="$" horiz-adv-x="1198" 
d="M627 -182h-62v162q-201 10 -315.5 125t-120.5 298h74q14 -170 113.5 -265t285.5 -95q162 0 270.5 84t108.5 225q0 127 -70.5 190.5t-242.5 100.5l-140 31q-58 13 -102 27t-95.5 42t-84.5 63.5t-55.5 92t-22.5 127.5q0 152 111 259.5t286 117.5v168h62v-168
q171 -11 287 -124t126 -292h-73q-9 154 -111 253t-258 99q-166 0 -261 -91.5t-95 -219.5q0 -58 18.5 -103.5t46.5 -74.5t73 -52t87 -35.5t100 -25.5l142 -30q63 -14 110.5 -30.5t94 -44t76 -63t47.5 -89t18 -120.5q0 -153 -113.5 -263t-314.5 -117v-162z" />
    <glyph glyph-name="percent" unicode="%" horiz-adv-x="2099" 
d="M483 537q-178 0 -287.5 123t-109.5 307q0 183 109.5 306.5t287.5 123.5t288 -123.5t110 -306.5q0 -184 -110 -307t-288 -123zM692 0h-65l774 1384h67zM483 592q140 0 235 101.5t95 273.5q0 174 -94.5 274t-235.5 100t-235 -100t-94 -274q0 -172 94.5 -273.5t234.5 -101.5
zM1616 -16q-178 0 -287.5 123t-109.5 307q0 183 109.5 306.5t287.5 123.5t287.5 -123.5t109.5 -306.5q0 -184 -109.5 -307t-287.5 -123zM1616 39q140 0 235 101.5t95 273.5q0 174 -94.5 274t-235.5 100t-235.5 -100t-94.5 -274q0 -172 95 -273.5t235 -101.5z" />
    <glyph glyph-name="ampersand" unicode="&#x26;" horiz-adv-x="1163" 
d="M483 762l428 -524q84 133 99 370h65q-15 -267 -125 -418l156 -190h-88l-113 137q-74 -79 -174.5 -119.5t-204.5 -40.5q-206 0 -329 114t-123 306q0 138 87.5 236.5t225.5 144.5q-78 99 -108.5 163.5t-30.5 152.5q0 131 98 221t238 90q145 0 244.5 -88.5t105.5 -224.5h-66
q-9 118 -93 188t-191 70q-113 0 -191 -74t-78 -182q0 -86 36 -150.5t132 -181.5zM141 399q0 -64 23 -126.5t68 -116.5t122 -87.5t174 -33.5t188 39t154 108l-450 553q-121 -34 -200 -123.5t-79 -212.5z" />
    <glyph glyph-name="quotesingle" unicode="'" horiz-adv-x="524" 
d="M287 1171h-51l-9 299h70z" />
    <glyph glyph-name="parenleft" unicode="(" horiz-adv-x="606" 
d="M528 -395h-59q-125 191 -192.5 434.5t-67.5 499.5q0 255 67.5 497.5t192.5 433.5h59q-125 -188 -189.5 -430t-64.5 -501q0 -260 64.5 -503t189.5 -431z" />
    <glyph glyph-name="parenright" unicode=")" horiz-adv-x="606" 
d="M137 -395h-59q125 188 189.5 431t64.5 503q0 259 -64.5 501t-189.5 430h59q125 -191 192.5 -433.5t67.5 -497.5q0 -256 -67.5 -499.5t-192.5 -434.5z" />
    <glyph glyph-name="asterisk" unicode="*" 
d="M512 1010l-246 -297l-41 39l242 295l-367 104l19 53l364 -104v370h58v-370l364 104l19 -53l-367 -104l242 -295l-41 -39z" />
    <glyph glyph-name="plus" unicode="+" horiz-adv-x="1351" 
d="M707 170h-62v483h-481v56h481v481h62v-481h481v-56h-481v-483z" />
    <glyph glyph-name="comma" unicode="," horiz-adv-x="524" 
d="M358 45q0 -88 -61 -162t-174 -80v54q74 7 121.5 55.5t50.5 112.5q-22 -11 -49 -11q-38 0 -63 24t-25 60q0 39 26 62.5t64 23.5q56 0 83 -39t27 -100z" />
    <glyph glyph-name="hyphen" unicode="-" horiz-adv-x="741" 
d="M700 537h-659v61h659v-61z" />
    <glyph glyph-name="period" unicode="." horiz-adv-x="524" 
d="M358 86q0 -41 -27.5 -68.5t-68.5 -27.5t-68.5 27.5t-27.5 68.5q0 43 27.5 70.5t68.5 27.5t68.5 -27.5t27.5 -70.5z" />
    <glyph glyph-name="slash" unicode="/" horiz-adv-x="966" 
d="M61 -395h-67l911 1865h68z" />
    <glyph glyph-name="zero" unicode="0" horiz-adv-x="1157" 
d="M111 690q0 345 120.5 530t346.5 185t347.5 -185.5t121.5 -529.5q0 -346 -120 -528t-349 -182q-228 0 -347.5 182t-119.5 528zM182 690q0 -318 100.5 -483.5t295.5 -165.5t296 164.5t101 484.5q0 322 -101 487.5t-296 165.5q-193 0 -294.5 -165.5t-101.5 -487.5z" />
    <glyph glyph-name="one" unicode="1" horiz-adv-x="571" 
d="M381 0h-68v1325h-278v59h346v-1384z" />
    <glyph glyph-name="two" unicode="2" horiz-adv-x="995" 
d="M887 59v-59h-766v39l452 536q131 154 181.5 253t50.5 202q0 134 -91 223.5t-227 89.5q-141 0 -232 -90.5t-91 -232.5h-70q0 167 110.5 276t282.5 109q169 0 279.5 -105.5t110.5 -267.5q0 -107 -54 -211.5t-202 -279.5l-404 -482h670z" />
    <glyph glyph-name="three" unicode="3" horiz-adv-x="1165" 
d="M582 -18q-196 0 -318 106t-127 281h66q6 -148 109.5 -237t269.5 -89q167 0 265.5 88.5t98.5 237.5q0 141 -107 228t-282 87h-131v61h131q140 0 232 87.5t92 220.5q0 127 -87.5 208.5t-222.5 81.5q-139 0 -227.5 -80.5t-97.5 -215.5h-66q8 155 118 256.5t273 101.5
q167 0 274 -98.5t107 -253.5q0 -114 -66.5 -202t-187.5 -132q151 -34 235.5 -126t84.5 -224q0 -172 -120.5 -279.5t-315.5 -107.5z" />
    <glyph glyph-name="four" unicode="4" horiz-adv-x="1112" 
d="M1006 360h-181v-360h-69v360h-680v35l712 989h37v-964h181v-60zM166 420h590v821z" />
    <glyph glyph-name="five" unicode="5" horiz-adv-x="1077" 
d="M526 -20q-174 0 -291.5 109.5t-123.5 277.5h65q7 -147 104 -236.5t246 -89.5q176 0 279.5 102t103.5 279q0 156 -106 259t-266 103q-210 0 -338 -176l-47 8l120 768h631v-59h-581l-95 -612q133 133 314 133q192 0 315 -120t123 -302q0 -201 -125.5 -322.5t-327.5 -121.5z
" />
    <glyph glyph-name="six" unicode="6" horiz-adv-x="1081" 
d="M541 -20q-194 0 -324.5 129t-130.5 321q0 65 13 121t44.5 112t53.5 87.5t71 95.5l418 538h80l-424 -548q110 43 213 43q188 0 314 -124.5t126 -328.5q0 -190 -130 -318t-324 -128zM541 37q167 0 276 113t109 276q0 174 -108.5 286.5t-276.5 112.5q-173 0 -279 -105
t-106 -290q0 -166 109 -279.5t276 -113.5z" />
    <glyph glyph-name="seven" unicode="7" horiz-adv-x="966" 
d="M907 1346l-573 -1346h-76l571 1323h-790v61h868v-38z" />
    <glyph glyph-name="eight" unicode="8" horiz-adv-x="1216" 
d="M1069 369q0 -176 -128.5 -281.5t-332.5 -105.5t-332.5 105.5t-128.5 281.5q0 138 86 229.5t220 122.5q-103 33 -172.5 122.5t-69.5 203.5q0 160 115 259t282 99t281.5 -99t114.5 -259q0 -113 -68.5 -202.5t-169.5 -123.5q133 -31 218 -122.5t85 -229.5zM283 1047
q0 -138 90.5 -218.5t234.5 -80.5t235 80.5t91 218.5q0 136 -91 216t-235 80t-234.5 -80t-90.5 -216zM219 369q0 -150 109.5 -238t279.5 -88t279.5 88t109.5 238q0 151 -108.5 234t-280.5 83t-280.5 -83t-108.5 -234z" />
    <glyph glyph-name="nine" unicode="9" horiz-adv-x="1081" 
d="M541 1405q194 0 324 -129t130 -322q0 -62 -12 -114.5t-40.5 -106t-55.5 -92t-76 -102.5l-416 -539h-82l426 551q-103 -43 -215 -43q-187 0 -312.5 123.5t-125.5 326.5q0 190 130.5 318.5t324.5 128.5zM541 1348q-168 0 -276.5 -113t-108.5 -277q0 -174 107.5 -286.5
t277.5 -112.5q171 0 278 105t107 290q0 166 -109.5 280t-275.5 114z" />
    <glyph glyph-name="colon" unicode=":" horiz-adv-x="524" 
d="M358 977q0 -41 -27.5 -68.5t-68.5 -27.5t-68.5 27.5t-27.5 68.5q0 43 27.5 70.5t68.5 27.5t68.5 -27.5t27.5 -70.5zM358 86q0 -41 -27.5 -68.5t-68.5 -27.5t-68.5 27.5t-27.5 68.5q0 43 27.5 70.5t68.5 27.5t68.5 -27.5t27.5 -70.5z" />
    <glyph glyph-name="semicolon" unicode=";" horiz-adv-x="524" 
d="M348 977q0 -41 -27.5 -68.5t-68.5 -27.5t-68.5 27.5t-27.5 68.5q0 43 27.5 70.5t68.5 27.5t68.5 -27.5t27.5 -70.5zM358 45q0 -88 -61 -162t-174 -80v54q74 7 121.5 55.5t50.5 112.5q-22 -11 -49 -11q-38 0 -63 24t-25 60q0 39 26 62.5t64 23.5q56 0 83 -39t27 -100z" />
    <glyph glyph-name="less" unicode="&#x3c;" horiz-adv-x="1351" 
d="M164 709l1024 469v-62l-948 -434l948 -436v-62l-1024 469v56z" />
    <glyph glyph-name="equal" unicode="=" horiz-adv-x="1351" 
d="M1188 840h-1024v55h1024v-55zM1188 467h-1024v55h1024v-55z" />
    <glyph glyph-name="greater" unicode="&#x3e;" horiz-adv-x="1351" 
d="M1188 653l-1024 -469v62l948 436l-948 434v62l1024 -469v-56z" />
    <glyph glyph-name="question" unicode="?" horiz-adv-x="819" 
d="M106 1149h-69q3 150 106.5 246t262.5 96q171 0 273.5 -96.5t102.5 -241.5q0 -99 -44.5 -172.5t-135.5 -155.5l-82 -73q-59 -52 -86.5 -96.5t-39.5 -120t-7 -205.5h-57q-13 188 11 274t112 168l96 90q87 82 125.5 142t38.5 141q0 120 -84 201t-223 81q-131 0 -215.5 -77.5
t-84.5 -200.5zM471 86q0 -41 -28.5 -68.5t-69.5 -27.5q-40 0 -68.5 27.5t-28.5 68.5q0 42 28.5 70t68.5 28q42 0 70 -28t28 -70z" />
    <glyph glyph-name="at" unicode="@" horiz-adv-x="1927" 
d="M1458 -219v-64q-212 -133 -506 -133q-179 0 -339 71t-274.5 192.5t-181.5 290t-67 356.5q0 189 68.5 358t186 290t281 192t347.5 71q246 0 444 -108.5t309 -299t111 -426.5q0 -233 -106.5 -373.5t-276.5 -140.5q-106 0 -169 51.5t-75 149.5q-55 -98 -142 -149.5
t-196 -51.5q-155 0 -253.5 113t-98.5 287q0 200 118.5 331.5t297.5 131.5q127 0 213.5 -67t120.5 -189l45 227h67l-96 -475q-12 -61 -12 -111q0 -190 182 -190q141 0 226 121.5t85 330.5q0 163 -59.5 307.5t-164 248.5t-252.5 164.5t-318 60.5q-172 0 -323 -65.5
t-258.5 -179t-169.5 -272t-62 -337.5q0 -178 61 -336t165.5 -271t252 -179t313.5 -66q307 0 506 139zM590 461q0 -156 78.5 -251t208.5 -95q153 0 255.5 117.5t102.5 293.5q0 157 -79 246.5t-220 89.5q-151 0 -248.5 -113t-97.5 -288z" />
    <glyph glyph-name="A" unicode="A" horiz-adv-x="1378" 
d="M1237 0l-178 455h-744l-178 -455h-67l581 1470h78l580 -1470h-72zM688 1399l-348 -883h694z" />
    <glyph glyph-name="B" unicode="B" horiz-adv-x="1253" 
d="M1106 401q0 -190 -126 -295.5t-333 -105.5h-473v1470h436q204 0 316 -97t112 -275q0 -115 -69.5 -206.5t-188.5 -127.5q158 -32 242 -128t84 -235zM610 1409h-364v-621h364q168 0 262.5 82.5t94.5 227.5q0 146 -94 228.5t-263 82.5zM647 727h-401v-666h401q181 0 284 89
t103 251q0 154 -103 240t-284 86z" />
    <glyph glyph-name="C" unicode="C" horiz-adv-x="1562" 
d="M799 -31q-200 0 -362.5 101t-254.5 277t-92 390q0 213 92 388t254.5 275.5t362.5 100.5q251 0 440 -155t234 -406h-74q-40 218 -207.5 358t-392.5 140q-180 0 -325.5 -91.5t-227.5 -252t-82 -357.5q0 -199 82 -360t227.5 -252.5t325.5 -91.5q228 0 395.5 140.5
t204.5 358.5h74q-44 -250 -233.5 -406.5t-440.5 -156.5z" />
    <glyph glyph-name="D" unicode="D" horiz-adv-x="1349" 
d="M537 0h-363v1470h363q232 0 396.5 -93.5t245.5 -256.5t81 -381q0 -213 -83 -378.5t-248.5 -263t-391.5 -97.5zM246 1409v-1348h293q204 0 352 87.5t222.5 239.5t74.5 351q0 306 -169.5 488t-479.5 182h-293z" />
    <glyph glyph-name="E" unicode="E" horiz-adv-x="1134" 
d="M1001 61v-61h-827v1470h813v-61h-741v-618h680v-62h-680v-668h755z" />
    <glyph glyph-name="F" unicode="F" 
d="M246 0h-72v1470h789v-61h-717v-680h620v-61h-620v-668z" />
    <glyph glyph-name="G" unicode="G" horiz-adv-x="1634" 
d="M827 -31q-207 0 -376 99.5t-265 274.5t-96 390q0 214 92.5 389.5t259.5 277t375 101.5q141 0 263 -42.5t209 -117t146.5 -169t88.5 -203.5h-74q-28 100 -81.5 184t-131.5 148.5t-186 100.5t-236 36q-191 0 -340 -93t-230 -253t-81 -359t84.5 -359t235.5 -250.5t341 -90.5
q277 0 448.5 164t199.5 448h-656v62h727q-12 -342 -207 -540t-510 -198z" />
    <glyph glyph-name="H" unicode="H" horiz-adv-x="1429" 
d="M246 0h-72v1470h72v-679h938v679h71v-1470h-71v729h-938v-729z" />
    <glyph glyph-name="I" unicode="I" horiz-adv-x="419" 
d="M246 0h-72v1470h72v-1470z" />
    <glyph glyph-name="J" unicode="J" horiz-adv-x="1126" 
d="M963 1470v-1005q0 -245 -125.5 -370.5t-333.5 -125.5q-192 0 -317 113.5t-138 312.5h72q12 -172 119.5 -267t263.5 -95q81 0 149.5 24t122.5 73t84.5 131t30.5 190v1019h72z" />
    <glyph glyph-name="K" unicode="K" horiz-adv-x="1193" 
d="M246 0h-72v1470h72v-739l778 739h88l-786 -749l807 -721h-103l-784 700v-700z" />
    <glyph glyph-name="L" unicode="L" horiz-adv-x="1017" 
d="M956 0h-782v1470h72v-1409h710v-61z" />
    <glyph glyph-name="M" unicode="M" horiz-adv-x="1779" 
d="M854 0l-610 1389v-1389h-70v1470h107l608 -1382l612 1382h105v-1470h-70v1384l-612 -1384h-70z" />
    <glyph glyph-name="N" unicode="N" horiz-adv-x="1460" 
d="M1198 0l-954 1370v-1370h-70v1470h84l959 -1374v1374h69v-1470h-88z" />
    <glyph glyph-name="O" unicode="O" horiz-adv-x="1652" 
d="M827 -31q-157 0 -295 61t-234.5 164.5t-152 244.5t-55.5 298q0 156 55.5 297t152 243.5t234.5 163t295 60.5t294.5 -60.5t234 -163t152 -243.5t55.5 -297t-55.5 -297.5t-152 -245t-234.5 -164.5t-294 -61zM827 33q190 0 342 93.5t236 254t84 356.5t-84 356t-236 252.5
t-342 92.5q-143 0 -266.5 -54.5t-210.5 -148t-136.5 -223t-49.5 -275.5q0 -196 84 -356.5t236.5 -254t342.5 -93.5z" />
    <glyph glyph-name="P" unicode="P" horiz-adv-x="1175" 
d="M625 573h-379v-573h-72v1470h451q210 0 341.5 -119.5t131.5 -328.5q0 -211 -131 -330t-342 -119zM623 1409h-377v-774h377q186 0 294.5 101t108.5 286q0 184 -108.5 285.5t-294.5 101.5z" />
    <glyph glyph-name="Q" unicode="Q" horiz-adv-x="1652" 
d="M827 -31q-157 0 -295 61t-234.5 164.5t-152 244.5t-55.5 298q0 156 55.5 297t152 243.5t234.5 163t295 60.5t294.5 -60.5t234 -163t152 -243.5t55.5 -297q0 -231 -114.5 -419t-307.5 -279l252 -412h-84l-236 383q-115 -41 -246 -41zM827 33q190 0 342 93.5t236 254
t84 356.5t-84 356t-236 252.5t-342 92.5q-143 0 -266.5 -54.5t-210.5 -148t-136.5 -223t-49.5 -275.5q0 -196 84 -356.5t236.5 -254t342.5 -93.5z" />
    <glyph glyph-name="R" unicode="R" horiz-adv-x="1253" 
d="M246 0h-72v1470h498q213 0 338 -113t125 -315q0 -175 -108.5 -291t-291.5 -133l434 -618h-86l-428 614h-409v-614zM246 1409v-733h413q186 0 295 96t109 270t-109 270.5t-295 96.5h-413z" />
    <glyph glyph-name="S" unicode="S" horiz-adv-x="1296" 
d="M1153 381q0 -79 -32.5 -151t-94 -128t-158.5 -89t-217 -33q-240 0 -377 123t-145 325h74q14 -181 126.5 -283t321.5 -102q184 0 306 90.5t122 241.5q0 135 -78 203t-270 108l-158 33q-63 13 -112 28t-106 44t-94.5 67t-63 98.5t-25.5 135.5q0 168 133.5 283.5
t341.5 115.5q132 0 240.5 -53.5t175.5 -154.5t74 -232h-76q-9 165 -122.5 270.5t-291.5 105.5q-187 0 -294 -98.5t-107 -234.5q0 -62 21 -110.5t52 -79.5t83 -56t98.5 -38.5t113.5 -27.5l154 -32q194 -41 289.5 -124.5t95.5 -244.5z" />
    <glyph glyph-name="T" unicode="T" horiz-adv-x="1175" 
d="M623 0h-70v1409h-508v61h1085v-61h-507v-1409z" />
    <glyph glyph-name="U" unicode="U" horiz-adv-x="1343" 
d="M1174 1470v-995q0 -237 -138.5 -371.5t-363.5 -134.5t-363.5 134.5t-138.5 371.5v995h72v-1003q0 -197 123 -315.5t307 -118.5q185 0 308.5 118.5t123.5 315.5v1003h70z" />
    <glyph glyph-name="V" unicode="V" horiz-adv-x="1316" 
d="M1257 1470l-559 -1470h-80l-559 1470h70l528 -1392l531 1392h69z" />
    <glyph glyph-name="W" unicode="W" horiz-adv-x="1847" 
d="M1305 0l-381 1382l-383 -1382h-78l-393 1470h69l361 -1378l383 1378h82l381 -1380l362 1380h70l-392 -1470h-81z" />
    <glyph glyph-name="X" unicode="X" horiz-adv-x="1230" 
d="M158 0h-76l498 756l-465 714h78l428 -657l430 657h75l-469 -714l492 -756h-78l-455 700z" />
    <glyph glyph-name="Y" unicode="Y" horiz-adv-x="1208" 
d="M639 551v-551h-72v551l-542 919h79l500 -849l502 849h78z" />
    <glyph glyph-name="Z" unicode="Z" horiz-adv-x="1183" 
d="M1110 0h-1036v41l909 1368h-868v61h960v-40l-909 -1369h944v-61z" />
    <glyph glyph-name="bracketleft" unicode="[" horiz-adv-x="606" 
d="M508 -395h-277v1865h277v-55h-213v-1755h213v-55z" />
    <glyph glyph-name="backslash" unicode="\" horiz-adv-x="966" 
d="M973 -395h-68l-911 1865h67z" />
    <glyph glyph-name="bracketright" unicode="]" horiz-adv-x="606" 
d="M375 -395h-277v55h213v1755h-213v55h277v-1865z" />
    <glyph glyph-name="asciicircum" unicode="^" horiz-adv-x="1351" 
d="M1071 561l-395 758l-395 -758h-64l430 823h60l428 -823h-64z" />
    <glyph glyph-name="underscore" unicode="_" 
d="M1024 -395h-1024v55h1024v-55z" />
    <glyph glyph-name="grave" unicode="`" 
d="M662 1217h-91l-209 253h91z" />
    <glyph glyph-name="a" unicode="a" horiz-adv-x="1067" 
d="M840 0v227q-43 -114 -145 -180.5t-234 -66.5q-166 0 -264.5 84t-98.5 225q0 317 496 317q92 0 244 -12v104q0 158 -79 247t-220 89q-152 0 -242 -90t-90 -244h-66q0 177 108.5 284.5t287.5 107.5q175 0 272.5 -100.5t97.5 -280.5v-711h-67zM168 291q0 -114 80.5 -184
t212.5 -70q172 0 274.5 108.5t102.5 290.5v105q-133 10 -242 10q-218 0 -323 -64t-105 -196z" />
    <glyph glyph-name="b" unicode="b" horiz-adv-x="1191" 
d="M1106 537q0 -254 -127 -405.5t-342 -151.5q-134 0 -240.5 74.5t-158.5 207.5v-262h-68v1470h70v-669q49 137 155 214t242 77q214 0 341.5 -151.5t127.5 -403.5zM1036 537q0 231 -107.5 364t-293.5 133q-179 0 -289 -132.5t-110 -360.5q0 -227 109.5 -365.5t289.5 -138.5
q186 0 293.5 133.5t107.5 366.5z" />
    <glyph glyph-name="c" unicode="c" horiz-adv-x="1077" 
d="M545 -23q-203 0 -331 156.5t-128 403.5q0 246 128 400.5t331 154.5q175 0 293 -109t153 -303h-67q-31 167 -131 260.5t-248 93.5q-172 0 -280.5 -138.5t-108.5 -358.5q0 -221 108.5 -361.5t280.5 -140.5q149 0 249.5 93.5t131.5 262.5h65q-32 -193 -151.5 -303.5
t-294.5 -110.5z" />
    <glyph glyph-name="d" unicode="d" horiz-adv-x="1191" 
d="M86 537q0 253 127 404t342 151q134 0 240 -77t157 -212v667h70v-1470h-68v262q-52 -133 -158 -207.5t-241 -74.5q-216 0 -342.5 151.5t-126.5 405.5zM156 537q0 -233 106.5 -366.5t292.5 -133.5q182 0 291.5 138t109.5 366t-110 360.5t-291 132.5q-186 0 -292.5 -132.5
t-106.5 -364.5z" />
    <glyph glyph-name="e" unicode="e" horiz-adv-x="1112" 
d="M567 -23q-217 0 -349 156.5t-132 413.5q0 233 134.5 389t336.5 156q215 0 343 -157.5t120 -414.5h-866q8 -222 118.5 -353.5t294.5 -131.5q156 0 259.5 86t131.5 239h68q-31 -175 -155 -279t-304 -104zM557 1034q-169 0 -281.5 -127t-121.5 -329h794q-10 215 -114 335.5
t-277 120.5z" />
    <glyph glyph-name="f" unicode="f" horiz-adv-x="671" 
d="M330 0h-70v1016h-270v55h270v119q0 141 71.5 217t198.5 76q52 0 105 -17v-63q-40 16 -100 16q-205 0 -205 -225v-123h336v-55h-336v-1016z" />
    <glyph glyph-name="g" unicode="g" horiz-adv-x="1155" 
d="M549 -418q-198 0 -312.5 97t-123.5 274h65q10 -152 105.5 -232.5t263.5 -80.5q181 0 274.5 94t93.5 274v260q-51 -132 -150.5 -205t-229.5 -73q-206 0 -327.5 150t-121.5 403q0 250 122.5 399.5t326.5 149.5q129 0 231 -78t152 -213v270h67v-1061q0 -204 -113.5 -316
t-322.5 -112zM156 543q0 -232 101 -363t280 -131q172 0 277.5 131.5t105.5 347.5q0 232 -104 369t-279 137q-177 0 -279 -131t-102 -360z" />
    <glyph glyph-name="h" unicode="h" horiz-adv-x="1132" 
d="M240 645v-645h-70v1470h70v-626q48 111 146.5 179.5t217.5 68.5q172 0 270.5 -104.5t98.5 -291.5v-696h-70v672q0 174 -80.5 268t-230.5 94q-146 0 -249 -114t-103 -275z" />
    <glyph glyph-name="i" unicode="i" horiz-adv-x="409" 
d="M283 1319q0 -34 -22 -56t-56 -22t-56 22t-22 56q0 32 22 53t56 21t56 -21t22 -53zM240 0h-70v1071h70v-1071z" />
    <glyph glyph-name="j" unicode="j" horiz-adv-x="409" 
d="M285 1319q0 -34 -22 -56t-56 -22t-56 22t-22 56q0 32 22 53t56 21t56 -21t22 -53zM240 1071v-1229q0 -122 -68.5 -190t-191.5 -68q-73 0 -123 21v61q55 -18 118 -18q93 0 144 48.5t51 145.5v1229h70z" />
    <glyph glyph-name="k" unicode="k" horiz-adv-x="952" 
d="M240 0h-70v1470h70v-921l583 522h88l-592 -530l633 -541h-96l-616 524v-524z" />
    <glyph glyph-name="l" unicode="l" horiz-adv-x="409" 
d="M240 0h-70v1470h70v-1470z" />
    <glyph glyph-name="m" unicode="m" horiz-adv-x="1847" 
d="M240 0h-70v1071h68v-225q51 114 148.5 180t215.5 66q133 0 225 -74t121 -205q43 126 146.5 202.5t232.5 76.5q169 0 265 -105t96 -291v-696h-68v672q0 175 -80 268.5t-229 93.5q-145 0 -245.5 -113t-100.5 -276v-645h-70v672q0 175 -79.5 268.5t-229.5 93.5
q-145 0 -245.5 -113t-100.5 -276v-645z" />
    <glyph glyph-name="n" unicode="n" horiz-adv-x="1132" 
d="M240 645v-645h-70v1071h68v-227q48 111 147 179.5t219 68.5q172 0 270.5 -104.5t98.5 -291.5v-696h-70v672q0 174 -80.5 268t-230.5 94q-146 0 -249 -114t-103 -275z" />
    <glyph glyph-name="o" unicode="o" horiz-adv-x="1155" 
d="M578 -20q-217 0 -354.5 155t-137.5 402q0 244 137.5 398.5t354.5 154.5t354 -154.5t137 -398.5q0 -247 -137 -402t-354 -155zM578 37q186 0 303.5 138t117.5 362q0 221 -117.5 358t-303.5 137t-304 -137t-118 -358q0 -224 118 -362t304 -138z" />
    <glyph glyph-name="p" unicode="p" horiz-adv-x="1191" 
d="M1106 537q0 -254 -127 -405.5t-340 -151.5q-134 0 -240.5 74.5t-158.5 207.5v-657h-70v1466h68v-270q51 136 159 213.5t242 77.5q212 0 339.5 -151.5t127.5 -403.5zM1036 537q0 231 -107 364t-292 133q-178 0 -289.5 -133.5t-111.5 -361.5q0 -226 110.5 -364t290.5 -138
q185 0 292 133.5t107 366.5z" />
    <glyph glyph-name="q" unicode="q" horiz-adv-x="1191" 
d="M86 537q0 253 127 404t342 151q137 0 243.5 -79t155.5 -218v276h68v-1466h-70v657q-52 -133 -157.5 -207.5t-239.5 -74.5q-216 0 -342.5 151.5t-126.5 405.5zM156 537q0 -233 106.5 -366.5t292.5 -133.5q182 0 291.5 137.5t109.5 364.5q0 229 -110 362t-291 133
q-186 0 -292.5 -132.5t-106.5 -364.5z" />
    <glyph glyph-name="r" unicode="r" horiz-adv-x="661" 
d="M240 602v-602h-70v1071h68v-264q53 129 162 207t241 78v-74q-166 0 -283.5 -121t-117.5 -295z" />
    <glyph glyph-name="s" unicode="s" horiz-adv-x="1026" 
d="M918 274q0 -136 -106.5 -215t-291.5 -79q-183 0 -296 90.5t-126 248.5h66q10 -132 105.5 -207t250.5 -75q157 0 242.5 60t85.5 169q0 95 -59 146t-205 80l-135 26q-312 61 -312 287q0 126 103 206.5t266 80.5q175 0 282 -88t117 -242h-65q-12 129 -100 200.5t-234 71.5
q-134 0 -216.5 -62t-82.5 -163q0 -95 61.5 -148t204.5 -81l137 -27q161 -31 234.5 -97.5t73.5 -181.5z" />
    <glyph glyph-name="t" unicode="t" horiz-adv-x="739" 
d="M659 63v-63q-59 -20 -120 -20q-62 0 -111.5 15.5t-91 48.5t-64 93t-22.5 142v737h-270v55h270v318h69v-318h353v-55h-353v-725q0 -248 224 -248q60 0 116 20z" />
    <glyph glyph-name="u" unicode="u" horiz-adv-x="1112" 
d="M872 422v649h70v-1071h-68v221q-41 -107 -138 -174t-220 -67q-169 0 -262.5 96.5t-93.5 290.5v704h69v-686q0 -181 80 -264.5t217 -83.5q154 0 250 110.5t96 274.5z" />
    <glyph glyph-name="v" unicode="v" horiz-adv-x="937" 
d="M922 1071l-422 -1071h-66l-418 1071h74l379 -985l379 985h74z" />
    <glyph glyph-name="w" unicode="w" horiz-adv-x="1499" 
d="M1071 0l-321 981l-322 -981h-74l-317 1071h72l282 -973l324 973h67l324 -975l283 975h73l-319 -1071h-72z" />
    <glyph glyph-name="x" unicode="x" horiz-adv-x="944" 
d="M100 0h-80l412 551l-387 520h80l348 -467l348 467h80l-385 -520l408 -551h-80l-373 500z" />
    <glyph glyph-name="y" unicode="y" horiz-adv-x="937" 
d="M922 1071l-564 -1466h-71l157 409l-428 1057h74l389 -967l369 967h74z" />
    <glyph glyph-name="z" unicode="z" horiz-adv-x="925" 
d="M877 0h-828v39l715 975h-682v57h766v-45l-709 -969h738v-57z" />
    <glyph glyph-name="braceleft" unicode="{" horiz-adv-x="604" 
d="M57 508v57q122 0 168.5 41t46.5 137v510q0 97 65 159.5t161 62.5q33 0 49 -2v-58q-12 2 -37 2q-80 0 -127 -47.5t-47 -130.5v-483q0 -175 -135 -219q135 -36 135 -220v-481q0 -83 47 -130.5t127 -47.5q25 0 37 2v-55q-16 -4 -47 -4q-96 0 -162 62.5t-66 158.5v510
q0 95 -47 135.5t-168 40.5z" />
    <glyph glyph-name="bar" unicode="|" horiz-adv-x="489" 
d="M276 -395h-63v1865h63v-1865z" />
    <glyph glyph-name="braceright" unicode="}" horiz-adv-x="604" 
d="M547 567v-57q-122 0 -168.5 -41t-46.5 -137v-510q0 -97 -65 -159t-161 -62q-33 0 -49 2v57q12 -2 37 -2q80 0 127 47.5t47 130.5v483q0 176 135 220q-135 36 -135 219v481q0 83 -47 130.5t-127 47.5q-25 0 -37 -2v55q20 5 47 5q96 0 162 -63t66 -159v-510
q0 -95 47 -135.5t168 -40.5z" />
    <glyph glyph-name="asciitilde" unicode="~" horiz-adv-x="1351" 
d="M938 559q-57 0 -134 34.5t-140.5 76t-135.5 76t-120 34.5q-85 0 -129 -48.5t-50 -160.5h-61q1 128 66 199.5t178 71.5q62 0 140 -34.5t139.5 -76t132 -76t120.5 -34.5q174 0 174 208h64q2 -132 -60.5 -201t-183.5 -69z" />
    <glyph glyph-name="nbspace" unicode="&#xa0;" horiz-adv-x="428" 
 />
    <glyph glyph-name="exclamdown" unicode="&#xa1;" horiz-adv-x="477" 
d="M336 989q0 -42 -28 -70t-68 -28q-42 0 -70.5 28t-28.5 70q0 41 28.5 68.5t70.5 27.5q40 0 68 -27.5t28 -68.5zM274 -395h-69l8 1140h53z" />
    <glyph glyph-name="cent" unicode="&#xa2;" horiz-adv-x="1118" 
d="M604 -184h-61v161q-204 9 -330.5 165.5t-126.5 394.5q0 236 126.5 391t330.5 164v163h61v-165q172 -12 283.5 -123.5t144.5 -286.5h-67q-31 158 -132.5 255t-267.5 97q-182 0 -296.5 -138.5t-114.5 -356.5q0 -220 114.5 -360t296.5 -140q168 0 266.5 96.5t133.5 257.5h67
q-30 -174 -142 -286.5t-286 -124.5v-164z" />
    <glyph glyph-name="sterling" unicode="&#xa3;" horiz-adv-x="1069" 
d="M268 209q-75 0 -114 -48.5t-43 -160.5h-62q1 124 56.5 194.5t152.5 75.5v383h-182v56h182v284q0 189 95.5 300.5t252.5 111.5t257 -93t110 -265h-68q-7 145 -88.5 223t-210.5 78q-133 0 -206.5 -97.5t-73.5 -277.5v-264h430v-56h-430v-389q55 -12 118.5 -48.5
t110.5 -72.5t105 -65t106 -29q154 0 154 209h63q1 -132 -56 -201t-167 -69q-48 0 -102 23t-103 55.5t-96.5 64.5t-98 55t-92.5 23z" />
    <glyph glyph-name="currency" unicode="&#xa4;" horiz-adv-x="1351" 
d="M676 262q-169 0 -283 111l-127 -129l-41 41l129 129q-94 118 -94 278q0 163 96 279l-129 129l39 39l125 -127q120 110 285 110t285 -110l124 127l39 -39l-129 -129q97 -118 97 -279q0 -159 -95 -278l129 -129l-41 -41l-127 129q-114 -111 -282 -111zM676 322
q154 0 251 99.5t97 270.5q0 174 -96.5 272.5t-251.5 98.5t-251.5 -98.5t-96.5 -272.5q0 -171 97 -270.5t251 -99.5z" />
    <glyph glyph-name="yen" unicode="&#xa5;" horiz-adv-x="1079" 
d="M985 393h-410v-393h-73v393h-408v56h408v69l-70 135h-338v56h309l-346 673h82l402 -788l403 788h78l-348 -673h311v-56h-340l-70 -135v-69h410v-56z" />
    <glyph glyph-name="brokenbar" unicode="&#xa6;" horiz-adv-x="489" 
d="M213 1470h63v-870h-63v870zM213 475h63v-870h-63v870z" />
    <glyph glyph-name="section" unicode="&#xa7;" horiz-adv-x="1126" 
d="M115 500q0 115 76 197.5t206 113.5q-112 40 -165.5 108t-53.5 171q0 140 106 227.5t269 87.5q169 0 278.5 -95.5t120.5 -240.5h-65q-14 122 -105 200.5t-229 78.5q-137 0 -221 -68t-84 -180t68.5 -171.5t222.5 -90.5l139 -29q174 -35 254 -110t80 -203
q0 -109 -75.5 -192.5t-205.5 -117.5q127 -39 183.5 -106.5t56.5 -173.5q0 -137 -116 -228.5t-290 -91.5q-188 0 -303 92.5t-139 253.5h65q21 -132 120 -210t257 -78q146 0 241 71.5t95 180.5q0 112 -68 170t-225 88l-147 28q-346 67 -346 318zM184 504q0 -71 36 -125.5
t97.5 -86.5t135.5 -47.5t157 -15.5q158 0 245 77.5t87 185.5q0 72 -36.5 126.5t-100 84.5t-137.5 44.5t-160 14.5q-156 0 -240 -74.5t-84 -183.5z" />
    <glyph glyph-name="dieresis" unicode="&#xa8;" 
d="M758 1325q0 -34 -24 -59t-60 -25t-61 25t-25 59q0 37 24.5 60.5t61.5 23.5t60.5 -23.5t23.5 -60.5zM436 1325q0 -34 -24 -59t-60 -25q-37 0 -61.5 24.5t-24.5 59.5q0 37 24 60.5t62 23.5q37 0 60.5 -23.5t23.5 -60.5z" />
    <glyph glyph-name="copyright" unicode="&#xa9;" horiz-adv-x="1611" 
d="M805 -18q-152 0 -287.5 56t-231 151.5t-151 226.5t-55.5 276q0 146 55.5 277.5t151 227.5t231 152t287.5 56q153 0 288.5 -56t231.5 -152t151.5 -227.5t55.5 -277.5q0 -145 -55.5 -276t-151.5 -226.5t-231.5 -151.5t-288.5 -56zM805 37q187 0 339 89.5t236 239t84 326.5
q0 178 -84 328.5t-236 240t-339 89.5q-140 0 -263.5 -52.5t-209.5 -142t-135.5 -210t-49.5 -253.5q0 -177 83.5 -326.5t235.5 -239t339 -89.5zM1071 600h68q-22 -126 -116 -204.5t-222 -78.5q-150 0 -250 108t-100 267q0 160 100 267.5t250 107.5q128 0 222 -78t116 -205
h-68q-17 99 -92 163.5t-176 64.5q-124 0 -204.5 -91.5t-80.5 -228.5q0 -138 80.5 -228.5t204.5 -90.5q102 0 177.5 64t90.5 163z" />
    <glyph glyph-name="ordfeminine" unicode="&#xaa;" horiz-adv-x="876" 
d="M684 522v174q-35 -88 -117 -139t-190 -51q-136 0 -217.5 68t-81.5 182q0 254 405 254q65 0 197 -9v80q0 122 -63 190t-175 68q-123 0 -192 -67t-72 -189h-65q0 141 89.5 227.5t237.5 86.5q146 0 228 -81t82 -226v-568h-66zM147 758q0 -87 65.5 -141t170.5 -54
q135 0 216 82.5t81 220.5v82q-84 8 -193 8q-172 0 -256 -48.5t-84 -149.5z" />
    <glyph glyph-name="guillemotleft" unicode="&#xab;" horiz-adv-x="821" 
d="M432 127h-70l-280 420l280 420h70l-280 -420zM739 127h-69l-281 420l281 420h69l-280 -420z" />
    <glyph glyph-name="logicalnot" unicode="&#xac;" horiz-adv-x="1351" 
d="M1167 467h-61v373h-942v57h1003v-430z" />
    <glyph glyph-name="softhyphen" unicode="&#xad;" horiz-adv-x="741" 
d="M700 537h-659v61h659v-61z" />
    <glyph glyph-name="registered" unicode="&#xae;" horiz-adv-x="1611" 
d="M805 -18q-152 0 -287.5 56t-231 151.5t-151 226.5t-55.5 276q0 146 55.5 277.5t151 227.5t231 152t287.5 56q153 0 288.5 -56t231.5 -152t151.5 -227.5t55.5 -277.5q0 -145 -55.5 -276t-151.5 -226.5t-231.5 -151.5t-288.5 -56zM805 37q187 0 339 89.5t236 239t84 326.5
q0 178 -84 328.5t-236 240t-339 89.5q-140 0 -263.5 -52.5t-209.5 -142t-135.5 -210t-49.5 -253.5q0 -177 83.5 -326.5t235.5 -239t339 -89.5zM1012 332l-197 289h-174v-289h-66v721h254q113 0 178.5 -57t65.5 -158q0 -84 -51 -141t-135 -72l203 -293h-78zM821 999h-180
v-325h180q88 0 138.5 43t50.5 121q0 76 -50.5 118.5t-138.5 42.5z" />
    <glyph glyph-name="macron" unicode="&#xaf;" 
d="M778 1247h-530v58h530v-58z" />
    <glyph glyph-name="degree" unicode="&#xb0;" horiz-adv-x="962" 
d="M479 621q-183 0 -307.5 122.5t-124.5 307.5t124.5 307.5t307.5 122.5q185 0 310.5 -122.5t125.5 -307.5t-125.5 -307.5t-310.5 -122.5zM479 676q166 0 267.5 106t101.5 269q0 164 -101.5 269t-267.5 105q-164 0 -264 -105.5t-100 -268.5q0 -162 100.5 -268.5
t263.5 -106.5z" />
    <glyph glyph-name="plusminus" unicode="&#xb1;" horiz-adv-x="1351" 
d="M707 233h-62v484h-481v55h481v481h62v-481h481v-55h-481v-484zM1188 2h-1024v55h1024v-55z" />
    <glyph glyph-name="twosuperior" unicode="&#xb2;" horiz-adv-x="655" 
d="M588 1108v-53h-512v35l291 311q79 85 115 142t36 124q0 74 -56 125t-143 51q-90 0 -146 -52t-56 -132h-60q1 106 77 172.5t188 66.5q114 0 187 -64t73 -163q0 -40 -11.5 -76.5t-40.5 -77t-51 -66.5t-69 -77l-248 -266h426z" />
    <glyph glyph-name="threesuperior" unicode="&#xb3;" horiz-adv-x="757" 
d="M668 1282q0 -105 -81 -170t-210 -65q-128 0 -209 64t-84 171h59q4 -82 69.5 -131t166.5 -49q103 0 164 48.5t61 131.5q0 81 -67.5 128.5t-176.5 47.5h-86v53h86q88 0 145.5 48.5t57.5 123.5q0 71 -53 116.5t-139 45.5q-87 0 -141 -46t-60 -120h-59q5 95 78 158.5
t184 63.5q113 0 183.5 -61t70.5 -154q0 -66 -41 -117.5t-115 -79.5q92 -22 144.5 -76.5t52.5 -130.5z" />
    <glyph glyph-name="acute" unicode="&#xb4;" 
d="M453 1217h-91l207 253h90z" />
    <glyph glyph-name="micro" unicode="&#xb5;" horiz-adv-x="1122" 
d="M242 -395h-72v1466h70v-680q0 -178 83 -266t222 -88q155 0 246.5 104t91.5 269v661h69v-1071h-67v205q-39 -102 -130 -163.5t-210 -61.5q-103 0 -184.5 40.5t-124.5 120.5z" />
    <glyph glyph-name="paragraph" unicode="&#xb6;" horiz-adv-x="1247" 
d="M684 -395h-61v884q-157 -12 -280 37t-194 156.5t-71 257.5q0 209 132 326.5t343 117.5h653v-59h-248v-1720h-61v1720h-213v-1720z" />
    <glyph glyph-name="periodcentered" unicode="&#xb7;" horiz-adv-x="524" 
d="M358 549q0 -41 -27.5 -68.5t-68.5 -27.5t-68.5 27.5t-27.5 68.5q0 43 27.5 70.5t68.5 27.5t68.5 -27.5t27.5 -70.5z" />
    <glyph glyph-name="cedilla" unicode="&#xb8;" 
d="M709 -248q0 -70 -54 -114t-133 -44q-82 0 -140.5 43t-68.5 119h62q9 -53 48.5 -81.5t98.5 -28.5q54 0 86.5 30t32.5 74q0 73 -58.5 106t-133.5 23l47 135h59l-35 -96q81 -2 135 -48.5t54 -117.5z" />
    <glyph glyph-name="onesuperior" unicode="&#xb9;" horiz-adv-x="430" 
d="M262 1055h-61v778h-178v53h239v-831z" />
    <glyph glyph-name="ordmasculine" unicode="&#xba;" horiz-adv-x="995" 
d="M498 506q-180 0 -294 124.5t-114 321.5q0 195 114 320t294 125q178 0 292.5 -125t114.5 -320q0 -196 -114 -321t-293 -125zM498 567q148 0 242 106t94 279q0 171 -94.5 277t-241.5 106t-241.5 -106t-94.5 -277q0 -172 93.5 -278.5t242.5 -106.5z" />
    <glyph glyph-name="guillemotright" unicode="&#xbb;" horiz-adv-x="821" 
d="M82 967h70l280 -420l-280 -420h-70l280 420zM389 967h70l280 -420l-280 -420h-70l281 420z" />
    <glyph glyph-name="onequarter" unicode="&#xbc;" horiz-adv-x="1267" 
d="M262 553h-61v778h-178v53h239v-831zM221 0h-65l774 1384h67zM1202 209h-117v-209h-61v209h-440v37l463 585h38v-569h117v-53zM659 262h365v459z" />
    <glyph glyph-name="onehalf" unicode="&#xbd;" horiz-adv-x="1378" 
d="M262 553h-61v778h-178v53h239v-831zM221 0h-65l774 1384h67zM1311 53v-53h-512v35l291 311q79 85 115 142t36 124q0 74 -56 125t-143 51q-90 0 -146 -52t-56 -132h-60q1 106 76.5 173t187.5 67q114 0 187.5 -64.5t73.5 -163.5q0 -40 -11.5 -76.5t-40.5 -77t-51 -66.5
t-69 -77l-248 -266h426z" />
    <glyph glyph-name="threequarters" unicode="&#xbe;" horiz-adv-x="1615" 
d="M668 780q0 -105 -81 -170t-210 -65q-128 0 -209 64t-84 171h59q4 -82 69.5 -131t166.5 -49q103 0 164 48.5t61 131.5q0 81 -67.5 128.5t-176.5 47.5h-86v54h86q88 0 145.5 48.5t57.5 123.5q0 71 -53 116t-139 45q-87 0 -141 -45.5t-60 -119.5h-59q5 95 78 158t184 63
q113 0 183.5 -61t70.5 -154q0 -66 -41 -117.5t-115 -79.5q92 -22 144.5 -76.5t52.5 -130.5zM549 0h-66l774 1384h68zM1550 209h-116v-209h-62v209h-440v37l463 585h39v-569h116v-53zM1008 262h364v459z" />
    <glyph glyph-name="questiondown" unicode="&#xbf;" horiz-adv-x="819" 
d="M348 989q0 41 28.5 68.5t69.5 27.5q40 0 68.5 -27.5t28.5 -68.5q0 -42 -28.5 -70t-68.5 -28q-42 0 -70 28t-28 70zM713 -74h69q-6 -151 -108 -246.5t-260 -95.5q-171 0 -274 96.5t-103 241.5q0 92 42 166.5t138 161.5l82 74q58 53 85 95.5t40 119t8 206.5h57
q13 -180 -8.5 -268t-113.5 -174l-97 -90q-88 -81 -126 -142.5t-38 -140.5q0 -120 85 -201t223 -81q131 0 215 77.5t84 200.5z" />
    <glyph glyph-name="Agrave" unicode="&#xc0;" horiz-adv-x="1378" 
d="M731 1616h-90l-209 254h90zM1237 0l-178 455h-744l-178 -455h-67l581 1470h78l580 -1470h-72zM688 1399l-348 -883h694z" />
    <glyph glyph-name="Aacute" unicode="&#xc1;" horiz-adv-x="1378" 
d="M735 1616h-90l207 254h90zM1237 0l-178 455h-744l-178 -455h-67l581 1470h78l580 -1470h-72zM688 1399l-348 -883h694z" />
    <glyph glyph-name="Acircumflex" unicode="&#xc2;" horiz-adv-x="1378" 
d="M481 1616h-86l264 254h58l266 -254h-86l-209 196zM1237 0l-178 455h-744l-178 -455h-67l581 1470h78l580 -1470h-72zM688 1399l-348 -883h694z" />
    <glyph glyph-name="Atilde" unicode="&#xc3;" horiz-adv-x="1378" 
d="M432 1616h-57q-4 115 40 179.5t126 64.5q37 0 70 -18t58 -43.5t48.5 -51t50.5 -43.5t55 -18q52 0 79.5 48t27.5 136h59q4 -114 -41 -179t-125 -65q-37 0 -70 18t-58 43.5t-48.5 51t-50.5 43.5t-55 18q-52 0 -80.5 -48t-28.5 -136zM1237 0l-178 455h-744l-178 -455h-67
l581 1470h78l580 -1470h-72zM688 1399l-348 -883h694z" />
    <glyph glyph-name="Adieresis" unicode="&#xc4;" horiz-adv-x="1378" 
d="M934 1724q0 -34 -24 -59t-60 -25t-61 25t-25 59q0 37 24.5 60.5t61.5 23.5t60.5 -23.5t23.5 -60.5zM612 1724q0 -34 -24 -59t-60 -25q-37 0 -61.5 24.5t-24.5 59.5q0 37 24 60.5t62 23.5q37 0 60.5 -23.5t23.5 -60.5zM1237 0l-178 455h-744l-178 -455h-67l581 1470h78
l580 -1470h-72zM688 1399l-348 -883h694z" />
    <glyph glyph-name="Aring" unicode="&#xc5;" horiz-adv-x="1378" 
d="M688 1608q-89 0 -150 58t-61 140t61 140.5t150 58.5t151 -58.5t62 -140.5t-62 -140t-151 -58zM688 1661q65 0 107.5 38.5t42.5 106.5q0 67 -42.5 105.5t-107.5 38.5q-64 0 -105.5 -38.5t-41.5 -105.5q0 -68 41.5 -106.5t105.5 -38.5zM1237 0l-178 455h-744l-178 -455h-67
l581 1470h78l580 -1470h-72zM688 1399l-348 -883h694z" />
    <glyph glyph-name="AE" unicode="&#xc6;" horiz-adv-x="1744" 
d="M889 455h-524l-265 -455h-71l854 1470h714v-61h-636v-618h575v-62h-575v-668h651v-61h-723v455zM889 516v842l-490 -842h490z" />
    <glyph glyph-name="Ccedilla" unicode="&#xc7;" horiz-adv-x="1562" 
d="M985 -248q0 -70 -54 -114t-132 -44q-82 0 -140.5 43t-68.5 119h61q9 -53 49 -81.5t99 -28.5q54 0 86.5 30t32.5 74q0 73 -59 106t-134 23l33 92q-190 10 -343 112.5t-239 274.5t-86 379q0 213 92 388t254.5 275.5t362.5 100.5q251 0 440 -155t234 -406h-74
q-40 218 -207.5 358t-392.5 140q-180 0 -325.5 -91.5t-227.5 -252t-82 -357.5q0 -199 82 -360t227.5 -252.5t325.5 -91.5q228 0 395.5 140.5t204.5 358.5h74q-44 -246 -228 -401.5t-430 -161.5l-18 -51q80 -2 134 -48.5t54 -117.5z" />
    <glyph glyph-name="Egrave" unicode="&#xc8;" horiz-adv-x="1134" 
d="M635 1616h-90l-209 254h90zM1001 61v-61h-827v1470h813v-61h-741v-618h680v-62h-680v-668h755z" />
    <glyph glyph-name="Eacute" unicode="&#xc9;" horiz-adv-x="1134" 
d="M639 1616h-90l207 254h90zM1001 61v-61h-827v1470h813v-61h-741v-618h680v-62h-680v-668h755z" />
    <glyph glyph-name="Ecircumflex" unicode="&#xca;" horiz-adv-x="1134" 
d="M385 1616h-86l264 254h58l266 -254h-86l-209 196zM1001 61v-61h-827v1470h813v-61h-741v-618h680v-62h-680v-668h755z" />
    <glyph glyph-name="Edieresis" unicode="&#xcb;" horiz-adv-x="1134" 
d="M838 1724q0 -34 -24 -59t-60 -25t-61 25t-25 59q0 37 24.5 60.5t61.5 23.5t60.5 -23.5t23.5 -60.5zM516 1724q0 -34 -24 -59t-60 -25q-37 0 -61.5 24.5t-24.5 59.5q0 37 24 60.5t62 23.5q37 0 60.5 -23.5t23.5 -60.5zM1001 61v-61h-827v1470h813v-61h-741v-618h680v-62
h-680v-668h755z" />
    <glyph glyph-name="Igrave" unicode="&#xcc;" horiz-adv-x="419" 
d="M252 1616h-90l-189 254h90zM246 0h-72v1470h72v-1470z" />
    <glyph glyph-name="Iacute" unicode="&#xcd;" horiz-adv-x="419" 
d="M256 1616h-90l186 254h90zM246 0h-72v1470h72v-1470z" />
    <glyph glyph-name="Icircumflex" unicode="&#xce;" horiz-adv-x="419" 
d="M25 1616h-86l239 254h62l239 -254h-86l-184 196zM246 0h-72v1470h72v-1470z" />
    <glyph glyph-name="Idieresis" unicode="&#xcf;" horiz-adv-x="419" 
d="M438 1724q0 -35 -22.5 -59.5t-57.5 -24.5q-34 0 -56.5 24.5t-22.5 59.5q0 37 22 60.5t57 23.5t57.5 -23.5t22.5 -60.5zM143 1724q0 -34 -23.5 -59t-56.5 -25q-35 0 -58 25t-23 59q0 37 23 60.5t58 23.5q34 0 57 -24t23 -60zM246 0h-72v1470h72v-1470z" />
    <glyph glyph-name="Eth" unicode="&#xd0;" horiz-adv-x="1447" 
d="M635 0h-363v731h-260v57h260v682h363q232 0 396.5 -93.5t245.5 -256.5t81 -381q0 -213 -83 -378.5t-248.5 -263t-391.5 -97.5zM678 731h-334v-670h293q204 0 352 87.5t222.5 239.5t74.5 351q0 306 -169.5 488t-479.5 182h-293v-621h334v-57z" />
    <glyph glyph-name="Ntilde" unicode="&#xd1;" horiz-adv-x="1460" 
d="M475 1616h-57q-4 115 40 179.5t126 64.5q37 0 70 -18t58 -43.5t48.5 -51t50.5 -43.5t55 -18q52 0 79.5 48t27.5 136h59q4 -114 -41 -179t-125 -65q-37 0 -70 18t-58 43.5t-48.5 51t-50.5 43.5t-55 18q-52 0 -80.5 -48t-28.5 -136zM1198 0l-954 1370v-1370h-70v1470h84
l959 -1374v1374h69v-1470h-88z" />
    <glyph glyph-name="Ograve" unicode="&#xd2;" horiz-adv-x="1652" 
d="M870 1616h-90l-209 254h91zM827 -31q-157 0 -295 61t-234.5 164.5t-152 244.5t-55.5 298q0 156 55.5 297t152 243.5t234.5 163t295 60.5t294.5 -60.5t234 -163t152 -243.5t55.5 -297t-55.5 -297.5t-152 -245t-234.5 -164.5t-294 -61zM827 33q190 0 342 93.5t236 254
t84 356.5t-84 356t-236 252.5t-342 92.5q-143 0 -266.5 -54.5t-210.5 -148t-136.5 -223t-49.5 -275.5q0 -196 84 -356.5t236.5 -254t342.5 -93.5z" />
    <glyph glyph-name="Oacute" unicode="&#xd3;" horiz-adv-x="1652" 
d="M874 1616h-90l207 254h90zM827 -31q-157 0 -295 61t-234.5 164.5t-152 244.5t-55.5 298q0 156 55.5 297t152 243.5t234.5 163t295 60.5t294.5 -60.5t234 -163t152 -243.5t55.5 -297t-55.5 -297.5t-152 -245t-234.5 -164.5t-294 -61zM827 33q190 0 342 93.5t236 254
t84 356.5t-84 356t-236 252.5t-342 92.5q-143 0 -266.5 -54.5t-210.5 -148t-136.5 -223t-49.5 -275.5q0 -196 84 -356.5t236.5 -254t342.5 -93.5z" />
    <glyph glyph-name="Ocircumflex" unicode="&#xd4;" horiz-adv-x="1652" 
d="M621 1616h-86l264 254h57l266 -254h-86l-209 196zM827 -31q-157 0 -295 61t-234.5 164.5t-152 244.5t-55.5 298q0 156 55.5 297t152 243.5t234.5 163t295 60.5t294.5 -60.5t234 -163t152 -243.5t55.5 -297t-55.5 -297.5t-152 -245t-234.5 -164.5t-294 -61zM827 33
q190 0 342 93.5t236 254t84 356.5t-84 356t-236 252.5t-342 92.5q-143 0 -266.5 -54.5t-210.5 -148t-136.5 -223t-49.5 -275.5q0 -196 84 -356.5t236.5 -254t342.5 -93.5z" />
    <glyph glyph-name="Otilde" unicode="&#xd5;" horiz-adv-x="1652" 
d="M571 1616h-57q-4 115 40 179.5t126 64.5q37 0 70 -18t58 -43.5t49 -51t51 -43.5t55 -18q52 0 79 47.5t27 136.5h59q4 -114 -40.5 -179t-124.5 -65q-37 0 -70 18t-58 43.5t-49 51t-51 43.5t-55 18q-52 0 -80.5 -48t-28.5 -136zM827 -31q-157 0 -295 61t-234.5 164.5
t-152 244.5t-55.5 298q0 156 55.5 297t152 243.5t234.5 163t295 60.5t294.5 -60.5t234 -163t152 -243.5t55.5 -297t-55.5 -297.5t-152 -245t-234.5 -164.5t-294 -61zM827 33q190 0 342 93.5t236 254t84 356.5t-84 356t-236 252.5t-342 92.5q-143 0 -266.5 -54.5t-210.5 -148
t-136.5 -223t-49.5 -275.5q0 -196 84 -356.5t236.5 -254t342.5 -93.5z" />
    <glyph glyph-name="Odieresis" unicode="&#xd6;" horiz-adv-x="1652" 
d="M1073 1724q0 -34 -24 -59t-60 -25t-61 25t-25 59q0 37 24.5 60.5t61.5 23.5t60.5 -23.5t23.5 -60.5zM752 1724q0 -34 -24 -59t-60 -25q-37 0 -61.5 24.5t-24.5 59.5q0 37 24 60.5t62 23.5q37 0 60.5 -23.5t23.5 -60.5zM827 -31q-157 0 -295 61t-234.5 164.5t-152 244.5
t-55.5 298q0 156 55.5 297t152 243.5t234.5 163t295 60.5t294.5 -60.5t234 -163t152 -243.5t55.5 -297t-55.5 -297.5t-152 -245t-234.5 -164.5t-294 -61zM827 33q190 0 342 93.5t236 254t84 356.5t-84 356t-236 252.5t-342 92.5q-143 0 -266.5 -54.5t-210.5 -148
t-136.5 -223t-49.5 -275.5q0 -196 84 -356.5t236.5 -254t342.5 -93.5z" />
    <glyph glyph-name="multiply" unicode="&#xd7;" horiz-adv-x="1351" 
d="M293 266l-41 43l383 383l-383 383l41 41l383 -383l383 383l41 -43l-381 -381l383 -383l-43 -43l-383 383z" />
    <glyph glyph-name="Oslash" unicode="&#xd8;" horiz-adv-x="1652" 
d="M225 0h-80l162 186q-103 106 -160 249t-57 302q0 156 55.5 297t152 243.5t234.5 163t295 60.5q138 0 260.5 -46t217.5 -130l127 145h79l-163 -186q103 -106 159 -247t56 -300q0 -156 -55.5 -297.5t-152 -245t-234.5 -164.5t-294 -61q-275 0 -475 174zM164 737
q0 -148 49 -276.5t139 -224.5l910 1040q-179 162 -435 162q-143 0 -266.5 -54.5t-210.5 -148t-136.5 -223t-49.5 -275.5zM827 33q190 0 342 93.5t236 254t84 356.5q0 298 -184 498l-910 -1040q179 -162 432 -162z" />
    <glyph glyph-name="Ugrave" unicode="&#xd9;" horiz-adv-x="1343" 
d="M715 1616h-90l-209 254h90zM1174 1470v-995q0 -237 -138.5 -371.5t-363.5 -134.5t-363.5 134.5t-138.5 371.5v995h72v-1003q0 -197 123 -315.5t307 -118.5q185 0 308.5 118.5t123.5 315.5v1003h70z" />
    <glyph glyph-name="Uacute" unicode="&#xda;" horiz-adv-x="1343" 
d="M719 1616h-90l207 254h90zM1174 1470v-995q0 -237 -138.5 -371.5t-363.5 -134.5t-363.5 134.5t-138.5 371.5v995h72v-1003q0 -197 123 -315.5t307 -118.5q185 0 308.5 118.5t123.5 315.5v1003h70z" />
    <glyph glyph-name="Ucircumflex" unicode="&#xdb;" horiz-adv-x="1343" 
d="M465 1616h-86l264 254h57l267 -254h-86l-209 196zM1174 1470v-995q0 -237 -138.5 -371.5t-363.5 -134.5t-363.5 134.5t-138.5 371.5v995h72v-1003q0 -197 123 -315.5t307 -118.5q185 0 308.5 118.5t123.5 315.5v1003h70z" />
    <glyph glyph-name="Udieresis" unicode="&#xdc;" horiz-adv-x="1343" 
d="M918 1724q0 -34 -24 -59t-60 -25t-61 25t-25 59q0 37 24.5 60.5t61.5 23.5t60.5 -23.5t23.5 -60.5zM596 1724q0 -34 -24 -59t-60 -25q-37 0 -61.5 24.5t-24.5 59.5q0 37 24 60.5t62 23.5q37 0 60.5 -23.5t23.5 -60.5zM1174 1470v-995q0 -237 -138.5 -371.5t-363.5 -134.5
t-363.5 134.5t-138.5 371.5v995h72v-1003q0 -197 123 -315.5t307 -118.5q185 0 308.5 118.5t123.5 315.5v1003h70z" />
    <glyph glyph-name="Yacute" unicode="&#xdd;" horiz-adv-x="1208" 
d="M651 1616h-90l207 254h90zM639 551v-551h-72v551l-542 919h79l500 -849l502 849h78z" />
    <glyph glyph-name="Thorn" unicode="&#xde;" horiz-adv-x="1165" 
d="M614 291h-368v-291h-72v1470h72v-282h368q210 0 341.5 -120t131.5 -329q0 -210 -131 -329t-342 -119zM612 1126h-366v-774h366q186 0 295 101t109 286q0 183 -109 285t-295 102z" />
    <glyph glyph-name="germandbls" unicode="&#xdf;" horiz-adv-x="1191" 
d="M1100 401q0 -187 -118.5 -304t-307.5 -117q-90 0 -133 12v59q47 -14 129 -14q164 0 262 97t98 259q0 154 -112.5 246t-299.5 92h-73v57h73q155 0 251 95t96 247q0 138 -85.5 220t-228.5 82q-146 0 -233.5 -97t-87.5 -258v-1077h-70v1016h-270v55h270q0 184 110 301
t283 117q169 0 275 -99.5t106 -259.5q0 -127 -73 -227.5t-193 -138.5q160 -35 246 -130t86 -233z" />
    <glyph glyph-name="agrave" unicode="&#xe0;" horiz-adv-x="1067" 
d="M578 1217h-91l-208 253h90zM840 0v227q-43 -114 -145 -180.5t-234 -66.5q-166 0 -264.5 84t-98.5 225q0 317 496 317q92 0 244 -12v104q0 158 -79 247t-220 89q-152 0 -242 -90t-90 -244h-66q0 177 108.5 284.5t287.5 107.5q175 0 272.5 -100.5t97.5 -280.5v-711h-67z
M168 291q0 -114 80.5 -184t212.5 -70q172 0 274.5 108.5t102.5 290.5v105q-133 10 -242 10q-218 0 -323 -64t-105 -196z" />
    <glyph glyph-name="aacute" unicode="&#xe1;" horiz-adv-x="1067" 
d="M582 1217h-90l206 253h90zM840 0v227q-43 -114 -145 -180.5t-234 -66.5q-166 0 -264.5 84t-98.5 225q0 317 496 317q92 0 244 -12v104q0 158 -79 247t-220 89q-152 0 -242 -90t-90 -244h-66q0 177 108.5 284.5t287.5 107.5q175 0 272.5 -100.5t97.5 -280.5v-711h-67z
M168 291q0 -114 80.5 -184t212.5 -70q172 0 274.5 108.5t102.5 290.5v105q-133 10 -242 10q-218 0 -323 -64t-105 -196z" />
    <glyph glyph-name="acircumflex" unicode="&#xe2;" horiz-adv-x="1067" 
d="M328 1217h-86l264 253h57l266 -253h-86l-208 196zM840 0v227q-43 -114 -145 -180.5t-234 -66.5q-166 0 -264.5 84t-98.5 225q0 317 496 317q92 0 244 -12v104q0 158 -79 247t-220 89q-152 0 -242 -90t-90 -244h-66q0 177 108.5 284.5t287.5 107.5q175 0 272.5 -100.5
t97.5 -280.5v-711h-67zM168 291q0 -114 80.5 -184t212.5 -70q172 0 274.5 108.5t102.5 290.5v105q-133 10 -242 10q-218 0 -323 -64t-105 -196z" />
    <glyph glyph-name="atilde" unicode="&#xe3;" horiz-adv-x="1067" 
d="M279 1217h-58q-4 115 40 179t126 64q37 0 70 -18t58 -43.5t49 -51t51 -43.5t55 -18q52 0 79 47.5t27 136.5h60q4 -114 -41 -178.5t-125 -64.5q-37 0 -70 18t-58 43.5t-49 51t-51 43.5t-55 18q-52 0 -80 -48t-28 -136zM840 0v227q-43 -114 -145 -180.5t-234 -66.5
q-166 0 -264.5 84t-98.5 225q0 317 496 317q92 0 244 -12v104q0 158 -79 247t-220 89q-152 0 -242 -90t-90 -244h-66q0 177 108.5 284.5t287.5 107.5q175 0 272.5 -100.5t97.5 -280.5v-711h-67zM168 291q0 -114 80.5 -184t212.5 -70q172 0 274.5 108.5t102.5 290.5v105
q-133 10 -242 10q-218 0 -323 -64t-105 -196z" />
    <glyph glyph-name="adieresis" unicode="&#xe4;" horiz-adv-x="1067" 
d="M780 1325q0 -34 -24 -59t-60 -25t-61 25t-25 59q0 37 24.5 60.5t61.5 23.5t60.5 -23.5t23.5 -60.5zM459 1325q0 -34 -24 -59t-60 -25q-37 0 -61.5 24.5t-24.5 59.5q0 37 24 60.5t62 23.5q37 0 60.5 -23.5t23.5 -60.5zM840 0v227q-43 -114 -145 -180.5t-234 -66.5
q-166 0 -264.5 84t-98.5 225q0 317 496 317q92 0 244 -12v104q0 158 -79 247t-220 89q-152 0 -242 -90t-90 -244h-66q0 177 108.5 284.5t287.5 107.5q175 0 272.5 -100.5t97.5 -280.5v-711h-67zM168 291q0 -114 80.5 -184t212.5 -70q172 0 274.5 108.5t102.5 290.5v105
q-133 10 -242 10q-218 0 -323 -64t-105 -196z" />
    <glyph glyph-name="aring" unicode="&#xe5;" horiz-adv-x="1067" 
d="M535 1208q-89 0 -150 58.5t-61 140.5t61 140.5t150 58.5t151 -58.5t62 -140.5t-62 -140.5t-151 -58.5zM535 1262q65 0 107 38.5t42 106.5q0 67 -42 105t-107 38q-64 0 -106 -38t-42 -105q0 -68 42 -106.5t106 -38.5zM840 0v227q-43 -114 -145 -180.5t-234 -66.5
q-166 0 -264.5 84t-98.5 225q0 317 496 317q92 0 244 -12v104q0 158 -79 247t-220 89q-152 0 -242 -90t-90 -244h-66q0 177 108.5 284.5t287.5 107.5q175 0 272.5 -100.5t97.5 -280.5v-711h-67zM168 291q0 -114 80.5 -184t212.5 -70q172 0 274.5 108.5t102.5 290.5v105
q-133 10 -242 10q-218 0 -323 -64t-105 -196z" />
    <glyph glyph-name="ae" unicode="&#xe6;" horiz-adv-x="1824" 
d="M98 285q0 149 123.5 229t353.5 80h263v86q0 169 -81 261.5t-227 92.5q-143 0 -230 -91t-87 -241h-66q0 172 106.5 281t276.5 109q143 0 236.5 -71.5t124.5 -203.5q57 126 164.5 200.5t234.5 74.5q206 0 328 -152t115 -401h-826q3 -232 109 -367t284 -135
q148 0 245.5 85.5t125.5 237.5h68q-31 -175 -149 -277.5t-290 -102.5q-154 0 -263.5 89t-159.5 253q-35 -160 -146 -251t-272 -91q-160 0 -260.5 85t-100.5 220zM1290 1034q-158 0 -267 -125t-116 -315h754q-9 209 -107 324.5t-264 115.5zM168 285q0 -109 82.5 -178.5
t210.5 -69.5q170 0 273.5 110t103.5 291v101h-263q-407 0 -407 -254z" />
    <glyph glyph-name="ccedilla" unicode="&#xe7;" horiz-adv-x="1077" 
d="M731 -248q0 -70 -54 -114t-132 -44q-82 0 -140.5 43t-68.5 119h61q9 -53 49 -81.5t99 -28.5q54 0 86.5 30t32.5 74q0 73 -59 106t-134 23l35 101q-188 15 -304 169t-116 388q0 246 128 400.5t331 154.5q175 0 293 -109t153 -303h-67q-31 167 -131 260.5t-248 93.5
q-172 0 -280.5 -138.5t-108.5 -358.5q0 -221 108.5 -361.5t280.5 -140.5q149 0 249.5 93.5t131.5 262.5h65q-31 -187 -144.5 -297.5t-281.5 -116.5l-22 -59q80 -2 134 -48.5t54 -117.5z" />
    <glyph glyph-name="egrave" unicode="&#xe8;" horiz-adv-x="1112" 
d="M606 1217h-90l-209 253h90zM567 -23q-217 0 -349 156.5t-132 413.5q0 233 134.5 389t336.5 156q215 0 343 -157.5t120 -414.5h-866q8 -222 118.5 -353.5t294.5 -131.5q156 0 259.5 86t131.5 239h68q-31 -175 -155 -279t-304 -104zM557 1034q-169 0 -281.5 -127
t-121.5 -329h794q-10 215 -114 335.5t-277 120.5z" />
    <glyph glyph-name="eacute" unicode="&#xe9;" horiz-adv-x="1112" 
d="M610 1217h-90l207 253h90zM567 -23q-217 0 -349 156.5t-132 413.5q0 233 134.5 389t336.5 156q215 0 343 -157.5t120 -414.5h-866q8 -222 118.5 -353.5t294.5 -131.5q156 0 259.5 86t131.5 239h68q-31 -175 -155 -279t-304 -104zM557 1034q-169 0 -281.5 -127
t-121.5 -329h794q-10 215 -114 335.5t-277 120.5z" />
    <glyph glyph-name="ecircumflex" unicode="&#xea;" horiz-adv-x="1112" 
d="M356 1217h-86l265 253h57l266 -253h-86l-209 196zM567 -23q-217 0 -349 156.5t-132 413.5q0 233 134.5 389t336.5 156q215 0 343 -157.5t120 -414.5h-866q8 -222 118.5 -353.5t294.5 -131.5q156 0 259.5 86t131.5 239h68q-31 -175 -155 -279t-304 -104zM557 1034
q-169 0 -281.5 -127t-121.5 -329h794q-10 215 -114 335.5t-277 120.5z" />
    <glyph glyph-name="edieresis" unicode="&#xeb;" horiz-adv-x="1112" 
d="M809 1325q0 -34 -24 -59t-60 -25t-61 25t-25 59q0 37 24.5 60.5t61.5 23.5t60.5 -23.5t23.5 -60.5zM487 1325q0 -34 -24 -59t-60 -25q-37 0 -61.5 24.5t-24.5 59.5q0 37 24 60.5t62 23.5q37 0 60.5 -23.5t23.5 -60.5zM567 -23q-217 0 -349 156.5t-132 413.5
q0 233 134.5 389t336.5 156q215 0 343 -157.5t120 -414.5h-866q8 -222 118.5 -353.5t294.5 -131.5q156 0 259.5 86t131.5 239h68q-31 -175 -155 -279t-304 -104zM557 1034q-169 0 -281.5 -127t-121.5 -329h794q-10 215 -114 335.5t-277 120.5z" />
    <glyph glyph-name="igrave" unicode="&#xec;" horiz-adv-x="409" 
d="M246 1217h-90l-189 253h90zM240 0h-70v1071h70v-1071z" />
    <glyph glyph-name="iacute" unicode="&#xed;" horiz-adv-x="409" 
d="M250 1217h-90l186 253h90zM240 0h-70v1071h70v-1071z" />
    <glyph glyph-name="icircumflex" unicode="&#xee;" horiz-adv-x="409" 
d="M18 1217h-86l240 253h61l240 -253h-86l-184 196zM240 0h-70v1071h70v-1071z" />
    <glyph glyph-name="idieresis" unicode="&#xef;" horiz-adv-x="409" 
d="M432 1325q0 -35 -22.5 -59.5t-57.5 -24.5t-57.5 24.5t-22.5 59.5q0 37 22.5 60.5t57.5 23.5t57.5 -23.5t22.5 -60.5zM137 1325q0 -34 -23.5 -59t-56.5 -25q-35 0 -58.5 25t-23.5 59q0 37 23.5 60.5t58.5 23.5q34 0 57 -24t23 -60zM240 0h-70v1071h70v-1071z" />
    <glyph glyph-name="eth" unicode="&#xf0;" horiz-adv-x="1153" 
d="M86 532q0 245 132 401.5t339 156.5q143 0 258 -82l-219 276l-254 -119v62l219 102l-112 141h77l90 -114l254 119l2 -62l-221 -102l242 -307q95 -121 134.5 -232.5t39.5 -259.5q0 -235 -137 -383.5t-355 -148.5q-212 0 -350.5 156.5t-138.5 395.5zM156 532
q0 -224 115.5 -359.5t306.5 -135.5q192 0 305.5 129t113.5 346q0 237 -113.5 377.5t-305.5 140.5q-195 0 -308.5 -134t-113.5 -364z" />
    <glyph glyph-name="ntilde" unicode="&#xf1;" horiz-adv-x="1132" 
d="M317 1217h-57q-4 115 40 179t126 64q37 0 70 -18t58 -43.5t49 -51t51 -43.5t55 -18q52 0 79 47.5t27 136.5h59q4 -114 -40.5 -178.5t-124.5 -64.5q-37 0 -70 18t-58 43.5t-49 51t-51 43.5t-55 18q-52 0 -80.5 -48t-28.5 -136zM240 645v-645h-70v1071h68v-227
q48 111 147 179.5t219 68.5q172 0 270.5 -104.5t98.5 -291.5v-696h-70v672q0 174 -80.5 268t-230.5 94q-146 0 -249 -114t-103 -275z" />
    <glyph glyph-name="ograve" unicode="&#xf2;" horiz-adv-x="1155" 
d="M621 1217h-91l-208 253h90zM578 -20q-217 0 -354.5 155t-137.5 402q0 244 137.5 398.5t354.5 154.5t354 -154.5t137 -398.5q0 -247 -137 -402t-354 -155zM578 37q186 0 303.5 138t117.5 362q0 221 -117.5 358t-303.5 137t-304 -137t-118 -358q0 -224 118 -362t304 -138z
" />
    <glyph glyph-name="oacute" unicode="&#xf3;" horiz-adv-x="1155" 
d="M625 1217h-90l206 253h90zM578 -20q-217 0 -354.5 155t-137.5 402q0 244 137.5 398.5t354.5 154.5t354 -154.5t137 -398.5q0 -247 -137 -402t-354 -155zM578 37q186 0 303.5 138t117.5 362q0 221 -117.5 358t-303.5 137t-304 -137t-118 -358q0 -224 118 -362t304 -138z
" />
    <glyph glyph-name="ocircumflex" unicode="&#xf4;" horiz-adv-x="1155" 
d="M371 1217h-86l264 253h57l266 -253h-86l-208 196zM578 -20q-217 0 -354.5 155t-137.5 402q0 244 137.5 398.5t354.5 154.5t354 -154.5t137 -398.5q0 -247 -137 -402t-354 -155zM578 37q186 0 303.5 138t117.5 362q0 221 -117.5 358t-303.5 137t-304 -137t-118 -358
q0 -224 118 -362t304 -138z" />
    <glyph glyph-name="otilde" unicode="&#xf5;" horiz-adv-x="1155" 
d="M322 1217h-58q-4 115 40 179t126 64q37 0 70 -18t58 -43.5t49 -51t51 -43.5t55 -18q52 0 79 47.5t27 136.5h60q4 -114 -41 -178.5t-125 -64.5q-37 0 -70 18t-58 43.5t-49 51t-51 43.5t-55 18q-52 0 -80 -48t-28 -136zM578 -20q-217 0 -354.5 155t-137.5 402
q0 244 137.5 398.5t354.5 154.5t354 -154.5t137 -398.5q0 -247 -137 -402t-354 -155zM578 37q186 0 303.5 138t117.5 362q0 221 -117.5 358t-303.5 137t-304 -137t-118 -358q0 -224 118 -362t304 -138z" />
    <glyph glyph-name="odieresis" unicode="&#xf6;" horiz-adv-x="1155" 
d="M823 1325q0 -34 -24 -59t-60 -25t-61 25t-25 59q0 37 24.5 60.5t61.5 23.5t60.5 -23.5t23.5 -60.5zM502 1325q0 -34 -24 -59t-60 -25q-37 0 -61.5 24.5t-24.5 59.5q0 37 24 60.5t62 23.5q37 0 60.5 -23.5t23.5 -60.5zM578 -20q-217 0 -354.5 155t-137.5 402
q0 244 137.5 398.5t354.5 154.5t354 -154.5t137 -398.5q0 -247 -137 -402t-354 -155zM578 37q186 0 303.5 138t117.5 362q0 221 -117.5 358t-303.5 137t-304 -137t-118 -358q0 -224 118 -362t304 -138z" />
    <glyph glyph-name="divide" unicode="&#xf7;" horiz-adv-x="1351" 
d="M772 1038q0 -41 -27.5 -68.5t-68.5 -27.5t-68.5 27.5t-27.5 68.5q0 43 27.5 71t68.5 28t68.5 -28t27.5 -71zM1188 653h-1024v56h1024v-56zM772 330q0 -41 -27.5 -69t-68.5 -28t-68.5 28t-27.5 69q0 43 27.5 70.5t68.5 27.5t68.5 -27.5t27.5 -70.5z" />
    <glyph glyph-name="oslash" unicode="&#xf8;" horiz-adv-x="1155" 
d="M170 0h-76l121 145q-129 151 -129 392q0 244 137.5 398.5t354.5 154.5q191 0 321 -121l84 102h76l-121 -145q131 -150 131 -389q0 -247 -137 -402t-354 -155q-193 0 -324 122zM156 537q0 -203 100 -340l602 723q-115 112 -280 112q-186 0 -304 -137t-118 -358zM578 37
q186 0 303.5 138t117.5 362q0 207 -102 340l-602 -725q115 -115 283 -115z" />
    <glyph glyph-name="ugrave" unicode="&#xf9;" horiz-adv-x="1112" 
d="M600 1217h-90l-209 253h90zM872 422v649h70v-1071h-68v221q-41 -107 -138 -174t-220 -67q-169 0 -262.5 96.5t-93.5 290.5v704h69v-686q0 -181 80 -264.5t217 -83.5q154 0 250 110.5t96 274.5z" />
    <glyph glyph-name="uacute" unicode="&#xfa;" horiz-adv-x="1112" 
d="M604 1217h-90l207 253h90zM872 422v649h70v-1071h-68v221q-41 -107 -138 -174t-220 -67q-169 0 -262.5 96.5t-93.5 290.5v704h69v-686q0 -181 80 -264.5t217 -83.5q154 0 250 110.5t96 274.5z" />
    <glyph glyph-name="ucircumflex" unicode="&#xfb;" horiz-adv-x="1112" 
d="M350 1217h-86l264 253h58l266 -253h-86l-209 196zM872 422v649h70v-1071h-68v221q-41 -107 -138 -174t-220 -67q-169 0 -262.5 96.5t-93.5 290.5v704h69v-686q0 -181 80 -264.5t217 -83.5q154 0 250 110.5t96 274.5z" />
    <glyph glyph-name="udieresis" unicode="&#xfc;" horiz-adv-x="1112" 
d="M803 1325q0 -34 -24 -59t-60 -25t-61 25t-25 59q0 37 24.5 60.5t61.5 23.5t60.5 -23.5t23.5 -60.5zM481 1325q0 -34 -24 -59t-60 -25q-37 0 -61.5 24.5t-24.5 59.5q0 37 24 60.5t62 23.5q37 0 60.5 -23.5t23.5 -60.5zM872 422v649h70v-1071h-68v221q-41 -107 -138 -174
t-220 -67q-169 0 -262.5 96.5t-93.5 290.5v704h69v-686q0 -181 80 -264.5t217 -83.5q154 0 250 110.5t96 274.5z" />
    <glyph glyph-name="yacute" unicode="&#xfd;" horiz-adv-x="937" 
d="M516 1217h-90l207 253h90zM922 1071l-564 -1466h-71l157 409l-428 1057h74l389 -967l369 967h74z" />
    <glyph glyph-name="thorn" unicode="&#xfe;" horiz-adv-x="1191" 
d="M1106 537q0 -254 -127 -405.5t-340 -151.5q-134 0 -240.5 74.5t-158.5 207.5v-657h-70v1865h70v-669q51 136 158 213.5t241 77.5q212 0 339.5 -151.5t127.5 -403.5zM1036 537q0 231 -107 364t-292 133q-178 0 -289.5 -133.5t-111.5 -361.5q0 -226 110.5 -364t290.5 -138
q185 0 292 133.5t107 366.5z" />
    <glyph glyph-name="ydieresis" unicode="&#xff;" horiz-adv-x="937" 
d="M715 1325q0 -34 -24 -59t-60 -25t-61 25t-25 59q0 37 24.5 60.5t61.5 23.5t60.5 -23.5t23.5 -60.5zM393 1325q0 -34 -24 -59t-60 -25q-37 0 -61.5 24.5t-24.5 59.5q0 37 24 60.5t62 23.5q37 0 60.5 -23.5t23.5 -60.5zM922 1071l-564 -1466h-71l157 409l-428 1057h74
l389 -967l369 967h74z" />
    <glyph glyph-name="Amacron" unicode="&#x100;" horiz-adv-x="1378" 
d="M952 1647h-530v57h530v-57zM1237 0l-178 455h-744l-178 -455h-67l581 1470h78l580 -1470h-72zM688 1399l-348 -883h694z" />
    <glyph glyph-name="amacron" unicode="&#x101;" horiz-adv-x="1067" 
d="M799 1247h-531v58h531v-58zM840 0v227q-43 -114 -145 -180.5t-234 -66.5q-166 0 -264.5 84t-98.5 225q0 317 496 317q92 0 244 -12v104q0 158 -79 247t-220 89q-152 0 -242 -90t-90 -244h-66q0 177 108.5 284.5t287.5 107.5q175 0 272.5 -100.5t97.5 -280.5v-711h-67z
M168 291q0 -114 80.5 -184t212.5 -70q172 0 274.5 108.5t102.5 290.5v105q-133 10 -242 10q-218 0 -323 -64t-105 -196z" />
    <glyph glyph-name="Abreve" unicode="&#x102;" horiz-adv-x="1378" 
d="M889 1870h67q0 -111 -74.5 -185.5t-193.5 -74.5t-192.5 74.5t-73.5 185.5h65q0 -89 54.5 -146t146.5 -57q93 0 147 56.5t54 146.5zM1237 0l-178 455h-744l-178 -455h-67l581 1470h78l580 -1470h-72zM688 1399l-348 -883h694z" />
    <glyph glyph-name="abreve" unicode="&#x103;" horiz-adv-x="1067" 
d="M735 1470h68q0 -111 -74.5 -185.5t-193.5 -74.5t-193 74.5t-74 185.5h66q0 -89 54.5 -145.5t146.5 -56.5q93 0 146.5 56t53.5 146zM840 0v227q-43 -114 -145 -180.5t-234 -66.5q-166 0 -264.5 84t-98.5 225q0 317 496 317q92 0 244 -12v104q0 158 -79 247t-220 89
q-152 0 -242 -90t-90 -244h-66q0 177 108.5 284.5t287.5 107.5q175 0 272.5 -100.5t97.5 -280.5v-711h-67zM168 291q0 -114 80.5 -184t212.5 -70q172 0 274.5 108.5t102.5 290.5v105q-133 10 -242 10q-218 0 -323 -64t-105 -196z" />
    <glyph glyph-name="Aogonek" unicode="&#x104;" horiz-adv-x="1378" 
d="M1321 -328v-59q-55 -21 -102 -21q-77 0 -127 48t-50 124q0 139 187 254l-170 437h-744l-178 -455h-67l581 1470h78l580 -1470h-31q-77 -42 -122.5 -95t-45.5 -132q0 -54 33 -87.5t88 -33.5q43 0 90 20zM688 1399l-348 -883h694z" />
    <glyph glyph-name="aogonek" unicode="&#x105;" horiz-adv-x="1067" 
d="M924 -328v-59q-55 -21 -103 -21q-77 0 -126.5 48t-49.5 124q0 144 195 259v204q-43 -114 -145 -180.5t-234 -66.5q-166 0 -264.5 84t-98.5 225q0 317 496 317q92 0 244 -12v104q0 158 -79 247t-220 89q-152 0 -242 -90t-90 -244h-66q0 177 108.5 284.5t287.5 107.5
q175 0 272.5 -100.5t97.5 -280.5v-711h-26q-77 -42 -122.5 -95t-45.5 -132q0 -54 33 -87.5t88 -33.5q43 0 90 20zM168 291q0 -114 80.5 -184t212.5 -70q172 0 274.5 108.5t102.5 290.5v105q-133 10 -242 10q-218 0 -323 -64t-105 -196z" />
    <glyph glyph-name="Cacute" unicode="&#x106;" horiz-adv-x="1562" 
d="M854 1616h-90l207 254h90zM799 -31q-200 0 -362.5 101t-254.5 277t-92 390q0 213 92 388t254.5 275.5t362.5 100.5q251 0 440 -155t234 -406h-74q-40 218 -207.5 358t-392.5 140q-180 0 -325.5 -91.5t-227.5 -252t-82 -357.5q0 -199 82 -360t227.5 -252.5t325.5 -91.5
q228 0 395.5 140.5t204.5 358.5h74q-44 -250 -233.5 -406.5t-440.5 -156.5z" />
    <glyph glyph-name="cacute" unicode="&#x107;" horiz-adv-x="1077" 
d="M600 1217h-90l207 253h90zM545 -23q-203 0 -331 156.5t-128 403.5q0 246 128 400.5t331 154.5q175 0 293 -109t153 -303h-67q-31 167 -131 260.5t-248 93.5q-172 0 -280.5 -138.5t-108.5 -358.5q0 -221 108.5 -361.5t280.5 -140.5q149 0 249.5 93.5t131.5 262.5h65
q-32 -193 -151.5 -303.5t-294.5 -110.5z" />
    <glyph glyph-name="Ccaron" unicode="&#x10c;" horiz-adv-x="1562" 
d="M836 1616h-58l-264 254h86l207 -197l209 197h86zM799 -31q-200 0 -362.5 101t-254.5 277t-92 390q0 213 92 388t254.5 275.5t362.5 100.5q251 0 440 -155t234 -406h-74q-40 218 -207.5 358t-392.5 140q-180 0 -325.5 -91.5t-227.5 -252t-82 -357.5q0 -199 82 -360
t227.5 -252.5t325.5 -91.5q228 0 395.5 140.5t204.5 358.5h74q-44 -250 -233.5 -406.5t-440.5 -156.5z" />
    <glyph glyph-name="ccaron" unicode="&#x10d;" horiz-adv-x="1077" 
d="M582 1217h-58l-264 253h86l207 -196l209 196h86zM545 -23q-203 0 -331 156.5t-128 403.5q0 246 128 400.5t331 154.5q175 0 293 -109t153 -303h-67q-31 167 -131 260.5t-248 93.5q-172 0 -280.5 -138.5t-108.5 -358.5q0 -221 108.5 -361.5t280.5 -140.5q149 0 249.5 93.5
t131.5 262.5h65q-32 -193 -151.5 -303.5t-294.5 -110.5z" />
    <glyph glyph-name="Dcaron" unicode="&#x10e;" horiz-adv-x="1349" 
d="M645 1616h-57l-264 254h86l206 -197l209 197h86zM537 0h-363v1470h363q232 0 396.5 -93.5t245.5 -256.5t81 -381q0 -213 -83 -378.5t-248.5 -263t-391.5 -97.5zM246 1409v-1348h293q204 0 352 87.5t222.5 239.5t74.5 351q0 306 -169.5 488t-479.5 182h-293z" />
    <glyph glyph-name="dcaron" unicode="&#x10f;" horiz-adv-x="1191" 
d="M86 537q0 253 127 404t342 151q134 0 240 -77t157 -212v667h70v-1470h-68v262q-52 -133 -158 -207.5t-241 -74.5q-216 0 -342.5 151.5t-126.5 405.5zM1200 1178h-47v292h74zM156 537q0 -233 106.5 -366.5t292.5 -133.5q182 0 291.5 138t109.5 366t-110 360.5t-291 132.5
q-186 0 -292.5 -132.5t-106.5 -364.5z" />
    <glyph glyph-name="Dcroat" unicode="&#x110;" horiz-adv-x="1447" 
d="M635 0h-363v731h-260v57h260v682h363q232 0 396.5 -93.5t245.5 -256.5t81 -381q0 -213 -83 -378.5t-248.5 -263t-391.5 -97.5zM678 731h-334v-670h293q204 0 352 87.5t222.5 239.5t74.5 351q0 306 -169.5 488t-479.5 182h-293v-621h334v-57z" />
    <glyph glyph-name="dcroat" unicode="&#x111;" horiz-adv-x="1191" 
d="M86 537q0 253 127 404t342 151q134 0 240 -77t157 -212v444h-245v58h245v165h70v-165h215v-58h-215v-1247h-68v262q-52 -133 -158 -207.5t-241 -74.5q-216 0 -342.5 151.5t-126.5 405.5zM156 537q0 -233 106.5 -366.5t292.5 -133.5q182 0 291.5 138t109.5 366t-110 360.5
t-291 132.5q-186 0 -292.5 -132.5t-106.5 -364.5z" />
    <glyph glyph-name="Emacron" unicode="&#x112;" horiz-adv-x="1134" 
d="M856 1647h-530v57h530v-57zM1001 61v-61h-827v1470h813v-61h-741v-618h680v-62h-680v-668h755z" />
    <glyph glyph-name="emacron" unicode="&#x113;" horiz-adv-x="1112" 
d="M827 1247h-530v58h530v-58zM567 -23q-217 0 -349 156.5t-132 413.5q0 233 134.5 389t336.5 156q215 0 343 -157.5t120 -414.5h-866q8 -222 118.5 -353.5t294.5 -131.5q156 0 259.5 86t131.5 239h68q-31 -175 -155 -279t-304 -104zM557 1034q-169 0 -281.5 -127
t-121.5 -329h794q-10 215 -114 335.5t-277 120.5z" />
    <glyph glyph-name="Edotaccent" unicode="&#x116;" horiz-adv-x="1134" 
d="M672 1718q0 -34 -22 -56t-56 -22t-56 22t-22 56q0 32 22 53t56 21t56 -21t22 -53zM1001 61v-61h-827v1470h813v-61h-741v-618h680v-62h-680v-668h755z" />
    <glyph glyph-name="edotaccent" unicode="&#x117;" horiz-adv-x="1112" 
d="M643 1319q0 -34 -22 -56t-56 -22t-56 22t-22 56q0 32 22 53t56 21t56 -21t22 -53zM567 -23q-217 0 -349 156.5t-132 413.5q0 233 134.5 389t336.5 156q215 0 343 -157.5t120 -414.5h-866q8 -222 118.5 -353.5t294.5 -131.5q156 0 259.5 86t131.5 239h68
q-31 -175 -155 -279t-304 -104zM557 1034q-169 0 -281.5 -127t-121.5 -329h794q-10 215 -114 335.5t-277 120.5z" />
    <glyph glyph-name="Eogonek" unicode="&#x118;" horiz-adv-x="1134" 
d="M926 -328v-59q-56 -21 -103 -21q-77 0 -126.5 48t-49.5 124q0 129 158 236h-631v1470h813v-61h-741v-618h680v-62h-680v-668h755v-61h-118q-77 -42 -122.5 -95t-45.5 -132q0 -54 33 -87.5t88 -33.5q43 0 90 20z" />
    <glyph glyph-name="eogonek" unicode="&#x119;" horiz-adv-x="1112" 
d="M567 -23q-217 0 -349 156.5t-132 413.5q0 233 134.5 389t336.5 156q215 0 343 -157.5t120 -414.5h-866q8 -222 118.5 -353.5t294.5 -131.5q156 0 259.5 86t131.5 239h68q-23 -128 -97.5 -220.5t-187.5 -133.5q-82 -43 -131 -97.5t-49 -135.5q0 -54 33 -87.5t88 -33.5
q43 0 90 20v-59q-56 -21 -102 -21q-77 0 -126.5 48t-49.5 124q0 119 131 216q-27 -3 -58 -3zM557 1034q-169 0 -281.5 -127t-121.5 -329h794q-10 215 -114 335.5t-277 120.5z" />
    <glyph glyph-name="Ecaron" unicode="&#x11a;" horiz-adv-x="1134" 
d="M621 1616h-58l-264 254h86l207 -197l209 197h86zM1001 61v-61h-827v1470h813v-61h-741v-618h680v-62h-680v-668h755z" />
    <glyph glyph-name="ecaron" unicode="&#x11b;" horiz-adv-x="1112" 
d="M592 1217h-57l-265 253h86l207 -196l209 196h86zM567 -23q-217 0 -349 156.5t-132 413.5q0 233 134.5 389t336.5 156q215 0 343 -157.5t120 -414.5h-866q8 -222 118.5 -353.5t294.5 -131.5q156 0 259.5 86t131.5 239h68q-31 -175 -155 -279t-304 -104zM557 1034
q-169 0 -281.5 -127t-121.5 -329h794q-10 215 -114 335.5t-277 120.5z" />
    <glyph glyph-name="Gbreve" unicode="&#x11e;" horiz-adv-x="1634" 
d="M1016 1870h67q0 -111 -74.5 -185.5t-193.5 -74.5t-192.5 74.5t-73.5 185.5h65q0 -89 54.5 -146t146.5 -57q93 0 147 56.5t54 146.5zM827 -31q-207 0 -376 99.5t-265 274.5t-96 390q0 214 92.5 389.5t259.5 277t375 101.5q141 0 263 -42.5t209 -117t146.5 -169
t88.5 -203.5h-74q-28 100 -81.5 184t-131.5 148.5t-186 100.5t-236 36q-191 0 -340 -93t-230 -253t-81 -359t84.5 -359t235.5 -250.5t341 -90.5q277 0 448.5 164t199.5 448h-656v62h727q-12 -342 -207 -540t-510 -198z" />
    <glyph glyph-name="gbreve" unicode="&#x11f;" horiz-adv-x="1155" 
d="M748 1470h67q0 -111 -74.5 -185.5t-193.5 -74.5t-192.5 74.5t-73.5 185.5h65q0 -89 54.5 -145.5t146.5 -56.5q93 0 147 56t54 146zM549 -418q-198 0 -312.5 97t-123.5 274h65q10 -152 105.5 -232.5t263.5 -80.5q181 0 274.5 94t93.5 274v260q-51 -132 -150.5 -205
t-229.5 -73q-206 0 -327.5 150t-121.5 403q0 250 122.5 399.5t326.5 149.5q129 0 231 -78t152 -213v270h67v-1061q0 -204 -113.5 -316t-322.5 -112zM156 543q0 -232 101 -363t280 -131q172 0 277.5 131.5t105.5 347.5q0 232 -104 369t-279 137q-177 0 -279 -131t-102 -360z
" />
    <glyph glyph-name="Gcommaaccent" unicode="&#x122;" horiz-adv-x="1634" 
d="M827 -31q-207 0 -376 99.5t-265 274.5t-96 390q0 214 92.5 389.5t259.5 277t375 101.5q141 0 263 -42.5t209 -117t146.5 -169t88.5 -203.5h-74q-28 100 -81.5 184t-131.5 148.5t-186 100.5t-236 36q-191 0 -340 -93t-230 -253t-81 -359t84.5 -359t235.5 -250.5t341 -90.5
q277 0 448.5 164t199.5 448h-656v62h727q-12 -342 -207 -540t-510 -198zM905 -240q0 -67 -53.5 -120t-144.5 -52v50q65 3 102 32t37 74q-43 -20 -77 -3t-34 56q0 32 22 50t54 18q43 0 68.5 -31t25.5 -74z" />
    <glyph glyph-name="gcommaaccent" unicode="&#x123;" horiz-adv-x="1155" 
d="M457 1311q0 67 53.5 119.5t144.5 52.5v-49q-65 -3 -102 -32.5t-37 -74.5q23 10 43 10q30 0 49 -17t19 -46q0 -32 -22 -50t-54 -18q-43 0 -68.5 31t-25.5 74zM549 -418q-198 0 -312.5 97t-123.5 274h65q10 -152 105.5 -232.5t263.5 -80.5q181 0 274.5 94t93.5 274v260
q-51 -132 -150.5 -205t-229.5 -73q-206 0 -327.5 150t-121.5 403q0 250 122.5 399.5t326.5 149.5q129 0 231 -78t152 -213v270h67v-1061q0 -204 -113.5 -316t-322.5 -112zM156 543q0 -232 101 -363t280 -131q172 0 277.5 131.5t105.5 347.5q0 232 -104 369t-279 137
q-177 0 -279 -131t-102 -360z" />
    <glyph glyph-name="Imacron" unicode="&#x12a;" horiz-adv-x="419" 
d="M473 1647h-530v57h530v-57zM246 0h-72v1470h72v-1470z" />
    <glyph glyph-name="imacron" unicode="&#x12b;" horiz-adv-x="409" 
d="M467 1247h-530v58h530v-58zM240 0h-70v1071h70v-1071z" />
    <glyph glyph-name="Iogonek" unicode="&#x12e;" horiz-adv-x="419" 
d="M246 0h-31q-77 -42 -122.5 -95t-45.5 -132q0 -54 33 -87.5t88 -33.5q43 0 90 20v-59q-56 -21 -102 -21q-77 0 -126.5 48t-49.5 124q0 145 194 259v1447h72v-1470z" />
    <glyph glyph-name="iogonek" unicode="&#x12f;" horiz-adv-x="409" 
d="M283 1319q0 -34 -22 -56t-56 -22t-56 22t-22 56q0 32 22 53t56 21t56 -21t22 -53zM240 0h-29q-77 -42 -122.5 -95t-45.5 -132q0 -54 33 -87.5t88 -33.5q43 0 90 20v-59q-55 -21 -102 -21q-77 0 -127 48t-50 124q0 144 195 259v1048h70v-1071z" />
    <glyph glyph-name="Idotaccent" unicode="&#x130;" horiz-adv-x="419" 
d="M289 1718q0 -34 -22 -56t-56 -22t-56 22t-22 56q0 32 22 53t56 21t56 -21t22 -53zM246 0h-72v1470h72v-1470z" />
    <glyph glyph-name="dotlessi" unicode="&#x131;" horiz-adv-x="409" 
d="M240 0h-70v1071h70v-1071z" />
    <glyph glyph-name="Kcommaaccent" unicode="&#x136;" horiz-adv-x="1193" 
d="M246 0h-72v1470h72v-739l778 739h88l-786 -749l807 -721h-103l-784 700v-700zM729 -240q0 -67 -54 -120t-145 -52v50q65 3 102.5 32t37.5 74q-43 -20 -77 -3t-34 56q0 32 22 50t54 18q43 0 68.5 -31t25.5 -74z" />
    <glyph glyph-name="kcommaaccent" unicode="&#x137;" horiz-adv-x="952" 
d="M240 0h-70v1470h70v-921l583 522h88l-592 -530l633 -541h-96l-616 524v-524zM633 -240q0 -67 -54 -120t-145 -52v50q65 3 102 32t37 74q-43 -20 -76.5 -3t-33.5 56q0 32 22 50t54 18q43 0 68.5 -31t25.5 -74z" />
    <glyph glyph-name="Lacute" unicode="&#x139;" horiz-adv-x="1017" 
d="M248 1616h-90l207 254h90zM956 0h-782v1470h72v-1409h710v-61z" />
    <glyph glyph-name="lacute" unicode="&#x13a;" horiz-adv-x="409" 
d="M254 1616h-90l207 254h90zM240 0h-70v1470h70v-1470z" />
    <glyph glyph-name="Lcommaaccent" unicode="&#x13b;" horiz-adv-x="1017" 
d="M956 0h-782v1470h72v-1409h710v-61zM686 -240q0 -67 -54 -120t-145 -52v50q65 3 102.5 32t37.5 74q-43 -20 -77 -3t-34 56q0 32 22 50t54 18q43 0 68.5 -31t25.5 -74z" />
    <glyph glyph-name="lcommaaccent" unicode="&#x13c;" horiz-adv-x="409" 
d="M240 0h-70v1470h70v-1470zM297 -240q0 -67 -54 -120t-145 -52v50q65 3 102.5 32t37.5 74q-43 -20 -77 -3t-34 56q0 32 22 50t54 18q43 0 68.5 -31t25.5 -74z" />
    <glyph glyph-name="Lcaron" unicode="&#x13d;" horiz-adv-x="1017" 
d="M956 0h-782v1470h72v-1409h710v-61zM543 1178h-47v292h73z" />
    <glyph glyph-name="lcaron" unicode="&#x13e;" horiz-adv-x="409" 
d="M240 0h-70v1470h70v-1470zM418 1178h-47v292h73z" />
    <glyph glyph-name="Lslash" unicode="&#x141;" horiz-adv-x="1017" 
d="M956 0h-782v692l-227 -67v61l227 68v716h72v-696l424 125v-61l-424 -125v-652h710v-61z" />
    <glyph glyph-name="lslash" unicode="&#x142;" horiz-adv-x="409" 
d="M240 0h-70v694l-260 -73v57l260 76v716h70v-696l270 78v-59l-270 -78v-715z" />
    <glyph glyph-name="Nacute" unicode="&#x143;" horiz-adv-x="1460" 
d="M778 1616h-90l207 254h90zM1198 0l-954 1370v-1370h-70v1470h84l959 -1374v1374h69v-1470h-88z" />
    <glyph glyph-name="nacute" unicode="&#x144;" horiz-adv-x="1132" 
d="M621 1217h-91l207 253h90zM240 645v-645h-70v1071h68v-227q48 111 147 179.5t219 68.5q172 0 270.5 -104.5t98.5 -291.5v-696h-70v672q0 174 -80.5 268t-230.5 94q-146 0 -249 -114t-103 -275z" />
    <glyph glyph-name="Ncommaaccent" unicode="&#x145;" horiz-adv-x="1460" 
d="M1198 0l-954 1370v-1370h-70v1470h84l959 -1374v1374h69v-1470h-88zM821 -240q0 -67 -53.5 -120t-144.5 -52v50q65 3 102 32t37 74q-43 -20 -77 -3t-34 56q0 32 22 50t54 18q43 0 68.5 -31t25.5 -74z" />
    <glyph glyph-name="ncommaaccent" unicode="&#x146;" horiz-adv-x="1132" 
d="M240 645v-645h-70v1071h68v-227q48 111 147 179.5t219 68.5q172 0 270.5 -104.5t98.5 -291.5v-696h-70v672q0 174 -80.5 268t-230.5 94q-146 0 -249 -114t-103 -275zM664 -240q0 -67 -54 -120t-145 -52v50q65 3 102 32t37 74q-43 -20 -76.5 -3t-33.5 56q0 32 21.5 50
t53.5 18q43 0 69 -31t26 -74z" />
    <glyph glyph-name="Ncaron" unicode="&#x147;" horiz-adv-x="1460" 
d="M760 1616h-58l-264 254h86l207 -197l209 197h86zM1198 0l-954 1370v-1370h-70v1470h84l959 -1374v1374h69v-1470h-88z" />
    <glyph glyph-name="ncaron" unicode="&#x148;" horiz-adv-x="1132" 
d="M602 1217h-57l-264 253h86l206 -196l209 196h86zM240 645v-645h-70v1071h68v-227q48 111 147 179.5t219 68.5q172 0 270.5 -104.5t98.5 -291.5v-696h-70v672q0 174 -80.5 268t-230.5 94q-146 0 -249 -114t-103 -275z" />
    <glyph glyph-name="Omacron" unicode="&#x14c;" horiz-adv-x="1652" 
d="M1092 1647h-531v57h531v-57zM827 -31q-157 0 -295 61t-234.5 164.5t-152 244.5t-55.5 298q0 156 55.5 297t152 243.5t234.5 163t295 60.5t294.5 -60.5t234 -163t152 -243.5t55.5 -297t-55.5 -297.5t-152 -245t-234.5 -164.5t-294 -61zM827 33q190 0 342 93.5t236 254
t84 356.5t-84 356t-236 252.5t-342 92.5q-143 0 -266.5 -54.5t-210.5 -148t-136.5 -223t-49.5 -275.5q0 -196 84 -356.5t236.5 -254t342.5 -93.5z" />
    <glyph glyph-name="omacron" unicode="&#x14d;" horiz-adv-x="1155" 
d="M842 1247h-531v58h531v-58zM578 -20q-217 0 -354.5 155t-137.5 402q0 244 137.5 398.5t354.5 154.5t354 -154.5t137 -398.5q0 -247 -137 -402t-354 -155zM578 37q186 0 303.5 138t117.5 362q0 221 -117.5 358t-303.5 137t-304 -137t-118 -358q0 -224 118 -362t304 -138z
" />
    <glyph glyph-name="Ohungarumlaut" unicode="&#x150;" horiz-adv-x="1652" 
d="M1008 1616h-90l204 254h92zM688 1616h-90l205 254h90zM827 -31q-157 0 -295 61t-234.5 164.5t-152 244.5t-55.5 298q0 156 55.5 297t152 243.5t234.5 163t295 60.5t294.5 -60.5t234 -163t152 -243.5t55.5 -297t-55.5 -297.5t-152 -245t-234.5 -164.5t-294 -61zM827 33
q190 0 342 93.5t236 254t84 356.5t-84 356t-236 252.5t-342 92.5q-143 0 -266.5 -54.5t-210.5 -148t-136.5 -223t-49.5 -275.5q0 -196 84 -356.5t236.5 -254t342.5 -93.5z" />
    <glyph glyph-name="ohungarumlaut" unicode="&#x151;" horiz-adv-x="1155" 
d="M758 1217h-90l204 253h93zM438 1217h-90l205 253h90zM578 -20q-217 0 -354.5 155t-137.5 402q0 244 137.5 398.5t354.5 154.5t354 -154.5t137 -398.5q0 -247 -137 -402t-354 -155zM578 37q186 0 303.5 138t117.5 362q0 221 -117.5 358t-303.5 137t-304 -137t-118 -358
q0 -224 118 -362t304 -138z" />
    <glyph glyph-name="OE" unicode="&#x152;" horiz-adv-x="2256" 
d="M90 737q0 220 78.5 393.5t225 272t337.5 98.5q200 0 348.5 -113t218.5 -309v391h811v-61h-741v-618h680v-62h-680v-668h756v-61h-826v397q-70 -199 -218.5 -313.5t-348.5 -114.5q-191 0 -337.5 99.5t-225 274t-78.5 394.5zM164 737q0 -207 69 -366.5t199 -248.5t301 -89
q257 0 411 194.5t154 509.5q0 207 -68.5 365.5t-197 247t-299.5 88.5q-259 0 -414 -193.5t-155 -507.5z" />
    <glyph glyph-name="oe" unicode="&#x153;" horiz-adv-x="1945" 
d="M86 537q0 245 133.5 399t337.5 154q152 0 267.5 -88.5t166.5 -241.5q49 155 161.5 243.5t258.5 88.5q211 0 330.5 -152.5t113.5 -419.5h-827q4 -232 111 -358.5t282 -126.5q150 0 248.5 86t124.5 239h66q-29 -173 -149 -278t-290 -105q-158 0 -270.5 87t-159.5 247
q-51 -154 -166.5 -242.5t-267.5 -88.5q-205 0 -338 154.5t-133 402.5zM1411 1034q-162 0 -268.5 -122.5t-112.5 -333.5h756q-10 222 -109.5 339t-265.5 117zM156 537q0 -224 110.5 -362t290.5 -138t290.5 137.5t110.5 362.5q0 223 -110.5 359t-290.5 136q-179 0 -290 -136.5
t-111 -358.5z" />
    <glyph glyph-name="Racute" unicode="&#x154;" horiz-adv-x="1253" 
d="M662 1616h-91l207 254h90zM246 0h-72v1470h498q213 0 338 -113t125 -315q0 -175 -108.5 -291t-291.5 -133l434 -618h-86l-428 614h-409v-614zM246 1409v-733h413q186 0 295 96t109 270t-109 270.5t-295 96.5h-413z" />
    <glyph glyph-name="racute" unicode="&#x155;" horiz-adv-x="661" 
d="M467 1217h-90l207 253h90zM240 602v-602h-70v1071h68v-264q53 129 162 207t241 78v-74q-166 0 -283.5 -121t-117.5 -295z" />
    <glyph glyph-name="Rcommaaccent" unicode="&#x156;" horiz-adv-x="1253" 
d="M246 0h-72v1470h498q213 0 338 -113t125 -315q0 -175 -108.5 -291t-291.5 -133l434 -618h-86l-428 614h-409v-614zM246 1409v-733h413q186 0 295 96t109 270t-109 270.5t-295 96.5h-413zM705 -240q0 -67 -54 -120t-145 -52v50q65 3 102 32t37 74q-43 -20 -76.5 -3
t-33.5 56q0 32 21.5 50t53.5 18q43 0 69 -31t26 -74z" />
    <glyph glyph-name="rcommaaccent" unicode="&#x157;" horiz-adv-x="661" 
d="M240 602v-602h-70v1071h68v-264q53 129 162 207t241 78v-74q-166 0 -283.5 -121t-117.5 -295zM295 -240q0 -67 -54 -120t-145 -52v50q65 3 102.5 32t37.5 74q-43 -20 -77 -3t-34 56q0 32 22 50t54 18q43 0 68.5 -31t25.5 -74z" />
    <glyph glyph-name="Rcaron" unicode="&#x158;" horiz-adv-x="1253" 
d="M643 1616h-57l-264 254h86l206 -197l209 197h86zM246 0h-72v1470h498q213 0 338 -113t125 -315q0 -175 -108.5 -291t-291.5 -133l434 -618h-86l-428 614h-409v-614zM246 1409v-733h413q186 0 295 96t109 270t-109 270.5t-295 96.5h-413z" />
    <glyph glyph-name="rcaron" unicode="&#x159;" horiz-adv-x="661" 
d="M449 1217h-58l-264 253h86l207 -196l209 196h86zM240 602v-602h-70v1071h68v-264q53 129 162 207t241 78v-74q-166 0 -283.5 -121t-117.5 -295z" />
    <glyph glyph-name="Sacute" unicode="&#x15a;" horiz-adv-x="1296" 
d="M676 1616h-90l207 254h90zM1153 381q0 -79 -32.5 -151t-94 -128t-158.5 -89t-217 -33q-240 0 -377 123t-145 325h74q14 -181 126.5 -283t321.5 -102q184 0 306 90.5t122 241.5q0 135 -78 203t-270 108l-158 33q-63 13 -112 28t-106 44t-94.5 67t-63 98.5t-25.5 135.5
q0 168 133.5 283.5t341.5 115.5q132 0 240.5 -53.5t175.5 -154.5t74 -232h-76q-9 165 -122.5 270.5t-291.5 105.5q-187 0 -294 -98.5t-107 -234.5q0 -62 21 -110.5t52 -79.5t83 -56t98.5 -38.5t113.5 -27.5l154 -32q194 -41 289.5 -124.5t95.5 -244.5z" />
    <glyph glyph-name="sacute" unicode="&#x15b;" horiz-adv-x="1026" 
d="M545 1217h-90l207 253h90zM918 274q0 -136 -106.5 -215t-291.5 -79q-183 0 -296 90.5t-126 248.5h66q10 -132 105.5 -207t250.5 -75q157 0 242.5 60t85.5 169q0 95 -59 146t-205 80l-135 26q-312 61 -312 287q0 126 103 206.5t266 80.5q175 0 282 -88t117 -242h-65
q-12 129 -100 200.5t-234 71.5q-134 0 -216.5 -62t-82.5 -163q0 -95 61.5 -148t204.5 -81l137 -27q161 -31 234.5 -97.5t73.5 -181.5z" />
    <glyph glyph-name="Scedilla" unicode="&#x15e;" horiz-adv-x="1296" 
d="M831 -248q0 -70 -54 -114t-132 -44q-82 0 -140.5 43t-68.5 119h62q9 -53 48.5 -81.5t98.5 -28.5q54 0 86.5 30t32.5 74q0 73 -59 106t-134 23l35 103q-219 10 -344 132t-133 314h74q14 -181 126.5 -283t321.5 -102q184 0 306 90.5t122 241.5q0 135 -78 203t-270 108
l-158 33q-63 13 -112 28t-106 44t-94.5 67t-63 98.5t-25.5 135.5q0 168 133.5 283.5t341.5 115.5q132 0 240.5 -53.5t175.5 -154.5t74 -232h-76q-9 165 -122.5 270.5t-291.5 105.5q-187 0 -294 -98.5t-107 -234.5q0 -62 21 -110.5t52 -79.5t83 -56t98.5 -38.5t113.5 -27.5
l154 -32q194 -41 289.5 -124.5t95.5 -244.5q0 -79 -32.5 -151t-92.5 -128t-154 -89t-208 -33l-23 -62q80 -2 134 -48.5t54 -117.5z" />
    <glyph glyph-name="scedilla" unicode="&#x15f;" horiz-adv-x="1026" 
d="M719 -248q0 -70 -54 -114t-133 -44q-82 0 -140 43t-68 119h61q9 -53 48.5 -81.5t98.5 -28.5q54 0 86.5 30t32.5 74q0 73 -58.5 106t-133.5 23l35 101q-172 8 -277.5 97.5t-118.5 241.5h66q10 -132 105.5 -207t250.5 -75q157 0 242.5 60t85.5 169q0 95 -59 146t-205 80
l-135 26q-312 61 -312 287q0 126 103 206.5t266 80.5q175 0 282 -88t117 -242h-65q-12 129 -100 200.5t-234 71.5q-134 0 -216.5 -62t-82.5 -163q0 -95 61.5 -148t204.5 -81l137 -27q161 -31 234.5 -97.5t73.5 -181.5q0 -130 -97 -208t-268 -86l-23 -62q81 -2 135 -48.5
t54 -117.5z" />
    <glyph glyph-name="Scaron" unicode="&#x160;" horiz-adv-x="1296" 
d="M657 1616h-57l-264 254h86l207 -197l209 197h86zM1153 381q0 -79 -32.5 -151t-94 -128t-158.5 -89t-217 -33q-240 0 -377 123t-145 325h74q14 -181 126.5 -283t321.5 -102q184 0 306 90.5t122 241.5q0 135 -78 203t-270 108l-158 33q-63 13 -112 28t-106 44t-94.5 67
t-63 98.5t-25.5 135.5q0 168 133.5 283.5t341.5 115.5q132 0 240.5 -53.5t175.5 -154.5t74 -232h-76q-9 165 -122.5 270.5t-291.5 105.5q-187 0 -294 -98.5t-107 -234.5q0 -62 21 -110.5t52 -79.5t83 -56t98.5 -38.5t113.5 -27.5l154 -32q194 -41 289.5 -124.5t95.5 -244.5z
" />
    <glyph glyph-name="scaron" unicode="&#x161;" horiz-adv-x="1026" 
d="M526 1217h-57l-264 253h86l207 -196l209 196h86zM918 274q0 -136 -106.5 -215t-291.5 -79q-183 0 -296 90.5t-126 248.5h66q10 -132 105.5 -207t250.5 -75q157 0 242.5 60t85.5 169q0 95 -59 146t-205 80l-135 26q-312 61 -312 287q0 126 103 206.5t266 80.5
q175 0 282 -88t117 -242h-65q-12 129 -100 200.5t-234 71.5q-134 0 -216.5 -62t-82.5 -163q0 -95 61.5 -148t204.5 -81l137 -27q161 -31 234.5 -97.5t73.5 -181.5z" />
    <glyph glyph-name="Tcedilla" unicode="&#x162;" horiz-adv-x="1175" 
d="M623 0h-17l-28 -82q80 -2 134 -48.5t54 -117.5q0 -70 -54 -114t-132 -44q-82 0 -140.5 43t-68.5 119h61q9 -53 49 -81.5t99 -28.5q54 0 86 30t32 74q0 73 -58.5 106t-133.5 23l47 135v1395h-508v61h1085v-61h-507v-1409z" />
    <glyph glyph-name="tcedilla" unicode="&#x163;" horiz-adv-x="739" 
d="M659 63v-63q-59 -20 -120 -20q-39 0 -76 6l-25 -68q81 -2 135 -48.5t54 -117.5q0 -70 -54 -114t-133 -44q-82 0 -140.5 43t-68.5 119h62q9 -53 48.5 -81.5t98.5 -28.5q54 0 86.5 30t32.5 74q0 73 -58.5 106t-133.5 23l43 121q-160 60 -160 279v737h-270v55h270v318h69
v-318h353v-55h-353v-725q0 -248 224 -248q60 0 116 20z" />
    <glyph glyph-name="Tcaron" unicode="&#x164;" horiz-adv-x="1175" 
d="M616 1616h-57l-264 254h86l207 -197l209 197h86zM623 0h-70v1409h-508v61h1085v-61h-507v-1409z" />
    <glyph glyph-name="tcaron" unicode="&#x165;" horiz-adv-x="739" 
d="M498 1178h-47v292h73zM659 63v-63q-59 -20 -120 -20q-62 0 -111.5 15.5t-91 48.5t-64 93t-22.5 142v737h-270v55h270v318h69v-318h353v-55h-353v-725q0 -248 224 -248q60 0 116 20z" />
    <glyph glyph-name="Umacron" unicode="&#x16a;" horiz-adv-x="1343" 
d="M936 1647h-530v57h530v-57zM1174 1470v-995q0 -237 -138.5 -371.5t-363.5 -134.5t-363.5 134.5t-138.5 371.5v995h72v-1003q0 -197 123 -315.5t307 -118.5q185 0 308.5 118.5t123.5 315.5v1003h70z" />
    <glyph glyph-name="umacron" unicode="&#x16b;" horiz-adv-x="1112" 
d="M821 1247h-530v58h530v-58zM872 422v649h70v-1071h-68v221q-41 -107 -138 -174t-220 -67q-169 0 -262.5 96.5t-93.5 290.5v704h69v-686q0 -181 80 -264.5t217 -83.5q154 0 250 110.5t96 274.5z" />
    <glyph glyph-name="Uring" unicode="&#x16e;" horiz-adv-x="1343" 
d="M672 1608q-89 0 -150 58t-61 140t61 140.5t150 58.5t151 -58.5t62 -140.5t-62 -140t-151 -58zM672 1661q65 0 107 38.5t42 106.5q0 67 -42 105.5t-107 38.5q-64 0 -106 -38.5t-42 -105.5q0 -68 42 -106.5t106 -38.5zM1174 1470v-995q0 -237 -138.5 -371.5t-363.5 -134.5
t-363.5 134.5t-138.5 371.5v995h72v-1003q0 -197 123 -315.5t307 -118.5q185 0 308.5 118.5t123.5 315.5v1003h70z" />
    <glyph glyph-name="uring" unicode="&#x16f;" horiz-adv-x="1112" 
d="M557 1208q-89 0 -150 58.5t-61 140.5t61 140.5t150 58.5t151 -58.5t62 -140.5t-62 -140.5t-151 -58.5zM557 1262q65 0 107.5 38.5t42.5 106.5q0 67 -42.5 105t-107.5 38q-64 0 -105.5 -38t-41.5 -105q0 -68 41.5 -106.5t105.5 -38.5zM872 422v649h70v-1071h-68v221
q-41 -107 -138 -174t-220 -67q-169 0 -262.5 96.5t-93.5 290.5v704h69v-686q0 -181 80 -264.5t217 -83.5q154 0 250 110.5t96 274.5z" />
    <glyph glyph-name="Uhungarumlaut" unicode="&#x170;" horiz-adv-x="1343" 
d="M852 1616h-90l205 254h92zM532 1616h-90l205 254h90zM1174 1470v-995q0 -237 -138.5 -371.5t-363.5 -134.5t-363.5 134.5t-138.5 371.5v995h72v-1003q0 -197 123 -315.5t307 -118.5q185 0 308.5 118.5t123.5 315.5v1003h70z" />
    <glyph glyph-name="uhungarumlaut" unicode="&#x171;" horiz-adv-x="1112" 
d="M737 1217h-90l205 253h92zM418 1217h-90l204 253h91zM872 422v649h70v-1071h-68v221q-41 -107 -138 -174t-220 -67q-169 0 -262.5 96.5t-93.5 290.5v704h69v-686q0 -181 80 -264.5t217 -83.5q154 0 250 110.5t96 274.5z" />
    <glyph glyph-name="Uogonek" unicode="&#x172;" horiz-adv-x="1343" 
d="M915 -328v-59q-55 -21 -102 -21q-77 0 -126.5 48t-49.5 124q0 113 125 211q-44 -6 -90 -6q-225 0 -363.5 134.5t-138.5 371.5v995h72v-1003q0 -197 123 -315.5t307 -118.5q185 0 308.5 118.5t123.5 315.5v1003h70v-995q0 -173 -76.5 -293t-210.5 -174q-82 -43 -132 -98
t-50 -137q0 -54 32.5 -87.5t87.5 -33.5q43 0 90 20z" />
    <glyph glyph-name="uogonek" unicode="&#x173;" horiz-adv-x="1112" 
d="M872 422v649h70v-1071h-27q-77 -42 -122 -95t-45 -132q0 -54 32.5 -87.5t87.5 -33.5q43 0 90 20v-59q-56 -21 -102 -21q-77 0 -126.5 48t-49.5 124q0 145 194 259v198q-41 -107 -138 -174t-220 -67q-169 0 -262.5 96.5t-93.5 290.5v704h69v-686q0 -181 80 -264.5
t217 -83.5q154 0 250 110.5t96 274.5z" />
    <glyph glyph-name="Wcircumflex" unicode="&#x174;" horiz-adv-x="1847" 
d="M717 1616h-86l264 254h57l267 -254h-86l-209 196zM1305 0l-381 1382l-383 -1382h-78l-393 1470h69l361 -1378l383 1378h82l381 -1380l362 1380h70l-392 -1470h-81z" />
    <glyph glyph-name="wcircumflex" unicode="&#x175;" horiz-adv-x="1499" 
d="M543 1217h-86l264 253h57l266 -253h-86l-208 196zM1071 0l-321 981l-322 -981h-74l-317 1071h72l282 -973l324 973h67l324 -975l283 975h73l-319 -1071h-72z" />
    <glyph glyph-name="Ycircumflex" unicode="&#x176;" horiz-adv-x="1208" 
d="M397 1616h-86l264 254h58l266 -254h-86l-209 196zM639 551v-551h-72v551l-542 919h79l500 -849l502 849h78z" />
    <glyph glyph-name="ycircumflex" unicode="&#x177;" horiz-adv-x="937" 
d="M262 1217h-86l264 253h58l266 -253h-86l-209 196zM922 1071l-564 -1466h-71l157 409l-428 1057h74l389 -967l369 967h74z" />
    <glyph glyph-name="Ydieresis" unicode="&#x178;" horiz-adv-x="1208" 
d="M850 1724q0 -34 -24 -59t-60 -25t-61 25t-25 59q0 37 24.5 60.5t61.5 23.5t60.5 -23.5t23.5 -60.5zM528 1724q0 -34 -24 -59t-60 -25q-37 0 -61.5 24.5t-24.5 59.5q0 37 24 60.5t62 23.5q37 0 60.5 -23.5t23.5 -60.5zM639 551v-551h-72v551l-542 919h79l500 -849l502 849
h78z" />
    <glyph glyph-name="Zacute" unicode="&#x179;" horiz-adv-x="1183" 
d="M639 1616h-90l207 254h90zM1110 0h-1036v41l909 1368h-868v61h960v-40l-909 -1369h944v-61z" />
    <glyph glyph-name="zacute" unicode="&#x17a;" horiz-adv-x="925" 
d="M512 1217h-90l207 253h90zM877 0h-828v39l715 975h-682v57h766v-45l-709 -969h738v-57z" />
    <glyph glyph-name="Zdotaccent" unicode="&#x17b;" horiz-adv-x="1183" 
d="M672 1718q0 -34 -22 -56t-56 -22t-56 22t-22 56q0 32 22 53t56 21t56 -21t22 -53zM1110 0h-1036v41l909 1368h-868v61h960v-40l-909 -1369h944v-61z" />
    <glyph glyph-name="zdotaccent" unicode="&#x17c;" horiz-adv-x="925" 
d="M545 1319q0 -34 -22 -56t-56 -22t-56 22t-22 56q0 32 22 53t56 21t56 -21t22 -53zM877 0h-828v39l715 975h-682v57h766v-45l-709 -969h738v-57z" />
    <glyph glyph-name="Zcaron" unicode="&#x17d;" horiz-adv-x="1183" 
d="M621 1616h-58l-264 254h86l207 -197l209 197h86zM1110 0h-1036v41l909 1368h-868v61h960v-40l-909 -1369h944v-61z" />
    <glyph glyph-name="zcaron" unicode="&#x17e;" horiz-adv-x="925" 
d="M494 1217h-58l-264 253h86l207 -196l209 196h86zM877 0h-828v39l715 975h-682v57h766v-45l-709 -969h738v-57z" />
    <glyph glyph-name="florin" unicode="&#x192;" horiz-adv-x="1150" 
d="M608 653l-137 -526q-68 -262 -299 -262q-66 0 -119 18v62q58 -17 117 -17q178 0 231 203l138 522h-404v56h418l106 399q37 140 111 218.5t205 78.5q51 0 102 -14v-64q-41 14 -102 14q-103 0 -160 -56.5t-88 -174.5l-104 -401h372v-56h-387z" />
    <glyph glyph-name="Scommaaccent" unicode="&#x218;" horiz-adv-x="1296" 
d="M1153 381q0 -79 -32.5 -151t-94 -128t-158.5 -89t-217 -33q-240 0 -377 123t-145 325h74q14 -181 126.5 -283t321.5 -102q184 0 306 90.5t122 241.5q0 135 -78 203t-270 108l-158 33q-63 13 -112 28t-106 44t-94.5 67t-63 98.5t-25.5 135.5q0 168 133.5 283.5
t341.5 115.5q132 0 240.5 -53.5t175.5 -154.5t74 -232h-76q-9 165 -122.5 270.5t-291.5 105.5q-187 0 -294 -98.5t-107 -234.5q0 -62 21 -110.5t52 -79.5t83 -56t98.5 -38.5t113.5 -27.5l154 -32q194 -41 289.5 -124.5t95.5 -244.5zM743 -240q0 -67 -53.5 -120t-144.5 -52
v50q65 3 102 32t37 74q-43 -20 -77 -3t-34 56q0 32 22 50t54 18q43 0 68.5 -31t25.5 -74z" />
    <glyph glyph-name="scommaaccent" unicode="&#x219;" horiz-adv-x="1026" 
d="M918 274q0 -136 -106.5 -215t-291.5 -79q-183 0 -296 90.5t-126 248.5h66q10 -132 105.5 -207t250.5 -75q157 0 242.5 60t85.5 169q0 95 -59 146t-205 80l-135 26q-312 61 -312 287q0 126 103 206.5t266 80.5q175 0 282 -88t117 -242h-65q-12 129 -100 200.5t-234 71.5
q-134 0 -216.5 -62t-82.5 -163q0 -95 61.5 -148t204.5 -81l137 -27q161 -31 234.5 -97.5t73.5 -181.5zM631 -240q0 -67 -54 -120t-145 -52v50q65 3 102 32t37 74q-43 -20 -76.5 -3t-33.5 56q0 32 22 50t54 18q43 0 68.5 -31t25.5 -74z" />
    <glyph glyph-name="Tcommaaccent" unicode="&#x21a;" horiz-adv-x="1175" 
d="M623 0h-70v1409h-508v61h1085v-61h-507v-1409zM678 -240q0 -67 -54 -120t-145 -52v50q65 3 102 32t37 74q-43 -20 -76.5 -3t-33.5 56q0 32 22 50t54 18q43 0 68.5 -31t25.5 -74z" />
    <glyph glyph-name="tcommaaccent" unicode="&#x21b;" horiz-adv-x="739" 
d="M659 63v-63q-59 -20 -120 -20q-62 0 -111.5 15.5t-91 48.5t-64 93t-22.5 142v737h-270v55h270v318h69v-318h353v-55h-353v-725q0 -248 224 -248q60 0 116 20zM539 -240q0 -67 -54 -120t-145 -52v50q65 3 102 32t37 74q-43 -20 -76.5 -3t-33.5 56q0 32 21.5 50t53.5 18
q43 0 69 -31t26 -74z" />
    <glyph glyph-name="dotlessj" unicode="&#x237;" horiz-adv-x="409" 
d="M240 1071v-1229q0 -122 -68.5 -190t-191.5 -68q-73 0 -123 21v61q55 -18 118 -18q93 0 144 48.5t51 145.5v1229h70z" />
    <glyph glyph-name="circumflex" unicode="&#x2c6;" 
d="M305 1217h-86l264 253h58l266 -253h-86l-209 196z" />
    <glyph glyph-name="caron" unicode="&#x2c7;" 
d="M539 1217h-58l-264 253h86l207 -196l209 196h86z" />
    <glyph glyph-name="macronmod" unicode="&#x2c9;" 
d="M776 1247h-530v58h530v-58z" />
    <glyph glyph-name="breve" unicode="&#x2d8;" 
d="M713 1470h67q0 -111 -74.5 -185.5t-193.5 -74.5t-192.5 74.5t-73.5 185.5h65q0 -89 54.5 -145.5t146.5 -56.5q93 0 147 56t54 146z" />
    <glyph glyph-name="dotaccent" unicode="&#x2d9;" 
d="M590 1319q0 -34 -22 -56t-56 -22t-56 22t-22 56q0 32 22 53t56 21t56 -21t22 -53z" />
    <glyph glyph-name="ring" unicode="&#x2da;" 
d="M512 1208q-89 0 -150 58.5t-61 140.5t61 140.5t150 58.5t151 -58.5t62 -140.5t-62 -140.5t-151 -58.5zM512 1262q65 0 107.5 38.5t42.5 106.5q0 67 -42.5 105t-107.5 38q-64 0 -105.5 -38t-41.5 -105q0 -68 41.5 -106.5t105.5 -38.5z" />
    <glyph glyph-name="ogonek" unicode="&#x2db;" 
d="M653 -328v-59q-56 -21 -102 -21q-77 0 -126.5 48t-49.5 124q0 151 215 271l35 -27q-83 -43 -133 -98t-50 -137q0 -54 33 -87.5t88 -33.5q43 0 90 20z" />
    <glyph glyph-name="tilde" unicode="&#x2dc;" 
d="M262 1217h-57q-4 115 40 179t126 64q37 0 70 -18t58 -43.5t48.5 -51t50.5 -43.5t55 -18q52 0 79.5 48t27.5 136h59q4 -114 -41 -178.5t-125 -64.5q-37 0 -70 18t-58 43.5t-48.5 51t-50.5 43.5t-55 18q-52 0 -80.5 -48t-28.5 -136z" />
    <glyph glyph-name="hungarumlaut" unicode="&#x2dd;" 
d="M614 1217h-90l205 253h92zM295 1217h-90l205 253h90z" />
    <glyph glyph-name="gravecomb" unicode="&#x300;" 
d="M662 1217h-91l-209 253h91z" />
    <glyph glyph-name="acutecomb" unicode="&#x301;" 
d="M453 1217h-91l207 253h90z" />
    <glyph glyph-name="circumflexcomb" unicode="&#x302;" 
d="M305 1217h-86l264 253h58l266 -253h-86l-209 196z" />
    <glyph glyph-name="tildecomb" unicode="&#x303;" 
d="M262 1217h-57q-4 115 40 179t126 64q37 0 70 -18t58 -43.5t48.5 -51t50.5 -43.5t55 -18q52 0 79.5 48t27.5 136h59q4 -114 -41 -178.5t-125 -64.5q-37 0 -70 18t-58 43.5t-48.5 51t-50.5 43.5t-55 18q-52 0 -80.5 -48t-28.5 -136z" />
    <glyph glyph-name="macroncomb" unicode="&#x304;" 
d="M778 1247h-530v58h530v-58z" />
    <glyph glyph-name="brevecomb" unicode="&#x306;" 
d="M713 1470h67q0 -111 -74.5 -185.5t-193.5 -74.5t-192.5 74.5t-73.5 185.5h65q0 -89 54.5 -145.5t146.5 -56.5q93 0 147 56t54 146z" />
    <glyph glyph-name="dotaccentcomb" unicode="&#x307;" 
d="M590 1319q0 -34 -22 -56t-56 -22t-56 22t-22 56q0 32 22 53t56 21t56 -21t22 -53z" />
    <glyph glyph-name="dieresiscomb" unicode="&#x308;" 
d="M758 1325q0 -34 -24 -59t-60 -25t-61 25t-25 59q0 37 24.5 60.5t61.5 23.5t60.5 -23.5t23.5 -60.5zM436 1325q0 -34 -24 -59t-60 -25q-37 0 -61.5 24.5t-24.5 59.5q0 37 24 60.5t62 23.5q37 0 60.5 -23.5t23.5 -60.5z" />
    <glyph glyph-name="ringcomb" unicode="&#x30a;" 
d="M512 1208q-89 0 -150 58.5t-61 140.5t61 140.5t150 58.5t151 -58.5t62 -140.5t-62 -140.5t-151 -58.5zM512 1262q65 0 107.5 38.5t42.5 106.5q0 67 -42.5 105t-107.5 38q-64 0 -105.5 -38t-41.5 -105q0 -68 41.5 -106.5t105.5 -38.5z" />
    <glyph glyph-name="hungarumlautcomb" unicode="&#x30b;" 
d="M614 1217h-90l205 253h92zM295 1217h-90l205 253h90z" />
    <glyph glyph-name="caroncomb" unicode="&#x30c;" 
d="M539 1217h-58l-264 253h86l207 -196l209 196h86z" />
    <glyph glyph-name="commaturnedabovecomb" unicode="&#x312;" 
d="M414 1311q0 67 53.5 119.5t144.5 52.5v-49q-65 -3 -102 -32.5t-37 -74.5q23 10 43 10q30 0 49 -17t19 -46q0 -32 -22 -50t-54 -18q-43 0 -68.5 31t-25.5 74z" />
    <glyph glyph-name="commaaccentcomb" unicode="&#x326;" 
d="M610 -240q0 -67 -53.5 -120t-144.5 -52v50q65 3 102 32t37 74q-43 -20 -77 -3t-34 56q0 32 22 50t54 18q43 0 68.5 -31t25.5 -74z" />
    <glyph glyph-name="cedillacomb" unicode="&#x327;" 
d="M709 -248q0 -70 -54 -114t-133 -44q-82 0 -140.5 43t-68.5 119h62q9 -53 48.5 -81.5t98.5 -28.5q54 0 86.5 30t32.5 74q0 73 -58.5 106t-133.5 23l47 135h59l-35 -96q81 -2 135 -48.5t54 -117.5z" />
    <glyph glyph-name="ogonekcomb" unicode="&#x328;" 
d="M653 -328v-59q-56 -21 -102 -21q-77 0 -126.5 48t-49.5 124q0 151 215 271l35 -27q-83 -43 -133 -98t-50 -137q0 -54 33 -87.5t88 -33.5q43 0 90 20z" />
    <glyph glyph-name="strokeshortcomb" unicode="&#x335;" 
d="M778 1247h-530v58h530v-58z" />
    <glyph glyph-name="slashshortcomb" unicode="&#x337;" 
d="M813 793l-600 -172v57l600 174v-59z" />
    <glyph glyph-name="slashlongcomb" unicode="&#x338;" 
d="M104 0h-75l889 1071h75z" />
    <glyph glyph-name="Delta" unicode="&#x394;" horiz-adv-x="1357" 
d="M1298 0h-1239l582 1470h78zM678 1397l-526 -1336h1052z" />
    <glyph glyph-name="Omega" unicode="&#x3a9;" horiz-adv-x="1394" 
d="M635 0h-559v61h491v166q-108 29 -198 83t-158.5 131.5t-106.5 183t-38 229.5q0 178 80 323t225 229.5t327 84.5t327 -84.5t224.5 -229.5t79.5 -323q0 -123 -38.5 -229t-106.5 -183.5t-158 -131.5t-197 -83v-166h490v-61h-557v272q232 48 363.5 199t131.5 383
q0 116 -40 220.5t-111 183.5t-177 125.5t-231 46.5t-231 -46.5t-177 -125.5t-111 -183.5t-40 -220.5q0 -231 132 -382.5t364 -199.5v-272z" />
    <glyph glyph-name="mu" unicode="&#x3bc;" horiz-adv-x="1122" 
d="M545 -20q-103 0 -184.5 40.5t-124.5 120.5l6 -536h-72v1466h70v-680q0 -178 83 -266t222 -88q155 0 246.5 104t91.5 269v661h69v-1071h-67v205q-39 -102 -130 -163.5t-210 -61.5z" />
    <glyph glyph-name="pi" unicode="&#x3c0;" horiz-adv-x="1122" 
d="M942 -20q-114 0 -184 65t-70 213v758h-340l-108 -1016h-66l111 1016h-305v55h1075v-55h-297v-752q0 -221 190 -221q50 0 96 20v-63q-51 -20 -102 -20z" />
    <glyph glyph-name="Wgrave" unicode="&#x1e80;" horiz-adv-x="1847" 
d="M967 1616h-90l-209 254h90zM1305 0l-381 1382l-383 -1382h-78l-393 1470h69l361 -1378l383 1378h82l381 -1380l362 1380h70l-392 -1470h-81z" />
    <glyph glyph-name="wgrave" unicode="&#x1e81;" horiz-adv-x="1499" 
d="M793 1217h-91l-208 253h90zM1071 0l-321 981l-322 -981h-74l-317 1071h72l282 -973l324 973h67l324 -975l283 975h73l-319 -1071h-72z" />
    <glyph glyph-name="Wacute" unicode="&#x1e82;" horiz-adv-x="1847" 
d="M971 1616h-90l206 254h91zM1305 0l-381 1382l-383 -1382h-78l-393 1470h69l361 -1378l383 1378h82l381 -1380l362 1380h70l-392 -1470h-81z" />
    <glyph glyph-name="wacute" unicode="&#x1e83;" horiz-adv-x="1499" 
d="M797 1217h-90l206 253h91zM1071 0l-321 981l-322 -981h-74l-317 1071h72l282 -973l324 973h67l324 -975l283 975h73l-319 -1071h-72z" />
    <glyph glyph-name="Wdieresis" unicode="&#x1e84;" horiz-adv-x="1847" 
d="M1169 1724q0 -34 -24 -59t-60 -25t-61 25t-25 59q0 37 24.5 60.5t61.5 23.5t60.5 -23.5t23.5 -60.5zM848 1724q0 -34 -24 -59t-60 -25q-37 0 -61.5 24.5t-24.5 59.5q0 37 24 60.5t62 23.5q37 0 60.5 -23.5t23.5 -60.5zM1305 0l-381 1382l-383 -1382h-78l-393 1470h69
l361 -1378l383 1378h82l381 -1380l362 1380h70l-392 -1470h-81z" />
    <glyph glyph-name="wdieresis" unicode="&#x1e85;" horiz-adv-x="1499" 
d="M995 1325q0 -34 -24 -59t-60 -25t-61 25t-25 59q0 37 24.5 60.5t61.5 23.5t60.5 -23.5t23.5 -60.5zM674 1325q0 -34 -24 -59t-60 -25q-37 0 -61.5 24.5t-24.5 59.5q0 37 24 60.5t62 23.5q37 0 60.5 -23.5t23.5 -60.5zM1071 0l-321 981l-322 -981h-74l-317 1071h72
l282 -973l324 973h67l324 -975l283 975h73l-319 -1071h-72z" />
    <glyph glyph-name="Ygrave" unicode="&#x1ef2;" horiz-adv-x="1208" 
d="M647 1616h-90l-209 254h90zM639 551v-551h-72v551l-542 919h79l500 -849l502 849h78z" />
    <glyph glyph-name="ygrave" unicode="&#x1ef3;" horiz-adv-x="937" 
d="M512 1217h-90l-209 253h90zM922 1071l-564 -1466h-71l157 409l-428 1057h74l389 -967l369 967h74z" />
    <glyph glyph-name="endash" unicode="&#x2013;" 
d="M983 539h-942v59h942v-59z" />
    <glyph glyph-name="emdash" unicode="&#x2014;" horiz-adv-x="1536" 
d="M1495 539h-1454v59h1454v-59z" />
    <glyph glyph-name="quoteleft" unicode="&#x2018;" horiz-adv-x="524" 
d="M156 1239q0 88 61 162t174 80v-54q-74 -7 -121.5 -55t-50.5 -112q20 10 49 10q38 0 63 -24t25 -60q0 -39 -26 -62.5t-64 -23.5q-56 0 -83 39t-27 100z" />
    <glyph glyph-name="quoteright" unicode="&#x2019;" horiz-adv-x="524" 
d="M369 1341q0 -40 -14.5 -80t-42 -75.5t-74 -59t-105.5 -26.5v53q74 7 121.5 55.5t50.5 112.5q-20 -10 -49 -10q-38 0 -63 24t-25 60q0 39 26 62.5t64 23.5q56 0 83.5 -39.5t27.5 -100.5z" />
    <glyph glyph-name="quotesinglbase" unicode="&#x201a;" horiz-adv-x="524" 
d="M369 45q0 -88 -61.5 -162t-174.5 -80v54q74 7 121.5 55.5t50.5 112.5q-25 -11 -51 -11q-37 0 -61.5 24.5t-24.5 59.5q0 39 26 62.5t64 23.5q56 0 83.5 -39t27.5 -100z" />
    <glyph glyph-name="quotedblleft" unicode="&#x201c;" horiz-adv-x="851" 
d="M156 1239q0 88 61 162t174 80v-54q-74 -7 -121.5 -55t-50.5 -112q20 10 49 10q38 0 63 -24t25 -60q0 -39 -26 -62.5t-64 -23.5q-56 0 -83 39t-27 100zM483 1239q0 88 61.5 162t174.5 80v-54q-74 -7 -121.5 -55t-50.5 -112q20 10 49 10q38 0 63 -24t25 -60
q0 -39 -26 -62.5t-64 -23.5q-56 0 -83.5 39t-27.5 100z" />
    <glyph glyph-name="quotedblright" unicode="&#x201d;" horiz-adv-x="851" 
d="M369 1341q0 -40 -14.5 -80t-42 -75.5t-74 -59t-105.5 -26.5v53q74 7 121.5 55.5t50.5 112.5q-20 -10 -49 -10q-38 0 -63 24t-25 60q0 39 26 62.5t64 23.5q56 0 83.5 -39.5t27.5 -100.5zM696 1341q0 -88 -61 -161.5t-174 -79.5v53q74 7 121.5 55.5t50.5 112.5
q-20 -10 -49 -10q-38 0 -63 24t-25 60q0 39 26 62.5t64 23.5q56 0 83 -39.5t27 -100.5z" />
    <glyph glyph-name="quotedblbase" unicode="&#x201e;" horiz-adv-x="851" 
d="M369 45q0 -88 -61.5 -162t-174.5 -80v54q74 7 121.5 55.5t50.5 112.5q-25 -11 -51 -11q-37 0 -61.5 24.5t-24.5 59.5q0 39 26 62.5t64 23.5q56 0 83.5 -39t27.5 -100zM696 45q0 -88 -61 -162t-174 -80v54q74 7 121.5 55.5t50.5 112.5q-25 -11 -51 -11q-37 0 -61.5 24.5
t-24.5 59.5q0 39 26 62.5t64 23.5q56 0 83 -39t27 -100z" />
    <glyph glyph-name="dagger" unicode="&#x2020;" horiz-adv-x="1351" 
d="M707 -395h-62v1327h-481v57h481v481h62v-481h481v-57h-481v-1327z" />
    <glyph glyph-name="daggerdbl" unicode="&#x2021;" horiz-adv-x="1351" 
d="M707 -395h-62v481h-481v57h481v789h-481v57h481v481h62v-481h481v-57h-481v-789h481v-57h-481v-481z" />
    <glyph glyph-name="bullet" unicode="&#x2022;" 
d="M764 539q0 -107 -71.5 -177.5t-180.5 -70.5q-108 0 -180 70.5t-72 177.5q0 112 72 184t180 72q109 0 180.5 -72t71.5 -184z" />
    <glyph glyph-name="ellipsis" unicode="&#x2026;" horiz-adv-x="1630" 
d="M358 86q0 -41 -27.5 -68.5t-68.5 -27.5t-68.5 27.5t-27.5 68.5q0 43 27.5 70.5t68.5 27.5t68.5 -27.5t27.5 -70.5zM911 86q0 -41 -27.5 -68.5t-68.5 -27.5t-68.5 27.5t-27.5 68.5q0 43 27.5 70.5t68.5 27.5t68.5 -27.5t27.5 -70.5zM1464 86q0 -41 -27.5 -68.5
t-68.5 -27.5t-68.5 27.5t-27.5 68.5q0 43 27.5 70.5t68.5 27.5t68.5 -27.5t27.5 -70.5z" />
    <glyph glyph-name="perthousand" unicode="&#x2030;" horiz-adv-x="3059" 
d="M483 537q-178 0 -287.5 123t-109.5 307q0 183 109.5 306.5t287.5 123.5t288 -123.5t110 -306.5q0 -184 -110 -307t-288 -123zM692 0h-65l774 1384h67zM483 592q140 0 235 101.5t95 273.5q0 174 -94.5 274t-235.5 100t-235 -100t-94 -274q0 -172 94.5 -273.5t234.5 -101.5
zM1616 -16q-178 0 -287.5 123t-109.5 307q0 183 109.5 306.5t287.5 123.5t287.5 -123.5t109.5 -306.5q0 -184 -109.5 -307t-287.5 -123zM2576 -16q-178 0 -287.5 123t-109.5 307q0 183 109.5 306.5t287.5 123.5t288 -123.5t110 -306.5q0 -184 -110 -307t-288 -123zM1616 39
q140 0 235 101.5t95 273.5q0 174 -94.5 274t-235.5 100t-235.5 -100t-94.5 -274q0 -172 95 -273.5t235 -101.5zM2576 39q140 0 235 101.5t95 273.5q0 174 -94.5 274t-235.5 100t-235 -100t-94 -274q0 -172 94.5 -273.5t234.5 -101.5z" />
    <glyph glyph-name="guilsinglleft" unicode="&#x2039;" horiz-adv-x="514" 
d="M432 127h-70l-280 420l280 420h70l-280 -420z" />
    <glyph glyph-name="guilsinglright" unicode="&#x203a;" horiz-adv-x="514" 
d="M82 967h70l280 -420l-280 -420h-70l280 420z" />
    <glyph glyph-name="fraction" unicode="&#x2044;" horiz-adv-x="292" 
d="M-209 0h-65l774 1384h67z" />
    <glyph glyph-name="zero.superior" unicode="&#x2070;" horiz-adv-x="757" 
d="M688 1468q0 -207 -79 -316.5t-230 -109.5q-152 0 -230.5 109t-78.5 317q0 207 80 318.5t229 111.5t229 -111.5t80 -318.5zM133 1468q0 -182 62.5 -276t183.5 -94q122 0 184 93.5t62 276.5q0 185 -62.5 280t-183.5 95t-183.5 -95t-62.5 -280z" />
    <glyph glyph-name="four.superior" unicode="&#x2074;" horiz-adv-x="729" 
d="M664 1264h-117v-209h-62v209h-440v36l463 586h39v-569h117v-53zM121 1317h364v459z" />
    <glyph glyph-name="five.superior" unicode="&#x2075;" horiz-adv-x="708" 
d="M645 1311q0 -119 -82.5 -194t-216.5 -75q-117 0 -195.5 67t-82.5 171h59q7 -83 67 -132.5t152 -49.5q110 0 174 57.5t64 155.5q0 88 -66.5 146.5t-167.5 58.5q-135 0 -211 -103l-45 10l80 463h422v-53h-379l-57 -336q83 74 196 74q128 0 208.5 -74.5t80.5 -185.5z" />
    <glyph glyph-name="six.superior" unicode="&#x2076;" horiz-adv-x="741" 
d="M672 1313q0 -116 -86 -193.5t-215 -77.5t-215 78.5t-86 194.5q0 32 7.5 62.5t15.5 50.5t28.5 50t30 42t36.5 45l271 321h69l-268 -317q59 20 121 20q124 0 207.5 -76t83.5 -200zM608 1313q0 97 -66.5 159t-170.5 62q-105 0 -171.5 -58.5t-66.5 -160.5q0 -93 68 -155
t170 -62q103 0 170 61.5t67 153.5z" />
    <glyph glyph-name="seven.superior" unicode="&#x2077;" horiz-adv-x="620" 
d="M596 1849l-369 -794h-65l368 778h-505v53h571v-37z" />
    <glyph glyph-name="eight.superior" unicode="&#x2078;" horiz-adv-x="790" 
d="M700 1278q0 -105 -85 -169.5t-220 -64.5t-220 64.5t-85 169.5q0 81 53.5 135t137.5 74q-66 24 -108 75t-42 117q0 97 76 158t188 61q111 0 187.5 -61.5t76.5 -157.5q0 -66 -42 -117.5t-107 -74.5q84 -20 137 -74t53 -135zM195 1677q0 -75 55.5 -119.5t144.5 -44.5
t145 44.5t56 119.5q0 77 -56 121.5t-145 44.5t-144.5 -44.5t-55.5 -121.5zM154 1280q0 -83 67.5 -131.5t173.5 -48.5q105 0 173.5 48.5t68.5 131.5q0 84 -68 131t-174 47q-107 0 -174 -47t-67 -131z" />
    <glyph glyph-name="nine.superior" unicode="&#x2079;" horiz-adv-x="745" 
d="M72 1628q0 116 86 193t215 77t215 -78t86 -194q0 -39 -8 -72.5t-28 -66t-35.5 -53t-47.5 -58.5l-270 -321h-70l268 317q-59 -20 -121 -20q-124 0 -207 76t-83 200zM135 1628q0 -97 67 -159t171 -62q105 0 171 58.5t66 160.5q0 93 -67.5 155t-169.5 62
q-103 0 -170.5 -61.5t-67.5 -153.5z" />
    <glyph glyph-name="zero.inferior" unicode="&#x2080;" horiz-adv-x="757" 
d="M688 -2q0 -207 -79 -316.5t-230 -109.5q-152 0 -230.5 109t-78.5 317q0 207 80 318.5t229 111.5t229 -111.5t80 -318.5zM133 -2q0 -182 62.5 -276.5t183.5 -94.5t183.5 94t62.5 277q0 185 -62.5 280t-183.5 95t-183.5 -95t-62.5 -280z" />
    <glyph glyph-name="one.inferior" unicode="&#x2081;" horiz-adv-x="430" 
d="M262 -416h-61v778h-178v54h239v-832z" />
    <glyph glyph-name="two.inferior" unicode="&#x2082;" horiz-adv-x="655" 
d="M588 -362v-54h-512v35l291 311q79 84 115 142t36 125q0 74 -56 125t-143 51q-90 0 -146 -52.5t-56 -132.5h-60q1 106 77 173t188 67q114 0 187 -64t73 -163q0 -40 -11.5 -76.5t-40.5 -77t-51 -66.5t-69 -77l-248 -266h426z" />
    <glyph glyph-name="three.inferior" unicode="&#x2083;" horiz-adv-x="757" 
d="M668 -190q0 -105 -81 -170.5t-210 -65.5q-128 0 -209 64.5t-84 171.5h59q4 -82 69.5 -131.5t166.5 -49.5q103 0 164 49t61 132q0 81 -67.5 128.5t-176.5 47.5h-86v53h86q88 0 145.5 48.5t57.5 123.5q0 71 -53 116.5t-139 45.5q-87 0 -141 -46t-60 -120h-59q5 95 78 158
t184 63q113 0 183.5 -61t70.5 -154q0 -66 -41 -117.5t-115 -79.5q92 -22 144.5 -76t52.5 -130z" />
    <glyph glyph-name="four.inferior" unicode="&#x2084;" horiz-adv-x="729" 
d="M664 -207h-117v-209h-62v209h-440v37l463 586h39v-570h117v-53zM121 -154h364v459z" />
    <glyph glyph-name="five.inferior" unicode="&#x2085;" horiz-adv-x="708" 
d="M645 -160q0 -119 -82.5 -193.5t-216.5 -74.5q-117 0 -195.5 67t-82.5 171h59q8 -83 67.5 -133t151.5 -50q110 0 174 57.5t64 155.5q0 88 -66.5 146.5t-167.5 58.5q-135 0 -211 -102l-45 10l80 463h422v-54h-379l-57 -335q82 73 196 73q128 0 208.5 -74.5t80.5 -185.5z
" />
    <glyph glyph-name="six.inferior" unicode="&#x2086;" horiz-adv-x="741" 
d="M672 -158q0 -116 -86 -193t-215 -77t-215 78t-86 194q0 32 7.5 62.5t15.5 50.5t28.5 50t30 42t36.5 45l271 322h69l-268 -318q62 21 121 21q124 0 207.5 -76.5t83.5 -200.5zM608 -158q0 97 -66.5 159t-170.5 62q-105 0 -171.5 -58.5t-66.5 -160.5q0 -93 68 -155t170 -62
q103 0 170 61.5t67 153.5z" />
    <glyph glyph-name="seven.inferior" unicode="&#x2087;" horiz-adv-x="620" 
d="M596 379l-369 -795h-65l368 778h-505v54h571v-37z" />
    <glyph glyph-name="eight.inferior" unicode="&#x2088;" horiz-adv-x="790" 
d="M700 -193q0 -105 -85 -169t-220 -64t-220 64t-85 169q0 81 53.5 135t137.5 74q-66 24 -108 75.5t-42 117.5q0 97 76 158t188 61q111 0 187.5 -61.5t76.5 -157.5q0 -66 -42.5 -118t-106.5 -75q84 -20 137 -74t53 -135zM195 207q0 -75 55.5 -119.5t144.5 -44.5t145 44.5
t56 119.5q0 77 -56 121.5t-145 44.5t-144.5 -44.5t-55.5 -121.5zM154 -190q0 -83 67.5 -132t173.5 -49q105 0 173.5 49t68.5 132q0 84 -68 131t-174 47q-107 0 -174 -47t-67 -131z" />
    <glyph glyph-name="nine.inferior" unicode="&#x2089;" horiz-adv-x="745" 
d="M72 158q0 116 86 193t215 77t215 -78t86 -194q0 -39 -8 -72.5t-28 -66t-35.5 -53t-47.5 -58.5l-270 -322h-70l268 318q-61 -21 -121 -21q-124 0 -207 76.5t-83 200.5zM135 158q0 -97 67 -159t171 -62q105 0 171 58.5t66 160.5q0 93 -67.5 155t-169.5 62
q-103 0 -170.5 -61.5t-67.5 -153.5z" />
    <glyph glyph-name="Euro" unicode="&#x20ac;" horiz-adv-x="1157" 
d="M1083 121v-72q-107 -69 -262 -69q-239 0 -384.5 151.5t-174.5 431.5h-213v55h209q-5 107 4 205h-213v56h219q40 254 183 390t370 136q153 0 262 -70v-73q-103 79 -252 79q-204 0 -329 -118t-160 -344h510v-56h-518q-8 -87 -4 -205h522v-55h-518q26 -252 154 -386
t343 -134q140 0 252 78z" />
    <glyph glyph-name="indianrupee" unicode="&#x20b9;" horiz-adv-x="1177" 
d="M1067 954h-168q-9 -150 -110 -248t-269 -120l408 -586h-86l-398 580h-309v61h283q184 0 292.5 81.5t118.5 231.5h-694v54h694q-10 153 -118.5 235t-292.5 82h-283v59h932v-53h-416q235 -85 248 -323h168v-54z" />
    <glyph glyph-name="turkishlira" unicode="&#x20ba;" horiz-adv-x="1112" 
d="M973 592h69q-5 -170 -94.5 -307.5t-244 -216t-343.5 -78.5q-21 0 -49 4v688l-262 -66v56l262 65v211l-262 -67v55l262 68v380h68v-364l493 127v-53l-493 -127v-211l493 125v-56l-493 -125v-649q166 1 301 71.5t212.5 194t80.5 275.5z" />
    <glyph glyph-name="ruble" unicode="&#x20bd;" horiz-adv-x="1120" 
d="M981 295h-594v-295h-68v295h-270v55h270v211h-270v53h270v770h236q222 0 354.5 -109.5t132.5 -307.5q0 -192 -133 -299t-354 -107h-168v-211h594v-55zM555 1329h-168v-715h158q203 0 315.5 90.5t112.5 260.5q0 175 -110.5 269.5t-307.5 94.5z" />
    <glyph glyph-name="trademark" unicode="&#x2122;" horiz-adv-x="1579" 
d="M346 750h-61v667h-240v53h541v-53h-240v-667zM1010 750l-283 649v-649h-57v720h86l284 -651l283 651h82v-720h-57v641l-277 -641h-61z" />
    <glyph glyph-name="estimated" unicode="&#x212e;" horiz-adv-x="1705" 
d="M1444 279h86q-112 -150 -279 -224.5t-374 -74.5q-178 0 -332.5 59t-262.5 160t-169.5 239.5t-61.5 294.5q0 144 62 281t168 241.5t256.5 168t316.5 63.5q170 0 315.5 -57.5t248.5 -160t165 -246t72 -312.5h-1256q-43 0 -43 -45v-347q0 -79 76.5 -145.5t196 -102.5
t248.5 -36q194 0 341.5 63t225.5 181zM356 1165v-358q0 -45 43 -45h910q23 0 32 10.5t9 34.5v346q0 71 -70 136.5t-185.5 105t-240.5 39.5q-124 0 -240 -38.5t-187 -101t-71 -129.5z" />
    <glyph glyph-name="partialdiff" unicode="&#x2202;" horiz-adv-x="1153" 
d="M86 532q0 135 39.5 243t106.5 175.5t151.5 103.5t179.5 36q108 0 225 -52l-339 432h77l367 -466q88 -112 131 -223t43 -269q0 -235 -137 -383.5t-355 -148.5q-143 0 -255 72.5t-173 198t-61 281.5zM156 532q0 -229 114.5 -360t307.5 -131q194 0 306.5 125.5t112.5 345.5
q0 240 -115 379t-304 139q-193 0 -307.5 -133t-114.5 -365z" />
    <glyph glyph-name="increment" unicode="&#x2206;" horiz-adv-x="1357" 
d="M1298 0h-1239l582 1470h78zM678 1397l-526 -1336h1052z" />
    <glyph glyph-name="product" unicode="&#x220f;" horiz-adv-x="1429" 
d="M246 -395h-72v1865h1081v-1865h-71v1804h-938v-1804z" />
    <glyph glyph-name="summation" unicode="&#x2211;" horiz-adv-x="1183" 
d="M1110 -395h-1036v41l610 917l-575 867v40h960v-61h-868l561 -848l-596 -895h944v-61z" />
    <glyph glyph-name="minus" unicode="&#x2212;" horiz-adv-x="1351" 
d="M1188 653h-1024v56h1024v-56z" />
    <glyph glyph-name="divisionslash" unicode="&#x2215;" horiz-adv-x="1351" 
d="M313 0h-61l786 1384h62z" />
    <glyph glyph-name="bulletoperator" unicode="&#x2219;" horiz-adv-x="1351" 
d="M772 700q0 -41 -27.5 -68.5t-68.5 -27.5t-68.5 27.5t-27.5 68.5q0 43 27.5 71t68.5 28t68.5 -28t27.5 -71z" />
    <glyph glyph-name="radical" unicode="&#x221a;" horiz-adv-x="1857" 
d="M1798 1470l-711 -1865h-77l-357 932h-489v61h536l349 -917l682 1789h67z" />
    <glyph glyph-name="infinity" unicode="&#x221e;" horiz-adv-x="2127" 
d="M2042 537q0 -246 -127.5 -401.5t-323.5 -155.5q-74 0 -140.5 24.5t-119.5 66.5t-102 106t-88 133.5t-78 158.5q-49 -113 -99.5 -197t-114.5 -152.5t-143 -104t-171 -35.5q-196 0 -322.5 155.5t-126.5 401.5q0 245 126.5 400t322.5 155q92 0 171 -35.5t143 -104.5
t114.5 -152t99.5 -196q50 112 100 195t114 152.5t143 105t171 35.5q196 0 323.5 -155t127.5 -400zM154 537q0 -218 109 -359t272 -141q70 0 131 24t108.5 64t94 107t82.5 136t81 169q-45 99 -81 167.5t-82.5 135.5t-94 106.5t-108.5 63.5t-131 24q-163 0 -272 -140.5
t-109 -356.5zM1096 537q43 -98 79.5 -168t82.5 -136.5t94 -106.5t108.5 -64.5t130.5 -24.5q164 0 272.5 141t108.5 359t-108.5 357.5t-272.5 139.5q-70 0 -130.5 -24t-108.5 -64.5t-94 -106.5t-82.5 -135.5t-79.5 -166.5z" />
    <glyph glyph-name="integral" unicode="&#x222b;" 
d="M549 1194v-1352q0 -122 -68.5 -190t-189.5 -68q-73 0 -123 21v61q55 -18 119 -18q93 0 143.5 48t50.5 146v1348q0 141 72 217t199 76q51 0 104 -17v-63q-40 16 -100 16q-207 0 -207 -225z" />
    <glyph glyph-name="approxequal" unicode="&#x2248;" horiz-adv-x="1351" 
d="M938 743q-57 0 -134 34.5t-140.5 76.5t-135.5 76.5t-120 34.5q-85 0 -129 -48.5t-50 -160.5h-61q1 128 66 199t178 71q62 0 140 -34.5t139.5 -76t132 -76t120.5 -34.5q174 0 174 209h64q2 -132 -60.5 -201.5t-183.5 -69.5zM938 373q-57 0 -134 34.5t-140.5 76t-135.5 76
t-120 34.5q-85 0 -129 -48.5t-50 -160.5h-61q1 128 66 199t178 71q62 0 140 -34.5t139.5 -76t132 -76t120.5 -34.5q174 0 174 209h64q2 -132 -60.5 -201t-183.5 -69z" />
    <glyph glyph-name="notequal" unicode="&#x2260;" horiz-adv-x="1351" 
d="M518 467h-354v55h385l180 318h-565v55h596l278 489h62l-279 -489h367v-55h-397l-181 -318h578v-55h-608l-267 -467h-61z" />
    <glyph glyph-name="lessequal" unicode="&#x2264;" horiz-adv-x="1351" 
d="M164 772l1024 469v-61l-948 -435l948 -436v-61l-1024 469v55zM1188 2h-1024v55h1024v-55z" />
    <glyph glyph-name="greaterequal" unicode="&#x2265;" horiz-adv-x="1351" 
d="M1188 717l-1024 -469v61l948 436l-948 435v61l1024 -469v-55zM1188 2h-1024v55h1024v-55z" />
    <glyph glyph-name="lozenge" unicode="&#x25ca;" horiz-adv-x="1368" 
d="M725 -395h-78l-371 934l371 931h78l367 -931zM344 539l340 -861l338 861l-338 858z" />
    <glyph glyph-name="ITF" unicode="&#xf8ff;" horiz-adv-x="3561" 
d="M225 0v1434h443v-1434h-443zM760 1016v418h442v-418h-442zM1292 0v1434h445v-1434h-445zM1827 1016v418h442v-418h-442zM2359 0v1434h445v-1434h-445zM2894 1016v418h442v-418h-442zM2894 506v420h442v-420h-442z" />
    <glyph glyph-name="Q.ss02" horiz-adv-x="1652" 
d="M793 -373v342q-201 9 -362.5 114.5t-251 278t-89.5 375.5q0 156 55.5 297t152 243.5t234.5 163t295 60.5t294.5 -60.5t234 -163t152 -243.5t55.5 -297q0 -203 -89 -375t-249.5 -277.5t-360.5 -115.5v-342h-71zM164 737q0 -190 79.5 -347.5t224 -252.5t325.5 -104v289h71
v-289q180 10 323.5 105t222.5 252t79 347q0 196 -84 356t-236 252.5t-342 92.5q-143 0 -266.5 -54.5t-210.5 -148t-136.5 -223t-49.5 -275.5z" />
    <glyph glyph-name="zero.case" horiz-adv-x="1269" 
d="M635 1489q246 0 379 -196.5t133 -561.5q0 -366 -131 -560t-381 -194q-251 0 -381.5 193.5t-130.5 560.5q0 366 132.5 562t379.5 196zM635 1430q-216 0 -329 -177.5t-113 -521.5q0 -340 112 -516t330 -176q217 0 329.5 175t112.5 517q0 344 -112.5 521.5t-329.5 177.5z
" />
    <glyph glyph-name="one.case" horiz-adv-x="606" 
d="M412 0h-66v1411h-307v59h373v-1470z" />
    <glyph glyph-name="two.case" horiz-adv-x="1093" 
d="M971 59v-59h-836v39l498 571q66 76 105 125.5t77.5 112t56 122t17.5 124.5q0 142 -100 239t-254 97q-159 0 -259 -98.5t-100 -248.5h-70q6 182 127 294t302 112q183 0 303 -110.5t120 -282.5q0 -71 -21 -139t-67 -139t-84 -119t-106 -126l-449 -514h740z" />
    <glyph glyph-name="three.case" horiz-adv-x="1280" 
d="M639 -20q-212 0 -345.5 112.5t-139.5 296.5h65q6 -157 121.5 -252.5t298.5 -95.5q186 0 297 94.5t111 253.5q0 152 -119.5 245t-315.5 93h-143v61h145q156 0 258.5 93.5t102.5 234.5q0 135 -97.5 223t-248.5 88q-156 0 -255 -86.5t-108 -230.5h-65q9 166 129.5 272.5
t298.5 106.5q183 0 299 -104.5t116 -268.5q0 -121 -72 -212.5t-206 -141.5q164 -35 257 -134t93 -239q0 -183 -132 -296t-345 -113z" />
    <glyph glyph-name="four.case" horiz-adv-x="1220" 
d="M1102 385h-199v-385h-67v385h-750v33l784 1052h33v-1028h199v-57zM178 442h658v883z" />
    <glyph glyph-name="five.case" horiz-adv-x="1179" 
d="M575 -23q-190 0 -318 116.5t-134 293.5h65q6 -155 113.5 -251.5t273.5 -96.5q198 0 313.5 109.5t115.5 297.5q0 166 -119 277t-297 111q-234 0 -375 -187l-45 6l133 817h686v-59h-639l-104 -659q146 143 348 143q207 0 343 -126.5t136 -319.5q0 -212 -136.5 -342
t-359.5 -130z" />
    <glyph glyph-name="six.case" horiz-adv-x="1251" 
d="M627 -23q-212 0 -355 137.5t-143 340.5q0 67 13 122.5t45 113t59.5 96t83.5 108.5l458 575h80l-469 -587q122 49 240 49q206 0 344.5 -132.5t138.5 -348.5q0 -201 -142 -337.5t-353 -136.5zM627 35q185 0 306.5 121t121.5 295q0 186 -120.5 307t-307.5 121
q-193 0 -311.5 -112.5t-118.5 -311.5q0 -177 121.5 -298.5t308.5 -121.5z" />
    <glyph glyph-name="seven.case" horiz-adv-x="1036" 
d="M993 1432l-633 -1432h-73l631 1409h-875v61h950v-38z" />
    <glyph glyph-name="eight.case" horiz-adv-x="1335" 
d="M1171 389q0 -185 -140.5 -297t-362.5 -112t-363 112t-141 297q0 148 95 245t243 130q-114 35 -191.5 130t-77.5 216q0 169 126.5 274t308.5 105t307 -105t125 -274q0 -121 -75.5 -216t-188.5 -130q147 -33 241 -130t94 -245zM305 1110q0 -148 101.5 -233.5t261.5 -85.5
q161 0 261.5 85.5t100.5 233.5q0 146 -100.5 231.5t-261.5 85.5q-160 0 -261.5 -86t-101.5 -231zM233 389q0 -160 122.5 -254t312.5 -94q189 0 311.5 94t122.5 254q0 161 -121.5 250.5t-312.5 89.5t-313 -89.5t-122 -250.5z" />
    <glyph glyph-name="nine.case" horiz-adv-x="1251" 
d="M627 1489q211 0 353 -136t142 -341q0 -66 -13 -122t-45 -113t-60.5 -96.5t-83.5 -109.5l-457 -571h-80l469 586q-122 -49 -242 -49q-133 0 -242 58t-174 168t-65 253q0 202 143 337.5t355 135.5zM627 1432q-124 0 -223 -56t-153 -151t-54 -209q0 -186 120.5 -306
t309.5 -120q190 0 309 112.5t119 309.5q0 177 -122 298.5t-306 121.5z" />
    <glyph glyph-name="zero.dnom" horiz-adv-x="757" 
d="M688 414q0 -207 -79 -316.5t-230 -109.5q-152 0 -230.5 109t-78.5 317q0 207 80 318.5t229 111.5t229 -111.5t80 -318.5zM133 414q0 -182 62.5 -276.5t183.5 -94.5t183.5 94t62.5 277q0 185 -62.5 279.5t-183.5 94.5t-183.5 -94.5t-62.5 -279.5z" />
    <glyph glyph-name="one.dnom" horiz-adv-x="430" 
d="M262 0h-61v778h-178v53h239v-831z" />
    <glyph glyph-name="two.dnom" horiz-adv-x="655" 
d="M588 53v-53h-512v35l291 311q79 85 115 142t36 124q0 74 -56 125t-143 51q-90 0 -146 -52t-56 -132h-60q1 106 77 173t188 67q114 0 187 -64.5t73 -163.5q0 -40 -11.5 -76.5t-40.5 -77t-51 -66.5t-69 -77l-248 -266h426z" />
    <glyph glyph-name="three.dnom" horiz-adv-x="757" 
d="M668 225q0 -105 -81 -170t-210 -65q-128 0 -209 64t-84 171h59q4 -82 69.5 -131t166.5 -49q103 0 164 48.5t61 131.5q0 81 -67.5 128.5t-176.5 47.5h-86v54h86q88 0 145.5 48.5t57.5 123.5q0 71 -53 116t-139 45q-87 0 -141 -45.5t-60 -119.5h-59q5 95 78 158t184 63
q113 0 183.5 -61t70.5 -154q0 -66 -41 -117.5t-115 -79.5q92 -22 144.5 -76.5t52.5 -130.5z" />
    <glyph glyph-name="four.dnom" horiz-adv-x="729" 
d="M664 209h-117v-209h-62v209h-440v37l463 585h39v-569h117v-53zM121 262h364v459z" />
    <glyph glyph-name="five.dnom" horiz-adv-x="708" 
d="M645 256q0 -119 -82.5 -193.5t-216.5 -74.5q-117 0 -195.5 66.5t-82.5 170.5h59q7 -83 67 -132.5t152 -49.5q110 0 174 57.5t64 155.5q0 88 -66.5 146.5t-167.5 58.5q-135 0 -211 -103l-45 11l80 462h422v-53h-379l-57 -336q83 74 196 74q128 0 208.5 -74.5t80.5 -185.5z
" />
    <glyph glyph-name="six.dnom" horiz-adv-x="741" 
d="M672 258q0 -116 -86 -193t-215 -77t-215 78t-86 194q0 32 7.5 62.5t15.5 50.5t28.5 50t30 42t36.5 45l271 321h69l-268 -317q61 21 121 21q124 0 207.5 -76.5t83.5 -200.5zM608 258q0 97 -66.5 159t-170.5 62q-105 0 -171.5 -58.5t-66.5 -160.5q0 -93 68 -155t170 -62
q103 0 170 61.5t67 153.5z" />
    <glyph glyph-name="seven.dnom" horiz-adv-x="620" 
d="M596 795l-369 -795h-65l368 778h-505v53h571v-36z" />
    <glyph glyph-name="eight.dnom" horiz-adv-x="790" 
d="M700 223q0 -105 -85 -169t-220 -64t-220 64t-85 169q0 81 53.5 135t137.5 74q-66 24 -108 75.5t-42 117.5q0 97 76 158t188 61q111 0 187.5 -61.5t76.5 -157.5q0 -66 -42.5 -118t-106.5 -75q84 -20 137 -74t53 -135zM195 623q0 -75 55.5 -119.5t144.5 -44.5t145 44.5
t56 119.5q0 77 -55.5 121t-145.5 44q-89 0 -144.5 -44t-55.5 -121zM154 225q0 -83 67.5 -131.5t173.5 -48.5q105 0 173.5 48.5t68.5 131.5q0 84 -68 131t-174 47q-107 0 -174 -47t-67 -131z" />
    <glyph glyph-name="nine.dnom" horiz-adv-x="745" 
d="M72 573q0 116 86 193.5t215 77.5t215 -78.5t86 -194.5q0 -39 -8 -72t-28 -66t-35 -53t-48 -58l-270 -322h-70l268 317q-59 -20 -121 -20q-124 0 -207 76t-83 200zM135 573q0 -97 67 -159t171 -62q105 0 171 58.5t66 160.5q0 93 -67.5 155t-169.5 62q-103 0 -170.5 -61.5
t-67.5 -153.5z" />
    <glyph glyph-name="zero.numr_alt" horiz-adv-x="962" 
d="M483 537q-178 0 -287.5 123t-109.5 307q0 183 109.5 306.5t287.5 123.5t288 -123.5t110 -306.5q0 -184 -110 -307t-288 -123zM483 592q140 0 235 101.5t95 273.5q0 174 -94.5 274t-235.5 100t-235 -100t-94 -274q0 -172 94.5 -273.5t234.5 -101.5z" />
    <glyph glyph-name="zero.numr" horiz-adv-x="757" 
d="M688 967q0 -207 -79 -316.5t-230 -109.5q-152 0 -230.5 109t-78.5 317q0 207 80 318.5t229 111.5t229 -111.5t80 -318.5zM133 967q0 -182 62.5 -276.5t183.5 -94.5t183.5 94t62.5 277q0 185 -62.5 279.5t-183.5 94.5t-183.5 -94.5t-62.5 -279.5z" />
    <glyph glyph-name="one.numr" horiz-adv-x="430" 
d="M262 553h-61v778h-178v53h239v-831z" />
    <glyph glyph-name="two.numr" horiz-adv-x="655" 
d="M588 606v-53h-512v35l291 311q79 85 115 142t36 124q0 74 -56 125t-143 51q-90 0 -146 -52t-56 -132h-60q1 106 77 173t188 67q114 0 187 -64.5t73 -163.5q0 -40 -11.5 -76.5t-40.5 -77t-51 -66.5t-69 -77l-248 -266h426z" />
    <glyph glyph-name="three.numr" horiz-adv-x="757" 
d="M668 780q0 -105 -81 -170t-210 -65q-128 0 -209 64t-84 171h59q4 -82 69.5 -131t166.5 -49q103 0 164 48.5t61 131.5q0 81 -67.5 128.5t-176.5 47.5h-86v54h86q88 0 145.5 48.5t57.5 123.5q0 71 -53 116t-139 45q-87 0 -141 -45.5t-60 -119.5h-59q5 95 78 158t184 63
q113 0 183.5 -61t70.5 -154q0 -66 -41 -117.5t-115 -79.5q92 -22 144.5 -76.5t52.5 -130.5z" />
    <glyph glyph-name="four.numr" horiz-adv-x="729" 
d="M664 762h-117v-209h-62v209h-440v37l463 585h39v-569h117v-53zM121 815h364v459z" />
    <glyph glyph-name="five.numr" horiz-adv-x="708" 
d="M645 809q0 -119 -82.5 -193.5t-216.5 -74.5q-117 0 -195.5 66.5t-82.5 170.5h59q7 -83 67 -132.5t152 -49.5q110 0 174 57.5t64 155.5q0 88 -66.5 146.5t-167.5 58.5q-135 0 -211 -103l-45 11l80 462h422v-53h-379l-57 -336q83 74 196 74q128 0 208.5 -74.5t80.5 -185.5z
" />
    <glyph glyph-name="six.numr" horiz-adv-x="741" 
d="M672 811q0 -116 -86 -193t-215 -77t-215 78t-86 194q0 32 7.5 62.5t15.5 50.5t28.5 50t30 42t36.5 45l271 321h69l-268 -317q59 20 121 20q124 0 207.5 -76t83.5 -200zM608 811q0 97 -66.5 159t-170.5 62q-105 0 -171.5 -58.5t-66.5 -160.5q0 -93 68 -155t170 -62
q103 0 170 61.5t67 153.5z" />
    <glyph glyph-name="seven.numr" horiz-adv-x="620" 
d="M596 1348l-369 -795h-65l368 778h-505v53h571v-36z" />
    <glyph glyph-name="eight.numr" horiz-adv-x="790" 
d="M700 776q0 -105 -85 -169t-220 -64t-220 64t-85 169q0 81 53.5 135t137.5 74q-66 24 -108 75.5t-42 117.5q0 97 76 158t188 61q111 0 187.5 -61.5t76.5 -157.5q0 -66 -42.5 -118t-106.5 -75q84 -20 137 -74t53 -135zM195 1176q0 -75 55.5 -119.5t144.5 -44.5t145 44.5
t56 119.5q0 77 -55.5 121t-145.5 44q-89 0 -144.5 -44t-55.5 -121zM154 778q0 -83 67.5 -131.5t173.5 -48.5q105 0 173.5 48.5t68.5 131.5q0 84 -68 131t-174 47q-107 0 -174 -47t-67 -131z" />
    <glyph glyph-name="nine.numr" horiz-adv-x="745" 
d="M72 1126q0 116 86 193.5t215 77.5t215 -78.5t86 -194.5q0 -39 -8 -72.5t-28 -66t-35.5 -53t-47.5 -58.5l-270 -321h-70l268 317q-59 -20 -121 -20q-124 0 -207 76t-83 200zM135 1126q0 -97 67 -159t171 -62q105 0 171 58.5t66 160.5q0 93 -67.5 155t-169.5 62
q-103 0 -170.5 -61.5t-67.5 -153.5z" />
    <glyph glyph-name="caroncomb.alt" 
d="M588 1178h-47v292h73z" />
    <glyph glyph-name="caroncomb.alt2" 
d="M522 1096h-47v374h74z" />
    <glyph glyph-name="strokeshortcomb.case" 
d="M844 731h-666v57h666v-57z" />
    <glyph glyph-name="slashshortcomb.case" 
d="M872 838l-722 -213v61l722 213v-61z" />
    <glyph glyph-name="slashlongcomb.case" 
d="M-92 0h-80l1286 1470h80z" />
    <glyph glyph-name="dieresiscomb.narrow" 
d="M739 1325q0 -35 -22.5 -59.5t-57.5 -24.5q-34 0 -56.5 24.5t-22.5 59.5q0 37 22 60.5t57 23.5t57.5 -23.5t22.5 -60.5zM444 1325q0 -34 -23 -59t-56 -25q-35 0 -58.5 25t-23.5 59q0 37 23.5 60.5t58.5 23.5q34 0 56.5 -23.5t22.5 -60.5z" />
    <glyph glyph-name="gravecomb.narrow" 
d="M651 1217h-90l-188 253h90z" />
    <glyph glyph-name="acutecomb.narrow" 
d="M465 1217h-90l186 253h90z" />
    <glyph glyph-name="circumflexcomb.narrow" 
d="M328 1217h-86l239 253h62l239 -253h-86l-184 196z" />
    <glyph glyph-name="a.ss01" horiz-adv-x="1181" 
d="M86 537q0 253 127 404t342 151q134 0 240 -77t157 -212v268h70v-1071h-68v262q-52 -133 -158 -207.5t-241 -74.5q-216 0 -342.5 151.5t-126.5 405.5zM156 537q0 -233 106.5 -366.5t292.5 -133.5q182 0 291.5 138t109.5 366t-110 360.5t-291 132.5q-186 0 -292.5 -132.5
t-106.5 -364.5z" />
    <glyph glyph-name="aacute.ss01" horiz-adv-x="1181" 
d="M606 1217h-90l207 253h90zM86 537q0 253 127 404t342 151q134 0 240 -77t157 -212v268h70v-1071h-68v262q-52 -133 -158 -207.5t-241 -74.5q-216 0 -342.5 151.5t-126.5 405.5zM156 537q0 -233 106.5 -366.5t292.5 -133.5q182 0 291.5 138t109.5 366t-110 360.5
t-291 132.5q-186 0 -292.5 -132.5t-106.5 -364.5z" />
    <glyph glyph-name="abreve.ss01" horiz-adv-x="1181" 
d="M760 1470h67q0 -111 -74.5 -185.5t-193.5 -74.5t-192.5 74.5t-73.5 185.5h65q0 -89 54.5 -145.5t146.5 -56.5q93 0 147 56t54 146zM86 537q0 253 127 404t342 151q134 0 240 -77t157 -212v268h70v-1071h-68v262q-52 -133 -158 -207.5t-241 -74.5q-216 0 -342.5 151.5
t-126.5 405.5zM156 537q0 -233 106.5 -366.5t292.5 -133.5q182 0 291.5 138t109.5 366t-110 360.5t-291 132.5q-186 0 -292.5 -132.5t-106.5 -364.5z" />
    <glyph glyph-name="acircumflex.ss01" horiz-adv-x="1181" 
d="M352 1217h-86l264 253h58l266 -253h-86l-209 196zM86 537q0 253 127 404t342 151q134 0 240 -77t157 -212v268h70v-1071h-68v262q-52 -133 -158 -207.5t-241 -74.5q-216 0 -342.5 151.5t-126.5 405.5zM156 537q0 -233 106.5 -366.5t292.5 -133.5q182 0 291.5 138
t109.5 366t-110 360.5t-291 132.5q-186 0 -292.5 -132.5t-106.5 -364.5z" />
    <glyph glyph-name="adieresis.ss01" horiz-adv-x="1181" 
d="M805 1325q0 -34 -24 -59t-60 -25t-61 25t-25 59q0 37 24.5 60.5t61.5 23.5t60.5 -23.5t23.5 -60.5zM483 1325q0 -34 -24 -59t-60 -25q-37 0 -61.5 24.5t-24.5 59.5q0 37 24 60.5t62 23.5q37 0 60.5 -23.5t23.5 -60.5zM86 537q0 253 127 404t342 151q134 0 240 -77
t157 -212v268h70v-1071h-68v262q-52 -133 -158 -207.5t-241 -74.5q-216 0 -342.5 151.5t-126.5 405.5zM156 537q0 -233 106.5 -366.5t292.5 -133.5q182 0 291.5 138t109.5 366t-110 360.5t-291 132.5q-186 0 -292.5 -132.5t-106.5 -364.5z" />
    <glyph glyph-name="agrave.ss01" horiz-adv-x="1181" 
d="M602 1217h-90l-209 253h90zM86 537q0 253 127 404t342 151q134 0 240 -77t157 -212v268h70v-1071h-68v262q-52 -133 -158 -207.5t-241 -74.5q-216 0 -342.5 151.5t-126.5 405.5zM156 537q0 -233 106.5 -366.5t292.5 -133.5q182 0 291.5 138t109.5 366t-110 360.5
t-291 132.5q-186 0 -292.5 -132.5t-106.5 -364.5z" />
    <glyph glyph-name="amacron.ss01" horiz-adv-x="1181" 
d="M823 1247h-530v58h530v-58zM86 537q0 253 127 404t342 151q134 0 240 -77t157 -212v268h70v-1071h-68v262q-52 -133 -158 -207.5t-241 -74.5q-216 0 -342.5 151.5t-126.5 405.5zM156 537q0 -233 106.5 -366.5t292.5 -133.5q182 0 291.5 138t109.5 366t-110 360.5
t-291 132.5q-186 0 -292.5 -132.5t-106.5 -364.5z" />
    <glyph glyph-name="aogonek.ss01" horiz-adv-x="1181" 
d="M86 537q0 253 127 404t342 151q134 0 240 -77t157 -212v268h70v-1071h-27q-77 -42 -122.5 -95t-45.5 -132q0 -54 33 -87.5t88 -33.5q43 0 90 20v-59q-56 -21 -102 -21q-77 0 -126.5 48t-49.5 124q0 145 194 259v239q-52 -133 -158 -207.5t-241 -74.5q-216 0 -342.5 151.5
t-126.5 405.5zM156 537q0 -233 106.5 -366.5t292.5 -133.5q182 0 291.5 138t109.5 366t-110 360.5t-291 132.5q-186 0 -292.5 -132.5t-106.5 -364.5z" />
    <glyph glyph-name="aring.ss01" horiz-adv-x="1181" 
d="M559 1208q-89 0 -150 58.5t-61 140.5t61 140.5t150 58.5t151 -58.5t62 -140.5t-62 -140.5t-151 -58.5zM559 1262q65 0 107.5 38.5t42.5 106.5q0 67 -42.5 105t-107.5 38q-64 0 -105.5 -38t-41.5 -105q0 -68 41.5 -106.5t105.5 -38.5zM86 537q0 253 127 404t342 151
q134 0 240 -77t157 -212v268h70v-1071h-68v262q-52 -133 -158 -207.5t-241 -74.5q-216 0 -342.5 151.5t-126.5 405.5zM156 537q0 -233 106.5 -366.5t292.5 -133.5q182 0 291.5 138t109.5 366t-110 360.5t-291 132.5q-186 0 -292.5 -132.5t-106.5 -364.5z" />
    <glyph glyph-name="atilde.ss01" horiz-adv-x="1181" 
d="M303 1217h-57q-4 115 40 179t126 64q37 0 70 -18t58 -43.5t48.5 -51t50.5 -43.5t55 -18q52 0 79.5 48t27.5 136h59q4 -114 -41 -178.5t-125 -64.5q-37 0 -70 18t-58 43.5t-48.5 51t-50.5 43.5t-55 18q-52 0 -80.5 -48t-28.5 -136zM86 537q0 253 127 404t342 151
q134 0 240 -77t157 -212v268h70v-1071h-68v262q-52 -133 -158 -207.5t-241 -74.5q-216 0 -342.5 151.5t-126.5 405.5zM156 537q0 -233 106.5 -366.5t292.5 -133.5q182 0 291.5 138t109.5 366t-110 360.5t-291 132.5q-186 0 -292.5 -132.5t-106.5 -364.5z" />
    </font>
</defs>
</svg>
