<?xml version="1.0" standalone="no"?>
<!DOCTYPE svg PUBLIC "-//W3C//DTD SVG 1.1//EN" "http://www.w3.org/Graphics/SVG/1.1/DTD/svg11.dtd" >
<svg xmlns="http://www.w3.org/2000/svg" xmlns:xlink="http://www.w3.org/1999/xlink" version="1.1">
<metadata>
Created by FontForge 20170731 at Tue Apr 11 09:01:08 2023
 By Aleksey,,,
Copyright 2017-2021 Indian Type Foundry. All rights reserved.
</metadata>
<defs>
<font id="GeneralSans-ExtralightItalic" horiz-adv-x="1024" >
  <font-face 
    font-family="General Sans Extralight Italic"
    font-weight="200"
    font-style="italic"
    font-stretch="normal"
    units-per-em="2048"
    panose-1="0 0 0 0 0 0 0 0 0 0"
    ascent="1638"
    descent="-410"
    x-height="1071"
    cap-height="1470"
    bbox="-369 -428 3494 2005"
    underline-thickness="102"
    underline-position="-266"
    slope="-10"
    unicode-range="U+000D-FB02"
  />
<missing-glyph horiz-adv-x="1515" 
 />
    <glyph glyph-name="fi" unicode="fi" horiz-adv-x="1034" 
d="M209 0h-68l178 1016h-256l11 55h256l20 119q25 148 95.5 220.5t193.5 72.5q61 0 117 -17l-13 -63q-47 18 -110 18q-93 0 -143 -54t-72 -177l-21 -119h320l-10 -55h-320zM1044 1333q0 -37 -26.5 -64.5t-61.5 -27.5q-27 0 -44 17.5t-17 44.5q0 37 26.5 63.5t61.5 26.5
q27 0 44 -16.5t17 -43.5zM770 0h-65l188 1071h65z" />
    <glyph glyph-name="fl" unicode="fl" horiz-adv-x="1034" 
d="M209 0h-68l178 1016h-256l11 55h256l20 119q25 148 95.5 220.5t193.5 72.5q61 0 117 -17l-13 -63q-47 18 -110 18q-93 0 -143 -54t-72 -177l-21 -119h320l-10 -55h-320zM768 0h-63l260 1470h63z" />
    <glyph glyph-name=".notdef" horiz-adv-x="1515" 
 />
    <glyph glyph-name=".null" horiz-adv-x="0" 
 />
    <glyph glyph-name=".null" horiz-adv-x="0" 
 />
    <glyph glyph-name="nonmarkingreturn" horiz-adv-x="682" 
 />
    <glyph glyph-name="CR" unicode="&#xd;" horiz-adv-x="573" 
 />
    <glyph glyph-name="space" unicode=" " horiz-adv-x="407" 
 />
    <glyph glyph-name="exclam" unicode="!" horiz-adv-x="473" 
d="M225 330h-51l195 1140h65zM252 106q0 -47 -34 -81.5t-77 -34.5q-34 0 -56 22t-22 56q0 46 34 81t77 35q34 0 56 -22t22 -56z" />
    <glyph glyph-name="quotedbl" unicode="&#x22;" horiz-adv-x="731" 
d="M395 1171h-49l45 299h66zM604 1171h-49l47 299h66z" />
    <glyph glyph-name="numbersign" unicode="#" horiz-adv-x="1296" 
d="M207 0h-62l217 461h-231l10 55h246l152 322h-267l11 55h280l232 491h61l-231 -491h288l232 491h61l-231 -491h242l-11 -55h-256l-151 -322h276l-10 -55h-291l-217 -461h-61l217 461h-289zM600 838l-151 -322h288l152 322h-289z" />
    <glyph glyph-name="dollar" unicode="$" horiz-adv-x="1210" 
d="M553 -182h-59l30 168q-196 12 -307 122.5t-111 294.5h68q5 -170 109 -264t290 -94q172 0 280 89.5t108 232.5q0 113 -57.5 175.5t-196.5 100.5l-136 37q-317 85 -317 350q0 169 113 268t313 105l27 168h59l-27 -170q169 -11 274 -125t105 -289h-67q0 158 -97 256t-252 98
q-181 0 -279.5 -81t-98.5 -230q0 -113 65.5 -182.5t204.5 -106.5l139 -36q152 -40 224.5 -123t72.5 -215q0 -169 -123 -274.5t-323 -108.5z" />
    <glyph glyph-name="percent" unicode="%" horiz-adv-x="1992" 
d="M467 537q-141 0 -228 94t-87 246q0 139 61.5 259t166.5 190.5t226 70.5q141 0 228.5 -94t87.5 -246q0 -139 -62 -259t-167 -190.5t-226 -70.5zM569 0h-65l977 1384h65zM471 592q158 0 272.5 137.5t114.5 327.5q0 129 -69.5 206.5t-186.5 77.5q-158 0 -272.5 -137
t-114.5 -327q0 -129 69.5 -207t186.5 -78zM1442 -16q-141 0 -228.5 94t-87.5 246q0 139 62 259t167 190.5t226 70.5q141 0 228 -94t87 -246q0 -139 -61.5 -259t-166.5 -190.5t-226 -70.5zM1446 39q158 0 272.5 137.5t114.5 327.5q0 129 -69.5 206.5t-186.5 77.5
q-158 0 -272.5 -137t-114.5 -327q0 -129 69.5 -207t186.5 -78z" />
    <glyph glyph-name="ampersand" unicode="&#x26;" horiz-adv-x="1101" 
d="M496 760l315 -529q103 136 166 377h65q-67 -264 -200 -428l108 -180h-69l-80 135q-158 -158 -381 -158q-167 0 -271 98.5t-104 258.5q0 145 96 263t275 181q-37 66 -59.5 141t-22.5 132q0 162 95 258t255 96q135 0 222 -87.5t87 -225.5h-65q0 116 -67 186t-177 70
q-132 0 -207.5 -79t-75.5 -218q0 -129 95 -291zM115 334q0 -136 83.5 -217.5t223.5 -81.5q210 0 348 147l-328 549q-161 -57 -244 -161.5t-83 -235.5z" />
    <glyph glyph-name="quotesingle" unicode="'" horiz-adv-x="520" 
d="M395 1171h-49l45 299h66z" />
    <glyph glyph-name="parenleft" unicode="(" horiz-adv-x="587" 
d="M346 -395h-55q-115 254 -115 590q0 332 116.5 678t317.5 597h64q-200 -249 -319 -603t-119 -691q0 -334 110 -571z" />
    <glyph glyph-name="parenright" unicode=")" horiz-adv-x="587" 
d="M-20 -395h-66q198 246 318 600t120 694q0 332 -108 571h55q113 -257 113 -587q0 -333 -117 -681t-315 -597z" />
    <glyph glyph-name="asterisk" unicode="*" horiz-adv-x="983" 
d="M578 1010l-287 -297l-37 43l289 295l-334 104l29 49l325 -104l66 370h55l-66 -370l365 104l8 -53l-370 -104l180 -295l-43 -39z" />
    <glyph glyph-name="plus" unicode="+" horiz-adv-x="1351" 
d="M641 170h-59l86 483h-457l10 56h457l84 481h59l-84 -481h455l-10 -56h-455z" />
    <glyph glyph-name="comma" unicode="," horiz-adv-x="512" 
d="M266 88q0 -109 -80.5 -194t-189.5 -91l10 54q70 7 124.5 55.5t68.5 112.5q-22 -11 -47 -11q-31 0 -51.5 19t-20.5 49q0 41 30.5 71.5t71.5 30.5q42 0 63 -26t21 -70z" />
    <glyph glyph-name="hyphen" unicode="-" horiz-adv-x="708" 
d="M668 537h-627l10 61h627z" />
    <glyph glyph-name="period" unicode="." horiz-adv-x="512" 
d="M270 106q0 -46 -32.5 -81t-75.5 -35q-35 0 -56.5 22t-21.5 56q0 46 33.5 81t77.5 35q33 0 54 -22t21 -56z" />
    <glyph glyph-name="slash" unicode="/" horiz-adv-x="911" 
d="M-102 -395h-68l1184 1865h67z" />
    <glyph glyph-name="zero" unicode="0" horiz-adv-x="1124" 
d="M121 444q0 273 74 493t206 344t297 124q160 0 259.5 -130.5t99.5 -342.5q0 -272 -75 -489.5t-208 -340t-299 -122.5q-161 0 -257.5 126.5t-96.5 337.5zM188 451q0 -191 78.5 -301.5t216.5 -110.5q142 0 258 116t182 321t66 456q0 190 -80 302t-217 112
q-142 0 -257.5 -116.5t-181 -321.5t-65.5 -457z" />
    <glyph glyph-name="one" unicode="1" horiz-adv-x="555" 
d="M270 0h-65l233 1325h-264l10 59h330z" />
    <glyph glyph-name="two" unicode="2" horiz-adv-x="956" 
d="M764 59l-10 -59h-729l6 39l526 536q166 169 236.5 287.5t70.5 227.5q0 115 -74 185.5t-196 70.5q-135 0 -227.5 -86.5t-120.5 -239.5h-66q35 183 144 284t270 101q149 0 243.5 -87.5t94.5 -225.5q0 -121 -71 -240t-259 -311l-471 -482h633z" />
    <glyph glyph-name="three" unicode="3" horiz-adv-x="1132" 
d="M528 -18q-185 0 -302 106t-117 281h59q0 -147 102 -237.5t258 -90.5q161 0 259 95t98 257q0 128 -89 210.5t-227 82.5h-131l11 59h124q154 0 261.5 99.5t107.5 242.5q0 109 -78 184t-192 75q-137 0 -228.5 -80.5t-111.5 -218.5h-64q23 164 132 261t272 97
q143 0 240.5 -91.5t97.5 -226.5t-81 -231.5t-231 -140.5q112 -28 183 -118t71 -204q0 -186 -117.5 -298.5t-306.5 -112.5z" />
    <glyph glyph-name="four" unicode="4" horiz-adv-x="1064" 
d="M928 360h-170l-64 -360h-67l63 360h-645l6 35l852 989h35l-170 -964h170zM147 420h553l148 813z" />
    <glyph glyph-name="five" unicode="5" horiz-adv-x="1036" 
d="M471 -18q-170 0 -275.5 107t-105.5 280h60q0 -145 89.5 -236.5t231.5 -91.5q166 0 275.5 119.5t109.5 302.5q0 145 -82 234t-215 89q-100 0 -179.5 -40.5t-168.5 -137.5l-47 8l250 768h600l-10 -59h-549l-195 -606q142 127 303 127q157 0 259 -108.5t102 -274.5
q0 -207 -129 -344t-324 -137z" />
    <glyph glyph-name="six" unicode="6" horiz-adv-x="1040" 
d="M434 -20q-167 0 -270 102.5t-103 269.5q0 121 59 241t191 261l494 530h78l-516 -561q98 56 215 56q159 0 259.5 -102.5t100.5 -264.5q0 -144 -68 -266.5t-185 -194t-255 -71.5zM438 37q180 0 308 139.5t128 335.5q0 141 -83.5 227t-219.5 86q-186 0 -315 -137.5
t-129 -335.5q0 -147 83 -231t228 -84z" />
    <glyph glyph-name="seven" unicode="7" horiz-adv-x="923" 
d="M1008 1346l-783 -1346h-71l774 1323h-750l10 61h826z" />
    <glyph glyph-name="eight" unicode="8" horiz-adv-x="1175" 
d="M999 414q0 -189 -134 -310.5t-341 -121.5q-179 0 -294 95.5t-115 244.5q0 146 99.5 254.5t268.5 148.5q-82 25 -135 102.5t-53 171.5q0 169 122.5 287.5t297.5 118.5q147 0 245.5 -89.5t98.5 -221.5q0 -131 -82 -235t-217 -144q106 -28 172.5 -111.5t66.5 -189.5z
M362 999q0 -112 73 -181.5t190 -69.5q159 0 262.5 98t103.5 248q0 113 -78 182.5t-204 69.5q-148 0 -247.5 -99.5t-99.5 -247.5zM182 322q0 -124 97 -202.5t251 -78.5q175 0 288.5 105t113.5 268q0 121 -88.5 196.5t-229.5 75.5q-188 0 -310 -103t-122 -261z" />
    <glyph glyph-name="nine" unicode="9" horiz-adv-x="1040" 
d="M662 1405q167 0 269.5 -103t102.5 -270q0 -121 -59 -241t-191 -261l-493 -530h-78l516 561q-96 -55 -215 -55q-159 0 -259.5 102t-100.5 264q0 144 68 267t185 194.5t255 71.5zM657 1348q-118 0 -218.5 -64t-159 -173.5t-58.5 -238.5q0 -141 83.5 -227t219.5 -86
q186 0 315.5 137.5t129.5 335.5q0 147 -83.5 231.5t-228.5 84.5z" />
    <glyph glyph-name="colon" unicode=":" horiz-adv-x="512" 
d="M428 997q0 -46 -32.5 -81t-76.5 -35q-35 0 -55 21.5t-20 55.5q0 46 33 81.5t77 35.5q33 0 53.5 -22t20.5 -56zM270 106q0 -46 -32.5 -81t-75.5 -35q-35 0 -56.5 22t-21.5 56q0 46 33.5 81t77.5 35q33 0 54 -22t21 -56z" />
    <glyph glyph-name="semicolon" unicode=";" horiz-adv-x="512" 
d="M420 997q0 -46 -32.5 -81t-76.5 -35q-35 0 -55 21.5t-20 55.5q0 46 33 81.5t77 35.5q33 0 53.5 -22t20.5 -56zM266 88q0 -109 -80.5 -194t-189.5 -91l10 54q70 7 124.5 55.5t68.5 112.5q-29 -11 -45 -11q-33 0 -53.5 19t-20.5 49q0 41 30.5 71.5t71.5 30.5q42 0 63 -26
t21 -70z" />
    <glyph glyph-name="less" unicode="&#x3c;" horiz-adv-x="1351" 
d="M221 707l1053 471l-10 -66l-977 -436l823 -436l-12 -56l-887 469z" />
    <glyph glyph-name="equal" unicode="=" horiz-adv-x="1351" 
d="M1214 840h-970l10 55h971zM1149 467h-971l10 55h971z" />
    <glyph glyph-name="greater" unicode="&#x3e;" horiz-adv-x="1351" 
d="M1182 655l-1051 -471l10 66l975 436l-821 436l12 56l885 -469z" />
    <glyph glyph-name="question" unicode="?" horiz-adv-x="778" 
d="M211 1149h-66q41 162 147.5 252t256.5 90q136 0 220.5 -81t84.5 -212q0 -187 -238 -379l-88 -71q-64 -52 -96 -91.5t-59.5 -117.5t-46.5 -209h-54q24 196 63.5 281.5t135.5 164.5l104 86q111 91 161 170.5t50 165.5q0 106 -65 169t-172 63q-126 0 -214.5 -73.5
t-123.5 -207.5zM365 106q0 -46 -33.5 -81t-77.5 -35q-32 0 -54 22t-22 56q0 46 34 81t77 35q34 0 55 -22t21 -56z" />
    <glyph glyph-name="at" unicode="@" horiz-adv-x="1843" 
d="M1260 -219l-13 -76q-208 -121 -483 -121q-153 0 -282.5 54t-220.5 149.5t-142 232t-51 297.5q0 171 52.5 336t148 299t220.5 237t278.5 159.5t313.5 56.5q149 0 277.5 -51t219.5 -140.5t142.5 -216.5t51.5 -274q0 -183 -61.5 -336t-168 -241.5t-233.5 -88.5
q-101 0 -154 53t-47 148q-144 -201 -358 -201q-124 0 -199.5 83.5t-75.5 221.5q0 143 68.5 272.5t182 207.5t237.5 78q120 0 190.5 -67t81.5 -189l82 227h63l-174 -475q-37 -98 -37 -166q0 -135 146 -135q106 0 196 81.5t142.5 221.5t52.5 303q0 279 -175.5 453t-457.5 174
q-123 0 -243.5 -38.5t-223.5 -106.5t-191 -165t-150 -210t-97 -245.5t-35 -267.5q0 -301 175 -487t458 -186q278 0 494 139zM543 365q0 -117 56.5 -183.5t156.5 -66.5q108 0 208 71t161 187.5t61 242.5q0 119 -59 182.5t-169 63.5q-105 0 -201.5 -70t-155 -185.5
t-58.5 -241.5z" />
    <glyph glyph-name="A" unicode="A" horiz-adv-x="1320" 
d="M1092 0l-91 455h-704l-250 -455h-72l813 1470h78l291 -1470h-65zM817 1399l-485 -883h659z" />
    <glyph glyph-name="B" unicode="B" horiz-adv-x="1212" 
d="M1042 451q0 -206 -139.5 -328.5t-374.5 -122.5h-448l260 1470h414q158 0 253 -86t95 -229q0 -152 -85 -258.5t-231 -138.5q118 -26 187 -108.5t69 -198.5zM741 1409h-346l-108 -621h352q187 0 290 96.5t103 270.5q0 120 -76.5 187t-214.5 67zM657 727h-381l-118 -666h381
q199 0 316.5 105.5t117.5 284.5q0 126 -85.5 201t-230.5 75z" />
    <glyph glyph-name="C" unicode="C" horiz-adv-x="1499" 
d="M721 -31q-264 0 -433 180t-169 461q0 184 64.5 349t174.5 284t262.5 188.5t321.5 69.5q238 0 387.5 -156t149.5 -405h-68q0 226 -130.5 363t-346.5 137q-155 0 -293.5 -64.5t-237.5 -175t-157 -264.5t-58 -326q0 -258 150 -418.5t389 -160.5q452 0 612 501h70
q-183 -563 -688 -563z" />
    <glyph glyph-name="D" unicode="D" horiz-adv-x="1312" 
d="M465 0h-385l260 1470h358q251 0 407.5 -172.5t156.5 -449.5q0 -241 -103 -435t-285.5 -303.5t-408.5 -109.5zM395 1409l-237 -1348h319q152 0 284.5 59.5t227 163.5t149 250.5t54.5 313.5q0 252 -138.5 406.5t-365.5 154.5h-293z" />
    <glyph glyph-name="E" unicode="E" horiz-adv-x="1093" 
d="M877 61l-11 -61h-786l260 1470h772l-12 -61h-705l-108 -618h647l-10 -62h-648l-118 -668h719z" />
    <glyph glyph-name="F" unicode="F" horiz-adv-x="987" 
d="M147 0h-67l260 1470h750l-13 -61h-682l-119 -680h590l-12 -61h-590z" />
    <glyph glyph-name="G" unicode="G" horiz-adv-x="1562" 
d="M741 -31q-277 0 -449.5 178.5t-172.5 462.5q0 184 66 349.5t178.5 284t269 188t330.5 69.5q250 0 406.5 -148t156.5 -384h-68q0 214 -137.5 342.5t-366.5 128.5q-214 0 -389.5 -109t-276 -299.5t-100.5 -421.5q0 -261 154 -420t406 -159q250 0 432 165t245 449h-626
l12 62h692q-56 -339 -261.5 -538.5t-500.5 -199.5z" />
    <glyph glyph-name="H" unicode="H" horiz-adv-x="1376" 
d="M147 0h-67l260 1470h68l-121 -679h891l120 679h68l-260 -1470h-68l129 729h-891z" />
    <glyph glyph-name="I" unicode="I" horiz-adv-x="417" 
d="M147 0h-67l260 1470h68z" />
    <glyph glyph-name="J" unicode="J" horiz-adv-x="1081" 
d="M1081 1470l-178 -1005q-87 -496 -471 -496q-186 0 -296.5 115.5t-110.5 310.5h65q0 -164 93.5 -263t248.5 -99q161 0 261.5 105.5t137.5 312.5l181 1019h69z" />
    <glyph glyph-name="K" unicode="K" horiz-adv-x="1136" 
d="M145 0h-65l260 1470h66l-132 -741l865 741h90l-883 -757l635 -713h-88l-623 702z" />
    <glyph glyph-name="L" unicode="L" horiz-adv-x="978" 
d="M823 0h-743l260 1470h68l-250 -1409h676z" />
    <glyph glyph-name="M" unicode="M" horiz-adv-x="1705" 
d="M723 0l-334 1389l-244 -1389h-65l260 1470h96l334 -1384l825 1384h101l-260 -1470h-66l246 1384l-823 -1384h-70z" />
    <glyph glyph-name="N" unicode="N" horiz-adv-x="1406" 
d="M1053 0l-664 1376l-244 -1376h-65l260 1470h80l665 -1384l246 1384h66l-260 -1470h-84z" />
    <glyph glyph-name="O" unicode="O" horiz-adv-x="1587" 
d="M721 -31q-264 0 -433 180t-169 461q0 184 64.5 349t174.5 284t262.5 188.5t321.5 69.5q173 0 309.5 -80.5t212.5 -225.5t76 -329t-64.5 -350t-174 -286t-261 -190.5t-319.5 -70.5zM727 31q154 0 292 65t237 176t156.5 266t57.5 328q0 255 -148.5 414.5t-387.5 159.5
q-155 0 -293.5 -64.5t-237.5 -175t-157 -264.5t-58 -326q0 -258 150 -418.5t389 -160.5z" />
    <glyph glyph-name="P" unicode="P" horiz-adv-x="1134" 
d="M608 573h-360l-101 -573h-67l260 1470h418q171 0 279 -104.5t108 -271.5q0 -230 -150 -375.5t-387 -145.5zM743 1409h-348l-135 -774h358q205 0 331 127t126 332q0 143 -90.5 229t-241.5 86z" />
    <glyph glyph-name="Q" unicode="Q" horiz-adv-x="1587" 
d="M721 -31q-264 0 -433 180t-169 461q0 184 64.5 349t174.5 284t262.5 188.5t321.5 69.5q173 0 309.5 -80.5t212.5 -225.5t76 -329q0 -276 -137.5 -499.5t-360.5 -327.5l187 -412h-70l-176 389q-124 -47 -262 -47zM727 31q154 0 292 65t237 176t156.5 266t57.5 328
q0 255 -148.5 414.5t-387.5 159.5q-155 0 -293.5 -64.5t-237.5 -175t-157 -264.5t-58 -326q0 -258 150 -418.5t389 -160.5z" />
    <glyph glyph-name="R" unicode="R" horiz-adv-x="1206" 
d="M147 0h-67l260 1470h457q170 0 279.5 -103.5t109.5 -264.5q0 -199 -127 -331.5t-338 -152.5l305 -618h-74l-303 614h-393zM395 1409l-129 -733h393q207 0 332 116.5t125 309.5q0 138 -92.5 222.5t-243.5 84.5h-385z" />
    <glyph glyph-name="S" unicode="S" horiz-adv-x="1259" 
d="M1083 385q0 -181 -133.5 -293t-349.5 -112q-226 0 -357.5 120.5t-131.5 327.5h67q6 -183 118 -285t304 -102q183 0 298.5 96t115.5 248q0 120 -62.5 187.5t-210.5 107.5l-143 39q-336 92 -336 368q0 186 128.5 295t346.5 109q194 0 317.5 -123.5t123.5 -316.5h-68
q0 167 -104.5 273t-268.5 106q-189 0 -297 -91.5t-108 -251.5q0 -122 74.5 -195t216.5 -112l147 -41q161 -44 237 -130t76 -224z" />
    <glyph glyph-name="T" unicode="T" horiz-adv-x="1085" 
d="M481 0h-65l248 1409h-484l10 61h1033l-11 -61h-483z" />
    <glyph glyph-name="U" unicode="U" horiz-adv-x="1296" 
d="M1290 1470l-176 -995q-43 -242 -184.5 -374t-360.5 -132q-213 0 -331.5 136t-77.5 370l176 995h67l-178 -1003q-19 -108 0.5 -193t69.5 -137t118.5 -79t151.5 -27q194 0 318.5 115.5t160.5 320.5l179 1003h67z" />
    <glyph glyph-name="V" unicode="V" horiz-adv-x="1257" 
d="M1362 1470l-793 -1470h-75l-271 1470h66l256 -1388l747 1388h70z" />
    <glyph glyph-name="W" unicode="W" horiz-adv-x="1761" 
d="M1143 0l-113 1376l-604 -1376h-80l-113 1470h66l102 -1372l605 1372h77l113 -1374l590 1374h69l-630 -1470h-82z" />
    <glyph glyph-name="X" unicode="X" horiz-adv-x="1177" 
d="M66 0h-78l604 766l-313 704h69l293 -659l522 659h78l-573 -720l333 -750h-69l-314 707z" />
    <glyph glyph-name="Y" unicode="Y" horiz-adv-x="1220" 
d="M645 551l-98 -551h-68l99 551l-355 919h70l328 -849l626 849h78z" />
    <glyph glyph-name="Z" unicode="Z" horiz-adv-x="1132" 
d="M965 0h-985l8 41l1097 1368h-819l13 61h913l-8 -40l-1098 -1369h889z" />
    <glyph glyph-name="bracketleft" unicode="[" horiz-adv-x="593" 
d="M330 -395h-262l329 1865h262l-10 -55h-203l-309 -1755h203z" />
    <glyph glyph-name="backslash" unicode="\" horiz-adv-x="911" 
d="M754 -395h-60l-536 1865h59z" />
    <glyph glyph-name="bracketright" unicode="]" horiz-adv-x="593" 
d="M197 -395h-263l11 55h202l310 1755h-203l10 55h262z" />
    <glyph glyph-name="asciicircum" unicode="^" horiz-adv-x="1300" 
d="M1028 561l-237 758l-504 -758h-66l547 823h59l260 -823h-59z" />
    <glyph glyph-name="underscore" unicode="_" horiz-adv-x="972" 
d="M809 -395h-973l10 55h973z" />
    <glyph glyph-name="grave" unicode="`" 
d="M766 1217h-72l-153 253h71z" />
    <glyph glyph-name="a" unicode="a" horiz-adv-x="1028" 
d="M711 0l39 227q-68 -116 -171.5 -181.5t-222.5 -65.5q-143 0 -224 72.5t-81 199.5q0 166 136.5 260t375.5 94q91 0 250 -12l18 104q28 153 -39 244.5t-204 91.5q-141 0 -231.5 -84.5t-125.5 -249.5h-63q32 188 142.5 290t281.5 102q166 0 251 -106t56 -275l-125 -711h-63z
M119 252q0 -105 61.5 -160t179.5 -55q149 0 270.5 111t153.5 288l19 105q-123 10 -248 10q-203 0 -319.5 -80t-116.5 -219z" />
    <glyph glyph-name="b" unicode="b" horiz-adv-x="1140" 
d="M1067 684q0 -195 -73 -357t-200 -254.5t-280 -92.5q-127 0 -214.5 75t-113.5 207l-47 -262h-63l260 1470h63l-118 -673q71 137 184.5 216t239.5 79q166 0 264 -110.5t98 -297.5zM1001 682q0 167 -80 259.5t-223 92.5q-85 0 -162 -38t-134.5 -103t-100 -148t-64.5 -175.5
t-22 -182.5q0 -162 81.5 -256t225.5 -94q132 0 242 85.5t173.5 234t63.5 325.5z" />
    <glyph glyph-name="c" unicode="c" horiz-adv-x="1038" 
d="M465 -20q-169 0 -277 124.5t-108 319.5q0 186 69 338.5t192 240t275 87.5q162 0 260 -110t101 -300h-62q-6 170 -85.5 261t-219.5 91q-131 0 -237.5 -80t-167 -219.5t-60.5 -308.5q0 -173 90 -280t236 -107q285 0 393 354h64q-120 -411 -463 -411z" />
    <glyph glyph-name="d" unicode="d" horiz-adv-x="1140" 
d="M74 387q0 195 73 357t200 255t280 93q127 0 214 -75.5t113 -207.5l117 661h64l-261 -1470h-63l49 274q-70 -136 -184 -215t-240 -79q-166 0 -264 110t-98 297zM139 389q0 -167 80 -259.5t223 -92.5q105 0 197.5 58.5t154 152t97 208.5t35.5 228q0 162 -82 256t-226 94
q-132 0 -242 -85.5t-173.5 -234t-63.5 -325.5z" />
    <glyph glyph-name="e" unicode="e" horiz-adv-x="1058" 
d="M485 -20q-181 0 -293 123t-112 321q0 186 71.5 338.5t196.5 240t277 87.5q134 0 225.5 -73.5t121 -200t-2.5 -296.5h-817q-7 -54 -7 -96q0 -177 94.5 -282t252.5 -105q271 0 382 323h64q-123 -380 -453 -380zM618 1032q-167 0 -293 -127t-165 -327h753
q31 209 -49.5 331.5t-245.5 122.5z" />
    <glyph glyph-name="f" unicode="f" horiz-adv-x="628" 
d="M209 0h-68l178 1016h-256l11 55h256l20 119q25 148 95.5 220.5t193.5 72.5q61 0 117 -17l-13 -63q-47 18 -110 18q-93 0 -143 -54t-72 -177l-21 -119h320l-10 -55h-320z" />
    <glyph glyph-name="g" unicode="g" horiz-adv-x="1142" 
d="M414 -416q-181 0 -278 95t-97 274h61q0 -152 81.5 -231.5t236.5 -79.5q159 0 262 93t135 273l47 266q-69 -133 -182 -208.5t-242 -75.5q-166 0 -264 110t-98 297q0 191 73.5 351t200.5 252t279 92q127 0 214 -75.5t113 -207.5l48 262h63l-188 -1061q-37 -210 -156 -318
t-309 -108zM141 399q0 -167 80 -259.5t223 -92.5q106 0 198.5 57t154 148t96.5 204.5t35 227.5q0 162 -81.5 256t-225.5 94q-131 0 -241.5 -84.5t-174.5 -231t-64 -319.5z" />
    <glyph glyph-name="h" unicode="h" horiz-adv-x="1091" 
d="M256 645l-115 -645h-65l258 1470h63l-108 -626q64 117 164.5 182.5t214.5 65.5q158 0 241 -111.5t52 -284.5l-123 -696h-66l117 672q29 169 -31.5 265.5t-198.5 96.5q-139 0 -256.5 -113t-146.5 -276z" />
    <glyph glyph-name="i" unicode="i" horiz-adv-x="405" 
d="M416 1333q0 -37 -26.5 -64.5t-61.5 -27.5q-27 0 -44.5 17.5t-17.5 44.5q0 37 26.5 63.5t61.5 26.5q28 0 45 -17t17 -43zM141 0h-65l188 1071h66z" />
    <glyph glyph-name="j" unicode="j" horiz-adv-x="401" 
d="M414 1333q0 -37 -26.5 -64.5t-61.5 -27.5q-27 0 -44.5 17.5t-17.5 44.5q0 37 26.5 63.5t61.5 26.5q28 0 45 -17t17 -43zM326 1071l-217 -1229q-22 -125 -97.5 -191.5t-195.5 -66.5q-70 0 -113 21l10 61q55 -18 111 -18q89 0 144.5 49.5t72.5 144.5l217 1229h68z" />
    <glyph glyph-name="k" unicode="k" horiz-adv-x="913" 
d="M141 0h-65l260 1470h65l-163 -921l643 522h88l-660 -536l510 -535h-84l-502 524z" />
    <glyph glyph-name="l" unicode="l" horiz-adv-x="405" 
d="M139 0h-63l260 1470h63z" />
    <glyph glyph-name="m" unicode="m" horiz-adv-x="1771" 
d="M141 0h-65l188 1071h64l-39 -227q65 117 163 182.5t212 65.5q131 0 206.5 -74.5t81.5 -204.5q62 131 173.5 205t226.5 74q159 0 239 -110.5t49 -285.5l-122 -696h-66l117 672q29 170 -30 266t-196 96q-135 0 -253 -112.5t-146 -268.5l-115 -653h-67l119 672
q29 170 -30 266t-196 96q-139 0 -254.5 -113t-144.5 -276z" />
    <glyph glyph-name="n" unicode="n" horiz-adv-x="1091" 
d="M256 645l-115 -645h-65l188 1071h64l-39 -227q64 117 164.5 182.5t214.5 65.5q160 0 242 -110.5t51 -285.5l-123 -696h-66l117 672q29 169 -31.5 265.5t-198.5 96.5q-139 0 -256.5 -113t-146.5 -276z" />
    <glyph glyph-name="o" unicode="o" horiz-adv-x="1110" 
d="M461 -20q-172 0 -278.5 119t-106.5 311q0 183 77 340t209 248.5t287 91.5q172 0 278.5 -119.5t106.5 -311.5q0 -183 -77 -339.5t-209 -248t-287 -91.5zM467 37q134 0 249.5 84.5t184 228t68.5 309.5q0 170 -88.5 271.5t-237.5 101.5q-134 0 -249.5 -84.5t-184 -228
t-68.5 -309.5q0 -170 88.5 -271.5t237.5 -101.5z" />
    <glyph glyph-name="p" unicode="p" horiz-adv-x="1140" 
d="M1067 684q0 -195 -73 -357t-200 -254.5t-280 -92.5q-127 0 -214.5 75t-113.5 207l-116 -657h-64l260 1466h64l-49 -274q71 137 184.5 216t239.5 79q166 0 264 -110.5t98 -297.5zM1001 682q0 167 -80 259.5t-223 92.5q-85 0 -162 -38t-134.5 -103t-100 -148t-64.5 -175.5
t-22 -182.5q0 -162 81.5 -256t225.5 -94q132 0 242 85.5t173.5 234t63.5 325.5z" />
    <glyph glyph-name="q" unicode="q" horiz-adv-x="1140" 
d="M74 387q0 195 73 357t200 255t280 93q127 0 214 -75.5t113 -207.5l47 262h64l-260 -1466h-64l119 669q-70 -136 -184 -215t-240 -79q-166 0 -264 110t-98 297zM139 389q0 -167 80 -259.5t223 -92.5q105 0 197.5 58.5t154 152t97 208.5t35.5 228q0 162 -82 256t-226 94
q-132 0 -242 -85.5t-173.5 -234t-63.5 -325.5z" />
    <glyph glyph-name="r" unicode="r" horiz-adv-x="638" 
d="M248 602l-107 -602h-65l188 1071h64l-47 -264q63 124 186.5 204.5t249.5 80.5l-12 -72q-156 0 -291 -122.5t-166 -295.5z" />
    <glyph glyph-name="s" unicode="s" horiz-adv-x="995" 
d="M836 281q0 -142 -101.5 -221.5t-288.5 -79.5q-169 0 -273.5 88t-113.5 251h62q9 -137 99 -210.5t231 -73.5q150 0 234.5 62.5t84.5 183.5q0 88 -49 132t-160 72l-125 31q-125 30 -192.5 95.5t-67.5 181.5q0 135 103 217t274 82q162 0 252 -87t96 -243h-61
q-22 274 -287 274q-142 0 -226.5 -65.5t-84.5 -175.5q0 -95 53 -143t158 -74l127 -31q43 -11 77.5 -24t69 -34.5t57.5 -49t37.5 -68t14.5 -90.5z" />
    <glyph glyph-name="t" unicode="t" horiz-adv-x="694" 
d="M530 66l-10 -66q-53 -20 -119 -20q-126 0 -186 80.5t-35 218.5l129 737h-256l10 55h256l56 318h67l-55 -318h334l-10 -55h-334l-129 -737q-20 -117 20 -177.5t138 -60.5q63 0 124 25z" />
    <glyph glyph-name="u" unicode="u" horiz-adv-x="1071" 
d="M815 426l115 645h65l-188 -1071h-64l39 227q-65 -117 -161.5 -182t-206.5 -65q-159 0 -236.5 109.5t-46.5 285.5l123 696h65l-118 -672q-30 -171 27 -266.5t194 -95.5q136 0 250 113t143 276z" />
    <glyph glyph-name="v" unicode="v" horiz-adv-x="892" 
d="M971 1071l-590 -1071h-62l-208 1071h67l187 -985l534 985h72z" />
    <glyph glyph-name="w" unicode="w" horiz-adv-x="1427" 
d="M926 0l-133 981l-480 -981h-69l-113 1071h66l100 -973l475 973h68l133 -975l442 975h70l-492 -1071h-67z" />
    <glyph glyph-name="x" unicode="x" horiz-adv-x="894" 
d="M2 0h-76l488 557l-273 514h72l250 -469l414 469h75l-458 -520l286 -551h-71l-265 506z" />
    <glyph glyph-name="y" unicode="y" horiz-adv-x="892" 
d="M971 1071l-793 -1466h-69l223 411l-221 1055h67l201 -967l520 967h72z" />
    <glyph glyph-name="z" unicode="z" horiz-adv-x="884" 
d="M741 0h-786l6 39l840 975h-637l10 57h729l-8 -45l-834 -969h691z" />
    <glyph glyph-name="braceleft" unicode="{" horiz-adv-x="581" 
d="M53 508l10 57q122 0 171 42.5t65 135.5l90 510q19 101 87 162.5t159 61.5q21 0 53 -7l-10 -55q-12 2 -35 2q-76 0 -129 -48.5t-68 -135.5l-84 -477q-18 -91 -56 -148t-120 -76q62 -17 87.5 -76t11.5 -139l-84 -475q-15 -88 16.5 -137t108.5 -49q15 0 43 4l-11 -55
q-32 -4 -45 -4q-93 0 -143 64t-33 157l90 510q16 91 -21 133.5t-153 42.5z" />
    <glyph glyph-name="bar" unicode="|" horiz-adv-x="487" 
d="M109 -395h-60l330 1865h59z" />
    <glyph glyph-name="braceright" unicode="}" horiz-adv-x="579" 
d="M528 569l-10 -57q-64 0 -107 -11.5t-68.5 -36t-38.5 -54.5t-21 -76l-90 -510q-19 -101 -87 -162t-159 -61q-26 0 -53 6l10 55q12 -2 35 -2q76 0 128.5 48.5t67.5 135.5l84 478q18 91 56 147.5t120 75.5q-62 17 -87 76t-11 139l84 475q14 85 -15 135.5t-110 50.5
q-15 0 -43 -4l10 56q32 4 45 4q92 0 142.5 -64.5t33.5 -157.5l-90 -510q-16 -92 20.5 -134t153.5 -42z" />
    <glyph glyph-name="asciitilde" unicode="~" horiz-adv-x="1351" 
d="M950 559q-57 0 -126.5 35.5t-124 78t-122 78t-122.5 35.5q-154 0 -189 -215h-61q52 271 256 271q52 0 107 -23.5t102 -57t93 -67t96.5 -57t96.5 -23.5q154 0 189 215h61q-52 -270 -256 -270z" />
    <glyph glyph-name="nbspace" unicode="&#xa0;" horiz-adv-x="407" 
 />
    <glyph glyph-name="exclamdown" unicode="&#xa1;" horiz-adv-x="471" 
d="M410 1008q0 -46 -34 -81.5t-77 -35.5q-35 0 -56.5 22t-21.5 56q0 47 34 81.5t79 34.5q32 0 54 -21.5t22 -55.5zM106 -395h-67l209 1140h51z" />
    <glyph glyph-name="cent" unicode="&#xa2;" horiz-adv-x="1038" 
d="M446 -184h-57l29 166q-151 19 -244.5 140t-93.5 302q0 182 66 332.5t185 239t267 94.5l29 165h57l-29 -168q146 -12 232.5 -120.5t89.5 -286.5h-62q-6 170 -85.5 261t-219.5 91q-131 0 -237.5 -80t-167 -219.5t-60.5 -308.5q0 -173 90 -280t236 -107q285 0 393 354h64
q-117 -405 -455 -411z" />
    <glyph glyph-name="sterling" unicode="&#xa3;" horiz-adv-x="1021" 
d="M207 209q-149 0 -191 -209h-61q26 127 84.5 195t161.5 75l67 383h-174l10 56h175l51 284q34 190 127.5 301t249.5 111q147 0 228 -91.5t81 -266.5h-66q0 149 -62 225t-181 76q-126 0 -202.5 -94.5t-111.5 -280.5l-49 -264h408l-11 -56h-407l-68 -389q50 -12 104 -48.5
t91.5 -72.5t87.5 -65t96 -29q70 0 114 49.5t64 159.5h64q-44 -270 -252 -270q-46 0 -93.5 23t-88 55.5t-80 64.5t-83 55t-83.5 23z" />
    <glyph glyph-name="currency" unicode="&#xa4;" horiz-adv-x="1282" 
d="M584 262q-145 0 -240 98l-129 -116l-35 41l133 116q-53 77 -53 185q0 111 43 215t119 180l-92 119l39 39l92 -121q126 104 287 104q149 0 241 -102l131 119l37 -39l-135 -121q49 -81 49 -180q0 -109 -41.5 -211t-114.5 -180l97 -123l-39 -41l-96 127q-131 -109 -293 -109
zM588 319q119 0 216.5 67.5t151.5 177t54 235.5q0 120 -74.5 193t-192.5 73q-120 0 -217.5 -67t-150.5 -176t-53 -236q0 -122 74 -194.5t192 -72.5z" />
    <glyph glyph-name="yen" unicode="&#xa5;" horiz-adv-x="1026" 
d="M911 393h-389l-69 -393h-70l70 393h-387l10 56h387l12 69l-43 135h-321l10 56h295l-209 673h69l244 -788l520 788h78l-446 -673h295l-11 -56h-321l-90 -135l-13 -69h390z" />
    <glyph glyph-name="brokenbar" unicode="&#xa6;" horiz-adv-x="487" 
d="M379 1470h59l-153 -870h-60zM203 475h59l-153 -870h-60z" />
    <glyph glyph-name="section" unicode="&#xa7;" horiz-adv-x="1032" 
d="M111 483q0 120 82 205t227 113q-170 83 -170 284q0 138 104 229t273 91q162 0 252 -87t96 -243h-62q-22 275 -286 275q-140 0 -226 -75t-86 -188q0 -107 56 -172t155 -86l127 -26q119 -25 187.5 -98.5t68.5 -186.5q0 -120 -82.5 -209.5t-226.5 -118.5q80 -40 125 -111.5
t45 -172.5q0 -138 -104 -229t-273 -91q-162 0 -252 87t-96 243h61q22 -274 287 -274q140 0 226 74.5t86 187.5q0 107 -56 172t-155 86l-127 26q-117 25 -186.5 103t-69.5 192zM176 483q0 -120 95.5 -188t242.5 -68q138 0 234 84.5t96 206.5q0 117 -90 181.5t-248 64.5
q-139 0 -234.5 -80t-95.5 -201z" />
    <glyph glyph-name="dieresis" unicode="&#xa8;" 
d="M887 1341q0 -39 -29 -69.5t-67 -30.5q-29 0 -48.5 20.5t-19.5 49.5q0 38 30 68t68 30q29 0 47.5 -18.5t18.5 -49.5zM582 1341q0 -39 -29.5 -69.5t-67.5 -30.5q-30 0 -48.5 20t-18.5 50q0 39 29.5 68.5t68.5 29.5q29 0 47.5 -18.5t18.5 -49.5z" />
    <glyph glyph-name="copyright" unicode="&#xa9;" horiz-adv-x="1542" 
d="M688 -18q-126 0 -235.5 45.5t-188 125t-123.5 193t-45 244.5q0 169 64.5 320.5t173 259.5t258 171.5t313.5 63.5q169 0 305 -76.5t213.5 -216t77.5 -315.5q0 -169 -64.5 -320.5t-174 -259.5t-259.5 -171.5t-315 -63.5zM688 37q150 0 288 59.5t239 161t161 242.5t60 297
q0 246 -149.5 399.5t-381.5 153.5q-149 0 -286 -59.5t-237 -161t-160 -242.5t-60 -297q0 -246 148 -399.5t378 -153.5zM1034 600h64q-47 -138 -137 -210.5t-213 -72.5q-132 0 -213.5 84t-81.5 220q0 186 115.5 316t281.5 130q124 0 202 -79t78 -204h-63q0 100 -61 164
t-156 64q-138 0 -235 -114t-97 -277q0 -115 62.5 -181.5t171.5 -66.5q100 0 173.5 59t108.5 168z" />
    <glyph glyph-name="ordfeminine" unicode="&#xaa;" horiz-adv-x="845" 
d="M651 522l33 180q-54 -92 -136.5 -144t-176.5 -52q-116 0 -186 59.5t-70 157.5q0 130 114.5 208.5t305.5 78.5q66 0 198 -6l15 75q23 119 -29.5 189.5t-163.5 70.5q-219 0 -276 -256h-62q28 150 116.5 232t223.5 82q136 0 208.5 -86.5t49.5 -220.5l-98 -568h-66zM182 723
q0 -78 49.5 -119t143.5 -41q124 0 220 88t118 219l12 76q-79 8 -197 8q-163 0 -254.5 -61t-91.5 -170z" />
    <glyph glyph-name="guillemotleft" unicode="&#xab;" horiz-adv-x="806" 
d="M340 127h-64l-192 420l338 420h72l-344 -426zM647 127h-63l-193 420l338 420h72l-344 -426z" />
    <glyph glyph-name="logicalnot" unicode="&#xac;" horiz-adv-x="1351" 
d="M1128 467h-59l66 375h-891l10 55h950z" />
    <glyph glyph-name="softhyphen" unicode="&#xad;" horiz-adv-x="708" 
d="M668 537h-627l10 61h627z" />
    <glyph glyph-name="registered" unicode="&#xae;" horiz-adv-x="1542" 
d="M688 -18q-126 0 -235.5 45.5t-188 125t-123.5 193t-45 244.5q0 169 64.5 320.5t173 259.5t258 171.5t313.5 63.5q169 0 305 -76.5t213.5 -216t77.5 -315.5q0 -169 -64.5 -320.5t-174 -259.5t-259.5 -171.5t-315 -63.5zM688 37q150 0 288 59.5t239 161t161 242.5t60 297
q0 246 -149.5 399.5t-381.5 153.5q-149 0 -286 -59.5t-237 -161t-160 -242.5t-60 -297q0 -246 148 -399.5t378 -153.5zM930 332l-135 289h-166l-51 -289h-62l127 721h242q88 0 142 -52t54 -135q0 -96 -58.5 -159t-164.5 -82l139 -293h-67zM866 997h-170l-57 -321h170
q95 0 153 52t58 138q0 61 -41 96t-113 35z" />
    <glyph glyph-name="macron" unicode="&#xaf;" 
d="M889 1247h-504l10 58h504z" />
    <glyph glyph-name="degree" unicode="&#xb0;" horiz-adv-x="915" 
d="M487 621q-164 0 -260 94.5t-96 255.5q0 138 64 255.5t174.5 186t240.5 68.5q164 0 260.5 -95t96.5 -256q0 -138 -64.5 -255.5t-175 -185.5t-240.5 -68zM494 676q111 0 204.5 61t148 165.5t54.5 227.5q0 139 -78.5 217t-218.5 78q-111 0 -204.5 -61t-148 -165.5
t-54.5 -227.5q0 -139 78.5 -217t218.5 -78z" />
    <glyph glyph-name="plusminus" unicode="&#xb1;" horiz-adv-x="1351" 
d="M653 233h-59l86 484h-457l8 55h457l86 481h60l-86 -481h454l-8 -55h-455zM1067 2h-971l10 55h971z" />
    <glyph glyph-name="twosuperior" unicode="&#xb2;" horiz-adv-x="630" 
d="M664 1108l-11 -53h-485l6 35l332 301q97 89 141.5 162.5t44.5 144.5q0 64 -44 104.5t-113 40.5q-90 0 -148.5 -48.5t-73.5 -135.5h-57q22 113 95.5 176t183.5 63q96 0 157.5 -55.5t61.5 -142.5t-48.5 -166.5t-164.5 -183.5l-269 -242h392z" />
    <glyph glyph-name="threesuperior" unicode="&#xb3;" horiz-adv-x="729" 
d="M774 1292q0 -106 -78 -175.5t-196 -69.5q-126 0 -205.5 65.5t-79.5 169.5h55q0 -78 65 -129t165 -51q92 0 151.5 53.5t59.5 136.5q0 71 -58.5 118.5t-144.5 47.5h-82l10 53h82q92 0 158.5 58.5t66.5 140.5q0 63 -42 99t-115 36q-79 0 -139 -45.5t-80 -120.5h-58
q23 98 100 160t177 62q97 0 158 -53t61 -138q0 -78 -48.5 -138t-135.5 -89q153 -53 153 -191z" />
    <glyph glyph-name="acute" unicode="&#xb4;" 
d="M578 1217h-86l241 253h86z" />
    <glyph glyph-name="micro" unicode="&#xb5;" horiz-adv-x="1081" 
d="M80 -395h-68l252 1466h66l-119 -672q-31 -171 28 -266.5t193 -95.5q135 0 249.5 112.5t143.5 276.5l115 645h66l-189 -1071h-63l39 227q-64 -118 -161 -182.5t-208 -64.5q-92 0 -161.5 44.5t-92.5 118.5z" />
    <glyph glyph-name="paragraph" unicode="&#xb6;" horiz-adv-x="1196" 
d="M494 -395h-62l158 884q-200 -15 -322.5 87.5t-122.5 285.5q0 236 147.5 379t391.5 143h621l-11 -59h-233l-305 -1720h-60l305 1720h-202z" />
    <glyph glyph-name="periodcentered" unicode="&#xb7;" horiz-adv-x="509" 
d="M350 569q0 -46 -32.5 -81t-75.5 -35q-35 0 -56.5 21.5t-21.5 55.5q0 46 33 81.5t77 35.5q34 0 55 -22t21 -56z" />
    <glyph glyph-name="cedilla" unicode="&#xb8;" 
d="M561 -233q0 -74 -55 -123.5t-139 -49.5q-83 0 -133 44t-50 118h60q0 -51 33.5 -80.5t89.5 -29.5q60 0 95.5 33t35.5 88q0 58 -48.5 89.5t-113.5 22.5l67 135h56l-49 -96q64 -2 107.5 -45t43.5 -106z" />
    <glyph glyph-name="onesuperior" unicode="&#xb9;" horiz-adv-x="419" 
d="M342 1055h-57l137 778h-170l10 53h227z" />
    <glyph glyph-name="ordmasculine" unicode="&#xba;" horiz-adv-x="962" 
d="M479 506q-141 0 -228 95t-87 249q0 148 63 274t170.5 199.5t233.5 73.5q141 0 228 -95t87 -249q0 -148 -63 -274t-170.5 -199.5t-233.5 -73.5zM483 563q164 0 280 143t116 347q0 135 -66.5 210.5t-185.5 75.5q-164 0 -280 -142.5t-116 -346.5q0 -135 66.5 -211t185.5 -76
z" />
    <glyph glyph-name="guillemotright" unicode="&#xbb;" horiz-adv-x="806" 
d="M164 967h63l193 -420l-338 -420h-72l344 426zM471 967h64l192 -420l-338 -420h-72l345 426z" />
    <glyph glyph-name="onequarter" unicode="&#xbc;" horiz-adv-x="1218" 
d="M254 553h-57l137 778h-170l10 53h227zM113 0h-62l979 1384h64zM1094 209h-111l-37 -209h-59l37 209h-418l6 37l545 585h37l-101 -569h111zM590 262h344l84 459z" />
    <glyph glyph-name="onehalf" unicode="&#xbd;" horiz-adv-x="1300" 
d="M254 553h-57l137 778h-170l10 53h227zM113 0h-62l979 1384h64zM1147 53l-10 -53h-486l6 35l332 301q98 89 142.5 162.5t44.5 144.5q0 64 -44.5 104.5t-113.5 40.5q-90 0 -148 -48.5t-73 -135.5h-58q22 113 95.5 176.5t183.5 63.5q96 0 157.5 -56t61.5 -143t-48.5 -166.5
t-164.5 -183.5l-268 -242h391z" />
    <glyph glyph-name="threequarters" unicode="&#xbe;" horiz-adv-x="1587" 
d="M686 791q0 -106 -78 -176t-196 -70q-126 0 -205.5 65.5t-79.5 169.5h55q0 -78 65 -129t165 -51q92 0 151.5 54t59.5 137q0 70 -58.5 117.5t-144.5 47.5h-82l10 54h82q92 0 158.5 58t66.5 140q0 63 -42 99t-115 36q-79 0 -139 -45t-80 -120h-58q23 98 100 159.5t177 61.5
q97 0 158 -53t61 -138q0 -78 -48.5 -138t-136.5 -89q154 -53 154 -190zM422 0h-62l979 1384h64zM1462 209h-110l-37 -209h-60l37 209h-418l7 37l544 585h37l-100 -569h111zM958 262h345l83 459z" />
    <glyph glyph-name="questiondown" unicode="&#xbf;" horiz-adv-x="778" 
d="M416 969q0 46 33 81t77 35q32 0 54 -21.5t22 -55.5q0 -46 -33.5 -81.5t-76.5 -35.5q-34 0 -55 22t-21 56zM569 -74h66q-41 -162 -147.5 -252t-256.5 -90q-136 0 -220.5 81t-84.5 212q0 187 238 379l88 72q49 40 75 67.5t53 74t44 111.5t31 164h53q-24 -196 -63.5 -281.5
t-135.5 -164.5l-104 -86q-111 -91 -161 -170.5t-50 -165.5q0 -105 64.5 -168t172.5 -63q126 0 214.5 73t123.5 207z" />
    <glyph glyph-name="Agrave" unicode="&#xc0;" horiz-adv-x="1320" 
d="M879 1616h-72l-154 254h72zM1092 0l-91 455h-704l-250 -455h-72l813 1470h78l291 -1470h-65zM817 1399l-485 -883h659z" />
    <glyph glyph-name="Aacute" unicode="&#xc1;" horiz-adv-x="1320" 
d="M899 1616h-86l242 254h86zM1092 0l-91 455h-704l-250 -455h-72l813 1470h78l291 -1470h-65zM817 1399l-485 -883h659z" />
    <glyph glyph-name="Acircumflex" unicode="&#xc2;" horiz-adv-x="1320" 
d="M664 1616h-89l297 254h52l209 -254h-74l-164 196zM1092 0l-91 455h-704l-250 -455h-72l813 1470h78l291 -1470h-65zM817 1399l-485 -883h659z" />
    <glyph glyph-name="Atilde" unicode="&#xc3;" horiz-adv-x="1320" 
d="M612 1616h-55q15 115 66 179.5t125 64.5q35 0 65 -18.5t51.5 -45t41.5 -52.5t45 -44.5t53 -18.5q46 0 79 50t45 139h58q-15 -114 -66 -179t-125 -65q-35 0 -65 18.5t-51.5 44.5t-41.5 52t-45 44.5t-53 18.5q-48 0 -81.5 -49.5t-45.5 -138.5zM1092 0l-91 455h-704
l-250 -455h-72l813 1470h78l291 -1470h-65zM817 1399l-485 -883h659z" />
    <glyph glyph-name="Adieresis" unicode="&#xc4;" horiz-adv-x="1320" 
d="M1108 1741q0 -39 -29 -70t-67 -31q-29 0 -48.5 20.5t-19.5 49.5q0 38 30 68t68 30q30 0 48 -18t18 -49zM803 1741q0 -39 -29 -70t-67 -31q-30 0 -49 20t-19 50q0 39 29.5 68.5t68.5 29.5q29 0 47.5 -18t18.5 -49zM1092 0l-91 455h-704l-250 -455h-72l813 1470h78
l291 -1470h-65zM817 1399l-485 -883h659z" />
    <glyph glyph-name="Aring" unicode="&#xc5;" horiz-adv-x="1320" 
d="M858 1608q-76 0 -126 48t-50 122q0 93 68 160t163 67q76 0 127.5 -49t51.5 -123q0 -91 -69.5 -158t-164.5 -67zM864 1661q69 0 118.5 50t49.5 122q0 54 -34.5 86.5t-90.5 32.5q-69 0 -117.5 -50.5t-48.5 -123.5q0 -54 33 -85.5t90 -31.5zM1092 0l-91 455h-704l-250 -455
h-72l813 1470h78l291 -1470h-65zM817 1399l-485 -883h659z" />
    <glyph glyph-name="AE" unicode="&#xc6;" horiz-adv-x="1662" 
d="M829 455h-493l-328 -455h-74l1065 1470h684l-12 -61h-606l-109 -618h547l-10 -62h-547l-119 -668h619l-10 -61h-686zM840 516l149 842l-608 -842h459z" />
    <glyph glyph-name="Ccedilla" unicode="&#xc7;" horiz-adv-x="1499" 
d="M721 -31h-35l-27 -51q65 -2 108.5 -45t43.5 -106q0 -74 -55.5 -123.5t-139.5 -49.5q-83 0 -132.5 44t-49.5 118h60q0 -51 33 -80.5t89 -29.5q60 0 96 33t36 88q0 58 -48.5 89.5t-113.5 22.5l47 96q-229 29 -371.5 204t-142.5 431q0 184 64.5 349t174.5 284t262.5 188.5
t321.5 69.5q238 0 387.5 -156t149.5 -405h-68q0 226 -130.5 363t-346.5 137q-155 0 -293.5 -64.5t-237.5 -175t-157 -264.5t-58 -326q0 -258 150 -418.5t389 -160.5q452 0 612 501h70q-183 -563 -688 -563z" />
    <glyph glyph-name="Egrave" unicode="&#xc8;" horiz-adv-x="1093" 
d="M788 1616h-71l-154 254h72zM877 61l-11 -61h-786l260 1470h772l-12 -61h-705l-108 -618h647l-10 -62h-648l-118 -668h719z" />
    <glyph glyph-name="Eacute" unicode="&#xc9;" horiz-adv-x="1093" 
d="M809 1616h-86l242 254h86zM877 61l-11 -61h-786l260 1470h772l-12 -61h-705l-108 -618h647l-10 -62h-648l-118 -668h719z" />
    <glyph glyph-name="Ecircumflex" unicode="&#xca;" horiz-adv-x="1093" 
d="M573 1616h-88l297 254h52l208 -254h-73l-164 196zM877 61l-11 -61h-786l260 1470h772l-12 -61h-705l-108 -618h647l-10 -62h-648l-118 -668h719z" />
    <glyph glyph-name="Edieresis" unicode="&#xcb;" horiz-adv-x="1093" 
d="M1018 1741q0 -39 -29 -70t-67 -31q-29 0 -48.5 20.5t-19.5 49.5q0 38 30 68t68 30q30 0 48 -18t18 -49zM713 1741q0 -39 -29.5 -70t-67.5 -31q-30 0 -48.5 20t-18.5 50q0 39 29.5 68.5t68.5 29.5q29 0 47.5 -18t18.5 -49zM877 61l-11 -61h-786l260 1470h772l-12 -61h-705
l-108 -618h647l-10 -62h-648l-118 -668h719z" />
    <glyph glyph-name="Igrave" unicode="&#xcc;" horiz-adv-x="417" 
d="M422 1616h-70l-133 254h70zM147 0h-67l260 1470h68z" />
    <glyph glyph-name="Iacute" unicode="&#xcd;" horiz-adv-x="417" 
d="M444 1616h-82l222 254h82zM147 0h-67l260 1470h68z" />
    <glyph glyph-name="Icircumflex" unicode="&#xce;" horiz-adv-x="417" 
d="M225 1616h-82l273 254h45l182 -254h-68l-141 196zM147 0h-67l260 1470h68z" />
    <glyph glyph-name="Idieresis" unicode="&#xcf;" horiz-adv-x="417" 
d="M637 1743q0 -40 -28 -71.5t-64 -31.5q-28 0 -45 19.5t-17 48.5q0 41 27.5 70.5t64.5 29.5q28 0 45 -18t17 -47zM356 1743q0 -40 -28 -71.5t-64 -31.5q-28 0 -45.5 19.5t-17.5 48.5q0 40 28 70t66 30q28 0 44.5 -18t16.5 -47zM147 0h-67l260 1470h68z" />
    <glyph glyph-name="Eth" unicode="&#xd0;" horiz-adv-x="1396" 
d="M549 0h-385l129 731h-246l10 57h246l121 682h358q251 0 407.5 -172.5t156.5 -449.5q0 -241 -103 -435t-285.5 -303.5t-408.5 -109.5zM678 731h-318l-118 -670h319q152 0 284.5 59.5t227 163.5t149 250.5t54.5 313.5q0 252 -138.5 406.5t-365.5 154.5h-293l-108 -621h317z
" />
    <glyph glyph-name="Ntilde" unicode="&#xd1;" horiz-adv-x="1406" 
d="M653 1616h-55q15 115 65.5 179.5t124.5 64.5q35 0 65 -18.5t51.5 -45t41.5 -52.5t45 -44.5t53 -18.5q46 0 79.5 50t45.5 139h58q-15 -114 -66 -179t-125 -65q-35 0 -65 18.5t-51.5 44.5t-41.5 52t-45 44.5t-53 18.5q-48 0 -81.5 -49.5t-45.5 -138.5zM1053 0l-664 1376
l-244 -1376h-65l260 1470h80l665 -1384l246 1384h66l-260 -1470h-84z" />
    <glyph glyph-name="Ograve" unicode="&#xd2;" horiz-adv-x="1587" 
d="M989 1616h-71l-154 254h72zM721 -31q-264 0 -433 180t-169 461q0 184 64.5 349t174.5 284t262.5 188.5t321.5 69.5q173 0 309.5 -80.5t212.5 -225.5t76 -329t-64.5 -350t-174 -286t-261 -190.5t-319.5 -70.5zM727 31q154 0 292 65t237 176t156.5 266t57.5 328
q0 255 -148.5 414.5t-387.5 159.5q-155 0 -293.5 -64.5t-237.5 -175t-157 -264.5t-58 -326q0 -258 150 -418.5t389 -160.5z" />
    <glyph glyph-name="Oacute" unicode="&#xd3;" horiz-adv-x="1587" 
d="M1010 1616h-86l241 254h86zM721 -31q-264 0 -433 180t-169 461q0 184 64.5 349t174.5 284t262.5 188.5t321.5 69.5q173 0 309.5 -80.5t212.5 -225.5t76 -329t-64.5 -350t-174 -286t-261 -190.5t-319.5 -70.5zM727 31q154 0 292 65t237 176t156.5 266t57.5 328
q0 255 -148.5 414.5t-387.5 159.5q-155 0 -293.5 -64.5t-237.5 -175t-157 -264.5t-58 -326q0 -258 150 -418.5t389 -160.5z" />
    <glyph glyph-name="Ocircumflex" unicode="&#xd4;" horiz-adv-x="1587" 
d="M774 1616h-88l297 254h51l209 -254h-74l-163 196zM721 -31q-264 0 -433 180t-169 461q0 184 64.5 349t174.5 284t262.5 188.5t321.5 69.5q173 0 309.5 -80.5t212.5 -225.5t76 -329t-64.5 -350t-174 -286t-261 -190.5t-319.5 -70.5zM727 31q154 0 292 65t237 176
t156.5 266t57.5 328q0 255 -148.5 414.5t-387.5 159.5q-155 0 -293.5 -64.5t-237.5 -175t-157 -264.5t-58 -326q0 -258 150 -418.5t389 -160.5z" />
    <glyph glyph-name="Otilde" unicode="&#xd5;" horiz-adv-x="1587" 
d="M723 1616h-55q15 115 65.5 179.5t124.5 64.5q35 0 65 -18.5t51.5 -45t41.5 -52.5t45 -44.5t53 -18.5q46 0 79.5 50t45.5 139h57q-15 -114 -65.5 -179t-124.5 -65q-35 0 -65 18.5t-51.5 44.5t-41.5 52t-45 44.5t-53 18.5q-48 0 -81.5 -49.5t-45.5 -138.5zM721 -31
q-264 0 -433 180t-169 461q0 184 64.5 349t174.5 284t262.5 188.5t321.5 69.5q173 0 309.5 -80.5t212.5 -225.5t76 -329t-64.5 -350t-174 -286t-261 -190.5t-319.5 -70.5zM727 31q154 0 292 65t237 176t156.5 266t57.5 328q0 255 -148.5 414.5t-387.5 159.5
q-155 0 -293.5 -64.5t-237.5 -175t-157 -264.5t-58 -326q0 -258 150 -418.5t389 -160.5z" />
    <glyph glyph-name="Odieresis" unicode="&#xd6;" horiz-adv-x="1587" 
d="M1219 1741q0 -39 -29.5 -70t-67.5 -31q-29 0 -48 20t-19 50q0 38 30 68t68 30q29 0 47.5 -18t18.5 -49zM913 1741q0 -39 -29 -70t-67 -31q-30 0 -48.5 20t-18.5 50q0 39 29.5 68.5t68.5 29.5q29 0 47 -18t18 -49zM721 -31q-264 0 -433 180t-169 461q0 184 64.5 349
t174.5 284t262.5 188.5t321.5 69.5q173 0 309.5 -80.5t212.5 -225.5t76 -329t-64.5 -350t-174 -286t-261 -190.5t-319.5 -70.5zM727 31q154 0 292 65t237 176t156.5 266t57.5 328q0 255 -148.5 414.5t-387.5 159.5q-155 0 -293.5 -64.5t-237.5 -175t-157 -264.5t-58 -326
q0 -258 150 -418.5t389 -160.5z" />
    <glyph glyph-name="multiply" unicode="&#xd7;" horiz-adv-x="1351" 
d="M264 266l-35 41l437 387l-297 385l41 37l297 -385l434 385l35 -41l-437 -387l297 -385l-41 -37l-297 385z" />
    <glyph glyph-name="Oslash" unicode="&#xd8;" horiz-adv-x="1587" 
d="M133 0h-78l195 195q-131 170 -131 415q0 184 64.5 349t174.5 284t262.5 188.5t321.5 69.5q269 0 438 -186l156 155h78l-199 -196q125 -170 125 -408q0 -184 -64.5 -350t-174 -286t-261 -190.5t-319.5 -70.5q-263 0 -436 183zM188 610q0 -219 109 -368l1036 1026
q-71 83 -173.5 127.5t-225.5 44.5q-155 0 -293.5 -64.5t-237.5 -175t-157 -264.5t-58 -326zM727 31q154 0 292 65t237 176t156.5 266t57.5 328q0 215 -104 359l-1034 -1026q152 -168 395 -168z" />
    <glyph glyph-name="Ugrave" unicode="&#xd9;" horiz-adv-x="1296" 
d="M864 1616h-71l-154 254h72zM1290 1470l-176 -995q-43 -242 -184.5 -374t-360.5 -132q-213 0 -331.5 136t-77.5 370l176 995h67l-178 -1003q-19 -108 0.5 -193t69.5 -137t118.5 -79t151.5 -27q194 0 318.5 115.5t160.5 320.5l179 1003h67z" />
    <glyph glyph-name="Uacute" unicode="&#xda;" horiz-adv-x="1296" 
d="M885 1616h-86l241 254h86zM1290 1470l-176 -995q-43 -242 -184.5 -374t-360.5 -132q-213 0 -331.5 136t-77.5 370l176 995h67l-178 -1003q-19 -108 0.5 -193t69.5 -137t118.5 -79t151.5 -27q194 0 318.5 115.5t160.5 320.5l179 1003h67z" />
    <glyph glyph-name="Ucircumflex" unicode="&#xdb;" horiz-adv-x="1296" 
d="M649 1616h-88l297 254h51l209 -254h-74l-163 196zM1290 1470l-176 -995q-43 -242 -184.5 -374t-360.5 -132q-213 0 -331.5 136t-77.5 370l176 995h67l-178 -1003q-19 -108 0.5 -193t69.5 -137t118.5 -79t151.5 -27q194 0 318.5 115.5t160.5 320.5l179 1003h67z" />
    <glyph glyph-name="Udieresis" unicode="&#xdc;" horiz-adv-x="1296" 
d="M1094 1741q0 -39 -29.5 -70t-67.5 -31q-29 0 -48 20t-19 50q0 38 30 68t68 30q30 0 48 -18t18 -49zM788 1741q0 -39 -29 -70t-67 -31q-30 0 -48.5 20t-18.5 50q0 39 29.5 68.5t68.5 29.5q29 0 47 -18t18 -49zM1290 1470l-176 -995q-43 -242 -184.5 -374t-360.5 -132
q-213 0 -331.5 136t-77.5 370l176 995h67l-178 -1003q-19 -108 0.5 -193t69.5 -137t118.5 -79t151.5 -27q194 0 318.5 115.5t160.5 320.5l179 1003h67z" />
    <glyph glyph-name="Yacute" unicode="&#xdd;" horiz-adv-x="1220" 
d="M840 1616h-86l241 254h86zM645 551l-98 -551h-68l99 551l-355 919h70l328 -849l626 849h78z" />
    <glyph glyph-name="Thorn" unicode="&#xde;" horiz-adv-x="1126" 
d="M549 291h-350l-52 -291h-67l260 1470h68l-52 -282h340q173 0 282 -105.5t109 -271.5q0 -229 -151 -374.5t-387 -145.5zM684 1126h-338l-137 -774h348q207 0 334 127t127 332q0 141 -92 228t-242 87z" />
    <glyph glyph-name="germandbls" unicode="&#xdf;" horiz-adv-x="1132" 
d="M1014 428q0 -107 -37 -193t-102 -141t-151 -84.5t-185 -29.5q-67 0 -131 12l10 59q62 -14 123 -14q82 0 154 24t129 71t90.5 123t33.5 173t-48.5 167.5t-123.5 103t-166 32.5h-71l10 57h72q168 0 280.5 104t112.5 282q0 117 -69.5 187.5t-190.5 70.5q-132 0 -230 -94
t-127 -261l-188 -1077h-68l178 1016h-256l11 55h256q35 196 147.5 307t280.5 111q146 0 234.5 -89.5t88.5 -225.5q0 -87 -27.5 -160t-75 -122.5t-102.5 -82.5t-118 -51q120 -38 188 -121.5t68 -208.5z" />
    <glyph glyph-name="agrave" unicode="&#xe0;" horiz-adv-x="1028" 
d="M659 1217h-71l-154 253h72zM711 0l39 227q-68 -116 -171.5 -181.5t-222.5 -65.5q-143 0 -224 72.5t-81 199.5q0 166 136.5 260t375.5 94q91 0 250 -12l18 104q28 153 -39 244.5t-204 91.5q-141 0 -231.5 -84.5t-125.5 -249.5h-63q32 188 142.5 290t281.5 102
q166 0 251 -106t56 -275l-125 -711h-63zM119 252q0 -105 61.5 -160t179.5 -55q149 0 270.5 111t153.5 288l19 105q-123 10 -248 10q-203 0 -319.5 -80t-116.5 -219z" />
    <glyph glyph-name="aacute" unicode="&#xe1;" horiz-adv-x="1028" 
d="M680 1217h-86l242 253h86zM711 0l39 227q-68 -116 -171.5 -181.5t-222.5 -65.5q-143 0 -224 72.5t-81 199.5q0 166 136.5 260t375.5 94q91 0 250 -12l18 104q28 153 -39 244.5t-204 91.5q-141 0 -231.5 -84.5t-125.5 -249.5h-63q32 188 142.5 290t281.5 102
q166 0 251 -106t56 -275l-125 -711h-63zM119 252q0 -105 61.5 -160t179.5 -55q149 0 270.5 111t153.5 288l19 105q-123 10 -248 10q-203 0 -319.5 -80t-116.5 -219z" />
    <glyph glyph-name="acircumflex" unicode="&#xe2;" horiz-adv-x="1028" 
d="M444 1217h-88l297 253h52l208 -253h-73l-164 196zM711 0l39 227q-68 -116 -171.5 -181.5t-222.5 -65.5q-143 0 -224 72.5t-81 199.5q0 166 136.5 260t375.5 94q91 0 250 -12l18 104q28 153 -39 244.5t-204 91.5q-141 0 -231.5 -84.5t-125.5 -249.5h-63q32 188 142.5 290
t281.5 102q166 0 251 -106t56 -275l-125 -711h-63zM119 252q0 -105 61.5 -160t179.5 -55q149 0 270.5 111t153.5 288l19 105q-123 10 -248 10q-203 0 -319.5 -80t-116.5 -219z" />
    <glyph glyph-name="atilde" unicode="&#xe3;" horiz-adv-x="1028" 
d="M393 1217h-55q15 115 65.5 179t124.5 64q35 0 65 -18.5t51.5 -44.5t41.5 -52t45 -44.5t53 -18.5q46 0 79.5 49.5t45.5 138.5h58q-15 -114 -66 -178.5t-125 -64.5q-35 0 -65 18.5t-51.5 44.5t-41.5 52t-45 44.5t-53 18.5q-48 0 -81.5 -49.5t-45.5 -138.5zM711 0l39 227
q-68 -116 -171.5 -181.5t-222.5 -65.5q-143 0 -224 72.5t-81 199.5q0 166 136.5 260t375.5 94q91 0 250 -12l18 104q28 153 -39 244.5t-204 91.5q-141 0 -231.5 -84.5t-125.5 -249.5h-63q32 188 142.5 290t281.5 102q166 0 251 -106t56 -275l-125 -711h-63zM119 252
q0 -105 61.5 -160t179.5 -55q149 0 270.5 111t153.5 288l19 105q-123 10 -248 10q-203 0 -319.5 -80t-116.5 -219z" />
    <glyph glyph-name="adieresis" unicode="&#xe4;" horiz-adv-x="1028" 
d="M889 1341q0 -39 -29 -69.5t-67 -30.5q-29 0 -48.5 20.5t-19.5 49.5q0 38 30 68t68 30q29 0 47.5 -18.5t18.5 -49.5zM584 1341q0 -39 -29.5 -69.5t-67.5 -30.5q-30 0 -48.5 20t-18.5 50q0 39 29.5 68.5t68.5 29.5q29 0 47.5 -18.5t18.5 -49.5zM711 0l39 227
q-68 -116 -171.5 -181.5t-222.5 -65.5q-143 0 -224 72.5t-81 199.5q0 166 136.5 260t375.5 94q91 0 250 -12l18 104q28 153 -39 244.5t-204 91.5q-141 0 -231.5 -84.5t-125.5 -249.5h-63q32 188 142.5 290t281.5 102q166 0 251 -106t56 -275l-125 -711h-63zM119 252
q0 -105 61.5 -160t179.5 -55q149 0 270.5 111t153.5 288l19 105q-123 10 -248 10q-203 0 -319.5 -80t-116.5 -219z" />
    <glyph glyph-name="aring" unicode="&#xe5;" horiz-adv-x="1028" 
d="M639 1208q-76 0 -126 48t-50 122q0 93 68 160.5t163 67.5q76 0 127 -49t51 -123q0 -91 -69 -158.5t-164 -67.5zM645 1262q69 0 118.5 50t49.5 122q0 54 -34.5 86t-90.5 32q-69 0 -117.5 -50.5t-48.5 -123.5q0 -54 33 -85t90 -31zM711 0l39 227q-68 -116 -171.5 -181.5
t-222.5 -65.5q-143 0 -224 72.5t-81 199.5q0 166 136.5 260t375.5 94q91 0 250 -12l18 104q28 153 -39 244.5t-204 91.5q-141 0 -231.5 -84.5t-125.5 -249.5h-63q32 188 142.5 290t281.5 102q166 0 251 -106t56 -275l-125 -711h-63zM119 252q0 -105 61.5 -160t179.5 -55
q149 0 270.5 111t153.5 288l19 105q-123 10 -248 10q-203 0 -319.5 -80t-116.5 -219z" />
    <glyph glyph-name="ae" unicode="&#xe6;" horiz-adv-x="1775" 
d="M51 252q0 164 135 251t377 87q91 0 250 -12l18 120q23 156 -41.5 246t-201.5 90q-141 0 -231.5 -84.5t-125.5 -249.5h-63q32 188 142.5 290t281.5 102q134 0 217.5 -71.5t95.5 -193.5q73 123 187 193t249 70q204 0 300.5 -160t44.5 -410h-818q-25 -215 65 -349t275 -134
q272 0 383 323h64q-123 -380 -453 -380q-156 0 -261.5 92.5t-133.5 249.5q-35 -113 -110 -192.5t-161.5 -114.5t-179.5 -35q-143 0 -224 72.5t-81 199.5zM1335 1032q-167 0 -293 -127t-165 -327h753q29 207 -51 330.5t-244 123.5zM119 252q0 -105 61.5 -160t179.5 -55
q158 0 272.5 113.5t151.5 285.5l19 88q-136 11 -248 11q-206 0 -321 -72.5t-115 -210.5z" />
    <glyph glyph-name="ccedilla" unicode="&#xe7;" horiz-adv-x="1038" 
d="M608 -233q0 -74 -55 -123.5t-139 -49.5q-83 0 -133 44t-50 118h60q0 -51 33.5 -80.5t89.5 -29.5q60 0 95.5 33t35.5 88q0 58 -48.5 89.5t-113.5 22.5l51 103q-157 11 -255.5 133.5t-98.5 308.5t69 338.5t192 240t275 87.5q162 0 260 -110t101 -300h-62q-6 170 -85.5 261
t-219.5 91q-131 0 -237.5 -80t-167 -219.5t-60.5 -308.5q0 -173 90 -280t236 -107q285 0 393 354h64q-117 -396 -441 -411l-30 -62q65 -2 108 -45t43 -106z" />
    <glyph glyph-name="egrave" unicode="&#xe8;" horiz-adv-x="1058" 
d="M684 1217h-72l-153 253h71zM485 -20q-181 0 -293 123t-112 321q0 186 71.5 338.5t196.5 240t277 87.5q134 0 225.5 -73.5t121 -200t-2.5 -296.5h-817q-7 -54 -7 -96q0 -177 94.5 -282t252.5 -105q271 0 382 323h64q-123 -380 -453 -380zM618 1032q-167 0 -293 -127
t-165 -327h753q31 209 -49.5 331.5t-245.5 122.5z" />
    <glyph glyph-name="eacute" unicode="&#xe9;" horiz-adv-x="1058" 
d="M705 1217h-87l242 253h86zM485 -20q-181 0 -293 123t-112 321q0 186 71.5 338.5t196.5 240t277 87.5q134 0 225.5 -73.5t121 -200t-2.5 -296.5h-817q-7 -54 -7 -96q0 -177 94.5 -282t252.5 -105q271 0 382 323h64q-123 -380 -453 -380zM618 1032q-167 0 -293 -127
t-165 -327h753q31 209 -49.5 331.5t-245.5 122.5z" />
    <glyph glyph-name="ecircumflex" unicode="&#xea;" horiz-adv-x="1058" 
d="M469 1217h-88l297 253h51l209 -253h-74l-164 196zM485 -20q-181 0 -293 123t-112 321q0 186 71.5 338.5t196.5 240t277 87.5q134 0 225.5 -73.5t121 -200t-2.5 -296.5h-817q-7 -54 -7 -96q0 -177 94.5 -282t252.5 -105q271 0 382 323h64q-123 -380 -453 -380zM618 1032
q-167 0 -293 -127t-165 -327h753q31 209 -49.5 331.5t-245.5 122.5z" />
    <glyph glyph-name="edieresis" unicode="&#xeb;" horiz-adv-x="1058" 
d="M913 1341q0 -39 -29 -69.5t-67 -30.5q-29 0 -48 20t-19 50q0 38 30 68t68 30q29 0 47 -18.5t18 -49.5zM608 1341q0 -39 -29 -69.5t-67 -30.5q-30 0 -49 20t-19 50q0 39 30 68.5t69 29.5q29 0 47 -18.5t18 -49.5zM485 -20q-181 0 -293 123t-112 321q0 186 71.5 338.5
t196.5 240t277 87.5q134 0 225.5 -73.5t121 -200t-2.5 -296.5h-817q-7 -54 -7 -96q0 -177 94.5 -282t252.5 -105q271 0 382 323h64q-123 -380 -453 -380zM618 1032q-167 0 -293 -127t-165 -327h753q31 209 -49.5 331.5t-245.5 122.5z" />
    <glyph glyph-name="igrave" unicode="&#xec;" horiz-adv-x="405" 
d="M344 1217h-70l-133 253h70zM141 0h-65l188 1071h66z" />
    <glyph glyph-name="iacute" unicode="&#xed;" horiz-adv-x="405" 
d="M367 1217h-82l221 253h82zM141 0h-65l188 1071h66z" />
    <glyph glyph-name="icircumflex" unicode="&#xee;" horiz-adv-x="405" 
d="M147 1217h-81l272 253h45l182 -253h-67l-142 196zM141 0h-65l188 1071h66z" />
    <glyph glyph-name="idieresis" unicode="&#xef;" horiz-adv-x="405" 
d="M559 1343q0 -40 -27.5 -71t-64.5 -31q-28 0 -44.5 19.5t-16.5 48.5q0 41 27.5 70.5t64.5 29.5q28 0 44.5 -18.5t16.5 -47.5zM279 1343q0 -40 -28 -71t-65 -31q-28 0 -45.5 19.5t-17.5 48.5q0 40 28 70t66 30q28 0 45 -18.5t17 -47.5zM141 0h-65l188 1071h66z" />
    <glyph glyph-name="eth" unicode="&#xf0;" horiz-adv-x="1110" 
d="M76 410q0 183 76.5 340t205 248.5t275.5 91.5q135 0 229 -82l-155 278l-265 -121l11 62l227 104l-78 139h68l63 -116l266 121l-10 -62l-229 -104l170 -305q104 -184 104 -345q0 -183 -77 -339.5t-209 -248t-287 -91.5q-172 0 -278.5 119t-106.5 311zM141 410
q0 -170 88.5 -271.5t237.5 -101.5q134 0 249.5 84.5t184 228t68.5 309.5q0 170 -88.5 271.5t-237.5 101.5q-134 0 -249.5 -84.5t-184 -228t-68.5 -309.5z" />
    <glyph glyph-name="ntilde" unicode="&#xf1;" horiz-adv-x="1091" 
d="M432 1217h-55q15 115 65.5 179t124.5 64q35 0 65 -18.5t51.5 -44.5t41.5 -52t45 -44.5t53 -18.5q46 0 79.5 49.5t45.5 138.5h58q-15 -114 -66 -178.5t-125 -64.5q-35 0 -65 18.5t-51.5 44.5t-41.5 52t-45 44.5t-53 18.5q-48 0 -81.5 -49.5t-45.5 -138.5zM256 645
l-115 -645h-65l188 1071h64l-39 -227q64 117 164.5 182.5t214.5 65.5q160 0 242 -110.5t51 -285.5l-123 -696h-66l117 672q29 169 -31.5 265.5t-198.5 96.5q-139 0 -256.5 -113t-146.5 -276z" />
    <glyph glyph-name="ograve" unicode="&#xf2;" horiz-adv-x="1110" 
d="M700 1217h-71l-154 253h72zM461 -20q-172 0 -278.5 119t-106.5 311q0 183 77 340t209 248.5t287 91.5q172 0 278.5 -119.5t106.5 -311.5q0 -183 -77 -339.5t-209 -248t-287 -91.5zM467 37q134 0 249.5 84.5t184 228t68.5 309.5q0 170 -88.5 271.5t-237.5 101.5
q-134 0 -249.5 -84.5t-184 -228t-68.5 -309.5q0 -170 88.5 -271.5t237.5 -101.5z" />
    <glyph glyph-name="oacute" unicode="&#xf3;" horiz-adv-x="1110" 
d="M721 1217h-86l242 253h86zM461 -20q-172 0 -278.5 119t-106.5 311q0 183 77 340t209 248.5t287 91.5q172 0 278.5 -119.5t106.5 -311.5q0 -183 -77 -339.5t-209 -248t-287 -91.5zM467 37q134 0 249.5 84.5t184 228t68.5 309.5q0 170 -88.5 271.5t-237.5 101.5
q-134 0 -249.5 -84.5t-184 -228t-68.5 -309.5q0 -170 88.5 -271.5t237.5 -101.5z" />
    <glyph glyph-name="ocircumflex" unicode="&#xf4;" horiz-adv-x="1110" 
d="M485 1217h-88l297 253h51l209 -253h-73l-164 196zM461 -20q-172 0 -278.5 119t-106.5 311q0 183 77 340t209 248.5t287 91.5q172 0 278.5 -119.5t106.5 -311.5q0 -183 -77 -339.5t-209 -248t-287 -91.5zM467 37q134 0 249.5 84.5t184 228t68.5 309.5q0 170 -88.5 271.5
t-237.5 101.5q-134 0 -249.5 -84.5t-184 -228t-68.5 -309.5q0 -170 88.5 -271.5t237.5 -101.5z" />
    <glyph glyph-name="otilde" unicode="&#xf5;" horiz-adv-x="1110" 
d="M434 1217h-55q15 115 65.5 179t124.5 64q35 0 65 -18.5t51.5 -44.5t41.5 -52t45 -44.5t53 -18.5q46 0 79.5 49.5t45.5 138.5h58q-15 -114 -66 -178.5t-125 -64.5q-35 0 -65 18.5t-51.5 44.5t-41.5 52t-45 44.5t-53 18.5q-48 0 -81.5 -49.5t-45.5 -138.5zM461 -20
q-172 0 -278.5 119t-106.5 311q0 183 77 340t209 248.5t287 91.5q172 0 278.5 -119.5t106.5 -311.5q0 -183 -77 -339.5t-209 -248t-287 -91.5zM467 37q134 0 249.5 84.5t184 228t68.5 309.5q0 170 -88.5 271.5t-237.5 101.5q-134 0 -249.5 -84.5t-184 -228t-68.5 -309.5
q0 -170 88.5 -271.5t237.5 -101.5z" />
    <glyph glyph-name="odieresis" unicode="&#xf6;" horiz-adv-x="1110" 
d="M930 1341q0 -39 -29 -69.5t-67 -30.5q-29 0 -48.5 20.5t-19.5 49.5q0 38 30 68t68 30q29 0 47.5 -18.5t18.5 -49.5zM625 1341q0 -39 -29.5 -69.5t-67.5 -30.5q-30 0 -48.5 20t-18.5 50q0 39 29.5 68.5t68.5 29.5q29 0 47.5 -18.5t18.5 -49.5zM461 -20q-172 0 -278.5 119
t-106.5 311q0 183 77 340t209 248.5t287 91.5q172 0 278.5 -119.5t106.5 -311.5q0 -183 -77 -339.5t-209 -248t-287 -91.5zM467 37q134 0 249.5 84.5t184 228t68.5 309.5q0 170 -88.5 271.5t-237.5 101.5q-134 0 -249.5 -84.5t-184 -228t-68.5 -309.5q0 -170 88.5 -271.5
t237.5 -101.5z" />
    <glyph glyph-name="divide" unicode="&#xf7;" horiz-adv-x="1351" 
d="M858 1059q0 -47 -32.5 -82t-75.5 -35q-35 0 -56.5 22t-21.5 56q0 46 33.5 81.5t78.5 35.5q33 0 53.5 -21.5t20.5 -56.5zM1182 653h-971l10 56h971zM733 350q0 -47 -32.5 -82t-75.5 -35q-35 0 -56.5 22t-21.5 56q0 46 33.5 81.5t78.5 35.5q33 0 53.5 -21.5t20.5 -56.5z
" />
    <glyph glyph-name="oslash" unicode="&#xf8;" horiz-adv-x="1110" 
d="M78 0h-76l143 150q-69 107 -69 260q0 183 77 340t209 248.5t287 91.5q174 0 281 -123l100 104h76l-141 -147q69 -110 69 -265q0 -183 -77 -339.5t-209 -248t-287 -91.5q-178 0 -283 124zM141 410q0 -128 49 -213l697 725q-84 110 -244 110q-134 0 -249.5 -84.5t-184 -228
t-68.5 -309.5zM467 37q134 0 249.5 84.5t184 228t68.5 309.5q0 125 -49 218l-699 -727q86 -113 246 -113z" />
    <glyph glyph-name="ugrave" unicode="&#xf9;" horiz-adv-x="1071" 
d="M668 1217h-72l-154 253h72zM815 426l115 645h65l-188 -1071h-64l39 227q-65 -117 -161.5 -182t-206.5 -65q-159 0 -236.5 109.5t-46.5 285.5l123 696h65l-118 -672q-30 -171 27 -266.5t194 -95.5q136 0 250 113t143 276z" />
    <glyph glyph-name="uacute" unicode="&#xfa;" horiz-adv-x="1071" 
d="M688 1217h-86l242 253h86zM815 426l115 645h65l-188 -1071h-64l39 227q-65 -117 -161.5 -182t-206.5 -65q-159 0 -236.5 109.5t-46.5 285.5l123 696h65l-118 -672q-30 -171 27 -266.5t194 -95.5q136 0 250 113t143 276z" />
    <glyph glyph-name="ucircumflex" unicode="&#xfb;" horiz-adv-x="1071" 
d="M453 1217h-88l297 253h51l209 -253h-74l-164 196zM815 426l115 645h65l-188 -1071h-64l39 227q-65 -117 -161.5 -182t-206.5 -65q-159 0 -236.5 109.5t-46.5 285.5l123 696h65l-118 -672q-30 -171 27 -266.5t194 -95.5q136 0 250 113t143 276z" />
    <glyph glyph-name="udieresis" unicode="&#xfc;" horiz-adv-x="1071" 
d="M897 1341q0 -39 -29 -69.5t-67 -30.5q-29 0 -48.5 20.5t-19.5 49.5q0 38 30 68t68 30q29 0 47.5 -18.5t18.5 -49.5zM592 1341q0 -39 -29 -69.5t-67 -30.5q-30 0 -49 20t-19 50q0 39 29.5 68.5t68.5 29.5q29 0 47.5 -18.5t18.5 -49.5zM815 426l115 645h65l-188 -1071h-64
l39 227q-65 -117 -161.5 -182t-206.5 -65q-159 0 -236.5 109.5t-46.5 285.5l123 696h65l-118 -672q-30 -171 27 -266.5t194 -95.5q136 0 250 113t143 276z" />
    <glyph glyph-name="yacute" unicode="&#xfd;" horiz-adv-x="892" 
d="M612 1217h-86l242 253h86zM971 1071l-793 -1466h-69l223 411l-221 1055h67l201 -967l520 967h72z" />
    <glyph glyph-name="thorn" unicode="&#xfe;" horiz-adv-x="1140" 
d="M1067 684q0 -195 -73 -357t-200 -254.5t-280 -92.5q-127 0 -214.5 75t-113.5 207l-116 -657h-64l330 1865h63l-118 -673q71 137 184.5 216t239.5 79q166 0 264 -110.5t98 -297.5zM1001 682q0 167 -80 259.5t-223 92.5q-84 0 -161.5 -38t-135 -103t-100 -147.5
t-64.5 -174.5t-22 -182q0 -161 79 -256.5t228 -95.5q132 0 242 85.5t173.5 234t63.5 325.5z" />
    <glyph glyph-name="ydieresis" unicode="&#xff;" horiz-adv-x="892" 
d="M821 1341q0 -39 -29 -69.5t-67 -30.5q-29 0 -48.5 20.5t-19.5 49.5q0 38 30.5 68t68.5 30q29 0 47 -18.5t18 -49.5zM516 1341q0 -39 -29 -69.5t-67 -30.5q-30 0 -49 20t-19 50q0 39 30 68.5t69 29.5q29 0 47 -18.5t18 -49.5zM971 1071l-793 -1466h-69l223 411l-221 1055
h67l201 -967l520 967h72z" />
    <glyph glyph-name="Amacron" unicode="&#x100;" horiz-adv-x="1320" 
d="M1108 1647h-504l10 57h504zM1092 0l-91 455h-704l-250 -455h-72l813 1470h78l291 -1470h-65zM817 1399l-485 -883h659z" />
    <glyph glyph-name="amacron" unicode="&#x101;" horiz-adv-x="1028" 
d="M889 1247h-504l10 58h504zM711 0l39 227q-68 -116 -171.5 -181.5t-222.5 -65.5q-143 0 -224 72.5t-81 199.5q0 166 136.5 260t375.5 94q91 0 250 -12l18 104q28 153 -39 244.5t-204 91.5q-141 0 -231.5 -84.5t-125.5 -249.5h-63q32 188 142.5 290t281.5 102
q166 0 251 -106t56 -275l-125 -711h-63zM119 252q0 -105 61.5 -160t179.5 -55q149 0 270.5 111t153.5 288l19 105q-123 10 -248 10q-203 0 -319.5 -80t-116.5 -219z" />
    <glyph glyph-name="Abreve" unicode="&#x102;" horiz-adv-x="1320" 
d="M1075 1870h64q-22 -120 -97.5 -190t-181.5 -70q-105 0 -167 70t-62 190h61q0 -98 44 -151.5t124 -53.5q82 0 140 55.5t75 149.5zM1092 0l-91 455h-704l-250 -455h-72l813 1470h78l291 -1470h-65zM817 1399l-485 -883h659z" />
    <glyph glyph-name="abreve" unicode="&#x103;" horiz-adv-x="1028" 
d="M856 1470h64q-22 -120 -97.5 -190t-181.5 -70q-105 0 -167 70t-62 190h61q0 -98 44 -151t124 -53q82 0 140 55t75 149zM711 0l39 227q-68 -116 -171.5 -181.5t-222.5 -65.5q-143 0 -224 72.5t-81 199.5q0 166 136.5 260t375.5 94q91 0 250 -12l18 104q28 153 -39 244.5
t-204 91.5q-141 0 -231.5 -84.5t-125.5 -249.5h-63q32 188 142.5 290t281.5 102q166 0 251 -106t56 -275l-125 -711h-63zM119 252q0 -105 61.5 -160t179.5 -55q149 0 270.5 111t153.5 288l19 105q-123 10 -248 10q-203 0 -319.5 -80t-116.5 -219z" />
    <glyph glyph-name="Aogonek" unicode="&#x104;" horiz-adv-x="1320" 
d="M1114 -328l-10 -61q-62 -19 -96 -19q-66 0 -106 39t-40 103q0 79 59.5 154.5t165.5 131.5l-86 435h-704l-250 -455h-72l813 1470h78l291 -1470h-27q-97 -53 -151.5 -121.5t-54.5 -138.5q0 -43 25 -66.5t69 -23.5q45 0 96 22zM817 1399l-485 -883h659z" />
    <glyph glyph-name="aogonek" unicode="&#x105;" horiz-adv-x="1028" 
d="M733 -328l-10 -61q-62 -19 -96 -19q-66 0 -106 39t-40 103q0 81 62.5 158t171.5 133l35 202q-68 -116 -171.5 -181.5t-222.5 -65.5q-143 0 -224 72.5t-81 199.5q0 166 136.5 260t375.5 94q91 0 250 -12l18 104q28 153 -39 244.5t-204 91.5q-141 0 -231.5 -84.5
t-125.5 -249.5h-63q32 188 142.5 290t281.5 102q166 0 251 -106t56 -275l-125 -711h-24q-97 -53 -152 -121.5t-55 -138.5q0 -43 25 -66.5t69 -23.5q45 0 96 22zM119 252q0 -105 61.5 -160t179.5 -55q149 0 270.5 111t153.5 288l19 105q-123 10 -248 10q-203 0 -319.5 -80
t-116.5 -219z" />
    <glyph glyph-name="Cacute" unicode="&#x106;" horiz-adv-x="1499" 
d="M1014 1616h-86l241 254h86zM721 -31q-264 0 -433 180t-169 461q0 184 64.5 349t174.5 284t262.5 188.5t321.5 69.5q238 0 387.5 -156t149.5 -405h-68q0 226 -130.5 363t-346.5 137q-155 0 -293.5 -64.5t-237.5 -175t-157 -264.5t-58 -326q0 -258 150 -418.5t389 -160.5
q452 0 612 501h70q-183 -563 -688 -563z" />
    <glyph glyph-name="cacute" unicode="&#x107;" horiz-adv-x="1038" 
d="M694 1217h-86l242 253h86zM465 -20q-169 0 -277 124.5t-108 319.5q0 186 69 338.5t192 240t275 87.5q162 0 260 -110t101 -300h-62q-6 170 -85.5 261t-219.5 91q-131 0 -237.5 -80t-167 -219.5t-60.5 -308.5q0 -173 90 -280t236 -107q285 0 393 354h64
q-120 -411 -463 -411z" />
    <glyph glyph-name="Ccaron" unicode="&#x10c;" horiz-adv-x="1499" 
d="M993 1616h-51l-209 254h74l164 -197l231 197h88zM721 -31q-264 0 -433 180t-169 461q0 184 64.5 349t174.5 284t262.5 188.5t321.5 69.5q238 0 387.5 -156t149.5 -405h-68q0 226 -130.5 363t-346.5 137q-155 0 -293.5 -64.5t-237.5 -175t-157 -264.5t-58 -326
q0 -258 150 -418.5t389 -160.5q452 0 612 501h70q-183 -563 -688 -563z" />
    <glyph glyph-name="ccaron" unicode="&#x10d;" horiz-adv-x="1038" 
d="M674 1217h-51l-209 253h73l164 -196l232 196h88zM465 -20q-169 0 -277 124.5t-108 319.5q0 186 69 338.5t192 240t275 87.5q162 0 260 -110t101 -300h-62q-6 170 -85.5 261t-219.5 91q-131 0 -237.5 -80t-167 -219.5t-60.5 -308.5q0 -173 90 -280t236 -107q285 0 393 354
h64q-120 -411 -463 -411z" />
    <glyph glyph-name="Dcaron" unicode="&#x10e;" horiz-adv-x="1312" 
d="M811 1616h-51l-209 254h74l163 -197l232 197h88zM465 0h-385l260 1470h358q251 0 407.5 -172.5t156.5 -449.5q0 -241 -103 -435t-285.5 -303.5t-408.5 -109.5zM395 1409l-237 -1348h319q152 0 284.5 59.5t227 163.5t149 250.5t54.5 313.5q0 252 -138.5 406.5
t-365.5 154.5h-293z" />
    <glyph glyph-name="dcaron" unicode="&#x10f;" horiz-adv-x="1140" 
d="M74 387q0 195 73 357t200 255t280 93q127 0 214 -75.5t113 -207.5l117 661h64l-261 -1470h-63l49 274q-70 -136 -184 -215t-240 -79q-166 0 -264 110t-98 297zM1253 1178h-45l52 292h69zM139 389q0 -167 80 -259.5t223 -92.5q105 0 197.5 58.5t154 152t97 208.5t35.5 228
q0 162 -82 256t-226 94q-132 0 -242 -85.5t-173.5 -234t-63.5 -325.5z" />
    <glyph glyph-name="Dcroat" unicode="&#x110;" horiz-adv-x="1396" 
d="M549 0h-385l129 731h-246l10 57h246l121 682h358q251 0 407.5 -172.5t156.5 -449.5q0 -241 -103 -435t-285.5 -303.5t-408.5 -109.5zM678 731h-318l-118 -670h319q152 0 284.5 59.5t227 163.5t149 250.5t54.5 313.5q0 252 -138.5 406.5t-365.5 154.5h-293l-108 -621h317z
" />
    <glyph glyph-name="dcroat" unicode="&#x111;" horiz-adv-x="1140" 
d="M74 387q0 195 73 357t200 255t280 93q127 0 214 -75.5t113 -207.5l78 438h-235l10 58h235l29 165h64l-29 -165h205l-11 -58h-204l-222 -1247h-63l49 274q-70 -136 -184 -215t-240 -79q-166 0 -264 110t-98 297zM139 389q0 -167 80 -259.5t223 -92.5q105 0 197.5 58.5
t154 152t97 208.5t35.5 228q0 162 -82 256t-226 94q-132 0 -242 -85.5t-173.5 -234t-63.5 -325.5z" />
    <glyph glyph-name="Emacron" unicode="&#x112;" horiz-adv-x="1093" 
d="M1018 1647h-504l10 57h504zM877 61l-11 -61h-786l260 1470h772l-12 -61h-705l-108 -618h647l-10 -62h-648l-118 -668h719z" />
    <glyph glyph-name="emacron" unicode="&#x113;" horiz-adv-x="1058" 
d="M913 1247h-503l10 58h504zM485 -20q-181 0 -293 123t-112 321q0 186 71.5 338.5t196.5 240t277 87.5q134 0 225.5 -73.5t121 -200t-2.5 -296.5h-817q-7 -54 -7 -96q0 -177 94.5 -282t252.5 -105q271 0 382 323h64q-123 -380 -453 -380zM618 1032q-167 0 -293 -127
t-165 -327h753q31 209 -49.5 331.5t-245.5 122.5z" />
    <glyph glyph-name="Edotaccent" unicode="&#x116;" horiz-adv-x="1093" 
d="M858 1733q0 -37 -26.5 -65t-61.5 -28q-27 0 -44 17.5t-17 44.5q0 37 26.5 63.5t61.5 26.5q28 0 44.5 -16.5t16.5 -42.5zM877 61l-11 -61h-786l260 1470h772l-12 -61h-705l-108 -618h647l-10 -62h-648l-118 -668h719z" />
    <glyph glyph-name="edotaccent" unicode="&#x117;" horiz-adv-x="1058" 
d="M754 1333q0 -37 -26.5 -64.5t-61.5 -27.5q-27 0 -44.5 17.5t-17.5 44.5q0 37 26.5 63.5t61.5 26.5q28 0 45 -17t17 -43zM485 -20q-181 0 -293 123t-112 321q0 186 71.5 338.5t196.5 240t277 87.5q134 0 225.5 -73.5t121 -200t-2.5 -296.5h-817q-7 -54 -7 -96
q0 -177 94.5 -282t252.5 -105q271 0 382 323h64q-123 -380 -453 -380zM618 1032q-167 0 -293 -127t-165 -327h753q31 209 -49.5 331.5t-245.5 122.5z" />
    <glyph glyph-name="Eogonek" unicode="&#x118;" horiz-adv-x="1093" 
d="M737 -328l-10 -61q-62 -19 -96 -19q-66 0 -106 39t-40 103q0 73 50 142.5t141 123.5h-596l260 1470h772l-12 -61h-705l-108 -618h647l-10 -62h-648l-118 -668h719l-11 -61h-112q-97 -53 -152 -121.5t-55 -138.5q0 -43 25 -66.5t69 -23.5q45 0 96 22z" />
    <glyph glyph-name="eogonek" unicode="&#x119;" horiz-adv-x="1058" 
d="M485 -20q-181 0 -293 123t-112 321q0 186 71.5 338.5t196.5 240t277 87.5q134 0 225.5 -73.5t121 -200t-2.5 -296.5h-817q-7 -54 -7 -96q0 -177 94.5 -282t252.5 -105q271 0 382 323h64q-91 -281 -295 -354q-101 -53 -159 -123.5t-58 -142.5q0 -43 25 -66.5t69 -23.5
q45 0 96 22l-10 -61q-62 -19 -96 -19q-66 0 -105.5 38.5t-39.5 103.5q0 67 41.5 131t117.5 117q-12 -2 -39 -2zM618 1032q-167 0 -293 -127t-165 -327h753q31 209 -49.5 331.5t-245.5 122.5z" />
    <glyph glyph-name="Ecaron" unicode="&#x11a;" horiz-adv-x="1093" 
d="M788 1616h-51l-209 254h74l164 -197l231 197h88zM877 61l-11 -61h-786l260 1470h772l-12 -61h-705l-108 -618h647l-10 -62h-648l-118 -668h719z" />
    <glyph glyph-name="ecaron" unicode="&#x11b;" horiz-adv-x="1058" 
d="M684 1217h-51l-209 253h74l164 -196l231 196h88zM485 -20q-181 0 -293 123t-112 321q0 186 71.5 338.5t196.5 240t277 87.5q134 0 225.5 -73.5t121 -200t-2.5 -296.5h-817q-7 -54 -7 -96q0 -177 94.5 -282t252.5 -105q271 0 382 323h64q-123 -380 -453 -380zM618 1032
q-167 0 -293 -127t-165 -327h753q31 209 -49.5 331.5t-245.5 122.5z" />
    <glyph glyph-name="Gbreve" unicode="&#x11e;" horiz-adv-x="1562" 
d="M1190 1870h63q-22 -120 -97 -190t-181 -70q-105 0 -167.5 70.5t-62.5 189.5h62q0 -98 44 -151.5t124 -53.5q82 0 140 55.5t75 149.5zM741 -31q-277 0 -449.5 178.5t-172.5 462.5q0 184 66 349.5t178.5 284t269 188t330.5 69.5q250 0 406.5 -148t156.5 -384h-68
q0 214 -137.5 342.5t-366.5 128.5q-214 0 -389.5 -109t-276 -299.5t-100.5 -421.5q0 -261 154 -420t406 -159q250 0 432 165t245 449h-626l12 62h692q-56 -339 -261.5 -538.5t-500.5 -199.5z" />
    <glyph glyph-name="gbreve" unicode="&#x11f;" horiz-adv-x="1142" 
d="M868 1470h64q-22 -120 -97.5 -190t-181.5 -70q-105 0 -167 70t-62 190h61q0 -98 44 -151t124 -53q82 0 140 55t75 149zM414 -416q-181 0 -278 95t-97 274h61q0 -152 81.5 -231.5t236.5 -79.5q159 0 262 93t135 273l47 266q-69 -133 -182 -208.5t-242 -75.5
q-166 0 -264 110t-98 297q0 191 73.5 351t200.5 252t279 92q127 0 214 -75.5t113 -207.5l48 262h63l-188 -1061q-37 -210 -156 -318t-309 -108zM141 399q0 -167 80 -259.5t223 -92.5q106 0 198.5 57t154 148t96.5 204.5t35 227.5q0 162 -81.5 256t-225.5 94
q-131 0 -241.5 -84.5t-174.5 -231t-64 -319.5z" />
    <glyph glyph-name="Gcommaaccent" unicode="&#x122;" horiz-adv-x="1562" 
d="M741 -31q-277 0 -449.5 178.5t-172.5 462.5q0 184 66 349.5t178.5 284t269 188t330.5 69.5q250 0 406.5 -148t156.5 -384h-68q0 214 -137.5 342.5t-366.5 128.5q-214 0 -389.5 -109t-276 -299.5t-100.5 -421.5q0 -261 154 -420t406 -159q250 0 432 165t245 449h-626
l12 62h692q-56 -339 -261.5 -538.5t-500.5 -199.5zM811 -217q0 -87 -65.5 -141t-155.5 -54l8 50q64 3 104 31.5t48 74.5q-40 -18 -69.5 -5t-29.5 46q0 32 25.5 56t60.5 24t54.5 -23.5t19.5 -58.5z" />
    <glyph glyph-name="gcommaaccent" unicode="&#x123;" horiz-adv-x="1142" 
d="M575 1288q0 87 66 141t156 54l-9 -49q-64 -3 -103.5 -32t-47.5 -75q23 10 41 10q26 0 41.5 -14t15.5 -37q0 -32 -25.5 -56t-60.5 -24t-54.5 23.5t-19.5 58.5zM414 -416q-181 0 -278 95t-97 274h61q0 -152 81.5 -231.5t236.5 -79.5q159 0 262 93t135 273l47 266
q-69 -133 -182 -208.5t-242 -75.5q-166 0 -264 110t-98 297q0 191 73.5 351t200.5 252t279 92q127 0 214 -75.5t113 -207.5l48 262h63l-188 -1061q-37 -210 -156 -318t-309 -108zM141 399q0 -167 80 -259.5t223 -92.5q106 0 198.5 57t154 148t96.5 204.5t35 227.5
q0 162 -81.5 256t-225.5 94q-131 0 -241.5 -84.5t-174.5 -231t-64 -319.5z" />
    <glyph glyph-name="Imacron" unicode="&#x12a;" horiz-adv-x="417" 
d="M653 1647h-503l10 57h504zM147 0h-67l260 1470h68z" />
    <glyph glyph-name="imacron" unicode="&#x12b;" horiz-adv-x="405" 
d="M575 1247h-503l10 58h504zM141 0h-65l188 1071h66z" />
    <glyph glyph-name="Iogonek" unicode="&#x12e;" horiz-adv-x="417" 
d="M147 0h-28q-97 -53 -152 -121.5t-55 -138.5q0 -43 25 -66.5t69 -23.5q45 0 96 22l-10 -61q-62 -19 -96 -19q-66 0 -106 39t-40 103q0 81 62.5 158t171.5 133l256 1445h68z" />
    <glyph glyph-name="iogonek" unicode="&#x12f;" horiz-adv-x="405" 
d="M416 1333q0 -37 -26.5 -64.5t-61.5 -27.5q-27 0 -44.5 17.5t-17.5 44.5q0 37 26.5 63.5t61.5 26.5q28 0 45 -17t17 -43zM141 0h-26q-97 -53 -152 -121.5t-55 -138.5q0 -43 25 -66.5t69 -23.5q45 0 96 22l-10 -61q-62 -19 -96 -19q-66 0 -106 39t-40 103q0 81 62.5 158
t171.5 133l184 1046h66z" />
    <glyph glyph-name="Idotaccent" unicode="&#x130;" horiz-adv-x="417" 
d="M494 1733q0 -37 -26.5 -65t-61.5 -28q-27 0 -44.5 17.5t-17.5 44.5q0 37 26.5 63.5t61.5 26.5q28 0 45 -16.5t17 -42.5zM147 0h-67l260 1470h68z" />
    <glyph glyph-name="dotlessi" unicode="&#x131;" horiz-adv-x="405" 
d="M141 0h-65l188 1071h66z" />
    <glyph glyph-name="Kcommaaccent" unicode="&#x136;" horiz-adv-x="1136" 
d="M145 0h-65l260 1470h66l-132 -741l865 741h90l-883 -757l635 -713h-88l-623 702zM567 -217q0 -87 -65.5 -141t-155.5 -54l8 50q64 3 104 31.5t48 74.5q-40 -18 -69 -5t-29 46q0 32 25.5 56t60.5 24t54 -23t19 -59z" />
    <glyph glyph-name="kcommaaccent" unicode="&#x137;" horiz-adv-x="913" 
d="M141 0h-65l260 1470h65l-163 -921l643 522h88l-660 -536l510 -535h-84l-502 524zM477 -217q0 -87 -65.5 -141t-155.5 -54l8 50q64 3 104 31.5t48 74.5q-40 -18 -69.5 -5t-29.5 46q0 32 25.5 56t60.5 24t54.5 -23.5t19.5 -58.5z" />
    <glyph glyph-name="Lacute" unicode="&#x139;" horiz-adv-x="978" 
d="M436 1616h-86l242 254h86zM823 0h-743l260 1470h68l-250 -1409h676z" />
    <glyph glyph-name="lacute" unicode="&#x13a;" horiz-adv-x="405" 
d="M440 1616h-86l242 254h86zM139 0h-63l260 1470h63z" />
    <glyph glyph-name="Lcommaaccent" unicode="&#x13b;" horiz-adv-x="978" 
d="M823 0h-743l260 1470h68l-250 -1409h676zM528 -217q0 -87 -65.5 -141t-155.5 -54l8 50q64 3 104 31.5t48 74.5q-40 -18 -69 -5t-29 46q0 32 25.5 56t60.5 24t54 -23t19 -59z" />
    <glyph glyph-name="lcommaaccent" unicode="&#x13c;" horiz-adv-x="405" 
d="M139 0h-63l260 1470h63zM156 -217q0 -87 -66 -141t-156 -54l9 50q64 3 103.5 31.5t47.5 74.5q-40 -18 -69 -5t-29 46q0 32 25.5 56t60.5 24t54.5 -23.5t19.5 -58.5z" />
    <glyph glyph-name="Lcaron" unicode="&#x13d;" horiz-adv-x="978" 
d="M823 0h-743l260 1470h68l-250 -1409h676zM639 1178h-45l51 292h70z" />
    <glyph glyph-name="lcaron" unicode="&#x13e;" horiz-adv-x="405" 
d="M139 0h-63l260 1470h63zM518 1178h-45l51 292h70z" />
    <glyph glyph-name="Lslash" unicode="&#x141;" horiz-adv-x="978" 
d="M823 0h-743l123 692l-232 -67l11 63l231 68l127 714h68l-123 -694l422 123l-13 -63l-422 -123l-114 -652h676z" />
    <glyph glyph-name="lslash" unicode="&#x142;" horiz-adv-x="405" 
d="M139 0h-63l123 696l-267 -75l11 59l266 76l127 714h63l-123 -694l267 76l-11 -61l-266 -76z" />
    <glyph glyph-name="Nacute" unicode="&#x143;" horiz-adv-x="1406" 
d="M940 1616h-86l242 254h86zM1053 0l-664 1376l-244 -1376h-65l260 1470h80l665 -1384l246 1384h66l-260 -1470h-84z" />
    <glyph glyph-name="nacute" unicode="&#x144;" horiz-adv-x="1091" 
d="M719 1217h-86l241 253h87zM256 645l-115 -645h-65l188 1071h64l-39 -227q64 117 164.5 182.5t214.5 65.5q160 0 242 -110.5t51 -285.5l-123 -696h-66l117 672q29 169 -31.5 265.5t-198.5 96.5q-139 0 -256.5 -113t-146.5 -276z" />
    <glyph glyph-name="Ncommaaccent" unicode="&#x145;" horiz-adv-x="1406" 
d="M1053 0l-664 1376l-244 -1376h-65l260 1470h80l665 -1384l246 1384h66l-260 -1470h-84zM655 -217q0 -87 -65.5 -141t-155.5 -54l8 50q64 3 104 31.5t48 74.5q-40 -18 -69 -5t-29 46q0 32 25.5 56t60.5 24t54 -23t19 -59z" />
    <glyph glyph-name="ncommaaccent" unicode="&#x146;" horiz-adv-x="1091" 
d="M256 645l-115 -645h-65l188 1071h64l-39 -227q64 117 164.5 182.5t214.5 65.5q160 0 242 -110.5t51 -285.5l-123 -696h-66l117 672q29 169 -31.5 265.5t-198.5 96.5q-139 0 -256.5 -113t-146.5 -276zM506 -217q0 -87 -65.5 -141t-155.5 -54l8 50q64 3 103.5 31.5
t47.5 74.5q-40 -18 -69 -5t-29 46q0 32 25.5 56t60.5 24t54.5 -23.5t19.5 -58.5z" />
    <glyph glyph-name="Ncaron" unicode="&#x147;" horiz-adv-x="1406" 
d="M920 1616h-52l-209 254h74l164 -197l231 197h89zM1053 0l-664 1376l-244 -1376h-65l260 1470h80l665 -1384l246 1384h66l-260 -1470h-84z" />
    <glyph glyph-name="ncaron" unicode="&#x148;" horiz-adv-x="1091" 
d="M698 1217h-51l-209 253h74l164 -196l231 196h88zM256 645l-115 -645h-65l188 1071h64l-39 -227q64 117 164.5 182.5t214.5 65.5q160 0 242 -110.5t51 -285.5l-123 -696h-66l117 672q29 169 -31.5 265.5t-198.5 96.5q-139 0 -256.5 -113t-146.5 -276z" />
    <glyph glyph-name="Omacron" unicode="&#x14c;" horiz-adv-x="1587" 
d="M1219 1647h-504l10 57h504zM721 -31q-264 0 -433 180t-169 461q0 184 64.5 349t174.5 284t262.5 188.5t321.5 69.5q173 0 309.5 -80.5t212.5 -225.5t76 -329t-64.5 -350t-174 -286t-261 -190.5t-319.5 -70.5zM727 31q154 0 292 65t237 176t156.5 266t57.5 328
q0 255 -148.5 414.5t-387.5 159.5q-155 0 -293.5 -64.5t-237.5 -175t-157 -264.5t-58 -326q0 -258 150 -418.5t389 -160.5z" />
    <glyph glyph-name="omacron" unicode="&#x14d;" horiz-adv-x="1110" 
d="M930 1247h-504l10 58h504zM461 -20q-172 0 -278.5 119t-106.5 311q0 183 77 340t209 248.5t287 91.5q172 0 278.5 -119.5t106.5 -311.5q0 -183 -77 -339.5t-209 -248t-287 -91.5zM467 37q134 0 249.5 84.5t184 228t68.5 309.5q0 170 -88.5 271.5t-237.5 101.5
q-134 0 -249.5 -84.5t-184 -228t-68.5 -309.5q0 -170 88.5 -271.5t237.5 -101.5z" />
    <glyph glyph-name="Ohungarumlaut" unicode="&#x150;" horiz-adv-x="1587" 
d="M1133 1616h-82l241 254h82zM834 1616h-82l239 254h82zM721 -31q-264 0 -433 180t-169 461q0 184 64.5 349t174.5 284t262.5 188.5t321.5 69.5q173 0 309.5 -80.5t212.5 -225.5t76 -329t-64.5 -350t-174 -286t-261 -190.5t-319.5 -70.5zM727 31q154 0 292 65t237 176
t156.5 266t57.5 328q0 255 -148.5 414.5t-387.5 159.5q-155 0 -293.5 -64.5t-237.5 -175t-157 -264.5t-58 -326q0 -258 150 -418.5t389 -160.5z" />
    <glyph glyph-name="ohungarumlaut" unicode="&#x151;" horiz-adv-x="1110" 
d="M844 1217h-82l242 253h81zM545 1217h-82l239 253h82zM461 -20q-172 0 -278.5 119t-106.5 311q0 183 77 340t209 248.5t287 91.5q172 0 278.5 -119.5t106.5 -311.5q0 -183 -77 -339.5t-209 -248t-287 -91.5zM467 37q134 0 249.5 84.5t184 228t68.5 309.5
q0 170 -88.5 271.5t-237.5 101.5q-134 0 -249.5 -84.5t-184 -228t-68.5 -309.5q0 -170 88.5 -271.5t237.5 -101.5z" />
    <glyph glyph-name="OE" unicode="&#x152;" horiz-adv-x="2121" 
d="M123 610q0 188 54 353.5t148 283.5t226 186t283 68q193 0 313 -124t143 -347l80 440h770l-10 -61h-705l-110 -618h645l-10 -62h-645l-117 -668h717l-13 -61h-782l59 338q-95 -174 -237.5 -271.5t-319.5 -97.5q-221 0 -355 176t-134 465zM193 610q0 -267 114.5 -423
t310.5 -156q175 0 321 114t228 305.5t82 415.5q0 266 -114 420t-310 154q-177 0 -322 -108.5t-227.5 -299t-82.5 -422.5z" />
    <glyph glyph-name="oe" unicode="&#x153;" horiz-adv-x="1929" 
d="M76 410q0 183 77 340t209 248.5t287 91.5q148 0 247.5 -89t125.5 -241q70 152 194.5 241t278.5 89q134 0 225.5 -73.5t121 -200t-2.5 -296.5h-817q-27 -215 63.5 -349t276.5 -134q272 0 383 323h63q-123 -380 -452 -380q-158 0 -265 95.5t-133 256.5q-73 -160 -206 -256
t-291 -96q-172 0 -278.5 119t-106.5 311zM141 410q0 -170 88.5 -271.5t237.5 -101.5q134 0 249.5 84.5t184 228t68.5 309.5q0 170 -88.5 271.5t-237.5 101.5q-134 0 -249.5 -84.5t-184 -228t-68.5 -309.5zM1489 1032q-167 0 -293.5 -127t-165.5 -327h754q32 206 -49 330
t-246 124z" />
    <glyph glyph-name="Racute" unicode="&#x154;" horiz-adv-x="1206" 
d="M788 1616h-86l242 254h86zM147 0h-67l260 1470h457q170 0 279.5 -103.5t109.5 -264.5q0 -199 -127 -331.5t-338 -152.5l305 -618h-74l-303 614h-393zM395 1409l-129 -733h393q207 0 332 116.5t125 309.5q0 138 -92.5 222.5t-243.5 84.5h-385z" />
    <glyph glyph-name="racute" unicode="&#x155;" horiz-adv-x="638" 
d="M573 1217h-86l242 253h86zM248 602l-107 -602h-65l188 1071h64l-47 -264q63 124 186.5 204.5t249.5 80.5l-12 -72q-156 0 -291 -122.5t-166 -295.5z" />
    <glyph glyph-name="Rcommaaccent" unicode="&#x156;" horiz-adv-x="1206" 
d="M147 0h-67l260 1470h457q170 0 279.5 -103.5t109.5 -264.5q0 -199 -127 -331.5t-338 -152.5l305 -618h-74l-303 614h-393zM395 1409l-129 -733h393q207 0 332 116.5t125 309.5q0 138 -92.5 222.5t-243.5 84.5h-385zM584 -217q0 -87 -66 -141t-156 -54l9 50
q64 3 103.5 31.5t47.5 74.5q-40 -18 -69 -5t-29 46q0 32 25.5 56t60.5 24t54.5 -23.5t19.5 -58.5z" />
    <glyph glyph-name="rcommaaccent" unicode="&#x157;" horiz-adv-x="638" 
d="M248 602l-107 -602h-65l188 1071h64l-47 -264q63 124 186.5 204.5t249.5 80.5l-12 -72q-156 0 -291 -122.5t-166 -295.5zM162 -217q0 -87 -65.5 -141t-155.5 -54l8 50q64 3 103.5 31.5t47.5 74.5q-40 -18 -69 -5t-29 46q0 32 25.5 56t60.5 24t54.5 -23.5t19.5 -58.5z" />
    <glyph glyph-name="Rcaron" unicode="&#x158;" horiz-adv-x="1206" 
d="M768 1616h-51l-209 254h74l163 -197l232 197h88zM147 0h-67l260 1470h457q170 0 279.5 -103.5t109.5 -264.5q0 -199 -127 -331.5t-338 -152.5l305 -618h-74l-303 614h-393zM395 1409l-129 -733h393q207 0 332 116.5t125 309.5q0 138 -92.5 222.5t-243.5 84.5h-385z" />
    <glyph glyph-name="rcaron" unicode="&#x159;" horiz-adv-x="638" 
d="M553 1217h-51l-209 253h74l163 -196l232 196h88zM248 602l-107 -602h-65l188 1071h64l-47 -264q63 124 186.5 204.5t249.5 80.5l-12 -72q-156 0 -291 -122.5t-166 -295.5z" />
    <glyph glyph-name="Sacute" unicode="&#x15a;" horiz-adv-x="1259" 
d="M801 1616h-86l241 254h86zM1083 385q0 -181 -133.5 -293t-349.5 -112q-226 0 -357.5 120.5t-131.5 327.5h67q6 -183 118 -285t304 -102q183 0 298.5 96t115.5 248q0 120 -62.5 187.5t-210.5 107.5l-143 39q-336 92 -336 368q0 186 128.5 295t346.5 109
q194 0 317.5 -123.5t123.5 -316.5h-68q0 167 -104.5 273t-268.5 106q-189 0 -297 -91.5t-108 -251.5q0 -122 74.5 -195t216.5 -112l147 -41q161 -44 237 -130t76 -224z" />
    <glyph glyph-name="sacute" unicode="&#x15b;" horiz-adv-x="995" 
d="M643 1217h-86l242 253h86zM836 281q0 -142 -101.5 -221.5t-288.5 -79.5q-169 0 -273.5 88t-113.5 251h62q9 -137 99 -210.5t231 -73.5q150 0 234.5 62.5t84.5 183.5q0 88 -49 132t-160 72l-125 31q-125 30 -192.5 95.5t-67.5 181.5q0 135 103 217t274 82q162 0 252 -87
t96 -243h-61q-22 274 -287 274q-142 0 -226.5 -65.5t-84.5 -175.5q0 -95 53 -143t158 -74l127 -31q43 -11 77.5 -24t69 -34.5t57.5 -49t37.5 -68t14.5 -90.5z" />
    <glyph glyph-name="Scedilla" unicode="&#x15e;" horiz-adv-x="1259" 
d="M741 -233q0 -74 -55 -123.5t-139 -49.5q-83 0 -132.5 44t-49.5 118h59q0 -51 33.5 -80.5t89.5 -29.5q60 0 95.5 33t35.5 88q0 58 -48.5 89.5t-113.5 22.5l51 101q-212 9 -334 128.5t-122 319.5h67q6 -183 118 -285t304 -102q183 0 298.5 96t115.5 248q0 120 -62.5 187.5
t-210.5 107.5l-143 39q-336 92 -336 368q0 186 128.5 295t346.5 109q194 0 317.5 -123.5t123.5 -316.5h-68q0 167 -104.5 273t-268.5 106q-189 0 -297 -91.5t-108 -251.5q0 -122 74.5 -195t216.5 -112l147 -41q161 -44 237 -130t76 -224q0 -177 -127.5 -288t-334.5 -117
l-31 -62q64 -2 107.5 -45t43.5 -106z" />
    <glyph glyph-name="scedilla" unicode="&#x15f;" horiz-adv-x="995" 
d="M549 -233q0 -74 -55.5 -123.5t-139.5 -49.5q-83 0 -132.5 44t-49.5 118h59q0 -51 33.5 -80.5t89.5 -29.5q60 0 95.5 33t35.5 88q0 58 -48 89.5t-113 22.5l53 105q-141 18 -226 104t-92 231h62q9 -137 99 -210.5t231 -73.5q150 0 234.5 62.5t84.5 183.5q0 88 -49 132
t-160 72l-125 31q-125 30 -192.5 95.5t-67.5 181.5q0 135 103 217t274 82q162 0 252 -87t96 -243h-61q-22 274 -287 274q-142 0 -226.5 -65.5t-84.5 -175.5q0 -95 53 -143t158 -74l127 -31q43 -11 77.5 -24t69 -34.5t57.5 -49t37.5 -68t14.5 -90.5q0 -142 -101.5 -221.5
t-288.5 -79.5h-18l-31 -62q65 -2 108.5 -45t43.5 -106z" />
    <glyph glyph-name="Scaron" unicode="&#x160;" horiz-adv-x="1259" 
d="M780 1616h-51l-209 254h74l164 -197l231 197h88zM1083 385q0 -181 -133.5 -293t-349.5 -112q-226 0 -357.5 120.5t-131.5 327.5h67q6 -183 118 -285t304 -102q183 0 298.5 96t115.5 248q0 120 -62.5 187.5t-210.5 107.5l-143 39q-336 92 -336 368q0 186 128.5 295
t346.5 109q194 0 317.5 -123.5t123.5 -316.5h-68q0 167 -104.5 273t-268.5 106q-189 0 -297 -91.5t-108 -251.5q0 -122 74.5 -195t216.5 -112l147 -41q161 -44 237 -130t76 -224z" />
    <glyph glyph-name="scaron" unicode="&#x161;" horiz-adv-x="995" 
d="M623 1217h-52l-209 253h74l164 -196l231 196h89zM836 281q0 -142 -101.5 -221.5t-288.5 -79.5q-169 0 -273.5 88t-113.5 251h62q9 -137 99 -210.5t231 -73.5q150 0 234.5 62.5t84.5 183.5q0 88 -49 132t-160 72l-125 31q-125 30 -192.5 95.5t-67.5 181.5q0 135 103 217
t274 82q162 0 252 -87t96 -243h-61q-22 274 -287 274q-142 0 -226.5 -65.5t-84.5 -175.5q0 -95 53 -143t158 -74l127 -31q43 -11 77.5 -24t69 -34.5t57.5 -49t37.5 -68t14.5 -90.5z" />
    <glyph glyph-name="Tcedilla" unicode="&#x162;" horiz-adv-x="1085" 
d="M481 0h-16l-41 -82q64 -2 107.5 -45t43.5 -106q0 -74 -55 -123.5t-139 -49.5q-83 0 -132.5 44t-49.5 118h59q0 -51 33.5 -80.5t89.5 -29.5q60 0 95.5 33t35.5 88q0 58 -48.5 89.5t-113.5 22.5l68 135l246 1395h-484l10 61h1033l-11 -61h-483z" />
    <glyph glyph-name="tcedilla" unicode="&#x163;" horiz-adv-x="694" 
d="M449 -233q0 -74 -55.5 -123.5t-139.5 -49.5q-83 0 -132.5 44t-49.5 118h59q0 -51 33.5 -80.5t89.5 -29.5q60 0 95.5 33t35.5 88q0 58 -48.5 89.5t-113.5 22.5l62 125q-67 31 -95.5 103t-9.5 172l129 737h-256l10 55h256l56 318h67l-55 -318h334l-10 -55h-334l-129 -737
q-20 -117 20 -177.5t138 -60.5q63 0 124 25l-10 -66q-53 -20 -119 -20q-38 0 -69 8l-35 -70q65 -2 108.5 -45t43.5 -106z" />
    <glyph glyph-name="Tcaron" unicode="&#x164;" horiz-adv-x="1085" 
d="M758 1616h-51l-209 254h73l164 -197l232 197h88zM481 0h-65l248 1409h-484l10 61h1033l-11 -61h-483z" />
    <glyph glyph-name="tcaron" unicode="&#x165;" horiz-adv-x="694" 
d="M575 1178h-45l52 292h69zM530 66l-10 -66q-53 -20 -119 -20q-126 0 -186 80.5t-35 218.5l129 737h-256l10 55h256l56 318h67l-55 -318h334l-10 -55h-334l-129 -737q-20 -117 20 -177.5t138 -60.5q63 0 124 25z" />
    <glyph glyph-name="Umacron" unicode="&#x16a;" horiz-adv-x="1296" 
d="M1094 1647h-504l10 57h504zM1290 1470l-176 -995q-43 -242 -184.5 -374t-360.5 -132q-213 0 -331.5 136t-77.5 370l176 995h67l-178 -1003q-19 -108 0.5 -193t69.5 -137t118.5 -79t151.5 -27q194 0 318.5 115.5t160.5 320.5l179 1003h67z" />
    <glyph glyph-name="umacron" unicode="&#x16b;" horiz-adv-x="1071" 
d="M897 1247h-504l10 58h504zM815 426l115 645h65l-188 -1071h-64l39 227q-65 -117 -161.5 -182t-206.5 -65q-159 0 -236.5 109.5t-46.5 285.5l123 696h65l-118 -672q-30 -171 27 -266.5t194 -95.5q136 0 250 113t143 276z" />
    <glyph glyph-name="Uring" unicode="&#x16e;" horiz-adv-x="1296" 
d="M844 1608q-76 0 -126 48t-50 122q0 93 68 160t163 67q76 0 127 -49t51 -123q0 -91 -69 -158t-164 -67zM850 1661q69 0 118.5 50t49.5 122q0 54 -34.5 86.5t-90.5 32.5q-69 0 -117.5 -50.5t-48.5 -123.5q0 -54 33 -85.5t90 -31.5zM1290 1470l-176 -995
q-43 -242 -184.5 -374t-360.5 -132q-213 0 -331.5 136t-77.5 370l176 995h67l-178 -1003q-19 -108 0.5 -193t69.5 -137t118.5 -79t151.5 -27q194 0 318.5 115.5t160.5 320.5l179 1003h67z" />
    <glyph glyph-name="uring" unicode="&#x16f;" horiz-adv-x="1071" 
d="M647 1208q-76 0 -126 48t-50 122q0 93 68 160.5t163 67.5q76 0 127.5 -49t51.5 -123q0 -91 -69.5 -158.5t-164.5 -67.5zM653 1262q69 0 118.5 50t49.5 122q0 54 -34.5 86t-90.5 32q-69 0 -117.5 -50.5t-48.5 -123.5q0 -54 33 -85t90 -31zM815 426l115 645h65l-188 -1071
h-64l39 227q-65 -117 -161.5 -182t-206.5 -65q-159 0 -236.5 109.5t-46.5 285.5l123 696h65l-118 -672q-30 -171 27 -266.5t194 -95.5q136 0 250 113t143 276z" />
    <glyph glyph-name="Uhungarumlaut" unicode="&#x170;" horiz-adv-x="1296" 
d="M1008 1616h-82l241 254h82zM709 1616h-82l239 254h82zM1290 1470l-176 -995q-43 -242 -184.5 -374t-360.5 -132q-213 0 -331.5 136t-77.5 370l176 995h67l-178 -1003q-19 -108 0.5 -193t69.5 -137t118.5 -79t151.5 -27q194 0 318.5 115.5t160.5 320.5l179 1003h67z" />
    <glyph glyph-name="uhungarumlaut" unicode="&#x171;" horiz-adv-x="1071" 
d="M811 1217h-82l242 253h82zM512 1217h-82l240 253h82zM815 426l115 645h65l-188 -1071h-64l39 227q-65 -117 -161.5 -182t-206.5 -65q-159 0 -236.5 109.5t-46.5 285.5l123 696h65l-118 -672q-30 -171 27 -266.5t194 -95.5q136 0 250 113t143 276z" />
    <glyph glyph-name="Uogonek" unicode="&#x172;" horiz-adv-x="1296" 
d="M750 -328l-11 -61q-62 -19 -96 -19q-66 0 -105.5 38.5t-39.5 103.5q0 131 149 239q-50 -4 -78 -4q-213 0 -331.5 136t-77.5 370l176 995h67l-178 -1003q-19 -108 0.5 -193t69.5 -137t118.5 -79t151.5 -27q194 0 318.5 115.5t160.5 320.5l179 1003h67l-176 -995
q-32 -178 -117.5 -297t-216.5 -172q-104 -53 -162.5 -123t-58.5 -143q0 -43 25 -66.5t69 -23.5q46 0 97 22z" />
    <glyph glyph-name="uogonek" unicode="&#x173;" horiz-adv-x="1071" 
d="M766 -328l-10 -61q-62 -19 -97 -19q-66 0 -105.5 38.5t-39.5 103.5q0 81 62.5 158t171.5 133l34 202q-65 -117 -161.5 -182t-206.5 -65q-159 0 -236.5 109.5t-46.5 285.5l123 696h65l-118 -672q-30 -171 27 -266.5t194 -95.5q136 0 250 113t143 276l115 645h65
l-188 -1071h-25q-97 -53 -152 -121.5t-55 -138.5q0 -43 25.5 -66.5t69.5 -23.5q45 0 96 22z" />
    <glyph glyph-name="Wcircumflex" unicode="&#x174;" horiz-adv-x="1761" 
d="M881 1616h-88l297 254h51l209 -254h-74l-164 196zM1143 0l-113 1376l-604 -1376h-80l-113 1470h66l102 -1372l605 1372h77l113 -1374l590 1374h69l-630 -1470h-82z" />
    <glyph glyph-name="wcircumflex" unicode="&#x175;" horiz-adv-x="1427" 
d="M645 1217h-88l297 253h51l209 -253h-74l-163 196zM926 0l-133 981l-480 -981h-69l-113 1071h66l100 -973l475 973h68l133 -975l442 975h70l-492 -1071h-67z" />
    <glyph glyph-name="Ycircumflex" unicode="&#x176;" horiz-adv-x="1220" 
d="M604 1616h-88l297 254h51l209 -254h-74l-163 196zM645 551l-98 -551h-68l99 551l-355 919h70l328 -849l626 849h78z" />
    <glyph glyph-name="ycircumflex" unicode="&#x177;" horiz-adv-x="892" 
d="M377 1217h-88l297 253h51l209 -253h-74l-164 196zM971 1071l-793 -1466h-69l223 411l-221 1055h67l201 -967l520 967h72z" />
    <glyph glyph-name="Ydieresis" unicode="&#x178;" horiz-adv-x="1220" 
d="M1049 1741q0 -39 -29.5 -70t-67.5 -31q-29 0 -48 20t-19 50q0 38 30 68t68 30q29 0 47.5 -18t18.5 -49zM743 1741q0 -39 -29 -70t-67 -31q-30 0 -48.5 20t-18.5 50q0 39 29.5 68.5t68.5 29.5q29 0 47 -18t18 -49zM645 551l-98 -551h-68l99 551l-355 919h70l328 -849
l626 849h78z" />
    <glyph glyph-name="Zacute" unicode="&#x179;" horiz-adv-x="1132" 
d="M803 1616h-86l241 254h86zM965 0h-985l8 41l1097 1368h-819l13 61h913l-8 -40l-1098 -1369h889z" />
    <glyph glyph-name="zacute" unicode="&#x17a;" horiz-adv-x="884" 
d="M610 1217h-86l242 253h86zM741 0h-786l6 39l840 975h-637l10 57h729l-8 -45l-834 -969h691z" />
    <glyph glyph-name="Zdotaccent" unicode="&#x17b;" horiz-adv-x="1132" 
d="M852 1733q0 -37 -26.5 -65t-61.5 -28q-27 0 -44.5 17.5t-17.5 44.5q0 36 27 63t62 27q28 0 44.5 -16.5t16.5 -42.5zM965 0h-985l8 41l1097 1368h-819l13 61h913l-8 -40l-1098 -1369h889z" />
    <glyph glyph-name="zdotaccent" unicode="&#x17c;" horiz-adv-x="884" 
d="M659 1333q0 -37 -26.5 -64.5t-61.5 -27.5q-27 0 -44 17.5t-17 44.5q0 37 26.5 63.5t61.5 26.5q28 0 44.5 -16.5t16.5 -43.5zM741 0h-786l6 39l840 975h-637l10 57h729l-8 -45l-834 -969h691z" />
    <glyph glyph-name="Zcaron" unicode="&#x17d;" horiz-adv-x="1132" 
d="M782 1616h-51l-209 254h74l164 -197l231 197h88zM965 0h-985l8 41l1097 1368h-819l13 61h913l-8 -40l-1098 -1369h889z" />
    <glyph glyph-name="zcaron" unicode="&#x17e;" horiz-adv-x="884" 
d="M590 1217h-51l-209 253h73l164 -196l232 196h88zM741 0h-786l6 39l840 975h-637l10 57h729l-8 -45l-834 -969h691z" />
    <glyph glyph-name="florin" unicode="&#x192;" horiz-adv-x="1099" 
d="M600 653l-223 -526q-56 -131 -135 -196.5t-195 -65.5q-60 0 -108 18l10 62q59 -19 108 -19q166 0 252 205l221 522h-378l10 56h393l170 399q65 154 148 225.5t210 71.5q51 0 95 -14l-13 -64q-41 16 -92 16q-58 0 -103.5 -18.5t-78 -55t-53.5 -72t-43 -87.5l-170 -401h354
l-10 -56h-369z" />
    <glyph glyph-name="Scommaaccent" unicode="&#x218;" horiz-adv-x="1259" 
d="M1083 385q0 -181 -133.5 -293t-349.5 -112q-226 0 -357.5 120.5t-131.5 327.5h67q6 -183 118 -285t304 -102q183 0 298.5 96t115.5 248q0 120 -62.5 187.5t-210.5 107.5l-143 39q-336 92 -336 368q0 186 128.5 295t346.5 109q194 0 317.5 -123.5t123.5 -316.5h-68
q0 167 -104.5 273t-268.5 106q-189 0 -297 -91.5t-108 -251.5q0 -122 74.5 -195t216.5 -112l147 -41q161 -44 237 -130t76 -224zM662 -217q0 -87 -66 -141t-156 -54l9 50q64 3 103.5 31.5t47.5 74.5q-40 -18 -69 -5t-29 46q0 32 25.5 56t60.5 24t54.5 -23.5t19.5 -58.5z" />
    <glyph glyph-name="scommaaccent" unicode="&#x219;" horiz-adv-x="995" 
d="M836 281q0 -142 -101.5 -221.5t-288.5 -79.5q-169 0 -273.5 88t-113.5 251h62q9 -137 99 -210.5t231 -73.5q150 0 234.5 62.5t84.5 183.5q0 88 -49 132t-160 72l-125 31q-125 30 -192.5 95.5t-67.5 181.5q0 135 103 217t274 82q162 0 252 -87t96 -243h-61
q-22 274 -287 274q-142 0 -226.5 -65.5t-84.5 -175.5q0 -95 53 -143t158 -74l127 -31q43 -11 77.5 -24t69 -34.5t57.5 -49t37.5 -68t14.5 -90.5zM469 -217q0 -87 -65.5 -141t-155.5 -54l8 50q64 3 104 31.5t48 74.5q-40 -18 -69.5 -5t-29.5 46q0 32 25.5 56t60.5 24
t54.5 -23.5t19.5 -58.5z" />
    <glyph glyph-name="Tcommaaccent" unicode="&#x21a;" horiz-adv-x="1085" 
d="M481 0h-65l248 1409h-484l10 61h1033l-11 -61h-483zM496 -217q0 -87 -66 -141t-156 -54l9 50q64 3 103.5 31.5t47.5 74.5q-40 -18 -69 -5t-29 46q0 32 25.5 56t60.5 24t54.5 -23.5t19.5 -58.5z" />
    <glyph glyph-name="tcommaaccent" unicode="&#x21b;" horiz-adv-x="694" 
d="M530 66l-10 -66q-53 -20 -119 -20q-126 0 -186 80.5t-35 218.5l129 737h-256l10 55h256l56 318h67l-55 -318h334l-10 -55h-334l-129 -737q-20 -117 20 -177.5t138 -60.5q63 0 124 25zM369 -217q0 -87 -66 -141t-156 -54l9 50q64 3 103.5 31.5t47.5 74.5q-40 -18 -69 -5
t-29 46q0 32 25.5 56t60.5 24t54.5 -23.5t19.5 -58.5z" />
    <glyph glyph-name="dotlessj" unicode="&#x237;" horiz-adv-x="401" 
d="M326 1071l-217 -1229q-22 -125 -97.5 -191.5t-195.5 -66.5q-70 0 -113 21l10 61q55 -18 111 -18q89 0 144.5 49.5t72.5 144.5l217 1229h68z" />
    <glyph glyph-name="circumflex" unicode="&#x2c6;" 
d="M442 1217h-88l297 253h51l209 -253h-73l-164 196z" />
    <glyph glyph-name="caron" unicode="&#x2c7;" 
d="M657 1217h-51l-209 253h74l164 -196l231 196h88z" />
    <glyph glyph-name="macronmod" unicode="&#x2c9;" 
d="M891 1247h-508l10 58h508z" />
    <glyph glyph-name="breve" unicode="&#x2d8;" 
d="M866 1470h64q-22 -120 -97.5 -190t-181.5 -70q-105 0 -167 70t-62 190h61q0 -98 44 -151t124 -53q82 0 140 55t75 149z" />
    <glyph glyph-name="dotaccent" unicode="&#x2d9;" 
d="M725 1333q0 -37 -26.5 -64.5t-61.5 -27.5q-27 0 -44.5 17.5t-17.5 44.5q0 37 26.5 63.5t62.5 26.5q28 0 44.5 -16.5t16.5 -43.5z" />
    <glyph glyph-name="ring" unicode="&#x2da;" 
d="M637 1208q-76 0 -126 48t-50 122q0 93 68 160.5t163 67.5q76 0 127 -49t51 -123q0 -91 -69 -158.5t-164 -67.5zM643 1262q69 0 118.5 50t49.5 122q0 54 -34.5 86t-90.5 32q-69 0 -117.5 -50.5t-48.5 -123.5q0 -54 33 -85t90 -31z" />
    <glyph glyph-name="ogonek" unicode="&#x2db;" 
d="M494 -328l-11 -61q-62 -19 -96 -19q-66 0 -105.5 38.5t-39.5 103.5q0 86 68 165.5t188 135.5l28 -27q-104 -53 -163.5 -124t-59.5 -144q0 -43 25 -66.5t69 -23.5q46 0 97 22z" />
    <glyph glyph-name="tilde" unicode="&#x2dc;" 
d="M395 1217h-55q15 115 65.5 179t124.5 64q35 0 65 -18.5t51.5 -44.5t41.5 -52t45 -44.5t53 -18.5q46 0 79.5 49.5t45.5 138.5h58q-15 -114 -66 -178.5t-125 -64.5q-35 0 -65 18.5t-51.5 44.5t-41.5 52t-45 44.5t-53 18.5q-48 0 -81.5 -49.5t-45.5 -138.5z" />
    <glyph glyph-name="hungarumlaut" unicode="&#x2dd;" 
d="M723 1217h-82l242 253h82zM424 1217h-82l240 253h82z" />
    <glyph glyph-name="gravecomb" unicode="&#x300;" 
d="M766 1217h-72l-153 253h71z" />
    <glyph glyph-name="acutecomb" unicode="&#x301;" 
d="M578 1217h-86l241 253h86z" />
    <glyph glyph-name="circumflexcomb" unicode="&#x302;" 
d="M442 1217h-88l297 253h51l209 -253h-73l-164 196z" />
    <glyph glyph-name="tildecomb" unicode="&#x303;" 
d="M395 1217h-55q15 115 65.5 179t124.5 64q35 0 65 -18.5t51.5 -44.5t41.5 -52t45 -44.5t53 -18.5q46 0 79.5 49.5t45.5 138.5h58q-15 -114 -66 -178.5t-125 -64.5q-35 0 -65 18.5t-51.5 44.5t-41.5 52t-45 44.5t-53 18.5q-48 0 -81.5 -49.5t-45.5 -138.5z" />
    <glyph glyph-name="macroncomb" unicode="&#x304;" 
d="M889 1247h-504l10 58h504z" />
    <glyph glyph-name="brevecomb" unicode="&#x306;" 
d="M866 1470h64q-22 -120 -97.5 -190t-181.5 -70q-105 0 -167 70t-62 190h61q0 -98 44 -151t124 -53q82 0 140 55t75 149z" />
    <glyph glyph-name="dotaccentcomb" unicode="&#x307;" 
d="M725 1333q0 -37 -26.5 -64.5t-61.5 -27.5q-27 0 -44.5 17.5t-17.5 44.5q0 37 26.5 63.5t62.5 26.5q28 0 44.5 -16.5t16.5 -43.5z" />
    <glyph glyph-name="dieresiscomb" unicode="&#x308;" 
d="M887 1341q0 -39 -29 -69.5t-67 -30.5q-29 0 -48.5 20.5t-19.5 49.5q0 38 30 68t68 30q29 0 47.5 -18.5t18.5 -49.5zM582 1341q0 -39 -29.5 -69.5t-67.5 -30.5q-30 0 -48.5 20t-18.5 50q0 39 29.5 68.5t68.5 29.5q29 0 47.5 -18.5t18.5 -49.5z" />
    <glyph glyph-name="ringcomb" unicode="&#x30a;" 
d="M637 1208q-76 0 -126 48t-50 122q0 93 68 160.5t163 67.5q76 0 127 -49t51 -123q0 -91 -69 -158.5t-164 -67.5zM643 1262q69 0 118.5 50t49.5 122q0 54 -34.5 86t-90.5 32q-69 0 -117.5 -50.5t-48.5 -123.5q0 -54 33 -85t90 -31z" />
    <glyph glyph-name="hungarumlautcomb" unicode="&#x30b;" 
d="M723 1217h-82l242 253h82zM424 1217h-82l240 253h82z" />
    <glyph glyph-name="caroncomb" unicode="&#x30c;" 
d="M657 1217h-51l-209 253h74l164 -196l231 196h88z" />
    <glyph glyph-name="commaturnedabovecomb" unicode="&#x312;" 
d="M553 1288q0 87 65.5 141t155.5 54l-8 -49q-64 -3 -104 -32t-48 -75q23 10 41 10q26 0 42 -14t16 -37q0 -32 -25.5 -56t-60.5 -24t-54.5 23.5t-19.5 58.5z" />
    <glyph glyph-name="commaaccentcomb" unicode="&#x326;" 
d="M471 -217q0 -87 -65.5 -141t-155.5 -54l8 50q64 3 104 31.5t48 74.5q-40 -18 -69.5 -5t-29.5 46q0 32 25.5 56t60.5 24t54.5 -23.5t19.5 -58.5z" />
    <glyph glyph-name="cedillacomb" unicode="&#x327;" 
d="M561 -233q0 -74 -55 -123.5t-139 -49.5q-83 0 -133 44t-50 118h60q0 -51 33.5 -80.5t89.5 -29.5q60 0 95.5 33t35.5 88q0 58 -48.5 89.5t-113.5 22.5l67 135h56l-49 -96q64 -2 107.5 -45t43.5 -106z" />
    <glyph glyph-name="ogonekcomb" unicode="&#x328;" 
d="M494 -328l-11 -61q-62 -19 -96 -19q-66 0 -105.5 38.5t-39.5 103.5q0 86 68 165.5t188 135.5l28 -27q-104 -53 -163.5 -124t-59.5 -144q0 -43 25 -66.5t69 -23.5q46 0 97 22z" />
    <glyph glyph-name="strokeshortcomb" unicode="&#x335;" 
d="M889 1247h-504l10 58h504z" />
    <glyph glyph-name="slashshortcomb" unicode="&#x337;" 
d="M842 791l-600 -170l10 59l600 172z" />
    <glyph glyph-name="slashlongcomb" unicode="&#x338;" 
d="M37 0h-76l1028 1071h76z" />
    <glyph glyph-name="Delta" unicode="&#x394;" horiz-adv-x="1296" 
d="M1143 0h-1178l813 1470h74zM805 1397l-737 -1336h997z" />
    <glyph glyph-name="Omega" unicode="&#x3a9;" horiz-adv-x="1327" 
d="M512 0h-530l10 61h467l30 166q-169 51 -273.5 201t-104.5 342q0 204 87 369t241.5 258.5t346.5 93.5q153 0 278.5 -70.5t197 -194.5t71.5 -276q0 -267 -159 -460t-437 -265l-30 -164h464l-10 -61h-528l47 272q274 61 430 242t156 436q0 211 -134.5 345.5t-345.5 134.5
q-172 0 -311 -85.5t-218 -236.5t-79 -338t104 -322.5t277 -175.5z" />
    <glyph glyph-name="mu" unicode="&#x3bc;" horiz-adv-x="1081" 
d="M424 -20q-97 0 -165 42.5t-99 118.5l-86 -536h-68l258 1466h66l-119 -672q-30 -171 27 -266.5t194 -95.5q136 0 250 113t143 276l115 645h66l-189 -1071h-63l39 227q-64 -117 -161.5 -182t-207.5 -65z" />
    <glyph glyph-name="pi" unicode="&#x3c0;" horiz-adv-x="1075" 
d="M795 -20q-112 0 -167.5 77.5t-33.5 200.5l133 758h-324l-278 -1016h-66l285 1016h-291l10 55h1022l-10 -55h-282l-131 -758q-17 -102 18.5 -159.5t118.5 -57.5q64 0 125 25l-11 -66q-53 -20 -118 -20z" />
    <glyph glyph-name="Wgrave" unicode="&#x1e80;" horiz-adv-x="1761" 
d="M1096 1616h-72l-154 254h72zM1143 0l-113 1376l-604 -1376h-80l-113 1470h66l102 -1372l605 1372h77l113 -1374l590 1374h69l-630 -1470h-82z" />
    <glyph glyph-name="wgrave" unicode="&#x1e81;" horiz-adv-x="1427" 
d="M860 1217h-72l-153 253h72zM926 0l-133 981l-480 -981h-69l-113 1071h66l100 -973l475 973h68l133 -975l442 975h70l-492 -1071h-67z" />
    <glyph glyph-name="Wacute" unicode="&#x1e82;" horiz-adv-x="1761" 
d="M1116 1616h-86l242 254h86zM1143 0l-113 1376l-604 -1376h-80l-113 1470h66l102 -1372l605 1372h77l113 -1374l590 1374h69l-630 -1470h-82z" />
    <glyph glyph-name="wacute" unicode="&#x1e83;" horiz-adv-x="1427" 
d="M881 1217h-86l241 253h86zM926 0l-133 981l-480 -981h-69l-113 1071h66l100 -973l475 973h68l133 -975l442 975h70l-492 -1071h-67z" />
    <glyph glyph-name="Wdieresis" unicode="&#x1e84;" horiz-adv-x="1761" 
d="M1325 1741q0 -39 -29 -70t-67 -31q-29 0 -48.5 20.5t-19.5 49.5q0 38 30.5 68t68.5 30q29 0 47 -18t18 -49zM1020 1741q0 -39 -29 -70t-67 -31q-30 0 -49 20t-19 50q0 39 29.5 68.5t68.5 29.5q30 0 48 -18t18 -49zM1143 0l-113 1376l-604 -1376h-80l-113 1470h66
l102 -1372l605 1372h77l113 -1374l590 1374h69l-630 -1470h-82z" />
    <glyph glyph-name="wdieresis" unicode="&#x1e85;" horiz-adv-x="1427" 
d="M1090 1341q0 -39 -29.5 -69.5t-67.5 -30.5q-29 0 -48 20t-19 50q0 38 30 68t68 30q29 0 47.5 -18.5t18.5 -49.5zM784 1341q0 -39 -29 -69.5t-67 -30.5q-30 0 -48.5 20t-18.5 50q0 39 29.5 68.5t68.5 29.5q29 0 47 -18.5t18 -49.5zM926 0l-133 981l-480 -981h-69
l-113 1071h66l100 -973l475 973h68l133 -975l442 975h70l-492 -1071h-67z" />
    <glyph glyph-name="Ygrave" unicode="&#x1ef2;" horiz-adv-x="1220" 
d="M819 1616h-71l-154 254h72zM645 551l-98 -551h-68l99 551l-355 919h70l328 -849l626 849h78z" />
    <glyph glyph-name="ygrave" unicode="&#x1ef3;" horiz-adv-x="892" 
d="M592 1217h-72l-153 253h71zM971 1071l-793 -1466h-69l223 411l-221 1055h67l201 -967l520 967h72z" />
    <glyph glyph-name="endash" unicode="&#x2013;" horiz-adv-x="976" 
d="M936 539h-895l10 59h895z" />
    <glyph glyph-name="emdash" unicode="&#x2014;" horiz-adv-x="1464" 
d="M1423 539h-1382l10 59h1383z" />
    <glyph glyph-name="quoteleft" unicode="&#x2018;" horiz-adv-x="514" 
d="M276 1198q0 102 79 189.5t192 93.5l-10 -54q-70 -9 -124.5 -56.5t-68.5 -110.5q20 10 47 10q32 0 52 -20t20 -50q0 -40 -31 -70t-72 -30q-43 0 -63.5 27.5t-20.5 70.5z" />
    <glyph glyph-name="quoteright" unicode="&#x2019;" horiz-adv-x="514" 
d="M504 1384q0 -109 -81 -193.5t-190 -90.5l11 53q70 7 124 55.5t68 112.5q-20 -10 -47 -10q-31 0 -51.5 18.5t-20.5 48.5q0 41 31 72t72 31q42 0 63 -26.5t21 -70.5z" />
    <glyph glyph-name="quotesinglbase" unicode="&#x201a;" horiz-adv-x="512" 
d="M274 88q0 -109 -80.5 -194t-189.5 -91l10 54q70 7 124.5 55.5t68.5 112.5q-22 -11 -45 -11q-33 0 -53.5 19t-20.5 49q0 41 30.5 71.5t71.5 30.5q42 0 63 -26t21 -70z" />
    <glyph glyph-name="quotedblleft" unicode="&#x201c;" horiz-adv-x="821" 
d="M276 1198q0 102 79 189.5t192 93.5l-10 -54q-70 -9 -124.5 -56.5t-68.5 -110.5q20 10 47 10q32 0 52 -20t20 -50q0 -40 -31 -70t-72 -30q-43 0 -63.5 27.5t-20.5 70.5zM584 1198q0 103 78.5 190t191.5 93l-10 -54q-70 -9 -124.5 -56.5t-68.5 -110.5q20 10 47 10
q32 0 52 -20t20 -50q0 -40 -30.5 -70t-71.5 -30q-43 0 -63.5 27.5t-20.5 70.5z" />
    <glyph glyph-name="quotedblright" unicode="&#x201d;" horiz-adv-x="821" 
d="M504 1384q0 -109 -81 -193.5t-190 -90.5l11 53q70 7 124 55.5t68 112.5q-20 -10 -47 -10q-31 0 -51.5 18.5t-20.5 48.5q0 41 31 72t72 31q42 0 63 -26.5t21 -70.5zM811 1384q0 -109 -80.5 -193.5t-189.5 -90.5l10 53q70 7 124 55.5t68 112.5q-20 -10 -47 -10
q-31 0 -51 18.5t-20 48.5q0 41 30.5 72t71.5 31q42 0 63 -26.5t21 -70.5z" />
    <glyph glyph-name="quotedblbase" unicode="&#x201e;" horiz-adv-x="819" 
d="M274 88q0 -109 -80.5 -194t-189.5 -91l10 54q70 7 124.5 55.5t68.5 112.5q-22 -11 -45 -11q-33 0 -53.5 19t-20.5 49q0 41 30.5 71.5t71.5 30.5q42 0 63 -26t21 -70zM582 88q0 -109 -81 -194t-190 -91l11 54q70 7 124 55.5t68 112.5q-22 -11 -45 -11q-33 0 -53.5 19
t-20.5 49q0 41 31 71.5t72 30.5q42 0 63 -26t21 -70z" />
    <glyph glyph-name="dagger" unicode="&#x2020;" horiz-adv-x="1353" 
d="M543 -395h-60l234 1327h-457l10 57h457l84 481h59l-84 -481h457l-10 -57h-457z" />
    <glyph glyph-name="daggerdbl" unicode="&#x2021;" horiz-adv-x="1353" 
d="M543 -395h-60l84 481h-456l10 57h457l139 789h-457l10 57h457l84 481h59l-84 -481h457l-10 -57h-457l-139 -789h457l-11 -57h-456z" />
    <glyph glyph-name="bullet" unicode="&#x2022;" horiz-adv-x="999" 
d="M745 592q0 -123 -85.5 -212t-202.5 -89q-89 0 -145 55t-56 143q0 122 87 214t202 92q89 0 144.5 -56t55.5 -147z" />
    <glyph glyph-name="ellipsis" unicode="&#x2026;" horiz-adv-x="1536" 
d="M270 106q0 -46 -32.5 -81t-75.5 -35q-35 0 -56.5 22t-21.5 56q0 46 33.5 81t77.5 35q33 0 54 -22t21 -56zM782 106q0 -46 -32.5 -81t-75.5 -35q-35 0 -56.5 22t-21.5 56q0 46 33.5 81t77.5 35q33 0 54 -22t21 -56zM1294 106q0 -46 -32.5 -81t-75.5 -35q-35 0 -56.5 22
t-21.5 56q0 46 33.5 81t77.5 35q33 0 54 -22t21 -56z" />
    <glyph glyph-name="perthousand" unicode="&#x2030;" horiz-adv-x="2910" 
d="M467 537q-141 0 -228 94t-87 246q0 139 61.5 259t166.5 190.5t226 70.5q141 0 228.5 -94t87.5 -246q0 -139 -62 -259t-167 -190.5t-226 -70.5zM569 0h-65l977 1384h65zM471 592q158 0 272.5 137.5t114.5 327.5q0 129 -69.5 206.5t-186.5 77.5q-158 0 -272.5 -137
t-114.5 -327q0 -129 69.5 -207t186.5 -78zM1442 -16q-141 0 -228.5 94t-87.5 246q0 139 62 259t167 190.5t226 70.5q141 0 228 -94t87 -246q0 -139 -61.5 -259t-166.5 -190.5t-226 -70.5zM2359 -16q-141 0 -228 94t-87 246q0 139 62 259t167 190.5t226 70.5q141 0 228 -94
t87 -246q0 -139 -62 -259t-167 -190.5t-226 -70.5zM1446 39q158 0 272.5 137.5t114.5 327.5q0 129 -69.5 206.5t-186.5 77.5q-158 0 -272.5 -137t-114.5 -327q0 -129 69.5 -207t186.5 -78zM2363 39q158 0 272.5 137.5t114.5 327.5q0 129 -69.5 206.5t-186.5 77.5
q-158 0 -272.5 -137t-114.5 -327q0 -129 69.5 -207t186.5 -78z" />
    <glyph glyph-name="guilsinglleft" unicode="&#x2039;" horiz-adv-x="499" 
d="M340 127h-64l-192 420l338 420h72l-344 -426z" />
    <glyph glyph-name="guilsinglright" unicode="&#x203a;" horiz-adv-x="499" 
d="M164 967h63l193 -420l-338 -420h-72l344 426z" />
    <glyph glyph-name="fraction" unicode="&#x2044;" horiz-adv-x="249" 
d="M-307 0h-62l979 1384h64z" />
    <glyph glyph-name="zero.superior" unicode="&#x2070;" horiz-adv-x="735" 
d="M840 1614q0 -249 -106 -410.5t-269 -161.5q-117 0 -179.5 72.5t-62.5 206.5q0 249 107 413t268 164q116 0 179 -74t63 -210zM283 1331q0 -233 182 -233q88 0 159.5 67t112.5 185t41 262q0 231 -182 231q-132 0 -222.5 -147.5t-90.5 -364.5z" />
    <glyph glyph-name="four.superior" unicode="&#x2074;" horiz-adv-x="700" 
d="M762 1264h-111l-37 -209h-59l37 209h-418l6 36l545 586h37l-100 -569h110zM258 1317h344l84 459z" />
    <glyph glyph-name="five.superior" unicode="&#x2075;" horiz-adv-x="679" 
d="M760 1327q0 -117 -83.5 -200t-203.5 -83q-124 0 -199 65t-75 171h55q0 -80 60.5 -130t158.5 -50q94 0 158.5 65.5t64.5 161.5q0 88 -49 138.5t-135 50.5q-62 0 -120.5 -27t-102.5 -76l-41 10l158 463h401l-8 -53h-357l-112 -334q80 72 188 72q107 0 174.5 -68.5
t67.5 -175.5z" />
    <glyph glyph-name="six.superior" unicode="&#x2076;" horiz-adv-x="710" 
d="M782 1356q0 -132 -95 -223t-232 -91q-109 0 -180.5 66.5t-71.5 167.5q0 72 36 139t123 156l312 315h69l-315 -323q60 26 115 26q103 0 171 -66t68 -167zM723 1356q0 80 -52.5 129t-138.5 49q-114 0 -192 -75t-78 -183q0 -82 52 -130t141 -48q113 0 190.5 74.5t77.5 183.5
z" />
    <glyph glyph-name="seven.superior" unicode="&#x2077;" horiz-adv-x="593" 
d="M799 1849l-488 -794h-65l485 778h-477l10 53h543z" />
    <glyph glyph-name="eight.superior" unicode="&#x2078;" horiz-adv-x="759" 
d="M803 1305q0 -114 -91 -187.5t-233 -73.5q-117 0 -189.5 57t-72.5 148q0 86 61 151.5t164 88.5q-50 17 -82 63t-32 101q0 103 82 174t200 71q96 0 161 -55.5t65 -138.5q0 -73 -49.5 -132.5t-131.5 -84.5q67 -19 107.5 -68.5t40.5 -113.5zM387 1653q0 -62 45 -101t117 -39
q98 0 162.5 54.5t64.5 136.5q0 60 -47 99.5t-119 39.5q-97 0 -160 -53.5t-63 -136.5zM279 1249q0 -69 54 -109t146 -40q115 0 189.5 58t74.5 147q0 69 -53.5 111t-142.5 42q-116 0 -192 -59t-76 -150z" />
    <glyph glyph-name="nine.superior" unicode="&#x2079;" horiz-adv-x="710" 
d="M258 1585q0 132 95.5 222.5t232.5 90.5q109 0 180.5 -66t71.5 -167q0 -72 -36 -139t-124 -156l-311 -315h-70l315 323q-60 -26 -114 -26q-103 0 -171.5 66t-68.5 167zM317 1585q0 -80 52.5 -129t138.5 -49q114 0 192 75t78 183q0 82 -51.5 130t-140.5 48
q-113 0 -191 -74.5t-78 -183.5z" />
    <glyph glyph-name="zero.inferior" unicode="&#x2080;" horiz-adv-x="733" 
d="M580 143q0 -249 -106 -410t-269 -161q-117 0 -179.5 72t-62.5 206q0 249 107 413.5t268 164.5q116 0 179 -74.5t63 -210.5zM23 -139q0 -115 46.5 -174.5t135.5 -59.5q88 0 159.5 67t112.5 185t41 262q0 232 -182 232q-132 0 -222.5 -147.5t-90.5 -364.5z" />
    <glyph glyph-name="one.inferior" unicode="&#x2081;" horiz-adv-x="417" 
d="M82 -416h-57l137 778h-170l10 54h227z" />
    <glyph glyph-name="two.inferior" unicode="&#x2082;" horiz-adv-x="628" 
d="M403 -362l-10 -54h-485l6 35l332 301q97 89 141.5 162.5t44.5 144.5q0 64 -44.5 105t-113.5 41q-89 0 -147.5 -48.5t-73.5 -136.5h-57q22 113 95 176.5t183 63.5q96 0 158 -56t62 -143t-48.5 -166.5t-164.5 -183.5l-269 -241h391z" />
    <glyph glyph-name="three.inferior" unicode="&#x2083;" horiz-adv-x="729" 
d="M514 -180q0 -106 -78 -176t-196 -70q-126 0 -205.5 66t-79.5 170h55q0 -78 65 -129.5t165 -51.5q92 0 151.5 54t59.5 137q0 71 -58.5 118.5t-144.5 47.5h-82l10 53h82q92 0 158.5 58.5t66.5 140.5q0 63 -42 99t-115 36q-79 0 -139.5 -45.5t-80.5 -120.5h-57
q23 98 100 159.5t177 61.5q97 0 158 -52.5t61 -137.5q0 -78 -48.5 -138.5t-136.5 -89.5q154 -53 154 -190z" />
    <glyph glyph-name="four.inferior" unicode="&#x2084;" horiz-adv-x="698" 
d="M502 -207h-111l-37 -209h-59l37 209h-418l6 37l545 586h37l-101 -570h111zM-2 -154h344l84 459z" />
    <glyph glyph-name="five.inferior" unicode="&#x2085;" horiz-adv-x="679" 
d="M500 -143q0 -117 -83.5 -200t-203.5 -83q-124 0 -199 65t-75 171h55q0 -80 60.5 -130.5t158.5 -50.5q94 0 158.5 65.5t64.5 162.5q0 88 -49 138t-135 50q-132 0 -223 -102l-41 10l157 463h402l-8 -54h-357l-112 -333q79 71 188 71q107 0 174.5 -68t67.5 -175z" />
    <glyph glyph-name="six.inferior" unicode="&#x2086;" horiz-adv-x="708" 
d="M522 -115q0 -132 -95 -222.5t-232 -90.5q-109 0 -180.5 66t-71.5 167q0 72 36 139t123 156l312 316h69l-315 -324q62 27 115 27q103 0 171 -66.5t68 -167.5zM463 -115q0 80 -52.5 129t-138.5 49q-114 0 -192 -75t-78 -183q0 -82 52 -130t141 -48q113 0 190.5 74.5
t77.5 183.5z" />
    <glyph glyph-name="seven.inferior" unicode="&#x2087;" horiz-adv-x="591" 
d="M539 379l-488 -795h-65l485 778h-477l10 54h543z" />
    <glyph glyph-name="eight.inferior" unicode="&#x2088;" horiz-adv-x="759" 
d="M545 -166q0 -114 -91 -187t-233 -73q-117 0 -189.5 57t-72.5 148q0 86 61 151t164 88q-50 17 -82 63t-32 101q0 103 82 174.5t200 71.5q96 0 161 -56t65 -139q0 -73 -49.5 -132.5t-131.5 -84.5q67 -19 107.5 -68.5t40.5 -113.5zM129 182q0 -62 45 -100.5t117 -38.5
q98 0 162.5 54t64.5 136q0 60 -47 100t-119 40q-97 0 -160 -54t-63 -137zM20 -221q0 -69 54.5 -109.5t146.5 -40.5q115 0 189.5 58t74.5 147q0 69 -53.5 111.5t-142.5 42.5q-116 0 -192.5 -59t-76.5 -150z" />
    <glyph glyph-name="nine.inferior" unicode="&#x2089;" horiz-adv-x="710" 
d="M-2 115q0 132 95.5 222.5t232.5 90.5q109 0 180.5 -66t71.5 -167q0 -72 -36 -139t-124 -156l-312 -316h-69l315 324q-62 -27 -114 -27q-103 0 -171.5 66.5t-68.5 167.5zM57 115q0 -80 52.5 -129t138.5 -49q114 0 192 75t78 183q0 82 -51.5 130t-140.5 48
q-113 0 -191 -74.5t-78 -183.5z" />
    <glyph glyph-name="Euro" unicode="&#x20ac;" horiz-adv-x="1107" 
d="M961 121l-13 -76q-121 -65 -262 -65q-219 0 -332 154t-96 429h-203l11 55h196q11 109 41 205h-203l11 56h208q80 254 239.5 390t377.5 136q147 0 238 -70l-13 -73q-85 79 -225 79q-191 0 -333 -120t-212 -342h481l-10 -56h-489q-32 -102 -43 -205h497l-10 -55h-491
q-14 -255 83 -387.5t298 -132.5q133 0 254 78z" />
    <glyph glyph-name="indianrupee" unicode="&#x20b9;" horiz-adv-x="1130" 
d="M1094 954h-154q-24 -145 -143 -245.5t-285 -122.5l283 -586h-72l-281 580h-299l11 61h268q177 0 299.5 82.5t148.5 230.5h-661l10 54h658q0 153 -84.5 235t-249.5 82h-269l11 59h884l-8 -53h-407q190 -76 190 -323h160z" />
    <glyph glyph-name="turkishlira" unicode="&#x20ba;" horiz-adv-x="1062" 
d="M936 592h68q-34 -173 -140.5 -310.5t-265 -214.5t-338.5 -77q-33 0 -57 4l121 690l-261 -68l11 60l262 67l35 201l-260 -67l10 59l260 68l68 380h63l-63 -364l491 127l-10 -57l-492 -129l-37 -201l492 125l-10 -60l-492 -125l-115 -649q159 2 299.5 72t236 193.5
t124.5 275.5z" />
    <glyph glyph-name="ruble" unicode="&#x20bd;" horiz-adv-x="1075" 
d="M891 295h-563l-52 -295h-65l51 295h-256l10 55h256l37 211h-256l10 53h256l136 770h225q184 0 290.5 -92t106.5 -252q0 -218 -147.5 -348.5t-394.5 -130.5h-160l-37 -211h563zM670 1329h-158l-127 -715h150q221 0 347 114t126 312q0 137 -89 213t-249 76z" />
    <glyph glyph-name="trademark" unicode="&#x2122;" horiz-adv-x="1562" 
d="M367 750h-62l117 667h-240l11 53h540l-10 -53h-240zM1030 750l-168 649l-114 -649h-58l127 720h82l170 -651l397 651h86l-127 -720h-57l113 641l-389 -641h-62z" />
    <glyph glyph-name="estimated" unicode="&#x212e;" horiz-adv-x="1705" 
d="M1483 279h86q-112 -149 -279.5 -224t-374.5 -75q-178 0 -332.5 59t-262 160t-169 239.5t-61.5 294.5q0 144 62 281t168 241.5t256.5 168t316.5 63.5q170 0 315.5 -57.5t248.5 -160t165 -246t72 -312.5h-1256q-43 0 -43 -45v-347q0 -79 76.5 -145.5t195.5 -102.5t248 -36
q195 0 342.5 63t225.5 181zM395 1165v-358q0 -45 43 -45h910q23 0 32 10.5t9 34.5v346q0 71 -70 136.5t-185.5 105t-240.5 39.5q-124 0 -240 -38.5t-187 -101t-71 -129.5z" />
    <glyph glyph-name="partialdiff" unicode="&#x2202;" horiz-adv-x="1110" 
d="M76 410q0 183 76.5 340t205 248.5t275.5 91.5q128 0 221 -68l-252 448h68l260 -466q104 -184 104 -345q0 -183 -77 -339.5t-209 -248t-287 -91.5q-172 0 -278.5 119t-106.5 311zM141 410q0 -170 88.5 -271.5t237.5 -101.5q134 0 249.5 84.5t184 228t68.5 309.5
q0 170 -88.5 271.5t-237.5 101.5q-134 0 -249.5 -84.5t-184 -228t-68.5 -309.5z" />
    <glyph glyph-name="increment" unicode="&#x2206;" horiz-adv-x="1296" 
d="M1143 0h-1178l813 1470h76zM805 1397l-737 -1336h997z" />
    <glyph glyph-name="product" unicode="&#x220f;" horiz-adv-x="1378" 
d="M78 -395h-68l330 1865h1028l-330 -1865h-67l317 1804h-891z" />
    <glyph glyph-name="summation" unicode="&#x2211;" horiz-adv-x="1132" 
d="M895 -395h-985l8 41l741 917l-395 867l8 40h914l-12 -61h-830l389 -852l-719 -891h891z" />
    <glyph glyph-name="minus" unicode="&#x2212;" horiz-adv-x="1351" 
d="M1182 653h-971l10 56h971z" />
    <glyph glyph-name="divisionslash" unicode="&#x2215;" horiz-adv-x="1351" 
d="M246 0h-66l983 1384h64z" />
    <glyph glyph-name="bulletoperator" unicode="&#x2219;" horiz-adv-x="1351" 
d="M799 721q0 -46 -33.5 -81.5t-77.5 -35.5q-35 0 -56.5 22t-21.5 56q0 46 33.5 81.5t77.5 35.5q35 0 56.5 -22t21.5 -56z" />
    <glyph glyph-name="radical" unicode="&#x221a;" horiz-adv-x="1802" 
d="M1907 1470l-1000 -1865h-78l-174 932h-465l11 61h508l170 -917l958 1789h70z" />
    <glyph glyph-name="infinity" unicode="&#x221e;" horiz-adv-x="2035" 
d="M1960 670q0 -183 -73 -342.5t-196.5 -253.5t-265.5 -94q-154 0 -253.5 117.5t-161.5 371.5q-152 -256 -292.5 -372.5t-295.5 -116.5t-250.5 115.5t-95.5 303.5q0 184 72 344t194.5 254.5t263.5 94.5q157 0 258.5 -118t161.5 -370q151 253 291.5 370.5t292.5 117.5
q157 0 253.5 -116.5t96.5 -305.5zM143 408q0 -167 77.5 -269t205.5 -102q145 0 269.5 111t291.5 389q-70 276 -156 386.5t-229 110.5q-119 0 -225 -87t-170 -232t-64 -307zM1049 537q69 -278 153.5 -389t227.5 -111q90 0 175 52.5t148 138t101 201.5t38 237q0 167 -78 267.5
t-208 100.5q-141 0 -266.5 -112.5t-290.5 -384.5z" />
    <glyph glyph-name="integral" unicode="&#x222b;" horiz-adv-x="989" 
d="M647 1194l-235 -1352q-23 -130 -97.5 -194t-193.5 -64q-77 0 -117 21l10 61q62 -18 111 -18q89 0 144.5 49.5t72.5 144.5l236 1348q53 293 309 293q52 0 98 -17l-10 -63q-33 16 -92 16q-196 0 -236 -225z" />
    <glyph glyph-name="approxequal" unicode="&#x2248;" horiz-adv-x="1351" 
d="M1010 750q-47 0 -100.5 23.5t-102 57t-96.5 66.5t-100 56.5t-97 23.5q-153 0 -188 -215h-62q52 270 256 270q52 0 107 -23.5t102 -57t93.5 -66.5t97 -56.5t96.5 -23.5q153 0 188 215h62q-52 -270 -256 -270zM946 379q-57 0 -126.5 35.5t-124 78t-122 78t-122.5 35.5
q-154 0 -189 -215h-61q52 271 256 271q52 0 107 -23.5t102 -57t93 -67t96.5 -57t96.5 -23.5q154 0 189 215h61q-52 -270 -256 -270z" />
    <glyph glyph-name="notequal" unicode="&#x2260;" horiz-adv-x="1351" 
d="M512 467h-334l10 55h363l227 318h-534l10 55h563l348 489h64l-348 -489h344l-11 -55h-372l-228 -318h545l-10 -55h-574l-331 -467h-64z" />
    <glyph glyph-name="lessequal" unicode="&#x2264;" horiz-adv-x="1351" 
d="M233 770l1051 471l-10 -65l-975 -437l821 -436l-12 -55l-885 469zM1067 2h-971l10 55h971z" />
    <glyph glyph-name="greaterequal" unicode="&#x2265;" horiz-adv-x="1351" 
d="M1192 719l-1051 -471l11 65l974 437l-821 436l12 55l885 -469zM1067 2h-969l11 55h966z" />
    <glyph glyph-name="lozenge" unicode="&#x25ca;" horiz-adv-x="1327" 
d="M539 -395h-74l-189 934l517 931h73l185 -931zM340 532l170 -854l477 867l-168 852z" />
    <glyph glyph-name="ITF" unicode="&#xf8ff;" horiz-adv-x="3725" 
d="M383 0v1434h442v-1434h-442zM918 1016v418h442v-418h-442zM1450 0v1434h444v-1434h-444zM1985 1016v418h442v-418h-442zM2517 0v1434h444v-1434h-444zM3052 1016v418h442v-418h-442zM3052 506v420h442v-420h-442z" />
    <glyph glyph-name="Q.ss02" horiz-adv-x="1587" 
d="M625 -373l61 342q-251 14 -409 192t-158 449q0 184 64.5 349t174.5 284t262.5 188.5t321.5 69.5q173 0 309.5 -80.5t212.5 -225.5t76 -329q0 -143 -39.5 -277.5t-111.5 -243t-168.5 -192t-217 -131.5t-249.5 -53l-62 -342h-67zM188 610q0 -250 140 -408.5t368 -170.5
l52 291h67l-51 -291q197 11 358.5 123.5t254.5 300t93 411.5q0 255 -148.5 414.5t-387.5 159.5q-155 0 -293.5 -64.5t-237.5 -175t-157 -264.5t-58 -326z" />
    <glyph glyph-name="zero.case" horiz-adv-x="1228" 
d="M778 1489q174 0 278.5 -128.5t104.5 -359.5q0 -214 -49 -404t-133.5 -326t-204 -215t-254.5 -79q-174 0 -278.5 128.5t-104.5 359.5q0 214 49 404t133.5 326t204 215t254.5 79zM772 1430q-118 0 -223.5 -74.5t-181 -203t-120 -307.5t-44.5 -380q0 -206 87.5 -317
t235.5 -111q157 0 288 126.5t206.5 348t75.5 489.5q0 206 -88 317.5t-236 111.5z" />
    <glyph glyph-name="one.case" horiz-adv-x="591" 
d="M301 0h-63l247 1411h-292l10 59h358z" />
    <glyph glyph-name="two.case" horiz-adv-x="1030" 
d="M823 61l-10 -61h-774l6 41l559 569q175 178 251.5 299t76.5 246q0 123 -80 200t-209 77q-145 0 -244.5 -93t-128.5 -256h-67q37 193 152.5 300.5t287.5 107.5q158 0 258 -93t100 -241q0 -136 -79.5 -263t-268.5 -321l-499 -512h669z" />
    <glyph glyph-name="three.case" horiz-adv-x="1204" 
d="M557 -18q-198 0 -323 110.5t-125 296.5h67q0 -157 107 -251.5t274 -94.5q173 0 278 103.5t105 275.5q0 136 -94.5 220.5t-243.5 84.5h-141l12 61h133q165 0 281.5 105t116.5 258q0 124 -84.5 201.5t-208.5 77.5q-146 0 -244.5 -87.5t-120.5 -236.5h-67q26 177 142.5 280
t289.5 103q156 0 259 -93.5t103 -244.5q0 -144 -86.5 -245.5t-247.5 -149.5q121 -29 197 -121t76 -213q0 -198 -126.5 -319t-328.5 -121z" />
    <glyph glyph-name="four.case" horiz-adv-x="1169" 
d="M1024 385h-188l-68 -385h-63l67 385h-713l7 33l929 1055h31l-180 -1031h188zM164 442h618l152 875z" />
    <glyph glyph-name="five.case" horiz-adv-x="1130" 
d="M522 -18q-189 0 -308.5 108.5t-119.5 278.5h60q0 -143 103.5 -235.5t264.5 -92.5q180 0 296 125.5t116 320.5q0 151 -95 250t-241 99q-107 0 -197.5 -45.5t-181.5 -143.5l-45 6l270 817h652l-11 -59h-600l-219 -655q161 139 340 139q169 0 283.5 -116.5t114.5 -289.5
q0 -221 -136 -364t-346 -143z" />
    <glyph glyph-name="six.case" horiz-adv-x="1177" 
d="M502 -20q-178 0 -285.5 108t-107.5 287q0 126 63 252t203 278l520 565h82l-561 -606q116 68 241 68q169 0 276 -108.5t107 -280.5q0 -152 -72 -281.5t-196 -205.5t-270 -76zM506 39q125 0 232 68t170 184t63 252q0 149 -89.5 241.5t-234.5 92.5q-196 0 -333.5 -146.5
t-137.5 -355.5q0 -157 88 -246.5t242 -89.5z" />
    <glyph glyph-name="seven.case" horiz-adv-x="989" 
d="M1104 1432l-850 -1432h-74l842 1409h-825l10 61h903z" />
    <glyph glyph-name="eight.case" horiz-adv-x="1263" 
d="M1075 440q0 -201 -142 -329.5t-362 -128.5q-191 0 -312.5 101t-121.5 259q0 157 104 271t287 157q-86 26 -143 108.5t-57 182.5q0 181 129 305.5t317 124.5q157 0 261 -94.5t104 -235.5q0 -139 -87.5 -249.5t-230.5 -153.5q113 -29 183.5 -117.5t70.5 -200.5zM397 1061
q0 -120 78 -195t203 -75q168 0 279.5 105.5t111.5 264.5q0 119 -85 195t-218 76q-155 0 -262 -107t-107 -264zM207 342q0 -132 104 -216.5t267 -84.5q186 0 307 113t121 286q0 128 -94.5 209.5t-243.5 81.5q-199 0 -330 -110.5t-131 -278.5z" />
    <glyph glyph-name="nine.case" horiz-adv-x="1177" 
d="M745 1489q178 0 286 -108t108 -287q0 -126 -63.5 -252t-203.5 -279l-520 -563h-82l561 604q-114 -67 -241 -67q-169 0 -276 108.5t-107 280.5q0 152 72 281.5t196 205.5t270 76zM741 1430q-125 0 -232 -68t-170 -184t-63 -252q0 -149 89.5 -241.5t234.5 -92.5
q196 0 333.5 146.5t137.5 355.5q0 157 -88 246.5t-242 89.5z" />
    <glyph glyph-name="zero.dnom" horiz-adv-x="733" 
d="M653 559q0 -249 -105.5 -410t-268.5 -161q-117 0 -179.5 72t-62.5 206q0 249 107 413.5t268 164.5q115 0 178 -74t63 -211zM96 276q0 -115 46.5 -174t136.5 -59q88 0 159.5 67t112.5 185t41 262q0 231 -182 231q-132 0 -223 -148t-91 -364z" />
    <glyph glyph-name="one.dnom" horiz-adv-x="419" 
d="M156 0h-58l138 778h-170l10 53h227z" />
    <glyph glyph-name="two.dnom" horiz-adv-x="630" 
d="M477 53l-10 -53h-485l6 35l331 301q98 89 142.5 162.5t44.5 144.5q0 64 -44.5 104.5t-113.5 40.5q-90 0 -148 -48.5t-73 -135.5h-57q22 113 95 176.5t183 63.5q96 0 157.5 -56t61.5 -143t-48.5 -166.5t-164.5 -183.5l-268 -242h391z" />
    <glyph glyph-name="three.dnom" horiz-adv-x="729" 
d="M588 236q0 -106 -78.5 -176t-196.5 -70q-126 0 -205 65.5t-79 169.5h55q0 -78 64.5 -129t164.5 -51q92 0 151.5 54t59.5 137q0 70 -58 117.5t-144 47.5h-82l10 54h82q92 0 158.5 58t66.5 140q0 63 -42 99t-116 36q-79 0 -139 -45t-80 -120h-57q23 98 99.5 159.5
t176.5 61.5q97 0 158 -53t61 -138q0 -78 -48.5 -138t-135.5 -89q154 -53 154 -190z" />
    <glyph glyph-name="four.dnom" horiz-adv-x="700" 
d="M575 209h-110l-37 -209h-59l37 209h-418l6 37l545 585h36l-100 -569h111zM72 262h344l84 459z" />
    <glyph glyph-name="five.dnom" horiz-adv-x="679" 
d="M573 272q0 -117 -83 -199.5t-203 -82.5q-124 0 -199.5 64.5t-75.5 170.5h56q0 -80 60.5 -130t158.5 -50q94 0 158.5 65.5t64.5 161.5q0 88 -49 138.5t-135 50.5q-62 0 -121 -27t-103 -76l-41 11l158 462h402l-9 -53h-356l-113 -334q80 72 189 72q107 0 174 -68t67 -176z
" />
    <glyph glyph-name="six.dnom" horiz-adv-x="710" 
d="M596 301q0 -132 -95.5 -222.5t-232.5 -90.5q-109 0 -180.5 66t-71.5 167q0 72 36 139t124 156l311 315h70l-315 -323q62 27 114 27q103 0 171.5 -66.5t68.5 -167.5zM537 301q0 80 -52.5 129t-138.5 49q-114 0 -192 -75t-78 -183q0 -82 51.5 -130t140.5 -48
q113 0 191 74.5t78 183.5z" />
    <glyph glyph-name="seven.dnom" horiz-adv-x="593" 
d="M612 795l-487 -795h-66l486 778h-477l10 53h543z" />
    <glyph glyph-name="eight.dnom" horiz-adv-x="757" 
d="M616 250q0 -114 -90.5 -187t-232.5 -73q-117 0 -189.5 57t-72.5 148q0 86 61 151t164 88q-50 17 -82.5 63t-32.5 101q0 103 82.5 174.5t200.5 71.5q95 0 160 -56t65 -139q0 -74 -49 -133t-131 -84q66 -19 106.5 -68.5t40.5 -113.5zM201 598q0 -62 44.5 -100.5
t116.5 -38.5q98 0 163 54t65 136q0 60 -47 99.5t-119 39.5q-97 0 -160 -53.5t-63 -136.5zM92 195q0 -69 54.5 -109.5t146.5 -40.5q115 0 189.5 58t74.5 147q0 69 -54 111t-143 42q-116 0 -192 -59t-76 -149z" />
    <glyph glyph-name="nine.dnom" horiz-adv-x="710" 
d="M72 530q0 132 95 223t232 91q109 0 180.5 -66.5t71.5 -167.5q0 -72 -36 -139t-123 -156l-312 -315h-69l315 324q-62 -27 -115 -27q-103 0 -171 66t-68 167zM131 530q0 -80 52.5 -129t138.5 -49q114 0 192 75t78 183q0 82 -52 130t-141 48q-113 0 -190.5 -74.5
t-77.5 -183.5z" />
    <glyph glyph-name="zero.numr_alt" horiz-adv-x="921" 
d="M469 537q-141 0 -229 94.5t-88 245.5q0 139 61 259t165.5 190.5t225.5 70.5q141 0 229.5 -94.5t88.5 -245.5q0 -139 -61.5 -259t-166 -190.5t-225.5 -70.5zM471 592q158 0 272.5 137.5t114.5 327.5q0 129 -69.5 206.5t-186.5 77.5q-158 0 -272.5 -137t-114.5 -327
q0 -129 69.5 -207t186.5 -78z" />
    <glyph glyph-name="zero.numr" horiz-adv-x="735" 
d="M752 1112q0 -249 -106 -410t-269 -161q-117 0 -179.5 72t-62.5 206q0 249 107 413.5t268 164.5q116 0 179 -74.5t63 -210.5zM195 829q0 -233 182 -233q88 0 159.5 67t112.5 185t41 262q0 231 -182 231q-132 0 -222.5 -147.5t-90.5 -364.5z" />
    <glyph glyph-name="one.numr" horiz-adv-x="419" 
d="M254 553h-57l137 778h-170l10 53h227z" />
    <glyph glyph-name="two.numr" horiz-adv-x="630" 
d="M575 606l-10 -53h-485l6 35l332 301q97 89 141.5 162.5t44.5 144.5q0 64 -44.5 104.5t-113.5 40.5q-90 0 -148 -48.5t-73 -135.5h-57q22 113 95 176.5t183 63.5q96 0 158 -56t62 -143t-48.5 -166.5t-164.5 -183.5l-269 -242h391z" />
    <glyph glyph-name="three.numr" horiz-adv-x="729" 
d="M686 791q0 -106 -78 -176t-196 -70q-126 0 -205.5 65.5t-79.5 169.5h55q0 -78 65 -129t165 -51q92 0 151.5 54t59.5 137q0 70 -58.5 117.5t-144.5 47.5h-82l10 54h82q92 0 158.5 58t66.5 140q0 63 -42 99t-115 36q-79 0 -139 -45t-80 -120h-58q23 98 100 159.5t177 61.5
q97 0 158 -53t61 -138q0 -78 -48.5 -138t-136.5 -89q154 -53 154 -190z" />
    <glyph glyph-name="four.numr" horiz-adv-x="700" 
d="M674 762h-111l-37 -209h-59l37 209h-418l6 37l545 585h37l-101 -569h111zM170 815h344l84 459z" />
    <glyph glyph-name="five.numr" horiz-adv-x="679" 
d="M672 825q0 -117 -83.5 -199.5t-203.5 -82.5q-124 0 -199 64.5t-75 170.5h55q0 -80 60.5 -130t158.5 -50q94 0 158.5 65.5t64.5 161.5q0 88 -49 138.5t-135 50.5q-62 0 -120.5 -27t-102.5 -76l-41 11l157 462h402l-8 -53h-357l-112 -334q80 72 188 72q107 0 174.5 -68.5
t67.5 -175.5z" />
    <glyph glyph-name="six.numr" horiz-adv-x="710" 
d="M694 854q0 -132 -95 -222.5t-232 -90.5q-109 0 -180.5 66t-71.5 167q0 72 36 139t123 156l312 315h69l-315 -323q60 26 115 26q103 0 171 -66t68 -167zM635 854q0 80 -52.5 129t-138.5 49q-114 0 -192 -75t-78 -183q0 -82 52 -130t141 -48q113 0 190.5 74.5t77.5 183.5z
" />
    <glyph glyph-name="seven.numr" horiz-adv-x="593" 
d="M711 1348l-488 -795h-65l485 778h-477l10 53h543z" />
    <glyph glyph-name="eight.numr" horiz-adv-x="759" 
d="M715 803q0 -114 -91 -187t-233 -73q-117 0 -189.5 57t-72.5 148q0 86 61 151t164 88q-50 17 -82 63t-32 101q0 103 82 174.5t200 71.5q96 0 161 -56t65 -139q0 -73 -49.5 -132.5t-131.5 -84.5q67 -19 107.5 -68.5t40.5 -113.5zM299 1151q0 -62 45 -100.5t117 -38.5
q98 0 162.5 54t64.5 136q0 60 -47 99.5t-119 39.5q-97 0 -160 -53.5t-63 -136.5zM190 748q0 -69 54.5 -109.5t146.5 -40.5q115 0 189.5 58t74.5 147q0 69 -53.5 111t-142.5 42q-116 0 -192.5 -59t-76.5 -149z" />
    <glyph glyph-name="nine.numr" horiz-adv-x="710" 
d="M170 1083q0 132 95.5 223t232.5 91q109 0 180.5 -66.5t71.5 -167.5q0 -72 -36 -139t-124 -156l-311 -315h-70l315 324q-62 -27 -114 -27q-103 0 -171.5 66t-68.5 167zM229 1083q0 -80 52.5 -129t138.5 -49q114 0 192 75t78 183q0 82 -51.5 130t-140.5 48
q-113 0 -191 -74.5t-78 -183.5z" />
    <glyph glyph-name="caroncomb.alt" 
d="M618 1178h-45l52 292h69z" />
    <glyph glyph-name="caroncomb.alt2" 
d="M645 1096h-45l66 374h69z" />
    <glyph glyph-name="strokeshortcomb.case" 
d="M862 731h-631l11 57h630z" />
    <glyph glyph-name="slashshortcomb.case" 
d="M907 836l-723 -211l11 63l725 211z" />
    <glyph glyph-name="slashlongcomb.case" 
d="M-156 0h-77l1480 1470h78z" />
    <glyph glyph-name="dieresiscomb.narrow" 
d="M868 1343q0 -40 -27.5 -71t-64.5 -31q-28 0 -44.5 19.5t-16.5 48.5q0 41 27.5 70.5t64.5 29.5q28 0 44.5 -18.5t16.5 -47.5zM588 1343q0 -40 -27.5 -71t-64.5 -31q-29 0 -46.5 19.5t-17.5 48.5q0 40 28 70t66 30q28 0 45 -18.5t17 -47.5z" />
    <glyph glyph-name="gravecomb.narrow" 
d="M748 1217h-70l-133 253h69z" />
    <glyph glyph-name="acutecomb.narrow" 
d="M588 1217h-82l221 253h82z" />
    <glyph glyph-name="circumflexcomb.narrow" 
d="M465 1217h-82l272 253h45l183 -253h-68l-141 196z" />
    <glyph glyph-name="a.ss01" horiz-adv-x="1130" 
d="M74 387q0 195 73 357t200 255t280 93q127 0 214 -75.5t113 -207.5l47 262h64l-191 -1071h-63l49 274q-70 -136 -184 -215t-240 -79q-166 0 -264 110t-98 297zM139 389q0 -167 80 -259.5t223 -92.5q105 0 197.5 58.5t154 152t97 208.5t35.5 228q0 162 -82 256t-226 94
q-132 0 -242 -85.5t-173.5 -234t-63.5 -325.5z" />
    <glyph glyph-name="aacute.ss01" horiz-adv-x="1130" 
d="M707 1217h-86l241 253h86zM74 387q0 195 73 357t200 255t280 93q127 0 214 -75.5t113 -207.5l47 262h64l-191 -1071h-63l49 274q-70 -136 -184 -215t-240 -79q-166 0 -264 110t-98 297zM139 389q0 -167 80 -259.5t223 -92.5q105 0 197.5 58.5t154 152t97 208.5t35.5 228
q0 162 -82 256t-226 94q-132 0 -242 -85.5t-173.5 -234t-63.5 -325.5z" />
    <glyph glyph-name="abreve.ss01" horiz-adv-x="1130" 
d="M883 1470h63q-22 -120 -97 -190t-181 -70q-105 0 -167.5 70.5t-62.5 189.5h62q0 -98 44 -151t124 -53q82 0 140 55t75 149zM74 387q0 195 73 357t200 255t280 93q127 0 214 -75.5t113 -207.5l47 262h64l-191 -1071h-63l49 274q-70 -136 -184 -215t-240 -79
q-166 0 -264 110t-98 297zM139 389q0 -167 80 -259.5t223 -92.5q105 0 197.5 58.5t154 152t97 208.5t35.5 228q0 162 -82 256t-226 94q-132 0 -242 -85.5t-173.5 -234t-63.5 -325.5z" />
    <glyph glyph-name="acircumflex.ss01" horiz-adv-x="1130" 
d="M471 1217h-88l297 253h51l209 -253h-74l-164 196zM74 387q0 195 73 357t200 255t280 93q127 0 214 -75.5t113 -207.5l47 262h64l-191 -1071h-63l49 274q-70 -136 -184 -215t-240 -79q-166 0 -264 110t-98 297zM139 389q0 -167 80 -259.5t223 -92.5q105 0 197.5 58.5
t154 152t97 208.5t35.5 228q0 162 -82 256t-226 94q-132 0 -242 -85.5t-173.5 -234t-63.5 -325.5z" />
    <glyph glyph-name="adieresis.ss01" horiz-adv-x="1130" 
d="M915 1341q0 -39 -29 -69.5t-67 -30.5q-29 0 -48 20t-19 50q0 38 30 68t68 30q29 0 47 -18.5t18 -49.5zM610 1341q0 -39 -29 -69.5t-67 -30.5q-30 0 -49 20t-19 50q0 39 30 68.5t69 29.5q29 0 47 -18.5t18 -49.5zM74 387q0 195 73 357t200 255t280 93q127 0 214 -75.5
t113 -207.5l47 262h64l-191 -1071h-63l49 274q-70 -136 -184 -215t-240 -79q-166 0 -264 110t-98 297zM139 389q0 -167 80 -259.5t223 -92.5q105 0 197.5 58.5t154 152t97 208.5t35.5 228q0 162 -82 256t-226 94q-132 0 -242 -85.5t-173.5 -234t-63.5 -325.5z" />
    <glyph glyph-name="agrave.ss01" horiz-adv-x="1130" 
d="M686 1217h-72l-153 253h71zM74 387q0 195 73 357t200 255t280 93q127 0 214 -75.5t113 -207.5l47 262h64l-191 -1071h-63l49 274q-70 -136 -184 -215t-240 -79q-166 0 -264 110t-98 297zM139 389q0 -167 80 -259.5t223 -92.5q105 0 197.5 58.5t154 152t97 208.5t35.5 228
q0 162 -82 256t-226 94q-132 0 -242 -85.5t-173.5 -234t-63.5 -325.5z" />
    <glyph glyph-name="amacron.ss01" horiz-adv-x="1130" 
d="M915 1247h-503l10 58h504zM74 387q0 195 73 357t200 255t280 93q127 0 214 -75.5t113 -207.5l47 262h64l-191 -1071h-63l49 274q-70 -136 -184 -215t-240 -79q-166 0 -264 110t-98 297zM139 389q0 -167 80 -259.5t223 -92.5q105 0 197.5 58.5t154 152t97 208.5t35.5 228
q0 162 -82 256t-226 94q-132 0 -242 -85.5t-173.5 -234t-63.5 -325.5z" />
    <glyph glyph-name="aogonek.ss01" horiz-adv-x="1130" 
d="M74 387q0 195 73 357t200 255t280 93q127 0 214 -75.5t113 -207.5l47 262h64l-191 -1071h-24q-97 -53 -152 -121.5t-55 -138.5q0 -43 25 -66.5t69 -23.5q46 0 97 22l-11 -61q-62 -19 -96 -19q-66 0 -105.5 38.5t-39.5 103.5q0 81 62 158t171 133l45 249
q-70 -136 -184 -215t-240 -79q-166 0 -264 110t-98 297zM139 389q0 -167 80 -259.5t223 -92.5q105 0 197.5 58.5t154 152t97 208.5t35.5 228q0 162 -82 256t-226 94q-132 0 -242 -85.5t-173.5 -234t-63.5 -325.5z" />
    <glyph glyph-name="aring.ss01" horiz-adv-x="1130" 
d="M666 1208q-77 0 -127 48.5t-50 121.5q0 93 68.5 160.5t163.5 67.5q76 0 127 -49t51 -123q0 -91 -69 -158.5t-164 -67.5zM672 1262q69 0 118.5 50t49.5 122q0 54 -34.5 86t-90.5 32q-69 0 -117.5 -50.5t-48.5 -123.5q0 -54 33 -85t90 -31zM74 387q0 195 73 357t200 255
t280 93q127 0 214 -75.5t113 -207.5l47 262h64l-191 -1071h-63l49 274q-70 -136 -184 -215t-240 -79q-166 0 -264 110t-98 297zM139 389q0 -167 80 -259.5t223 -92.5q105 0 197.5 58.5t154 152t97 208.5t35.5 228q0 162 -82 256t-226 94q-132 0 -242 -85.5t-173.5 -234
t-63.5 -325.5z" />
    <glyph glyph-name="atilde.ss01" horiz-adv-x="1130" 
d="M420 1217h-55q15 115 65.5 179t124.5 64q35 0 65 -18.5t51.5 -44.5t41.5 -52t45 -44.5t53 -18.5q46 0 79.5 49.5t45.5 138.5h57q-15 -114 -65.5 -178.5t-124.5 -64.5q-35 0 -65 18.5t-51.5 44.5t-41.5 52t-45 44.5t-53 18.5q-48 0 -81.5 -49.5t-45.5 -138.5zM74 387
q0 195 73 357t200 255t280 93q127 0 214 -75.5t113 -207.5l47 262h64l-191 -1071h-63l49 274q-70 -136 -184 -215t-240 -79q-166 0 -264 110t-98 297zM139 389q0 -167 80 -259.5t223 -92.5q105 0 197.5 58.5t154 152t97 208.5t35.5 228q0 162 -82 256t-226 94
q-132 0 -242 -85.5t-173.5 -234t-63.5 -325.5z" />
    </font>
</defs>
</svg>
